<svg width="458" height="458" viewBox="0 0 458 458" fill="none" xmlns="http://www.w3.org/2000/svg">
<path d="M4.85986 260.381C5.11986 260.961 5.50987 260.571 5.23987 258.901L4.37988 257.791L4.85986 260.381Z" fill="#1F686A"/>
<path d="M4.99982 248.941C4.43982 247.011 3.5898 244.791 3.0498 246.141C3.9498 248.021 3.69983 248.531 4.75983 250.551C5.00983 252.221 4.82982 253.551 4.52982 253.251C4.77982 253.821 4.65981 255.871 5.20981 256.721C5.48622 254.083 5.24505 251.416 4.49982 248.871C4.59982 248.231 4.84982 248.821 4.99982 248.941Z" fill="#1F686A"/>
<path d="M48.1201 94.5L47.4102 95.29C47.6681 95.0466 47.9055 94.7823 48.1201 94.5Z" fill="#1F686A"/>
<path d="M125.12 29.5615C124.44 29.9315 124.19 30.1514 124.19 30.2314C124.8 29.8514 125.3 29.5415 125.12 29.5615Z" fill="#1F686A"/>
<path d="M141.12 22.9199L140.12 23.2699C140.471 23.21 140.809 23.0917 141.12 22.9199V22.9199Z" fill="#1F686A"/>
<path d="M48.1201 94.5015L49.9301 92.5015C49.8901 92.1715 48.9901 93.4715 48.1201 94.5015Z" fill="#1F686A"/>
<path d="M1.35059 226.381C1.40658 226.881 1.50018 227.375 1.63058 227.861C1.58058 227.391 1.52058 226.931 1.47058 226.461L1.35059 226.381Z" fill="#1F686A"/>
<path d="M25.6001 133.08L25.2601 133.83C25.2401 134.08 25.2401 134.33 25.2601 134.58L25.6001 133.08Z" fill="#1F686A"/>
<path d="M13.5503 165.142C13.7903 164.412 13.2703 163.972 13.0903 163.602C13.1998 164.182 13.1793 164.78 13.0303 165.352C13.1203 165.402 13.3003 165.342 13.5503 165.142Z" fill="#1F686A"/>
<path d="M3.61035 218.541L3.71036 219.541C3.68036 219.251 3.64035 218.831 3.61035 218.541Z" fill="#1F686A"/>
<path d="M37.4404 111.641C37.5703 111.63 37.6932 111.577 37.7904 111.491C37.7304 111.401 37.6004 111.471 37.4404 111.641Z" fill="#1F686A"/>
<path d="M200.95 455.641C200.95 455.641 200.95 455.571 200.95 455.531C200.75 455.551 200.68 455.581 200.95 455.641Z" fill="#1F686A"/>
<path d="M162.2 444.32L162.74 444.45C162.832 444.365 162.906 444.263 162.96 444.15L162.2 444.32Z" fill="#1F686A"/>
<path d="M171.121 13.4707H170.981C170.241 13.7707 170.691 13.6407 171.121 13.4707Z" fill="#1F686A"/>
<path d="M420.52 115.461C419.36 112.321 423.81 119.741 421.87 115.131C421.89 115.641 418.79 111.721 420.52 115.461Z" fill="#1F686A"/>
<path d="M1.38022 225.481C1.38022 225.011 1.32022 224.481 1.31022 224.051C1.30528 224.528 1.32866 225.006 1.38022 225.481V225.481Z" fill="#1F686A"/>
<path d="M421.87 115.13L421.66 114.66C421.76 114.85 421.8 114.96 421.87 115.13Z" fill="#1F686A"/>
<path d="M243.12 6.18158C242.899 6.0331 242.656 5.92162 242.4 5.85156C242.37 5.92156 242.53 6.01158 243.12 6.18158Z" fill="#1F686A"/>
<path d="M189 8.23157L190.34 8.10156C189.8 8.13156 189.37 8.18157 189 8.23157Z" fill="#1F686A"/>
<path d="M271.12 8.89062C271.751 9.09134 272.401 9.2254 273.06 9.29062C272.972 9.23751 272.878 9.19393 272.78 9.16061C272.215 9.16859 271.653 9.07721 271.12 8.89062V8.89062Z" fill="#1F686A"/>
<path d="M299.461 16.3705L298.991 16.0805L298.101 15.8105L299.461 16.3705Z" fill="#1F686A"/>
<path d="M291.12 448.131C290.622 448.146 290.124 448.092 289.64 447.971C290.18 448.271 285.99 449.641 291.12 448.131Z" fill="#1F686A"/>
<path d="M1.69986 226.35C1.5034 226.102 1.39133 225.797 1.37988 225.48L1.46988 226.48C1.56988 226.55 1.65986 226.56 1.69986 226.35Z" fill="#1F686A"/>
<path d="M273.23 4.28125C274.8 4.55125 276.32 5.02123 277.87 5.38123C276.58 5.05123 274.91 4.54125 273.23 4.28125Z" fill="#1F686A"/>
<path d="M442.65 307.15L442.32 308.15C442.466 307.83 442.577 307.495 442.65 307.15V307.15Z" fill="#1F686A"/>
<path d="M291.601 8.78125C292.39 9.22618 293.213 9.61061 294.061 9.93124C294.254 9.9463 294.448 9.9463 294.641 9.93124L291.601 8.78125Z" fill="#1F686A"/>
<path d="M259.22 455.73C263.73 455.17 261.22 454.67 262.11 454.08C267.4 452.99 264.67 454.26 266.56 454.37C269.86 453.55 272.27 452.37 274.74 451.93C274.95 452.02 275.44 451.93 274.92 452.25C278.24 450.76 285.28 449.98 289.03 447.92C289.221 447.879 289.419 447.879 289.61 447.92C288.85 447.71 288.61 447.34 288.7 447.01C290.63 446.45 292.15 445.49 293.03 445.8C292.386 445.945 291.789 446.248 291.29 446.68L293.29 445.88C295.34 446.09 290.58 446.88 290.74 447.47C292.69 446.76 294.8 446 296.74 445.18C298.475 444.399 300.259 443.731 302.08 443.18C302.95 443.68 295.14 445.8 299.36 445.08C297.77 445.5 296.21 445.99 294.6 446.31C298.6 446.42 291.7 447.05 295.39 447.31C301.63 445.5 302.19 444.72 308.39 442.73C309.6 441.8 307.73 442.32 308.93 441.4C317.15 437.34 316.4 440.58 322.16 436.86C323.54 435.65 323.79 434.6 328.31 432.95L327.12 434.53C332.76 431.76 329.76 431.81 335.85 429.33C334.98 430.16 331.61 431.83 332.5 431.49C336.58 430.12 334.98 429.74 337.82 428.15L338.82 428.47C341.67 426.73 344.68 424.92 347.64 422.87L356.64 416.56C356.43 416.98 355.53 417.91 357.07 417.1C364.52 411.49 373.17 405.41 380.18 399.71C380.89 398.78 381.65 397.91 382.32 396.94C382.9 396.39 383.59 396.13 383.05 396.82C385.76 394.58 382.9 396.39 383.95 395.05C385.35 393.64 386.11 393.5 385.33 394.51L389 390.45L393.27 385.58C396.27 382.33 399.21 378.94 401.59 376.7L400.91 377.78C402.168 376.496 403.22 375.025 404.03 373.42C404.756 371.863 405.774 370.461 407.03 369.29L406.56 370.07C408.29 367.93 410.13 365.79 411.75 363.49L416.57 356.67L420.96 350.14L424.96 344.49C424.96 342.65 430.76 335.23 429.82 333.93C433.19 328.61 432.82 330.43 436.82 322.51C437.82 320.37 437.57 318.99 438.55 316.24L439.21 316.43L440 312.43L441.53 310.76L442.38 308.15C441.94 309.15 441.24 310.2 441.11 309.98C441.79 307.98 442.78 305.54 443.61 303.61C444.039 302.421 444.653 301.307 445.43 300.31C446.43 297.06 447.1 293.75 447.83 290.44C448.03 290.73 447.66 292.39 447.46 293.74C448.27 288.33 448.46 292.98 449.17 288.03C448.83 288.63 448.87 287.58 448.77 287.44C449.9 285.18 451.05 279.65 451.85 275.56L452.13 276.44C453.03 272.78 453.55 268.83 454.24 264.8C454.93 260.77 455.17 256.56 455.73 252.37C455.13 255.37 454.41 254.57 454.64 252.12C454.93 251.81 455.18 251.51 455.45 251.2C455.12 249.57 454.98 253.75 454.69 250.43C455.01 247.31 455.69 248.43 455.76 250.22V246.38C455.99 246.17 456.04 247.08 456.3 247.38C455.92 245.78 457.62 240.81 456.82 238.49L457.04 238.29C457.14 234.06 457.19 230.98 457.14 228.1C457.09 225.22 456.91 222.55 456.76 219.1C456.15 218.99 456.22 216.29 455.52 214.29C455.46 211.77 455.39 209.1 455.32 206.29C455.25 203.48 454.88 200.59 454.49 197.57C453.64 193.37 453.81 196.4 453.2 194.57C453.76 194.17 452.6 188.2 453.57 191.24C452.87 187.65 452.42 185.37 451.92 182.84C451.42 180.31 450.52 177.62 449.27 173.19C449.27 174.19 449.42 175.34 449.1 174.81C448.64 173.21 448.47 171.06 448.77 171.23L448.95 171.64C445.55 161.89 443.5 148.24 439.16 141.02L439.38 141.42C438.18 138.83 436.7 136.36 435.38 133.84C433.85 130.21 436.74 135.84 435.86 133.01C431.1 125.06 429.54 119.83 425.15 113.57C424.49 110.57 421.57 106.17 418.53 101.57C416.97 99.31 415.23 97.1 413.74 94.95C412.98 93.88 412.27 92.84 411.63 91.84C410.99 90.84 410.33 89.95 409.82 89.08V89.68C408.24 88.3 408.46 87.59 407.59 86.34C407.49 86.7 408.69 88.34 407.74 87.44C402.25 80.68 396.28 73.99 390.17 67.32C383.969 60.7352 377.374 54.5337 370.42 48.75C365.3 44.64 366.34 47.97 360.2 42.46L362.53 43.22C351.37 36.22 340.01 28.27 328.03 23.33C328.728 23.391 329.408 23.588 330.03 23.91C327.89 22.07 320.88 19.65 320.7 19.99C318.89 19.11 320.43 19.43 319.39 18.72C317.04 17.23 312.77 16.78 311.63 15.72C311.43 15.55 312.41 15.84 312.89 15.99C311.14 15.56 305.18 12.89 306.55 14.09C302.05 12.31 297.73 11.28 294.12 9.91C291.51 9.91 286.23 7.32002 285.22 8.05002C285.81 7.16002 277.14 5.34001 274.06 5.14001C275.13 5.02001 271.5 4.36001 272.77 4.14001C269.32 3.54001 266.13 3.14003 266.64 3.78003C263.59 2.55003 260.32 2.43001 257.44 2.26001C254.56 2.09001 252.05 1.87001 250.31 1.01001C245.11 0.92001 240.12 0.620018 235.31 0.800018L228.12 0.890015L221.12 1.25C221.43 0.25 231.4 0.92 231.01 0C222.13 0.35 217.09 1.43002 208.36 1.86002C206.08 1.86002 209.6 1.34003 210.36 1.12003C205.96 1.54003 201.73 2.21 197.61 2.63C193.609 3.1596 189.637 3.89053 185.71 4.82001C186.208 4.55396 186.744 4.36835 187.3 4.27002C185.77 4.52002 183.74 4.82 184 5.22L185.45 4.78003C187.98 4.92003 179.72 7.41003 179.54 7.78003C181.81 5.91003 171.93 9.14001 175.6 6.60001C174.6 6.93001 173.45 7.47001 173.75 7.70001C172.27 8.00001 171.75 7.95001 173.16 7.23001C167.85 8.88001 169.88 8.81 165.04 10.13C165.04 9.9 165.94 9.53 166.37 9.13C163.591 10.5615 160.668 11.6945 157.65 12.51C157.85 12.3 157.33 12.29 158.53 11.91C155.392 12.9771 152.323 14.2361 149.34 15.68C146.4 16.92 143.48 18.39 139.71 19.68C141.51 17.9 137.09 20.43 136.36 19.84L132.57 21.89L134.12 21.64C130.72 23.26 127.92 25.09 124.98 26.41L127.3 24.81L121.13 28.22L124.8 26.65C121.64 28.79 125.64 27.39 121.13 29.5C121.98 28.95 117.81 31.21 115.91 31.83C114.239 33.234 112.406 34.4326 110.45 35.4C109.69 35.54 110.45 34.33 109.98 34.4C108.77 35.94 102.67 39.3 101.14 41.19C101.68 40.6 101.48 40.24 101.21 40.29L100.32 41.64C98.8001 42.5 98.5501 42.57 98.5801 42.13C94.2501 45.07 100.58 42.02 95.2201 45.24C95.5038 44.9177 95.8078 44.6137 96.1301 44.33C93.6035 45.9967 91.1915 47.8308 88.9101 49.82L82.1801 55.31C80.3601 55.77 85.8601 51.9 83.9401 52.62C77.6901 58.08 71.6301 64.55 66.0101 70.21L67.1201 69.21C67.2001 70.83 62.4801 72.99 60.2401 76.44C60.8401 75.65 60.6201 75.03 60.5401 75.32C56.7001 79.23 53.3001 83.89 48.5401 90.66L48.9201 89.66C46.8001 92.1 43.6101 96.3 41.6101 99.16C41.2701 100.16 40.1101 101.8 41.1501 101.05C37.3301 104.94 34.9301 109.52 32.5401 113.87C30.4927 118.289 28.1334 122.556 25.4801 126.64C25.9801 125.64 26.4801 124.09 26.0501 124.9C24.9301 127.37 23.7501 129.81 22.6901 132.3C23.4101 131.93 23.4001 131.46 24.5401 130.12C24.0918 131.832 23.5031 133.505 22.7801 135.12C23.9601 131.66 22.0201 134.8 21.1201 136.12C21.3701 135.95 21.3101 136.51 21.5101 136.45C18.9701 139.96 22.1001 137.45 19.3101 142.56L19.1701 142.17C18.6118 144.264 17.9442 146.326 17.1701 148.35C16.2601 149.04 17.7501 146.11 17.3501 145.8C16.8277 147.33 16.3936 148.89 16.0501 150.47C15.7959 151.988 15.3032 153.456 14.5901 154.82C14.8901 153.45 15.5101 151.55 15.8401 150.19C14.7511 151.892 13.8935 153.732 13.2901 155.66L13.3801 155.44C12.6901 157.16 11.9501 158.87 11.3101 160.61C11.5001 160.18 11.7001 159.75 11.9201 159.32C11.9564 161.492 11.6181 163.653 10.9201 165.71C10.1064 168.069 9.59565 170.522 9.40012 173.01C9.73012 167.57 9.07013 172.01 8.51013 171.45C8.00013 172.77 7.29012 174.82 7.25012 174.17C7.25012 176.85 5.71012 178.32 5.81012 182.12C5.56012 182.24 5.25012 184.87 4.81012 184.18C4.33012 187.57 5.33011 183.46 5.55011 183.8C5.18011 189.04 2.50011 195.8 2.55011 203.42C2.12011 209.89 2.73012 211.23 3.03012 217.2C2.67012 219.2 2.25012 215.53 2.25012 215.53C1.93128 218.472 1.98504 221.442 2.41013 224.37C2.20013 223.75 2.05011 224.37 1.86011 225.37C2.06011 227.84 2.72012 226.98 2.62012 230.26C2.18132 229.501 1.84506 228.687 1.62012 227.84C1.99012 230.75 2.62011 233.6 3.05011 236.59C2.74011 237.42 2.33012 234.82 2.00012 233.77C2.43012 237.15 3.08013 242.51 3.79013 243.5V241.31C3.93013 242.54 3.34011 241.99 3.14011 241.1C2.40011 238.24 2.99011 236.9 3.14011 236.72L3.4501 238.85C4.5301 236.54 2.5201 230.27 2.4501 225.93L3.4501 227.68L2.4501 223.29C2.6601 222.29 3.15012 221.68 3.37012 223.8C3.70012 220.7 2.93012 221.07 3.37012 218.41C3.44012 218.11 3.49012 218.25 3.53012 218.52C3.41012 217.52 3.35013 216.52 3.26013 215.52C3.45013 216.12 3.91011 215.03 3.77011 216.88C4.30011 211.52 3.52011 208.17 4.46011 206.22V206.64C5.11011 199.12 3.88012 205.83 3.81012 200.13L6.12012 196.64L5.56012 195.82C5.69012 195.05 5.97012 193.54 6.19012 193.82C6.19012 190.9 5.83011 194.27 5.64011 192.54C6.78011 188.95 7.27012 182.35 8.44012 181.74C8.20012 180.31 7.38012 185.16 7.78012 181.17C9.11012 180.3 8.66011 176.64 9.96011 173.44C10.3001 174.61 9.23011 177.66 10.5501 174.44C10.4351 172.938 10.7035 171.43 11.3301 170.06C12.0182 168.513 12.5964 166.919 13.0601 165.29C12.6901 165.12 13.0601 163.59 13.6301 161.53C14.2001 159.47 15.2201 156.91 15.8501 154.58C15.9501 154.78 16.7201 152.64 17.8501 150.01C18.9801 147.38 20.3801 144.21 21.3301 142.19L21.4101 142.36C20.9601 141.24 23.0301 137.09 24.2401 133.94C24.6301 134.27 24.5501 134.94 24.0101 136.65L25.2901 133.77C25.4839 132.506 25.8932 131.285 26.5001 130.16L26.6901 131.16C28.5501 127.41 29.7801 123.24 32.8601 118.75C32.5201 118.2 29.3601 121.75 31.8601 116.54C32.2301 116.54 32.7901 116.59 32.1601 117.96C32.4856 117.099 32.9013 116.274 33.4001 115.5L32.7201 117.76C34.1301 115.76 32.9801 116.42 33.9901 114.76C34.3301 115.01 34.9901 113.67 35.1601 114.09C34.6691 114.755 34.2532 115.473 33.9201 116.23C34.8965 114.539 36.0937 112.985 37.4801 111.61C37.1601 111.61 36.9801 111.3 37.7901 109.89C39.9801 106.3 38.9901 108.95 40.4701 106.99C40.7601 105.99 42.5501 103.94 42.0401 103.51C42.4043 102.936 42.9247 102.478 43.5401 102.19C44.0401 101.19 45.4101 99.08 46.5401 97.47C47.6701 95.86 48.3901 94.68 47.3701 95.47L47.0001 95.89L47.1901 95.59C49.1312 92.4743 51.361 89.5481 53.8501 86.85L57.5101 82.7C58.7301 81.33 59.9801 80.02 61.1001 78.7L61.2601 78.86C63.8401 75.48 67.5701 71.86 69.3601 69.4C70.2401 68.5 71.7201 67.57 71.5201 68.14C73.3208 66.0467 75.3313 64.1434 77.5201 62.46C75.4101 64.96 78.5201 61.95 75.2801 64.94C78.4801 62.21 79.3701 61.8 82.4201 58.46C81.6301 59.88 85.2801 56.95 86.6901 55.53L84.1201 57.04C85.6283 55.6319 87.2285 54.3257 88.9101 53.13L88.5301 54.37C92.1901 52.11 94.9201 49.37 97.7301 47.09C100.54 44.81 103.08 42.58 106.27 41.49C107.89 39.83 102.16 43.71 103.53 42.11C106.91 40.05 110.91 38.7 111.96 38.11C116.82 35.77 115.73 34.61 120.8 32.11C120.04 32.22 119.08 31.93 122.73 29.73C126.29 27.97 127.54 28.45 125.43 29.8C124.6 30.26 124.16 30.39 124.16 30.3C123.07 30.97 121.64 31.85 123.16 31.38L123.49 30.91C125.35 30.24 130.13 27.68 129.2 28.67C131.78 27.2 130.14 27.67 128.12 28.59C132.85 26.77 135.22 25.14 140.12 23.34C139.3 23.52 138.47 23.53 139.23 23.21C146.41 20.59 142.15 21.47 146.9 19.37C149.81 18.73 146.25 20.62 151.03 18.53C154.11 17.7 151.9 18.96 150.79 19.59C152.757 18.6495 154.81 17.8994 156.92 17.35C158.84 16.91 160.53 16.63 161.83 16.28L159.52 17.22C160.9 16.65 162.07 16.3 163.25 15.93L161.74 15.85C163.16 15.5 164.34 15.13 164.38 15.35C165.72 14.57 163.02 14.86 165.75 13.51C167.75 13.21 171.45 11.71 172.27 12.2C166.27 13.53 173.1 12.71 168.11 14.13C169.277 13.7403 170.47 13.4329 171.68 13.21C171.91 13.21 171.52 13.4 171.14 13.54C176.97 12.72 173.52 11.95 179.48 10.7C178.81 11.25 181.02 11.14 181.97 10.85C179.58 11.35 180.68 10.45 182.83 9.69C186.71 9.15 186.94 8.59002 188.98 8.30002L186.64 8.54001C187.35 8.03001 189.3 7.76 191.97 7.19C192.25 7.45 189.56 7.80003 190.54 7.78003C193.43 6.59003 197.4 7.33001 201.54 6.45001C203.54 6.45001 201.81 7.16001 203.54 7.14001C208.17 6.04001 208.66 7.14 213.54 6.38C212.09 5.95 211.84 6.1 215.3 5.38L207.18 6.32001L212.35 5.19C209.88 5.38 207.17 5.83002 205.7 5.96002C208.14 5.24002 207.91 5.46001 206.7 5.10001C210.14 5.63001 213.37 4.16001 217.32 4.42001L217.26 5.73001C223.13 6.18001 227.65 4.66001 235.26 5.29001L232.82 5C233.82 4.51 237.53 5 240.01 4.91C239.76 5.33 241.29 5.61 242.32 5.91C242.21 5.58 247.86 6.36001 248.63 5.54001C249.74 5.84001 250.86 6.05001 251.96 6.42001C258.02 7.48001 259.1 5.94003 264.96 7.09003C263.12 7.25003 265.73 7.99 261.77 7.69C263.77 7.98 265.44 8.42002 265.53 8.11002C266.61 8.58002 271.02 8.49 272.74 9.22C273.854 8.96288 275.015 9.00081 276.11 9.33002C276.33 9.47002 276.11 9.54001 276.11 9.54001C276.11 9.33001 279.56 10.04 277.78 9.13C280.6 10.49 284.78 11.34 288.78 12.52C290.78 13.07 292.78 13.6 294.56 14.16C296.118 14.671 297.619 15.3412 299.04 16.16L305.61 18.16L311.76 20.46C311.48 20.46 311.67 20.66 311 20.34C315.86 22.72 314.61 20.34 320 23.29C322.58 25.23 316.86 22.29 318.54 23.34C318.71 25.06 325.45 26.1 328.72 28.86L327.79 28.48C330.35 30.38 334.95 31.4 339.34 34.16C339.34 34.16 339.06 34.16 339.2 34.34C341.438 35.1293 343.612 36.0922 345.7 37.22C348.1 38.55 350.62 40.04 352.78 41.3C351.16 40.93 350.71 40.3 351.19 41.3C353.1 42.46 351.19 40.14 354.97 42.5C355.97 43.59 358.45 45.68 358.44 46.42L355 44.02C356.3 45.91 359.44 47.14 361.16 48.54L360.73 48.65C365.91 52.42 366.5 51.82 371.87 56.2L371.49 55.53C374.91 57.35 373.58 57.98 376.85 59.96L377.13 61.37C379.22 62.76 384.07 66.72 387.47 69.68C385.17 68.37 381.16 65 378.56 63.07C380.34 64.77 384.66 68.8 385.9 69.38C385.017 68.7581 384.196 68.0514 383.45 67.27C384.974 68.1849 386.419 69.2252 387.77 70.38C389.27 71.7133 390.87 73.2734 392.57 75.06C390.82 75.49 400.9 84.88 402.02 88.57C404.974 91.8026 407.65 95.2783 410.02 98.96C411.25 100.84 412.56 102.71 413.8 104.71C415.04 106.71 416.3 108.79 417.68 110.9C416.87 107.18 419.31 113.37 420.13 112.14C420.81 113.075 421.386 114.081 421.85 115.14L424.72 121.75C425.21 123.4 423.34 119.95 423.18 120.29C425.64 124.81 423.72 122.46 424.99 125.62C425.1 124.77 426.42 126.89 427.59 129.62L426.27 125.62C430.21 131.71 428.14 131.62 431.74 137.93L430.41 136.02C431.25 137.68 432.79 140.74 434.11 143.89C435.167 146.607 436.508 149.205 438.11 151.64C438.18 152.31 438.11 153.26 437.48 151.75C440.29 160.15 444.79 170.24 445.58 177.2L445.1 176.61C445.57 178.21 446.36 179.29 446.5 181.39C446.34 181.32 446.03 180.81 446.18 181.56C446.991 183.621 447.545 185.774 447.83 187.97L447.14 186.19C448.34 194.77 450.14 199.19 451.26 206.43C450.26 206.52 450.49 213.35 450.59 216.74L450.44 216.63C450.54 221.63 450.91 225.94 451.15 230.14C451.39 234.34 451.68 238.46 451.45 243.14C450.11 248.87 449.22 262.73 446.72 271.77C447.15 270.4 447.43 272.15 447.23 273.77C446.54 275.87 446.52 279.84 445.73 279.3L445.92 278.54C444.67 279.94 444 284.4 442.92 287.75L443.92 288.62C442.831 290.968 441.903 293.387 441.14 295.86C440.21 298.47 439.37 301.22 438.57 303.86C436.86 309.09 435.13 313.8 433.5 315.86C432.86 317.99 431.72 320.5 431.08 322.63L430.56 322.25C429.27 325.04 428.13 327.05 426.98 329.25C425.83 331.45 424.75 333.89 422.86 337.18L423.23 335.62C421.07 339.3 422.11 341.2 420.16 344.62L418.73 345.15C416.73 348.28 414.57 351.4 412.35 354.42C410.103 357.4 408.007 360.49 406.07 363.68C406.07 363.5 405.96 363.17 406.67 362.19C404.49 364.96 397.77 372.47 399.49 372.19C398.74 371.68 394.49 378.07 391.88 381.19V380.32C390.588 382.82 388.956 385.128 387.03 387.18C386.15 387.9 386.03 387.53 387.15 386.57C384.23 388.98 385.44 389.03 381.9 391.96L382.9 390.5C381.402 391.727 380.141 393.219 379.18 394.9C377.5 396.68 373.5 399.62 372.71 399.56C371.92 401.054 370.746 402.31 369.31 403.2C368.93 403.2 369.5 402.61 369.79 402.3C364.43 405.98 362.67 408.89 358.62 410.94C358.481 410.9 358.334 410.891 358.191 410.914C358.047 410.936 357.911 410.989 357.79 411.07C362.04 408.17 365.29 405.58 365.01 405.85C364.66 405.4 361.34 407.85 363.46 405.22C360.469 408.428 357.136 411.298 353.52 413.78C353.345 413.854 353.159 413.898 352.97 413.91L353.28 413.63C352.542 414.059 351.839 414.547 351.18 415.09C350.04 415.71 349.31 416.09 348.26 416.76C347.59 416.58 344.17 419.19 342.32 420.13C342.79 420.58 340.39 421.85 342.85 421.02C342.55 421.15 343.16 420.76 344.34 420.02C344.589 419.86 344.826 419.683 345.05 419.49C345.025 419.536 344.995 419.58 344.96 419.62L349.29 416.8C347.954 418.157 346.382 419.259 344.65 420.05C343.95 420.93 343.13 421.87 342.65 422.37C339.72 423.02 334.79 425.37 333.83 425.22C331.09 426.8 327.83 428.59 324.83 430.22C322.213 431.448 319.73 432.942 317.42 434.68C316.61 435.198 315.644 435.414 314.69 435.29C315.561 434.9 316.401 434.442 317.2 433.92C314.03 435.68 307.33 437.99 306.83 439.11C302.43 440.35 309 437.6 303.14 439.77L303.85 439.26C301.08 439.891 298.359 440.723 295.71 441.75C293.22 442.66 290.83 443.53 288.41 444.49L284.72 445.88C283.45 446.29 282.13 446.65 280.72 447.01C277.72 447.817 274.649 448.332 271.55 448.55C272.093 448.454 272.648 448.454 273.19 448.55C257.86 450.94 241.43 453.82 226.04 452.55C221.69 452.26 221.21 452.75 218.53 453.04L217.61 452.33C216.083 452.523 214.553 452.693 213.02 452.84C206.49 452.93 202.02 450.3 193.83 450.14L194.83 450.75C191.93 450.24 185.59 449.46 186.18 449.02C185.473 449.191 184.729 449.127 184.06 448.84V448.48C181.66 448.207 179.267 447.873 176.88 447.48C171.5 445.93 178.03 446.39 170.18 444.3C167.23 443.66 161.61 442.89 162.63 443.44C163.8 443.8 165.57 444.54 165.56 444.9L162.84 444.29C162.07 445.13 159.65 445.53 166.1 448.17C167.71 448.39 169.31 448.64 170.92 448.82L172.3 449.69L168.36 448.69C170.011 449.466 171.816 449.856 173.64 449.83C174.167 450.302 174.797 450.645 175.48 450.83C177.09 450.89 178.71 450.91 180.32 450.92C180.79 451.43 178.07 451.25 181.13 452.14C183.4 452.14 179.24 450.83 182.89 451.27C185.06 452.17 184.32 452.44 187.06 452.53C187.39 452.86 186.79 452.93 185.71 452.85C188.14 452.99 192.02 453.85 193.34 453.46C195.63 454.46 201.41 454.46 201.06 455.35C203.221 455.148 205.393 455.105 207.56 455.22C203.43 456.08 215.81 455.96 214.67 457.08C217.67 456.22 225.53 457.14 230.83 456.38C230.402 456.54 229.947 456.618 229.49 456.61C231.424 456.655 233.354 456.808 235.27 457.07C235.63 456.17 240.27 455.96 242.72 455.15C246.42 455.7 240.58 456.33 241.72 457.05C241.5 456.36 248.03 455.87 246.72 455.37C249.55 455.68 249.14 455.44 250.65 456.05C251.03 454.97 253.22 455.6 255.45 454.64C259.53 454.64 256.61 455.51 260.99 454.64C263.12 454.85 259.22 455.73 259.22 455.73ZM356.49 416.38C355.76 416.93 355.13 417.38 354.71 417.64C355.12 417.41 355.62 417.05 356.49 416.38ZM363.71 411.24L360.56 413.45C360.18 413.45 360.33 413.08 361.06 412.57C360.75 412.97 362.52 411.86 363.71 411.24ZM345.92 418.09C347.03 417.28 347.49 417.09 347.71 417.09L345.71 418.45L345.61 418.6C345.675 418.409 345.781 418.235 345.92 418.09V418.09Z" fill="#1F686A"/>
<path d="M344.26 420.121C344.1 420.231 344.01 420.311 343.79 420.451C344.06 420.351 344.32 420.261 344.57 420.151L344.88 419.721L344.26 420.121Z" fill="#1F686A"/>
<path d="M47.3197 95.431L47.4397 95.291C47.3507 95.3897 47.2499 95.477 47.1396 95.551C47.1972 95.5075 47.2574 95.4675 47.3197 95.431Z" fill="#1F686A"/>
<path d="M439.3 316.48L439.14 316.43L438.99 317.21L439.3 316.48Z" fill="#1F686A"/>
<path d="M21.12 136.15C20.9544 136.299 20.8156 136.475 20.71 136.67C20.8709 136.518 21.009 136.343 21.12 136.15V136.15Z" fill="#1F686A"/>
<path d="M13.3101 155.691L12.1201 158.441C12.6701 157.261 13.0301 156.391 13.3101 155.691Z" fill="#1F686A"/>
<path d="M8.33008 171.102C8.35603 171.242 8.41809 171.373 8.5101 171.482V171.482L8.33008 171.102Z" fill="#1F686A"/>
<path d="M187.12 4.31115L187.74 4.18115C189.21 3.82115 188.23 4.03115 187.12 4.31115Z" fill="#1F686A"/>
<path d="M115.96 31.8516C116.61 31.3416 117.25 30.8516 117.96 30.3516C116.74 30.9916 115.82 31.5216 115.96 31.8516Z" fill="#1F686A"/>
<path d="M272.72 4.16992L273.24 4.26993L272.72 4.16992Z" fill="#1F686A"/>
<path d="M121.12 28.6406C120.013 29.0833 118.957 29.6432 117.97 30.3106C118.93 29.8206 120.12 29.3006 121.12 28.6406Z" fill="#1F686A"/>
<path d="M2.37012 240.76V241.54C2.37012 241.54 2.4501 241.54 2.4801 241.62L2.37012 240.76Z" fill="#1F686A"/>
<path d="M2.52051 241.641L2.6705 242.501C2.67154 242.207 2.62076 241.916 2.52051 241.641V241.641Z" fill="#1F686A"/>
<path d="M2.99994 244.27L2.66992 242.48C2.68066 243.091 2.79218 243.696 2.99994 244.27V244.27Z" fill="#1F686A"/>
<path d="M1.33057 219.361L1.10059 219.121C1.11218 219.179 1.13996 219.232 1.18069 219.275C1.22142 219.317 1.2734 219.347 1.33057 219.361V219.361Z" fill="#1F686A"/>
<path d="M1.33049 212.781C1.01976 214.809 0.879288 216.86 0.910509 218.911L1.10051 219.121C0.710511 218.091 1.64049 214.281 1.33049 212.781Z" fill="#1F686A"/>
<path d="M7.7403 186.311C7.3503 188.071 6.90031 189.811 6.57031 191.581C6.95031 190.691 7.4603 189.521 7.1503 191.951C9.0503 185.391 6.3203 193.241 7.7403 186.311Z" fill="#1F686A"/>
<path d="M11.78 170.081C11.15 172.911 12.11 170.131 12.22 170.321C12.52 168.501 12.59 168.061 11.78 170.081Z" fill="#1F686A"/>
<path d="M72.5098 67.3713L72.6898 67.9813C74.2598 66.4013 72.5498 67.8013 72.5098 67.3713Z" fill="#1F686A"/>
<path d="M88.1101 49.9297L86.1602 50.9997L85.6602 52.0497L88.1101 49.9297Z" fill="#1F686A"/>
<path d="M101.52 45.0411L100.78 45.6711C101.78 44.9011 102.7 44.1011 103.69 43.3711C102.95 43.8911 102.25 44.4811 101.52 45.0411Z" fill="#1F686A"/>
<path d="M294.35 15.2407L293.91 14.3907C292.42 14.1007 291.89 14.7707 294.35 15.2407Z" fill="#1F686A"/>
<path d="M371.021 55.9414C371.952 57.322 373.174 58.4824 374.6 59.3414C373.12 58.0214 371.841 56.5214 371.021 55.9414Z" fill="#1F686A"/>
<path d="M441.86 292.59L442.11 290.84L441.39 294.07L441.86 292.59Z" fill="#1F686A"/>
<path d="M37.3301 389.44C37.6901 389.64 37.7801 389.26 37.0301 388.49L36.1201 388.26L37.3301 389.44Z" fill="#20696A"/>
<path d="M33.4399 383.231C32.4399 382.401 31.1799 381.531 31.2899 382.481C32.4899 383.151 32.4899 383.481 33.8399 384.191C34.5599 384.991 34.8399 385.761 34.6199 385.751C34.9799 385.951 35.6199 387.111 36.2499 387.341C35.5097 385.793 34.4377 384.427 33.1099 383.341C32.9499 383.001 33.2999 383.221 33.4399 383.231Z" fill="#20696A"/>
<path d="M38.3896 313.16C38.4888 313.029 38.5695 312.884 38.6297 312.73L38.3896 313.16Z" fill="#20696A"/>
<path d="M16.0601 266.48C15.8801 266.92 15.8601 267.13 15.9001 267.17C16.0301 266.75 16.1201 266.4 16.0601 266.48Z" fill="#20696A"/>
<path d="M21.94 264.641L21.46 264.211C21.5901 264.384 21.7533 264.531 21.94 264.641V264.641Z" fill="#20696A"/>
<path d="M38.3896 313.16C38.1486 313.492 37.7916 313.72 37.3896 313.8C37.3896 314.01 38.1196 313.71 38.3896 313.16Z" fill="#20696A"/>
<path d="M23.9199 372.102C24.1072 372.367 24.3181 372.614 24.5499 372.842C24.3699 372.592 24.1899 372.362 24.0199 372.102H23.9199Z" fill="#20696A"/>
<path d="M19.5298 313.25L19.2698 313.68C19.2499 313.833 19.2499 313.987 19.2698 314.14L19.5298 313.25Z" fill="#20696A"/>
<path d="M14.66 333.801C14.66 333.311 14.24 333.141 14.04 332.941C14.229 333.27 14.3289 333.642 14.33 334.021C14.42 334.021 14.52 333.961 14.66 333.801Z" fill="#20696A"/>
<path d="M23.0205 366.881L23.3705 367.391C23.2805 367.251 23.1205 367.031 23.0205 366.881Z" fill="#20696A"/>
<path d="M31.3604 306.541C31.3939 306.616 31.4498 306.679 31.5204 306.721C31.5304 306.641 31.4604 306.641 31.3604 306.541Z" fill="#20696A"/>
<path d="M129.58 422.861C129.58 422.861 129.58 422.861 129.58 422.931C129.58 423.001 129.72 422.951 129.58 422.861Z" fill="#20696A"/>
<path d="M151.021 436.241L150.681 436.141C150.612 436.202 150.558 436.277 150.521 436.361L151.021 436.241Z" fill="#20696A"/>
<path d="M34.4898 279.791V279.71C34.1198 279.3 34.2898 279.551 34.4898 279.791Z" fill="#20696A"/>
<path d="M76.7303 310.871C76.8703 308.751 77.7303 314.161 77.7303 311.001C77.6003 311.301 76.6703 308.271 76.7303 310.871Z" fill="#20696A"/>
<path d="M23.6704 371.571L23.1904 370.801C23.3323 371.068 23.4927 371.326 23.6704 371.571V371.571Z" fill="#20696A"/>
<path d="M34.2304 280.041C34.0951 280.109 33.981 280.213 33.9004 280.341C33.9604 280.341 34.0204 280.271 34.2304 280.041Z" fill="#20696A"/>
<path d="M40.54 289.73L40.8 290.54C40.71 290.22 40.62 289.96 40.54 289.73Z" fill="#20696A"/>
<path d="M46.4902 275.16C46.7728 275.43 47.0809 275.671 47.4102 275.88C47.3802 275.826 47.3432 275.775 47.3002 275.73C46.9949 275.596 46.7195 275.402 46.4902 275.16V275.16Z" fill="#20696A"/>
<path d="M58.0204 289.201L57.9304 288.861L57.6104 288.361L58.0204 289.201Z" fill="#20696A"/>
<path d="M90.6602 382.01C90.7704 382.311 90.8279 382.629 90.8301 382.95C90.9301 382.53 92.6502 384.69 90.6602 382.01Z" fill="#20696A"/>
<path d="M24.1201 371.96C23.9252 371.889 23.7621 371.751 23.6602 371.57L24.0102 372.1C24.1202 372.12 24.1701 372.09 24.1201 371.96Z" fill="#20696A"/>
<path d="M49.2402 272.641C50.1119 273.325 50.9309 274.074 51.6902 274.881C50.9448 274.06 50.1246 273.31 49.2402 272.641V272.641Z" fill="#20696A"/>
<path d="M3.12 329.71L2.75 329.08C2.8433 329.306 2.96784 329.518 3.12 329.71V329.71Z" fill="#20696A"/>
<path d="M57.6904 281.971C57.9019 282.526 58.149 283.067 58.4304 283.591C58.5197 283.68 58.6206 283.758 58.7304 283.821L57.6904 281.971Z" fill="#20696A"/>
<path d="M103.72 397.78C101.92 395.61 102.41 397.14 101.72 396.9C99.43 394.4 101.08 395.4 100.59 394.32C99.16 392.76 97.69 391.86 96.76 390.58C96.76 390.42 96.61 390.16 96.93 390.36C95.17 388.89 92.93 385.08 90.87 383.36C90.8158 383.244 90.7885 383.118 90.79 382.99C90.79 383.51 90.59 383.75 90.36 383.8C89.6 382.8 88.67 382.1 88.7 381.48C88.9296 381.835 89.2509 382.122 89.63 382.31L88.71 381.31C88.47 380 89.94 382.68 90.28 382.44C88.61 380.44 86.45 378.22 85.44 376.44C85.65 375.78 88.28 380.17 87.15 377.69L88.77 380.34C88.11 377.91 89.82 381.9 89.32 379.59C87.09 376.19 86.46 376.03 84.25 372.59C83.47 372.01 84.05 373.1 83.25 372.52C79.49 368.09 81.79 367.99 78.74 364.91C77.3055 364.224 76.1685 363.041 75.54 361.58L76.65 362.07C74.41 358.79 74.65 360.74 72.53 357.07C73.16 357.52 74.53 359.48 74.23 358.95C73.06 356.47 72.83 357.61 71.62 355.95L71.82 355.28C69.24 351.92 66.15 348.4 63.14 344.81C63.43 344.91 64.07 345.43 63.52 344.47C59.62 340 55.52 334.65 51.73 330.3C51.12 329.87 50.48 329.47 49.84 329.07C49.48 328.71 49.32 328.25 49.78 328.57C48.31 326.87 49.48 328.71 48.59 328.08C47.66 327.22 47.59 326.7 48.26 327.17C45.15 324.66 39.39 320.17 36.26 317.39L37 317.76C34.51 315.63 33.5 316.35 31.25 314.32L31.77 314.57C28.8643 312.397 25.7084 310.581 22.37 309.16C19.2436 307.844 15.8916 307.148 12.5 307.11C11.98 307.51 10.09 307.69 8.35 308.36C6.61 309.03 5.1 310.11 5.22 310.65C4.03582 311.377 2.98689 312.304 2.11999 313.39C0.935908 314.917 0.207869 316.747 0.019985 318.67C-0.130015 320.45 0.599985 321.26 1.01998 323.19L0.540005 323.34C0.898882 324.193 1.31309 325.021 1.77999 325.82C1.77999 326.32 1.72 326.82 1.72 327.37C2.01 327.92 2.28998 328.48 2.60998 329.01C2.28998 328.34 2.16999 327.49 2.33999 327.54C3.59999 330.1 5.33999 333.74 5.23999 333.95C6.63999 335.7 8.04998 337.32 9.54998 338.95C9.29998 338.95 8.54998 338.17 7.91998 337.56C10.51 339.95 7.91998 338.41 10.3 340.56C10.11 340.16 10.68 340.56 10.8 340.56C12.2938 342.74 14.0617 344.72 16.06 346.45L15.45 346.34C19.1729 350.04 23.2303 353.388 27.57 356.34C26.07 355.07 26.8 354.85 28.11 355.72L28.33 356.52C29.33 356.83 27.08 355.42 29.04 356.27C30.68 357.46 29.83 357.54 28.77 357.03L30.94 358.24C30.94 358.46 30.44 358.24 30.2 358.3C31.2 358.59 33.62 361.04 35.25 361.2L35.3 361.41C39.0879 363.42 43.1895 364.772 47.43 365.41C47.58 364.99 49.37 365.35 50.77 365.02C52.5655 365.199 54.3744 365.199 56.17 365.02C58.1659 364.762 60.1073 364.184 61.92 363.31C64.43 361.78 62.5 362.57 63.5 361.71C63.95 362.06 67.26 359.57 65.71 361.08C67.2694 359.918 68.6859 358.575 69.93 357.08C71.3587 355.376 72.5868 353.514 73.59 351.53C73.11 352.01 72.67 352.6 72.74 352.19C73.24 351.19 74.16 350.19 74.26 350.38L74.15 350.65C75.55 347.54 77.28 344.07 78.55 340.54C79.8161 337.446 80.4944 334.143 80.55 330.8V331.1C80.55 329.24 80.64 327.4 80.55 325.56C80.78 323.03 80.77 327.1 81.15 325.23C80.71 319.23 81.27 315.79 80.27 310.94C80.67 308.94 80.12 305.62 79.27 302.17C78.42 298.72 77.16 295.23 76.67 292.67L76.5 293.04C75.77 291.9 76.1 291.48 75.82 290.53C75.66 290.75 76.08 291.98 75.64 291.26C73.43 286.1 71.17 280.77 67.56 275.85C66.6478 274.614 65.6451 273.447 64.56 272.36C63.3739 271.13 61.9832 270.115 60.45 269.36C59.2751 268.86 57.9618 268.789 56.74 269.16C55.5979 269.533 54.5876 270.227 53.83 271.16C52.7251 272.634 51.9818 274.346 51.66 276.16C51.3574 277.363 51.4307 278.63 51.87 279.79C52.12 280.57 52.23 281.45 51.93 284.16L51.38 282.62C51.6502 287.035 52.4321 291.405 53.71 295.64C54.345 297.736 55.151 299.776 56.12 301.74L56.91 303.21L58.33 305.48L58.69 306.04C58.8069 306.158 58.9341 306.265 59.07 306.36L59.83 306.94L60.57 307.51C60.92 307.4 61.28 307.28 61.57 307.15L60.85 307.57C60.75 307.57 60.57 307.77 60.46 307.68C60.35 307.59 60.18 307.49 59.98 307.34C60.09 307.44 60.21 307.56 60.33 307.69C60.45 307.82 60.46 307.84 60.54 307.85L60.85 307.78C61.28 307.69 61.74 307.56 62.22 307.41C63.2248 306.996 64.0673 306.266 64.62 305.33C65.157 304.456 65.4729 303.464 65.54 302.44C65.59 301.6 65.54 301.1 65.45 301.09C65.45 299.56 65.74 300.74 65.88 299.78C65.8604 298.623 65.6017 297.482 65.12 296.43C64.6979 295.699 64.3941 294.906 64.22 294.08C64.22 293.9 64.53 294.49 64.68 294.79C64.11 293.79 62.5 289.79 62.56 291.02C61.37 288.08 59.56 285.81 58.35 283.59C57.06 282.51 55.35 279.08 54.45 279.15C55.2 278.84 51.36 274.53 49.35 273.5C50.07 273.76 47.99 272.18 48.85 272.44C46.8 270.88 44.18 270.44 44.58 270.89C43.4596 270.415 42.2441 270.206 41.0294 270.281C39.8147 270.356 38.6338 270.711 37.58 271.32C35.64 272.32 34.37 273.6 33.05 274.19C31.855 275.589 30.9476 277.21 30.3797 278.96C29.8117 280.711 29.5943 282.556 29.74 284.39C30.0201 287.644 31.08 290.782 32.83 293.54C32.45 293.64 31.56 292.12 30.94 290.54C30.32 288.96 29.94 287.31 29.59 287.54C30.2928 290.078 31.4814 292.455 33.09 294.54C33.79 295.54 34.53 296.39 35.35 297.32C36.2842 298.502 37.4695 299.462 38.82 300.13C39.76 300.49 39.49 300.48 38.82 300.36C38.2184 300.194 37.638 299.959 37.09 299.66C37.9054 300.245 38.8478 300.629 39.84 300.78C40.9832 300.927 42.1394 300.63 43.07 299.95C43.9193 299.288 44.5244 298.363 44.79 297.32C44.9979 296.497 45.0788 295.647 45.03 294.8C44.9351 293.341 44.5971 291.908 44.03 290.56C43.5773 289.348 43.0564 288.163 42.47 287.01C42.7166 287.285 42.916 287.6 43.06 287.94C42.69 287.01 42.24 285.75 41.99 285.94L42.46 286.8C42.67 288.43 39.92 283.6 39.57 283.6C41.24 284.6 37.44 279.11 39.79 280.88C39.41 280.33 38.85 279.7 38.73 279.94C38.3 279.07 38.26 278.73 38.98 279.46C36.98 276.46 37.33 277.75 35.53 275.06C35.67 274.98 36.09 275.48 36.44 275.66C34.9767 274.27 33.6382 272.754 32.44 271.13C32.62 271.19 32.52 270.86 33.03 271.5C29.97 267.89 27.12 266.07 23.39 262.58C24.99 262.98 22.24 261.32 22.28 260.58C21.1913 259.784 19.8356 259.443 18.5 259.63C19.0665 259.63 19.625 259.763 20.13 260.02C19.3103 259.774 18.4267 259.86 17.67 260.26C17.0174 260.638 16.4705 261.175 16.08 261.82C15.43 262.9 15.08 263.82 14.48 264.74C14.65 264.15 14.88 263.57 15.11 262.99C14.3769 264.363 13.7581 265.795 13.26 267.27C13.65 266.48 14.03 265.69 14.49 264.94C13.78 267.34 15.24 264.99 13.92 267.94C14.06 267.3 13.12 270.2 12.56 271.38C12.5247 272.789 12.3809 274.193 12.13 275.58C11.89 276.02 11.5 275.13 11.34 275.42C11.64 276.65 11.14 281.14 11.81 282.61C11.67 282.12 11.34 282.1 11.28 282.27L11.74 283.27C11.67 284.39 11.62 284.56 11.35 284.4C11.57 287.76 12 283.28 12.06 287.27C11.9638 287.008 11.8837 286.741 11.82 286.47C12.2131 290.277 12.9835 294.035 14.12 297.69C13.83 298.94 13.06 294.62 12.91 295.96C14.4972 301.25 17.3772 306.062 21.29 309.96C21.06 309.73 20.86 309.47 20.65 309.22C21.71 309.13 23.14 312.3 25.78 313.28C25.18 313.01 24.78 313.28 24.99 313.28C26.8398 314.471 28.9107 315.277 31.079 315.65C33.2473 316.023 35.4686 315.955 37.61 315.45C37.3887 315.589 37.1582 315.713 36.92 315.82C37.68 315.79 38.4142 315.536 39.03 315.09C39.7715 314.522 40.2599 313.685 40.39 312.76C40.5824 311.189 40.1832 309.603 39.27 308.31C38.7 307.79 37.71 306.82 38.07 307.64C37.0131 306.106 35.4354 305.008 33.63 304.55C31.9412 304.098 30.1693 304.054 28.46 304.42C25.07 305.07 22.46 307.04 19.94 309.01C20.44 308.44 21.11 307.58 20.65 308.01C19.3886 309.321 18.312 310.798 17.45 312.4C17.99 312.24 18.01 311.91 18.89 311.17C18.4645 312.238 17.9838 313.282 17.45 314.3C18.35 312.13 16.88 314 16.26 314.87C16.44 314.76 16.41 315.14 16.55 315.11C14.87 317.38 16.99 315.79 15.34 319.11L15.21 318.86C14.89 320.22 14.82 321.51 14.44 322.95C13.87 323.45 14.55 321.47 14.26 321.29C13.74 323.35 14.17 325.49 13.5 327.29C13.5 326.39 13.7 325.13 13.74 324.22C13.1792 325.401 12.8403 326.676 12.74 327.98V327.83C12.51 329.01 12.36 330.2 12.2 331.4L12.41 330.49C13.41 333.18 12.41 335.9 13.49 339.37C12.49 336.01 13.03 338.84 12.49 338.62C12.44 339.54 12.43 340.94 12.25 340.56C12.84 342.19 12.25 343.43 13.3 345.68C13.15 345.82 13.66 347.45 13.19 347.16C13.78 349.29 13.35 346.59 13.58 346.74C14.8 349.88 14.88 354.66 17.46 358.9C19.38 362.63 20.22 363.07 22.23 366.33C22.62 367.59 21.23 365.67 21.23 365.67C21.9197 367.451 22.8591 369.124 24.02 370.64C23.69 370.37 23.81 370.78 24.02 371.39C24.88 372.73 25.02 371.99 26.02 373.87C25.5071 373.607 25.0355 373.27 24.62 372.87C25.75 374.37 27.02 375.75 28.26 377.24C28.33 377.82 27.26 376.53 26.71 376.06C28.04 377.8 30.19 380.52 30.96 380.77L30.25 379.57C30.74 380.19 30.19 380.12 29.78 379.7C28.39 378.4 28.32 377.43 28.39 377.25L29.28 378.31C29.2 376.64 25.98 373.9 24.58 371.49L25.76 372.1L23.76 369.99C23.61 369.37 23.76 368.83 24.51 369.99C23.8 368.12 23.4 368.61 22.91 366.99C22.91 366.8 22.91 366.86 23.05 366.99L21.96 365.39C22.26 365.66 22.22 364.89 22.7 365.97C21.44 362.77 19.77 361.23 19.7 359.82L19.85 360.07C17.79 355.76 19.19 359.86 17.31 356.72C17.42 355.81 17.5 354.93 17.65 354.03L17.03 353.75C16.89 353.27 16.62 352.33 16.87 352.45C16.03 350.79 16.75 352.81 16.14 351.88C15.86 349.5 14.32 345.55 15.05 344.88C14.52 344.1 15.16 347.17 14.45 344.72C15.16 343.86 13.79 341.85 13.99 339.63C14.5 340.25 14.47 342.29 14.65 340.11C13.73 338.89 14.49 335.92 14.34 334.11C13.75 334.02 14.1 330.11 14.34 327.11C14.6845 326.132 14.9519 325.129 15.14 324.11C15.5567 322.364 16.105 320.653 16.78 318.99L16.85 319.1C16.43 318.39 17.54 315.68 18.49 313.81C18.78 314.06 18.69 314.44 18.35 315.52C18.63 314.94 18.93 314.37 19.25 313.82C19.4148 313.042 19.7571 312.313 20.25 311.69L20.33 312.35C21.73 310.35 23.33 307.96 26.45 307.06C26.56 306.59 23.45 306.98 26.85 305.41C27.05 305.6 27.26 305.92 26.4 306.3C26.9024 306.016 27.4567 305.836 28.03 305.77C27.5924 305.984 27.1683 306.224 26.76 306.49C28.24 306.27 27.43 305.94 28.65 305.77C28.65 306.08 29.57 305.9 29.42 306.18C28.9221 306.161 28.4247 306.229 27.95 306.38C29.0917 306.147 30.2766 306.251 31.36 306.68C31.26 306.5 31.36 306.21 32.36 306.34C34.77 306.93 33.09 306.91 34.36 307.52C34.99 307.52 36.09 308.52 36.36 308.24C36.91 308.68 36.79 308.98 36.88 309.24C37.6211 309.88 38.119 310.756 38.29 311.72C38.46 312.72 38.23 313.23 38.66 312.79C38.6926 312.698 38.7193 312.605 38.74 312.51V312.7C38.7081 313.178 38.5059 313.628 38.1701 313.969C37.8343 314.311 37.3872 314.52 36.91 314.56C35.779 314.72 34.631 314.72 33.5 314.56C31.2801 314.184 29.1294 313.476 27.12 312.46L27.2 312.32C24.9082 311.133 22.7887 309.639 20.9 307.88C20.37 307.29 19.97 306.26 20.32 306.41C19.1075 305.179 18.1792 303.698 17.6 302.07C18.79 303.73 17.47 301.36 18.76 303.79C17.62 301.44 17.63 300.79 16.22 298.37C16.91 299.13 16.06 296.37 15.66 295.19C15.72 295.8 15.79 296.42 15.88 297.03C15.4407 295.811 15.1062 294.556 14.88 293.28L15.55 293.82C15.05 288.56 12.92 284.31 14.02 280.2C13.63 278.78 13.78 283.11 13.32 281.85C13.4564 279.899 13.8153 277.97 14.39 276.1C15.12 272.88 13.99 272.89 15.11 269.55C14.83 269.92 14.11 270.18 14.84 267.55C15.84 265.23 16.84 265.14 16.3 266.55C16.08 267.09 15.93 267.33 15.88 267.28C15.63 268.03 15.4 269.03 15.88 268.2L15.81 267.84C16.34 266.75 17.92 263.84 17.81 264.72C18.5 263.21 17.91 263.85 17.17 265.01C17.5057 264.457 17.8765 263.926 18.28 263.42C18.4556 263.182 18.7055 263.01 18.99 262.93C19.1349 262.902 19.284 262.904 19.4283 262.935C19.5726 262.965 19.7092 263.025 19.83 263.11C20.3928 263.466 20.9158 263.882 21.39 264.35C21.06 263.94 20.83 263.46 21.23 263.79C24.77 267.04 23.11 264.79 25.6 266.97C26.74 268.48 24.67 266.97 27.16 269.14C28.4 270.72 27.08 269.79 26.41 269.35C28.76 271.21 29.96 273.6 30.92 274.96L29.83 273.85C30.3994 274.439 30.9305 275.063 31.42 275.72L31.18 274.79C31.7 275.54 32.18 276.18 32 276.26C32.77 276.87 32.09 275.26 33.49 276.61C34.04 277.72 35.75 279.61 35.49 280.27C33.57 276.91 35.3 280.88 33.49 278.21C33.974 278.809 34.3899 279.459 34.73 280.15C34.73 280.3 34.57 280.15 34.42 279.9C35.9 283.27 35.83 281.01 37.63 284.39C37.16 284.09 37.54 285.39 37.85 285.95C37.2 284.58 37.97 285.07 38.79 286.26C39.59 288.59 40.02 288.63 40.47 289.84L40.03 288.44C40.7226 289.379 41.2471 290.431 41.58 291.55C41.42 291.76 40.92 290.12 41.03 290.74C42.17 292.39 42.09 294.97 41.8 296.82C41.56 297.18 41.42 297.04 41.32 296.99C41.275 296.948 41.219 296.921 41.1588 296.91C41.0985 296.9 41.0365 296.906 40.98 296.93C40.75 297.35 40.44 297.27 40.16 297.04C39.88 296.81 39.41 296.45 38.41 295.58C38.63 296.34 38.85 296.58 37.2 295.18C37.7009 295.775 38.2642 296.315 38.88 296.79C39.3059 297.161 39.8377 297.388 40.4 297.44C39.5698 297.495 38.7513 297.222 38.12 296.68C38.5764 297.154 39.1383 297.514 39.76 297.73C40.1053 297.842 40.4731 297.866 40.83 297.8C40.6155 297.925 40.3827 298.017 40.14 298.07C40.14 298.07 40.21 298.21 40.48 298.38C38.5707 297.672 36.9732 296.312 35.97 294.54L36.79 294.03C35.97 292.48 35.09 291.22 34.33 289.73C33.4026 288.069 32.93 286.192 32.96 284.29C32.9065 284.765 32.8831 285.242 32.89 285.72C32.41 285.16 32.62 282.94 32.89 281.53C33.18 281.72 33.47 280.91 33.89 280.45C33.76 280.45 34.02 279.72 34.4 278.97C34.78 278.22 35.24 277.46 35.13 277.1C35.6423 276.68 36.1989 276.318 36.79 276.02C38.16 275.02 38.94 274.45 39.79 273.93C40.312 273.594 40.8959 273.366 41.5073 273.26C42.1187 273.154 42.7453 273.17 43.35 273.31C42.35 273.56 43.7 273.83 41.62 274C42.62 274 43.52 274.26 43.62 274C43.9 274.17 44.62 274.28 45.41 274.58C46.1378 274.811 46.7927 275.228 47.31 275.79C48.0133 275.905 48.6558 276.258 49.13 276.79C49.2 276.94 49.02 276.9 49.02 276.9C49.02 276.9 50.7 278.3 50.1 277.17C51.4421 279.197 52.8978 281.147 54.46 283.01C55.9526 284.768 57.13 286.771 57.94 288.93C59.4513 291.316 60.7528 293.829 61.83 296.44C61.68 296.33 61.68 296.44 61.53 296.05C61.7449 296.935 62.1286 297.77 62.66 298.51C62.9431 298.936 63.1338 299.417 63.2199 299.922C63.306 300.427 63.2856 300.944 63.16 301.44C62.82 302.14 62.81 301.66 62.82 301.27C62.83 300.88 62.82 300.11 62.71 300.71C62.16 301.14 62.26 301.43 62.06 302.2C62.0201 302.403 61.9403 302.595 61.8253 302.767C61.7103 302.939 61.5623 303.086 61.39 303.2C61.23 303.28 60.98 303.41 60.87 303.26C60.7679 303.05 60.6907 302.828 60.64 302.6L60.81 302.74C60.59 302.05 60.48 302.11 59.9 301.3C59.0363 300.079 58.3276 298.756 57.79 297.36C57.79 297.36 57.93 297.47 57.95 297.36C56.58 295.54 55.24 291.49 54.71 288.36C55.27 289.27 55.14 289.73 55.47 289.08C55.23 287.71 54.81 289.61 54.38 286.81C54.5 285.87 54.62 283.81 55.09 283.57C55.09 284.44 55.17 285.31 55.23 286.18C55.72 284.81 55.03 282.81 55.23 281.43L55.48 281.61C55.48 279.61 55.48 278.61 55.48 277.55C55.3743 276.194 55.6998 274.84 56.41 273.68L56.04 273.93C56.31 272.82 56.79 272.53 57.18 272.38C57.729 272.199 58.2905 272.059 58.86 271.96C59.0186 272.195 59.1431 272.45 59.23 272.72C60.3006 273.064 61.3 273.6 62.18 274.3C63.4358 275.19 64.5865 276.22 65.61 277.37C64.28 276.37 61.79 274.24 60.06 273.46C61.27 274.19 63.89 276.71 64.59 277.15C64.0556 276.692 63.5636 276.186 63.12 275.64C65.2486 277.005 67.0045 278.878 68.23 281.09C67.55 281.19 68.54 282.93 69.57 285.09C70.6 287.25 71.67 289.75 71.63 290.97C74.12 295.89 75.05 301.3 76.21 307.53C76.79 305.13 76.54 309.36 77.46 308.82C77.6525 309.534 77.7467 310.271 77.74 311.01C77.74 312.54 77.66 314.07 77.59 315.58C77.37 316.66 77.27 314.18 77.04 314.34C77.21 317.58 76.71 315.73 76.57 317.87C76.92 317.41 77.14 318.97 77.01 320.82L77.43 318.21C78.02 322.75 76.69 322.12 76.96 326.68L76.73 325.22C76.88 327.58 75.92 333.78 76.16 336.13C75.95 336.51 75.57 336.97 75.72 335.97C75.1251 338.827 74.3807 341.651 73.49 344.43C72.7182 346.924 71.5019 349.258 69.9 351.32V350.85C69.39 351.7 69.31 352.59 68.3 353.41C68.3 353.29 68.36 352.94 68.06 353.29C67.4346 354.475 66.5817 355.525 65.55 356.38C65.7817 356.059 65.9954 355.725 66.19 355.38C62.27 358.62 60.19 360.71 55.89 361.91C55.83 361.57 54.78 361.51 53.52 361.45C52.261 361.405 51.0056 361.288 49.76 361.1L49.84 361C47.1493 360.704 44.4915 360.162 41.9 359.38C39.3075 358.629 36.7953 357.624 34.4 356.38C31.65 353.95 24.26 349.12 20.35 344.66C20.92 345.37 19.86 344.98 19.05 344.29C18.15 343.23 15.99 341.91 16.62 341.61L16.95 341.98C16.7 340.78 14.64 338.83 13.25 337.11L12.35 337.38C10.99 334.71 8.51 331.81 6.79 328.95C5.07 326.09 4.02 323.16 4.41 321.68C4.06589 320.393 3.94746 319.057 4.05999 317.73L4.5 317.89C4.82937 316.594 5.46752 315.396 6.35998 314.4C7.41007 313.248 8.71963 312.364 10.18 311.82C9.94999 312.01 9.75 312.23 9.54 312.43C11.54 311.66 12.01 310.2 14.4 310.06L15.08 310.77C19.46 311.01 23.36 313.67 27.59 315.6C27.47 315.6 27.25 315.74 26.59 315.37C28.47 316.54 33.45 320.54 33.32 319.37C33 319.89 37.21 322.32 39.32 323.82L38.72 323.92C40.413 324.538 41.9664 325.487 43.29 326.71C43.78 327.24 43.51 327.4 42.88 326.71C44.48 328.51 44.59 327.63 46.49 329.86L45.49 329.31C46.2862 330.256 47.2793 331.017 48.4 331.54C49.64 332.54 51.56 335.04 51.52 335.54C52.5133 335.955 53.3646 336.65 53.97 337.54C53.97 337.79 53.56 337.45 53.35 337.28C55.88 340.57 57.79 341.61 59.28 344.09C59.2 344.23 59.28 344.42 59.37 344.63C57.27 342.09 55.6 340.04 55.78 340.21C55.46 340.48 57.1 342.57 55.31 341.32C56.91 342.74 59.79 345.1 61.22 347.32C61.2738 347.433 61.3076 347.555 61.32 347.68L61.12 347.5C61.4298 347.951 61.7887 348.367 62.19 348.74C62.65 349.43 62.92 349.89 63.4 350.52C63.31 350.98 65.11 353.06 65.88 354.14C66.18 353.77 67.16 355.22 66.49 353.68C66.59 353.87 66.31 353.51 65.76 352.81C65.62 352.66 65.48 352.48 65.37 352.39H65.46L63.46 349.78C64.4227 350.529 65.2166 351.473 65.79 352.55C66.44 352.92 67.12 353.34 67.49 353.6C68.06 355.45 69.86 358.48 69.81 359.12C72.4 362.26 75.5 366.83 77.67 368.44C78.0929 368.893 78.3411 369.481 78.37 370.1C77.9948 369.616 77.5907 369.155 77.16 368.72C78.67 370.49 81.16 374.3 81.98 374.41C83.43 376.96 80.58 373.41 82.98 376.62L82.52 376.28C86.29 383.28 91.15 385.91 95.52 393.58C95.2901 393.286 95.1295 392.944 95.05 392.58C100.79 400.83 108.5 408.23 115.22 415.58C116.32 416.801 117.666 417.776 119.17 418.44L119.32 419.2L121.94 420.66C123.553 421.766 125.035 423.051 126.36 424.49C127.968 426.059 129.835 427.338 131.88 428.27L131.47 427.64C133.07 428.64 136.71 430.58 136.28 430.7C136.757 430.7 137.218 430.87 137.58 431.18L137.51 431.43C138.97 432 140.38 432.67 141.88 433.12C145.13 434.73 140.88 433.86 145.81 435.98C147.73 436.57 151.36 437.18 150.71 436.77C150.06 436.36 148.86 435.93 148.89 435.66L150.62 436.14C151.17 435.53 152.62 435.23 148.8 433.28C147.8 433.07 146.8 432.94 145.85 432.67L145.11 431.94C145.88 432.27 146.64 432.61 147.44 432.87C146.489 432.267 145.417 431.881 144.3 431.74C144.053 431.364 143.707 431.063 143.3 430.87C142.307 430.72 141.323 430.52 140.35 430.27C140.17 429.84 141.77 430.34 140.11 429.27C138.74 428.94 140.98 430.48 138.86 429.62C137.75 428.62 138.25 428.62 136.63 428.07C136.53 427.77 136.88 427.87 137.52 428.07C136.1 427.56 134.08 426.14 133.2 426.07C132.13 424.97 128.94 423.34 129.46 422.86C128.179 422.406 126.97 421.769 125.87 420.97C128.38 421.83 121.81 417.8 122.96 417.43C121.02 416.88 117.64 413.34 114.96 411.35C115.225 411.458 115.464 411.622 115.66 411.83C114.849 410.936 114.1 409.987 113.42 408.99C112.77 409.29 110.64 407.31 109.3 406.42C108.18 404.33 110.8 406.92 110.74 405.99C110.44 406.43 107.64 403.46 107.85 404.31C106.98 402.74 106.99 403.05 106.79 402.03C105.99 402.33 105.61 400.9 104.28 400.13C102.96 397.93 104.44 399.13 102.47 397.13C101.92 396.07 103.72 397.78 103.72 397.78ZM63.12 344.97L64 346.04L63.12 344.97ZM59.51 340.64L61.06 342.53C61.06 342.78 60.8 342.72 60.44 342.28C60.72 342.41 59.94 341.33 59.51 340.64ZM64.38 351.9C63.8 351.24 63.69 350.9 63.69 350.8L64.69 351.99L64.8 352.04C64.6455 352.022 64.4995 351.959 64.38 351.86V351.9Z" fill="#20696A"/>
<path d="M65.8303 352.761L66.0703 353.031C65.9903 352.871 65.9103 352.711 65.8403 352.551L65.5303 352.391C65.6303 352.521 65.7303 352.641 65.8303 352.761Z" fill="#20696A"/>
<path d="M38.6602 312.641V312.721C38.6891 312.662 38.7225 312.605 38.7602 312.551C38.7002 312.641 38.6802 312.641 38.6602 312.641Z" fill="#20696A"/>
<path d="M0.550415 323.45L0.660431 323.41L0.44043 322.9L0.550415 323.45Z" fill="#20696A"/>
<path d="M16.2898 314.861C16.1764 314.953 16.0814 315.065 16.0098 315.191C16.0098 315.191 16.1198 315.041 16.2898 314.861Z" fill="#20696A"/>
<path d="M12.7299 327.98C12.5999 328.61 12.4699 329.25 12.3799 329.89C12.5399 329.06 12.6499 328.46 12.7299 327.98Z" fill="#20696A"/>
<path d="M12.3203 338.43C12.3696 338.513 12.4428 338.579 12.5303 338.62L12.3203 338.43Z" fill="#20696A"/>
<path d="M43.1201 287.941L43.2901 288.311C43.7501 289.171 43.4701 288.581 43.1201 287.941Z" fill="#20696A"/>
<path d="M12.6197 271.44C12.6457 270.903 12.7058 270.369 12.7997 269.84C12.5197 270.64 12.3797 271.36 12.6197 271.44Z" fill="#20696A"/>
<path d="M48.9397 272.441H48.9297L49.2397 272.671L48.9397 272.441Z" fill="#20696A"/>
<path d="M13.4998 267.641C13.1617 268.343 12.926 269.091 12.7998 269.861C13.0198 269.141 13.3198 268.341 13.4998 267.641Z" fill="#20696A"/>
<path d="M29.1201 379.781L29.4001 380.201C29.4001 380.201 29.4601 380.201 29.5001 380.201L29.1201 379.781Z" fill="#20696A"/>
<path d="M29.4697 380.201L29.8397 380.611C29.7387 380.456 29.6139 380.318 29.4697 380.201V380.201Z" fill="#20696A"/>
<path d="M30.6398 381.471L29.8398 380.611C30.0541 380.943 30.3249 381.234 30.6398 381.471V381.471Z" fill="#20696A"/>
<path d="M21.7805 368.141H21.5605C21.5936 368.161 21.6317 368.172 21.6705 368.172C21.7094 368.172 21.7475 368.161 21.7805 368.141V368.141Z" fill="#20696A"/>
<path d="M19.7803 364.471C20.2107 365.704 20.746 366.899 21.3803 368.041L21.5603 368.091C21.0103 367.641 20.4403 365.191 19.7803 364.471Z" fill="#20696A"/>
<path d="M15.7705 347.58C16.0005 348.69 16.2105 349.82 16.5105 350.92C16.5105 350.29 16.5105 349.48 17.0005 350.92C16.3805 346.64 16.8105 351.93 15.7705 347.58Z" fill="#20696A"/>
<path d="M14.5205 337.092C14.7105 338.912 14.7805 337.092 14.8805 337.152C14.6505 336.012 14.6005 335.722 14.5205 337.092Z" fill="#20696A"/>
<path d="M19.9902 305.55L20.4402 305.45C19.6202 304.37 20.2902 305.53 19.9902 305.55Z" fill="#20696A"/>
<path d="M12.5303 292.75L12.5703 294.2L13.1103 294.77L12.5303 292.75Z" fill="#20696A"/>
<path d="M14.3604 283.741L14.4604 284.341L14.1904 282.041C14.2304 282.641 14.2904 283.171 14.3604 283.741Z" fill="#20696A"/>
<path d="M55.9699 286.64L56.1799 286C55.5699 285.24 54.9899 285.39 55.9699 286.64Z" fill="#20696A"/>
<path d="M56.4102 274.06L58.0201 272.66C57.6702 272.771 57.3468 272.952 57.0698 273.193C56.7929 273.434 56.5684 273.729 56.4102 274.06Z" fill="#20696A"/>
<path d="M11.1601 334.8L11.9701 335.56L10.5801 334.01L11.1601 334.8Z" fill="#20696A"/>
<path d="M367.44 298.16C363.39 297.97 360.22 301.45 357.68 304.61C356.048 306.438 354.699 308.501 353.68 310.73C353.106 312.207 352.828 313.783 352.862 315.368C352.897 316.953 353.243 318.515 353.882 319.966C354.52 321.417 355.438 322.728 356.583 323.824C357.728 324.92 359.078 325.78 360.555 326.355C362.032 326.929 363.609 327.207 365.193 327.173C366.778 327.138 368.341 326.792 369.792 326.153C371.242 325.515 372.553 324.597 373.65 323.452C374.746 322.307 375.606 320.957 376.18 319.48C377.59 315.78 377.1 311.64 376.27 307.76C375.95 305.59 375.105 303.53 373.81 301.76C372.41 300.09 369.99 299.08 367.98 299.94" fill="#E9D0C6"/>
<path d="M368.55 314.37C370.405 312.462 372.687 311.022 375.209 310.17C377.73 309.318 380.417 309.078 383.05 309.47C381.235 311.43 378.939 312.881 376.39 313.68C373.879 314.581 371.179 314.819 368.55 314.37V314.37Z" fill="#534741"/>
<path d="M348.351 320.491C350.174 318.543 352.467 317.097 355.011 316.291C357.519 315.379 360.222 315.141 362.851 315.601C360.997 317.511 358.714 318.95 356.192 319.801C353.671 320.651 350.982 320.888 348.351 320.491V320.491Z" fill="#534741"/>
<path d="M366.791 317.641C368.91 320.127 370.569 322.972 371.691 326.041C372.924 329.064 373.602 332.286 373.691 335.551C371.22 333.317 369.336 330.512 368.201 327.381C366.952 324.295 366.468 320.953 366.791 317.641Z" fill="#534741"/>
<path d="M357.72 291.771C361.892 296.849 364.328 303.129 364.67 309.691C362.197 307.457 360.311 304.647 359.18 301.511C357.919 298.429 357.418 295.088 357.72 291.771V291.771Z" fill="#534741"/>
<path d="M259.24 169.83C244.37 195.3 229 205.31 217.12 209.55C210.64 211.87 199.76 214.42 195.77 223.33C193.22 229.01 195.34 233.14 196.41 241.33C198.41 257.01 195.3 276.82 185.61 289.93C176.48 302.28 168.31 299.57 164.61 309.93C159.36 324.73 172.03 341.62 174.61 344.59C182.9 353.99 194.1 360.26 205.31 365.87C215.42 370.93 225.85 375.64 236.97 377.7C243.91 378.98 250.97 379.2 258.07 379.42C275.5 379.96 284.24 379.55 292.32 374.58C307.58 365.19 310.61 346.31 310.87 344.49C310.98 343.7 311.15 340.75 311.28 338.97C311.86 330.64 312.14 324.57 312.18 323.97C312.85 310.62 323.6 284.47 323.6 284.47C330.47 267.77 336.86 252.47 340.89 236.31C349.25 202.91 339.33 202.55 348.08 177.42C353.53 161.76 361.68 149.56 362.08 128.78C362.18 124 361.97 114.18 357.19 112.14C355.13 111.26 353.19 112.26 345.11 115.08C340.79 116.58 336.39 117.87 332.06 119.32C327.73 120.77 316.15 124.62 308.12 129.81C306.47 130.742 305.191 132.215 304.5 133.98C304.124 135.108 304.026 136.311 304.212 137.485C304.398 138.66 304.864 139.773 305.57 140.73C308.64 144.32 314.57 140.51 318.35 142.49C328 147.55 319.3 187.72 309.21 209.08C306.12 215.8 298.12 231.76 295.32 237.64C294.602 239.337 293.777 240.987 292.85 242.58C286.55 252.41 281.28 249.58 271.85 260.05C257.79 275.72 260.14 292.63 251.85 293.73C246.95 294.38 242.46 288.94 240.71 285.63C236.42 277.51 240.35 266.63 246.28 263.5C249.5 261.82 251.63 263.31 256.6 261.01C259.482 259.596 262.041 257.605 264.12 255.16C272.79 245.87 278.78 239.46 280.12 229.96C281.46 220.46 276.86 217.52 279.97 209.29C282.25 203.29 284.75 203.85 287.37 198.49C292.48 188.06 285.72 175.94 279.02 166.49C276.54 162.97 273.56 159.17 269.29 158.54C265.29 157.95 263.38 165.6 263.14 166.46" fill="#E9D0C6"/>
<path d="M271.861 160.041C273.371 162.971 274.611 165.411 276.001 167.871C277.391 170.331 278.921 172.821 280.771 175.971C282.016 178.085 283.077 180.304 283.941 182.601C284.907 185.164 285.461 187.864 285.581 190.601C285.619 191.361 285.602 192.123 285.53 192.881C285.479 193.665 285.369 194.444 285.201 195.211C284.883 196.857 284.37 198.458 283.671 199.981C282.281 203.251 280.131 206.771 279.051 211.051C278.201 215.016 277.832 219.068 277.951 223.121C278.047 226.473 277.782 229.826 277.16 233.121C276.562 235.682 275.549 238.128 274.16 240.361C273.205 241.932 272.125 243.423 270.931 244.821C270.521 245.331 270.171 245.721 269.931 245.981L269.571 246.381C269.571 246.381 267.95 248.231 264.91 251.071C263.4 252.471 261.531 254.221 259.461 255.941C257.354 257.786 254.95 259.26 252.35 260.301C249.565 261.281 246.536 261.33 243.72 260.441C240.515 259.425 237.446 258.021 234.581 256.261C228.961 253.058 223.544 249.511 218.361 245.641C213.741 242.191 211.051 239.841 209.621 238.641C204.971 234.613 200.005 230.964 194.771 227.731C197.638 233.337 201.576 238.327 206.361 242.421C207.821 243.671 210.591 246.101 215.361 249.661C220.711 253.669 226.309 257.336 232.121 260.641C235.343 262.605 238.796 264.163 242.401 265.281C244.314 265.837 246.298 266.11 248.29 266.091C250.26 266.062 252.21 265.704 254.061 265.031C257.203 263.793 260.111 262.027 262.66 259.811C264.93 257.911 266.76 256.191 268.35 254.721C271.5 251.771 273.29 249.721 273.29 249.721L273.681 249.291C273.931 249.001 274.31 248.581 274.78 248.021C276.123 246.427 277.347 244.736 278.441 242.961C280.107 240.261 281.326 237.31 282.051 234.221C282.75 230.598 283.059 226.91 282.97 223.221C282.859 219.57 283.178 215.918 283.921 212.341C284.741 208.981 286.69 205.691 288.29 202.031C289.129 200.183 289.747 198.243 290.131 196.251C290.343 195.29 290.483 194.313 290.551 193.331C290.635 192.387 290.655 191.438 290.611 190.491C290.451 187.219 289.776 183.993 288.611 180.931C287.644 178.356 286.449 175.873 285.04 173.511C283.348 170.628 281.265 167.993 278.85 165.681C276.676 163.616 274.339 161.73 271.861 160.041Z" fill="#695E59"/>
<path d="M329.23 131.531C326.878 133.502 324.891 135.872 323.36 138.531C321.715 141.47 320.531 144.643 319.85 147.941C319.56 149.241 319.08 151.371 318.38 155.741C317.72 159.841 316.73 166.561 315.46 172.221C314.82 175.051 314.22 177.631 313.72 179.491C313.22 181.351 312.91 182.491 312.91 182.491C312.91 182.491 311.91 186.361 310.24 191.221C308.57 196.081 306.41 201.911 304.64 205.981C302.36 211.301 300.75 214.501 299.94 216.181C297.165 221.683 294.89 227.423 293.14 233.331C297.79 229.103 301.609 224.043 304.4 218.411C305.25 216.691 306.91 213.411 309.25 207.961C311.08 203.781 313.37 197.801 314.99 192.801C316.61 187.801 317.71 183.801 317.71 183.801C317.71 183.801 318.07 182.621 318.55 180.701C319.03 178.781 319.69 176.151 320.35 173.251C321.67 167.441 322.7 160.491 323.35 156.501C324.04 152.211 324.47 150.211 324.73 148.971C325.53 145.341 326.14 142.551 326.73 139.861C327.35 137.025 328.185 134.24 329.23 131.531V131.531Z" fill="#695E59"/>
<path d="M304.64 128.061C307.159 126.616 309.787 125.369 312.5 124.331C315.05 123.271 317.73 122.201 321.19 120.691L339.56 112.821L345.77 110.161C347.752 109.284 349.82 108.614 351.94 108.161C353.881 107.742 355.899 107.842 357.79 108.451C359.722 109.153 361.443 110.337 362.79 111.891C364.235 113.528 365.349 115.43 366.07 117.491C366.435 118.529 366.713 119.596 366.9 120.681C367.069 121.81 367.162 122.949 367.18 124.091C367.26 128.721 366.18 133.471 364.8 138.191C362.04 147.731 359.15 157.101 356.8 165.861C354.45 174.621 352.58 182.801 351.4 189.861C350.22 196.921 349.67 202.641 349.2 206.641C348.73 210.641 348.46 212.851 348.46 212.851C348.46 212.851 348.19 215.081 347.54 219.001C346.89 222.921 345.83 228.531 344.12 235.281C342.41 242.031 340.12 249.921 337.27 258.451C334.42 266.981 331.18 276.161 327.93 285.631C324.68 295.101 321.45 304.861 318.93 314.551C317.63 319.381 316.49 324.201 315.55 328.931C315.06 331.281 314.65 333.631 314.27 335.931C314.06 337.081 313.92 338.231 313.76 339.371L313.52 341.061L313.4 341.901L313.33 342.531C313.05 345.081 312.78 347.411 312.67 349.371C312.56 351.331 312.42 352.911 312.4 353.971C312.318 355.741 312.338 357.514 312.46 359.281C312.543 360.802 312.727 362.315 313.01 363.811C313.29 365.251 313.57 366.641 314.01 368.051C314.45 369.461 314.92 370.911 315.45 372.461C315.71 370.821 315.93 369.341 316.11 367.911C316.29 366.481 316.54 365.101 316.68 363.691C316.82 362.281 317 360.851 317.1 359.291C317.2 357.731 317.32 356.061 317.4 354.191C317.4 353.191 317.53 351.641 317.68 349.751C317.83 347.861 318.07 345.611 318.33 343.131L318.4 342.531L318.52 341.721C318.59 341.171 318.67 340.621 318.75 340.071C318.91 338.971 319.04 337.851 319.25 336.741C319.62 334.501 320.01 332.221 320.49 329.911C321.41 325.311 322.49 320.591 323.81 315.841C326.33 306.331 329.5 296.681 332.74 287.261C335.98 277.841 339.27 268.631 342.1 260.021C344.93 251.411 347.3 243.401 349.03 236.501C350.76 229.601 351.86 223.841 352.53 219.811C353.2 215.781 353.48 213.491 353.48 213.491C353.48 213.491 353.78 211.211 354.23 207.191C354.68 203.171 355.23 197.441 356.35 190.611C357.47 183.781 359.29 175.771 361.65 167.111C364.01 158.451 366.86 149.161 369.65 139.511C371.02 134.651 372.31 129.511 372.23 123.961C372.211 122.585 372.097 121.212 371.89 119.851C371.654 118.457 371.3 117.085 370.83 115.751C369.892 113.082 368.445 110.62 366.57 108.501C364.665 106.311 362.231 104.644 359.5 103.661C358.118 103.191 356.677 102.918 355.22 102.851C353.832 102.802 352.442 102.913 351.08 103.181C348.615 103.702 346.212 104.48 343.91 105.501L337.65 108.171L323.42 114.281L319.25 116.101C316.178 117.394 313.295 119.096 310.68 121.161C308.276 123.088 306.231 125.424 304.64 128.061V128.061Z" fill="#695E59"/>
<path d="M289.2 249.941C287.433 255.904 286.497 262.083 286.42 268.301C286.42 269.601 286.36 271.711 286.28 276.101C286.19 281.841 286.04 291.511 285.91 299.751C285.84 303.861 285.81 307.671 285.91 310.441C286.01 313.211 286.07 314.951 286.07 314.951C286.07 314.951 286.13 316.401 286.34 318.791C286.631 321.932 287.082 325.056 287.69 328.151C288.39 331.801 289.35 335.761 290.31 339.561C291.27 343.361 292.2 347.031 292.97 350.091C294.42 355.771 295.31 359.281 295.78 361.091C297.278 367.129 299.61 372.928 302.71 378.321C302.861 372.104 302.154 365.896 300.61 359.871C300.15 358.031 299.27 354.511 297.84 348.871C297.07 345.811 296.14 342.141 295.18 338.351C294.22 334.561 293.29 330.701 292.61 327.211C292.028 324.282 291.597 321.325 291.32 318.351C291.11 316.091 291.05 314.701 291.05 314.701C291.05 314.701 290.96 313.041 290.9 310.361C290.84 307.681 290.9 303.951 290.96 299.841C291.09 291.601 291.24 281.931 291.33 276.191C291.39 271.801 291.42 269.691 291.44 268.391C291.546 262.168 290.793 255.959 289.2 249.941V249.941Z" fill="#695E59"/>
<path d="M281.36 251.92C278.509 252.946 275.801 254.33 273.3 256.04C270.543 257.986 268.105 260.348 266.07 263.04C264.396 265.173 262.875 267.422 261.52 269.77C259.73 272.85 258.207 276.079 256.97 279.42C255.56 283.19 254.31 287.17 252.76 290.42C252.07 291.952 251.236 293.415 250.27 294.79C249.496 295.872 248.618 296.877 247.65 297.79C247.22 298.17 246.83 298.51 246.48 298.79L245.54 299.5C245 299.88 244.69 300.07 244.69 300.07C243.785 300.674 242.839 301.215 241.86 301.69C239.355 302.906 236.773 303.954 234.13 304.83C230.95 305.94 227.25 307.13 223.73 308.67C216.879 311.627 210.509 315.59 204.83 320.43C202.267 322.57 200.013 325.053 198.13 327.81C196.468 330.319 195.084 333.002 194 335.81C196.51 333.67 198.67 332.03 200.83 330.25C202.99 328.47 205.22 326.6 208.05 324.25C210.862 321.895 213.844 319.749 216.97 317.83C219.783 316.115 222.71 314.595 225.73 313.28C228.97 311.86 232.51 310.72 235.79 309.57C238.638 308.617 241.421 307.478 244.12 306.16C245.258 305.596 246.36 304.961 247.42 304.26C247.42 304.26 247.79 304.03 248.42 303.57L249.57 302.71C250.01 302.35 250.5 301.92 251.04 301.45C252.252 300.299 253.353 299.036 254.33 297.68C255.468 296.06 256.455 294.339 257.28 292.54C259.03 288.8 260.28 284.7 261.65 281.13C262.793 278.052 264.191 275.075 265.83 272.23C267.08 270.075 268.469 268.004 269.99 266.03C272.23 263.13 274.05 260.89 275.77 258.7C277.49 256.51 279.17 254.39 281.36 251.92Z" fill="#695E59"/>
<path d="M222.84 287.541C220.84 288.591 219.66 289.311 218.97 291.091C218.59 292.091 217.49 294.941 216.34 297.541C215.19 300.141 214.07 302.451 214.07 302.451C214.07 302.451 212.92 304.771 211.53 307.241C210.14 309.711 208.53 312.361 207.99 313.241C206.99 314.871 207.12 316.241 207.52 318.471C209.75 318.031 211.1 317.571 212.2 315.911C212.8 315.021 214.5 312.271 215.92 309.681C217.34 307.091 218.54 304.681 218.54 304.681C218.54 304.681 219.75 302.271 220.94 299.561C222.13 296.851 223.29 293.841 223.64 292.821C224.29 290.941 223.84 289.571 222.84 287.541Z" fill="#695E59"/>
<path d="M244 264.461C242.19 265.301 241.17 265.951 240.84 267.401C240.66 268.181 240.21 270.541 239.84 272.721C239.47 274.901 239.22 276.891 239.22 276.891C239.22 276.891 238.93 278.891 238.68 281.061C238.43 283.231 238.22 285.651 238.18 286.451C238.11 287.931 238.91 288.841 240.43 290.141C242.09 289.021 243 288.281 243.15 286.851C243.23 286.081 243.43 283.751 243.67 281.621C243.91 279.491 244.16 277.571 244.16 277.571C244.16 277.571 244.43 275.641 244.79 273.571C245.15 271.501 245.58 269.171 245.71 268.411C245.97 266.951 245.3 265.991 244 264.461Z" fill="#695E59"/>
<path d="M243.12 280.311C242.637 280.885 242.255 281.538 241.99 282.241C241.899 282.513 241.867 282.802 241.894 283.087C241.922 283.373 242.009 283.65 242.15 283.901C242.906 285.198 243.816 286.4 244.86 287.481C245.414 288.067 246.005 288.619 246.63 289.131L247.46 289.791L248.32 290.401C248.983 290.861 249.674 291.278 250.39 291.651C251.719 292.351 253.125 292.895 254.58 293.271C254.859 293.335 255.149 293.341 255.431 293.289C255.713 293.238 255.981 293.129 256.22 292.971C256.818 292.516 257.342 291.969 257.77 291.351C257.516 290.665 257.219 289.997 256.88 289.351C256.785 289.138 256.647 288.947 256.475 288.791C256.303 288.634 256.1 288.515 255.88 288.441C254.794 288.115 253.74 287.694 252.73 287.181C252.178 286.904 251.643 286.593 251.13 286.251L250.47 285.791L249.84 285.271C249.369 284.873 248.922 284.449 248.5 284.001C247.729 283.172 247.036 282.275 246.43 281.321C246.298 281.125 246.127 280.958 245.927 280.833C245.727 280.707 245.503 280.624 245.27 280.591C244.56 280.449 243.842 280.355 243.12 280.311V280.311Z" fill="#695E59"/>
<path d="M196.91 236.73C195.592 242.742 194.782 248.853 194.49 255C194.41 256.28 194.32 258.36 193.92 262.66C193.76 264.22 193.47 266.91 193.17 269.1C193.068 269.937 192.894 270.764 192.65 271.57C192.553 271.86 192.44 272.144 192.31 272.42C192.31 272.42 192.19 272.68 191.92 273.13C191.509 273.783 191.065 274.413 190.59 275.02L186.81 280.02C183.26 284.64 180.99 287.4 179.81 288.83C177.39 291.73 175.57 294.05 173.93 296.35C172.29 298.65 170.79 300.91 168.88 303.6C171.583 302.287 174.152 300.713 176.55 298.9C179.15 296.879 181.521 294.578 183.62 292.04C184.87 290.58 187.21 287.75 190.81 283.04L194.61 278.04C195.189 277.294 195.727 276.516 196.22 275.71C196.443 275.342 196.647 274.961 196.83 274.57C197.055 274.104 197.248 273.623 197.41 273.13C197.754 272.051 198.001 270.943 198.15 269.82C198.48 267.46 198.78 264.82 198.93 263.14C199.33 258.71 199.42 256.56 199.49 255.25C199.824 248.969 198.949 242.681 196.91 236.73Z" fill="#695E59"/>
<path d="M267.43 144.011C267.888 140.994 267.838 137.921 267.28 134.921C267.13 134.181 266.97 133.431 266.78 132.671C266.59 131.911 266.26 131.171 265.96 130.381L265.49 129.181C265.31 128.791 265.09 128.401 264.88 127.991C264.44 127.191 264.01 126.321 263.47 125.471L262.31 123.791C261.811 123.023 261.263 122.288 260.67 121.591C260 120.821 259.35 119.901 258.5 119.051C257.85 118.381 257.19 117.701 256.5 117.051C255.81 116.401 254.89 115.631 254.07 114.901C253.25 114.171 252.32 113.561 251.43 112.901C250.97 112.581 250.53 112.221 250.05 111.901L248.58 111.001C244.468 108.481 239.962 106.669 235.25 105.641C232.768 105.133 230.244 104.852 227.71 104.801H225.79C225.16 104.801 224.52 104.881 223.88 104.921C222.6 104.921 221.33 105.181 220.05 105.331C214.971 106.172 210.014 107.633 205.29 109.681C200.644 111.699 196.138 114.024 191.8 116.641C187.51 119.191 183.4 121.761 179.39 124.501C175.418 127.16 171.732 130.223 168.39 133.641C165.287 136.907 162.718 140.643 160.78 144.711C159.1 148.272 157.819 152.008 156.96 155.851C155.758 161.401 155.041 167.046 154.82 172.721C154.73 174.721 154.68 176.301 154.65 177.361C154.62 178.421 154.65 178.991 154.65 178.991C154.65 178.991 154.65 181.231 154.57 185.211C154.49 189.191 154.48 194.881 154.42 201.801C154.23 215.611 154.07 234.351 151.09 253.561C150.74 255.961 150.27 258.351 149.84 260.761C149.41 263.171 148.84 265.551 148.25 267.911C147.66 270.271 147.01 272.631 146.36 274.981C145.71 277.331 144.96 279.621 144.12 281.861C142.577 286.293 140.781 290.634 138.74 294.861C138.24 295.861 137.74 296.861 137.24 297.921C136.74 298.981 136.16 299.921 135.63 300.921C135.1 301.921 134.56 302.851 133.99 303.781C133.42 304.711 132.99 305.511 132.43 306.361C130.452 309.452 128.315 312.439 126.03 315.311C124.84 316.741 123.86 318.101 122.87 319.311C121.88 320.521 121.1 321.721 120.22 322.811C119.34 323.901 118.6 325.091 117.75 326.251C116.9 327.411 116.02 328.631 115.07 329.981C116.53 329.241 117.88 328.541 119.18 327.821C120.48 327.101 121.61 326.251 122.81 325.401C124.046 324.488 125.212 323.485 126.3 322.401C127.595 321.153 128.802 319.817 129.91 318.401C132.336 315.402 134.593 312.27 136.67 309.021L138.31 306.311C138.9 305.311 139.49 304.361 140.02 303.311C140.55 302.261 141.14 301.311 141.7 300.231L143.27 297.031C145.389 292.627 147.255 288.106 148.86 283.491C149.72 281.161 150.42 278.751 151.18 276.361C151.94 273.971 152.56 271.521 153.18 269.061C153.8 266.601 154.28 264.141 154.81 261.681C155.34 259.221 155.74 256.751 156.09 254.291C159.14 234.601 159.28 215.661 159.47 201.811C159.53 194.891 159.57 189.191 159.61 185.231C159.65 181.271 159.69 179.051 159.69 179.051C159.69 179.051 159.69 176.831 159.9 172.931C160.1 167.549 160.769 162.196 161.9 156.931C163.37 150.461 166.27 143.101 172.1 137.051C177.93 131.001 186.1 125.951 194.41 120.921C202.72 115.891 211.68 111.701 220.87 110.281C222.02 110.151 223.16 109.951 224.3 109.911C224.87 109.911 225.44 109.821 226 109.801H227.7C229.912 109.843 232.115 110.091 234.28 110.541C238.44 111.436 242.419 113.025 246.05 115.241L247.35 116.031C247.79 116.291 248.18 116.621 248.58 116.911C249.397 117.47 250.185 118.071 250.94 118.711C251.67 119.361 252.42 119.961 253.11 120.621L254.88 122.431C255.64 123.181 256.22 124.001 256.82 124.691C257.352 125.308 257.843 125.96 258.29 126.641L259.29 128.131C259.78 128.881 260.19 129.631 260.63 130.321L261.26 131.321C261.45 131.661 261.63 132.001 261.8 132.321C262.16 132.981 262.53 133.601 262.9 134.211C263.27 134.821 263.52 135.461 263.84 136.061C265.214 138.627 266.413 141.283 267.43 144.011V144.011Z" fill="#695E59"/>
<path d="M278.851 132.391C281.534 133.423 284.109 134.716 286.541 136.251C289.069 137.873 291.479 139.674 293.751 141.641C294.397 142.185 295.008 142.769 295.581 143.391C295.971 143.811 296.441 144.271 296.941 144.861C297.441 145.451 297.941 146.151 298.581 146.971C300.325 149.456 301.693 152.186 302.641 155.071C302.761 155.451 302.871 155.821 302.991 156.171C303.111 156.521 303.151 156.891 303.231 157.221C303.371 157.891 303.511 158.491 303.611 159.001C303.721 160.001 303.791 160.681 303.791 160.681C303.791 160.681 303.791 160.811 303.791 161.061C303.818 161.393 303.818 161.728 303.791 162.061C303.818 163.232 303.775 164.404 303.661 165.571C303.303 168.506 302.66 171.4 301.741 174.211C300.891 176.921 300.071 179.121 299.431 180.891L298.121 184.881C295.958 190.718 294.612 196.825 294.121 203.031C297.746 197.972 300.653 192.436 302.761 186.581L304.201 182.641C304.841 180.881 305.681 178.641 306.591 175.761C307.62 172.627 308.33 169.397 308.711 166.121C308.836 164.734 308.879 163.342 308.841 161.951C308.855 161.529 308.831 161.108 308.771 160.691C308.771 160.401 308.771 160.241 308.771 160.241C308.771 160.241 308.681 159.471 308.551 158.241C308.451 157.631 308.281 156.911 308.121 156.111C308.021 155.721 307.961 155.291 307.831 154.871L307.421 153.571C306.335 150.181 304.736 146.977 302.681 144.071C301.981 143.121 301.321 142.331 300.771 141.621C300.221 140.911 299.631 140.401 299.181 139.911C298.503 139.203 297.785 138.535 297.031 137.911C290.691 132.641 285.331 131.641 278.851 132.391Z" fill="#695E59"/>
<path d="M262.611 159.852C260.381 166.072 258.381 169.582 254.611 175.792C253.302 177.903 251.831 179.909 250.211 181.792C247.016 185.488 243.443 188.839 239.551 191.792C234.875 195.25 229.985 198.41 224.911 201.252C219.971 204.092 215.371 206.662 212.081 208.632C208.791 210.602 206.761 211.922 206.761 211.922C206.761 211.922 205.051 212.992 202.331 214.922C198.713 217.449 195.314 220.275 192.171 223.372C188.226 227.292 184.746 231.654 181.801 236.372C179.041 240.796 176.733 245.486 174.911 250.372C174.651 251.082 174.381 251.752 174.161 252.372L173.561 254.232C173.181 255.402 172.851 256.442 172.621 257.382C172.391 258.322 172.151 259.122 171.971 259.822C171.791 260.522 171.681 261.112 171.581 261.582C171.381 262.582 171.181 263.462 171.051 264.342C170.921 265.222 170.831 266.072 170.761 266.882C170.613 268.414 170.572 269.954 170.641 271.492C170.708 272.948 170.855 274.401 171.081 275.842C171.311 277.302 171.671 278.842 172.031 280.392C172.861 277.222 173.561 274.582 174.281 271.862C174.671 270.502 174.921 269.102 175.281 267.602C175.461 266.852 175.641 266.072 175.801 265.252L176.401 262.672C176.511 262.222 176.611 261.672 176.781 261.012C176.951 260.352 177.161 259.602 177.401 258.722C177.641 257.842 177.931 256.862 178.291 255.722L178.861 253.982C179.071 253.372 179.321 252.742 179.571 252.082C181.317 247.51 183.511 243.122 186.121 238.982C188.868 234.586 192.105 230.517 195.771 226.852C198.718 223.949 201.903 221.296 205.291 218.922C207.881 217.092 209.531 216.052 209.531 216.052C209.531 216.052 211.471 214.782 214.701 212.862C217.931 210.942 222.481 208.402 227.481 205.532C232.749 202.591 237.823 199.315 242.671 195.722C246.851 192.566 250.689 188.979 254.121 185.022C255.895 182.953 257.506 180.749 258.941 178.432C263.011 171.502 263.591 166.332 262.611 159.852Z" fill="#695E59"/>
<path d="M238.78 230.57C239.47 232.68 240.56 233.98 242.65 234.36C243.659 234.526 244.678 234.623 245.7 234.65C247.05 234.65 248.59 234.65 250.01 234.52L253.7 234.22L255.26 234.11C255.26 234.11 255.83 234.11 256.72 234.11C257.822 234.113 258.922 234.204 260.01 234.38C261.156 234.556 262.277 234.864 263.35 235.3C264.011 235.559 264.639 235.895 265.22 236.3C265.75 236.667 266.349 236.923 266.98 237.05L268.1 237.3C268.51 237.4 268.96 237.53 269.51 237.71C269.964 236.796 270.081 235.751 269.839 234.76C269.598 233.768 269.014 232.893 268.19 232.29C267.3 231.619 266.329 231.062 265.3 230.63C263.858 230.037 262.351 229.618 260.81 229.38C259.467 229.17 258.11 229.066 256.75 229.07C256.21 229.07 255.75 229.07 255.47 229.07H254.99L253.33 229.17L249.66 229.45C248.32 229.55 246.95 229.6 245.84 229.57C244.73 229.54 243.84 229.43 243.42 229.37C241.84 229.2 240.89 229.81 238.78 230.57Z" fill="#695E59"/>
<path d="M247.21 233.321C246.5 235.091 246.46 236.391 247.51 237.421C248.852 238.666 250.416 239.65 252.12 240.321C253.055 240.684 254.028 240.942 255.02 241.091C255.449 241.172 255.884 241.222 256.32 241.241H256.67C257.003 241.264 257.337 241.264 257.67 241.241C258.681 241.234 259.688 241.11 260.67 240.871C261.73 240.612 262.759 240.24 263.74 239.761C264.391 239.434 265.019 239.063 265.62 238.651C266.8 237.791 266.95 236.511 266.51 234.651C264.64 234.301 263.71 233.951 262.84 234.511C261.808 235.178 260.678 235.677 259.49 235.991C258.584 236.208 257.65 236.289 256.72 236.231C255.792 236.16 254.879 235.954 254.01 235.621C252.884 235.15 251.84 234.502 250.92 233.701C250.12 233.051 249.12 233.261 247.21 233.321Z" fill="#695E59"/>
<path d="M228.49 157.211C228.044 158.853 227.287 160.394 226.26 161.751C225.199 163.182 223.996 164.502 222.67 165.691C222.042 166.252 221.373 166.767 220.67 167.231C220.23 167.531 219.67 167.851 219.16 168.171L218.8 168.371L218.37 168.601C218.08 168.761 217.78 168.911 217.48 169.061C216.87 169.361 216.23 169.651 215.56 169.941C212.9 171.101 209.81 172.101 206.65 173.491C203.46 174.881 200.401 176.554 197.51 178.491C194.742 180.306 192.124 182.339 189.68 184.571C188.49 185.571 187.48 186.681 186.46 187.661C185.44 188.641 184.59 189.661 183.81 190.571C182.22 192.391 181.03 193.991 180.19 195.101L178.94 196.871C178.94 196.871 177.86 198.391 176.28 201.001C174.21 204.442 172.427 208.047 170.95 211.781C169.103 216.464 167.668 221.299 166.66 226.231C165.717 230.847 165.119 235.526 164.87 240.231C164.77 242.011 164.74 243.461 164.73 244.601C164.72 245.741 164.73 246.601 164.73 247.161C164.756 250.931 165.492 254.663 166.9 258.161C167.492 254.525 167.766 250.844 167.72 247.161C167.72 246.601 167.72 245.791 167.72 244.681C167.72 243.571 167.72 242.171 167.86 240.441C168.099 235.881 168.677 231.345 169.59 226.871C170.563 222.111 171.945 217.444 173.72 212.921C175.139 209.334 176.848 205.869 178.83 202.561C180.34 200.051 181.38 198.561 181.38 198.561L182.58 196.861C183.39 195.801 184.53 194.271 186.06 192.521C186.8 191.631 187.69 190.731 188.6 189.741C189.51 188.751 190.54 187.741 191.67 186.791C194.003 184.659 196.505 182.72 199.15 180.991C201.899 179.165 204.804 177.586 207.83 176.271C210.83 174.951 213.91 173.951 216.73 172.731C217.43 172.421 218.12 172.111 218.79 171.781C219.12 171.621 219.44 171.461 219.79 171.281L220.27 171.031L220.67 170.801C221.29 170.451 221.86 170.091 222.37 169.741C223.177 169.191 223.942 168.583 224.66 167.921C226.251 166.525 227.465 164.75 228.19 162.761C228.83 160.98 228.934 159.051 228.49 157.211V157.211Z" fill="#695E59"/>
</svg>
