<svg width="345" height="104" viewBox="0 0 345 104" fill="none" xmlns="http://www.w3.org/2000/svg">
<path d="M17.4974 12.4298C17.5413 12.2982 17.5852 12.2543 17.6291 12.2982C17.673 12.2982 17.7388 12.2543 17.8266 12.1665V13.0224C17.7827 12.9346 17.7169 12.9126 17.6291 12.9565C17.5852 12.9565 17.5852 12.8907 17.6291 12.759C17.4974 12.8029 17.4097 12.9126 17.3658 13.0882C17.3658 13.2199 17.2999 13.2199 17.1683 13.0882C17.1683 13.2199 17.1683 13.2857 17.1683 13.2857C17.0805 13.2857 17.0366 13.2637 17.0366 13.2199C17.0805 13.176 17.0805 13.154 17.0366 13.154C16.9049 13.3735 16.7074 13.571 16.4441 13.7465C16.1807 13.9221 15.9613 14.0757 15.7857 14.2074C15.5663 14.1635 15.5224 14.1416 15.654 14.1416C15.8296 14.0977 15.8954 14.0318 15.8516 13.944C15.7638 13.944 15.676 13.966 15.5882 14.0099C15.5004 14.0099 15.4565 14.0538 15.4565 14.1416C15.1932 14.0538 15.0176 13.9002 14.9299 13.6807C14.886 13.4613 14.6885 13.2418 14.3373 13.0224C14.2935 12.7151 14.2057 12.4079 14.074 12.1007C13.9862 11.7495 13.8984 11.3984 13.8107 11.0473C13.7668 10.6962 13.7448 10.3451 13.7448 9.99394C13.7887 9.64281 13.9204 9.29169 14.1398 8.94057C14.2276 8.98446 14.2715 8.98446 14.2715 8.94057C14.2715 8.89668 14.3154 8.87474 14.4032 8.87474C14.4471 8.78696 14.491 8.74307 14.5349 8.74307C14.6226 8.69918 14.6885 8.63334 14.7324 8.54556C14.8201 8.54556 14.9079 8.47973 14.9957 8.34805C15.0835 8.21639 15.1493 8.08471 15.1932 7.95304C16.3782 7.16302 17.5852 6.46078 18.8141 5.84632C20.0431 5.18797 21.3159 4.55156 22.6326 3.9371C22.9398 3.76154 23.269 3.58598 23.6201 3.41042C23.9712 3.23486 24.3223 3.08124 24.6735 2.94957C24.8929 2.86179 25.1343 2.77401 25.3977 2.68623C25.7049 2.59845 25.9682 2.51067 26.1877 2.42289C26.8021 2.20344 27.4385 2.02788 28.0969 1.89621C28.7552 1.72065 29.4575 1.52314 30.2036 1.30369C30.9498 1.21591 31.7178 1.12813 32.5079 1.04035C33.2979 0.908682 34.0879 0.820901 34.8779 0.777009C36.5019 0.777009 38.038 1.01841 39.4864 1.5012C40.9348 1.98399 42.032 2.70818 42.7781 3.67376C42.9537 3.89321 43.1073 4.1346 43.239 4.39794C43.4145 4.66129 43.6121 4.94657 43.8315 5.2538C43.9193 5.47325 44.0071 5.67076 44.0948 5.84632C44.1826 5.97799 44.2704 6.1755 44.3582 6.43884C44.9288 7.18497 45.236 8.01888 45.2799 8.94057C45.4554 10.6084 45.236 12.1226 44.6215 13.4832C44.051 14.7999 43.3268 15.8972 42.449 16.775C41.9662 17.7405 41.3298 18.5525 40.5397 19.2109C39.7497 19.8253 39.0255 20.5276 38.3672 21.3176C37.8405 21.6248 37.3577 22.0418 36.9188 22.5685C36.4799 23.0512 35.9313 23.3365 35.2729 23.4243C34.3951 24.1266 33.5173 24.763 32.6395 25.3335C31.7617 25.8602 30.8839 26.3869 30.0061 26.9136C30.2695 27.0452 30.5547 27.133 30.862 27.1769C31.2131 27.2208 31.4984 27.3525 31.7178 27.5719C33.3857 28.0108 35.0315 28.5156 36.6555 29.0861C36.6555 29.1739 36.6774 29.2178 36.7213 29.2178C36.8091 29.2178 36.853 29.2617 36.853 29.3495H36.9846C37.7308 29.7884 38.3891 30.2712 38.9597 30.7978C39.5742 31.2806 40.0789 31.7634 40.4739 32.2462C40.5617 32.6412 40.7373 32.9924 41.0006 33.2996C41.3078 33.5629 41.4614 33.914 41.4614 34.3529C41.5492 34.3529 41.5712 34.3749 41.5273 34.4188C41.5273 34.4188 41.5712 34.3968 41.6589 34.3529C41.7028 34.5285 41.7906 34.7041 41.9223 34.8796C42.054 35.0113 42.0759 35.1869 41.9881 35.4063C42.2076 35.6696 42.3392 35.9988 42.3831 36.3938C42.4709 36.745 42.6245 36.9864 42.844 37.118C43.1951 37.908 43.3707 38.8078 43.3707 39.8173C43.4145 40.7828 43.1732 41.6607 42.6465 42.4507C42.5148 42.7579 42.3392 43.0651 42.1198 43.3724C41.9003 43.6796 41.6809 43.9868 41.4614 44.2941C41.2859 44.5574 41.0445 44.7988 40.7373 45.0182C40.6495 45.1499 40.5178 45.2596 40.3422 45.3474C40.2106 45.4791 40.057 45.6327 39.8814 45.8083C39.6181 46.0277 39.3547 46.2691 39.0914 46.5325C38.8719 46.8397 38.6525 47.103 38.433 47.3225C37.9502 47.6736 37.4894 47.9808 37.0505 48.2442C36.6555 48.5514 36.2605 48.8806 35.8654 49.2317H35.6021L34.2196 50.2192C33.7368 50.3948 33.3198 50.6142 32.9687 50.8776C32.6176 51.1848 32.2226 51.4481 31.7837 51.6676C31.5642 51.7554 31.3228 51.8651 31.0595 51.9968C30.84 52.1284 30.6206 52.2821 30.4011 52.4576C30.1817 52.6332 29.9622 52.7868 29.7428 52.9185C29.5233 53.094 29.3039 53.2257 29.0844 53.3135C28.6016 53.6207 28.0969 53.8621 27.5702 54.0377C27.0874 54.2132 26.6266 54.3888 26.1877 54.5643L24.7393 55.2885L21.8426 56.0786C20.9648 56.3419 20.1089 56.6272 19.275 56.9344C18.4411 57.2416 17.4974 57.4391 16.4441 57.5269C16.5319 57.4391 16.6196 57.3733 16.7074 57.3294C16.8391 57.3294 16.9708 57.2855 17.1024 57.1977C19.2091 56.6711 21.1623 56.0127 22.9618 55.2227C24.8051 54.4327 26.6485 53.6207 28.4919 52.7868C28.5797 52.699 28.6455 52.6332 28.6894 52.5893C28.7772 52.5454 28.843 52.4576 28.8869 52.3259C29.4136 52.1943 29.8964 51.9748 30.3353 51.6676C30.7742 51.4043 31.235 51.1629 31.7178 50.9434C32.069 50.724 32.3981 50.4826 32.7054 50.2192C33.0565 49.9559 33.4515 49.7584 33.8904 49.6267C34.0221 49.4073 34.1318 49.2756 34.2196 49.2317C34.1757 49.0561 34.1757 48.9464 34.2196 48.9025C34.3073 48.8586 34.3512 48.7928 34.3512 48.705C34.1318 48.705 33.9562 48.7928 33.8246 48.9684C33.6929 49.1439 33.5612 49.2756 33.4295 49.3634C33.3418 49.4511 33.254 49.495 33.1662 49.495C33.0784 49.495 33.0126 49.5389 32.9687 49.6267C32.7492 49.6706 32.5956 49.7364 32.5079 49.8242C32.464 49.9559 32.3762 50.0656 32.2445 50.1534L31.4545 50.4167C31.1911 50.5484 30.9278 50.702 30.6645 50.8776C30.4011 51.097 30.1597 51.3165 29.9403 51.5359C28.843 52.1065 27.7019 52.6112 26.5169 53.0501C26.2096 53.4013 25.7488 53.6865 25.1343 53.906C24.5637 54.1254 24.059 54.3229 23.6201 54.4985C23.4007 54.718 23.1154 54.8716 22.7642 54.9594C22.4131 55.0471 22.1059 55.1788 21.8426 55.3544C21.8426 55.3544 21.8426 55.2885 21.8426 55.1569C21.1403 55.3763 20.46 55.5958 19.8017 55.8152C19.1433 56.0347 18.463 56.2541 17.7608 56.4736C17.9802 56.2541 18.1997 56.1444 18.4191 56.1444C18.6386 56.1444 18.858 56.0566 19.0775 55.881C18.1558 56.1883 17.278 56.4736 16.4441 56.7369C15.654 57.0441 14.6885 57.3075 13.5473 57.5269C15.1274 57.088 16.6416 56.6052 18.09 56.0786C19.5383 55.5958 21.0306 55.0691 22.5667 54.4985C22.6106 54.4985 22.6326 54.4327 22.6326 54.301C23.0715 54.2132 23.4445 54.0816 23.7518 53.906C24.1029 53.7743 24.5199 53.6427 25.0026 53.511C25.0904 53.4671 25.1124 53.4013 25.0685 53.3135C25.0246 53.2696 25.0465 53.2476 25.1343 53.2476C26.1877 52.8526 27.1971 52.3479 28.1627 51.7334C29.1722 51.1629 30.1378 50.5703 31.0595 49.9559C30.7084 50.0437 30.3572 50.1973 30.0061 50.4167C29.655 50.6362 29.3258 50.7898 29.0186 50.8776C28.7991 50.9654 28.6016 51.0751 28.4261 51.2068C28.2944 51.3823 28.1188 51.514 27.8994 51.6018L26.7802 52.1284C25.4196 52.8307 23.9932 53.4232 22.5009 53.906L24.081 53.1818C24.1687 53.2257 24.2346 53.2038 24.2785 53.116C24.3223 53.0721 24.3443 53.094 24.3443 53.1818C24.7832 52.9624 25.2002 52.7429 25.5952 52.5235C26.0341 52.3479 26.473 52.1284 26.9119 51.8651C27.4385 51.6457 27.8994 51.4043 28.2944 51.1409C28.7333 50.8776 29.1941 50.6581 29.6769 50.4826C30.4231 49.8242 31.257 49.2975 32.1787 48.9025C33.1004 48.5075 33.9123 47.9369 34.6146 47.1908C34.5707 47.103 34.5049 47.0811 34.4171 47.125C34.3732 47.2128 34.3512 47.1908 34.3512 47.0591C34.7024 46.9714 34.9657 46.8397 35.1413 46.6641C35.3168 46.4886 35.5143 46.2691 35.7338 46.0058C35.4704 46.1374 35.251 46.2911 35.0754 46.4666C34.9438 46.6861 34.7024 46.8397 34.3512 46.9275C34.2635 47.1908 34.0879 47.3444 33.8246 47.3883C33.6051 47.4322 33.3857 47.6297 33.1662 47.9808C33.1223 47.9808 33.0565 48.0028 32.9687 48.0467C32.9248 48.1344 32.8151 48.1564 32.6395 48.1125C32.3323 48.5075 31.9592 48.8147 31.5203 49.0342C31.0814 49.2536 30.5767 49.5389 30.0061 49.89C29.5672 50.1095 29.1283 50.3289 28.6894 50.5484C28.2944 50.7679 27.8116 50.9215 27.241 51.0092C27.3727 50.9215 27.5044 50.8556 27.636 50.8117C27.8116 50.8117 27.9213 50.7459 27.9652 50.6142C27.6141 50.702 27.2849 50.8117 26.9777 50.9434C26.7144 51.119 26.4291 51.2506 26.1218 51.3384C27.0435 50.8556 27.9652 50.3948 28.8869 49.9559C29.8525 49.517 30.7084 48.9245 31.4545 48.1783C32.069 47.9589 32.6395 47.6078 33.1662 47.125C33.6929 46.6861 34.2635 46.2911 34.8779 45.9399C34.9657 45.7205 35.0974 45.5669 35.2729 45.4791C35.4924 45.3913 35.6899 45.2377 35.8654 45.0182C35.6899 45.0182 35.5802 45.0621 35.5363 45.1499C35.4924 45.1938 35.4265 45.2158 35.3388 45.2158C35.4265 45.0402 35.6241 44.8866 35.9313 44.7549C36.2385 44.5793 36.4141 44.3599 36.458 44.0966C36.3263 44.0527 36.1727 44.0527 35.9971 44.0966C35.8654 44.1404 35.7338 44.2063 35.6021 44.2941C35.5143 44.3818 35.4265 44.4696 35.3388 44.5574C35.251 44.6452 35.1852 44.6671 35.1413 44.6232C34.8779 44.8866 34.5707 45.106 34.2196 45.2816C33.8684 45.501 33.4734 45.7424 33.0345 46.0058V46.4008C32.9468 46.4447 32.859 46.4886 32.7712 46.5325C32.7273 46.6202 32.6615 46.6202 32.5737 46.5325C32.5737 46.6202 32.5956 46.6861 32.6395 46.73L31.3228 47.1908C31.1034 47.4103 30.7961 47.5858 30.4011 47.7175C30.0061 47.893 29.7208 48.0686 29.5453 48.2442C29.7208 48.332 29.8744 48.2881 30.0061 48.1125C30.1378 47.9808 30.3133 47.8711 30.5328 47.7833C29.7428 48.4417 28.843 48.9903 27.8336 49.4292C26.8241 49.912 25.8585 50.3948 24.9368 50.8776C24.7174 50.8337 24.5418 50.8776 24.4101 51.0092C24.2785 51.1848 24.059 51.2287 23.7518 51.1409C23.8834 51.0531 24.0371 51.0531 24.2126 51.1409C24.871 50.702 25.6171 50.2631 26.451 49.8242C27.2849 49.4292 28.0969 49.1 28.8869 48.8367C28.843 48.6611 28.9528 48.5514 29.2161 48.5075C29.4794 48.5075 29.5672 48.3978 29.4794 48.1783L29.0186 48.5075C28.9308 48.5075 28.9089 48.4636 28.9528 48.3758C28.9966 48.3319 28.9747 48.3319 28.8869 48.3758C28.7991 48.4197 28.7772 48.4417 28.8211 48.4417C28.865 48.4856 28.843 48.5295 28.7552 48.5733C28.6236 48.6172 28.448 48.6831 28.2286 48.7708C28.053 48.8586 27.8774 48.9245 27.7019 48.9684C27.6141 48.9684 27.5922 48.9684 27.636 48.9684C27.6799 49.0122 27.6799 49.0561 27.636 49.1C26.846 49.4511 26.0999 49.8023 25.3977 50.1534C24.6954 50.5484 23.9712 50.8776 23.2251 51.1409C23.1812 51.1409 23.1812 51.1409 23.2251 51.1409C23.269 51.1848 23.247 51.2506 23.1593 51.3384C23.0276 51.2506 22.8959 51.2506 22.7642 51.3384C22.6765 51.4262 22.5448 51.514 22.3692 51.6018L17.6949 53.2476C17.3438 53.3354 16.9708 53.4451 16.5757 53.5768C16.2246 53.7085 15.8516 53.8402 15.4565 53.9718C15.2371 54.0157 15.0396 54.0816 14.864 54.1693C14.6885 54.301 14.4471 54.3668 14.1398 54.3668C13.657 54.5863 13.1523 54.7399 12.6256 54.8277C12.0989 54.9594 11.5723 55.091 11.0456 55.2227C10.6067 55.3544 10.1897 55.4421 9.79472 55.486C9.4436 55.5299 9.02664 55.5958 8.54385 55.6835C8.45607 55.6835 8.43412 55.6616 8.47801 55.6177C8.5219 55.6177 8.49996 55.6177 8.41218 55.6177C8.19273 55.7055 8.06106 55.8152 8.01717 55.9469C9.07053 55.903 10.2336 55.7933 11.5064 55.6177C12.8231 55.486 14.0521 55.2885 15.1932 55.0252C14.5787 55.2446 13.9423 55.3983 13.284 55.486C12.6256 55.5738 12.0331 55.7713 11.5064 56.0786C11.5942 56.1663 11.66 56.1663 11.7039 56.0786C11.7478 55.9908 11.8137 55.9688 11.9014 56.0127C11.7698 56.1005 11.5942 56.1444 11.3748 56.1444C11.1553 56.1883 10.9798 56.2541 10.8481 56.3419C10.9359 56.4736 11.0236 56.5175 11.1114 56.4736C11.2431 56.4736 11.3748 56.4736 11.5064 56.4736C11.4187 56.693 11.2211 56.7808 10.9139 56.7369C10.6506 56.693 10.4311 56.7589 10.2556 56.9344C10.4311 56.9783 10.5847 56.9564 10.7164 56.8686C10.8481 56.8247 11.0236 56.8027 11.2431 56.8027C10.892 57.1539 10.475 57.2416 9.99222 57.0661C9.50943 56.9344 9.02664 56.8905 8.54385 56.9344C8.36829 56.9783 8.23662 57.0222 8.14884 57.0661C8.06106 57.1539 7.95133 57.1539 7.81966 57.0661C7.07353 57.1539 6.28351 57.11 5.4496 56.9344C4.57179 56.7589 3.80372 56.6052 3.14537 56.4736C3.0137 56.2541 2.83813 56.0566 2.61868 55.881C2.39923 55.7494 2.24562 55.5299 2.15784 55.2227C2.11395 55.2227 2.092 55.2008 2.092 55.1569C2.04811 55.1569 1.96033 55.1569 1.82866 55.1569C1.74088 55.2446 1.74088 55.3544 1.82866 55.486C1.91644 55.6177 1.96033 55.7494 1.96033 55.881C1.82866 55.7494 1.69699 55.6177 1.56532 55.486C1.43365 55.3544 1.32393 55.2008 1.23615 55.0252C1.32393 55.113 1.41171 55.2007 1.49949 55.2885C1.58727 55.3763 1.67505 55.4641 1.76283 55.5519C1.76283 55.4641 1.69699 55.3105 1.56532 55.091C1.43365 54.9155 1.41171 54.8057 1.49949 54.7619C1.41171 54.7619 1.36782 54.718 1.36782 54.6302C1.32393 54.5424 1.23615 54.5205 1.10447 54.5643C1.14837 54.3449 1.17031 54.1693 1.17031 54.0377C1.12642 53.9499 1.06058 53.7963 0.972805 53.5768L0.643629 53.7743C0.731409 53.9938 0.753354 54.1254 0.709464 54.1693C0.621684 54.2132 0.577794 54.1693 0.577794 54.0377C0.533904 53.9499 0.490013 53.8621 0.446123 53.7743C0.533904 53.6865 0.577794 53.6207 0.577794 53.5768C0.577794 53.5329 0.621684 53.4671 0.709464 53.3793C0.621684 53.2915 0.577794 53.2257 0.577794 53.1818C0.533904 53.1379 0.446123 53.116 0.314453 53.116C0.402233 52.9843 0.511958 52.8526 0.643629 52.721C0.775299 52.6332 0.841135 52.4796 0.841135 52.2601C1.10448 52.0846 1.25809 52.0187 1.30198 52.0626C1.38976 51.9748 1.4556 51.909 1.49949 51.8651C1.49949 51.8212 1.58727 51.8212 1.76283 51.8651C1.71894 51.7773 1.74088 51.7334 1.82866 51.7334C1.91644 51.7334 1.91644 51.7334 1.82866 51.7334C2.13589 51.4701 2.50896 51.2945 2.94786 51.2068C3.38676 51.119 3.84761 51.097 4.3304 51.1409C4.41818 51.1409 4.44012 51.1629 4.39623 51.2068C4.35234 51.2506 4.3304 51.3165 4.3304 51.4043C4.41818 51.4043 4.46207 51.3165 4.46207 51.1409C4.59374 51.4481 4.83513 51.5798 5.18626 51.5359C5.49349 51.5359 5.77877 51.6018 6.04211 51.7334C5.82266 51.9529 5.53738 52.0187 5.18626 51.9309C4.79124 51.8432 4.5279 51.9748 4.39623 52.3259C4.17678 52.4137 3.91344 52.5235 3.60621 52.6551C3.29898 52.7868 3.18926 53.0062 3.27704 53.3135C3.40871 53.489 3.6501 53.6427 4.00122 53.7743C4.35234 53.906 4.72541 53.9938 5.12042 54.0377C5.51543 54.1254 5.8885 54.1913 6.23962 54.2352C6.63463 54.2791 6.94186 54.301 7.16131 54.301C7.29298 53.9499 7.40271 53.5329 7.49049 53.0501C7.57827 52.6112 7.66605 52.1723 7.75383 51.7334C7.84161 51.3384 7.95133 50.9654 8.083 50.6142C8.21467 50.2631 8.34634 49.89 8.47801 49.495C9.39971 45.9399 10.475 42.5165 11.7039 39.2247C12.9768 35.933 14.3593 32.751 15.8516 29.6786C15.7638 29.6348 15.6979 29.5909 15.654 29.547C15.654 29.4592 15.5882 29.4153 15.4565 29.4153C15.5004 29.152 15.4565 28.9545 15.3249 28.8228C15.2371 28.6472 15.1274 28.4936 14.9957 28.3619C15.1274 28.2303 15.259 28.1644 15.3907 28.1644C15.3468 27.9889 15.3688 27.8133 15.4565 27.6378C15.7638 27.5939 16.0052 27.528 16.1807 27.4403C16.4002 27.3086 16.6635 27.2208 16.9708 27.1769C17.5413 26.0358 18.09 24.8727 18.6166 23.6877C19.1433 22.5026 19.6919 21.2737 20.2625 20.0009C20.7014 19.1231 21.1623 18.2233 21.6451 17.3016C22.1278 16.3799 22.5887 15.4144 23.0276 14.4049C23.4665 13.5271 23.8834 12.6273 24.2785 11.7056C24.7174 10.784 25.1343 9.86226 25.5293 8.94057C25.7488 8.50167 25.9463 8.10666 26.1218 7.75554C26.2974 7.36053 26.4291 6.96552 26.5169 6.57051C26.6046 6.48273 26.6705 6.41689 26.7144 6.373C26.8021 6.32911 26.868 6.26328 26.9119 6.17549C27.3069 6.30717 27.658 6.32911 27.9652 6.24133C28.2725 6.15355 28.6016 6.15355 28.9528 6.24133C29.2161 6.24133 29.4794 6.28522 29.7428 6.373C30.0061 6.46078 30.1817 6.54856 30.2695 6.63634C30.4889 6.85579 30.5986 7.09719 30.5986 7.36053C30.5986 7.62387 30.5547 7.88721 30.467 8.15055C30.3792 8.41389 30.2695 8.69918 30.1378 9.00641C30.0061 9.31364 29.9183 9.59892 29.8744 9.86226C29.3039 10.9156 28.7114 11.947 28.0969 12.9565C27.5263 13.9221 27.0435 15.0194 26.6485 16.2483H26.5169C26.1657 17.3455 25.7707 18.3769 25.3318 19.3425C24.9368 20.3081 24.5857 21.2956 24.2785 22.3051C24.2346 22.3929 24.1687 22.4807 24.081 22.5685C24.0371 22.6562 23.9712 22.7879 23.8834 22.9635C23.664 23.6218 23.4007 24.2582 23.0934 24.8727C22.7862 25.4871 22.457 26.1016 22.1059 26.7161C22.457 26.6722 22.7862 26.5844 23.0934 26.4527C23.4007 26.3211 23.664 26.1674 23.8834 25.9919C25.9024 25.0263 27.7238 24.0388 29.3478 23.0293C29.4355 22.8537 29.4794 22.744 29.4794 22.7001C30.2695 22.2173 30.9717 21.7345 31.5862 21.2517C32.2006 20.769 32.837 20.2862 33.4954 19.8034V19.6717C35.8654 17.7844 37.9063 15.5899 39.6181 13.0882V12.759C39.8375 12.4079 40.0789 12.0129 40.3422 11.574C40.6495 11.0912 40.9348 10.5865 41.1981 10.0598C41.4614 9.53309 41.6589 8.98446 41.7906 8.41389C41.9662 7.79943 42.054 7.20691 42.054 6.63634C42.0101 6.32911 41.9442 6.10966 41.8565 5.97799C41.7687 5.80243 41.6809 5.60492 41.5931 5.38547C40.2325 4.50767 38.6744 3.87126 36.9188 3.47625C35.1632 3.08124 33.4734 3.0593 31.8495 3.41042L29.8744 3.73959C28.6016 4.09071 27.3727 4.48573 26.1877 4.92463C25.0465 5.36353 23.9273 5.80243 22.8301 6.24133C21.8206 6.8119 20.7892 7.44831 19.7358 8.15055C18.6825 8.8089 17.9144 9.77448 17.4316 11.0473C17.4755 11.0473 17.5413 11.0473 17.6291 11.0473C17.7608 11.0473 17.8047 11.0912 17.7608 11.179C17.673 11.179 17.6291 11.179 17.6291 11.179C17.6291 11.1351 17.6072 11.1131 17.5633 11.1131C17.651 11.2448 17.651 11.3545 17.5633 11.4423C17.5194 11.5301 17.5194 11.6179 17.5633 11.7056C17.6072 11.7056 17.6291 11.6618 17.6291 11.574C17.7169 11.574 17.7388 11.6398 17.6949 11.7715C17.6949 11.8593 17.7388 11.8373 17.8266 11.7056C17.8266 11.9251 17.7608 12.0568 17.6291 12.1007C17.4974 12.1446 17.4535 12.2543 17.4974 12.4298ZM31.5862 46.2033C31.5862 46.0716 31.6081 46.0058 31.652 46.0058C31.7398 46.0058 31.7617 45.9619 31.7178 45.8741C31.6301 45.8302 31.5642 45.8522 31.5203 45.9399C31.4764 46.0277 31.4325 46.0277 31.3887 45.9399C31.3887 45.9399 31.4325 45.896 31.5203 45.8083C31.6081 45.7644 31.6739 45.6985 31.7178 45.6108C31.8056 45.523 31.8934 45.4791 31.9812 45.4791C32.1567 45.3913 32.3323 45.3255 32.5079 45.2816C32.7273 45.2816 32.8809 45.1719 32.9687 44.9524C33.0565 44.9524 33.1004 44.9524 33.1004 44.9524C33.1443 44.9085 33.2101 44.9085 33.2979 44.9524C33.3418 44.7768 33.4295 44.6671 33.5612 44.6232C33.6929 44.5793 33.7807 44.4696 33.8246 44.2941C34.6146 43.8113 35.2949 43.2187 35.8654 42.5165C36.4799 41.7704 37.0724 41.0681 37.643 40.4098C37.643 40.2342 37.6649 40.1245 37.7088 40.0806C38.06 39.5539 38.4111 38.9175 38.7622 38.1714C39.1572 37.4253 39.3328 36.6352 39.2889 35.8013C39.245 35.3185 39.0694 34.8577 38.7622 34.4188C38.455 33.936 38.1038 33.5849 37.7088 33.3654C37.3577 33.146 36.9627 32.9485 36.5238 32.7729C36.1288 32.5973 35.7777 32.4218 35.4704 32.2462C35.3827 32.2462 35.3388 32.2682 35.3388 32.3121C35.3388 32.3559 35.2949 32.3559 35.2071 32.3121C34.9876 32.1804 34.7462 32.0268 34.4829 31.8512C34.2196 31.6318 33.9343 31.4781 33.6271 31.3904C32.7931 31.1709 32.0909 30.9295 31.5203 30.6662C30.9498 30.4467 30.4011 30.2712 29.8744 30.1395C29.3917 30.0078 28.8869 29.8762 28.3602 29.7445C27.4824 29.7006 26.5169 29.7664 25.4635 29.942C24.454 30.1176 23.5104 30.337 22.6326 30.6003C22.5009 30.6003 22.4351 30.5784 22.4351 30.5345C22.479 30.4906 22.457 30.4467 22.3692 30.4028C22.062 30.4906 21.7548 30.6003 21.4475 30.732C21.1842 30.8198 20.877 30.9076 20.5259 30.9954C20.5259 30.9076 20.482 30.8637 20.3942 30.8637C20.1308 30.8198 19.9772 30.8417 19.9333 30.9295C19.8894 31.0173 19.8236 31.1929 19.7358 31.4562C19.4286 32.2023 19.0775 32.9924 18.6825 33.8263C18.3313 34.6602 18.0022 35.516 17.6949 36.3938C17.6072 36.7011 17.5413 37.0522 17.4974 37.4472C17.4535 37.7983 17.3438 38.1494 17.1683 38.5006C16.9049 39.3784 16.6855 40.2562 16.5099 41.134C16.3343 42.0118 16.1807 42.9115 16.0491 43.8332C15.8735 44.2721 15.7199 44.6891 15.5882 45.0841C15.5004 45.4352 15.4127 45.8302 15.3249 46.2691C15.2371 46.4886 15.1493 46.7738 15.0615 47.125C14.9299 47.5639 14.7543 47.9589 14.5349 48.31C14.3593 48.705 14.2057 49.0781 14.074 49.4292C13.8107 49.912 13.5693 50.307 13.3498 50.6142C13.1304 50.9215 12.867 51.2506 12.5598 51.6018C12.6037 51.6018 12.6256 51.6237 12.6256 51.6676C12.4062 51.8432 12.2306 52.0846 12.0989 52.3918C11.9673 52.699 11.8137 53.0282 11.6381 53.3793C11.3748 53.4232 11.1773 53.511 11.0456 53.6427C10.9578 53.8182 10.87 53.9718 10.7822 54.1035C11.8795 53.884 13.0426 53.6426 14.2715 53.3793C15.5443 53.1599 16.7074 52.8307 17.7608 52.3918C17.7608 52.304 17.7388 52.2821 17.6949 52.3259C17.651 52.4137 17.6072 52.4137 17.5633 52.3259C18.3094 52.2382 18.9678 52.0626 19.5383 51.7993C20.1528 51.5359 20.8331 51.3165 21.5792 51.1409C21.5353 50.9215 21.5792 50.8337 21.7109 50.8776C21.8426 50.9654 21.9523 50.8995 22.0401 50.6801C22.0401 50.8117 22.062 50.8776 22.1059 50.8776C22.4131 50.6581 22.7862 50.4826 23.2251 50.3509C23.3568 50.307 23.4884 50.2631 23.6201 50.2192C23.7518 50.1753 23.8176 50.1095 23.8176 50.0217C24.081 50.0656 24.2346 50.0437 24.2785 49.9559C24.3662 49.8681 24.5199 49.8242 24.7393 49.8242C24.7393 49.7803 24.7174 49.7584 24.6735 49.7584C24.6735 49.7584 24.6735 49.7145 24.6735 49.6267C24.7612 49.7145 24.871 49.6925 25.0026 49.5609C25.1782 49.4292 25.3538 49.3853 25.5293 49.4292C25.5293 49.4292 25.4854 49.3853 25.3977 49.2975C25.8804 49.2098 26.2974 49.0122 26.6485 48.705C26.9996 48.3978 27.4166 48.2222 27.8994 48.1783C27.9872 48.0906 28.0091 48.0247 27.9652 47.9808C27.9652 47.9369 28.0091 47.8711 28.0969 47.7833C28.3163 47.7833 28.47 47.7175 28.5577 47.5858C28.6894 47.498 28.8869 47.4322 29.1503 47.3883C29.3258 47.2566 29.4575 47.125 29.5453 46.9933C29.6769 46.9055 29.8306 46.8616 30.0061 46.8616C30.05 46.8177 30.1378 46.7519 30.2695 46.6641C30.4011 46.5763 30.5109 46.5105 30.5986 46.4666L30.6645 46.5983C30.7084 46.5983 30.7303 46.5544 30.7303 46.4666C30.7303 46.3788 30.7522 46.3349 30.7961 46.3349C30.8839 46.2472 30.9717 46.1813 31.0595 46.1374C31.1911 46.0936 31.3009 46.0277 31.3887 45.9399C31.3887 46.0277 31.4106 46.0716 31.4545 46.0716C31.4984 46.0716 31.5423 46.1155 31.5862 46.2033ZM17.5633 55.4202C18.3533 55.2008 19.1214 54.9813 19.8675 54.7619C20.6575 54.5424 21.4256 54.301 22.1717 54.0377C22.1278 54.0377 22.1059 54.0816 22.1059 54.1693C20.5697 54.6521 19.0555 55.1569 17.5633 55.6835C16.071 56.2541 14.491 56.6491 12.8231 56.8686C13.5693 56.693 14.3593 56.4955 15.1932 56.2761C16.0271 56.0566 16.8171 55.7713 17.5633 55.4202ZM38.2355 30.4687C38.1477 30.5126 38.0819 30.5126 38.038 30.4687C38.038 30.4248 38.038 30.4467 38.038 30.5345C38.3452 30.754 38.6305 31.0173 38.8939 31.3245C39.1572 31.6318 39.4864 31.8732 39.8814 32.0487C39.7497 32.0048 39.7717 31.9829 39.9472 31.9829C39.9472 32.0707 39.9253 32.1365 39.8814 32.1804C39.8814 32.2243 39.9253 32.2462 40.0131 32.2462C39.9692 32.1584 39.9692 32.0926 40.0131 32.0487C40.057 32.0048 40.0789 31.939 40.0789 31.8512H40.0131C39.9692 31.8512 39.9472 31.8512 39.9472 31.8512C39.5083 31.3684 39.0914 30.9734 38.6964 30.6662C38.3013 30.3589 37.7966 30.0298 37.1822 29.6786C37.3138 29.9859 37.4455 30.1614 37.5772 30.2053C37.7527 30.2053 37.9722 30.2931 38.2355 30.4687ZM29.5453 50.0217C29.7647 49.7145 30.05 49.495 30.4011 49.3634C30.7523 49.2317 31.0814 49.0561 31.3887 48.8367C31.4764 48.8367 31.5642 48.7928 31.652 48.705C31.7398 48.6611 31.7398 48.6172 31.652 48.5733C31.2131 48.7928 30.7522 49.0342 30.2695 49.2975C29.7867 49.6048 29.3039 49.89 28.8211 50.1534C28.9528 50.1095 29.0405 50.0656 29.0844 50.0217C29.1722 49.9778 29.3258 49.9778 29.5453 50.0217ZM40.7373 33.6946C40.7373 33.4751 40.6714 33.2776 40.5397 33.1021C40.4081 32.9265 40.2764 32.8607 40.1447 32.9046C40.2325 33.0362 40.2983 33.1899 40.3422 33.3654C40.3861 33.541 40.5178 33.6507 40.7373 33.6946ZM37.9722 47.2566C37.5772 47.4761 37.2919 47.7833 37.1163 48.1783C37.2041 48.0906 37.3577 47.9369 37.5772 47.7175C37.7966 47.498 37.9283 47.3444 37.9722 47.2566ZM23.5543 50.0217C23.5104 50.1095 23.4445 50.1534 23.3568 50.1534C23.3129 50.1973 23.269 50.2631 23.2251 50.3509C23.269 50.2192 23.3787 50.1095 23.5543 50.0217ZM2.88202 55.6177C2.96981 55.5738 3.03564 55.5519 3.07953 55.5519C3.07953 55.4641 3.0137 55.4202 2.88202 55.4202V55.5519C2.92591 55.5519 2.92591 55.5738 2.88202 55.6177ZM22.2376 53.9718C22.2815 53.9279 22.3473 53.906 22.4351 53.906C22.3473 53.906 22.2595 53.9499 22.1717 54.0377C22.1717 53.9938 22.1937 53.9718 22.2376 53.9718Z" fill="#016C55"/>
<path d="M80.2394 34.4846C80.1077 34.6163 80.0419 34.748 80.0419 34.8796C80.1297 34.7918 80.1955 34.7918 80.2394 34.8796C80.2833 34.9235 80.3272 34.8357 80.3711 34.6163C80.4588 34.5724 80.5027 34.5285 80.5027 34.4846C80.5027 34.4407 80.5466 34.4188 80.6344 34.4188C80.6783 34.6821 80.5686 34.9455 80.3052 35.2088C80.0858 35.4283 80.0199 35.6477 80.1077 35.8672C80.0199 35.9549 79.9322 36.0427 79.8444 36.1305C79.8005 36.2183 79.7346 36.3719 79.6469 36.5913C79.5591 36.6791 79.581 36.7011 79.7127 36.6572C79.8444 36.6133 79.9102 36.6133 79.9102 36.6572C79.603 36.8766 79.4494 37.0522 79.4494 37.1839C79.4933 37.3155 79.3396 37.4911 78.9885 37.7105C78.9446 37.7544 78.9446 37.7983 78.9885 37.8422V37.908H78.9227C78.8349 37.9958 78.6593 38.0397 78.396 38.0397C78.1765 38.0397 78.0229 38.1933 77.9352 38.5006C77.8474 38.4567 77.7596 38.4567 77.6718 38.5006C77.6279 38.5445 77.5621 38.5883 77.4743 38.6322C77.2987 39.2028 77.0354 39.5759 76.6843 39.7514V39.6856C76.5526 39.8173 76.4648 39.905 76.4209 39.9489C76.3771 39.9928 76.3332 40.0148 76.2893 40.0148C76.2893 40.0148 76.2673 40.0587 76.2234 40.1464C76.1795 40.1903 76.1137 40.3001 76.0259 40.4756L75.9601 40.2781C75.8723 40.3659 75.8065 40.4976 75.7626 40.6731C75.7187 40.8487 75.6529 40.9145 75.5651 40.8706C75.5212 40.9145 75.5431 41.0023 75.6309 41.134C75.587 41.2217 75.4334 41.3534 75.1701 41.529C74.9506 41.7045 74.819 41.8143 74.7751 41.8582C74.7751 42.0337 74.7312 42.1215 74.6434 42.1215C74.5995 42.1215 74.5556 42.1654 74.5117 42.2532C74.4239 42.2971 74.38 42.319 74.38 42.319C74.4239 42.2751 74.402 42.2532 74.3142 42.2532C74.1825 42.4726 74.0948 42.6043 74.0509 42.6482C74.007 42.6921 73.9631 42.714 73.9192 42.714C73.8753 42.714 73.8095 42.714 73.7217 42.714C73.6339 42.6701 73.5242 42.714 73.3925 42.8457C73.3047 42.8896 73.2389 42.9115 73.195 42.9115C73.195 42.9115 73.1511 42.9554 73.0634 43.0432C72.9756 43.2626 72.8658 43.4163 72.7342 43.504C72.6464 43.5479 72.5367 43.6796 72.405 43.899C72.405 43.8113 72.3611 43.8113 72.2733 43.899C72.0539 44.0307 71.7686 44.2063 71.4175 44.4257C71.1102 44.6452 70.7591 44.8646 70.3641 45.0841C69.9691 45.3035 69.5521 45.501 69.1132 45.6766C68.7182 45.8522 68.3671 45.9619 68.0599 46.0058C67.5771 46.0936 67.0943 46.1155 66.6115 46.0716C66.1726 46.0716 65.6679 45.918 65.0973 45.6108C65.0534 45.5669 64.9876 45.523 64.8998 45.4791C64.812 45.4791 64.7681 45.4352 64.7681 45.3474L64.6364 45.0841L64.5048 45.0182C64.1537 44.7988 63.8903 44.5135 63.7148 44.1624C63.5831 43.8113 63.4734 43.4601 63.3856 43.109C63.2978 42.8896 63.232 42.8018 63.1881 42.8457C63.2759 42.6262 63.2759 42.4726 63.1881 42.3848C63.1442 42.1654 63.1222 41.8143 63.1222 41.3315C63.1661 40.8048 63.21 40.2781 63.2539 39.7514C63.3417 39.1809 63.4075 38.6542 63.4514 38.1714C63.4953 37.6886 63.5392 37.3155 63.5831 37.0522C63.4953 37.0522 63.4295 37.0961 63.3856 37.1839C63.3417 37.2716 63.3197 37.3594 63.3197 37.4472C63.1003 37.7105 62.9247 37.9519 62.7931 38.1714C62.6614 38.3469 62.5078 38.5883 62.3322 38.8956C62.1128 38.9834 61.9372 39.1589 61.8055 39.4223C61.7178 39.6856 61.4983 39.927 61.1472 40.1464C61.0594 40.322 60.9277 40.4756 60.7522 40.6073C60.6205 40.739 60.4888 40.8487 60.3572 40.9365C60.1377 41.4193 59.7646 41.8143 59.238 42.1215C58.6235 42.8237 57.9213 43.4601 57.1312 44.0307C56.3851 44.6013 55.6609 45.128 54.9587 45.6108C54.432 45.918 53.9053 46.0497 53.3786 46.0058C52.852 45.9619 52.3033 45.8522 51.7328 45.6766C51.5572 45.5449 51.2939 45.4571 50.9427 45.4133C50.6355 45.4133 50.416 45.3694 50.2844 45.2816C50.0649 45.1499 49.9113 44.9085 49.8235 44.5574C49.6919 44.2063 49.5821 43.9649 49.4944 43.8332C49.4505 42.9554 49.5602 41.9459 49.8235 40.8048C50.0869 39.6636 50.4161 38.5225 50.8111 37.3814C51.2061 36.2402 51.623 35.143 52.0619 34.0896C52.5008 32.9924 52.852 32.0487 53.1153 31.2587L53.7736 29.3495C53.8175 29.1739 53.8175 29.0642 53.7736 29.0203C53.7736 28.9325 53.7956 28.8667 53.8395 28.8228C54.1467 28.7789 54.5198 28.735 54.9587 28.6911C55.4415 28.6472 55.8145 28.735 56.0779 28.9545C56.3851 28.8667 56.6265 28.9545 56.8021 29.2178C57.0215 29.4373 57.1751 29.6128 57.2629 29.7445C57.2629 30.0517 57.3068 30.2053 57.3946 30.2053C57.219 30.5126 57.1532 30.7759 57.1971 30.9954C57.2849 31.2148 57.2849 31.4343 57.1971 31.6537L56.8021 32.4437C56.8021 32.3998 56.7143 32.4657 56.5387 32.6412C56.4948 32.7729 56.407 33.0143 56.2754 33.3654C56.1876 33.7165 56.0779 34.0896 55.9462 34.4846C55.8145 34.8357 55.6829 35.1869 55.5512 35.538C55.4634 35.8452 55.3756 36.0647 55.2879 36.1963C54.9367 36.7669 54.6295 37.3375 54.3662 37.908C54.1467 38.4786 53.9492 38.9395 53.7736 39.2906C53.5542 40.0367 53.3786 40.7609 53.247 41.4631C53.1153 42.1215 53.0056 42.8457 52.9178 43.6357C54.8928 42.2312 56.9118 40.4756 58.9746 38.3689C61.0813 36.2622 63.1222 33.8263 65.0973 31.0612C65.1851 30.8417 65.2729 30.6881 65.3606 30.6003C65.4923 30.4687 65.5581 30.2712 65.5581 30.0078C65.8654 29.92 66.0409 29.8323 66.0848 29.7445C66.6993 29.7445 67.1162 29.7664 67.3357 29.8103C67.5551 29.8103 67.8624 29.942 68.2574 30.2053C68.3013 30.6442 68.3232 31.149 68.3232 31.7195C68.3232 32.2462 68.2793 32.7948 68.1915 33.3654C68.1038 33.8921 67.9721 34.3968 67.7965 34.8796C67.6649 35.3185 67.5113 35.6477 67.3357 35.8672C67.204 36.3499 67.0504 36.9425 66.8748 37.6447C66.6993 38.3469 66.5237 39.0711 66.3482 39.8173C66.2165 40.5634 66.1287 41.2876 66.0848 41.9898C66.0848 42.6482 66.1945 43.1749 66.414 43.5699C67.2479 43.4821 68.1257 43.0871 69.0474 42.3848C70.013 41.6826 70.8469 41.1559 71.5491 40.8048L71.615 40.6073C71.7905 40.5195 71.9003 40.4756 71.9442 40.4756C72.0319 40.4756 72.0758 40.4756 72.0758 40.4756C72.1197 40.4756 72.1417 40.4756 72.1417 40.4756C72.1855 40.4317 72.2733 40.322 72.405 40.1464C73.6339 39.4881 74.7531 38.6761 75.7626 37.7105C76.0259 37.4911 76.1137 37.4033 76.0259 37.4472C75.9382 37.4472 76.0479 37.4253 76.3551 37.3814C76.5746 37.0741 76.794 36.8327 77.0135 36.6572C77.2329 36.4816 77.4524 36.3061 77.6718 36.1305C77.9352 35.9549 78.2204 35.7574 78.5277 35.538C78.8349 35.2746 79.1641 34.9235 79.5152 34.4846H80.2394ZM79.976 34.9455C79.976 34.9455 79.998 34.9235 80.0419 34.8796C79.998 34.8357 79.9541 34.7918 79.9102 34.748C79.9102 34.6602 79.9322 34.726 79.976 34.9455Z" fill="#016C55"/>
<path d="M77.4769 43.6357C77.5647 43.2846 77.7183 43.0212 77.9377 42.8457C78.2011 42.6262 78.4425 42.3629 78.6619 42.0557C78.5741 42.1873 78.4863 42.2971 78.3986 42.3848C78.3547 42.4287 78.3108 42.5385 78.2669 42.714C78.8814 42.4068 79.2544 41.9898 79.3861 41.4631C79.5617 41.5948 79.7153 41.5509 79.8469 41.3315C79.9786 41.112 80.1542 40.9584 80.3736 40.8706L80.4395 40.8048C80.5272 40.7609 80.5711 40.6951 80.5711 40.6073C80.5711 40.4756 80.615 40.3439 80.7028 40.2123C80.7467 40.2123 80.7686 40.1903 80.7686 40.1464C80.8125 40.1026 80.8784 40.0806 80.9661 40.0806C81.0539 39.8612 81.1856 39.7295 81.3611 39.6856C81.5367 39.5978 81.6684 39.4881 81.7562 39.3564C81.8001 39.3564 81.8878 39.2906 82.0195 39.1589C82.3267 38.8517 82.6779 38.6322 83.0729 38.5006C83.4679 38.3689 83.7971 38.1275 84.0604 37.7764C84.631 37.5569 85.1576 37.2716 85.6404 36.9205C86.1232 36.5694 86.6719 36.2622 87.2863 35.9988C87.4619 35.2527 87.5277 34.3968 87.4838 33.4313C87.4399 32.4657 87.2424 31.6318 86.8913 30.9295C86.7157 31.1051 86.4963 31.3026 86.233 31.522C86.0135 31.7415 85.7721 32.0048 85.5088 32.3121L84.7187 33.0362L83.7971 33.8921L82.612 34.9455C82.3048 35.2527 81.9976 35.538 81.6903 35.8013C81.3831 36.0208 81.1198 36.1744 80.9003 36.2622C80.5931 36.6572 80.3078 36.9644 80.0445 37.1839C79.7811 37.3594 79.5397 37.2936 79.3203 36.9864C79.1886 36.8108 79.1008 36.723 79.0569 36.723C79.013 36.6791 78.9691 36.6791 78.9253 36.723C78.8814 36.7669 78.8375 36.7888 78.7936 36.7888C78.7936 36.7888 78.7277 36.7011 78.5961 36.5255C78.4205 36.5255 78.3108 36.5913 78.2669 36.723C78.2669 36.8108 78.2669 36.7888 78.2669 36.6572C78.3108 36.5694 78.3327 36.4816 78.3327 36.3938C78.3766 36.2622 78.4425 36.2183 78.5302 36.2622C78.7936 36.0866 79.035 35.8891 79.2544 35.6697C79.3422 35.5819 79.43 35.4063 79.5178 35.143C79.6055 34.8796 79.7153 34.6821 79.8469 34.5505C80.0664 34.3749 80.2639 34.2652 80.4395 34.2213C80.615 34.1774 80.8125 34.0457 81.032 33.8263C81.1198 33.7385 81.1636 33.6288 81.1636 33.4971C81.2075 33.3654 81.2734 33.2557 81.3611 33.1679C81.5367 33.0362 81.7123 32.9265 81.8878 32.8387C82.0634 32.7071 82.1951 32.5973 82.2828 32.5096C82.634 32.0268 82.9851 31.6098 83.3362 31.2587C83.7312 30.8637 84.0384 30.5126 84.2579 30.2053C84.6529 29.3275 85.2015 28.8447 85.9038 28.757C86.606 28.6253 87.1327 28.7131 87.4838 29.0203C88.0983 29.0203 88.5372 29.13 88.8005 29.3495C89.1078 29.5689 89.3711 29.92 89.5906 30.4028C89.7222 30.5784 89.8319 30.8417 89.9197 31.1929C90.0075 31.544 90.0733 31.939 90.1172 32.3779C90.205 32.7729 90.2708 33.1679 90.3147 33.5629C90.4025 33.9579 90.4464 34.2871 90.4464 34.5505C90.7097 34.5505 91.1706 34.4407 91.8289 34.2213C92.4873 34.0018 93.1676 33.7824 93.8698 33.5629C94.616 33.2996 95.2963 33.0801 95.9107 32.9046C96.5691 32.6851 97.0299 32.5754 97.2933 32.5754C97.3372 32.5754 97.381 32.5315 97.4249 32.4437C97.4688 32.5315 97.5127 32.5754 97.5566 32.5754C97.6444 32.5315 97.7322 32.5096 97.8199 32.5096C98.1272 32.4218 98.4564 32.3559 98.8075 32.3121C99.1586 32.2243 99.4658 32.0707 99.7292 31.8512C99.8608 31.8951 99.9706 31.8951 100.058 31.8512C100.146 31.7634 100.256 31.6756 100.388 31.5879V31.7195C100.388 31.7634 100.388 31.7854 100.388 31.7854C100.475 31.7854 100.519 31.6757 100.519 31.4562C101.002 31.5001 101.397 31.5001 101.704 31.4562C102.011 31.4123 102.341 31.3684 102.692 31.3245C102.867 31.4123 103.043 31.4562 103.218 31.4562C103.438 31.4123 103.591 31.3684 103.679 31.3245L104.601 31.522C104.601 31.7415 104.689 31.7854 104.864 31.6537C104.82 31.7415 104.798 31.8073 104.798 31.8512C104.842 31.8512 104.864 31.8732 104.864 31.917C104.864 31.9609 104.886 31.9829 104.93 31.9829C104.93 32.0268 104.974 32.0487 105.062 32.0487C105.106 32.0487 105.128 32.0268 105.128 31.9829C105.172 32.1146 105.215 32.2243 105.259 32.3121C105.347 32.3559 105.369 32.4437 105.325 32.5754C105.106 32.6632 104.908 32.7071 104.733 32.7071C104.557 32.6632 104.403 32.6632 104.272 32.7071C104.272 32.7948 104.294 32.8387 104.338 32.8387C104.382 32.8387 104.425 32.8607 104.469 32.9046C104.25 33.0362 104.008 33.0801 103.745 33.0362C103.482 32.9924 103.306 33.124 103.218 33.4313C102.823 33.519 102.45 33.6288 102.099 33.7604C101.792 33.8482 101.397 33.914 100.914 33.9579C100.783 34.0896 100.717 34.1993 100.717 34.2871C100.497 34.1554 100.278 34.1335 100.058 34.2213C99.8828 34.3091 99.7072 34.3749 99.5317 34.4188C99.1366 34.4627 98.7855 34.5724 98.4783 34.748C98.1711 34.9235 97.8199 35.0552 97.4249 35.143L92.224 37.1839C91.8728 37.3594 91.4998 37.5569 91.1048 37.7764C90.7097 37.9519 90.4025 38.1933 90.1831 38.5006C90.0953 39.1589 89.9417 39.6198 89.7222 39.8831C89.5467 40.1464 89.415 40.5415 89.3272 41.0681C89.1078 41.112 88.9761 41.1998 88.9322 41.3315C88.8883 41.4631 88.8225 41.6168 88.7347 41.7923C88.8225 41.7923 88.8444 41.7484 88.8005 41.6607C88.8005 41.529 88.8444 41.507 88.9322 41.5948C88.8444 41.8143 88.7347 42.0776 88.603 42.3848C88.4713 42.6482 88.2738 42.8896 88.0105 43.109C88.1861 43.1529 88.1861 43.2407 88.0105 43.3724C87.8349 43.4601 87.813 43.5699 87.9447 43.7015C87.8569 43.7454 87.7472 43.8332 87.6155 43.9649C87.4838 44.0527 87.4619 44.1404 87.5497 44.2282C87.4619 44.2282 87.418 44.2941 87.418 44.4257C87.418 44.5135 87.3522 44.5135 87.2205 44.4257C87.3083 44.5574 87.3083 44.6452 87.2205 44.6891C87.1327 44.733 87.1327 44.7988 87.2205 44.8866C86.9571 45.1499 86.7157 45.4133 86.4963 45.6766C86.3207 45.9838 86.1232 46.2691 85.9038 46.5325C85.8599 46.5763 85.8599 46.5763 85.9038 46.5325C85.9916 46.5325 86.0135 46.5763 85.9696 46.6641C85.3552 47.3225 84.7187 47.915 84.0604 48.4417C83.4459 49.0122 82.6779 49.4511 81.7562 49.7584C81.8001 49.6706 81.7342 49.6487 81.5587 49.6925C81.427 49.7364 81.3611 49.7364 81.3611 49.6925C81.3611 49.6048 81.405 49.5609 81.4928 49.5609C81.5806 49.6048 81.6684 49.6048 81.7562 49.5609C81.6245 49.3414 81.4709 49.2756 81.2953 49.3634C81.1198 49.4511 80.9661 49.495 80.8345 49.495C80.8345 49.6267 80.8125 49.6925 80.7686 49.6925V49.5609C80.5931 49.5609 80.4175 49.5828 80.242 49.6267C80.0664 49.6706 79.8469 49.6486 79.5836 49.5609C79.5397 49.5609 79.5178 49.5828 79.5178 49.6267C79.5178 49.6706 79.4739 49.6925 79.3861 49.6925C78.5083 49.7364 77.7841 49.5828 77.2135 49.2317C76.5991 48.9245 76.1163 48.5075 75.7652 47.9808C75.6774 48.0247 75.6335 48.0028 75.6335 47.915C75.5896 47.8711 75.5238 47.8711 75.436 47.915C75.3482 47.8272 75.3482 47.7614 75.436 47.7175C75.4799 47.6736 75.4799 47.5639 75.436 47.3883C75.3482 47.5639 75.2604 47.6297 75.1726 47.5858C75.0849 47.5419 74.9971 47.5858 74.9093 47.7175C74.7776 47.5858 74.7996 47.498 74.9751 47.4541C75.1068 47.4103 75.1068 47.3225 74.9751 47.1908C74.9313 47.103 74.9093 47.103 74.9093 47.1908C74.8654 47.2786 74.8435 47.2347 74.8435 47.0591C74.8874 46.9275 74.9532 46.7958 75.041 46.6641C75.0849 46.5763 75.2165 46.5325 75.436 46.5325C75.436 45.8741 75.5677 45.4352 75.831 45.2158C75.831 45.3035 75.831 45.3694 75.831 45.4133C75.7871 45.4571 75.7652 45.523 75.7652 45.6108C75.9846 45.523 76.1602 45.3255 76.2918 45.0182C76.4235 44.6671 76.5332 44.2941 76.621 43.899C76.8405 44.0307 76.9941 44.0088 77.0819 43.8332C77.1696 43.6577 77.3013 43.5918 77.4769 43.6357ZM83.007 41.9898C83.007 42.0337 82.9851 42.0776 82.9412 42.1215C82.9412 42.1215 82.9412 42.1434 82.9412 42.1873C82.5462 42.4507 82.1731 42.8018 81.822 43.2407C81.4709 43.6796 81.0978 44.0746 80.7028 44.4257C80.7028 44.6013 80.6589 44.6452 80.5711 44.5574C80.5272 44.6452 80.5053 44.6891 80.5053 44.6891C80.5492 44.6891 80.5711 44.711 80.5711 44.7549C80.3078 44.8427 80.1322 44.9963 80.0445 45.2158C79.9567 45.2158 79.8908 45.2596 79.8469 45.3474C79.6714 45.6547 79.43 45.896 79.1228 46.0716C78.8594 46.2911 78.6839 46.6202 78.5961 47.0591C78.6839 47.103 78.7277 47.1469 78.7277 47.1908C78.7277 47.2786 78.7497 47.3444 78.7936 47.3883C79.3203 47.2128 79.8031 47.0152 80.242 46.7958C80.7247 46.6202 81.2075 46.4227 81.6903 46.2033C81.6464 46.0277 81.6464 45.918 81.6903 45.8741C81.7342 45.8741 81.7562 45.8302 81.7562 45.7424C82.634 44.9963 83.424 44.1185 84.1262 43.109C84.8285 42.0996 85.4429 41.0023 85.9696 39.8173C85.9696 39.8173 85.9477 39.7953 85.9038 39.7514C85.421 40.1026 84.9601 40.4756 84.5212 40.8706C84.0823 41.2656 83.5776 41.6387 83.007 41.9898ZM81.7562 49.6925C81.9317 49.6487 82.1073 49.495 82.2828 49.2317C82.1951 49.3195 82.0853 49.3634 81.9537 49.3634C81.8659 49.3634 81.8001 49.4731 81.7562 49.6925ZM78.0036 43.109C78.0036 42.8896 78.0255 42.7798 78.0694 42.7798C78.0694 42.9993 78.0474 43.109 78.0036 43.109Z" fill="#016C55"/>
<path d="M120.479 38.1056C120.479 38.1933 120.435 38.2592 120.347 38.3031C120.303 38.3469 120.325 38.3689 120.413 38.3689C120.193 38.6761 119.842 39.0931 119.359 39.6198C118.92 40.1026 118.635 40.4756 118.504 40.739C118.416 40.739 118.24 40.7828 117.977 40.8706C118.065 40.739 118.196 40.6073 118.372 40.4756C118.591 40.3439 118.767 40.2342 118.899 40.1464C118.899 40.0587 118.942 39.927 119.03 39.7514C119.118 39.532 119.206 39.3345 119.294 39.1589C119.206 39.2028 119.096 39.3564 118.964 39.6198C118.833 39.8831 118.723 40.0587 118.635 40.1464C118.372 40.4098 118.108 40.6073 117.845 40.739C117.582 40.8267 117.34 41.0462 117.121 41.3973C116.682 41.5729 116.309 41.902 116.002 42.3848C115.738 42.8676 115.365 43.1529 114.883 43.2407C114.839 43.3724 114.795 43.4601 114.751 43.504C114.707 43.504 114.641 43.5479 114.553 43.6357C114.51 43.5479 114.488 43.4821 114.488 43.4382C114.531 43.3504 114.531 43.3065 114.488 43.3065L113.895 43.8332C113.676 43.921 113.478 44.0527 113.303 44.2282C113.171 44.3599 112.995 44.4257 112.776 44.4257C112.776 44.4257 112.798 44.4038 112.842 44.3599C112.666 44.4477 112.556 44.5355 112.513 44.6232C112.469 44.6671 112.425 44.711 112.381 44.7549C112.381 44.7988 112.359 44.8646 112.315 44.9524C112.271 44.9963 112.161 45.0402 111.986 45.0841C111.898 45.0841 111.854 45.0621 111.854 45.0182C111.679 45.0621 111.503 45.1499 111.327 45.2816C111.196 45.4571 111.02 45.5449 110.801 45.5449C110.801 45.4571 110.845 45.4133 110.932 45.4133C110.669 45.3694 110.494 45.4352 110.406 45.6108C110.406 45.6108 110.362 45.6108 110.274 45.6108L108.562 46.5325C108.211 46.6641 107.816 46.7958 107.377 46.9275C106.938 47.0591 106.543 47.1469 106.192 47.1908C105.534 47.498 104.832 47.5639 104.086 47.3883C103.339 47.2566 102.593 47.0152 101.847 46.6641C101.321 46.3569 100.86 46.1155 100.465 45.9399C100.07 45.7644 99.7624 45.5449 99.543 45.2816C99.3235 45.0621 99.1699 44.7988 99.0821 44.4916C98.9944 44.1404 98.9505 43.6577 98.9505 43.0432C98.9505 42.9554 98.9724 42.9115 99.0163 42.9115C99.0602 42.8676 99.0821 42.8018 99.0821 42.714C99.0382 41.9679 99.126 41.0901 99.3455 40.0806C99.5649 39.0711 99.7844 38.1275 100.004 37.2497C100.092 37.0302 100.135 36.8327 100.135 36.6572C100.135 36.4816 100.201 36.3061 100.333 36.1305C100.552 35.2088 100.838 34.2652 101.189 33.2996C101.54 32.2901 101.913 31.3245 102.308 30.4028C102.396 30.1834 102.44 30.0737 102.44 30.0737C102.44 30.0298 102.418 30.0078 102.374 30.0078L102.637 29.547C102.988 28.8447 103.405 27.9889 103.888 26.9794C104.415 25.9699 104.788 25.0702 105.007 24.2802C104.832 24.4118 104.766 24.4557 104.81 24.4118C104.854 24.3241 104.766 24.2802 104.546 24.2802C104.239 24.3679 103.932 24.4777 103.625 24.6093C103.361 24.6971 103.076 24.741 102.769 24.741C102.418 24.8288 102.111 24.9166 101.847 25.0044C101.584 25.0921 101.299 25.158 100.991 25.2019C100.465 25.2896 100.135 25.3335 100.004 25.3335C99.8722 25.3335 99.7844 25.3335 99.7405 25.3335C99.7405 25.3335 99.6746 25.3555 99.543 25.3994C99.4552 25.4433 99.148 25.531 98.6213 25.6627C98.3579 25.5749 98.0507 25.6188 97.6996 25.7944C97.3046 25.9699 96.9315 26.0358 96.5804 25.9919C96.4926 25.948 96.4487 25.926 96.4487 25.926C96.4048 25.8822 96.339 25.8602 96.2512 25.8602C95.9001 25.9919 95.6368 26.0138 95.4612 25.926C95.2417 25.7944 95.0662 25.6188 94.9345 25.3994C95.0223 25.136 94.9784 24.8946 94.8028 24.6752C94.6273 24.4557 94.5395 24.2363 94.5395 24.0168L94.8028 24.2143C95.7245 24.0388 96.5146 23.8413 97.1729 23.6218C97.8313 23.3585 98.5554 23.0951 99.3455 22.8318C100.135 22.5685 101.079 22.3051 102.176 22.0418C103.274 21.7784 104.722 21.537 106.522 21.3176C107.399 19.5181 108.299 17.8722 109.221 16.3799C110.142 14.8877 111.108 13.3515 112.117 11.7715V11.4423C112.205 11.3545 112.293 11.3545 112.381 11.4423C112.513 11.4862 112.622 11.4643 112.71 11.3765C112.666 11.5081 112.688 11.5959 112.776 11.6398C112.908 11.6398 112.973 11.6837 112.973 11.7715C113.193 11.8154 113.456 11.9032 113.763 12.0348C114.071 12.1665 114.356 12.3421 114.619 12.5615C114.883 12.781 115.08 13.0224 115.212 13.2857C115.343 13.5051 115.343 13.7465 115.212 14.0099L114.619 14.4707C114.575 14.5585 114.553 14.6463 114.553 14.7341C114.422 15.1291 114.202 15.5021 113.895 15.8533C113.632 16.1605 113.412 16.4897 113.237 16.8408C113.017 17.1919 112.842 17.4991 112.71 17.7625C112.622 18.0258 112.469 18.355 112.249 18.75C112.03 19.1889 111.788 19.5181 111.525 19.7375C111.262 19.9131 111.086 20.2423 110.998 20.7251C111.744 20.6373 112.447 20.5715 113.105 20.5276C113.763 20.4837 114.466 20.4617 115.212 20.4617C115.914 20.2862 116.528 20.1984 117.055 20.1984C117.582 20.1984 117.911 20.1984 118.043 20.1984C118.262 20.1984 118.394 20.1984 118.438 20.1984C118.525 20.1984 118.569 20.1984 118.569 20.1984C118.613 20.1984 118.657 20.1984 118.701 20.1984C118.745 20.1984 118.855 20.1764 119.03 20.1325C119.425 20.2203 119.798 20.1984 120.149 20.0667C120.544 19.935 120.961 19.935 121.4 20.0667C121.532 20.0667 121.664 20.0887 121.795 20.1325C121.971 20.1764 122.146 20.1764 122.322 20.1325C122.278 20.1764 122.3 20.1764 122.388 20.1325C122.476 20.0887 122.563 20.0667 122.651 20.0667L122.585 20.1325C122.849 20.2203 123.046 20.2203 123.178 20.1325C123.046 20.0448 122.958 20.0009 122.914 20.0009C122.914 19.957 123.09 20.0009 123.441 20.1325C123.792 20.1325 124.231 20.1764 124.758 20.2642C125.285 20.3081 125.723 20.5276 126.075 20.9226C126.118 20.9665 126.118 21.0542 126.075 21.1859C126.075 21.2737 126.097 21.3615 126.14 21.4493C126.097 21.4931 126.053 21.5151 126.009 21.5151C125.965 21.5151 125.943 21.559 125.943 21.6468C125.987 21.6907 126.009 21.7345 126.009 21.7784C126.053 21.7784 126.14 21.8004 126.272 21.8443C126.184 21.932 126.053 21.9759 125.877 21.9759C125.921 22.1515 126.053 22.3051 126.272 22.4368C126.184 22.5246 126.075 22.5685 125.943 22.5685C125.855 22.5685 125.789 22.6123 125.745 22.7001C125.658 22.7001 125.57 22.6782 125.482 22.6343C125.175 22.6782 124.89 22.6782 124.626 22.6343C124.407 22.5904 124.121 22.6562 123.77 22.8318C123.551 22.7001 123.419 22.6562 123.375 22.7001C123.331 22.744 123.244 22.744 123.112 22.7001C123.112 22.6123 123.134 22.5904 123.178 22.6343C123.222 22.6343 123.244 22.5904 123.244 22.5026C123.068 22.5026 122.958 22.5465 122.914 22.6343C122.871 22.6782 122.827 22.7221 122.783 22.766C122.783 22.8098 122.761 22.8318 122.717 22.8318C122.673 22.7879 122.585 22.7001 122.454 22.5685C122.278 22.6562 122.19 22.7001 122.19 22.7001L122.124 22.766H122.059C121.971 22.766 121.927 22.766 121.927 22.766C121.971 22.7221 121.971 22.6782 121.927 22.6343C121.795 22.7221 121.729 22.7879 121.729 22.8318C121.642 22.6562 121.466 22.6343 121.203 22.766C120.983 22.8537 120.939 22.7879 121.071 22.5685C120.983 22.5685 120.917 22.6562 120.874 22.8318C120.874 22.9635 120.764 22.9635 120.544 22.8318C120.632 22.6562 120.676 22.5904 120.676 22.6343C120.72 22.6343 120.742 22.5904 120.742 22.5026C120.698 22.5026 120.632 22.5246 120.544 22.5685C120.457 22.6123 120.391 22.7001 120.347 22.8318C120.347 22.8318 120.347 22.766 120.347 22.6343C120.171 22.6343 120.084 22.7221 120.084 22.8976C120.084 22.8976 120.084 22.8318 120.084 22.7001C119.952 22.6123 119.864 22.5904 119.82 22.6343C119.776 22.6782 119.689 22.7001 119.557 22.7001C119.469 22.6123 119.469 22.5904 119.557 22.6343C119.645 22.6343 119.732 22.5904 119.82 22.5026C119.732 22.5026 119.623 22.5026 119.491 22.5026C119.359 22.5026 119.272 22.5465 119.228 22.6343C118.964 22.4587 118.745 22.4587 118.569 22.6343C118.613 22.7221 118.679 22.7221 118.767 22.6343C118.899 22.5465 118.986 22.5465 119.03 22.6343C118.986 22.6782 118.899 22.7221 118.767 22.766C118.635 22.8098 118.504 22.8537 118.372 22.8976C118.284 22.8976 118.218 22.8976 118.174 22.8976C118.13 22.8537 118.152 22.7879 118.24 22.7001H117.977V22.6343C117.933 22.6343 117.911 22.6562 117.911 22.7001V22.6343C117.867 22.6343 117.823 22.6123 117.779 22.5685C117.779 22.5246 117.757 22.5465 117.713 22.6343C117.757 22.6343 117.779 22.6562 117.779 22.7001C117.779 22.7001 117.801 22.7001 117.845 22.7001C117.67 22.7879 117.582 22.8757 117.582 22.9635C117.582 23.0074 117.538 22.9635 117.45 22.8318C117.45 22.6562 117.318 22.5904 117.055 22.6343C116.792 22.6343 116.55 22.6782 116.331 22.766V22.6343C116.199 22.7221 116.024 22.8098 115.804 22.8976C115.629 22.9854 115.453 22.9415 115.278 22.766C115.365 22.7221 115.431 22.7001 115.475 22.7001C115.519 22.7001 115.563 22.6782 115.607 22.6343C115.607 22.5465 115.585 22.5026 115.541 22.5026C115.497 22.5026 115.475 22.4807 115.475 22.4368C115.387 22.4368 115.321 22.4587 115.278 22.5026C115.234 22.5465 115.168 22.5904 115.08 22.6343C115.036 22.6343 115.014 22.5904 115.014 22.5026C115.014 22.4587 115.036 22.4368 115.08 22.4368C114.861 22.4368 114.773 22.4148 114.817 22.3709C114.729 22.3709 114.685 22.4587 114.685 22.6343C114.685 22.8098 114.641 22.9415 114.553 23.0293C114.334 23.0293 114.136 23.0512 113.961 23.0951C113.829 23.0951 113.61 23.0951 113.303 23.0951C113.303 23.0074 113.324 22.9854 113.368 23.0293C113.456 23.0293 113.5 22.9854 113.5 22.8976C113.456 22.8976 113.434 22.8976 113.434 22.8976C113.434 22.8537 113.412 22.8318 113.368 22.8318H113.303C113.215 22.8318 113.127 22.8537 113.039 22.8976C112.951 22.8976 112.864 22.8976 112.776 22.8976C112.688 23.1171 112.556 23.2049 112.381 23.161C112.249 23.0732 112.139 23.0732 112.052 23.161V23.0951C111.92 23.0951 111.832 23.139 111.788 23.2268C111.92 23.2707 112.008 23.2487 112.052 23.161C112.096 23.2487 112.117 23.2707 112.117 23.2268C112.161 23.1829 112.183 23.2049 112.183 23.2926C112.183 23.3804 112.139 23.4243 112.052 23.4243C112.008 23.4243 111.942 23.4682 111.854 23.556C111.722 23.556 111.613 23.534 111.525 23.4901C111.437 23.4024 111.327 23.4024 111.196 23.4901C110.976 23.4901 110.713 23.5121 110.406 23.556C110.142 23.5999 109.901 23.6438 109.682 23.6877C109.506 23.7754 109.396 23.8852 109.352 24.0168C109.309 24.1046 109.243 24.2363 109.155 24.4118C108.848 25.2019 108.409 26.1455 107.838 27.2427C107.268 28.34 106.807 29.3714 106.456 30.337C106.324 30.732 106.214 31.0173 106.126 31.1929C106.083 31.3684 106.017 31.522 105.929 31.6537C105.885 31.7415 105.819 31.8732 105.731 32.0487C105.688 32.2243 105.6 32.5315 105.468 32.9704C104.985 33.7604 104.612 34.748 104.349 35.933C104.086 37.0741 103.844 38.2372 103.625 39.4223C103.537 39.8173 103.427 40.2123 103.296 40.6073C103.164 41.0023 103.076 41.4193 103.032 41.8582C102.988 42.5165 102.857 43.131 102.637 43.7015C102.462 44.2282 102.549 44.7988 102.901 45.4133C102.988 45.4571 103.01 45.4571 102.966 45.4133C102.923 45.4133 102.988 45.4133 103.164 45.4133C103.515 45.4133 103.954 45.3694 104.481 45.2816C105.007 45.1499 105.468 44.9963 105.863 44.8207C106.346 44.6891 106.829 44.5355 107.312 44.3599C107.838 44.1404 108.321 43.9649 108.76 43.8332C108.848 43.7454 108.892 43.7235 108.892 43.7674C108.935 43.7674 108.957 43.7235 108.957 43.6357C109.089 43.5918 109.221 43.5699 109.352 43.5699C109.484 43.526 109.572 43.4163 109.616 43.2407C109.879 43.1529 110.077 43.0871 110.208 43.0432C110.384 42.9554 110.516 42.8676 110.603 42.7798C110.735 42.6921 110.867 42.6262 110.998 42.5823C111.13 42.4946 111.327 42.4068 111.591 42.319V42.0557C111.766 42.1873 112.03 42.0557 112.381 41.6607C112.425 41.6607 112.469 41.6826 112.513 41.7265C112.908 41.4631 113.346 41.1779 113.829 40.8706C114.356 40.5634 114.839 40.2562 115.278 39.9489C115.497 39.905 115.848 39.6856 116.331 39.2906C116.814 38.8956 117.297 38.4567 117.779 37.9739C118.306 37.4911 118.767 37.0522 119.162 36.6572C119.557 36.2183 119.798 35.9549 119.886 35.8672C119.93 35.911 119.974 35.933 120.018 35.933C120.062 35.6696 120.084 35.516 120.084 35.4721C120.127 35.4283 120.149 35.4063 120.149 35.4063C120.193 35.4063 120.215 35.4063 120.215 35.4063C120.259 35.3624 120.347 35.2527 120.479 35.0771C120.479 34.9455 120.501 34.8796 120.544 34.8796C120.676 34.7918 120.764 34.726 120.808 34.6821C120.852 34.6382 120.917 34.5505 121.005 34.4188C121.269 34.4627 121.444 34.3091 121.532 33.9579C121.839 34.0457 122.037 34.1554 122.124 34.2871C122.256 34.3749 122.366 34.3749 122.454 34.2871C122.454 34.3749 122.498 34.4407 122.585 34.4846C122.673 34.4846 122.761 34.4846 122.849 34.4846C122.849 34.5724 122.827 34.6163 122.783 34.6163C122.783 34.6163 122.783 34.6382 122.783 34.6821C122.871 34.726 122.805 34.7918 122.585 34.8796C122.41 34.9674 122.432 35.0332 122.651 35.0771C122.651 35.1649 122.607 35.2966 122.519 35.4721C122.563 35.4721 122.629 35.538 122.717 35.6697C122.629 35.6697 122.256 36.1744 121.598 37.1839H121.664C121.62 37.2278 121.576 37.2497 121.532 37.2497C121.356 37.4253 121.269 37.4911 121.269 37.4472L120.874 37.7764V37.6447C120.786 37.7325 120.742 37.8203 120.742 37.908C120.742 37.9519 120.698 37.9958 120.61 38.0397C120.566 38.0836 120.544 38.1494 120.544 38.2372V38.1714C120.544 38.1275 120.522 38.1056 120.479 38.1056ZM121.729 36.723C121.686 36.723 121.729 36.6572 121.861 36.5255V36.4597L121.729 36.5255C121.642 36.6572 121.532 36.7888 121.4 36.9205C121.312 37.0083 121.225 37.0961 121.137 37.1839V36.9864C120.961 37.2497 120.896 37.4691 120.939 37.6447L121.071 37.513H121.005L121.071 37.2497C121.159 37.2497 121.225 37.2716 121.269 37.3155C121.269 37.1839 121.356 37.0741 121.532 36.9864L121.729 36.6572V36.723ZM116.002 42.1215C116.133 41.9898 116.243 41.8801 116.331 41.7923C116.463 41.7045 116.572 41.5729 116.66 41.3973C116.528 41.4851 116.353 41.5948 116.133 41.7265C115.958 41.8582 115.914 41.9898 116.002 42.1215ZM117.582 41.529C117.713 41.3095 117.845 41.1779 117.977 41.134C118.152 41.0462 118.328 40.9365 118.504 40.8048V40.8706C118.328 40.9584 118.152 41.0681 117.977 41.1998C117.845 41.3315 117.713 41.4412 117.582 41.529ZM122.19 21.7784C122.102 21.8662 121.993 21.8882 121.861 21.8443C121.773 21.7565 121.686 21.7565 121.598 21.8443C121.686 21.8882 121.817 21.932 121.993 21.9759C122.168 21.9759 122.234 21.9101 122.19 21.7784ZM118.964 40.1464C118.92 39.927 119.008 39.7295 119.228 39.5539C119.447 39.3784 119.557 39.2467 119.557 39.1589C119.645 39.2467 119.579 39.4223 119.359 39.6856C119.184 39.905 119.052 40.0587 118.964 40.1464ZM116.923 41.0023C117.099 41.0462 117.209 41.0242 117.253 40.9365C117.297 40.8487 117.362 40.7609 117.45 40.6731C117.45 40.4976 117.472 40.3878 117.516 40.3439C117.428 40.3439 117.384 40.4098 117.384 40.5415C117.384 40.5415 117.406 40.5853 117.45 40.6731C117.362 40.717 117.275 40.7828 117.187 40.8706C117.099 40.9145 117.011 40.9584 116.923 41.0023ZM111.196 23.161C111.284 23.2487 111.349 23.2707 111.393 23.2268C111.437 23.1829 111.481 23.161 111.525 23.161C111.525 23.1171 111.547 23.0951 111.591 23.0951C111.635 23.0512 111.613 22.9854 111.525 22.8976C111.525 22.9854 111.481 23.0512 111.393 23.0951C111.306 23.0951 111.24 23.1171 111.196 23.161ZM116.923 41.2656C116.967 41.3534 117.033 41.3754 117.121 41.3315C117.253 41.2437 117.275 41.1559 117.187 41.0681C117.143 41.1559 117.077 41.1998 116.989 41.1998C116.945 41.1559 116.923 41.1779 116.923 41.2656ZM116.858 40.2781C116.945 40.322 117.033 40.3001 117.121 40.2123C117.209 40.1245 117.231 40.0367 117.187 39.9489C117.099 40.0367 117.033 40.1026 116.989 40.1464C116.989 40.1903 116.945 40.2342 116.858 40.2781ZM117.911 22.766C117.867 22.766 117.845 22.744 117.845 22.7001H117.911C117.955 22.7001 117.977 22.7001 117.977 22.7001C118.065 22.8318 118.065 22.8976 117.977 22.8976C117.933 22.8537 117.911 22.8098 117.911 22.766ZM110.998 23.2268C110.998 23.1829 111.02 23.161 111.064 23.161C111.108 23.161 111.13 23.139 111.13 23.0951C110.954 23.0074 110.911 23.0512 110.998 23.2268ZM116.397 22.8976C116.221 22.9415 116.133 22.9635 116.133 22.9635C116.177 22.9196 116.243 22.8537 116.331 22.766C116.331 22.8537 116.353 22.8976 116.397 22.8976ZM121.203 37.3814C121.115 37.3375 121.071 37.3594 121.071 37.4472C121.115 37.4911 121.115 37.513 121.071 37.513L121.203 37.3814ZM113.303 22.8318C113.303 22.9196 113.259 22.9635 113.171 22.9635C113.259 22.8757 113.303 22.8318 113.303 22.8318ZM121.729 36.8547C121.817 36.7669 121.861 36.7011 121.861 36.6572L121.729 36.7888V36.8547ZM117.713 40.2781C117.757 40.322 117.779 40.2781 117.779 40.1464C117.779 40.1903 117.757 40.2342 117.713 40.2781ZM113.171 23.0293C113.083 22.9854 113.083 22.9635 113.171 22.9635V23.0293ZM118.569 40.739C118.525 40.7828 118.504 40.8048 118.504 40.8048V40.739H118.569Z" fill="#016C55"/>
<path d="M172.782 0.513672C172.958 0.601451 173.133 0.711176 173.309 0.842847C173.528 0.930626 173.77 0.974516 174.033 0.974516C174.165 1.19397 174.318 1.43536 174.494 1.6987C174.713 1.96204 174.933 2.20344 175.152 2.42289C175.854 2.51067 176.425 2.77401 176.864 3.21291C177.303 3.65181 177.566 4.22239 177.654 4.92463C177.654 5.75854 177.522 6.59245 177.259 7.42636C176.908 9.09419 176.381 10.6084 175.679 11.969C174.977 13.3296 174.274 14.7341 173.572 16.1824C173.484 16.358 173.396 16.5336 173.309 16.7091C173.265 16.8408 173.199 16.9944 173.111 17.17L172.782 17.6308C172.431 18.0258 172.102 18.4428 171.795 18.8817C171.487 19.2767 171.114 19.6498 170.675 20.0009L170.346 20.3959C169.995 20.5715 169.732 20.5715 169.556 20.3959C168.81 20.352 168.305 20.0667 168.042 19.54C167.822 19.0134 167.603 18.5525 167.384 18.1575C167.427 18.0697 167.471 17.96 167.515 17.8283C167.559 17.6528 167.537 17.5211 167.449 17.4333C167.493 17.17 167.581 16.9725 167.713 16.8408C167.888 16.7091 168.02 16.5775 168.108 16.4458C168.722 15.7435 169.249 14.9974 169.688 14.2074C170.127 13.3735 170.609 12.5835 171.136 11.8373C171.619 11.1351 172.058 10.367 172.453 9.53309C172.848 8.69918 173.199 7.79943 173.506 6.83385C173.55 6.65829 173.594 6.50467 173.638 6.373C173.682 6.19744 173.704 6.06577 173.704 5.97799C173.704 5.89021 173.682 5.82437 173.638 5.78048C173.638 5.73659 173.638 5.6927 173.638 5.64881C173.682 5.56103 173.726 5.4952 173.77 5.45131C173.857 5.36353 173.879 5.2538 173.835 5.12213C173.089 5.16602 172.387 5.31964 171.729 5.58298C171.07 5.84632 170.456 6.15355 169.885 6.50467C169.359 6.85579 168.81 7.20691 168.239 7.55803C167.713 7.90916 167.274 8.34806 166.923 8.87474C166.44 9.13808 166.001 9.46725 165.606 9.86226C165.211 10.2573 164.794 10.6303 164.355 10.9815C164.048 11.157 163.785 11.3545 163.565 11.574C163.39 11.7495 163.214 11.947 163.038 12.1665C162.029 13.0443 161.041 13.9879 160.076 14.9974C159.11 15.963 158.211 17.0164 157.377 18.1575C156.718 18.5525 156.192 19.0792 155.797 19.7375C155.445 20.3959 154.963 20.9445 154.348 21.3834C154.085 21.8662 153.756 22.349 153.361 22.8318C153.01 23.2707 152.636 23.7535 152.241 24.2802L151.649 25.4652C151.561 25.5969 151.473 25.7066 151.386 25.7944C151.298 25.8383 151.21 25.9041 151.122 25.9919C150.947 26.0797 150.837 26.1894 150.793 26.3211C150.749 26.4088 150.705 26.4966 150.661 26.5844C149.959 27.945 149.191 29.1959 148.357 30.337L148.028 31.0612C148.028 31.2367 148.006 31.3904 147.962 31.522L147.304 32.8387C147.128 33.1899 146.997 33.5629 146.909 33.9579C146.821 34.3091 146.733 34.6382 146.645 34.9455C146.163 36.2622 145.768 37.6447 145.46 39.0931C145.197 40.2342 145 41.4193 144.868 42.6482C144.736 43.8771 144.78 44.9963 145 46.0058C145.087 46.3569 145.153 46.708 145.197 47.0591C145.241 47.4103 145.329 47.6955 145.46 47.915C145.592 48.1344 145.746 48.31 145.921 48.4417C146.141 48.5733 146.36 48.705 146.58 48.8367C147.282 49.2317 148.028 49.5609 148.818 49.8242C149.652 50.1314 150.618 50.2412 151.715 50.1534C153.031 50.0656 154.326 49.912 155.599 49.6925C156.872 49.517 158.057 49.2536 159.154 48.9025C159.681 48.7709 160.076 48.6611 160.339 48.5733C160.603 48.5295 160.822 48.4636 160.998 48.3758C161.217 48.3319 161.436 48.2661 161.656 48.1783C161.919 48.0906 162.292 47.915 162.775 47.6516C163.258 47.3444 163.741 47.0811 164.223 46.8616C164.75 46.6422 165.299 46.3788 165.869 46.0716L167.91 45.0182C168.13 44.9305 168.283 44.8646 168.371 44.8207C168.459 44.733 168.612 44.6452 168.832 44.5574C168.92 44.4696 169.007 44.4038 169.095 44.3599C169.227 44.2721 169.359 44.1843 169.49 44.0966C169.578 44.0088 169.666 43.9649 169.754 43.9649C169.885 43.921 169.995 43.8113 170.083 43.6357C169.995 43.4601 170.061 43.3724 170.28 43.3724C170.5 43.3285 170.609 43.1968 170.609 42.9774L170.741 43.1749C170.961 43.0871 171.158 42.9774 171.334 42.8457C171.553 42.6701 171.751 42.5604 171.926 42.5165C172.014 42.5165 172.058 42.5385 172.058 42.5823C172.102 42.5823 172.146 42.5823 172.19 42.5823C172.365 42.5385 172.541 42.4507 172.716 42.319C172.936 42.1873 173.045 42.1873 173.045 42.319L174.099 41.7923C174.055 41.8801 174.099 41.8582 174.23 41.7265C174.406 41.5509 174.625 41.3534 174.889 41.134C175.152 40.8706 175.437 40.5853 175.745 40.2781C176.052 39.9709 176.337 39.6637 176.6 39.3564C176.469 39.2247 176.425 39.115 176.469 39.0272C176.732 38.9395 176.93 38.8078 177.061 38.6322C177.193 38.4567 177.347 38.2811 177.522 38.1056C177.786 37.6667 178.115 37.2936 178.51 36.9864C178.905 36.6791 179.212 36.2841 179.431 35.8013C179.431 35.7574 179.431 35.7135 179.431 35.6697C179.475 35.6258 179.497 35.5819 179.497 35.538C179.541 35.6696 179.585 35.6916 179.629 35.6038C179.717 35.6038 179.761 35.5819 179.761 35.538C179.761 35.4941 179.804 35.4502 179.892 35.4063C180.024 35.3624 180.156 35.2746 180.287 35.143C180.375 35.2308 180.397 35.3185 180.353 35.4063C180.309 35.4941 180.331 35.5599 180.419 35.6038C180.638 35.6916 180.748 35.6477 180.748 35.4721C180.836 35.6038 180.858 35.6916 180.814 35.7355C180.77 35.7355 180.77 35.8452 180.814 36.0647L180.748 36.5255C180.748 36.745 180.704 36.9644 180.616 37.1839C180.573 37.4033 180.551 37.6228 180.551 37.8422L180.485 38.3031L180.221 38.6981C180.046 38.9175 179.892 39.1589 179.761 39.4223C179.673 39.6417 179.541 39.8392 179.366 40.0148C179.278 40.1026 179.19 40.1903 179.102 40.2781C179.014 40.322 178.927 40.4098 178.839 40.5415C178.619 40.7609 178.378 41.0023 178.115 41.2656C177.895 41.529 177.676 41.7704 177.456 41.9898C176.535 42.736 175.569 43.4821 174.56 44.2282C173.55 44.9744 172.541 45.6766 171.531 46.3349C171.268 46.5983 171.07 46.7519 170.939 46.7958C170.763 46.8836 170.609 46.9275 170.478 46.9275C170.39 46.9275 170.302 46.9714 170.214 47.0591H170.346C170.258 47.3225 170.083 47.52 169.819 47.6516C169.732 47.6955 169.6 47.7175 169.424 47.7175C169.293 47.7614 169.183 47.8272 169.095 47.915C168.832 48.0906 168.569 48.2442 168.305 48.3758C168.086 48.5514 167.844 48.6831 167.581 48.7708C167.186 49.0781 166.747 49.3414 166.264 49.5609C165.782 49.8242 165.299 50.0656 164.816 50.2851L163.17 51.0751C162.907 51.2067 162.775 51.2506 162.775 51.2068C162.775 51.1629 162.797 51.119 162.841 51.0751C162.929 51.0312 162.973 50.9873 162.973 50.9434C162.973 50.8995 162.863 50.9434 162.643 51.0751C162.205 51.4262 161.678 51.7334 161.063 51.9968H160.471L159.878 52.2601C159.571 52.3479 159.374 52.4357 159.286 52.5235C159.066 52.6112 158.825 52.6551 158.562 52.6551C158.298 52.699 158.035 52.7429 157.772 52.7868L157.047 53.116C156.96 53.2038 156.85 53.2476 156.718 53.2476C156.63 53.2476 156.499 53.2696 156.323 53.3135C156.104 53.4013 155.884 53.4671 155.665 53.511C155.445 53.5988 155.16 53.6865 154.809 53.7743L151.517 53.906C149.63 54.0816 148.094 53.884 146.909 53.3135C145.724 52.7429 144.692 51.9748 143.815 51.0092C143.595 50.7898 143.354 50.5045 143.09 50.1534C142.827 49.8023 142.564 49.4292 142.3 49.0342C142.081 48.6831 141.883 48.31 141.708 47.915C141.532 47.52 141.466 47.0591 141.51 46.5325C141.466 46.4447 141.423 46.3788 141.379 46.3349C141.335 46.3349 141.291 46.2472 141.247 46.0716C141.203 45.3694 141.137 44.6013 141.049 43.7674C140.962 42.8896 140.94 42.0337 140.984 41.1998L141.049 40.1464C141.093 39.8392 141.159 39.51 141.247 39.1589C141.291 38.8078 141.357 38.5006 141.444 38.2372C141.444 38.1933 141.488 38.0397 141.576 37.7764L141.774 36.328C141.905 35.4502 142.125 34.5943 142.432 33.7604C142.783 32.9265 143.134 32.1146 143.485 31.3245C143.661 31.0612 143.771 30.7978 143.815 30.5345C143.902 30.2273 144.056 29.9639 144.275 29.7445C144.495 29.2617 144.714 28.7789 144.934 28.2961C145.153 27.7694 145.373 27.2208 145.592 26.6502C146.645 24.6752 147.787 22.8318 149.016 21.1201C150.244 19.4084 151.495 17.7405 152.768 16.1166C153.119 15.7655 153.47 15.3705 153.821 14.9316C154.173 14.4927 154.524 14.0977 154.875 13.7465C155.27 13.3076 155.621 12.9346 155.928 12.6273C156.279 12.3201 156.63 11.9909 156.982 11.6398C157.859 10.9376 158.671 10.2353 159.417 9.53309C160.164 8.78696 160.932 8.10666 161.722 7.4922C162.512 6.78996 163.324 6.10966 164.158 5.45131C165.035 4.79296 165.935 4.20044 166.857 3.67376C167.076 3.58598 167.274 3.45431 167.449 3.27875C167.669 3.0593 167.888 2.90568 168.108 2.8179C168.327 2.68623 168.547 2.57651 168.766 2.48872C169.029 2.40095 169.293 2.29122 169.556 2.15955C169.776 2.02788 169.995 1.87426 170.214 1.6987C170.434 1.52314 170.675 1.39147 170.939 1.30369C171.158 1.17202 171.399 1.04035 171.663 0.908682C171.97 0.733121 172.233 0.601451 172.453 0.513672H172.782ZM174.889 40.8048C174.669 40.8926 174.538 41.0242 174.494 41.1998C174.45 41.3754 174.362 41.3095 174.23 41.0023C174.318 40.9145 174.428 40.8487 174.56 40.8048C174.691 40.717 174.801 40.717 174.889 40.8048ZM175.415 40.1464C175.415 40.322 175.372 40.4098 175.284 40.4098C175.372 40.3659 175.503 40.2562 175.679 40.0806C175.415 40.3439 175.218 40.5195 175.086 40.6073C174.998 40.6951 175.064 40.6292 175.284 40.4098C175.24 40.4537 175.196 40.4756 175.152 40.4756C175.108 40.4317 175.064 40.4537 175.02 40.5415C174.933 40.3659 174.955 40.2342 175.086 40.1464C175.218 40.0587 175.328 40.0587 175.415 40.1464ZM176.008 39.7514C175.964 39.7075 175.942 39.6637 175.942 39.6198C175.986 39.5759 175.986 39.5539 175.942 39.5539C176.03 39.51 176.096 39.4661 176.14 39.4223C176.227 39.3345 176.315 39.2906 176.403 39.2906L176.008 39.7514ZM173.835 41.3315C173.748 41.2437 173.704 41.1998 173.704 41.1998C173.792 40.9804 173.879 40.9365 173.967 41.0681C174.099 41.1998 174.055 41.2876 173.835 41.3315ZM174.033 41.4631C174.077 41.4631 174.099 41.507 174.099 41.5948C173.923 41.5948 173.813 41.6387 173.77 41.7265C173.77 41.6387 173.791 41.5948 173.835 41.5948C173.923 41.5509 173.989 41.507 174.033 41.4631ZM176.074 39.8173C175.986 39.905 175.854 39.9928 175.679 40.0806C175.767 40.0367 175.81 39.9928 175.81 39.9489C175.854 39.905 175.92 39.8392 176.008 39.7514C176.008 39.7953 176.03 39.8173 176.074 39.8173ZM179.563 35.4721C179.563 35.516 179.541 35.538 179.497 35.538C179.497 35.4063 179.519 35.3844 179.563 35.4721Z" fill="#016C55"/>
<path d="M213.698 38.6322C213.478 38.5883 213.281 38.6981 213.105 38.9614C212.929 39.1809 212.754 39.4003 212.578 39.6198C212.578 39.5759 212.6 39.51 212.644 39.4223C212.293 39.6856 211.964 39.9709 211.657 40.2781C211.349 40.5415 211.02 40.8487 210.669 41.1998H210.537V41.134C210.45 41.2217 210.34 41.3315 210.208 41.4631C210.121 41.5948 210.011 41.6168 209.879 41.529C209.66 41.6607 209.484 41.8143 209.352 41.9898C209.265 42.1654 209.133 42.2751 208.957 42.319C208.738 42.5385 208.562 42.714 208.431 42.8457C208.299 42.9335 208.102 43.0871 207.838 43.3065C207.838 43.2626 207.794 43.2407 207.707 43.2407C207.575 43.4163 207.29 43.5479 206.851 43.6357C206.368 43.899 205.929 44.1843 205.534 44.4916C205.183 44.7549 204.81 44.8866 204.415 44.8866C204.02 44.9305 203.735 44.9744 203.559 45.0182C203.383 45.0621 203.186 45.0621 202.966 45.0182C202.615 45.0182 202.176 45.106 201.65 45.2816C201.123 45.501 200.684 45.5449 200.333 45.4133C200.245 45.1938 200.092 45.0402 199.872 44.9524C199.653 44.8207 199.433 44.711 199.214 44.6232C199.038 44.5355 198.907 44.3379 198.819 44.0307C198.336 43.7235 197.985 43.2846 197.765 42.714C197.546 42.0996 197.414 41.4193 197.37 40.6731C197.37 39.8831 197.436 39.0711 197.568 38.2372C197.7 37.4033 197.875 36.5913 198.095 35.8013C197.48 36.2841 196.888 36.8766 196.317 37.5789C195.747 38.2372 195.176 38.8736 194.605 39.4881C194.386 39.8831 194.145 40.2123 193.881 40.4756C193.618 40.739 193.355 40.9804 193.091 41.1998C192.345 42.0776 191.643 42.8457 190.984 43.504C190.984 43.5479 190.962 43.5918 190.919 43.6357C190.919 43.6357 190.897 43.6796 190.853 43.7674C190.502 44.0307 190.107 44.3379 189.668 44.6891C189.229 45.0402 188.768 45.3255 188.285 45.5449C187.846 45.8083 187.364 45.9619 186.837 46.0058C186.354 46.0497 185.849 45.8741 185.323 45.4791C185.015 45.4352 184.796 45.3474 184.664 45.2158C184.576 45.0402 184.423 44.8866 184.203 44.7549C183.721 44.5355 183.435 44.2721 183.348 43.9649C183.216 43.6577 183.128 43.1968 183.084 42.5823C183.04 42.2751 183.084 41.8801 183.216 41.3973C183.304 40.9145 183.435 40.4976 183.611 40.1464C183.83 39.3125 184.16 38.5445 184.598 37.8422C185.037 37.0961 185.454 36.4158 185.849 35.8013C186.595 34.7918 187.342 33.8702 188.088 33.0362C188.878 32.1584 189.69 31.3026 190.524 30.4687C190.787 30.337 191.05 30.1614 191.314 29.942C191.621 29.7225 191.95 29.547 192.301 29.4153C192.521 29.5031 192.762 29.4592 193.025 29.2836C193.289 29.0642 193.508 29.1081 193.684 29.4153C194.605 29.5031 195.417 29.7225 196.12 30.0737C196.822 30.4248 197.305 30.9954 197.568 31.7854C197.875 31.5659 198.16 31.3684 198.424 31.1929C198.687 31.0173 198.972 30.8856 199.28 30.7978C199.411 30.754 199.521 30.6662 199.609 30.5345C199.697 30.4028 199.784 30.337 199.872 30.337C200.311 30.2492 200.706 30.337 201.057 30.6003C201.452 30.8637 201.825 31.0831 202.176 31.2587C202.22 31.2148 202.264 31.2148 202.308 31.2587C202.396 31.2587 202.506 31.2367 202.637 31.1929C202.725 31.3245 202.791 31.4343 202.835 31.522C202.879 31.5659 202.923 31.6537 202.966 31.7854C203.054 32.5754 202.944 33.4313 202.637 34.3529C202.374 35.2746 202.067 36.0427 201.716 36.6572C201.54 37.6666 201.299 38.7639 200.991 39.9489C200.684 41.134 200.662 42.1654 200.926 43.0432C202.462 42.8676 203.735 42.4946 204.744 41.924C205.797 41.3095 206.851 40.717 207.904 40.1464C208.299 39.8392 208.65 39.5759 208.957 39.3564C209.309 39.137 209.638 38.8517 209.945 38.5006C209.989 38.5006 210.033 38.5225 210.077 38.5664V38.6322C210.296 38.6322 210.735 38.3689 211.393 37.8422C212.052 37.2716 212.71 36.7011 213.368 36.1305C214.071 35.516 214.707 34.9894 215.278 34.5505C215.892 34.1116 216.243 33.9579 216.331 34.0896C216.419 34.1774 216.528 34.1993 216.66 34.1554C216.792 34.0677 216.902 34.0457 216.989 34.0896C217.033 34.1774 217.033 34.2432 216.989 34.2871C216.989 34.331 217.011 34.3749 217.055 34.4188V34.2871C217.099 34.2871 217.099 34.3529 217.055 34.4846C217.011 34.5724 216.967 34.6821 216.923 34.8138C216.88 34.9016 216.836 34.9674 216.792 35.0113C216.748 35.0552 216.748 35.0113 216.792 34.8796C216.704 34.9674 216.594 35.0771 216.463 35.2088C216.375 35.2966 216.287 35.3844 216.199 35.4721C216.112 35.6916 216.046 35.8452 216.002 35.933C216.002 36.0208 215.958 36.1744 215.87 36.3938C215.738 36.3938 215.651 36.3719 215.607 36.328C215.519 36.5475 215.387 36.7011 215.212 36.7888C215.08 36.8766 214.97 37.0522 214.883 37.3155C214.795 37.3155 214.707 37.4253 214.619 37.6447L213.698 38.6322ZM195.725 32.9704C195.637 32.3998 195.461 31.917 195.198 31.522C194.978 31.127 194.561 31.0831 193.947 31.3904L192.894 32.5754C192.806 32.7071 192.696 32.8168 192.564 32.9046C192.433 32.9485 192.323 33.0143 192.235 33.1021C192.148 33.1899 192.06 33.3215 191.972 33.4971C191.884 33.6288 191.774 33.7824 191.643 33.9579L190.721 35.0113C190.238 35.6258 189.756 36.328 189.273 37.118C188.834 37.8642 188.439 38.5883 188.088 39.2906C188 39.51 187.89 39.7075 187.759 39.8831C187.627 40.0587 187.517 40.322 187.429 40.6731C187.342 40.6292 187.298 40.6512 187.298 40.739C187.298 40.7828 187.276 40.7828 187.232 40.739C187.144 41.2217 186.99 41.6387 186.771 41.9898C186.552 42.2971 186.442 42.714 186.442 43.2407C186.793 43.0212 187.166 42.8018 187.561 42.5823C187.956 42.3629 188.285 42.1215 188.549 41.8582C189.821 40.6292 191.028 39.3564 192.169 38.0397C193.354 36.6791 194.518 35.2966 195.659 33.8921C195.79 33.8043 195.9 33.6946 195.988 33.5629C196.076 33.3874 196.185 33.2776 196.317 33.2337V33.1021C196.229 33.0143 196.032 32.9704 195.725 32.9704Z" fill="#016C55"/>
<path d="M227.499 46.7958C227.455 46.7958 227.455 46.7958 227.499 46.7958C227.587 46.7958 227.587 46.7519 227.499 46.6641C227.412 46.5763 227.236 46.6422 226.973 46.8616C226.753 47.125 226.6 47.3005 226.512 47.3883C226.424 47.3883 226.38 47.3225 226.38 47.1908C226.292 47.3225 226.117 47.4322 225.853 47.52C225.59 47.6517 225.349 47.6517 225.129 47.52C224.91 47.7394 224.756 47.8492 224.668 47.8492C224.317 47.7614 224.076 47.7175 223.944 47.7175C223.813 47.7175 223.571 47.6736 223.22 47.5858C223.22 47.6736 223.198 47.7394 223.154 47.7833C223.154 47.8272 223.22 47.8272 223.352 47.7833C223.483 47.7394 223.527 47.7833 223.483 47.915C223.22 47.9589 222.935 47.9369 222.627 47.8492C222.364 47.7614 222.057 47.6736 221.706 47.5858C221.706 47.5419 221.706 47.52 221.706 47.52C221.75 47.52 221.772 47.498 221.772 47.4541V47.3883C220.235 47.2128 219.094 46.5105 218.348 45.2816C217.646 44.0966 217.383 42.6701 217.558 41.0023C217.778 39.4223 218.26 38.0836 219.007 36.9864C219.797 35.8452 220.499 34.7699 221.113 33.7604C220.63 33.7604 220.038 33.8702 219.336 34.0896C218.633 34.3091 217.909 34.4627 217.163 34.5505C216.9 34.5943 216.746 34.6602 216.702 34.748C216.658 34.7918 216.636 34.8357 216.636 34.8796C216.636 34.9235 216.615 34.9455 216.571 34.9455C216.527 34.9455 216.351 34.9016 216.044 34.8138C215.956 34.8577 215.846 34.8357 215.715 34.748C215.627 34.6163 215.539 34.5724 215.451 34.6163C215.232 34.7041 215.166 34.6821 215.254 34.5505C215.386 34.3749 215.386 34.1774 215.254 33.9579C214.903 33.7824 214.727 33.4971 214.727 33.1021C214.727 32.7071 214.793 32.5315 214.925 32.5754C214.793 31.8293 214.815 31.149 214.991 30.5345C215.21 29.8762 215.495 29.2836 215.846 28.757C216.241 28.2303 216.658 27.7694 217.097 27.3744C217.58 26.9355 218.019 26.5405 218.414 26.1894C218.809 26.1894 219.204 26.2772 219.599 26.4527C219.994 26.5844 220.433 26.76 220.916 26.9794C221.091 27.1111 221.245 27.2427 221.377 27.3744C221.508 27.4622 221.596 27.6158 221.64 27.8353L221.377 28.8886C221.289 28.9325 221.223 28.9984 221.179 29.0861C221.135 29.1739 221.025 29.2397 220.85 29.2836C220.85 29.547 220.696 29.8103 220.389 30.0737C220.126 30.337 219.862 30.5784 219.599 30.7978C219.38 30.8856 219.226 31.0173 219.138 31.1929C219.094 31.3684 218.985 31.544 218.809 31.7195C218.502 31.939 218.304 32.1584 218.217 32.3779C218.129 32.5535 217.975 32.7729 217.756 33.0362C218.414 33.0801 218.875 33.0801 219.138 33.0362C219.445 32.9924 219.687 32.9265 219.862 32.8387C220.038 32.751 220.235 32.6632 220.455 32.5754C220.674 32.4876 221.047 32.3998 221.574 32.3121C221.881 32.3998 222.254 32.3779 222.693 32.2462C222.957 32.5535 223.242 32.8387 223.549 33.1021C223.9 33.3215 224.229 33.5629 224.537 33.8263C224.581 34.2652 224.581 34.6163 224.537 34.8796C224.493 35.0991 224.405 35.2966 224.273 35.4721C224.186 35.6477 224.054 35.8233 223.878 35.9988C223.747 36.1744 223.593 36.4158 223.417 36.723C223.242 37.0302 223.088 37.3155 222.957 37.5789C222.825 37.8422 222.627 38.0836 222.364 38.3031C222.32 38.6542 222.189 39.0053 221.969 39.3564C221.75 39.7075 221.552 40.0587 221.377 40.4098C221.113 41.2876 220.916 42.1654 220.784 43.0432C220.696 43.8771 220.828 44.6013 221.179 45.2158C221.662 45.3474 222.079 45.4571 222.43 45.5449C222.825 45.6327 223.264 45.6327 223.747 45.5449C223.834 45.501 223.966 45.4352 224.142 45.3474C224.317 45.2596 224.449 45.2158 224.537 45.2158C224.537 45.2596 224.537 45.2596 224.537 45.2158C224.537 45.128 224.581 45.0841 224.668 45.0841C225.107 45.0841 225.568 44.9085 226.051 44.5574C226.534 44.2063 226.995 43.9429 227.433 43.7674C227.565 43.6796 227.697 43.6138 227.828 43.5699C227.96 43.4821 228.092 43.4163 228.223 43.3724C228.443 43.3285 228.553 43.2846 228.553 43.2407C228.597 43.1529 228.706 43.0871 228.882 43.0432C228.97 42.9115 229.057 42.8457 229.145 42.8457C229.233 42.8018 229.299 42.736 229.343 42.6482C229.474 42.5604 229.606 42.4507 229.738 42.319C230.001 42.0557 230.155 41.924 230.199 41.924C230.462 41.7045 230.791 41.4193 231.186 41.0681C231.625 40.6731 232.02 40.3659 232.371 40.1464C232.591 39.9709 233.073 39.5978 233.819 39.0272C234.609 38.4128 235.312 37.7544 235.926 37.0522C236.146 36.8327 236.299 36.6791 236.387 36.5913C236.475 36.5036 236.563 36.4377 236.65 36.3938C236.738 36.3499 236.826 36.3061 236.914 36.2622C237.045 36.1744 237.221 36.0647 237.44 35.933C237.528 35.7135 237.616 35.4941 237.704 35.2746C237.792 35.0552 237.945 34.8357 238.165 34.6163C238.34 34.6163 238.669 34.5724 239.152 34.4846C239.635 34.3529 239.898 34.4188 239.942 34.6821C239.942 34.8577 239.898 34.9455 239.81 34.9455C239.942 35.4721 239.767 35.9549 239.284 36.3938C238.845 36.8327 238.516 37.2278 238.296 37.5789C238.208 37.6667 238.143 37.7764 238.099 37.908C238.099 37.9958 238.033 38.0836 237.901 38.1714C237.813 38.3031 237.704 38.4347 237.572 38.5664C237.44 38.6981 237.265 38.8736 237.045 39.0931C236.738 39.3125 236.519 39.532 236.387 39.7514C236.299 39.927 236.102 40.0806 235.795 40.2123C235.487 40.5634 235.224 40.8706 235.004 41.134C234.785 41.3534 234.566 41.5729 234.346 41.7923C234.171 41.9679 233.973 42.1434 233.754 42.319C233.534 42.4946 233.271 42.6701 232.964 42.8457C232.876 42.9335 232.722 43.0871 232.503 43.3065C232.283 43.4821 232.042 43.6796 231.779 43.899C231.559 44.1185 231.34 44.316 231.12 44.4916C230.945 44.6671 230.813 44.7769 230.725 44.8207C229.891 45.3913 229.211 45.8083 228.684 46.0716C228.158 46.3788 227.916 46.5763 227.96 46.6641C227.872 46.6641 227.807 46.6641 227.763 46.6641C227.719 46.708 227.631 46.7519 227.499 46.7958ZM218.546 28.8886C218.414 29.1081 218.238 29.2836 218.019 29.4153C217.8 29.5031 217.602 29.6787 217.427 29.942C217.646 29.7664 217.865 29.6128 218.085 29.4811C218.304 29.3056 218.458 29.1081 218.546 28.8886Z" fill="#016C55"/>
<path d="M259.992 37.3155C260.079 37.4472 259.926 37.6667 259.531 37.9739C259.136 38.2811 258.741 38.6322 258.346 39.0272C258.258 39.0711 258.06 39.2248 257.753 39.4881C257.446 39.7514 257.27 39.927 257.226 40.0148L256.831 40.3439L255.712 41.1998L255.186 41.529L254.264 42.1215C253.518 42.6043 252.815 43.0651 252.157 43.504C251.499 43.9429 250.687 44.3379 249.721 44.6891C249.677 44.6891 249.59 44.711 249.458 44.7549C249.37 44.7988 249.26 44.8427 249.129 44.8866C248.953 44.9305 248.8 44.9744 248.668 45.0182C248.492 45.0182 248.339 45.0621 248.207 45.1499C248.075 45.1938 247.9 45.2158 247.68 45.2158C247.636 45.2158 247.658 45.1719 247.746 45.0841C247.527 45.128 247.351 45.1719 247.219 45.2158C247.088 45.2158 246.934 45.2816 246.759 45.4133C246.627 45.3255 246.495 45.3255 246.364 45.4133C246.276 45.5449 246.144 45.5669 245.969 45.4791C245.881 45.6108 245.749 45.6547 245.574 45.6108C245.398 45.5669 245.244 45.6108 245.113 45.7424C245.025 45.6985 245.003 45.6547 245.047 45.6108C245.091 45.6108 245.069 45.5888 244.981 45.5449C244.849 45.5888 244.674 45.5888 244.454 45.5449C244.279 45.5449 244.081 45.6108 243.862 45.7424C243.73 45.6546 243.621 45.6327 243.533 45.6766C243.489 45.7205 243.357 45.6985 243.138 45.6108L243.072 45.7424C242.414 45.6108 241.931 45.5669 241.624 45.6108C241.448 45.5669 241.316 45.523 241.228 45.4791C241.141 45.4352 241.053 45.4571 240.965 45.5449C240.482 45.4571 240.022 45.3694 239.583 45.2816C239.188 45.1499 238.749 44.9744 238.266 44.7549C237.739 44.5355 237.278 44.2282 236.883 43.8332C236.488 43.3943 236.115 42.9335 235.764 42.4507C235.589 42.1434 235.457 41.8362 235.369 41.529C235.281 41.2218 235.194 40.9365 235.106 40.6731C235.018 40.322 234.974 40.0148 234.974 39.7514C234.974 39.4442 235.018 39.115 235.106 38.7639C235.194 38.2811 235.347 37.6228 235.567 36.7888C235.742 35.9549 236.071 35.2307 236.554 34.6163L238.068 32.9046L239.056 31.5879C239.407 31.3245 239.692 31.1051 239.912 30.9295C240.131 30.754 240.395 30.4906 240.702 30.1395C240.921 29.92 241.185 29.7445 241.492 29.6128C241.799 29.4373 242.062 29.2398 242.282 29.0203C242.677 28.757 242.984 28.5156 243.204 28.2961C243.511 28.0767 243.84 27.8792 244.191 27.7036C244.542 27.4841 244.871 27.3305 245.179 27.2427C245.31 27.155 245.486 27.1111 245.705 27.1111C245.925 27.1111 246.1 27.0672 246.232 26.9794C246.32 26.9355 246.408 26.8916 246.495 26.8477C246.583 26.8038 246.693 26.7819 246.824 26.7819C247.044 27.133 247.329 27.4403 247.68 27.7036C248.075 27.923 248.383 28.2083 248.602 28.5595C248.909 28.6472 249.085 28.8008 249.129 29.0203C249.173 29.2398 249.304 29.4373 249.524 29.6128C249.612 29.9639 249.612 30.2712 249.524 30.5345C249.48 30.7978 249.37 31.0831 249.195 31.3904C249.107 31.4781 249.063 31.5659 249.063 31.6537C249.063 31.7415 249.041 31.8293 248.997 31.917C248.909 32.1365 248.756 32.334 248.536 32.5096C248.361 32.6412 248.185 32.8168 248.01 33.0362C247.922 33.124 247.834 33.2557 247.746 33.4313C247.702 33.6068 247.636 33.7824 247.549 33.9579C247.373 34.1335 247.154 34.3529 246.89 34.6163C246.627 34.8796 246.386 35.143 246.166 35.4063C245.947 35.7135 245.661 35.933 245.31 36.0647C245.003 36.1963 244.74 36.3938 244.52 36.6572C244.389 36.745 244.323 36.8766 244.323 37.0522C243.972 37.4033 243.555 37.7325 243.072 38.0397C242.633 38.3031 242.238 38.6103 241.887 38.9614C241.185 39.0931 240.526 39.3564 239.912 39.7514C239.341 40.1464 238.661 40.2562 237.871 40.0806C237.783 40.1245 237.761 40.1684 237.805 40.2123C237.893 40.2562 238.003 40.2781 238.134 40.2781C238.003 40.4976 237.981 40.6731 238.068 40.8048C238.2 40.8926 238.288 41.0023 238.332 41.134C238.683 41.4851 239.1 41.8143 239.583 42.1215C240.065 42.4287 240.592 42.6262 241.163 42.714C242.787 43.1968 244.323 43.2188 245.771 42.7798C246.254 42.6921 246.693 42.6043 247.088 42.5165C247.527 42.4287 248.031 42.2751 248.602 42.0557C249.304 41.7923 249.941 41.507 250.511 41.1998L251.367 40.8048C251.499 40.717 251.565 40.6951 251.565 40.739C251.609 40.739 251.609 40.7609 251.565 40.8048C251.565 40.8048 251.565 40.8267 251.565 40.8706C251.565 40.8706 251.63 40.8267 251.762 40.739L253.474 39.9489C253.957 39.5978 254.352 39.3345 254.659 39.1589C254.966 38.9395 255.427 38.5883 256.041 38.1056C256.085 38.0617 256.217 37.9739 256.436 37.8422C256.656 37.6666 256.875 37.4911 257.095 37.3155C257.358 37.14 257.6 36.9864 257.819 36.8547C258.038 36.6791 258.192 36.5694 258.28 36.5255L258.938 35.8672C259.465 35.516 259.904 35.2307 260.255 35.0113C260.65 34.748 260.935 34.5724 261.111 34.4846C261.242 34.6163 261.33 34.8138 261.374 35.0771C261.418 35.2966 261.506 35.4063 261.637 35.4063C261.374 35.8013 261.177 36.1086 261.045 36.328C260.957 36.5036 260.869 36.6352 260.782 36.723C260.738 36.8108 260.65 36.8986 260.518 36.9864C260.43 37.0302 260.255 37.14 259.992 37.3155ZM246.034 29.942C245.903 30.0298 245.749 30.1395 245.574 30.2712C245.398 30.4028 245.244 30.5126 245.113 30.6003C244.937 30.6003 244.827 30.6442 244.784 30.732C244.696 30.7759 244.608 30.8198 244.52 30.8637C244.476 30.9076 244.411 30.9515 244.323 30.9954L243.796 31.3904C243.577 31.6098 243.357 31.7854 243.138 31.917C242.918 32.0048 242.699 32.1365 242.479 32.3121C242.216 32.6632 241.953 32.9485 241.689 33.1679C241.47 33.3435 241.228 33.6068 240.965 33.9579C240.482 34.2652 240.087 34.6382 239.78 35.0771C239.297 35.5599 238.858 36.0427 238.463 36.5255C238.068 36.9644 237.761 37.4253 237.542 37.908C238.376 37.6447 239.166 37.2277 239.912 36.6572C240.658 36.0866 241.448 35.4941 242.282 34.8796C242.545 34.6602 242.809 34.4407 243.072 34.2213C243.335 34.0018 243.577 33.7385 243.796 33.4313C244.191 33.2118 244.63 32.8607 245.113 32.3779C245.639 31.8512 246.078 31.3465 246.429 30.8637C246.517 30.6442 246.605 30.4467 246.693 30.2712C246.824 30.0956 246.846 29.92 246.759 29.7445C246.671 29.7445 246.539 29.7664 246.364 29.8103C246.232 29.8103 246.122 29.8542 246.034 29.942Z" fill="#016C55"/>
<path d="M121.262 75.2951V73.3331H132.334V75.2951H127.834V93.516H125.776V75.2951H121.262Z" fill="#4D4D4D"/>
<path d="M134.186 78.588H136.149V80.7696C136.734 79.9098 137.351 79.2695 138.001 78.8487C138.65 78.4188 139.327 78.2038 140.031 78.2038C140.562 78.2038 141.129 78.3731 141.733 78.7115L140.731 80.3305C140.329 80.1567 139.99 80.0698 139.716 80.0698C139.076 80.0698 138.458 80.3351 137.864 80.8656C137.269 81.387 136.816 82.2011 136.505 83.3079C136.267 84.1586 136.149 85.8782 136.149 88.4668V93.516H134.186V78.588Z" fill="#4D4D4D"/>
<path d="M155.934 88.5629L157.553 89.4135C157.022 90.4563 156.409 91.2978 155.714 91.9381C155.019 92.5784 154.237 93.0678 153.368 93.4062C152.499 93.7355 151.516 93.9002 150.418 93.9002C147.985 93.9002 146.082 93.1044 144.71 91.5128C143.338 89.9121 142.652 88.1055 142.652 86.0932C142.652 84.1997 143.233 82.5121 144.395 81.0303C145.867 79.146 147.838 78.2038 150.308 78.2038C152.851 78.2038 154.882 79.1689 156.4 81.0989C157.479 82.4618 158.028 84.1631 158.047 86.2029H144.628C144.664 87.9409 145.218 89.3678 146.288 90.4837C147.358 91.5905 148.68 92.1439 150.253 92.1439C151.012 92.1439 151.749 92.0113 152.462 91.746C153.185 91.4808 153.798 91.1286 154.301 90.6896C154.804 90.2505 155.348 89.5416 155.934 88.5629ZM155.934 84.5427C155.677 83.5183 155.302 82.6996 154.808 82.0868C154.324 81.4739 153.679 80.98 152.874 80.6049C152.069 80.2299 151.223 80.0424 150.336 80.0424C148.872 80.0424 147.614 80.5135 146.562 81.4556C145.794 82.1416 145.213 83.1707 144.82 84.5427H155.934Z" fill="#4D4D4D"/>
<path d="M176.514 78.588V93.516H174.621V90.9502C173.816 91.929 172.91 92.6653 171.904 93.1593C170.907 93.6532 169.814 93.9002 168.625 93.9002C166.512 93.9002 164.706 93.1364 163.205 91.6088C161.714 90.0721 160.969 88.2061 160.969 86.0108C160.969 83.8613 161.724 82.0227 163.233 80.4952C164.742 78.9676 166.558 78.2038 168.68 78.2038C169.906 78.2038 171.012 78.4645 172 78.9859C172.997 79.5073 173.871 80.2894 174.621 81.3321V78.588H176.514ZM168.831 80.0561C167.761 80.0561 166.773 80.3214 165.867 80.8519C164.962 81.3733 164.239 82.1096 163.699 83.0609C163.169 84.0122 162.904 85.0184 162.904 86.0794C162.904 87.1314 163.173 88.1375 163.713 89.098C164.253 90.0584 164.975 90.8085 165.881 91.3481C166.796 91.8787 167.774 92.1439 168.817 92.1439C169.869 92.1439 170.866 91.8787 171.808 91.3481C172.75 90.8176 173.473 90.0996 173.976 89.194C174.488 88.2885 174.744 87.2686 174.744 86.1343C174.744 84.4055 174.173 82.9603 173.029 81.7986C171.895 80.637 170.496 80.0561 168.831 80.0561Z" fill="#4D4D4D"/>
<path d="M182.524 73.0449H184.459V78.588H187.505V80.2345H184.459V93.516H182.524V80.2345H179.903V78.588H182.524V73.0449Z" fill="#4D4D4D"/>
<path d="M190.358 78.588H192.266V81.1675C192.933 80.2162 193.619 79.521 194.324 79.082C195.293 78.4966 196.313 78.2038 197.383 78.2038C198.106 78.2038 198.792 78.3456 199.441 78.6292C200.091 78.9127 200.621 79.2923 201.033 79.768C201.445 80.2345 201.801 80.9068 202.103 81.7849C202.744 80.6141 203.544 79.7268 204.504 79.1231C205.465 78.5103 206.498 78.2038 207.605 78.2038C208.639 78.2038 209.549 78.4645 210.336 78.9859C211.131 79.5073 211.721 80.2345 212.105 81.1675C212.49 82.1005 212.682 83.5 212.682 85.366V93.516H210.72V85.366C210.72 83.7652 210.605 82.6676 210.377 82.073C210.148 81.4693 209.755 80.9845 209.197 80.6187C208.648 80.2528 207.989 80.0698 207.221 80.0698C206.288 80.0698 205.433 80.3443 204.655 80.8931C203.887 81.4419 203.324 82.1737 202.968 83.0884C202.611 84.0031 202.432 85.5306 202.432 87.671V93.516H200.525V85.8736C200.525 84.0717 200.411 82.8505 200.182 82.2103C199.963 81.5608 199.574 81.044 199.016 80.6598C198.458 80.2665 197.795 80.0698 197.027 80.0698C196.139 80.0698 195.307 80.3397 194.529 80.8794C193.761 81.4099 193.189 82.1279 192.814 83.0335C192.449 83.939 192.266 85.3248 192.266 87.1908V93.516H190.358V78.588Z" fill="#4D4D4D"/>
<path d="M229.311 88.5629L230.93 89.4135C230.4 90.4563 229.787 91.2978 229.092 91.9381C228.396 92.5784 227.614 93.0678 226.745 93.4062C225.876 93.7355 224.893 93.9002 223.795 93.9002C221.362 93.9002 219.46 93.1044 218.088 91.5128C216.716 89.9121 216.03 88.1055 216.03 86.0932C216.03 84.1997 216.61 82.5121 217.772 81.0303C219.245 79.146 221.216 78.2038 223.686 78.2038C226.229 78.2038 228.259 79.1689 229.778 81.0989C230.857 82.4618 231.406 84.1631 231.424 86.2029H218.005C218.042 87.9409 218.595 89.3678 219.666 90.4837C220.736 91.5905 222.057 92.1439 223.631 92.1439C224.39 92.1439 225.126 92.0113 225.84 91.746C226.562 91.4808 227.175 91.1286 227.678 90.6896C228.181 90.2505 228.726 89.5416 229.311 88.5629ZM229.311 84.5427C229.055 83.5183 228.68 82.6996 228.186 82.0868C227.701 81.4739 227.056 80.98 226.251 80.6049C225.446 80.2299 224.6 80.0424 223.713 80.0424C222.25 80.0424 220.992 80.5135 219.94 81.4556C219.172 82.1416 218.591 83.1707 218.197 84.5427H229.311Z" fill="#4D4D4D"/>
<path d="M235.019 78.588H236.94V81.2635C237.708 80.2391 238.559 79.4753 239.492 78.9722C240.425 78.46 241.44 78.2038 242.538 78.2038C243.654 78.2038 244.641 78.4874 245.501 79.0545C246.37 79.6216 247.011 80.3854 247.422 81.3459C247.834 82.3063 248.04 83.8018 248.04 85.8325V93.516H246.132V86.395C246.132 84.6754 246.059 83.5274 245.913 82.9512C245.684 81.9633 245.254 81.2224 244.623 80.7284C243.992 80.2253 243.169 79.9738 242.153 79.9738C240.992 79.9738 239.949 80.358 239.025 81.1263C238.111 81.8947 237.507 82.846 237.214 83.9802C237.031 84.7211 236.94 86.0749 236.94 88.0415V93.516H235.019V78.588Z" fill="#4D4D4D"/>
<path d="M253.843 73.0449H255.778V78.588H258.824V80.2345H255.778V93.516H253.843V80.2345H251.223V78.588H253.843V73.0449Z" fill="#4D4D4D"/>
<path d="M301.982 18.2875C297.14 23.5162 287.514 23.0246 284.073 29.2717C283.181 30.8975 282.868 32.7833 282.57 34.5988L280.93 44.6278C280.558 46.9069 280.186 49.2526 280.684 51.507C281.351 54.541 283.494 57.0237 285.808 59.1026C287.184 60.3457 288.68 61.5361 289.572 63.1655C290.201 64.3103 290.492 65.6236 290.777 66.8843C292.532 74.6905 294.25 82.8585 292.181 90.5875C291.507 93.1193 290.52 96.1041 292.181 98.1233C292.859 98.945 293.87 99.4156 294.861 99.8124C302.33 102.787 310.578 102.931 318.613 103.033C320.369 103.054 322.567 102.825 323.259 101.192C323.677 100.199 323.339 99.0644 323.002 98.032C320.492 90.4189 318.132 81.9981 321.18 74.5852C322.339 71.7759 324.207 69.3178 325.956 66.8386C329.53 61.7574 332.726 56.3284 334.57 50.3974C336.413 44.4663 336.849 37.9699 334.942 32.0564C332.649 24.9314 327.244 19.2812 321.763 14.1824C321.486 13.8875 321.149 13.6542 320.776 13.4976C320.137 13.2834 319.449 13.5363 318.824 13.7856C314.143 15.6397 308.991 17.3744 304.17 15.9207" fill="#F4D5CA"/>
<path d="M323.207 7.8584C323.445 8.14011 323.66 8.44076 323.849 8.75736C325.503 12.1636 328.383 14.4707 331.761 16.381C333.661 17.4556 335.452 18.6916 337.288 19.861C340.715 22.0487 342.475 25.174 343.56 28.8085C345.667 35.8317 345.249 42.7741 343.676 49.8113C341.198 60.6754 341.078 71.9445 343.325 82.8588C343.504 83.7262 343.707 84.59 343.837 85.4644C343.872 85.6962 343.679 85.9595 343.591 86.2088C343.336 86.0942 343.099 85.9415 342.889 85.7559C341.671 84.1827 341.344 82.318 341.042 80.4885C339.335 70.0907 339.427 59.721 341.744 49.3934C342.608 45.5307 343.332 41.6293 343.1 37.6472C342.854 33.8738 342.025 30.1613 340.642 26.6419C339.829 24.626 338.423 22.9044 336.61 21.7046C334.177 20.005 331.694 18.3545 329.204 16.7287C326.272 14.8148 324.155 12.3778 323.193 9.15769C323.077 8.77141 322.992 8.37811 322.891 7.98833L323.207 7.8584Z" fill="#016C55"/>
<path d="M300.003 60.1491C299.788 60.506 299.544 60.8453 299.276 61.1639C296.014 64.4262 292.151 65.7992 287.628 64.6545C281.795 63.162 277.817 59.6118 276.191 53.6843C275.947 52.9583 275.947 52.1726 276.191 51.4467C276.435 50.7208 276.91 50.0946 277.543 49.6635C277.928 49.3214 278.333 49.0014 278.754 48.7049C281.988 46.7524 283.779 43.6938 285.114 40.3227C286.167 37.6118 287.119 34.8481 288.137 32.1161C288.289 31.8405 288.481 31.5886 288.706 31.3682C288.853 31.6772 289.141 31.9967 289.12 32.2917C289.106 33.2185 288.964 34.1389 288.699 35.0272C287.551 38.1877 286.413 41.3481 285.043 44.4137C283.99 46.8016 282.108 48.5855 279.931 50.0849C277.413 51.8196 277.325 52.3885 278.494 55.2504C281.788 63.3271 291.515 65.9573 298.566 60.711C298.956 60.4195 299.381 60.1772 299.792 59.9138L300.003 60.1491Z" fill="#016C55"/>
<path d="M307.85 59.7877C308.131 59.9597 308.415 60.1388 308.693 60.3004C312.854 62.9481 317.377 63.5345 322.142 62.618C323.787 62.305 325.274 61.4373 326.356 60.1599C327.452 58.8887 328.463 57.5402 329.457 56.1848C331.718 53.1016 331.592 49.8112 330.293 46.391C329.45 44.1822 328.565 41.9664 328.014 39.6768C327.62 38.0369 327.715 36.2741 327.662 34.564C327.662 34.0232 327.884 33.4754 328.014 32.9346L328.284 32.9556C328.38 33.1594 328.446 33.3758 328.481 33.5983C328.519 37.6577 330.04 41.2886 331.592 44.9372C332.268 46.5829 332.752 48.3008 333.035 50.0571C333.572 53.2175 332.101 55.795 330.387 58.2671C328.21 61.4065 325.605 63.9945 321.591 64.4967C317.89 64.9602 314.217 64.7004 310.81 63.071C309.792 62.5864 308.963 61.6874 308.089 60.9289C307.873 60.6575 307.706 60.351 307.594 60.0229L307.85 59.7877Z" fill="#016C55"/>
<path d="M328.946 68.546C328.594 69.7856 328.296 71.0462 327.843 72.2612C327.242 73.8801 326.582 75.4848 325.82 77.051C323.654 81.5037 323.562 86.0266 325.118 90.5917C325.736 92.3966 326.614 94.1384 327.365 95.9117C327.478 96.1786 327.551 96.456 327.643 96.7299L327.372 96.8704C327.098 96.6664 326.837 96.4459 326.589 96.2102C324.616 94.1033 323.801 91.6065 323.116 89.0536C321.852 84.3165 322.765 79.8217 325.072 75.4392C326.182 73.3323 327.141 71.1516 328.176 69.006C328.288 68.8052 328.416 68.6138 328.559 68.4336L328.946 68.546Z" fill="#016C55"/>
<path d="M284.523 63.3701C284.875 63.7213 285.384 64.0514 285.545 64.4763C286.314 66.4954 287.168 68.5076 287.652 70.5899C289.531 78.498 289.408 86.3253 286.076 93.949C285.654 94.9111 285.152 95.8487 284.636 96.7582C284.416 97.0507 284.157 97.3118 283.867 97.5343L283.516 97.4114C283.586 96.983 283.617 96.544 283.726 96.1262C284.618 92.7866 285.668 89.4787 286.385 86.1076C287.305 81.7603 287.087 77.3568 286.314 73.0059C285.788 70.0246 284.969 67.0854 284.285 64.1251C284.252 63.9242 284.233 63.7212 284.228 63.5176L284.523 63.3701Z" fill="#016C55"/>
<path d="M279.916 41.4118C279.77 41.1377 279.652 40.8495 279.565 40.5515C279.024 37.7879 278.409 35.0383 278.016 32.2536C277.885 31.0629 277.981 29.858 278.3 28.7034C278.862 26.442 280.056 24.4895 281.563 22.6916C283.01 20.9574 285.068 19.8449 287.311 19.5838C289.797 19.2327 292.287 18.9588 294.58 17.828C296.308 16.9712 298.071 16.1881 299.24 14.5342L299.549 14.6711C299.345 15.2189 299.265 15.8686 298.913 16.2935C298.352 16.9379 297.703 17.5005 296.986 17.965C294.292 19.7524 291.269 20.6057 288.077 20.9007C285.317 21.1535 283.273 22.4879 281.721 24.7634C279.723 27.6886 278.852 30.7331 279.772 34.3009C280.27 36.2358 280.277 38.3006 280.474 40.3127C280.454 40.6836 280.378 41.0495 280.249 41.3978L279.916 41.4118Z" fill="#016C55"/>
<path d="M330.62 67.7484C331.866 70.5577 334.595 90.075 333.805 91.6517C333.541 91.1952 333.257 90.8932 333.194 90.5561C332.748 88.2912 332.277 86.0297 331.958 83.7507C331.357 79.4665 330.83 75.1719 330.332 70.8772C330.266 69.8249 330.26 68.7697 330.314 67.7168L330.62 67.7484Z" fill="#016C55"/>
<path d="M281.039 66.8986C280.74 66.7371 273.728 62.9059 271.27 56.9257L271.845 56.6904C274.219 62.4564 281.264 66.3087 281.327 66.3473L281.039 66.8986Z" fill="#016C55"/>
<path d="M274.322 57.9303L271.843 57.5334L269.834 59.0434L270.758 53.165L274.322 57.9303Z" fill="#016C55"/>
<path d="M321.757 70.3645L321.543 69.7781C321.62 69.75 329.139 66.9372 332.306 61.5645L332.843 61.8805C329.56 67.4639 322.077 70.2626 321.757 70.3645Z" fill="#016C55"/>
<path d="M333.965 64.1912L332.192 62.4143L329.678 62.453L333.881 58.2461L333.965 64.1912Z" fill="#016C55"/>
</svg>
