<svg width="458" height="458" viewBox="0 0 458 458" fill="none" xmlns="http://www.w3.org/2000/svg">
<path d="M453 260.559C452.74 261.149 452.35 260.749 452.62 259.079L453.48 257.969L453 260.559Z" fill="#1F686A"/>
<path d="M452.86 249.109C453.42 247.169 454.28 244.949 454.86 246.299C453.95 248.189 454.2 248.689 453.15 250.719C452.89 252.389 453.07 253.669 453.37 253.419C453.12 253.989 453.24 256.049 452.69 256.899C452.414 254.257 452.655 251.588 453.4 249.039C453.26 248.399 453.01 248.979 452.86 249.109Z" fill="#1F686A"/>
<path d="M409.65 94.459L410.36 95.249C410.11 94.9981 409.873 94.7344 409.65 94.459V94.459Z" fill="#1F686A"/>
<path d="M332.58 29.4297C333.26 29.7997 333.51 30.0197 333.51 30.0897C332.9 29.7197 332.4 29.3997 332.58 29.4297Z" fill="#1F686A"/>
<path d="M316.58 22.7793L317.58 23.1193C317.228 23.0709 316.889 22.9555 316.58 22.7793V22.7793Z" fill="#1F686A"/>
<path d="M409.65 94.4592L407.84 92.4592C407.91 92.1192 408.79 93.4292 409.65 94.4592Z" fill="#1F686A"/>
<path d="M456.51 226.52C456.457 227.019 456.367 227.514 456.24 228L456.39 226.6C456.435 226.58 456.475 226.553 456.51 226.52V226.52Z" fill="#1F686A"/>
<path d="M432.23 133.09L432.57 133.84C432.585 134.09 432.585 134.34 432.57 134.59L432.23 133.09Z" fill="#1F686A"/>
<path d="M444.3 165.2C444.06 164.46 444.58 164.02 444.76 163.66C444.647 164.24 444.668 164.839 444.82 165.41C444.71 165.45 444.55 165.4 444.3 165.2Z" fill="#1F686A"/>
<path d="M454.25 218.66L454.15 219.66C454.18 219.38 454.22 218.96 454.25 218.66Z" fill="#1F686A"/>
<path d="M420.381 111.569C420.248 111.56 420.121 111.507 420.021 111.42C420.091 111.38 420.221 111.449 420.381 111.569Z" fill="#1F686A"/>
<path d="M256.65 456.069C256.65 456.069 256.65 455.999 256.65 455.959C256.85 455.999 256.91 456.029 256.65 456.069Z" fill="#1F686A"/>
<path d="M295.45 444.78L294.9 444.9C294.807 444.818 294.735 444.715 294.69 444.6L295.45 444.78Z" fill="#1F686A"/>
<path d="M286.47 13.3184H286.61C287.39 13.6184 286.94 13.4884 286.47 13.3184Z" fill="#1F686A"/>
<path d="M36.79 115.439C37.95 112.299 33.5 119.729 35.44 115.109C35.4 115.629 38.5 111.699 36.79 115.439Z" fill="#1F686A"/>
<path d="M456.48 225.61C456.48 225.14 456.54 224.67 456.55 224.18C456.556 224.657 456.532 225.135 456.48 225.61V225.61Z" fill="#1F686A"/>
<path d="M35.4199 115.109L35.6299 114.629C35.5299 114.829 35.4899 114.939 35.4199 115.109Z" fill="#1F686A"/>
<path d="M214.46 6.00946C214.686 5.86687 214.932 5.75899 215.19 5.68945C215.17 5.77945 215 5.83946 214.46 6.00946Z" fill="#1F686A"/>
<path d="M268.611 8.06946L267.271 7.93945C267.791 7.96945 268.241 8.01946 268.611 8.06946Z" fill="#1F686A"/>
<path d="M186.4 8.7793C185.769 8.98001 185.119 9.11407 184.46 9.17929C184.552 9.12626 184.649 9.0827 184.75 9.04929C185.312 9.05651 185.87 8.96513 186.4 8.7793V8.7793Z" fill="#1F686A"/>
<path d="M157.99 16.2202L158.47 15.9301L159.36 15.6602L157.99 16.2202Z" fill="#1F686A"/>
<path d="M166.37 448.57C166.868 448.585 167.367 448.531 167.85 448.41C167.29 448.71 171.48 450.06 166.37 448.57Z" fill="#1F686A"/>
<path d="M456.16 226.479C456.365 226.235 456.478 225.928 456.48 225.609L456.39 226.609C456.29 226.679 456.21 226.699 456.16 226.479Z" fill="#1F686A"/>
<path d="M184.26 4.10938C182.7 4.37938 181.17 4.84939 179.62 5.21939C181.147 4.77214 182.696 4.40166 184.26 4.10938V4.10938Z" fill="#1F686A"/>
<path d="M14.6201 307.389L14.9501 308.389C14.7952 308.072 14.6842 307.735 14.6201 307.389V307.389Z" fill="#1F686A"/>
<path d="M165.87 8.61914C165.08 9.06407 164.258 9.4485 163.41 9.76913C163.217 9.78928 163.023 9.78928 162.83 9.76913L165.87 8.61914Z" fill="#1F686A"/>
<path d="M196.56 455.23C200.94 456.13 198.02 455.23 202.11 455.23C204.34 456.23 206.53 455.56 206.92 456.64C208.43 456.03 208.02 456.27 210.85 455.96C209.56 456.46 216.09 456.96 215.85 457.64C217.04 456.92 211.19 456.3 214.85 455.74C217.3 456.55 221.95 456.74 222.31 457.66C224.233 457.398 226.17 457.247 228.11 457.21C227.65 457.208 227.193 457.127 226.76 456.97C232.07 457.73 239.89 456.81 242.94 457.68C241.8 456.55 254.2 456.68 250.06 455.81C252.234 455.695 254.413 455.739 256.58 455.94C256.22 455.02 262.01 455.02 264.3 454.05C265.62 454.42 269.51 453.57 271.94 453.44C270.86 453.52 270.27 453.44 270.59 453.12C273.33 453.03 272.59 452.75 274.77 451.85C278.42 451.41 274.26 452.74 276.53 452.73C279.59 451.83 276.87 452.02 277.34 451.5C278.96 451.5 280.57 451.5 282.19 451.42C282.872 451.231 283.501 450.889 284.03 450.42C285.858 450.45 287.667 450.06 289.32 449.28L285.32 450.28L286.7 449.4C288.32 449.22 289.92 448.97 291.53 448.75C297.99 446.11 295.53 445.75 294.79 444.86L292.07 445.48C292.07 445.11 293.83 444.38 295 444.01C296 443.46 290.4 444.24 287.45 444.87C279.58 446.97 286.13 446.5 280.74 448.06C278.34 448.42 275.94 448.753 273.54 449.06V449.42C272.875 449.707 272.134 449.77 271.43 449.6C272.01 450.04 265.66 450.83 262.76 451.33L263.76 450.72C255.55 450.88 251.08 453.52 244.55 453.42C243.01 453.27 241.48 453.11 239.95 452.91L239.03 453.63C236.35 453.33 235.86 452.84 231.51 453.14C216.09 454.42 199.65 451.54 184.29 449.14C184.836 449.045 185.394 449.045 185.94 449.14C182.847 448.915 179.783 448.392 176.79 447.58C175.41 447.22 174.09 446.86 172.79 446.45L169.09 445.05C166.67 444.1 164.28 443.23 161.78 442.31C159.128 441.283 156.404 440.451 153.63 439.82L154.35 440.33C148.48 438.15 155.05 440.91 150.65 439.67C150.15 438.54 143.43 436.24 140.27 434.47C141.065 434.993 141.901 435.452 142.77 435.84C141.816 435.972 140.847 435.755 140.04 435.23C137.75 433.498 135.287 432.007 132.69 430.78C129.69 429.11 126.4 427.33 123.69 425.78C122.69 425.96 117.79 423.58 114.85 422.92C114.38 422.42 113.56 421.49 112.85 420.6C111.116 419.809 109.543 418.704 108.21 417.34L112.54 420.17C112.515 420.127 112.485 420.086 112.45 420.05C112.68 420.237 112.92 420.411 113.17 420.57C114.35 421.29 114.96 421.67 114.65 421.57C117.13 422.39 114.72 421.12 115.19 420.67C113.33 419.73 109.92 417.12 109.24 417.3C108.19 416.63 107.46 416.25 106.32 415.63C105.662 415.078 104.956 414.586 104.21 414.16L104.53 414.45C104.338 414.431 104.149 414.384 103.97 414.31C100.353 411.822 97.0168 408.949 94.0202 405.74C96.1402 408.41 92.8202 405.92 92.4702 406.37C92.1902 406.1 95.4702 408.69 99.7002 411.6C99.3602 411.44 99.0702 411.35 98.8702 411.47C94.8202 409.47 93.0502 406.47 87.6802 402.82C87.9702 403.13 88.5402 403.75 88.1702 403.72C86.7283 402.829 85.5509 401.569 84.7602 400.07C83.9702 400.13 79.9602 397.19 78.2702 395.4C77.3106 393.718 76.0496 392.226 74.5502 391L75.5502 392.47C72.0102 389.53 73.2202 389.47 70.3002 387.06C71.4602 388.06 71.3002 388.4 70.4102 387.67C68.4573 385.614 66.8013 383.295 65.4902 380.78V381.65C62.8902 378.52 58.6202 372.12 57.8802 372.65C59.5902 372.87 52.8802 365.36 50.6802 362.58C51.4002 363.58 51.3202 363.9 51.2802 364.08C49.3456 360.88 47.2461 357.782 44.9902 354.8C42.7702 351.8 40.6502 348.66 38.6102 345.52L37.1702 344.99C35.2202 341.52 36.2602 339.61 34.0902 335.93L34.4702 337.49C32.5802 334.19 31.5402 331.73 30.3402 329.55C29.1402 327.37 28.0502 325.34 26.7602 322.55L26.2402 322.92C25.5902 320.79 24.4602 318.28 23.8102 316.14C22.1802 314.14 20.4502 309.4 18.7402 304.14C17.9402 301.49 17.0902 298.73 16.1602 296.14C15.3976 293.664 14.4688 291.241 13.3802 288.89L14.3802 288.02C13.3102 284.66 12.6402 280.21 11.3802 278.8L11.5802 279.55C10.7802 280.1 10.7602 276.12 10.0802 274.02C9.87023 272.36 10.1602 270.62 10.5802 272.02C8.08023 263.02 7.19021 249.09 5.85021 243.35C5.62021 238.66 6.0602 234.52 6.1502 230.35C6.3902 226.15 6.77022 221.87 6.86022 216.83L6.71023 216.94C6.81023 213.54 7.01022 206.7 6.04022 206.61C7.13022 199.35 8.97022 194.94 10.1702 186.34L9.47021 188.13C9.75443 185.93 10.3086 183.774 11.1202 181.71C11.2802 180.95 10.9602 181.46 10.8002 181.54C10.9502 179.43 11.7402 178.35 12.2002 176.75L11.7302 177.34C12.5202 170.34 17.0302 160.27 19.8402 151.86C19.2002 153.37 19.1302 152.42 19.2102 151.74C20.8127 149.305 22.1535 146.707 23.2102 143.99C24.5302 140.83 26.0802 137.76 26.9202 136.1L25.5802 138.02C29.1902 131.71 27.1202 131.79 31.0702 125.69L29.7402 129.69C30.9102 126.99 32.2302 124.87 32.3402 125.69C33.6202 122.52 31.6902 124.87 34.1602 120.35C34.0002 120.01 32.1602 123.47 32.6202 121.81L35.4902 115.2C35.9506 114.139 36.5275 113.133 37.2102 112.2C38.0402 113.43 40.4802 107.2 39.6602 110.96C41.0502 108.85 42.3302 106.78 43.5502 104.76C44.7702 102.74 46.1102 100.88 47.3402 99C49.71 95.3148 52.3862 91.8358 55.3402 88.6C56.4602 84.9 66.5602 75.5 64.8102 75.07C66.5102 73.28 68.1102 71.71 69.6102 70.38C70.9664 69.227 72.4145 68.1869 73.9402 67.27C73.1964 68.0538 72.3756 68.7607 71.4902 69.38C72.7302 68.8 77.0502 64.76 78.8402 63.06C76.2402 65 72.2202 68.38 69.9202 69.68C73.3202 66.68 78.1802 62.75 80.2702 61.36L80.5502 59.95C83.8302 57.95 82.4902 57.33 85.9202 55.51L85.5402 56.18C90.9102 51.8 91.5402 52.39 96.7002 48.62L96.2602 48.51C97.9902 47.11 101.13 45.88 102.43 43.99L98.9902 46.39C98.9902 45.65 101.45 43.56 102.46 42.46C106.27 40.11 104.33 42.46 106.24 41.27C106.73 40.27 106.24 40.88 104.65 41.27C106.81 40.01 109.34 38.52 111.75 37.19C113.836 36.0535 116.009 35.087 118.25 34.3C118.4 34.11 118.12 34.13 118.12 34.13C122.51 31.36 127.12 30.34 129.68 28.43L128.75 28.81C132.02 26.05 138.75 25.01 138.94 23.29C140.62 22.24 134.89 25.18 137.48 23.24C142.93 20.24 141.67 22.67 146.54 20.29C145.87 20.6 146.06 20.43 145.78 20.4L151.94 18.1L158.52 16.1C159.942 15.2832 161.443 14.6131 163 14.1C164.79 13.55 166.78 13.01 168.79 12.47C172.79 11.29 176.97 10.47 179.79 9.07001C178 9.98001 181.41 9.27001 181.46 9.48001C181.46 9.48001 181.19 9.40999 181.46 9.26999C182.557 8.93527 183.724 8.89733 184.84 9.16C186.55 8.43 190.97 8.51999 192.06 8.04999C192.14 8.34999 193.87 7.92 195.82 7.63C191.82 7.93 194.46 7.18999 192.62 7.01999C198.47 5.87999 199.56 7.42001 205.62 6.35001C206.72 5.99001 207.84 5.77001 208.96 5.48001C209.73 6.30001 215.38 5.48001 215.28 5.85001C216.28 5.49001 217.84 5.21999 217.59 4.79999C220.07 4.91999 223.75 4.39998 224.79 4.88998L222.34 5.17999C229.97 4.54999 234.51 6.07 240.34 5.62L240.28 4.29999C244.23 4.04999 247.46 5.50999 250.91 4.98999C249.68 5.33999 249.45 5.12001 251.91 5.85001C250.43 5.71001 247.72 5.27001 245.25 5.07001L250.43 6.20999L242.29 5.26001C245.76 6.03001 245.51 5.88 244.05 6.31C248.96 7.1 249.45 5.97001 254.05 7.07001C255.78 7.07001 254.05 6.41 256.05 6.37C260.19 7.26 264.17 6.51001 267.05 7.70001C268.05 7.70001 265.34 7.38 265.62 7.12C268.3 7.69 270.25 7.95 270.96 8.47L268.62 8.23001C270.62 8.52001 270.9 9.08 274.78 9.62C276.93 10.39 278.03 11.29 275.64 10.78C276.59 11.07 278.8 11.18 278.13 10.64C284.13 11.89 280.64 12.64 286.48 13.48C286.1 13.34 285.71 13.16 285.94 13.14C287.151 13.3644 288.344 13.6752 289.51 14.07C284.51 12.64 291.36 13.46 285.35 12.13C286.18 11.64 289.93 13.13 291.88 13.45C294.61 14.8 291.88 14.51 293.25 15.29C293.25 15.07 294.47 15.44 295.9 15.79L294.38 15.87C295.57 16.24 296.73 16.59 298.12 17.16L295.81 16.16C297.11 16.52 298.81 16.8 300.72 17.24C302.833 17.7909 304.889 18.5409 306.86 19.48C305.75 18.85 303.54 17.59 306.62 18.42C311.41 20.52 307.84 18.63 310.76 19.26C315.52 21.36 311.24 20.48 318.43 23.11C319.2 23.43 318.37 23.42 317.55 23.23C322.44 25.04 324.82 26.67 329.55 28.5C327.55 27.62 325.88 27.11 328.47 28.58C327.54 27.58 332.33 30.14 334.19 30.82L334.52 31.29C336.04 31.76 334.61 30.88 333.52 30.2C333.52 30.3 333.07 30.2 332.24 29.7C330.13 28.36 331.38 27.88 334.95 29.64C338.6 31.84 337.65 32.13 336.88 32.02C341.96 34.55 340.88 35.72 345.74 38.02C346.74 38.65 350.74 40.02 354.18 42.07C355.55 43.67 349.81 39.78 351.44 41.45C354.62 42.53 357.22 44.71 359.98 47.05C362.74 49.39 365.53 52.05 369.2 54.34L368.81 53.1C370.495 54.2955 372.099 55.6017 373.61 57.01L371.12 55.42C372.53 56.84 376.19 59.76 375.39 58.35C378.45 61.7 379.34 62.1 382.54 64.83C379.25 61.83 382.42 64.83 380.3 62.36C382.488 64.0442 384.499 65.9474 386.3 68.04C386.1 67.47 387.58 68.4 388.46 69.3C390.25 71.79 393.99 75.39 396.57 78.77L396.73 78.62C397.85 79.99 399.1 81.3 400.32 82.67C401.54 84.04 402.77 85.43 403.99 86.82C406.486 89.5223 408.719 92.4554 410.66 95.58V95.58C410.73 95.69 410.8 95.79 410.85 95.88L410.48 95.46C409.48 94.69 410.2 95.87 411.32 97.46C412.44 99.05 413.8 101.22 414.32 102.19C414.936 102.478 415.456 102.936 415.82 103.51C415.31 103.94 417.1 105.97 417.39 106.99C418.87 108.99 417.89 106.3 420.08 109.9C420.89 111.31 420.7 111.65 420.39 111.62C421.777 112.995 422.974 114.549 423.95 116.24C423.615 115.484 423.199 114.767 422.71 114.1C422.86 113.68 423.54 115.02 423.88 114.78C424.88 116.48 423.74 115.78 425.15 117.83L424.47 115.56C424.972 116.336 425.387 117.164 425.71 118.03C425.09 116.65 425.65 116.57 426.02 116.61C428.51 121.83 425.35 118.27 425.02 118.82C428.1 123.31 429.33 127.49 431.19 131.25L431.38 130.25C431.991 131.377 432.401 132.602 432.59 133.87L433.87 136.75C433.33 135 433.26 134.37 433.65 134.04C434.86 137.19 436.93 141.35 436.48 142.47L436.55 142.3C437.55 144.3 438.89 147.51 440.04 150.13C441.19 152.75 441.94 154.91 442.04 154.71C442.68 157.05 443.67 159.6 444.27 161.71C444.87 163.82 445.21 165.3 444.84 165.48C445.306 167.108 445.884 168.702 446.57 170.25C447.196 171.621 447.464 173.128 447.35 174.63C448.67 177.82 447.61 174.76 447.94 173.63C449.25 176.83 448.79 180.49 450.12 181.37C450.53 185.37 449.71 180.51 449.46 181.93C450.64 182.55 451.13 189.15 452.27 192.75C452.08 194.48 451.76 191.11 451.72 194.04C451.94 193.71 452.21 195.23 452.35 195.99L451.79 196.82L453.99 200.36C453.93 206.07 452.69 199.36 453.34 206.88V206.42C454.34 208.42 453.5 211.74 454.04 217.1C453.89 215.26 454.36 216.34 454.55 215.75C454.45 216.75 454.39 217.75 454.27 218.75C454.27 218.48 454.36 218.35 454.44 218.64C454.9 221.31 454.13 220.93 454.44 224.04C454.66 221.92 455.15 222.57 455.35 223.53L454.35 227.93L455.35 226.18C455.22 230.53 453.21 236.81 454.29 239.11L454.61 236.98C454.8 237.16 455.4 238.51 454.61 241.36C454.42 242.26 453.82 242.81 453.97 241.58V243.77C454.67 242.77 455.33 237.41 455.76 234.03C455.42 235.08 455.01 237.68 454.7 236.85C455.16 233.85 455.76 231 456.14 228.09C455.918 228.938 455.581 229.752 455.14 230.51C455.04 227.23 455.7 228.09 455.9 225.61C455.72 224.61 455.57 224 455.36 224.61C455.777 221.678 455.827 218.705 455.51 215.76C455.51 215.76 455.09 219.46 454.73 217.43C455.03 211.43 455.64 210.11 455.22 203.63C455.28 196.04 452.59 189.24 452.22 183.99C452.43 183.65 453.44 187.76 452.96 184.37C452.54 185.06 452.23 182.43 451.96 182.31C452.06 178.5 450.56 177.03 450.51 174.31C450.51 174.95 449.76 172.91 449.25 171.58C448.7 172.14 448.03 167.69 448.37 173.15C448.172 170.655 447.657 168.196 446.84 165.83C446.142 163.773 445.804 161.612 445.84 159.44C446.06 159.86 446.27 160.29 446.45 160.73C445.81 158.98 445.07 157.27 444.38 155.55L444.47 155.77C443.863 153.84 443.006 151.998 441.92 150.29C442.24 151.66 442.87 153.56 443.17 154.93C442.457 153.562 441.961 152.091 441.7 150.57C441.365 148.984 440.931 147.421 440.4 145.89C440 146.21 441.49 149.14 440.59 148.45C439.812 146.424 439.144 144.358 438.59 142.26L438.45 142.65C435.66 137.57 438.79 140.05 436.25 136.54C436.45 136.54 436.39 136.03 436.64 136.21C435.73 134.88 433.8 131.73 434.97 135.21C434.246 133.579 433.66 131.89 433.22 130.16C434.35 131.51 434.34 131.98 435.06 132.35C434.01 129.85 432.82 127.41 431.7 124.94C431.29 124.13 431.77 125.66 432.28 126.68C429.623 122.606 427.263 118.344 425.22 113.93C422.82 109.58 420.41 104.99 416.59 101.09C417.59 101.84 416.47 100.23 416.13 99.2C414.13 96.34 410.93 92.13 408.81 89.69L409.19 90.69C404.41 83.91 401.01 79.25 397.19 75.33C397.11 75.04 396.9 75.66 397.5 76.45C395.25 73 390.5 70.83 390.61 69.21L391.72 70.21C386.08 64.55 380.02 58.06 373.72 52.6C371.8 51.88 377.31 55.75 375.48 55.29L368.75 49.79C366.464 47.8031 364.048 45.9691 361.52 44.3C361.84 44.5866 362.144 44.8903 362.43 45.21C357.1 41.99 363.43 45.04 359.06 42.09C359.06 42.54 358.84 42.46 357.32 41.61L356.38 40.26C356.11 40.2 355.91 40.56 356.45 41.15C354.92 39.27 348.8 35.89 347.6 34.35C347.1 34.27 347.89 35.48 347.13 35.35C345.17 34.3755 343.33 33.1739 341.65 31.77V31.77C339.76 31.15 335.58 28.88 336.43 29.44C331.91 27.33 335.92 28.73 332.75 26.58L336.43 28.16L330.26 24.74L332.58 26.34C329.63 25.02 326.83 23.19 323.43 21.57L325.16 21.93L321.36 19.88C320.63 20.48 316.2 17.94 318 19.73C314.24 18.4 311.31 16.93 308.36 15.73C305.374 14.2861 302.301 13.0271 299.16 11.96C300.37 12.33 299.84 12.35 300.04 12.55C297.016 11.7386 294.089 10.602 291.31 9.16C291.74 9.53 292.69 9.9 292.64 10.16C287.8 8.84 289.83 8.91 284.51 7.25C285.92 7.98 285.4 8.03001 283.92 7.73001C284.22 7.50001 283.04 6.96 282.07 6.62C285.74 9.17 275.85 5.93999 278.07 7.79999C277.89 7.40999 269.62 4.90999 272.15 4.79999L273.61 5.23001C273.87 4.83001 271.83 4.53 270.3 4.28C270.859 4.37714 271.399 4.56279 271.9 4.82999C268.07 3.92999 264.1 3.18998 259.98 2.63998C255.86 2.08998 251.62 1.55 247.21 1.13C247.97 1.35 251.49 1.9 249.21 1.87C240.46 1.44 235.41 0.36 226.52 0C226.13 0.93 236.11 0.23001 236.42 1.26001L229.42 0.899994L222.21 0.809998C217.34 0.629998 212.35 0.929989 207.14 1.01999C205.4 1.87999 202.89 2.13999 200 2.26999C197.11 2.39999 193.85 2.57001 190.79 3.79001C191.3 3.17001 188.11 3.55 184.66 4.16C185.92 4.36 182.29 5.02 183.36 5.16C180.28 5.35 171.6 7.16001 172.19 8.07001C171.19 7.34001 165.89 9.89999 163.28 9.92999C159.66 11.3 155.34 12.33 150.83 14.12C152.2 12.91 146.23 15.59 144.48 16.02C144.96 15.87 145.94 15.58 145.74 15.75C144.6 16.82 140.32 17.27 137.97 18.75C136.97 19.46 138.48 19.14 136.66 20.01C136.47 19.67 129.46 22.1 127.32 23.94C127.944 23.6207 128.623 23.4207 129.32 23.35C117.32 28.35 105.96 36.24 94.7802 43.28L97.1202 42.52C90.9602 48.03 92.0102 44.7 86.8802 48.81C79.9173 54.6013 73.315 60.8129 67.1102 67.41C60.9902 74.09 55.0102 80.79 49.5102 87.56C48.5102 88.43 49.7602 86.81 49.6602 86.45C48.7902 87.7 49.0002 88.45 47.4302 89.8V89.2C46.9202 90.07 46.3002 90.99 45.6202 91.96C44.9402 92.93 44.2602 93.96 43.5102 95.08C42.0102 97.23 40.2602 99.44 38.7102 101.71C35.6602 106.29 32.7102 110.66 32.0702 113.71C27.6802 119.98 26.0702 125.22 21.3502 133.18C20.4702 135.99 23.3502 130.38 21.8302 134.01C20.5002 136.54 19.0202 139.01 17.8302 141.6L18.0602 141.2C13.7102 148.43 11.6602 162.1 8.26022 171.86L8.43023 171.45C8.73023 171.28 8.56021 173.45 8.10021 175.04C7.78021 175.56 7.94021 174.44 7.94021 173.41C6.68021 177.85 5.94021 180.58 5.28021 183.08L3.6202 191.49C4.6202 188.49 3.43021 194.43 4.00021 194.83C3.39021 196.68 3.55022 193.64 2.70022 197.83C2.31022 200.83 1.9802 203.77 1.8702 206.57C1.7602 209.37 1.74023 212.03 1.68023 214.57C0.970232 216.57 1.05023 219.28 0.430232 219.39C0.280232 222.83 0.170227 225.51 0.0502269 228.39C-0.0697731 231.27 0.0502025 234.39 0.150202 238.59L0.370204 238.8C-0.429796 241.12 1.2702 246.1 0.900202 247.7C1.1502 247.44 1.20023 246.54 1.43023 246.7V250.55C1.53023 248.72 2.19022 247.63 2.51022 250.76C2.21022 254.08 2.07021 249.9 1.75021 251.53C2.02021 251.84 2.26023 252.15 2.55023 252.45C2.79023 254.9 2.06023 255.69 1.46023 252.7C2.03023 256.9 2.38023 261.1 2.96023 265.15C3.54023 269.2 4.17021 273.15 5.06021 276.81L5.35021 275.93C6.15021 280.02 7.30021 285.56 8.44021 287.82C8.33021 287.96 8.37022 289.01 8.04022 288.41C8.78022 293.41 8.93023 288.71 9.74023 294.13C9.54023 292.78 9.1702 291.13 9.3702 290.83C10.1102 294.13 10.8102 297.46 11.7802 300.71C12.5546 301.712 13.1686 302.829 13.6002 304.02C14.4302 305.94 15.4202 308.35 16.1002 310.39C15.9802 310.61 15.2802 309.56 14.8402 308.56L15.6802 311.18L17.2202 312.85L18.0102 316.85L18.6702 316.66C19.6702 319.41 19.3902 320.79 20.4002 322.94C24.4002 330.87 24.0502 329.05 27.4002 334.37C26.4602 335.68 32.2602 343.11 32.2602 344.95L36.2602 350.61L40.6402 357.15L45.4802 363.97C47.0902 366.28 48.9402 368.42 50.6702 370.56L50.2002 369.78C51.441 370.957 52.4426 372.363 53.1502 373.92C53.9698 375.525 55.0248 376.998 56.2802 378.29L55.5902 377.2C57.9802 379.44 60.9002 382.84 63.9302 386.09C65.3902 387.77 66.8502 389.43 68.2102 390.97L71.8802 395.04C71.1002 394.04 71.8802 394.16 73.2702 395.57C74.2702 396.92 71.4502 395.11 74.1602 397.35C73.6202 396.66 74.3102 396.92 74.9002 397.47C75.5602 398.47 76.3202 399.31 77.0402 400.24C84.0402 405.95 92.7102 412.04 100.18 417.66C101.72 418.47 100.82 417.54 100.61 417.12L109.61 423.44C112.61 425.44 115.61 427.3 118.44 429.04L119.39 428.72C122.24 430.31 120.63 430.72 124.73 432.06C125.62 432.41 122.24 430.74 121.36 429.91C127.47 432.39 124.47 432.33 130.11 435.11L129.02 433.6C133.54 435.26 133.79 436.3 135.17 437.51C140.94 441.24 140.17 437.99 148.42 442.06C149.63 442.99 147.76 442.46 148.97 443.39C155.13 445.39 155.68 446.16 161.97 447.98C165.67 447.71 158.8 447.08 162.76 446.98C161.15 446.66 159.59 446.16 158 445.75C162.22 446.47 154.4 444.35 155.27 443.85C157.098 444.39 158.886 445.058 160.62 445.85C162.62 446.67 164.69 447.43 166.62 448.14C166.77 447.59 162.01 446.76 164.07 446.54L166.07 447.35C165.569 446.916 164.967 446.614 164.32 446.47C165.21 446.16 166.72 447.12 168.67 447.68C168.67 448.01 168.51 448.38 167.75 448.59C167.941 448.549 168.139 448.549 168.33 448.59C172.08 450.65 179.14 451.43 182.47 452.93C181.94 452.63 182.47 452.69 182.64 452.6C185.11 453.07 187.53 454.23 190.84 455.05C192.73 454.94 189.99 453.67 195.29 454.76C196.18 455.34 193.66 455.85 198.19 456.41C198.3 456.18 194.41 455.3 196.56 455.23ZM102.66 418.05C102.24 417.78 101.61 417.34 100.88 416.79C101.79 417.45 102.28 417.78 102.66 418.05V418.05ZM96.3102 412.96C97.0502 413.47 97.1902 413.84 96.8102 413.84L93.6602 411.63C94.8502 412.25 96.6202 413.36 96.3102 412.96V412.96ZM111.79 419.05L111.69 418.9L109.69 417.53C109.92 417.53 110.37 417.67 111.48 418.53C111.62 418.679 111.726 418.856 111.79 419.05V419.05Z" fill="#1F686A"/>
<path d="M113.14 420.519C113.289 420.639 113.446 420.749 113.61 420.849C113.341 420.763 113.078 420.663 112.82 420.549C112.72 420.399 112.61 420.249 112.51 420.119L113.14 420.519Z" fill="#1F686A"/>
<path d="M410.48 95.39L410.36 95.25C410.449 95.3486 410.55 95.436 410.66 95.51C410.603 95.4665 410.543 95.4264 410.48 95.39V95.39Z" fill="#1F686A"/>
<path d="M17.9697 316.74L18.1197 316.689L18.2797 317.469L17.9697 316.74Z" fill="#1F686A"/>
<path d="M436.72 136.17C436.891 136.313 437.03 136.49 437.13 136.69C436.972 136.535 436.834 136.36 436.72 136.17V136.17Z" fill="#1F686A"/>
<path d="M444.54 155.779L445.72 158.529C445.18 157.299 444.79 156.429 444.54 155.779Z" fill="#1F686A"/>
<path d="M449.53 171.16C449.502 171.302 449.436 171.433 449.34 171.54V171.54L449.53 171.16Z" fill="#1F686A"/>
<path d="M270.45 4.13926L269.83 4.00928C268.4 3.64928 269.38 3.85926 270.45 4.13926Z" fill="#1F686A"/>
<path d="M341.79 31.7188C341.15 31.2088 340.51 30.7188 339.79 30.2188C340.96 30.8587 341.89 31.3887 341.79 31.7188Z" fill="#1F686A"/>
<path d="M184.79 4.00977L184.26 4.09976L184.79 4.00977Z" fill="#1F686A"/>
<path d="M336.62 28.5488C337.726 28.9871 338.779 29.5472 339.76 30.2188C338.79 29.6888 337.56 29.1688 336.62 28.5488Z" fill="#1F686A"/>
<path d="M455.5 240.92L455.45 241.7C455.45 241.7 455.37 241.7 455.34 241.78L455.5 240.92Z" fill="#1F686A"/>
<path d="M455.34 241.779L455.19 242.629C455.195 242.34 455.246 242.053 455.34 241.779V241.779Z" fill="#1F686A"/>
<path d="M454.86 244.429L455.19 242.629C455.181 243.243 455.069 243.851 454.86 244.429V244.429Z" fill="#1F686A"/>
<path d="M456.54 219.49L456.77 219.24C456.757 219.298 456.729 219.352 456.688 219.396C456.648 219.44 456.597 219.472 456.54 219.49V219.49Z" fill="#1F686A"/>
<path d="M456.54 212.898C456.847 214.93 456.984 216.984 456.95 219.038L456.77 219.238C457.16 218.218 456.23 214.408 456.54 212.898Z" fill="#1F686A"/>
<path d="M450.12 186.389C450.5 188.149 450.96 189.899 451.29 191.669C450.91 190.779 450.39 189.609 450.71 192.039C448.79 185.469 451.54 193.329 450.12 186.389Z" fill="#1F686A"/>
<path d="M446.07 170.14C446.7 172.97 445.74 170.19 445.63 170.38C445.33 168.56 445.26 168.12 446.07 170.14Z" fill="#1F686A"/>
<path d="M385.26 67.2893L385.08 67.8993C383.5 66.3193 385.22 67.7193 385.26 67.2893Z" fill="#1F686A"/>
<path d="M369.63 49.8184L371.59 50.8983L372.09 51.9484L369.63 49.8184Z" fill="#1F686A"/>
<path d="M356.21 44.9297L356.95 45.5598C355.95 44.7898 355.03 43.9898 354.03 43.2598C354.79 43.7798 355.48 44.3697 356.21 44.9297Z" fill="#1F686A"/>
<path d="M163.12 15.0891L163.56 14.2391C165.05 13.9491 165.57 14.6091 163.12 15.0891Z" fill="#1F686A"/>
<path d="M86.3398 55.8398C85.4063 57.2214 84.1851 58.3847 82.7598 59.2498C84.2098 57.9198 85.5198 56.4298 86.3398 55.8398Z" fill="#1F686A"/>
<path d="M15.4104 292.819L15.1504 291.059L15.8704 294.299L15.4104 292.819Z" fill="#1F686A"/>
<path d="M420.49 389.78C420.13 389.98 420.03 389.6 420.78 388.83L421.7 388.6L420.49 389.78Z" fill="#20696A"/>
<path d="M424.38 383.58C425.38 382.75 426.65 381.88 426.53 382.83C425.33 383.5 425.33 383.89 423.99 384.54C423.26 385.34 422.93 386.12 423.2 386.1C422.84 386.31 422.2 387.47 421.57 387.69C422.323 386.161 423.397 384.814 424.72 383.74C424.87 383.35 424.52 383.57 424.38 383.58Z" fill="#20696A"/>
<path d="M419.42 313.42C419.328 313.286 419.251 313.142 419.19 312.99L419.42 313.42Z" fill="#20696A"/>
<path d="M441.79 266.67C441.96 267.12 441.98 267.32 441.95 267.36C441.79 266.94 441.71 266.59 441.79 266.67Z" fill="#20696A"/>
<path d="M435.9 264.86L436.37 264.43C436.244 264.603 436.084 264.749 435.9 264.86V264.86Z" fill="#20696A"/>
<path d="M419.42 313.42C419.665 313.747 420.02 313.975 420.42 314.06C420.43 314.27 419.73 313.97 419.42 313.42Z" fill="#20696A"/>
<path d="M433.91 372.439C433.726 372.704 433.515 372.948 433.28 373.169C433.47 372.929 433.64 372.689 433.81 372.439H433.91Z" fill="#20696A"/>
<path d="M438.31 313.5L438.57 313.93C438.585 314.086 438.585 314.244 438.57 314.4L438.31 313.5Z" fill="#20696A"/>
<path d="M443.19 334.078C443.19 333.598 443.61 333.419 443.81 333.229C443.623 333.554 443.519 333.922 443.51 334.299C443.42 334.309 443.33 334.238 443.19 334.078Z" fill="#20696A"/>
<path d="M434.79 367.209L434.44 367.719C434.56 367.579 434.71 367.359 434.79 367.209Z" fill="#20696A"/>
<path d="M426.46 306.779C426.427 306.855 426.371 306.918 426.3 306.959C426.3 306.909 426.36 306.849 426.46 306.779Z" fill="#20696A"/>
<path d="M328.11 423.26C328.11 423.26 328.11 423.26 328.11 423.33C328.11 423.4 327.97 423.36 328.11 423.26Z" fill="#20696A"/>
<path d="M306.64 436.659L306.99 436.559C307.052 436.623 307.103 436.697 307.14 436.779L306.64 436.659Z" fill="#20696A"/>
<path d="M423.33 280V279.92C423.69 279.51 423.53 279.78 423.33 280Z" fill="#20696A"/>
<path d="M381.03 311.119C380.89 308.999 380.03 314.419 380.03 311.249C380.16 311.559 381.1 308.519 381.03 311.119Z" fill="#20696A"/>
<path d="M434.16 371.909L434.65 371.129C434.44 371.489 434.29 371.779 434.16 371.909Z" fill="#20696A"/>
<path d="M423.59 280.25C423.725 280.318 423.839 280.422 423.92 280.55C423.86 280.55 423.79 280.48 423.59 280.25Z" fill="#20696A"/>
<path d="M417.271 289.959L417.021 290.769C417.088 290.494 417.172 290.224 417.271 289.959V289.959Z" fill="#20696A"/>
<path d="M411.31 275.369C411.028 275.635 410.724 275.876 410.4 276.089C410.429 276.033 410.462 275.979 410.5 275.929C410.804 275.796 411.079 275.606 411.31 275.369V275.369Z" fill="#20696A"/>
<path d="M399.79 289.42C399.79 289.32 399.85 289.19 399.88 289.08L400.19 288.58L399.79 289.42Z" fill="#20696A"/>
<path d="M367.08 382.359C366.973 382.665 366.916 382.986 366.91 383.309C366.79 382.879 365.09 385.039 367.08 382.359Z" fill="#20696A"/>
<path d="M433.7 372.29C433.86 372.29 433.99 372.15 434.16 371.91C434.04 372.09 433.93 372.27 433.81 372.44C433.72 372.45 433.66 372.43 433.7 372.29Z" fill="#20696A"/>
<path d="M408.56 272.869C407.689 273.557 406.87 274.309 406.11 275.119C406.853 274.292 407.673 273.539 408.56 272.869V272.869Z" fill="#20696A"/>
<path d="M454.79 329.99L455.16 329.35C455.065 329.578 454.941 329.793 454.79 329.99V329.99Z" fill="#20696A"/>
<path d="M400.09 282.18C399.886 282.74 399.642 283.285 399.36 283.81C399.266 283.894 399.165 283.971 399.06 284.04L400.09 282.18Z" fill="#20696A"/>
<path d="M355.15 397.61C353.15 399.61 354.66 398.37 353.33 400.61C352 401.38 351.62 402.8 350.82 402.5C350.62 403.5 350.63 403.22 349.76 404.79C349.97 403.93 347.17 406.91 346.87 406.47C346.81 407.4 349.43 404.81 348.31 406.9C346.96 407.8 344.83 409.78 344.19 409.47C343.505 410.47 342.753 411.422 341.94 412.32C342.136 412.112 342.375 411.948 342.64 411.84C339.98 413.84 336.64 417.38 334.64 417.93C335.79 418.3 329.21 422.33 331.72 421.48C330.62 422.278 329.411 422.911 328.13 423.36C328.65 423.85 325.45 425.48 324.39 426.58C323.5 426.58 321.49 428.04 320.06 428.58C320.7 428.36 321.06 428.26 320.95 428.58C319.33 429.13 319.83 429.16 318.72 430.14C316.6 430.99 318.84 429.45 317.46 429.79C315.8 430.84 317.41 430.33 317.23 430.79C316.24 431.041 315.239 431.242 314.23 431.39C313.824 431.589 313.479 431.893 313.23 432.27C312.112 432.411 311.04 432.797 310.09 433.4C310.89 433.14 311.65 432.8 312.42 432.47L311.68 433.2C310.68 433.47 309.68 433.6 308.68 433.81C304.84 435.81 306.31 436.06 306.87 436.67L308.59 436.2C308.59 436.46 307.51 437.02 306.77 437.3C306.03 437.58 309.77 437.1 311.68 436.51C316.58 434.39 312.36 435.26 315.61 433.65C317.12 433.2 318.53 432.53 319.99 431.96L319.92 431.71C320.282 431.4 320.743 431.23 321.22 431.23C320.79 431.1 324.44 429.23 326.04 428.16L325.63 428.79C327.674 427.852 329.544 426.574 331.16 425.01C332.484 423.568 333.967 422.28 335.58 421.17L338.2 419.71L338.35 418.94C339.871 418.286 341.235 417.314 342.35 416.09C349.08 408.77 356.8 401.37 362.55 393.09C362.462 393.452 362.302 393.792 362.08 394.09C366.48 386.4 371.35 383.8 375.08 376.76L374.62 377.1C377.01 373.86 374.16 377.45 375.62 374.89C376.43 374.78 378.93 370.96 380.44 369.19C380.009 369.629 379.605 370.093 379.23 370.58C379.258 369.958 379.506 369.366 379.93 368.91C382.1 367.3 385.2 362.72 387.8 359.58C387.8 358.94 389.55 355.91 390.12 354.05C390.49 353.8 391.18 353.37 391.83 353.05C392.403 351.973 393.197 351.029 394.16 350.28L392.16 352.89H392.24C392.14 352.98 391.99 353.16 391.86 353.31C391.31 354.01 391.03 354.37 391.12 354.18C390.46 355.72 391.43 354.28 391.74 354.64C392.51 353.56 394.31 351.48 394.22 351.02C394.7 350.39 394.97 349.93 395.43 349.24C395.872 348.801 396.262 348.311 396.59 347.78L396.39 347.96C396.405 347.839 396.439 347.721 396.49 347.61C397.93 345.42 400.81 343.06 402.41 341.61C400.62 342.85 402.26 340.76 401.95 340.49C402.13 340.32 400.44 342.38 398.34 344.92C398.46 344.7 398.52 344.52 398.44 344.37C399.93 341.89 401.84 340.85 404.37 337.56C404.16 337.73 403.73 338.07 403.75 337.82C404.358 336.928 405.213 336.233 406.21 335.82C406.21 335.28 408.09 332.75 409.33 331.82C410.454 331.295 411.451 330.53 412.25 329.58L411.25 330.14C413.16 327.9 413.25 328.79 414.87 326.99C414.24 327.72 413.97 327.55 414.46 326.99C415.785 325.764 417.342 324.815 419.04 324.2L418.44 324.1C420.55 322.6 424.77 320.17 424.44 319.64C424.31 320.83 429.3 316.83 431.18 315.64C430.52 316.01 430.3 315.92 430.18 315.87C434.41 313.94 438.32 311.27 442.7 311.03L443.38 310.33C445.78 310.47 446.22 311.93 448.25 312.7C448.05 312.5 447.84 312.27 447.61 312.08C449.075 312.625 450.389 313.513 451.44 314.67C452.332 315.666 452.97 316.864 453.3 318.16L453.74 318C453.866 319.344 453.748 320.699 453.39 322C453.78 323.48 452.81 326.42 451.01 329.28C449.21 332.14 446.8 335.05 445.44 337.72L444.54 337.44C443.15 339.17 441.09 341.12 440.83 342.32L441.17 341.96C441.8 342.25 439.63 343.58 438.73 344.64C437.92 345.33 436.86 345.72 437.43 345.01C433.51 349.48 426.12 354.31 423.36 356.74C420.962 357.987 418.446 358.992 415.85 359.74C413.239 360.532 410.561 361.081 407.85 361.38L407.92 361.47C406.674 361.659 405.419 361.776 404.16 361.82C402.9 361.88 401.85 361.94 401.79 362.28C397.44 361.08 395.4 358.99 391.48 355.74C391.66 356.09 391.9 356.38 392.11 356.74C391.085 355.878 390.234 354.829 389.6 353.65C389.3 353.29 389.4 353.65 389.36 353.76C388.36 352.94 388.27 352.05 387.76 351.19V351.67C386.158 349.605 384.942 347.267 384.17 344.77C383.279 341.983 382.531 339.153 381.93 336.29C382.09 337.29 381.7 336.84 381.5 336.46C381.73 334.1 380.77 327.89 380.92 325.54L380.7 326.99C380.97 322.43 379.63 323.06 380.22 318.51L380.64 321.12C380.51 319.27 380.73 317.71 381.08 318.17C380.94 316.03 380.44 317.88 380.61 314.64C380.38 314.48 380.28 316.96 380.06 315.88C379.99 314.36 379.89 312.88 379.91 311.3C379.903 310.561 379.997 309.824 380.19 309.11C381.11 309.65 380.86 305.41 381.45 307.82C382.6 301.58 383.53 296.16 386.03 291.24C386.03 290.01 387.03 287.49 388.09 285.35C389.15 283.21 390.09 281.46 389.44 281.35C390.665 279.133 392.421 277.253 394.55 275.88C394.111 276.381 393.632 276.845 393.12 277.27C393.82 276.82 396.44 274.27 397.66 273.57C395.92 274.35 393.43 276.51 392.1 277.49C393.12 276.335 394.271 275.301 395.53 274.41C396.425 273.705 397.441 273.169 398.53 272.83C398.612 272.559 398.737 272.302 398.9 272.07C399.469 272.17 400.03 272.311 400.58 272.49C400.97 272.64 401.45 272.93 401.72 274.04L401.35 273.79C402.06 274.95 402.385 276.304 402.28 277.66C402.28 278.73 402.28 279.75 402.28 281.73L402.53 281.55C402.73 282.94 402.04 284.94 402.53 286.3C402.58 285.43 402.67 284.56 402.67 283.69C403.13 283.96 403.25 286 403.37 286.94C402.94 289.74 402.52 287.84 402.28 289.22C402.61 289.87 402.48 289.4 403.04 288.49C402.51 291.61 401.17 295.67 399.8 297.49C399.8 297.64 399.96 297.49 399.96 297.49C399.42 298.888 398.711 300.214 397.85 301.44C397.26 302.25 397.15 302.19 396.94 302.89L397.1 302.74C397.05 302.969 396.973 303.19 396.87 303.4C396.76 303.55 396.51 303.4 396.36 303.34C396.186 303.226 396.037 303.079 395.92 302.908C395.803 302.736 395.722 302.543 395.68 302.34C395.48 301.57 395.59 301.28 395.03 300.85C394.94 300.24 394.93 301.01 394.93 301.41C394.93 301.81 394.93 302.28 394.58 301.58C394.453 301.084 394.432 300.567 394.518 300.062C394.604 299.557 394.795 299.076 395.08 298.65C395.612 297.908 395.996 297.069 396.21 296.18C396.07 296.62 396.06 296.46 395.91 296.57C396.992 293.957 398.297 291.441 399.81 289.05C400.619 286.887 401.796 284.881 403.29 283.12C404.855 281.26 406.311 279.31 407.65 277.28C407.06 278.4 408.65 276.88 408.74 277.01C408.83 277.14 408.56 277.01 408.63 276.9C409.107 276.373 409.748 276.02 410.45 275.9C410.972 275.34 411.63 274.923 412.36 274.69C413.14 274.39 413.87 274.28 414.14 274.11C414.22 274.32 415.14 274.03 416.14 274.11C414.05 273.93 415.45 273.66 414.4 273.41C415.006 273.27 415.634 273.252 416.247 273.359C416.86 273.465 417.446 273.694 417.97 274.03C418.82 274.55 419.61 275.1 420.97 276.12C421.556 276.426 422.112 276.787 422.63 277.2C422.52 277.56 423.01 278.32 423.36 279.08C423.71 279.84 424 280.55 423.87 280.56C424.27 281.02 424.56 281.84 424.87 281.65C425.09 283.05 425.3 285.28 424.87 285.84C424.876 285.362 424.853 284.885 424.8 284.41C424.83 286.312 424.357 288.189 423.43 289.85C422.67 291.34 421.79 292.6 420.96 294.16L421.79 294.67C420.786 296.448 419.185 297.813 417.27 298.52C417.54 298.35 417.66 298.25 417.61 298.2C417.367 298.147 417.134 298.056 416.92 297.93C417.28 298.002 417.652 297.977 418 297.86C418.613 297.657 419.171 297.315 419.63 296.86C418.997 297.393 418.185 297.665 417.36 297.62C417.916 297.557 418.441 297.33 418.87 296.97C419.485 296.491 420.049 295.948 420.55 295.35C418.91 296.74 419.13 296.51 419.34 295.75C418.34 296.62 417.93 296.96 417.59 297.22C417.25 297.48 417 297.52 416.78 297.11C416.63 297.04 416.55 297.11 416.43 297.16C416.31 297.21 416.19 297.35 415.95 296.99C415.66 295.14 415.58 292.56 416.72 290.9C416.84 290.29 416.33 291.9 416.17 291.71C416.505 290.593 417.029 289.541 417.72 288.6L417.28 290.01C417.73 288.79 418.16 288.75 418.97 286.42C419.79 285.23 420.56 284.73 419.9 286.11C420.22 285.58 420.6 284.24 420.12 284.54C421.92 281.16 421.86 283.42 423.34 280.05C423.19 280.25 423 280.45 423.03 280.3C423.37 279.609 423.786 278.959 424.27 278.36C422.42 281.03 424.15 277.06 422.27 280.42C422.04 279.78 423.76 277.87 424.27 276.75C425.67 275.43 424.99 277.02 425.76 276.4C425.63 276.33 426.06 275.68 426.58 274.93L426.35 275.87C426.835 275.21 427.363 274.582 427.93 273.99L426.85 275.11C427.85 273.74 429 271.34 431.36 269.48C430.69 269.93 429.36 270.85 430.61 269.28C433.1 267.12 431.03 268.61 432.17 267.1C434.66 264.96 433 267.17 436.55 263.92C436.95 263.59 436.72 264.07 436.38 264.48C436.859 264.014 437.385 263.598 437.95 263.24C438.07 263.155 438.207 263.096 438.351 263.065C438.496 263.034 438.645 263.032 438.79 263.06C439.074 263.14 439.324 263.312 439.5 263.55C439.903 264.056 440.274 264.587 440.61 265.14C439.87 263.97 439.28 263.33 439.97 264.85C439.89 264.01 441.47 266.85 441.97 267.97L441.91 268.33C442.41 269.16 442.18 268.16 441.91 267.41C441.85 267.41 441.7 267.22 441.48 266.68C440.94 265.26 441.93 265.35 442.94 267.68C443.68 270.28 442.94 270.02 442.68 269.68C443.8 273.02 442.68 273.01 443.39 276.24C443.974 278.108 444.336 280.038 444.47 281.99C444.01 283.25 444.16 278.91 443.77 280.34C444.87 284.46 442.77 288.71 442.23 293.97L442.91 293.44C442.68 294.715 442.345 295.97 441.91 297.19C442 296.58 442.08 295.97 442.14 295.35C441.73 296.53 440.88 299.3 441.57 298.54C440.17 301.01 440.17 301.61 439.03 303.96C440.33 301.53 439.03 303.9 440.19 302.24C439.61 303.868 438.682 305.349 437.47 306.58C437.82 306.43 437.47 307.47 436.89 308.06C434.997 309.822 432.874 311.319 430.58 312.51L430.66 312.65C428.647 313.666 426.493 314.374 424.27 314.75C423.139 314.91 421.991 314.91 420.86 314.75C420.379 314.712 419.928 314.503 419.59 314.159C419.252 313.815 419.049 313.361 419.02 312.88V312.88V312.7C419.037 312.796 419.064 312.89 419.1 312.98C419.53 313.41 419.29 312.88 419.46 311.91C419.638 310.944 420.139 310.066 420.88 309.42C420.97 309.16 420.88 308.86 421.4 308.42C421.7 308.71 422.8 307.71 423.4 307.69C424.63 307.08 422.95 307.1 425.4 306.52C426.4 306.38 426.5 306.68 426.4 306.86C427.485 306.426 428.674 306.318 429.82 306.55C429.343 306.409 428.847 306.342 428.35 306.35C428.19 306.07 429.09 306.25 429.11 305.95C430.34 306.11 429.52 306.44 431.01 306.67C430.6 306.397 430.173 306.153 429.73 305.94C430.306 306.012 430.863 306.195 431.37 306.48C430.51 306.1 430.72 305.77 430.92 305.59C434.35 307.15 431.21 306.77 431.32 307.24C434.43 308.14 436.04 310.54 437.45 312.53L437.53 311.88C438.02 312.501 438.362 313.226 438.53 314C438.85 314.56 439.15 315.13 439.43 315.71C439.09 314.63 439 314.25 439.29 313.99C440.29 315.87 441.36 318.58 440.94 319.29L441.01 319.18C441.675 320.85 442.223 322.564 442.65 324.31C442.83 325.351 443.098 326.374 443.45 327.37C443.72 330.37 444.07 334.29 443.45 334.37C443.31 336.16 444.07 339.13 443.15 340.37C443.32 342.56 443.3 340.51 443.8 339.89C444.01 342.11 442.63 344.13 443.35 344.99C442.64 347.44 443.28 344.37 442.75 345.14C443.48 345.83 441.94 349.78 441.65 352.14C441.04 353.07 441.77 351.04 440.92 352.7C441.17 352.59 440.92 353.53 440.76 354.01L440.14 354.29C440.29 355.19 440.38 356.08 440.49 356.99C438.6 360.13 440 355.99 437.94 360.34L438.09 360.09C438.04 361.5 436.37 363.09 435.09 366.25C435.56 365.17 435.53 365.94 435.83 365.67L434.74 367.27C434.84 367.13 434.91 367.07 434.87 367.27C434.38 368.94 433.98 368.45 433.28 370.32C434.06 369.2 434.17 369.74 434.03 370.32L432.03 372.44L433.22 371.82C431.81 374.24 428.58 376.98 428.51 378.66L429.39 377.6C429.47 377.78 429.39 378.75 428.01 380.05C427.6 380.47 427.01 380.54 427.54 379.91L426.83 381.12C427.6 380.87 429.75 378.12 431.09 376.4C430.55 376.87 429.46 378.16 429.53 377.58C430.77 376.09 432.04 374.71 433.17 373.2C432.756 373.598 432.288 373.935 431.78 374.2C432.7 372.31 432.89 373.06 433.78 371.72C433.95 371.11 434.06 370.72 433.73 370.96C434.883 369.459 435.818 367.802 436.51 366.04C436.51 366.04 435.09 367.96 435.51 366.7C437.51 363.44 438.36 362.99 440.28 359.26C442.87 355.02 442.95 350.26 444.17 347.08C444.4 346.93 443.97 349.64 444.56 347.51C444.09 347.79 444.56 346.16 444.45 346.02C445.45 343.77 444.91 342.53 445.45 340.9C445.27 341.28 445.26 339.9 445.21 338.9C444.69 339.12 445.21 336.29 444.21 339.66C445.27 336.17 444.32 333.45 445.29 330.76L445.5 331.67C445.34 330.47 445.19 329.28 444.96 328.1V328.25C444.861 326.946 444.522 325.671 443.96 324.49C443.96 325.39 444.22 326.65 444.2 327.55C443.52 325.75 443.96 323.6 443.44 321.55C443.14 321.72 443.83 323.71 443.26 323.21C442.88 321.77 442.81 320.47 442.49 319.11L442.36 319.36C440.71 316.04 442.83 317.63 441.14 315.36C441.29 315.36 441.26 315.01 441.43 315.12C440.81 314.25 439.35 312.37 440.24 314.54C439.702 313.526 439.225 312.48 438.81 311.41C439.68 312.15 439.7 312.48 440.24 312.65C439.38 311.041 438.3 309.56 437.03 308.25C436.58 307.83 437.25 308.69 437.75 309.25C435.26 307.25 432.61 305.25 429.22 304.66C427.508 304.284 425.73 304.329 424.04 304.79C422.228 305.24 420.644 306.34 419.59 307.88C419.96 307.05 418.96 308.02 418.39 308.55C417.476 309.843 417.077 311.429 417.27 313C417.401 313.927 417.889 314.767 418.63 315.34C419.246 315.785 419.98 316.039 420.74 316.07C420.501 315.959 420.271 315.832 420.05 315.69C422.433 316.288 424.925 316.312 427.32 315.76C429.236 315.363 431.059 314.603 432.69 313.52C432.9 313.52 432.5 313.27 431.9 313.52C434.54 312.52 435.98 309.37 437.04 309.46C436.83 309.71 436.63 309.97 436.4 310.21C440.311 306.311 443.191 301.5 444.78 296.21C444.64 294.86 443.87 299.21 443.58 297.94C444.704 294.287 445.464 290.532 445.85 286.73C445.786 287.001 445.706 287.269 445.61 287.53C445.67 283.53 446.1 288.02 446.32 284.65C446.05 284.82 446 284.65 445.93 283.53L446.39 282.53C446.33 282.37 446.01 282.38 445.86 282.87C446.53 281.4 446.03 276.87 446.33 275.67C446.17 275.38 445.78 276.27 445.54 275.83C445.289 274.443 445.145 273.039 445.11 271.63V271.63C444.55 270.45 443.61 267.55 443.75 268.19C442.43 265.25 443.89 267.6 443.18 265.19C443.64 265.94 444.02 266.73 444.41 267.52C443.911 266.045 443.293 264.614 442.56 263.24C442.78 263.82 443.02 264.4 443.19 264.99C442.62 264.06 442.19 263.15 441.59 262.06C441.195 261.414 440.645 260.878 439.99 260.5C439.233 260.1 438.349 260.014 437.53 260.26C438.036 260.008 438.594 259.875 439.16 259.87C437.818 259.703 436.463 260.062 435.38 260.87C435.38 261.57 432.66 263.23 434.26 262.87C430.53 266.36 427.68 268.19 424.61 271.8C425.12 271.15 425.03 271.49 425.2 271.42C424.009 273.054 422.67 274.573 421.2 275.96C421.55 275.79 421.97 275.28 422.11 275.37C420.3 278.06 420.68 276.78 418.66 279.77C419.38 279.04 419.33 279.38 418.9 280.25C418.78 280.01 418.22 280.65 417.85 281.25C420.19 279.47 416.39 285.01 418.06 283.97C417.71 283.97 414.95 288.8 415.17 287.17L415.64 286.31C415.39 286.08 414.94 287.31 414.57 288.31C414.714 287.97 414.913 287.655 415.16 287.38C414.569 288.531 414.048 289.717 413.6 290.93C413.034 292.282 412.696 293.718 412.6 295.18C412.545 296.028 412.626 296.878 412.84 297.7C413.101 298.748 413.707 299.678 414.56 300.34C415.492 301.017 416.648 301.31 417.79 301.16C418.78 301.008 419.721 300.628 420.54 300.05C419.993 300.353 419.412 300.588 418.81 300.75C418.16 300.87 417.88 300.88 418.81 300.52C420.166 299.852 421.355 298.888 422.29 297.7C423.11 296.78 423.85 295.88 424.55 294.92C426.159 292.836 427.348 290.458 428.05 287.92C427.7 287.71 427.36 289.36 426.71 290.92C426.06 292.48 425.19 294.04 424.81 293.92C426.567 291.162 427.631 288.019 427.91 284.76C428.198 281.048 427.004 277.374 424.59 274.54C423.27 273.95 421.99 272.69 420.06 271.67C419.006 271.061 417.825 270.705 416.61 270.63C415.395 270.555 414.18 270.764 413.06 271.24C413.45 270.73 410.83 271.24 408.78 272.79C409.64 272.53 407.56 274.11 408.28 273.85C406.28 274.85 402.43 279.2 403.18 279.51C402.26 279.44 400.56 282.87 399.27 283.96C398.09 286.18 396.27 288.45 395.05 291.39C395.11 290.18 393.5 294.14 392.93 295.17C393.08 294.87 393.39 294.28 393.39 294.46C393.211 295.285 392.907 296.077 392.49 296.81C392.007 297.866 391.748 299.01 391.73 300.17C391.86 301.17 392.12 299.94 392.16 301.48C392.07 301.48 392.01 301.99 392.07 302.83C392.127 303.859 392.444 304.856 392.99 305.73C393.541 306.67 394.389 307.402 395.4 307.81C395.846 307.956 396.3 308.08 396.76 308.18L397.07 308.25C397.16 308.25 397.21 308.14 397.28 308.09L397.63 307.73C397.43 307.89 397.28 308 397.16 308.08C397.04 308.16 396.87 307.99 396.76 307.97L396.04 307.55C396.37 307.68 396.74 307.8 397.04 307.91L397.79 307.33L398.55 306.75C398.686 306.655 398.813 306.548 398.93 306.43L399.28 305.88L400.7 303.6L401.5 302.13C402.536 300.088 403.402 297.964 404.09 295.78C405.334 291.547 406.086 287.185 406.33 282.78L405.79 284.28C405.49 281.56 405.61 280.69 405.86 279.9C406.3 278.74 406.37 277.472 406.06 276.27C405.747 274.454 405.003 272.739 403.89 271.27C403.136 270.333 402.124 269.638 400.98 269.27C399.754 268.899 398.438 268.97 397.26 269.47C395.724 270.247 394.334 271.282 393.15 272.53C392.062 273.615 391.059 274.782 390.15 276.02C386.53 280.95 384.26 286.29 382.05 291.46C381.62 292.18 382.05 290.94 381.87 290.73C381.59 291.73 381.92 292.09 381.19 293.24L381.02 292.86C380.53 295.43 379.27 298.92 378.42 302.38C377.57 305.84 377.01 309.2 377.42 311.17C376.42 316.01 376.98 319.5 376.54 325.48C376.91 327.34 376.91 323.27 377.13 325.8C377.07 327.65 377.13 329.49 377.13 331.35V331.04C377.19 334.389 377.868 337.698 379.13 340.8C380.4 344.34 382.13 347.8 383.54 350.92L383.43 350.65C383.53 350.42 384.43 351.5 384.95 352.47C385.02 352.88 384.58 352.29 384.1 351.81C385.103 353.794 386.331 355.657 387.76 357.36C389.002 358.86 390.422 360.203 391.99 361.36C390.43 359.85 393.75 362.36 394.2 361.99C395.2 362.86 393.27 362.06 395.79 363.59C397.601 364.47 399.543 365.051 401.54 365.31C403.339 365.484 405.15 365.484 406.95 365.31C408.35 365.64 410.14 365.31 410.3 365.7C414.543 365.06 418.647 363.708 422.44 361.7V361.49C424.07 361.34 426.44 358.88 427.49 358.59C427.25 358.5 426.72 358.75 426.76 358.53L428.93 357.31C427.86 357.83 427.02 357.75 428.65 356.56C430.65 355.7 428.33 357.11 429.37 356.8L429.58 356C430.9 355.13 431.63 355.35 430.13 356.62C434.475 353.671 438.535 350.323 442.26 346.62L441.65 346.73C443.651 345 445.422 343.021 446.92 340.84C447.04 340.84 447.61 340.47 447.42 340.84C449.84 338.68 447.22 340.22 449.81 337.84C449.18 338.46 448.42 339.25 448.18 339.24C449.68 337.64 451.09 336.02 452.49 334.24C452.35 334.03 454.13 330.38 455.39 327.81C455.56 327.76 455.39 328.62 455.13 329.28C455.45 328.76 455.72 328.2 456.01 327.64C456.01 327.13 456.01 326.64 455.95 326.09C456.426 325.295 456.843 324.466 457.2 323.61L456.71 323.46C457.17 321.53 457.89 320.71 457.71 318.94C457.521 317.014 456.793 315.181 455.61 313.65C454.738 312.558 453.682 311.627 452.49 310.9C452.62 310.36 451.12 309.24 449.36 308.61C447.6 307.98 445.73 307.75 445.21 307.35C441.814 307.396 438.46 308.095 435.33 309.41C431.984 310.834 428.822 312.654 425.91 314.83L426.44 314.58C424.18 316.58 423.17 315.89 420.68 318.02L421.42 317.65C418.31 320.47 412.54 324.93 409.42 327.44C410.09 326.98 410.02 327.44 409.09 328.36C408.18 328.98 409.36 327.14 407.89 328.85C408.35 328.52 408.18 328.98 407.82 329.35C407.19 329.75 406.55 330.14 405.94 330.58C402.14 334.94 398.04 340.29 394.13 344.76C393.58 345.76 394.22 345.21 394.51 345.11C391.51 348.71 388.4 352.23 385.82 355.59L386.02 356.26C384.81 357.95 384.58 356.81 383.41 359.26C383.12 359.79 384.48 357.83 385.11 357.37C383.03 361 383.22 359.05 380.99 362.37L382.1 361.88C381.464 363.342 380.325 364.528 378.89 365.22C375.89 368.3 378.14 368.4 374.37 372.84C373.59 373.42 374.17 372.33 373.37 372.91C371.16 376.33 370.53 376.49 368.3 379.91C367.8 382.22 369.5 378.22 368.84 380.65L370.47 378.01C369.33 380.48 371.97 376.09 372.18 376.75C371.18 378.49 369.01 380.75 367.34 382.75C367.68 382.99 369.14 380.3 368.9 381.62L367.98 382.62C368.36 382.435 368.682 382.147 368.91 381.79C368.91 382.41 368.02 383.09 367.25 384.12C367.02 384.06 366.81 383.82 366.82 383.3C366.821 383.428 366.794 383.554 366.74 383.67C364.74 385.43 362.44 389.24 360.68 390.72C361 390.51 360.84 390.72 360.85 390.93C359.92 392.21 358.44 393.12 357.01 394.67C356.52 395.76 358.17 394.75 355.88 397.26C355.22 397.5 355.72 395.96 353.88 398.14C354.01 398.15 355.79 396.44 355.15 397.61ZM393.79 346.33L394.67 345.26L393.79 346.33ZM397.31 342.54C396.95 342.98 396.69 343.04 396.69 342.79L398.25 340.89C397.84 341.63 397.06 342.71 397.34 342.54H397.31ZM392.97 352.31H393.08L394.08 351.12C394.08 351.27 393.97 351.56 393.39 352.22C393.269 352.283 393.135 352.314 393 352.31H392.97Z" fill="#20696A"/>
<path d="M391.95 353.069C391.87 353.169 391.81 353.219 391.7 353.349C391.79 353.179 391.86 353.019 391.94 352.859L392.25 352.699L391.95 353.069Z" fill="#20696A"/>
<path d="M419.16 312.909V312.989C419.129 312.925 419.092 312.865 419.05 312.809C419.11 312.869 419.13 312.869 419.16 312.909Z" fill="#20696A"/>
<path d="M457.32 323.72L457.21 323.68L457.42 323.17L457.32 323.72Z" fill="#20696A"/>
<path d="M441.55 315.119C441.666 315.207 441.762 315.32 441.83 315.449C441.723 315.352 441.628 315.241 441.55 315.119V315.119Z" fill="#20696A"/>
<path d="M445.12 328.26C445.25 328.89 445.38 329.52 445.47 330.16C445.31 329.33 445.2 328.78 445.12 328.26Z" fill="#20696A"/>
<path d="M445.53 338.719C445.481 338.802 445.408 338.868 445.32 338.909V338.909L445.53 338.719Z" fill="#20696A"/>
<path d="M414.67 288.16L414.5 288.53C414.06 289.39 414.33 288.78 414.67 288.16Z" fill="#20696A"/>
<path d="M445.23 271.639C445.203 271.099 445.143 270.562 445.05 270.029C445.33 270.879 445.47 271.559 445.23 271.639Z" fill="#20696A"/>
<path d="M408.86 272.639H408.87L408.56 272.869L408.86 272.639Z" fill="#20696A"/>
<path d="M444.34 267.779C444.684 268.481 444.923 269.229 445.05 269.999C444.79 269.329 444.53 268.529 444.34 267.779Z" fill="#20696A"/>
<path d="M428.73 380.129L428.45 380.539C428.45 380.539 428.45 380.539 428.36 380.539L428.73 380.129Z" fill="#20696A"/>
<path d="M428.36 380.549L427.98 380.959C428.14 380.779 428.27 380.579 428.36 380.549Z" fill="#20696A"/>
<path d="M427.18 381.78L427.98 380.92C427.772 381.257 427.5 381.549 427.18 381.78Z" fill="#20696A"/>
<path d="M436.06 368.48L436.28 368.42C436.251 368.447 436.216 368.467 436.177 368.478C436.139 368.488 436.098 368.489 436.06 368.48Z" fill="#20696A"/>
<path d="M438.06 364.779C437.628 366.015 437.093 367.213 436.46 368.359H436.28C436.79 367.959 437.39 365.519 438.06 364.779Z" fill="#20696A"/>
<path d="M442.08 347.879C441.84 348.989 441.63 350.119 441.34 351.229C441.34 350.599 441.34 349.789 440.85 351.229C441.46 346.979 441.04 352.239 442.08 347.879Z" fill="#20696A"/>
<path d="M443.33 337.379C443.13 339.199 443.07 337.379 442.96 337.439C443.19 336.299 443.25 336.009 443.33 337.379Z" fill="#20696A"/>
<path d="M437.84 305.779L437.4 305.679C438.22 304.619 437.54 305.779 437.84 305.779Z" fill="#20696A"/>
<path d="M445.32 292.979L445.28 294.429L444.74 294.998L445.32 292.979Z" fill="#20696A"/>
<path d="M443.49 283.95L443.39 284.55L443.66 282.25C443.61 282.78 443.56 283.39 443.49 283.95Z" fill="#20696A"/>
<path d="M401.79 286.83L401.58 286.19C402.22 285.45 402.79 285.61 401.79 286.83Z" fill="#20696A"/>
<path d="M401.38 274.269L399.79 272.859C400.137 272.973 400.458 273.157 400.731 273.399C401.005 273.642 401.226 273.938 401.38 274.269V274.269Z" fill="#20696A"/>
<path d="M446.7 335.089L445.88 335.849L447.27 334.299L446.7 335.089Z" fill="#20696A"/>
<path d="M352.62 159.349C350.509 159.612 348.494 160.388 346.751 161.608C345.008 162.828 343.59 164.455 342.62 166.349C341.702 168.272 341.363 170.421 341.644 172.533C341.924 174.646 342.812 176.632 344.2 178.249C345.353 179.469 346.706 180.483 348.2 181.249C349.495 181.982 350.894 182.512 352.35 182.819C353.89 183.096 355.472 183.042 356.99 182.659C363.37 181.089 367.69 173.779 365.99 167.429C365.023 164.285 362.891 161.629 360.029 160.006C357.168 158.383 353.795 157.916 350.6 158.699" fill="#E9D0C6"/>
<path d="M353.89 172.54C356.551 172.295 359.23 172.739 361.67 173.83C364.155 174.819 366.338 176.444 368 178.54C365.341 178.73 362.675 178.285 360.221 177.242C357.768 176.198 355.598 174.587 353.89 172.54V172.54Z" fill="#534741"/>
<path d="M334.71 163.67C337.368 163.475 340.034 163.918 342.487 164.962C344.939 166.005 347.107 167.619 348.81 169.67C346.152 169.93 343.472 169.485 341.04 168.38C338.56 167.381 336.379 165.758 334.71 163.67V163.67Z" fill="#534741"/>
<path d="M350.43 173.779C350.361 177.048 349.711 180.278 348.51 183.319C347.43 186.408 345.796 189.275 343.69 191.779C343.416 188.468 343.877 185.136 345.043 182.024C346.208 178.912 348.048 176.096 350.43 173.779V173.779Z" fill="#534741"/>
<path d="M360.85 148.43C360.779 151.702 360.125 154.936 358.92 157.98C357.841 161.07 356.212 163.94 354.11 166.45C353.754 163.136 354.214 159.785 355.45 156.69C356.558 153.541 358.41 150.707 360.85 148.43V148.43Z" fill="#534741"/>
<path d="M98.2798 183.429C96.1673 183.688 94.1507 184.462 92.4071 185.682C90.6635 186.903 89.2463 188.532 88.2798 190.429C87.3608 192.351 87.0199 194.499 87.2986 196.612C87.5773 198.724 88.4636 200.71 89.8498 202.329C91.0047 203.533 92.3577 204.531 93.8498 205.279C95.1377 206.021 96.535 206.554 97.9898 206.859C99.5302 207.136 101.112 207.082 102.63 206.699C105.812 205.854 108.529 203.78 110.182 200.932C111.835 198.084 112.29 194.696 111.445 191.514C110.6 188.331 108.526 185.614 105.678 183.961C102.83 182.308 99.4424 181.854 96.2598 182.699" fill="#E9D0C6"/>
<path d="M99.5498 196.62C102.209 196.427 104.876 196.871 107.33 197.914C109.784 198.958 111.954 200.571 113.66 202.62C110.998 202.881 108.315 202.436 105.88 201.33C103.401 200.329 101.221 198.707 99.5498 196.62V196.62Z" fill="#534741"/>
<path d="M80.3701 187.778C83.0296 187.585 85.6967 188.029 88.1505 189.073C90.6043 190.116 92.7741 191.729 94.4801 193.778C91.8187 194.034 89.1366 193.589 86.7001 192.488C84.2198 191.489 82.0395 189.867 80.3701 187.778Z" fill="#534741"/>
<path d="M96.0897 197.85C96.0216 201.122 95.3715 204.355 94.1697 207.4C93.0909 210.49 91.4613 213.36 89.3597 215.87C88.9986 212.556 89.4588 209.204 90.6997 206.11C91.7996 202.96 93.6495 200.125 96.0897 197.85V197.85Z" fill="#534741"/>
<path d="M106.51 172.51C106.442 175.783 105.789 179.017 104.58 182.06C103.501 185.15 101.871 188.02 99.7699 190.53C99.4145 187.213 99.8745 183.859 101.11 180.76C102.22 177.615 104.073 174.785 106.51 172.51V172.51Z" fill="#534741"/>
<path d="M182.9 117.059C167.62 124.709 154.79 132.849 147.79 148.239C140.79 163.629 140.71 182.3 149.23 196.92C155.79 208.19 166.79 216.339 174.34 226.979C183.184 239.458 186.988 254.816 184.99 269.979C181.99 291.519 167.52 310.699 166.89 332.419C166.7 339.209 168.19 346.569 173.31 351.139C177.01 354.439 182.04 355.799 186.88 357.049L274.55 379.849C276.704 380.576 278.99 380.825 281.25 380.579C283.586 380 285.683 378.707 287.25 376.879C295.12 368.569 295.33 355.579 292.05 344.689C289.201 335.269 284.203 326.639 277.45 319.479C273.51 315.289 269.01 311.639 265.16 307.379C246.68 286.779 246.66 254.839 258.03 229.779C266.9 210.209 281.85 193.109 286.58 172.199C287.991 165.934 288.437 159.49 287.9 153.089C287.33 146.349 285.56 139.479 281.3 134.169C278.1 130.169 273.7 127.309 269.19 124.819C256.091 117.723 241.68 113.378 226.842 112.05C212.004 110.723 197.05 112.441 182.9 117.099" fill="#E9D0C6"/>
<path d="M323.79 385.879C323.511 384.901 323.344 383.895 323.29 382.879C323.57 377.099 324.12 371.339 324.29 365.559C324.39 361.359 324 357.139 323.84 352.919C323.84 352.049 323.9 351.169 323.84 350.299C323.44 343.999 323.027 337.699 322.6 331.399C322.6 331.069 322.6 330.729 322.54 330.399C322.43 325.089 322.48 319.769 322.16 314.469C321.84 309.379 321.16 304.319 320.61 299.249C320.52 298.449 320.52 297.639 320.46 296.829C320.04 290.829 319.64 284.889 319.18 278.919C318.9 275.299 318.49 271.699 318.18 268.079C317.87 264.459 317.88 261.079 317.36 257.649C316.907 253.844 316.783 250.006 316.99 246.179C317.06 242.829 316.99 239.469 316.99 236.109C316.93 231.959 316.8 227.809 316.74 223.659C316.74 222.579 316.86 221.499 316.87 220.419C316.87 215.309 316.98 210.199 316.95 205.089C316.95 201.539 316.77 197.979 316.63 194.429C316.49 190.879 316.32 187.329 316.09 183.779C315.86 180.229 315.64 176.529 315.25 172.929C314.999 169.036 314.447 165.168 313.6 161.359C312.207 156.169 310.442 151.086 308.32 146.149C306.79 142.609 304.46 139.409 302.4 136.149C300 132.329 296.58 129.409 293.12 126.679C289.79 124.162 285.967 122.373 281.9 121.429C277.15 120.219 272.44 118.839 267.72 117.519C267.063 117.31 266.419 117.063 265.79 116.779C262.931 115.821 260.135 114.682 257.42 113.369C249.31 108.899 243.58 102.439 241.16 93.2493C240.16 89.6193 238.68 86.1393 238.78 82.2493C238.78 80.8393 238.64 79.4293 238.78 78.0293C238.944 77.3276 239.21 76.6538 239.57 76.0293L240.19 76.0893C240.35 76.6193 240.56 77.1393 240.68 77.6693C241.68 82.0593 242.3 86.5793 243.76 90.8193C245.001 94.5862 246.812 98.1407 249.13 101.359C252.419 105.767 256.893 109.148 262.03 111.109C267.4 113.159 273.03 114.639 278.5 116.319C281.89 117.319 285.33 118.239 288.7 119.319C289.625 119.732 290.497 120.252 291.3 120.869C294.355 122.579 297.144 124.725 299.58 127.239C301.76 129.679 304.09 131.979 306.35 134.359C306.633 134.657 306.872 134.994 307.06 135.359C309.23 139.689 311.25 144.099 313.58 148.359C315.91 152.619 316.66 157.469 317.8 162.169C318.435 165.263 318.819 168.404 318.95 171.559C319.27 175.779 319.553 180.003 319.8 184.229C320.01 187.909 320.17 191.599 320.31 195.289C320.5 200.109 320.77 204.929 320.8 209.759C320.8 215.199 320.59 220.629 320.55 226.069C320.5 232.989 320.48 239.899 320.55 246.809C320.55 250.439 320.84 254.059 321.08 257.679C321.32 261.299 321.64 264.769 321.94 268.319C322.26 272.139 322.6 275.949 322.94 279.759C323.22 283.039 323.497 286.319 323.77 289.599C324.13 293.809 324.46 298.029 324.82 302.239C325.31 307.799 325.96 313.339 326.29 318.899C326.57 323.899 326.39 328.899 326.63 333.829C326.85 338.309 327.37 342.829 327.75 347.259C327.775 347.729 327.775 348.2 327.75 348.669C327.65 354.379 327.6 360.099 327.41 365.799C327.3 369.079 326.79 372.349 326.75 375.619C326.71 378.889 325.4 382.049 324.69 385.249C324.594 385.475 324.462 385.685 324.3 385.869L323.79 385.879Z" fill="#534741"/>
<path d="M278.27 204.518C278.421 205.096 278.434 205.701 278.309 206.284C278.184 206.868 277.924 207.414 277.55 207.878C275.55 211.672 273.813 215.598 272.35 219.628C272.23 219.948 272.09 220.249 271.94 220.559C270.2 224.189 268.34 227.769 266.74 231.469C264.44 236.819 262 242.159 260.62 247.839C259.696 251.209 259.202 254.684 259.15 258.179C259.261 262.285 259.811 266.369 260.79 270.359C261.78 273.993 262.992 277.563 264.42 281.049C265.88 285.049 268.64 288.199 271.3 291.419C271.55 291.729 271.87 291.988 272.11 292.318C274.59 295.748 277.02 299.219 279.57 302.609C281.75 305.519 284.16 308.238 286.27 311.188C289.04 315.068 292.53 318.399 294.51 322.869C296.31 326.869 298.65 330.739 300.41 334.809C301.567 337.74 302.522 340.747 303.27 343.809C304.6 348.659 305.83 353.549 307.02 358.119C306.84 355.439 306.65 352.408 306.43 349.388C306.29 347.498 306.16 345.618 305.93 343.748C305.29 338.668 304.65 333.599 303.93 328.539C303.32 324.419 302.55 320.329 301.8 316.229C301.05 312.129 300.25 308.329 299.57 304.359C298.89 300.389 298.38 296.639 297.77 292.789C297.11 288.609 296.49 284.428 295.77 280.258C294.91 275.568 293.91 270.908 292.98 266.258C292.974 266.192 292.974 266.125 292.98 266.059C292.12 259.319 291.23 252.578 290.42 245.828C289.94 241.828 289.64 237.828 289.14 233.828C288.67 230.028 288.24 226.198 287.43 222.458C286.31 217.348 284.86 212.308 283.52 207.248C282.76 204.388 281.92 201.539 281.13 198.689C281.063 198.309 281.036 197.924 281.05 197.539L281.45 197.229C281.97 197.709 282.7 198.089 282.97 198.689C284.12 201.249 285.22 203.848 286.18 206.498C288.153 211.798 289.606 217.278 290.52 222.859C290.97 225.779 291.52 228.669 291.94 231.589C292.53 236.189 292.94 240.809 293.51 245.409C293.99 249.279 294.61 253.138 295.15 256.998C295.69 260.858 296.09 264.478 296.72 268.188C297.55 273.078 298.6 277.928 299.44 282.818C299.93 285.678 300.14 288.578 300.55 291.438C301.16 295.638 301.74 299.838 302.55 303.998C303.45 308.878 304.55 313.719 305.55 318.589C305.94 320.589 306.14 322.589 306.45 324.589C307.2 329.589 308.03 334.589 308.72 339.589C309.28 343.649 309.78 347.729 310.13 351.809C310.43 355.279 310.57 358.808 310.58 362.258C310.58 366.198 310.463 370.138 310.23 374.078C310.048 375.543 309.678 376.978 309.13 378.349C309.02 378.709 308.48 378.928 308.13 379.208C307.83 378.818 307.32 378.469 307.25 378.039C306.96 376.189 306.91 374.288 306.57 372.448C305.76 368.018 304.93 363.588 303.95 359.198C303.136 354.972 302.081 350.795 300.79 346.688C298.874 341.026 296.63 335.48 294.07 330.078C292.37 326.548 289.85 323.399 287.58 320.159C285.31 316.919 282.75 313.508 280.26 310.248C276.13 304.868 271.89 299.558 267.8 294.148C265.266 290.746 263.034 287.129 261.13 283.339C258.82 278.829 257.93 273.958 256.57 269.188C255.52 265.518 255.66 261.918 255.7 258.188C255.821 255.227 256.186 252.28 256.79 249.378C257.67 244.138 260.07 239.479 261.97 234.619C264.185 228.994 266.823 223.545 269.86 218.318C272.17 214.318 274.44 210.318 276.77 206.318C277.216 205.676 277.718 205.074 278.27 204.518V204.518Z" fill="#534741"/>
<path d="M196.79 81.1797C197.09 81.6297 197.45 81.9297 197.5 82.2797C197.97 86.0097 198.36 89.6397 196.57 93.2797C194.87 96.7697 192.11 99.0897 189.36 101.55C186.61 104.01 183.41 104.81 180.01 105.49C177.72 105.95 175.51 106.78 173.23 107.33C170.95 107.88 168.48 108.33 166.13 108.84C159.78 110.409 153.769 113.119 148.39 116.84C144.716 119.219 141.576 122.334 139.166 125.988C136.757 129.642 135.13 133.756 134.39 138.07C134.349 138.336 134.282 138.597 134.19 138.85C132.615 143.358 131.729 148.077 131.56 152.85C131.31 157.78 131.34 162.79 132.8 167.63C133.02 168.62 133.184 169.621 133.29 170.63C134.24 175.85 135.29 181.06 136.13 186.29C136.93 191.2 137.48 196.15 138.26 201.06C139.04 205.97 139.96 210.7 140.81 215.53C140.84 215.661 140.861 215.795 140.87 215.93C141.21 222.16 142.21 228.37 141.55 234.66C141.15 238.59 141.06 242.55 140.83 246.49C140.83 246.63 140.83 246.76 140.83 246.9C140.01 251.66 139.13 256.41 138.39 261.19C137.72 265.42 137.22 269.68 136.63 273.93C136.52 274.73 136.42 275.53 136.24 276.32C135.254 281.332 134.918 286.451 135.24 291.55C135.427 295.513 135.885 299.459 136.61 303.36C137.27 307.12 138.28 310.83 139.21 314.55C140.34 319.12 141.53 323.67 142.71 328.22C142.9 328.94 143.2 329.62 143.38 330.33C143.56 331.04 143.63 331.68 143.75 332.33L143.24 332.56C142.816 332.016 142.451 331.43 142.15 330.81C140.82 327.22 139.46 323.64 138.29 320C136.97 315.91 135.64 311.81 134.67 307.63C133.331 302.346 132.481 296.95 132.13 291.51C131.97 288.099 132.03 284.682 132.31 281.28C132.55 278.55 132.85 275.82 133.19 273.1C133.89 267.65 134.63 262.21 135.37 256.77C135.94 252.52 136.6 248.28 137.06 244.02C137.4 240.89 137.59 237.74 137.64 234.6C137.7 230.98 137.69 227.34 137.44 223.73C137.17 219.91 136.65 216.11 136.1 212.32C134.96 204.413 133.767 196.506 132.52 188.6C131.88 184.6 131.11 180.52 130.43 176.48C129.79 172.71 129.43 168.87 128.49 165.18C127.43 160.91 127.97 156.62 127.75 152.35C127.789 151.408 127.927 150.473 128.16 149.56C128.782 145.136 129.66 140.752 130.79 136.43C132.28 130.573 135.061 125.123 138.93 120.48C139.148 120.222 139.382 119.978 139.63 119.75C143.079 116.451 146.848 113.503 150.88 110.95C154.529 108.778 158.488 107.177 162.62 106.2C167.24 105.02 171.88 103.95 176.52 102.84L181.99 101.53C185.887 100.611 189.351 98.3855 191.806 95.223C194.26 92.0605 195.557 88.1523 195.48 84.1497C195.367 83.58 195.432 82.9895 195.667 82.4582C195.901 81.9269 196.293 81.4805 196.79 81.1797Z" fill="#534741"/>
<path d="M153.57 340.78C152.472 339.32 151.782 337.595 151.57 335.78C151.28 333.45 151.5 331.05 151.21 328.72C150.69 324.65 151.52 320.72 151.83 316.72C151.844 316.453 151.888 316.188 151.96 315.93C153.221 311.325 154.74 306.794 156.51 302.36C157.94 299.07 158.71 295.49 159.78 292.03C159.94 291.52 160.08 291.03 160.21 290.48C161.14 286.84 162.21 283.23 162.97 279.56C163.876 275.141 164.152 270.616 163.79 266.12C163.47 261.52 162.31 256.98 161.72 252.39C161.42 249.711 161.28 247.016 161.3 244.32C161.3 239.96 161.2 235.6 161.43 231.25C161.659 229.02 162.115 226.818 162.79 224.68C162.987 224.143 163.044 223.564 162.955 222.999C162.865 222.434 162.633 221.9 162.28 221.45C160.68 219.45 159.04 217.53 157.45 215.54C156.98 214.95 156.63 214.26 155.98 213.23C156.571 213.219 157.16 213.269 157.74 213.38C159.924 214.278 161.871 215.667 163.43 217.44C166.34 220.51 168.23 224.2 170.24 227.87C172.25 231.54 172.97 235.28 174.24 239.04C175.913 244.563 177.101 250.221 177.79 255.95C177.925 257.697 177.925 259.453 177.79 261.2C177.727 265.146 177.028 269.056 175.72 272.78C173.996 278.079 171.71 283.178 168.9 287.99C167.69 289.99 166.38 291.99 165.12 293.91C163.381 296.291 161.81 298.79 160.42 301.39C159.101 304.598 157.949 307.872 156.97 311.2C156.9 311.39 156.87 311.6 156.8 311.78C154.8 316.78 154.41 322 154.17 327.23C153.99 331.37 154.3 335.53 154.37 339.68C154.328 339.987 154.244 340.286 154.12 340.57L153.57 340.78ZM165.25 225.48H164.79C164.141 228.772 163.873 232.127 163.99 235.48C164.32 240.78 164.4 246.09 164.65 251.4C164.663 252.616 164.845 253.824 165.19 254.99C166.74 259.74 166.76 264.7 166.9 269.56C167.204 274.678 166.525 279.807 164.9 284.67C164.461 286.193 164.143 287.747 163.95 289.32C164.576 288.851 165.083 288.241 165.43 287.54C167.14 283.97 168.68 280.32 170.54 276.83C172.026 273.824 173.064 270.617 173.62 267.31C173.949 266.213 174.121 265.075 174.13 263.93C173.71 259.4 173.88 254.85 172.88 250.31C171.43 243.72 169.51 237.31 167.47 230.89C166.9 228.98 166 227.23 165.25 225.44V225.48Z" fill="#534741"/>
<path d="M206.51 200.459C206.291 200.904 206.008 201.316 205.67 201.679C203.76 203.259 201.89 204.919 199.85 206.309C197.3 208.049 194.64 209.639 191.94 211.149C189.057 212.62 185.928 213.548 182.71 213.889C176.03 214.889 169.99 213.299 164.2 209.889C158.41 206.479 154.79 201.559 152.47 195.339C151.082 191.276 150.176 187.063 149.77 182.789C149.006 176.686 150.252 170.5 153.32 165.169C154.32 163.409 155.42 161.749 156.51 160.079C156.766 159.676 157.107 159.335 157.51 159.079C157.645 158.999 157.796 158.952 157.953 158.942C158.109 158.931 158.266 158.958 158.41 159.019C158.529 159.123 158.623 159.253 158.685 159.398C158.747 159.543 158.776 159.701 158.77 159.859C158.697 160.254 158.562 160.636 158.37 160.989C157.23 163.699 155.88 166.339 154.96 169.119C153.087 174.248 152.795 179.821 154.12 185.119C155.06 188.559 155.56 192.119 156.85 195.429C158.592 199.922 161.874 203.651 166.11 205.949C166.81 206.339 167.49 206.789 168.18 207.209C172.039 209.573 176.548 210.655 181.06 210.299C185.526 210.067 189.88 208.818 193.79 206.649C197.22 204.649 200.62 202.649 204.05 200.649C204.73 200.33 205.436 200.069 206.16 199.869L206.51 200.459Z" fill="#534741"/>
<path d="M281.39 186.779C281.685 186.877 281.957 187.033 282.191 187.238C282.425 187.443 282.615 187.692 282.75 187.972C282.885 188.252 282.963 188.556 282.978 188.867C282.994 189.177 282.947 189.487 282.84 189.779C281.99 192.219 281.27 194.849 279.84 196.909C277.807 199.501 275.53 201.892 273.04 204.049C271.018 206.111 268.77 207.939 266.34 209.499C263.606 211.088 260.591 212.131 257.46 212.569C255.6 212.869 253.73 213.079 251.87 213.309C251.469 213.369 251.061 213.369 250.66 213.309C247.734 212.949 244.834 212.397 241.98 211.659C238.458 210.522 235.164 208.771 232.25 206.489C231.701 206.102 231.223 205.621 230.84 205.069C230.626 204.551 230.501 204 230.47 203.439C231.012 203.265 231.582 203.194 232.15 203.229C232.906 203.503 233.63 203.859 234.31 204.289C236.61 205.529 238.85 206.929 241.23 207.979C242.797 208.524 244.41 208.926 246.05 209.179C246.514 209.257 246.971 209.368 247.42 209.509C249.589 210.307 251.939 210.477 254.2 209.999C257.29 209.389 260.34 208.519 263.36 207.609C265.418 206.949 267.266 205.759 268.72 204.159C271.07 201.659 273.59 199.329 276 196.889C278.13 194.706 279.65 192.003 280.41 189.049C280.679 188.269 281.007 187.51 281.39 186.779V186.779Z" fill="#534741"/>
</svg>
