<svg width="458" height="458" viewBox="0 0 458 458" fill="none" xmlns="http://www.w3.org/2000/svg">
<path d="M174.307 75.6316L181.977 97.1516C185.547 107.152 189.127 117.232 191.227 127.662C197.747 160.112 189.527 193.602 179.567 225.162C173.667 243.902 167.047 262.952 167.747 282.582C168.117 292.782 170.457 302.812 173.307 312.582C182.366 343.666 196.533 373.027 215.227 399.462C216.917 401.842 218.767 404.302 221.467 405.392C226.467 407.392 231.867 403.992 235.797 400.342C251.177 386.052 259.737 366.062 267.877 346.702C278.497 321.432 289.287 295.412 289.997 268.012C291.197 221.622 263.387 176.812 270.807 131.012C273.027 117.312 278.367 104.142 279.197 90.2816C279.477 85.4916 279.037 80.2216 275.767 76.7116C273.487 74.2816 270.197 73.0916 266.977 72.2116C240.127 64.9216 211.837 74.0716 183.977 74.7716" fill="#E9D0C6"/>
<path d="M128.768 176.541C124.718 176.351 121.558 179.831 119.008 182.981C117.377 184.814 116.029 186.88 115.008 189.111C114.382 190.599 114.06 192.197 114.063 193.811C114.065 195.426 114.39 197.023 115.02 198.51C115.65 199.996 116.572 201.341 117.73 202.465C118.889 203.59 120.261 204.47 121.766 205.055C123.271 205.64 124.877 205.917 126.491 205.871C128.105 205.824 129.693 205.455 131.161 204.784C132.63 204.113 133.949 203.155 135.041 201.966C136.132 200.777 136.975 199.381 137.518 197.861C138.928 194.161 138.438 190.021 137.608 186.141C137.283 183.972 136.439 181.913 135.148 180.141C133.748 178.461 131.318 177.461 129.308 178.321" fill="#E9D0C6"/>
<path d="M314.178 146.881C312.79 148.482 311.813 150.396 311.331 152.459C310.848 154.521 310.875 156.67 311.408 158.721C312.002 160.764 313.176 162.592 314.787 163.982C316.399 165.371 318.379 166.264 320.488 166.551C323.647 166.733 326.796 166.041 329.588 164.551C330.917 163.731 332.058 162.641 332.938 161.351C336.648 155.941 335.028 147.611 329.548 144.001C326.739 142.295 323.385 141.728 320.172 142.416C316.959 143.104 314.131 144.995 312.268 147.701" fill="#E9D0C6"/>
<path d="M4.87747 260.471C5.13747 261.051 5.52748 260.661 5.25748 258.991L4.39746 257.881L4.87747 260.471Z" fill="#1F686A"/>
<path d="M5.00781 249.031C4.45781 247.091 3.59781 244.881 3.00781 246.221C3.90781 248.111 3.6678 248.611 4.7178 250.631C4.9678 252.301 4.78782 253.631 4.48782 253.331C4.74782 253.911 4.6178 255.961 5.1778 256.811C5.45045 254.172 5.20588 251.506 4.45779 248.961C4.60779 248.321 4.85781 248.901 5.00781 249.031Z" fill="#1F686A"/>
<path d="M48.1778 94.541L47.4678 95.331C47.7206 95.0826 47.9577 94.8188 48.1778 94.541V94.541Z" fill="#1F686A"/>
<path d="M125.167 29.5712C124.487 29.9512 124.237 30.1612 124.237 30.2412C124.847 29.8612 125.347 29.5512 125.167 29.5712Z" fill="#1F686A"/>
<path d="M141.157 22.9316L140.157 23.2816C140.509 23.2265 140.848 23.1079 141.157 22.9316V22.9316Z" fill="#1F686A"/>
<path d="M48.1777 94.5406L49.9878 92.5406C49.9178 92.2106 49.0177 93.5106 48.1777 94.5406Z" fill="#1F686A"/>
<path d="M1.36719 226.461C1.42034 226.96 1.51061 227.455 1.63721 227.941L1.48721 226.541C1.4429 226.521 1.40228 226.494 1.36719 226.461V226.461Z" fill="#1F686A"/>
<path d="M25.6173 133.131L25.2873 133.881C25.2623 134.13 25.2623 134.381 25.2873 134.631L25.6173 133.131Z" fill="#1F686A"/>
<path d="M13.5681 165.201C13.8081 164.471 13.2881 164.031 13.1081 163.661C13.2174 164.242 13.1934 164.841 13.0381 165.411C13.1481 165.461 13.3181 165.401 13.5681 165.201Z" fill="#1F686A"/>
<path d="M3.61719 218.61L3.71719 219.61C3.69719 219.33 3.64719 218.91 3.61719 218.61Z" fill="#1F686A"/>
<path d="M37.458 111.631C37.591 111.621 37.7173 111.568 37.818 111.481C37.748 111.441 37.618 111.511 37.458 111.631Z" fill="#1F686A"/>
<path d="M201.017 455.781C201.017 455.781 201.017 455.701 201.017 455.661C200.827 455.721 200.757 455.721 201.017 455.781Z" fill="#1F686A"/>
<path d="M162.268 444.471L162.808 444.601C162.899 444.518 162.971 444.415 163.018 444.301L162.268 444.471Z" fill="#1F686A"/>
<path d="M171.227 13.4805H171.087C170.307 13.7805 170.757 13.6505 171.227 13.4805Z" fill="#1F686A"/>
<path d="M420.668 115.501C419.508 112.361 423.958 119.781 422.028 115.171C422.038 115.721 418.938 111.721 420.668 115.501Z" fill="#1F686A"/>
<path d="M1.39777 225.561C1.39777 225.091 1.32779 224.561 1.32779 224.131C1.32286 224.608 1.34621 225.086 1.39777 225.561V225.561Z" fill="#1F686A"/>
<path d="M422.027 115.17L421.817 114.69C421.907 114.89 421.947 115 422.027 115.17Z" fill="#1F686A"/>
<path d="M243.157 6.19131C242.937 6.04284 242.694 5.93138 242.438 5.86133C242.457 5.92133 242.617 6.01131 243.157 6.19131Z" fill="#1F686A"/>
<path d="M189.098 8.24155L190.438 8.10156C189.878 8.14156 189.448 8.19155 189.098 8.24155Z" fill="#1F686A"/>
<path d="M271.197 8.90039C271.826 9.09645 272.472 9.23042 273.127 9.30038C273.039 9.24728 272.945 9.20373 272.847 9.17041C272.286 9.17763 271.727 9.08622 271.197 8.90039V8.90039Z" fill="#1F686A"/>
<path d="M299.578 16.3803L299.098 16.0903L298.208 15.8203L299.578 16.3803Z" fill="#1F686A"/>
<path d="M291.207 448.281C290.709 448.302 290.21 448.248 289.727 448.121C290.287 448.421 286.097 449.771 291.207 448.281Z" fill="#1F686A"/>
<path d="M1.71747 226.431C1.51716 226.184 1.40457 225.878 1.39746 225.561L1.48749 226.561C1.57749 226.631 1.66747 226.641 1.71747 226.431Z" fill="#1F686A"/>
<path d="M273.328 4.28125C274.898 4.56125 276.428 5.03127 277.968 5.39127C276.441 4.94295 274.893 4.57246 273.328 4.28125Z" fill="#1F686A"/>
<path d="M442.798 307.251L442.468 308.251C442.625 307.935 442.736 307.598 442.798 307.251Z" fill="#1F686A"/>
<path d="M291.708 8.79102C292.498 9.23595 293.32 9.62038 294.168 9.94101C294.361 9.96153 294.555 9.96153 294.748 9.94101L291.708 8.79102Z" fill="#1F686A"/>
<path d="M259.307 455.88C263.827 455.33 261.307 454.82 262.207 454.23C267.497 453.14 264.767 454.41 266.657 454.52C269.957 453.7 272.367 452.52 274.847 452.08C275.057 452.17 275.537 452.08 275.017 452.41C278.347 450.91 285.387 450.13 289.137 448.07C289.328 448.027 289.526 448.027 289.717 448.07C288.957 447.85 288.717 447.48 288.797 447.16C290.737 446.59 292.257 445.64 293.137 445.94C292.493 446.085 291.896 446.388 291.397 446.82L293.397 446.02C295.447 446.23 290.687 447.02 290.847 447.61C292.797 446.9 294.907 446.15 296.847 445.32C298.582 444.539 300.366 443.871 302.187 443.32C303.067 443.82 295.247 445.94 299.467 445.22C297.877 445.64 296.317 446.13 294.707 446.45C298.707 446.56 291.807 447.19 295.507 447.45C301.747 445.64 302.297 444.86 308.447 442.87C309.657 441.94 307.787 442.46 308.997 441.54C317.217 437.48 316.467 440.72 322.227 437C323.607 435.79 323.857 434.74 328.377 433.09L327.277 434.72C332.917 431.94 329.917 432 336.017 429.52C335.137 430.35 331.767 432.01 332.657 431.67C336.747 430.3 335.137 429.92 337.977 428.33L338.977 428.66C341.827 426.91 344.837 425.1 347.797 423.06L356.797 416.74C356.587 417.16 355.687 418.09 357.227 417.28C364.687 411.67 373.337 405.59 380.347 399.88C381.057 398.95 381.817 398.08 382.487 397.12C383.067 396.57 383.757 396.31 383.217 397C385.927 394.76 383.067 396.57 384.107 395.22C385.517 393.81 386.277 393.67 385.497 394.69L389.167 390.62L393.447 385.75C396.447 382.5 399.377 379.11 401.767 376.86L401.077 377.95C402.337 376.665 403.393 375.195 404.207 373.59C404.928 372.03 405.947 370.627 407.207 369.46L406.737 370.24C408.467 368.1 410.307 365.96 411.917 363.65C413.527 361.34 415.177 359.06 416.747 356.83L421.137 350.3C422.577 348.3 423.937 346.37 425.137 344.65C425.137 342.81 430.937 335.39 429.987 334.08C433.357 328.76 432.987 330.59 436.987 322.67C437.987 320.52 437.747 319.14 438.727 316.39L439.377 316.58L440.167 312.58L441.707 310.91L442.547 308.29C442.107 309.29 441.407 310.35 441.287 310.12C441.967 308.12 442.957 305.68 443.787 303.76C444.213 302.569 444.827 301.455 445.607 300.46C446.607 297.21 447.277 293.89 448.007 290.58C448.207 290.87 447.837 292.53 447.637 293.88C448.447 288.47 448.637 293.13 449.347 288.17C449.007 288.77 449.047 287.72 448.947 287.58C450.087 285.32 451.227 279.79 452.027 275.7L452.317 276.58C453.207 272.91 453.727 268.96 454.417 264.93C455.107 260.9 455.347 256.69 455.917 252.5C455.317 255.5 454.587 254.7 454.817 252.24C455.107 251.94 455.357 251.64 455.627 251.33C455.307 249.7 455.157 253.88 454.867 250.56C455.187 247.44 455.867 248.56 455.937 250.35V246.5C456.167 246.3 456.207 247.2 456.467 247.5C456.097 245.9 457.787 240.93 456.987 238.61L457.207 238.4C457.307 234.17 457.367 231.09 457.317 228.21C457.267 225.33 457.077 222.66 456.937 219.21C456.317 219.1 456.387 216.4 455.687 214.39C455.627 211.87 455.557 209.2 455.497 206.39C455.437 203.58 455.047 200.69 454.657 197.67C453.817 193.47 453.977 196.5 453.367 194.67C453.937 194.27 452.777 188.3 453.747 191.34L452.097 182.9C451.467 180.41 450.707 177.69 449.447 173.25C449.447 174.25 449.597 175.4 449.277 174.88C448.817 173.27 448.647 171.12 448.947 171.29L449.127 171.7C445.717 161.95 443.677 148.29 439.337 141.07L439.557 141.48C438.347 138.88 436.867 136.41 435.557 133.89C434.027 130.26 436.917 135.89 436.037 133.06C431.277 125.06 429.717 119.88 425.327 113.61C424.667 110.61 421.737 106.21 418.697 101.61C417.137 99.35 415.397 97.14 413.897 94.99C413.147 93.91 412.437 92.87 411.787 91.87C411.137 90.87 410.497 89.98 409.987 89.11V89.72C408.407 88.34 408.627 87.62 407.757 86.37C407.647 86.73 408.857 88.37 407.897 87.47C402.407 80.72 396.437 74.02 390.327 67.34C384.123 60.7552 377.524 54.5538 370.567 48.77C365.447 44.66 366.497 47.99 360.347 42.48L362.677 43.24C351.517 36.24 340.157 28.24 328.177 23.34C328.876 23.4059 329.555 23.6062 330.177 23.93C328.037 22.09 321.027 19.66 320.837 20C319.027 19.13 320.577 19.45 319.537 18.73C317.187 17.24 312.907 16.79 311.777 15.73C311.577 15.56 312.547 15.85 313.037 16C311.287 15.57 305.317 12.9 306.697 14.1C302.187 12.32 297.867 11.29 294.257 9.92001C291.647 9.92001 286.367 7.33 285.347 8.06C285.947 7.17 277.267 5.34999 274.187 5.14999C275.257 5.02999 271.637 4.36999 272.897 4.14999C269.447 3.54999 266.257 3.15 266.777 3.78C263.717 2.56 260.447 2.42999 257.567 2.26999C254.687 2.10999 252.177 1.86999 250.437 1.01999C245.227 0.919989 240.247 0.629998 235.377 0.809998L228.187 0.890015L221.187 1.26001C221.497 0.26001 231.467 0.93 231.077 0C222.197 0.36 217.157 1.43 208.417 1.87C206.137 1.87 209.657 1.35 210.417 1.12C206.017 1.54 201.787 2.21 197.657 2.63C193.527 3.05 189.587 3.93001 185.757 4.82001C186.258 4.55281 186.798 4.36713 187.357 4.26999C185.827 4.51999 183.787 4.82999 184.047 5.26999L185.497 4.84C188.027 4.97 179.767 7.47 179.587 7.84C181.857 5.98 171.977 9.21 175.647 6.66C174.647 7 173.497 7.53999 173.797 7.76999C172.317 8.06999 171.797 8.02001 173.207 7.29001C167.897 8.95001 169.917 8.88001 165.087 10.2C165.087 9.97001 165.987 9.60001 166.417 9.20001C163.638 10.6398 160.711 11.7731 157.687 12.58C157.887 12.38 157.367 12.36 158.577 11.99C155.436 13.0571 152.364 14.3161 149.377 15.76C146.437 17 143.517 18.47 139.747 19.76C141.547 17.98 137.117 20.51 136.397 19.92L132.597 21.97L134.327 21.6C130.937 23.22 128.137 25.05 125.187 26.38L127.507 24.78L121.347 28.19L124.897 26.72C121.737 28.87 125.737 27.47 121.217 29.58C122.067 29.02 117.897 31.29 116.007 31.91C114.332 33.3152 112.496 34.5169 110.537 35.49C109.777 35.63 110.537 34.42 110.067 34.49C108.857 36.03 102.747 39.4 101.227 41.29C101.757 40.7 101.567 40.29 101.297 40.39L100.357 41.74C98.8372 42.6 98.5772 42.67 98.6072 42.22C94.2872 45.22 100.607 42.12 95.2572 45.34C95.5392 45.0193 95.8397 44.7155 96.1572 44.43C93.6324 46.0991 91.2204 47.9331 88.9372 49.92L82.2072 55.41C80.3872 55.87 85.8872 52 83.9672 52.72C77.7172 58.18 71.6572 64.66 66.0372 70.31L67.1472 69.31C67.2272 70.93 62.4972 73.09 60.2572 76.54C60.8572 75.74 60.6472 75.13 60.5672 75.42C56.7172 79.34 53.3172 83.99 48.5672 90.76L48.9472 89.76C46.8272 92.19 43.6372 96.4 41.6272 99.25C41.2972 100.25 40.1272 101.9 41.1772 101.15C37.3572 105.04 34.9472 109.62 32.5572 113.97C30.5132 118.384 28.1538 122.645 25.4972 126.72C26.0072 125.72 26.4972 124.17 26.0672 124.98C24.9572 127.46 23.7672 129.89 22.7072 132.39C23.4272 132.02 23.4272 131.55 24.5572 130.2C24.1128 131.93 23.5241 133.619 22.7972 135.25C23.9772 131.79 22.0372 134.93 21.1372 136.25C21.3872 136.08 21.3272 136.64 21.5272 136.58C18.9872 140.1 22.1172 137.58 19.3272 142.69L19.1872 142.3C18.6303 144.394 17.9627 146.457 17.1872 148.48C16.2772 149.17 17.7672 146.25 17.3672 145.93C16.846 147.461 16.412 149.02 16.0672 150.6C15.8162 152.119 15.3232 153.587 14.6072 154.95C14.9072 153.59 15.5272 151.69 15.8572 150.32C14.7715 152.025 13.911 153.864 13.2972 155.79L13.3972 155.57C12.7072 157.3 11.9672 159.01 11.3272 160.75C11.5072 160.31 11.7172 159.88 11.9272 159.46C11.9637 161.632 11.6254 163.793 10.9272 165.85C10.1099 168.209 9.59574 170.662 9.39719 173.15C9.73719 167.71 9.07721 172.15 8.51721 171.59C8.00721 172.91 7.2972 174.96 7.2572 174.32C7.2072 177 5.70719 178.46 5.80719 182.27C5.56719 182.39 5.25719 185.02 4.80719 184.33C4.32719 187.71 5.3272 183.61 5.5372 183.95C5.1772 189.19 2.4872 195.95 2.5372 203.57C2.1172 210.04 2.71721 211.39 3.01721 217.35C2.65721 219.35 2.24719 215.69 2.24719 215.69C1.92536 218.631 1.97575 221.601 2.39719 224.53C2.18719 223.91 2.03721 224.53 1.85721 225.53C2.05721 228 2.70719 227.14 2.61719 230.42C2.17775 229.661 1.84145 228.848 1.61719 228C1.99719 230.91 2.61721 233.76 3.04721 236.75C2.73721 237.58 2.32719 234.98 1.99719 233.94C2.42719 237.31 3.0872 242.68 3.7872 243.66V241.42C3.9272 242.65 3.33719 242.1 3.14719 241.2C2.39719 238.35 2.99719 237 3.14719 236.82L3.46719 238.95C4.54719 236.65 2.5272 230.37 2.4072 226.03L3.4072 227.78L2.4072 223.39C2.6072 222.39 3.0972 221.77 3.3172 223.9C3.6572 220.79 2.8772 221.17 3.3172 218.5C3.3872 218.21 3.4372 218.34 3.4772 218.61C3.3672 217.61 3.29718 216.61 3.20718 215.61C3.39718 216.2 3.86719 215.12 3.71719 216.96C4.24719 211.61 3.46721 208.25 4.41721 206.3V206.72C5.06721 199.2 3.8272 205.92 3.7572 200.21L6.0972 196.72L5.52719 195.9C5.66719 195.13 5.93721 193.62 6.16721 193.9C6.16721 190.98 5.80719 194.34 5.61719 192.62C6.75719 189.02 7.23721 182.43 8.41721 181.81C8.16721 180.39 7.3472 185.24 7.7572 181.25C9.0872 180.37 8.62719 176.71 9.93719 173.51C10.2672 174.68 9.20719 177.73 10.5272 174.51C10.4122 173.008 10.6806 171.5 11.3072 170.13C11.9966 168.584 12.5715 166.99 13.0272 165.36C12.6672 165.19 13.0272 163.66 13.6072 161.6C14.1872 159.54 15.1972 156.98 15.8272 154.65C15.9272 154.85 16.6972 152.71 17.8272 150.08C18.9572 147.45 20.3572 144.27 21.3072 142.25L21.3872 142.42C20.9372 141.3 23.0072 137.15 24.2172 134C24.6072 134.33 24.5372 135 23.9872 136.71L25.2772 133.83C25.4594 132.565 25.8658 131.342 26.4772 130.22L26.6672 131.22C28.5272 127.47 29.7572 123.29 32.8372 118.81C32.4972 118.25 29.3372 121.81 31.8372 116.6C32.2072 116.6 32.7672 116.6 32.1472 118.01C32.4642 117.147 32.8768 116.322 33.3772 115.55L32.7072 117.81C34.1072 115.81 32.9672 116.47 33.9672 114.81C34.3172 115.05 34.9672 113.71 35.1472 114.13C34.6526 114.795 34.2334 115.513 33.8972 116.27C34.8736 114.579 36.0707 113.025 37.4572 111.65C37.1472 111.65 36.9572 111.34 37.7672 109.93C39.9572 106.34 38.9772 108.99 40.4572 107.03C40.7472 106.03 42.5372 103.98 42.0272 103.55C42.3907 102.979 42.907 102.522 43.5172 102.23C44.0272 101.23 45.3972 99.12 46.5172 97.51C47.6372 95.9 48.3672 94.71 47.3472 95.51L46.9772 95.93C47.0272 95.84 47.0972 95.74 47.1672 95.63C49.1056 92.5094 51.3356 89.5796 53.8272 86.88L57.4972 82.72C58.7072 81.36 59.9572 80.04 61.0872 78.67L61.2372 78.83C63.8172 75.45 67.5572 71.83 69.3472 69.36C70.2272 68.47 71.6972 67.54 71.5072 68.11C73.3079 66.0167 75.3184 64.1134 77.5072 62.43C75.3872 64.93 78.5072 61.91 75.2672 64.9C78.4672 62.18 79.3572 61.77 82.4172 58.42C81.6172 59.84 85.2672 56.92 86.6772 55.5L84.1872 57.09C85.6988 55.6817 87.3023 54.3755 88.9872 53.18L88.5972 54.42C92.2672 52.16 94.9972 49.42 97.8072 47.14C100.617 44.86 103.157 42.63 106.337 41.54C107.967 39.88 102.237 43.76 103.597 42.16C106.987 40.1 110.987 38.75 112.037 38.16C116.897 35.82 115.807 34.65 120.877 32.16C120.117 32.26 119.157 31.97 122.807 29.78C126.367 28.01 127.617 28.49 125.517 29.84C124.687 30.3 124.247 30.44 124.237 30.34C123.147 31.02 121.727 31.9 123.237 31.42L123.567 30.95C125.427 30.28 130.207 27.73 129.277 28.72C131.867 27.25 130.227 27.72 128.197 28.64C132.927 26.81 135.307 25.18 140.197 23.38C139.377 23.56 138.547 23.57 139.307 23.26C146.487 20.63 142.227 21.51 146.977 19.41C149.887 18.77 146.327 20.66 151.107 18.57C154.187 17.74 151.977 19 150.867 19.63C152.838 18.6909 154.894 17.9409 157.007 17.39C158.917 16.95 160.617 16.67 161.917 16.32L159.607 17.26C160.987 16.7 162.147 16.34 163.337 15.97L161.817 15.89C163.247 15.54 164.427 15.17 164.467 15.39C165.807 14.61 163.107 14.9 165.837 13.55C167.837 13.25 171.537 11.75 172.357 12.24C166.357 13.57 173.187 12.75 168.197 14.17C169.364 13.7803 170.557 13.4729 171.767 13.25C171.997 13.25 171.607 13.44 171.227 13.58C177.067 12.76 173.607 11.99 179.567 10.74C178.897 11.29 181.107 11.18 182.057 10.89C179.667 11.39 180.777 10.49 182.917 9.73001C186.797 9.19001 187.037 8.63 189.067 8.34L186.737 8.57999C187.447 8.05999 189.387 7.80001 192.067 7.23001C192.347 7.49001 189.657 7.84 190.637 7.81C193.527 6.63 197.497 7.37001 201.637 6.48001C203.637 6.48001 201.907 7.19999 203.637 7.17999C208.267 6.07999 208.757 7.18001 213.637 6.42001C212.177 5.99001 211.927 6.14001 215.387 5.42001L207.267 6.36002L212.437 5.23001C209.977 5.42001 207.257 5.86 205.787 6C208.227 5.27 207.997 5.50001 206.787 5.14001C210.237 5.67001 213.467 4.20001 217.407 4.45001L217.357 5.76999C223.217 6.21999 227.747 4.69999 235.357 5.32999L232.907 5.04001C233.907 4.55001 237.617 5.04001 240.097 4.95001C239.847 5.37001 241.377 5.65 242.407 6C242.307 5.66 247.957 6.45 248.727 5.63C249.837 5.93 250.957 6.14 252.057 6.5C258.057 7.57 259.197 6.03001 265.057 7.17001C263.217 7.34001 265.827 8.08 261.867 7.78C263.867 8.07 265.537 8.50001 265.627 8.20001C266.707 8.67001 271.127 8.58 272.837 9.31C273.954 9.04732 275.12 9.08529 276.217 9.42001C276.427 9.56001 276.157 9.63 276.157 9.63C276.157 9.42 279.617 10.13 277.827 9.22C280.657 10.58 284.827 11.43 288.827 12.61C290.827 13.16 292.827 13.69 294.607 14.25C296.166 14.759 297.667 15.4293 299.087 16.25L305.657 18.25L311.817 20.55C311.537 20.55 311.727 20.75 311.047 20.43C315.917 22.81 314.657 20.43 320.107 23.38C322.687 25.38 316.967 22.38 318.647 23.44C318.807 25.15 325.557 26.19 328.827 28.95L327.897 28.57C330.467 30.47 335.057 31.5 339.447 34.26C339.447 34.26 339.167 34.26 339.317 34.43C341.557 35.2189 343.731 36.1853 345.817 37.32C348.217 38.65 350.737 40.13 352.897 41.4C351.277 41.03 350.827 40.4 351.307 41.4C353.217 42.56 351.307 40.24 355.087 42.6C356.087 43.69 358.567 45.78 358.557 46.52L355.117 44.12C356.417 46.01 359.557 47.24 361.277 48.64L360.847 48.75C366.037 52.52 366.627 51.92 371.987 56.3L371.617 55.63C375.037 57.45 373.697 58.08 376.977 60.07L377.257 61.47C379.347 62.86 384.197 66.83 387.597 69.78C385.297 68.48 381.287 65.11 378.677 63.17C380.467 64.87 384.787 68.91 386.027 69.49C385.141 68.8676 384.32 68.1573 383.577 67.37C385.103 68.2851 386.549 69.3289 387.897 70.49C389.397 71.81 390.997 73.38 392.697 75.17C390.957 75.6 401.037 84.99 402.157 88.69C405.113 91.9205 407.79 95.3963 410.157 99.08C411.387 100.96 412.697 102.83 413.937 104.83C415.177 106.83 416.437 108.91 417.817 111.03C417.007 107.3 419.447 113.49 420.267 112.26C420.95 113.193 421.527 114.199 421.987 115.26L424.857 121.86C425.357 123.52 423.477 120.07 423.317 120.4C425.777 124.92 423.857 122.57 425.127 125.74C425.247 124.89 426.567 127.01 427.737 129.74L426.407 125.74C430.347 131.83 428.287 131.74 431.887 138.05L430.557 136.14C431.397 137.8 432.937 140.86 434.257 144.01C435.318 146.725 436.659 149.322 438.257 151.76C438.337 152.44 438.257 153.38 437.637 151.88C440.447 160.28 444.947 170.37 445.737 177.33L445.257 176.75C445.727 178.34 446.517 179.43 446.657 181.53C446.497 181.45 446.187 180.94 446.337 181.7C447.147 183.762 447.705 185.914 447.997 188.11L447.297 186.33C448.497 194.91 450.297 199.33 451.417 206.58C450.417 206.66 450.647 213.49 450.747 216.89L450.597 216.78C450.697 221.78 451.067 226.09 451.307 230.29C451.397 234.48 451.837 238.62 451.607 243.29C450.267 249.02 449.377 262.88 446.877 271.93C447.307 270.56 447.597 272.3 447.387 273.93C446.697 276.02 446.677 279.99 445.887 279.45L446.077 278.69C444.827 280.1 444.157 284.55 443.077 287.9L444.077 288.77C442.99 291.122 442.062 293.544 441.297 296.02C440.367 298.63 439.527 301.39 438.727 304.02C437.017 309.25 435.287 313.95 433.657 316.02C433.007 318.16 431.877 320.67 431.237 322.8L430.717 322.42C429.417 325.21 428.287 327.22 427.137 329.42C425.987 331.62 424.897 334.05 423.007 337.35L423.387 335.79C421.217 339.47 422.267 341.37 420.307 344.79L418.877 345.31C416.877 348.45 414.717 351.57 412.497 354.59C410.248 357.571 408.152 360.666 406.217 363.86C406.217 363.68 406.097 363.34 406.817 362.37C404.637 365.14 397.907 372.64 399.627 372.37C398.877 371.85 394.627 378.24 392.017 381.37V380.5C390.725 383 389.093 385.309 387.167 387.36C386.287 388.08 386.167 387.71 387.287 386.75C384.367 389.16 385.577 389.21 382.037 392.15L383.037 390.68C381.539 391.907 380.278 393.399 379.317 395.08C377.637 396.87 373.627 399.8 372.837 399.75C372.044 401.242 370.871 402.497 369.437 403.39C369.057 403.39 369.637 402.8 369.927 402.49C364.557 406.17 362.797 409.08 358.747 411.13C358.608 411.09 358.461 411.081 358.318 411.104C358.175 411.126 358.038 411.179 357.917 411.26C362.177 408.35 365.417 405.76 365.137 406.04C364.787 405.59 361.467 408.04 363.587 405.41C360.596 408.618 357.263 411.488 353.647 413.97C353.471 414.043 353.286 414.09 353.097 414.11L353.407 413.82C352.669 414.249 351.966 414.737 351.307 415.28C350.167 415.9 349.437 416.28 348.387 416.95C347.707 416.78 344.297 419.38 342.447 420.32C342.917 420.77 340.507 422.04 342.977 421.22C342.667 421.34 343.277 420.96 344.467 420.22C344.686 420.064 344.896 419.898 345.097 419.72L345.007 419.84L349.327 417.02C347.997 418.379 346.428 419.481 344.697 420.27C343.987 421.16 343.177 422.09 342.697 422.59C339.767 423.25 334.827 425.59 333.867 425.45C331.127 427.03 327.867 428.81 324.867 430.45C322.248 431.674 319.765 433.169 317.457 434.91C316.647 435.428 315.681 435.644 314.727 435.52C315.601 435.131 316.44 434.669 317.237 434.14C314.067 435.91 307.367 438.21 306.857 439.34C302.467 440.58 309.027 437.83 303.167 440L303.877 439.49C301.107 440.122 298.387 440.955 295.737 441.98C293.247 442.89 290.857 443.77 288.437 444.72L284.747 446.11C283.477 446.52 282.157 446.89 280.747 447.24C277.747 448.047 274.676 448.563 271.577 448.78C272.12 448.69 272.674 448.69 273.217 448.78C257.877 451.17 241.457 454.05 226.057 452.78C221.707 452.48 221.217 452.97 218.537 453.26L217.627 452.55C216.097 452.75 214.567 452.91 213.027 453.06C206.507 453.15 202.027 450.52 193.837 450.36L194.837 450.97C191.937 450.47 185.597 449.68 186.177 449.25C185.468 449.41 184.727 449.343 184.057 449.06V448.72C181.657 448.453 179.261 448.14 176.867 447.78C171.487 446.22 178.017 446.68 170.157 444.59C167.217 443.95 161.597 443.18 162.617 443.73C163.787 444.09 165.557 444.83 165.547 445.19L162.827 444.58C162.047 445.42 159.637 445.83 166.087 448.46C167.697 448.68 169.297 448.93 170.907 449.11L172.287 449.99L168.347 448.99C169.997 449.77 171.803 450.16 173.627 450.13C174.156 450.599 174.786 450.941 175.467 451.13C177.087 451.18 178.697 451.2 180.307 451.21C180.787 451.73 178.057 451.54 181.127 452.44C183.387 452.44 179.227 451.12 182.877 451.56C185.047 452.46 184.317 452.74 187.047 452.83C187.377 453.16 186.777 453.22 185.707 453.15C188.137 453.28 192.017 454.15 193.337 453.76C195.617 454.76 201.407 454.76 201.057 455.64C203.221 455.443 205.397 455.403 207.567 455.52C203.427 456.37 215.817 456.25 214.677 457.38C217.727 456.51 225.527 457.43 230.837 456.68C230.407 456.834 229.954 456.912 229.497 456.91C231.435 456.95 233.368 457.104 235.287 457.37C235.647 456.46 240.287 456.25 242.737 455.44C246.427 456 240.587 456.63 241.737 457.34C241.517 456.65 248.037 456.16 246.737 455.67C249.567 455.97 249.157 455.74 250.667 456.35C251.057 455.26 253.247 455.89 255.477 454.93C259.557 454.93 256.637 455.81 261.017 454.93C263.197 455 259.307 455.88 259.307 455.88ZM356.617 416.52C355.887 417.07 355.257 417.52 354.837 417.78C355.227 417.55 355.747 417.19 356.617 416.52ZM363.837 411.38L360.687 413.59C360.307 413.59 360.457 413.22 361.187 412.71C360.877 413.11 362.647 412 363.837 411.38ZM346.097 418.23C347.207 417.42 347.657 417.23 347.887 417.23L345.887 418.59L345.797 418.74C345.857 418.549 345.96 418.375 346.097 418.23V418.23Z" fill="#1F686A"/>
<path d="M344.388 420.27L343.918 420.59C344.188 420.49 344.448 420.41 344.698 420.29L345.008 419.86L344.388 420.27Z" fill="#1F686A"/>
<path d="M47.348 95.4711L47.468 95.3311C47.379 95.4297 47.2782 95.517 47.168 95.5911C47.2256 95.5476 47.2857 95.5075 47.348 95.4711V95.4711Z" fill="#1F686A"/>
<path d="M439.448 316.591L439.298 316.541L439.138 317.321L439.448 316.591Z" fill="#1F686A"/>
<path d="M21.0975 136.201C20.9319 136.35 20.7932 136.526 20.6875 136.721C20.8484 136.568 20.9865 136.393 21.0975 136.201V136.201Z" fill="#1F686A"/>
<path d="M13.3175 155.721L12.1475 158.471C12.6875 157.311 13.0975 156.441 13.3175 155.721Z" fill="#1F686A"/>
<path d="M8.34766 171.161C8.36909 171.303 8.43168 171.435 8.52765 171.541V171.541L8.34766 171.161Z" fill="#1F686A"/>
<path d="M187.237 4.30996L187.847 4.17996C189.277 3.82996 188.297 4.03996 187.237 4.30996Z" fill="#1F686A"/>
<path d="M116.018 31.8613C116.658 31.3513 117.298 30.8613 118.018 30.3613C116.788 31.0113 115.868 31.5313 116.018 31.8613Z" fill="#1F686A"/>
<path d="M272.817 4.18164L273.337 4.27164L272.817 4.18164Z" fill="#1F686A"/>
<path d="M121.098 28.7207C119.995 29.1651 118.943 29.7249 117.958 30.3907C118.978 29.8307 120.188 29.3107 121.098 28.7207Z" fill="#1F686A"/>
<path d="M2.37793 240.851L2.42792 241.621C2.42792 241.621 2.49793 241.621 2.53793 241.711L2.37793 240.851Z" fill="#1F686A"/>
<path d="M2.53809 241.721L2.68808 242.571C2.68542 242.281 2.63473 241.994 2.53809 241.721V241.721Z" fill="#1F686A"/>
<path d="M3.00751 244.351L2.6875 242.561C2.69939 243.17 2.80739 243.774 3.00751 244.351Z" fill="#1F686A"/>
<path d="M1.3374 219.44L1.10742 219.19C1.12047 219.249 1.1486 219.302 1.18896 219.346C1.22933 219.39 1.28051 219.423 1.3374 219.44V219.44Z" fill="#1F686A"/>
<path d="M1.33804 212.86C1.03075 214.889 0.8936 216.939 0.928036 218.99L1.10806 219.19C0.71806 218.17 1.64804 214.36 1.33804 212.86Z" fill="#1F686A"/>
<path d="M7.74789 186.371C7.36789 188.131 6.90789 189.881 6.58789 191.651C6.95789 190.761 7.4779 189.591 7.1579 192.021C9.0979 185.461 6.33789 193.301 7.74789 186.371Z" fill="#1F686A"/>
<path d="M11.7981 170.14C11.1681 172.97 12.1181 170.19 12.2281 170.38C12.5381 168.57 12.6081 168.12 11.7981 170.14Z" fill="#1F686A"/>
<path d="M72.5381 67.401L72.7281 68.001C74.2981 66.431 72.5881 67.831 72.5381 67.401Z" fill="#1F686A"/>
<path d="M88.1573 49.9512L86.1973 51.0312L85.6973 52.0811L88.1573 49.9512Z" fill="#1F686A"/>
<path d="M101.567 45.0606L100.817 45.6906C101.817 44.9206 102.747 44.1206 103.737 43.3906C102.987 43.9106 102.287 44.5006 101.567 45.0606Z" fill="#1F686A"/>
<path d="M294.457 15.2505L294.017 14.4005C292.527 14.1105 291.997 14.7805 294.457 15.2505Z" fill="#1F686A"/>
<path d="M371.157 55.9609C372.082 57.3439 373.301 58.505 374.727 59.361C373.277 58.041 371.967 56.5509 371.157 55.9609Z" fill="#1F686A"/>
<path d="M442.008 292.69L442.268 290.94L441.548 294.17L442.008 292.69Z" fill="#1F686A"/>
<path d="M37.3475 389.571C37.7175 389.771 37.8075 389.401 37.0575 388.571L36.1475 388.341L37.3475 389.571Z" fill="#20696A"/>
<path d="M33.4575 383.36C32.4575 382.53 31.1975 381.66 31.3175 382.61C32.5075 383.28 32.5175 383.66 33.8575 384.32C34.5875 385.12 34.9175 385.89 34.6475 385.88C34.9975 386.08 35.6475 387.24 36.2675 387.47C35.5274 385.923 34.4553 384.557 33.1275 383.47C32.9775 383.13 33.3275 383.35 33.4575 383.36Z" fill="#20696A"/>
<path d="M38.418 313.271C38.5102 313.136 38.5873 312.992 38.6479 312.841L38.418 313.271Z" fill="#20696A"/>
<path d="M16.0972 266.571C15.9272 267.021 15.9072 267.221 15.9472 267.261C16.0972 266.841 16.1572 266.491 16.0972 266.571Z" fill="#20696A"/>
<path d="M21.9573 264.721L21.4873 264.291C21.6088 264.469 21.7696 264.616 21.9573 264.721V264.721Z" fill="#20696A"/>
<path d="M38.4181 313.271C38.175 313.6 37.8189 313.828 37.4181 313.911C37.4081 314.121 38.0981 313.821 38.4181 313.271Z" fill="#20696A"/>
<path d="M23.9375 372.23C24.1221 372.495 24.3332 372.739 24.5675 372.96C24.3875 372.72 24.2075 372.48 24.0375 372.23H23.9375Z" fill="#20696A"/>
<path d="M19.5474 313.351L19.2874 313.781C19.2675 313.937 19.2675 314.095 19.2874 314.251L19.5474 313.351Z" fill="#20696A"/>
<path d="M14.6776 333.911C14.6776 333.431 14.2576 333.251 14.0576 333.061C14.242 333.387 14.3417 333.755 14.3476 334.13C14.4376 334.14 14.5376 334.081 14.6776 333.911Z" fill="#20696A"/>
<path d="M23.0381 367.001L23.3881 367.511L23.0381 367.001Z" fill="#20696A"/>
<path d="M31.3779 306.641C31.4109 306.719 31.4667 306.785 31.5379 306.831C31.5479 306.771 31.4879 306.721 31.3779 306.641Z" fill="#20696A"/>
<path d="M129.637 423.001C129.637 423.001 129.637 423.051 129.587 423.071C129.537 423.091 129.767 423.101 129.637 423.001Z" fill="#20696A"/>
<path d="M151.097 436.391L150.757 436.291C150.692 436.353 150.641 436.428 150.607 436.511L151.097 436.391Z" fill="#20696A"/>
<path d="M34.5078 279.891V279.811C34.1478 279.401 34.3178 279.641 34.5078 279.891Z" fill="#20696A"/>
<path d="M76.7674 310.98C76.9074 308.86 77.7174 314.27 77.7674 311.1C77.6374 311.41 76.6974 308.38 76.7674 310.98Z" fill="#20696A"/>
<path d="M23.688 371.72L23.208 370.94C23.3479 371.212 23.5084 371.473 23.688 371.72V371.72Z" fill="#20696A"/>
<path d="M34.258 280.141C34.1221 280.207 34.0051 280.307 33.918 280.431C33.978 280.441 34.038 280.371 34.258 280.141Z" fill="#20696A"/>
<path d="M40.5674 289.831L40.8174 290.641C40.7374 290.321 40.6474 290.061 40.5674 289.831Z" fill="#20696A"/>
<path d="M46.5176 275.261C46.8012 275.529 47.1092 275.77 47.4376 275.981C47.4054 275.924 47.3686 275.871 47.3276 275.821C47.0244 275.687 46.7494 275.497 46.5176 275.261V275.261Z" fill="#20696A"/>
<path d="M58.0973 289.301L58.0073 288.961L57.6973 288.461L58.0973 289.301Z" fill="#20696A"/>
<path d="M90.708 382.141C90.8144 382.464 90.8717 382.801 90.878 383.141C90.968 382.661 92.688 384.821 90.708 382.141Z" fill="#20696A"/>
<path d="M24.1575 372.081C23.9975 372.081 23.8675 371.941 23.6875 371.701L24.0375 372.231C24.0975 372.241 24.1875 372.221 24.1575 372.081Z" fill="#20696A"/>
<path d="M49.2676 272.721C50.1394 273.408 50.9584 274.16 51.7176 274.971C50.975 274.144 50.1545 273.39 49.2676 272.721V272.721Z" fill="#20696A"/>
<path d="M3.09753 329.82L2.72754 329.19C2.81605 329.419 2.94099 329.632 3.09753 329.82V329.82Z" fill="#20696A"/>
<path d="M57.7275 282.07C57.9332 282.627 58.1771 283.168 58.4575 283.69C58.5488 283.778 58.6494 283.855 58.7575 283.92L57.7275 282.07Z" fill="#20696A"/>
<path d="M103.768 397.921C101.958 395.741 102.458 397.281 101.768 397.041C99.4778 394.531 101.118 395.541 100.638 394.451C99.1978 392.901 97.7278 391.991 96.7978 390.711C96.7978 390.551 96.6478 390.291 96.9678 390.501C95.2078 389.021 92.9678 385.221 90.9178 383.501C90.8636 383.385 90.8363 383.259 90.8378 383.131C90.8378 383.651 90.6278 383.891 90.3978 383.951C89.6378 382.951 88.7078 382.241 88.7478 381.621C88.9719 381.977 89.2904 382.264 89.6678 382.451L88.7578 381.451C88.5078 380.141 89.9778 382.821 90.3178 382.581C88.6478 380.581 86.4878 378.361 85.4778 376.581C85.6878 375.911 88.3278 380.301 87.1878 377.831L88.8178 380.481C88.1478 378.041 89.8178 382.041 89.3578 379.731C87.1278 376.331 86.4978 376.171 84.2878 372.731C83.5078 372.151 84.0878 373.241 83.2878 372.661C79.5278 368.231 81.8278 368.121 78.7778 365.051C77.3422 364.363 76.2026 363.181 75.5678 361.721L76.6878 362.201C74.4478 358.921 74.6878 360.881 72.5678 357.201C73.1978 357.661 74.5678 359.611 74.2678 359.081C73.0978 356.601 72.8578 357.741 71.6578 356.081L71.8578 355.411C69.2778 352.051 66.1878 348.531 63.1678 344.941C63.4678 345.041 64.0978 345.561 63.5478 344.591C59.6478 340.131 55.5478 334.771 51.7578 330.421C51.1478 329.991 50.5078 329.591 49.8678 329.191C49.5078 328.831 49.3478 328.371 49.8078 328.691C48.3378 326.991 49.5078 328.831 48.6078 328.211C47.6878 327.341 47.6078 326.831 48.2778 327.291C45.1778 324.781 39.4078 320.291 36.2778 317.501L37.0078 317.881C34.5278 315.751 33.5078 316.471 31.2578 314.441L31.7878 314.691C28.8772 312.52 25.7182 310.704 22.3778 309.281C19.2504 307.967 15.8995 307.268 12.5078 307.221C11.9878 307.621 10.0978 307.801 8.35777 308.481C6.61777 309.161 5.09777 310.231 5.22777 310.771C4.04002 311.497 2.98764 312.424 2.11775 313.511C0.931268 315.036 0.202972 316.867 0.0177766 318.791C-0.122223 320.571 0.597777 321.381 1.01778 323.311L0.527756 323.461C0.883883 324.317 1.30165 325.145 1.77776 325.941C1.77776 326.451 1.70776 326.941 1.71776 327.491C2.00776 328.041 2.27776 328.601 2.59776 329.131C2.28776 328.461 2.16775 327.611 2.33775 327.661C3.59775 330.221 5.33777 333.871 5.22777 334.081C6.62777 335.831 8.03777 337.451 9.53777 339.081C9.29777 339.081 8.53776 338.301 7.90776 337.691C10.4978 340.091 7.90778 338.541 10.2978 340.691C10.1078 340.291 10.6778 340.691 10.7978 340.691C12.2857 342.876 14.0541 344.856 16.0578 346.581L15.4478 346.471C19.1707 350.171 23.228 353.518 27.5678 356.471C26.0678 355.201 26.7978 354.981 28.1178 355.851L28.3378 356.651C29.3378 356.961 27.0778 355.551 29.0478 356.411C30.6778 357.591 29.8378 357.681 28.7678 357.161L30.9378 358.381C30.9378 358.591 30.4477 358.381 30.2077 358.381C31.2077 358.671 33.6177 361.131 35.2077 361.281L35.2678 361.491C39.0534 363.498 43.1512 364.85 47.3878 365.491C47.5478 365.071 49.3378 365.431 50.7378 365.101C52.5352 365.258 54.3436 365.241 56.1378 365.051C58.1335 364.786 60.0743 364.205 61.8878 363.331C64.3978 361.811 62.4678 362.601 63.4778 361.741C63.9278 362.091 67.2377 359.601 65.6777 361.101C67.2448 359.944 68.6653 358.601 69.9078 357.101C71.3296 355.392 72.5572 353.531 73.5678 351.551C73.0778 352.031 72.6478 352.621 72.7178 352.221C73.2178 351.221 74.1378 350.221 74.2278 350.401L74.1178 350.671C75.5278 347.561 77.2578 344.091 78.5278 340.551C79.7939 337.457 80.4721 334.154 80.5278 330.811V331.111C80.5278 329.261 80.6178 327.411 80.5278 325.571C80.7578 323.041 80.7478 327.111 81.1278 325.251C80.6878 319.251 81.2478 315.791 80.2478 310.951C80.6478 308.951 80.0978 305.621 79.2478 302.181C78.3978 298.741 77.1378 295.181 76.6478 292.671L76.4778 293.051C75.7478 291.901 76.0778 291.481 75.7978 290.531C75.6378 290.751 76.0578 291.981 75.6178 291.261C73.4078 286.101 71.1378 280.771 67.5278 275.841C66.6156 274.608 65.6129 273.445 64.5278 272.361C63.3445 271.107 61.9499 270.071 60.4078 269.301C59.2331 268.8 57.9195 268.729 56.6978 269.101C55.556 269.469 54.5475 270.164 53.7978 271.101C52.6827 272.57 51.9352 274.284 51.6178 276.101C51.3158 277.304 51.3891 278.571 51.8278 279.731C52.0778 280.511 52.1878 281.391 51.8878 284.101L51.3378 282.551C51.6191 287.02 52.4246 291.44 53.7378 295.721C54.3822 297.837 55.2051 299.894 56.1978 301.871L56.9878 303.351L58.4078 305.621L58.7578 306.171C58.8743 306.289 59.0015 306.396 59.1378 306.491L59.8978 307.071L60.6478 307.641C60.9878 307.541 61.3478 307.421 61.6478 307.291L60.9178 307.711C60.8178 307.711 60.6478 307.911 60.5278 307.821L60.0478 307.471L60.4078 307.821C60.4678 307.821 60.5278 307.971 60.6178 307.991L60.9178 307.921C61.3807 307.822 61.838 307.698 62.2878 307.551C63.2932 307.134 64.138 306.404 64.6978 305.471C65.2366 304.594 65.5493 303.598 65.6078 302.571C65.6678 301.731 65.6078 301.241 65.5178 301.231C65.5178 299.691 65.8178 300.871 65.9478 299.911C65.9332 298.753 65.6742 297.612 65.1878 296.561C64.7747 295.826 64.4715 295.034 64.2878 294.211C64.2878 294.031 64.6078 294.621 64.7478 294.921C64.1878 293.921 62.5678 289.921 62.6278 291.151C61.4378 288.211 59.6278 285.941 58.4178 283.721C57.1278 282.631 55.4178 279.211 54.5178 279.281C55.2678 278.961 51.4278 274.651 49.4178 273.631C50.1378 273.891 48.0578 272.301 48.9178 272.571C46.8678 271.001 44.2478 270.511 44.6478 271.021C43.5283 270.543 42.3131 270.333 41.0983 270.406C39.8834 270.479 38.7021 270.833 37.6478 271.441C35.7178 272.441 34.4478 273.721 33.1178 274.311C30.7106 277.144 29.5209 280.814 29.8078 284.521C30.0894 287.778 31.1491 290.919 32.8978 293.681C32.5178 293.771 31.6378 292.251 31.0078 290.681C30.3778 289.111 30.0078 287.451 29.6678 287.681C30.3741 290.217 31.5624 292.594 33.1678 294.681C33.8708 295.641 34.6217 296.566 35.4178 297.451C36.3584 298.631 37.5463 299.59 38.8978 300.261C39.8378 300.621 39.5578 300.621 38.8978 300.501C38.2964 300.334 37.716 300.099 37.1678 299.801C37.9861 300.379 38.9275 300.759 39.9178 300.911C41.061 301.058 42.2171 300.761 43.1478 300.081C43.9988 299.421 44.6043 298.495 44.8678 297.451C45.0776 296.628 45.1553 295.778 45.0978 294.931C45.0076 293.471 44.6694 292.037 44.0978 290.691C43.645 289.479 43.1242 288.294 42.5378 287.141C42.787 287.414 42.9867 287.729 43.1278 288.071C42.7578 287.141 42.2978 285.881 42.0478 286.071L42.5278 286.931C42.7378 288.561 39.9878 283.731 39.6378 283.731C41.3078 284.731 37.5078 279.241 39.8478 281.011C39.4778 280.461 38.9178 279.831 38.7978 280.071C38.3678 279.191 38.3178 278.851 39.0378 279.591C37.0378 276.591 37.3978 277.881 35.5978 275.191C35.7278 275.101 36.1478 275.611 36.4978 275.781C35.0322 274.393 33.6935 272.877 32.4978 271.251C32.6778 271.321 32.5878 270.981 33.0878 271.621C30.0278 268.021 27.1878 266.201 23.4478 262.711C25.0478 263.111 22.2978 261.441 22.3378 260.711C21.249 259.915 19.8933 259.574 18.5578 259.761C19.1242 259.76 19.6828 259.894 20.1878 260.151C19.368 259.905 18.4845 259.991 17.7278 260.391C17.0751 260.769 16.5283 261.305 16.1378 261.951C15.4878 263.031 15.1378 263.951 14.5278 264.881C14.7078 264.281 14.9378 263.711 15.1678 263.121C14.4305 264.492 13.8116 265.924 13.3178 267.401C13.7078 266.611 14.0878 265.821 14.5478 265.071C13.8378 267.471 15.2978 265.131 13.9778 268.071C14.1178 267.431 13.1778 270.331 12.6178 271.501C12.5824 272.91 12.4387 274.314 12.1878 275.701C11.9478 276.141 11.5578 275.261 11.3978 275.541C11.6978 276.781 11.1978 281.271 11.8678 282.741C11.7178 282.251 11.3978 282.231 11.3378 282.401L11.7978 283.401C11.7278 284.521 11.6778 284.691 11.4078 284.531C11.6278 287.891 12.0578 283.401 12.1178 287.401C12.0179 287.14 11.9344 286.872 11.8678 286.601C12.2589 290.399 13.0191 294.15 14.1378 297.801C13.8578 299.041 13.0778 294.721 12.9378 296.071C14.5273 301.36 17.407 306.171 21.3178 310.071C21.0878 309.841 20.8877 309.581 20.6777 309.331C21.7377 309.231 23.1778 312.411 25.8078 313.331C25.2078 313.071 24.8078 313.331 25.0178 313.331C26.8664 314.529 28.9391 315.339 31.1101 315.712C33.2811 316.085 35.5053 316.013 37.6478 315.501C37.4265 315.643 37.1959 315.77 36.9577 315.881C37.7146 315.851 38.4456 315.597 39.0578 315.151C39.8022 314.584 40.2941 313.747 40.4277 312.821C40.6163 311.25 40.2174 309.665 39.3078 308.371C38.7378 307.841 37.7378 306.871 38.1078 307.701C37.0522 306.166 35.4739 305.067 33.6678 304.611C31.9761 304.156 30.2002 304.111 28.4878 304.481C25.1078 305.121 22.4878 307.091 19.9678 309.071C20.4678 308.491 21.1377 307.641 20.6777 308.071C19.4139 309.38 18.337 310.857 17.4778 312.461C18.0178 312.291 18.0378 311.971 18.9078 311.231C18.4907 312.3 18.0132 313.345 17.4778 314.361C18.3778 312.191 16.9078 314.061 16.2878 314.931C16.4578 314.821 16.4378 315.201 16.5778 315.171C14.8978 317.431 17.0178 315.851 15.3678 319.171L15.2378 318.921C14.9178 320.281 14.8477 321.571 14.4577 323.011C13.8977 323.511 14.5778 321.531 14.2778 321.351C13.7578 323.421 14.1978 325.561 13.5178 327.351C13.5178 326.451 13.7278 325.191 13.7578 324.291C13.1994 325.473 12.8605 326.747 12.7578 328.051V327.891C12.5178 329.071 12.3778 330.271 12.2178 331.461L12.4178 330.551C13.4178 333.241 12.4178 335.961 13.5078 339.441C12.5078 336.081 13.0478 338.911 12.5078 338.691C12.4478 339.611 12.4478 341.011 12.2678 340.631C12.8578 342.261 12.2678 343.501 13.3178 345.751C13.1678 345.891 13.6778 347.521 13.1978 347.231C13.7878 349.361 13.3578 346.661 13.5978 346.801C14.8078 349.951 14.8978 354.741 17.4778 358.981C19.3978 362.701 20.2378 363.151 22.2478 366.411C22.6378 367.671 21.2478 365.751 21.2478 365.751C21.9417 367.51 22.8737 369.165 24.0178 370.671C23.6978 370.401 23.8078 370.811 23.9678 371.421C24.8278 372.761 25.0178 372.011 25.9678 373.901C25.4572 373.634 24.9861 373.297 24.5678 372.901C25.7078 374.411 26.9677 375.791 28.2077 377.281C28.2777 377.861 27.2078 376.571 26.6578 376.101C27.9878 377.841 30.1378 380.561 30.9078 380.811L30.1978 379.611C30.6878 380.231 30.1378 380.161 29.7278 379.741C28.3378 378.441 28.2678 377.471 28.3478 377.291L29.2278 378.351C29.1578 376.681 25.9278 373.941 24.5278 371.521L25.7178 372.141L23.7178 370.021C23.5678 369.411 23.7178 368.871 24.4678 370.021C23.7678 368.151 23.3578 368.641 22.8678 367.021C22.8678 366.831 22.8678 366.881 23.0078 367.021L21.9178 365.431C22.2178 365.691 22.1878 364.931 22.6578 366.011C21.3978 362.801 19.7278 361.261 19.6578 359.861L19.8078 360.101C17.7478 355.791 19.1478 359.891 17.2678 356.751C17.3778 355.841 17.4578 354.961 17.6078 354.061L16.9878 353.781C16.8478 353.301 16.5778 352.361 16.8278 352.481C15.9878 350.821 16.7078 352.841 16.0978 351.911C15.8178 349.521 14.2678 345.581 14.9978 344.911C14.4778 344.141 15.1178 347.211 14.4078 344.751C15.1178 343.901 13.7478 341.881 13.9478 339.661C14.4578 340.281 14.4278 342.331 14.6078 340.151C13.6878 338.921 14.4478 335.961 14.2978 334.151C13.7078 334.071 14.0578 330.151 14.2978 327.151C14.6383 326.172 14.9057 325.169 15.0978 324.151C15.5145 322.405 16.0628 320.694 16.7378 319.031L16.8078 319.141C16.3778 318.431 17.4978 315.721 18.4478 313.851C18.7378 314.101 18.6478 314.481 18.3078 315.561C18.5878 314.981 18.8877 314.411 19.2077 313.851C19.3751 313.077 19.7171 312.352 20.2077 311.731L20.2878 312.381C21.6878 310.381 23.2878 308.001 26.4078 307.101C26.5278 306.631 23.4078 307.011 26.8078 305.451C27.0078 305.631 27.2178 305.961 26.3578 306.341C26.8892 306.017 27.4814 305.806 28.0978 305.721C27.6547 305.934 27.227 306.178 26.8178 306.451C28.3078 306.221 27.4878 305.891 28.7178 305.731C28.7178 306.031 29.6278 305.851 29.4778 306.131C28.9837 306.122 28.4912 306.189 28.0178 306.331C29.1563 306.1 30.3374 306.204 31.4178 306.631C31.3278 306.461 31.4678 306.161 32.4178 306.291C34.8278 306.881 33.1478 306.861 34.4178 307.471C35.0478 307.471 36.1478 308.471 36.4178 308.191C36.5743 308.307 36.7018 308.457 36.7903 308.631C36.8788 308.804 36.9258 308.996 36.9277 309.191C37.6687 309.832 38.1695 310.707 38.3478 311.671C38.5178 312.671 38.2877 313.181 38.7077 312.741C38.7436 312.65 38.7704 312.557 38.7878 312.461V312.721C38.7556 313.2 38.552 313.652 38.2141 313.993C37.8762 314.335 37.4267 314.543 36.9478 314.581C35.8201 314.741 34.6755 314.741 33.5478 314.581C31.3251 314.203 29.1713 313.495 27.1578 312.481L27.2378 312.341C24.9455 311.15 22.826 309.653 20.9378 307.891C20.4078 307.311 20.0078 306.271 20.3578 306.421C19.1453 305.19 18.2169 303.709 17.6378 302.081C18.8278 303.741 17.5078 301.381 18.7978 303.801C17.6578 301.461 17.6578 300.801 16.2578 298.391C16.9478 299.141 16.0978 296.391 15.6978 295.201C15.7578 295.821 15.8278 296.431 15.9178 297.041C15.4773 295.822 15.1427 294.567 14.9178 293.291L15.5878 293.831C15.0878 288.571 12.9478 284.321 14.0578 280.211C13.6578 278.781 13.8178 283.121 13.3578 281.861C13.489 279.909 13.8481 277.979 14.4277 276.111C15.1577 272.891 14.0278 272.891 15.1478 269.551C14.8678 269.931 14.1478 270.191 14.8778 267.551C15.8778 265.241 16.8778 265.141 16.3378 266.551C16.1178 267.081 15.9678 267.321 15.9178 267.271C15.6678 268.021 15.4278 269.021 15.9178 268.191L15.8478 267.831C16.3778 266.741 17.9578 263.831 17.8478 264.711C18.5378 263.201 17.9477 263.841 17.2077 265.001C17.5407 264.449 17.9116 263.921 18.3178 263.421C18.4934 263.181 18.7428 263.005 19.0278 262.921C19.1734 262.895 19.3227 262.898 19.4669 262.931C19.6112 262.964 19.7475 263.025 19.8678 263.111C20.435 263.461 20.9616 263.874 21.4378 264.341C21.0978 263.931 20.8678 263.451 21.2678 263.781C24.8078 267.031 23.1578 264.781 25.6478 266.971C26.7778 268.471 24.7078 266.971 27.1978 269.131C28.4378 270.711 27.1177 269.781 26.4577 269.341C28.8077 271.201 29.9977 273.591 30.9577 274.961L29.8778 273.841C30.4444 274.433 30.9722 275.061 31.4577 275.721L31.2278 274.781C31.7478 275.541 32.1778 276.181 32.0478 276.251C32.8078 276.871 32.1378 275.251 33.5378 276.601C34.0878 277.721 35.7978 279.601 35.5378 280.261C33.6178 276.911 35.3478 280.881 33.5378 278.261C34.0242 278.86 34.4434 279.51 34.7878 280.201C34.7878 280.341 34.6278 280.141 34.4678 279.951C35.9478 283.321 35.8878 281.061 37.6878 284.431C37.2078 284.141 37.5978 285.431 37.9078 286.001C37.2478 284.631 38.0178 285.121 38.8378 286.311C39.6478 288.641 40.0778 288.681 40.5278 289.891L40.0778 288.491C40.7789 289.426 41.3072 290.479 41.6378 291.601C41.4778 291.811 40.9678 290.171 41.0778 290.791C42.2178 292.441 42.1478 295.021 41.8578 296.871C41.6178 297.231 41.4778 297.091 41.3778 297.041C41.2778 296.991 41.1678 296.921 41.0278 297.041C40.8078 297.451 40.4977 297.381 40.2077 297.151C39.9177 296.921 39.4578 296.551 38.4678 295.681C38.6778 296.441 38.8978 296.681 37.2578 295.281C37.7587 295.879 38.3219 296.422 38.9378 296.901C39.3639 297.263 39.8909 297.487 40.4478 297.541C39.6224 297.596 38.8081 297.327 38.1777 296.791C38.6365 297.246 39.1944 297.588 39.8078 297.791C40.1555 297.908 40.5278 297.932 40.8878 297.861C40.6725 297.985 40.4399 298.076 40.1978 298.131C40.1478 298.131 40.2678 298.281 40.5278 298.451C38.6191 297.737 37.0225 296.374 36.0178 294.601L36.8478 294.091C36.0178 292.541 35.1478 291.281 34.3878 289.791C33.4559 288.131 32.983 286.254 33.0178 284.351C32.9659 284.826 32.9392 285.303 32.9378 285.781C32.4678 285.221 32.6778 283.001 32.9378 281.591C33.2278 281.781 33.5178 280.961 33.9378 280.501C33.8078 280.501 34.0778 279.781 34.4478 279.031C34.8178 278.281 35.2977 277.511 35.1777 277.151C35.6968 276.736 36.2563 276.374 36.8478 276.071C38.2178 275.071 38.9978 274.501 39.8478 273.981C40.3704 273.647 40.9543 273.42 41.5655 273.313C42.1767 273.207 42.8029 273.223 43.4078 273.361C42.4078 273.621 43.7577 273.891 41.6777 274.061C42.6777 274.061 43.5777 274.321 43.6777 274.061C43.9577 274.231 44.6777 274.341 45.4577 274.641C46.1859 274.877 46.8428 275.294 47.3678 275.851C48.0675 275.976 48.7068 276.327 49.1878 276.851C49.2478 277.001 49.0778 276.961 49.0778 276.961C49.0778 276.961 50.7578 278.351 50.1578 277.231C51.4999 279.258 52.9556 281.208 54.5178 283.071C56.0104 284.829 57.1877 286.832 57.9978 288.991C59.5129 291.375 60.8146 293.888 61.8878 296.501C61.7378 296.391 61.7378 296.501 61.5978 296.111C61.8012 297 62.1859 297.837 62.7278 298.571C63.008 298.999 63.1971 299.48 63.2831 299.984C63.3692 300.488 63.3503 301.004 63.2278 301.501C62.8878 302.201 62.8678 301.721 62.8778 301.341C62.8878 300.961 62.8778 300.171 62.7778 300.781C62.2178 301.211 62.3178 301.501 62.1278 302.261C62.0387 302.669 61.795 303.028 61.4478 303.261C61.2878 303.341 61.0477 303.471 60.9277 303.321C60.8303 303.112 60.7533 302.894 60.6978 302.671L60.8678 302.811C60.6478 302.121 60.5377 302.171 59.9577 301.361C59.0958 300.139 58.3872 298.816 57.8478 297.421C57.8478 297.421 57.9978 297.531 58.0078 297.421C56.6478 295.601 55.2978 291.551 54.7778 288.421C55.3278 289.331 55.1978 289.791 55.5278 289.141C55.2878 287.771 54.8678 289.671 54.4478 286.871C54.5578 285.931 54.6778 283.871 55.1478 283.631C55.1478 284.501 55.2378 285.371 55.2878 286.231C55.7778 284.871 55.0878 282.871 55.2878 281.481L55.5378 281.671C55.5378 279.671 55.5378 278.671 55.5378 277.601C55.4314 276.248 55.757 274.897 56.4678 273.741C56.3399 273.817 56.2163 273.901 56.0978 273.991C56.3678 272.871 56.8478 272.591 57.2378 272.441C57.7858 272.256 58.3475 272.116 58.9178 272.021C59.0766 272.252 59.2012 272.504 59.2878 272.771C60.3777 273.11 61.3949 273.649 62.2878 274.361C63.5451 275.245 64.6931 276.276 65.7077 277.431C64.3777 276.431 61.8978 274.301 60.1578 273.511C61.3778 274.241 63.9878 276.761 64.6878 277.211C64.1775 276.787 63.6996 276.326 63.2578 275.831C65.391 277.19 67.1482 279.065 68.3678 281.281C67.6978 281.381 68.6877 283.121 69.7077 285.281C70.7277 287.441 71.8178 289.941 71.7778 291.161C74.2678 296.081 75.1978 301.491 76.3578 307.721C76.9378 305.321 76.6878 309.561 77.6078 309.021C77.8006 309.735 77.8948 310.471 77.8878 311.211C77.8878 312.731 77.8078 314.211 77.7378 315.781C77.5178 316.861 77.4178 314.381 77.1878 314.541C77.3578 317.781 76.8578 315.931 76.7178 318.071C77.0678 317.611 77.2878 319.171 77.1578 321.071L77.5778 318.461C78.1678 323.011 76.8278 322.371 77.0978 326.931L76.8778 325.481C77.0278 327.831 76.0678 334.031 76.3078 336.391C76.0978 336.761 75.7078 337.231 75.8678 336.221C75.2378 338.911 74.5878 341.921 73.6378 344.691C72.8659 347.185 71.6497 349.519 70.0478 351.581V351.111C69.5378 351.961 69.4478 352.851 68.4478 353.671C68.4478 353.561 68.5077 353.201 68.2077 353.561C67.5758 354.739 66.7237 355.784 65.6978 356.641C65.9262 356.319 66.1366 355.986 66.3278 355.641C62.4078 358.881 60.3778 360.971 56.0378 362.171C55.9678 361.831 54.9178 361.771 53.6578 361.711C52.3985 361.671 51.1428 361.554 49.8978 361.361L49.9778 361.271C47.2874 360.968 44.6298 360.423 42.0378 359.641C39.4438 358.894 36.9312 357.889 34.5378 356.641C31.7778 354.211 24.3878 349.381 20.4778 344.921C21.0478 345.631 19.9877 345.241 19.1777 344.551C18.2777 343.491 16.1178 342.171 16.7478 341.871L17.0778 342.231C16.8178 341.041 14.7678 339.091 13.3778 337.361L12.4778 337.631C11.1178 334.971 8.63776 332.061 6.90776 329.201C5.17776 326.341 4.13777 323.411 4.53777 321.931C4.18387 320.646 4.06528 319.308 4.18776 317.981L4.61775 318.141C4.95544 316.848 5.59262 315.652 6.47777 314.651C7.52708 313.494 8.84128 312.609 10.3078 312.071C10.0778 312.251 9.87777 312.481 9.66777 312.681C11.6678 311.911 12.1278 310.451 14.5278 310.311L15.2077 311.021C19.5877 311.251 23.4878 313.921 27.7178 315.851C27.5978 315.851 27.3778 315.991 26.7178 315.621C28.6078 316.791 33.5778 320.791 33.4478 319.621C33.1278 320.141 37.3478 322.571 39.4478 324.071L38.8478 324.171C40.542 324.787 42.0958 325.735 43.4178 326.961C43.9178 327.491 43.6378 327.661 43.0078 326.961C44.6178 328.761 44.7278 327.871 46.6278 330.101L45.6278 329.551C46.4293 330.496 47.4253 331.256 48.5478 331.781C49.7878 332.781 51.7078 335.281 51.6678 335.781C52.6621 336.199 53.5159 336.893 54.1278 337.781C54.1278 338.031 53.7178 337.701 53.4978 337.531C56.0278 340.821 57.9377 341.861 59.4277 344.331C59.3477 344.481 59.4278 344.661 59.5178 344.881C57.4278 342.341 55.7477 340.281 55.9277 340.461C55.6077 340.731 57.2477 342.821 55.4577 341.571C57.0577 342.991 59.9378 345.351 61.3778 347.571C61.4223 347.687 61.4557 347.808 61.4778 347.931L61.2678 347.751C61.5835 348.201 61.9455 348.616 62.3478 348.991C62.7978 349.681 63.0678 350.141 63.5478 350.771C63.4578 351.231 65.2578 353.311 66.0378 354.391C66.3378 354.031 67.3078 355.471 66.6478 353.931C66.7478 354.121 66.4578 353.761 65.9078 353.071C65.7902 352.92 65.6633 352.776 65.5278 352.641H65.6178L63.6178 350.031C64.5804 350.78 65.3744 351.724 65.9478 352.801C66.6078 353.171 67.2878 353.601 67.6578 353.801C68.2278 355.651 70.0278 358.681 69.9778 359.321C72.5678 362.461 75.6678 367.031 77.8378 368.641C78.2599 369.098 78.5078 369.689 78.5378 370.311C78.1651 369.825 77.7609 369.364 77.3278 368.931C78.8378 370.701 81.3278 374.511 82.1478 374.621C83.5978 377.171 80.7478 373.621 83.1478 376.831L82.6878 376.491C86.4578 383.491 91.3278 386.121 95.6878 393.791C95.4628 393.494 95.3027 393.153 95.2178 392.791C100.968 401.051 108.678 408.441 115.398 415.791C116.51 417.02 117.874 417.996 119.398 418.651L119.538 419.421L122.158 420.871C123.768 421.981 125.25 423.265 126.578 424.701C128.189 426.269 130.055 427.551 132.098 428.491L131.698 427.851C133.298 428.851 136.938 430.791 136.508 430.921C136.984 430.921 137.445 431.091 137.808 431.401L137.738 431.651C139.198 432.221 140.608 432.881 142.108 433.331C145.358 434.951 141.108 434.071 146.038 436.201C147.958 436.791 151.598 437.401 150.948 436.981C150.298 436.561 149.088 436.141 149.128 435.881L150.848 436.361C151.398 435.751 152.848 435.451 149.038 433.501C148.038 433.291 147.038 433.161 146.038 432.881L145.298 432.151C146.058 432.5 146.836 432.811 147.628 433.081C146.677 432.48 145.604 432.098 144.488 431.961C144.239 431.584 143.893 431.28 143.488 431.081C142.495 430.931 141.51 430.731 140.538 430.481C140.358 430.051 141.958 430.561 140.298 429.481C138.928 429.141 141.168 430.681 139.038 429.831C137.938 428.831 138.438 428.831 136.818 428.271C136.718 427.971 137.068 428.081 137.698 428.271C136.278 427.761 134.268 426.341 133.388 426.271C132.318 425.181 129.118 423.551 129.638 423.061C128.358 422.607 127.15 421.974 126.048 421.181C128.558 422.031 121.988 418.001 123.148 417.641C121.198 417.081 117.828 413.541 115.148 411.551C115.413 411.659 115.651 411.823 115.848 412.031C115.034 411.136 114.285 410.183 113.608 409.181C112.958 409.491 110.828 407.511 109.488 406.621C108.368 404.531 110.988 407.121 110.928 406.181C110.628 406.631 107.828 403.651 108.038 404.511C107.168 402.941 107.178 403.251 106.978 402.221C106.178 402.521 105.798 401.101 104.468 400.331C103.138 398.131 104.618 399.331 102.648 397.331C101.958 396.201 103.768 397.921 103.768 397.921ZM63.0978 345.091C63.4578 345.541 63.7778 345.921 63.9778 346.161L63.0978 345.091ZM59.5378 340.721L61.0878 342.611C61.0878 342.861 60.8278 342.801 60.4778 342.361C60.7578 342.531 59.9778 341.451 59.5378 340.721ZM64.4178 351.991C63.8278 351.321 63.7178 350.991 63.7178 350.881L64.7178 352.071H64.8278C64.6866 352.079 64.5457 352.051 64.4178 351.991V351.991Z" fill="#20696A"/>
<path d="M65.8574 352.891C65.9453 352.976 66.0287 353.067 66.1074 353.161L65.8674 352.671L65.5674 352.511L65.8574 352.891Z" fill="#20696A"/>
<path d="M38.6777 312.721V312.801C38.7061 312.739 38.7432 312.682 38.7878 312.631C38.7278 312.721 38.7077 312.721 38.6777 312.721Z" fill="#20696A"/>
<path d="M0.558014 323.561L0.66803 323.521L0.458008 323.011L0.558014 323.561Z" fill="#20696A"/>
<path d="M16.3073 314.971C16.194 315.062 16.099 315.174 16.0273 315.301C16.0273 315.301 16.1773 315.151 16.3073 314.971Z" fill="#20696A"/>
<path d="M12.7475 328.101C12.6175 328.731 12.4875 329.361 12.3975 330.001C12.5475 329.171 12.6575 328.571 12.7475 328.101Z" fill="#20696A"/>
<path d="M12.3379 338.551C12.3872 338.634 12.4604 338.7 12.5479 338.741V338.741L12.3379 338.551Z" fill="#20696A"/>
<path d="M43.168 288.041L43.338 288.411C43.768 289.271 43.498 288.721 43.168 288.041Z" fill="#20696A"/>
<path d="M12.6373 271.531C12.6638 270.994 12.7239 270.46 12.8173 269.931C12.5373 270.781 12.3973 271.461 12.6373 271.531Z" fill="#20696A"/>
<path d="M48.968 272.53L48.958 272.54L49.268 272.76L48.968 272.53Z" fill="#20696A"/>
<path d="M13.5174 267.721C13.1761 268.422 12.9402 269.17 12.8174 269.941C13.0274 269.231 13.3274 268.431 13.5174 267.721Z" fill="#20696A"/>
<path d="M29.0977 379.911L29.3777 380.331C29.3777 380.331 29.4277 380.331 29.4677 380.331L29.0977 379.911Z" fill="#20696A"/>
<path d="M29.4873 380.331L29.8673 380.741C29.7635 380.585 29.6352 380.446 29.4873 380.331V380.331Z" fill="#20696A"/>
<path d="M30.6672 381.6L29.8672 380.74C30.0746 381.077 30.3465 381.369 30.6672 381.6V381.6Z" fill="#20696A"/>
<path d="M21.7981 368.271L21.5781 368.211C21.6064 368.239 21.6416 368.26 21.6801 368.27C21.7187 368.281 21.7594 368.281 21.7981 368.271V368.271Z" fill="#20696A"/>
<path d="M19.7979 364.591C20.2283 365.824 20.7635 367.019 21.3978 368.161H21.5779C21.0279 367.721 20.4579 365.311 19.7979 364.591Z" fill="#20696A"/>
<path d="M15.7881 347.721C16.0181 348.831 16.2281 349.961 16.5281 351.061C16.5281 350.431 16.5281 349.621 17.0181 351.061C16.3981 346.801 16.8181 352.051 15.7881 347.721Z" fill="#20696A"/>
<path d="M14.5381 337.211C14.7281 339.021 14.7981 337.211 14.8981 337.211C14.6681 336.121 14.6081 335.841 14.5381 337.211Z" fill="#20696A"/>
<path d="M20.0078 305.661L20.4578 305.561C19.6378 304.481 20.3178 305.641 20.0078 305.661Z" fill="#20696A"/>
<path d="M12.5381 292.851L12.5881 294.301L13.1181 294.871L12.5381 292.851Z" fill="#20696A"/>
<path d="M14.378 283.841L14.478 284.441L14.208 282.131C14.248 282.721 14.308 283.271 14.378 283.841Z" fill="#20696A"/>
<path d="M55.9972 286.72L56.2072 286.08C55.5972 285.34 55.0172 285.49 55.9972 286.72Z" fill="#20696A"/>
<path d="M56.4375 274.161L58.0975 272.721C57.735 272.83 57.3998 273.015 57.1137 273.263C56.8277 273.512 56.5972 273.817 56.4375 274.161V274.161Z" fill="#20696A"/>
<path d="M11.1677 334.921L11.9877 335.681L10.5977 334.131L11.1677 334.921Z" fill="#20696A"/>
<path d="M129.878 192.721C131.735 190.812 134.019 189.372 136.542 188.52C139.065 187.668 141.754 187.429 144.388 187.821C142.573 189.781 140.277 191.233 137.728 192.031C135.214 192.933 132.51 193.17 129.878 192.721V192.721Z" fill="#534741"/>
<path d="M109.678 198.881C111.533 196.972 113.815 195.533 116.337 194.681C118.858 193.829 121.545 193.589 124.178 193.981C122.323 195.889 120.04 197.328 117.519 198.18C114.998 199.032 112.31 199.272 109.678 198.881V198.881Z" fill="#534741"/>
<path d="M128.097 195.971C132.289 201.04 134.743 207.322 135.097 213.891C132.678 211.607 130.795 208.816 129.584 205.717C128.374 202.618 127.866 199.289 128.097 195.971V195.971Z" fill="#534741"/>
<path d="M119.098 170.15C121.217 172.637 122.877 175.482 123.998 178.55C125.231 181.578 125.908 184.803 125.998 188.07C123.591 185.782 121.724 182.987 120.53 179.887C119.337 176.788 118.848 173.462 119.098 170.15Z" fill="#534741"/>
<path d="M323.888 155.881C325.707 153.929 328.002 152.482 330.548 151.681C333.057 150.761 335.765 150.52 338.398 150.981C336.582 152.938 334.286 154.386 331.738 155.181C329.225 156.086 326.521 156.327 323.888 155.881V155.881Z" fill="#534741"/>
<path d="M303.678 162C305.504 160.051 307.801 158.605 310.348 157.8C312.856 156.89 315.558 156.649 318.188 157.1C316.373 159.061 314.077 160.512 311.528 161.31C309.014 162.212 306.31 162.45 303.678 162V162Z" fill="#534741"/>
<path d="M322.097 159.101C326.294 164.168 328.748 170.451 329.097 177.021C326.678 174.737 324.795 171.946 323.584 168.847C322.374 165.748 321.866 162.419 322.097 159.101V159.101Z" fill="#534741"/>
<path d="M313.098 133.271C315.217 135.761 316.876 138.609 317.998 141.681C319.231 144.704 319.909 147.926 319.998 151.191C317.525 148.955 315.64 146.146 314.508 143.011C313.258 139.925 312.774 136.583 313.098 133.271V133.271Z" fill="#534741"/>
<path d="M298.968 77.0801C299.002 78.3013 298.898 79.5224 298.658 80.7202C294.998 92.3802 291.258 104.02 287.528 115.66C283.608 127.88 278.798 139.95 280.078 153.17C281.329 166.678 284.578 179.926 289.718 192.48C293.528 201.73 296.358 211.41 299.168 221.04C303.682 236.607 305.707 252.791 305.168 268.99C304.708 284.54 301.858 299.73 297.968 314.75C293.962 329.966 288.607 344.795 281.968 359.06C276.108 371.82 269.858 384.4 263.788 397.06C262.098 400.6 260.438 404.16 258.738 407.7C258.379 408.494 257.933 409.245 257.408 409.94C257.128 410.29 256.548 410.41 256.108 410.64C255.878 410.14 255.368 409.57 255.468 409.15C255.901 406.571 256.57 404.037 257.468 401.58C260.178 395.34 263.198 389.23 266.048 383.05C270.408 373.62 274.978 364.28 278.988 354.71C283.108 344.9 287.158 335.01 290.388 324.87C297.458 302.67 301.718 279.95 300.538 256.49C299.928 244.39 297.458 232.61 294.538 220.88C291.618 209.15 287.008 198.19 282.928 186.94C277.838 172.87 274.658 158.24 276.188 143.23C276.978 135.5 279.388 127.83 281.868 120.4C286.188 107.48 291.118 94.7701 295.778 81.9601C296.318 80.4901 296.778 78.9601 297.308 77.5201C297.408 77.2601 297.808 77.1102 298.068 76.9102L298.968 77.0801Z" fill="black"/>
<path d="M198.098 388.241C196.89 387.37 195.786 386.364 194.808 385.241C190.538 379.091 186.028 373.071 182.328 366.591C178.377 359.486 174.786 352.187 171.568 344.721C165.141 329.871 160.411 314.342 157.468 298.431C155.188 286.741 153.418 275.011 153.678 263.031C154.171 246.492 157.207 230.127 162.678 214.511C168.088 198.511 173.328 182.511 177.948 166.311C181.418 154.171 180.718 141.631 178.068 129.391C176.418 121.741 173.608 114.341 171.478 106.791C168.578 96.5311 165.808 86.2411 163.068 75.9311C162.868 75.1811 163.388 74.2311 163.578 73.3711C164.248 74.0011 165.288 74.5111 165.578 75.2811C168.718 84.5411 171.758 93.8411 174.808 103.131C177.138 110.271 179.918 117.301 181.668 124.571C185.548 140.711 186.108 156.931 180.948 172.991C175.881 188.778 170.788 204.568 165.668 220.361C158.058 243.289 156.338 267.764 160.668 291.531C163.458 306.961 167.158 322.131 172.758 336.771C175.457 343.873 178.583 350.806 182.118 357.531C187.208 367.161 192.858 376.481 198.248 385.941C198.495 386.469 198.705 387.014 198.878 387.571L198.098 388.241Z" fill="black"/>
<path d="M254.528 265.361C254.534 266.305 254.437 267.247 254.238 268.171C251.118 277.341 248.418 286.701 244.668 295.621C237.668 312.241 232.238 329.381 226.488 346.421C223.048 356.601 219.408 366.711 215.868 376.851C212.166 387.228 209.405 397.918 207.618 408.791C207.497 409.833 207.262 410.859 206.918 411.851C206.546 412.475 206.085 413.041 205.548 413.531C205.088 412.951 204.218 412.361 204.238 411.801C204.378 408.251 204.178 404.561 205.078 401.181C208.078 389.961 211.168 378.761 214.768 367.721C219.508 353.191 224.768 338.841 229.698 324.361C230.031 322.816 229.945 321.21 229.448 319.711C228.691 316.388 227.719 313.117 226.538 309.921C223.538 302.281 220.308 294.741 217.188 287.141C216.622 285.866 216.17 284.544 215.838 283.19C215.812 282.386 215.913 281.583 216.138 280.811C216.758 281.281 217.638 281.621 217.958 282.251C219.958 286.121 222.038 289.981 223.718 294.001C226.508 300.671 229.018 307.461 231.658 314.201C231.808 314.581 231.998 314.951 232.398 315.851C236.098 306.971 239.558 298.531 243.138 290.141C246.718 281.751 249.218 273.061 253.478 265.061L254.528 265.361Z" fill="black"/>
</svg>
