<svg width="505" height="504" viewBox="0 0 505 504" fill="none" xmlns="http://www.w3.org/2000/svg">
<path d="M8.2854 286.498C8.1554 287.188 7.63539 286.868 7.52539 285.008L8.18539 283.598L8.2854 286.498Z" fill="#016C55"/>
<path d="M5.44531 274.228C5.61531 272.008 6.0453 269.428 6.9353 270.768C6.3753 272.998 6.75531 273.488 6.06531 275.898C6.15531 277.768 6.6653 279.108 6.9353 278.768C6.7953 279.438 7.4253 281.618 7.0253 282.668C6.10177 279.891 5.76134 276.953 6.0253 274.038C5.7253 273.368 5.58531 274.058 5.44531 274.228Z" fill="#016C55"/>
<path d="M51.1256 102.288L50.5156 103.288C50.7056 103.008 50.9156 102.668 51.1256 102.288Z" fill="#016C55"/>
<path d="M136.526 29.058C135.766 29.468 135.406 29.568 135.336 29.528C136.066 29.178 136.666 28.908 136.526 29.058Z" fill="#016C55"/>
<path d="M153.734 20.0479L152.734 20.5579C153.036 20.3311 153.374 20.1586 153.734 20.0479Z" fill="#016C55"/>
<path d="M51.125 102.288L52.685 99.668C53.065 99.658 51.985 101.048 51.125 102.288Z" fill="#016C55"/>
<path d="M5.3251 249.098C5.3256 249.647 5.28546 250.195 5.20508 250.738V249.208C5.24989 249.177 5.29029 249.14 5.3251 249.098V249.098Z" fill="#016C55"/>
<path d="M24.9243 144.778L24.5343 145.608C24.3414 145.81 24.1306 145.995 23.9043 146.158L24.9243 144.778Z" fill="#016C55"/>
<path d="M11.0645 180.588C11.2545 179.738 11.9945 179.638 12.3745 179.408C11.9333 179.89 11.6114 180.469 11.4344 181.098C11.3044 181.078 11.1745 180.928 11.0645 180.588Z" fill="#016C55"/>
<path d="M2.24405 240.668L2.16406 241.748C2.18406 241.498 2.21405 240.998 2.24405 240.668Z" fill="#016C55"/>
<path d="M37.8557 120.498C37.8085 120.359 37.8085 120.208 37.8557 120.068C37.8957 120.108 37.8957 120.268 37.8557 120.498Z" fill="#016C55"/>
<path d="M222.514 496.258C222.514 496.258 222.514 496.328 222.514 496.378C222.294 496.278 222.224 496.218 222.514 496.258Z" fill="#016C55"/>
<path d="M178.836 490.498L179.416 490.708C179.444 490.843 179.444 490.983 179.416 491.118L178.836 490.498Z" fill="#016C55"/>
<path d="M187.124 7.61816L186.974 7.66818C186.044 7.80818 186.574 7.69816 187.124 7.61816Z" fill="#016C55"/>
<path d="M469.176 123.918C466.726 121.068 471.616 129.458 468.176 125.048C468.646 125.368 466.436 120.178 469.176 123.918Z" fill="#016C55"/>
<path d="M5.18524 248.128L5.11523 246.578C5.12523 247.278 5.19524 247.758 5.18524 248.128Z" fill="#016C55"/>
<path d="M468.125 125.048L467.775 124.588C467.925 124.788 468.015 124.898 468.125 125.048Z" fill="#016C55"/>
<path d="M268.674 0.288086C268.404 0.412461 268.118 0.499891 267.824 0.548065C267.854 0.498065 268.044 0.398086 268.674 0.288086Z" fill="#016C55"/>
<path d="M207.865 4.40765L209.345 4.09766C208.755 4.24766 208.285 4.33765 207.865 4.40765Z" fill="#016C55"/>
<path d="M300.016 5.11847C300.76 5.14252 301.5 5.23966 302.226 5.40848H301.876C301.278 5.20284 300.648 5.10465 300.016 5.11847V5.11847Z" fill="#016C55"/>
<path d="M331.845 13.5882L331.225 13.5082L330.225 13.1182L331.845 13.5882Z" fill="#016C55"/>
<path d="M319.765 488.678C319.287 488.939 318.855 489.277 318.485 489.678C318.835 489.048 314.185 490.068 319.765 488.678Z" fill="#016C55"/>
<path d="M4.94531 249.108C5.13678 248.812 5.22144 248.459 5.1853 248.108C5.1853 248.478 5.1853 248.838 5.1853 249.188C5.1253 249.308 5.01531 249.328 4.94531 249.108Z" fill="#016C55"/>
<path d="M300.285 10.6582C301.97 10.893 303.64 11.2269 305.285 11.6582C303.875 11.4982 302.125 10.8582 300.285 10.6582Z" fill="#016C55"/>
<path d="M483.355 336.548L482.865 337.628C482.979 337.247 483.144 336.884 483.355 336.548V336.548Z" fill="#016C55"/>
<path d="M319.994 15.5977C320.98 15.6016 321.963 15.6885 322.934 15.8576C323.122 15.9385 323.297 16.0463 323.454 16.1776L319.994 15.5977Z" fill="#016C55"/>
<path d="M287.124 495.329C282.324 495.689 285.614 495.728 281.354 496.978C278.784 496.638 276.634 497.978 275.974 496.728C274.494 497.598 274.884 497.289 271.904 498.009C273.194 497.299 266.134 497.648 266.294 496.868C265.094 497.868 271.474 497.698 267.574 498.868C264.814 498.418 259.784 498.449 259.344 497.509C257.297 497.968 255.223 498.302 253.134 498.509C253.622 498.466 254.114 498.514 254.584 498.649C248.864 498.329 240.384 498.508 237.224 497.178C238.284 498.698 225.084 496.429 229.334 498.059C226.998 497.754 224.7 497.211 222.474 496.439C222.604 497.559 216.544 495.979 213.884 496.189C212.644 495.389 208.384 494.878 205.884 494.048C207.004 494.388 207.574 494.679 207.124 494.889C204.314 493.889 204.964 494.458 202.404 494.488C198.574 493.358 203.284 493.838 201.034 492.848C197.634 492.358 200.384 493.409 199.684 493.709L194.954 491.499C194.201 491.352 193.424 491.383 192.684 491.589C190.967 490.618 189.06 490.032 187.094 489.868L191.334 491.019L189.564 491.129L184.714 489.129C177.304 487.789 179.194 489.549 179.414 490.809L182.314 491.879C182.104 492.229 180.004 491.878 178.694 491.468C177.394 491.338 183.114 494.098 186.374 495.108C195.254 497.318 188.534 494.339 194.674 495.529C197.234 496.359 199.804 497.149 202.404 497.889L202.574 497.529C203.383 497.524 204.173 497.773 204.834 498.238C204.404 497.598 211.324 499.238 214.584 499.618L213.344 499.928C222.254 502.458 227.794 500.528 234.894 501.668L239.894 502.809L240.974 502.118C243.974 502.678 244.444 503.288 249.334 503.118C257.924 502.348 266.784 501.749 275.714 501.499C284.584 500.659 293.474 499.229 301.994 497.589C301.462 497.889 300.879 498.089 300.274 498.178C306.41 496.088 312.717 494.542 319.124 493.559C322.024 493.16 324.901 492.613 327.744 491.918C330.79 490.954 333.761 489.767 336.634 488.368L335.634 488.428C342.264 486.168 334.634 488.498 339.284 486.368C340.474 486.798 347.974 484.149 351.744 482.689C351.094 482.769 349.874 483.479 348.744 483.689C349.459 482.909 350.346 482.306 351.334 481.928C355.874 481.178 364.544 476.858 371.154 474.098C371.714 473.328 376.654 469.528 378.894 467.098C379.634 466.898 380.984 466.608 382.244 466.368C383.896 465.017 385.78 463.977 387.804 463.298L382.804 466.298H382.974C382.754 466.378 382.394 466.589 382.084 466.749C380.744 467.529 380.084 467.929 380.324 467.689C378.174 469.689 380.724 467.989 380.914 468.689C382.914 467.449 387.174 465.138 387.354 464.418C388.544 463.678 389.294 463.138 390.484 462.288C391.366 461.893 392.209 461.418 393.004 460.868C392.861 460.94 392.714 461.004 392.564 461.059C392.682 460.882 392.809 460.712 392.944 460.548C396.424 457.548 402.174 454.548 405.494 452.678C401.974 454.218 405.674 451.319 405.284 450.829C405.664 450.599 401.954 453.428 397.284 456.908C397.574 456.598 397.774 456.319 397.724 456.069C401.334 452.529 404.924 451.418 410.474 446.678C410.054 446.908 409.214 447.358 409.344 446.968C411.344 445.368 413.344 444.078 414.054 443.968C414.134 443.058 417.914 439.019 420.114 437.389C422.075 436.462 423.843 435.173 425.324 433.589L423.614 434.589C427.134 430.859 427.204 432.269 429.994 429.079C428.994 430.419 428.464 430.148 429.354 429.238C431.485 426.916 433.924 424.897 436.604 423.238L435.604 423.298C438.964 420.208 445.404 414.359 444.764 413.689C445.104 415.869 451.524 406.348 453.844 403.108C452.984 404.178 452.594 404.198 452.394 404.218C455.244 401.098 457.873 397.783 460.264 394.298C462.634 390.788 464.474 386.908 466.734 383.298L466.544 381.618C468.884 377.838 471.314 377.778 473.804 373.618L472.454 374.879C474.904 371.319 475.874 368.409 477.194 365.879C478.514 363.349 479.444 360.939 480.894 357.779L480.204 357.598C481.574 355.498 482.924 352.698 484.304 350.598C484.604 347.598 486.664 342.428 489.014 336.668C490.174 333.788 491.384 330.748 492.404 327.798C493.24 324.993 493.773 322.107 493.994 319.189L495.404 318.899C496.404 315.039 497.894 310.138 497.404 308.118L497.204 308.978C496.144 309.138 498.204 305.128 498.574 302.678C498.984 300.858 499.884 299.119 499.834 300.759C500.314 295.469 501.304 288.988 502.164 282.978C503.015 278.065 503.193 273.06 502.694 268.098C503.174 262.838 503.774 258.228 504.304 253.478C504.577 248.374 504.523 243.257 504.144 238.158L504.004 238.298C503.634 234.448 502.884 226.759 501.814 226.899C500.984 218.779 501.554 213.369 499.624 203.729L499.544 205.909C499.014 203.479 498.824 199.458 498.544 198.488C498.264 197.518 498.254 198.308 498.144 198.488C497.194 196.298 497.424 194.829 497.054 192.979L496.884 193.798C495.426 189.271 494.26 184.655 493.394 179.979C492.885 177.332 492.176 174.728 491.274 172.189C490.444 169.629 489.584 167.109 488.674 164.759C489.204 166.539 488.484 165.758 488.064 165.118C487.924 162.968 486.804 159.259 485.574 155.569C484.344 151.879 482.424 148.479 481.724 146.479L482.424 149.018C479.564 141.268 478.194 143.158 475.424 135.488L478.074 139.389C476.444 136.479 475.424 133.838 476.244 134.298C474.104 131.058 475.454 134.179 472.364 129.229C471.944 129.229 474.364 132.929 472.964 131.509L467.964 125.089C467.188 124.055 466.518 122.946 465.964 121.779C467.614 121.599 462.574 116.049 465.914 118.729C464.454 116.269 462.994 113.949 461.554 111.729C460.114 109.509 458.334 107.588 456.794 105.578C453.644 101.578 450.694 97.7785 448.024 93.6485C444.604 91.2785 435.024 79.2185 434.414 81.1485C432.554 79.1485 430.944 77.2452 429.584 75.4385C428.194 73.6985 426.854 72.2585 425.884 70.8185C426.82 71.5823 427.674 72.4401 428.434 73.3785C427.714 72.0785 422.844 67.5385 420.784 65.6785C423.184 68.4385 427.274 72.6785 428.844 75.0585C425.304 71.5685 420.604 66.3685 418.694 64.3085L417.104 64.1785C414.454 60.8085 413.994 62.3985 411.484 58.8385L412.264 59.1485C406.174 54.4085 406.584 53.7085 400.904 49.2485V49.7385C398.834 48.3885 396.394 45.4385 393.964 44.7385L397.714 47.5885C396.934 47.8485 393.894 45.9485 392.414 45.2685C388.414 42.3785 391.564 43.3985 389.504 41.9885C388.254 41.9885 389.094 42.1385 390.234 43.5585C385.614 40.4885 379.374 36.3785 376.384 33.6185C376.124 33.6185 376.294 33.8385 376.294 33.8385C371.404 30.7385 367.174 27.7885 363.754 26.6685L364.754 27.2385C360.174 26.0585 354.294 21.2385 352.754 22.2385C350.664 21.5585 357.264 24.3385 353.754 23.5285C347.384 20.9985 350.184 20.3285 344.344 18.6185C345.144 18.8585 344.854 18.8585 345.064 19.0885C340.964 17.5485 335.554 15.3985 331.064 13.5785C329.274 13.2579 327.507 12.8203 325.774 12.2685C323.774 11.7985 321.514 11.1885 319.274 10.5885C314.784 9.37851 310.174 8.1585 306.714 8.0485C308.924 8.0485 305.194 7.04852 305.234 6.78852C305.234 6.78852 305.474 6.9885 305.234 7.0185C302.824 6.4585 302.644 5.82852 301.754 5.50852C299.654 5.64852 295.024 3.9785 293.694 4.0785C293.694 3.7385 291.694 3.52852 289.524 3.19852C293.874 4.19852 290.834 4.12852 292.724 4.94852C286.164 4.10852 285.414 2.33851 278.534 1.55851C277.239 1.60274 275.947 1.71623 274.664 1.8985C273.974 0.898503 267.534 0.968504 267.664 0.618504C266.454 0.858504 264.724 0.938512 264.954 1.43851C262.194 1.06851 258.054 1.34851 256.954 0.718511L259.704 0.608495C251.164 0.278495 246.014 -0.461487 239.424 0.408513L239.634 1.84852C235.314 2.65852 231.494 1.3985 227.794 2.5185C229.064 1.9785 229.364 1.94851 226.534 1.87851C228.164 1.42851 231.284 1.8785 234.034 1.6485L228.084 1.0785H237.294C233.294 0.688496 233.614 0.818513 235.184 0.158513C229.544 0.018513 229.184 0.938501 223.864 1.2085C221.964 1.6785 223.994 1.9185 221.864 2.5185C217.094 2.6685 213.084 4.8085 209.604 4.5185C208.554 4.8185 211.544 4.28851 211.334 4.65851C208.334 4.94851 206.134 5.30852 205.174 5.00852L207.744 4.4885C205.464 4.8285 204.974 4.2585 200.744 5.6485C198.214 5.9085 196.644 5.53852 199.344 4.88852C198.234 5.05852 195.914 6.0085 196.854 6.2385C190.184 7.8385 193.294 5.48852 186.994 7.69852C187.444 7.63852 187.934 7.58852 187.714 7.69852C186.386 8.12708 185.029 8.46125 183.654 8.69852C189.404 7.46852 182.184 10.2485 188.854 8.3985C188.314 9.3485 183.764 9.6885 181.744 10.6185C178.404 11.1985 181.074 9.67849 179.354 9.85849C179.454 10.0785 178.124 10.5285 176.584 11.1485L177.944 10.0785C176.604 10.5285 175.304 10.9785 173.654 11.3885L176.404 10.7085C173.524 11.7885 169.404 14.1385 164.174 15.3185C165.614 15.0885 168.444 14.6385 165.174 16.0585C159.504 17.5785 163.964 16.7185 161.014 18.1985C155.664 20.4185 159.704 17.6385 152.014 21.4385C151.174 21.8085 151.814 21.1485 152.604 20.6285C147.384 23.2785 144.234 24.0985 139.294 26.9285C141.414 25.6385 143.144 24.7885 139.934 25.8685C141.384 25.5785 136.044 28.5185 134.254 29.8685H133.614C132.234 30.9885 133.934 30.1885 135.234 29.5985C135.154 29.5285 135.554 29.1985 136.494 28.7085C139.044 27.5585 138.654 29.0485 134.864 31.2685C130.614 33.2685 130.864 32.2685 131.464 31.6185C126.084 34.9585 125.614 33.3385 120.524 36.6785C119.324 37.3985 116.154 41.0185 112.524 43.5685C110.264 44.2885 116.794 40.0785 114.374 41.0185C109.294 46.5585 101.094 48.3685 94.3742 55.5185L95.8142 55.3985C94.1242 56.8485 92.4542 58.2785 90.4542 59.7885L92.7242 57.3685C90.8742 58.6385 86.8942 62.0885 88.6342 61.4685C84.2442 64.0985 83.7942 65.2085 80.5742 68.6385C84.0942 65.1185 80.5742 68.4885 83.4542 66.2685C81.4533 68.6152 79.2259 70.759 76.8042 72.6685C77.4342 72.4585 76.3842 74.0885 75.3942 75.0685C71.799 77.8867 68.4837 81.0446 65.4942 84.4985L65.6842 84.6485C60.3542 90.5085 55.3242 97.4485 50.3842 103.649L50.1242 103.959L50.4542 103.419C51.4542 100.739 46.4042 108.129 44.7242 109.929C44.6534 110.678 44.3726 111.392 43.9142 111.989C43.2842 111.659 41.7742 114.259 40.9142 115.049C39.7242 117.549 41.8142 115.219 39.4042 119.239C38.4042 120.779 37.9942 120.769 37.8742 120.429C37.2005 122.516 36.3089 124.527 35.2142 126.429C35.7403 125.668 36.2082 124.869 36.6142 124.039C37.1042 123.969 36.1342 125.329 36.6142 125.539C35.5442 127.459 35.6142 125.968 34.4042 128.458L36.1842 126.549C35.7258 127.46 35.1691 128.318 34.5242 129.108C35.5242 127.738 35.8742 128.229 36.0442 128.599C32.4642 133.859 34.0442 128.919 33.3642 128.889C30.5142 134.229 27.9842 138.269 25.9042 142.499L26.9042 141.988C26.3104 143.287 25.5361 144.496 24.6042 145.578L23.0842 148.768C24.1742 147.028 24.6542 146.509 25.2042 146.599C23.4542 149.919 21.3342 154.598 20.2042 155.178L20.3942 155.099C18.9642 159.919 15.5342 169.789 15.9342 169.559C14.8705 172.046 13.9327 174.586 13.1242 177.169C12.4942 179.469 11.9542 181.169 11.5142 181.069C10.5142 184.069 10.5142 189.389 8.8042 191.319C8.4042 195.129 8.9942 191.568 9.9342 190.608C9.5642 194.408 6.99419 197.768 8.08419 199.298C6.95419 203.578 7.9942 198.238 7.1842 199.578C8.1842 200.748 6.00419 207.728 5.98419 211.928C5.19419 213.678 5.98419 210.009 4.98419 213.089C5.33419 212.829 5.10419 214.518 4.98419 215.368L4.10421 216.069L5.1242 220.499C3.4142 226.569 4.0042 219.079 2.5942 227.279L2.72421 226.788C3.21421 229.108 1.37419 232.718 1.95419 238.788C1.82419 236.718 2.32421 237.948 2.53421 237.288L2.23419 240.649C2.23419 240.349 2.3142 240.199 2.4042 240.519C3.0142 243.459 2.1342 243.089 2.7742 246.519C2.8342 244.149 3.4342 244.849 3.7742 245.879L3.17419 250.798L4.08419 248.798C4.37419 253.538 3.35419 260.728 4.95419 263.038V260.668C5.21419 260.828 6.0442 262.178 5.8442 265.408C5.8442 266.408 5.2742 267.129 5.1842 265.769L5.64419 268.139C6.17419 266.929 5.83419 260.989 5.73419 257.269C5.55419 258.449 5.5842 261.339 5.0942 260.499C5.0242 257.169 5.2442 253.979 5.2742 250.779C5.11831 251.729 4.85321 252.659 4.48419 253.548C3.89419 249.988 4.7842 250.838 4.6842 248.118C4.3542 247.118 4.16421 246.408 3.97421 247.118C4.12915 243.895 4.06567 240.664 3.78421 237.449C3.78421 237.449 3.2742 241.499 2.9042 239.269C3.3742 232.609 4.3042 231.438 5.6842 224.428C7.8942 216.428 7.59422 208.569 9.29422 203.039C9.64422 202.799 9.1042 207.348 9.9042 203.738C9.2142 204.258 9.90421 201.468 9.69421 201.238C11.1642 197.448 10.9142 195.438 12.1442 192.798C11.7642 193.398 12.1442 191.079 12.3442 189.539C11.5042 189.789 13.2042 185.149 10.6642 190.539C13.3342 184.979 13.1042 180.049 16.0242 176.249C15.8987 176.755 15.8084 177.27 15.7542 177.789C16.2042 175.789 16.8942 173.909 17.4542 171.969L17.3742 172.219C18.18 170.158 18.7242 168.004 18.9942 165.809C18.2942 167.179 17.5342 169.238 16.8342 170.618C17.3442 167.338 19.6842 164.458 20.9542 161.108C20.3942 161.108 19.4842 164.558 19.2342 163.328C20.0841 161.107 21.0488 158.93 22.1242 156.809L21.7342 157.009C23.5542 150.879 24.0642 155.319 25.0742 150.689C25.1642 150.899 25.5942 150.438 25.6342 150.768C26.0842 149.088 27.3242 145.208 25.2742 148.678C26.0785 146.902 27.0852 145.224 28.2742 143.678C27.8742 145.558 27.4742 145.879 27.6842 146.749L31.7542 138.879C32.1742 137.989 31.1842 139.409 30.6442 140.539C31.9842 135.369 35.1942 131.089 38.1642 126.539C41.2934 121.849 44.1805 117.003 46.8142 112.019C46.4442 113.369 47.6742 111.569 48.6042 110.839C50.6942 107.659 54.1442 103.059 55.9542 100.019L55.0442 100.729C60.9042 93.7985 65.6342 89.6485 69.2842 84.9085C69.5842 84.7885 68.9042 84.6185 68.1242 85.3785C71.3042 82.3285 73.8642 77.3785 75.6342 77.4585L74.5442 78.6585C80.9797 72.173 87.9363 66.2264 95.3442 60.8785C96.4842 58.9485 91.2742 64.0985 92.1042 62.2285C94.4342 60.1285 96.9342 58.2285 99.4942 56.2285C102.054 54.2285 104.624 52.2285 107.434 50.3085C107.017 50.5289 106.586 50.7226 106.144 50.8885C111.484 46.6785 105.984 51.8885 110.644 48.6385C110.174 48.4985 110.344 48.2685 111.804 47.0385L113.544 46.6085C113.724 46.3685 113.414 45.9985 112.604 46.3185C115.174 45.5885 121.124 40.7885 123.244 40.4285C123.594 40.0085 121.974 40.0885 122.514 39.4285C124.532 38.1264 126.697 37.069 128.964 36.2785C130.564 34.7685 135.184 32.2785 134.164 32.7685C138.834 29.8885 135.164 32.7185 138.974 31.1285L135.294 33.4985L142.084 29.9385L139.254 31.0685C142.134 28.9485 145.874 28.3485 149.564 26.6085L148.034 27.7685L152.414 26.1385C152.414 25.1385 157.784 23.5385 155.034 23.5985C162.734 19.3985 168.624 19.1485 176.084 16.5985C174.784 17.0385 175.234 16.6885 174.924 16.5985C178.071 15.3094 181.39 14.4873 184.774 14.1585C184.134 13.9785 183.064 14.2185 182.984 14.0085C188.244 12.6085 186.344 13.7085 192.244 12.5685C190.534 12.5685 190.984 12.2685 192.564 11.7885C192.394 12.1785 193.794 12.0885 194.894 11.9285C190.064 11.1985 201.284 9.6485 198.194 8.9285C198.584 9.2385 207.864 7.84851 205.384 9.18851L203.764 9.4285C203.684 9.9985 205.764 9.16851 207.464 9.05851C206.853 9.12814 206.236 9.12814 205.624 9.05851C209.884 8.72851 214.204 8.1585 218.624 7.5185C223.044 6.8785 227.624 5.9085 232.424 6.1185C231.584 5.9685 227.704 5.82851 230.144 5.55851C239.624 4.96851 245.204 5.26852 254.724 5.81852C255.164 4.38852 244.404 5.81852 244.004 4.81852L251.644 4.68851C254.214 4.83851 256.804 5.1085 259.424 5.3285L275.594 6.8985C279.684 5.4885 286.294 9.14852 293.354 8.81852C292.614 9.27852 295.984 9.9985 299.694 10.5785C298.504 9.9285 302.444 10.5185 301.414 10.0185C304.524 11.2985 313.674 13.9185 313.594 12.7385C314.154 13.9985 320.484 14.4585 322.914 15.8685C327.084 16.4585 331.264 19.0285 336.304 20.4085C334.304 20.4085 341.064 22.4985 342.764 23.4085C342.274 23.1785 341.284 22.7185 341.564 22.7185C343.214 22.8085 347.114 25.0485 349.824 26.1585C351.124 26.5085 349.774 25.4385 351.754 26.3385C351.604 26.7985 358.494 30.7385 361.394 31.4785C360.71 31.1574 360.098 30.7017 359.594 30.1385C362.594 31.8385 365.774 33.4485 368.974 35.0285L378.214 40.5985L387.454 46.2585C390.594 48.0485 393.204 50.5985 395.964 52.8285L394.414 50.6585C402.154 55.1485 398.304 55.2285 403.984 59.3285C407.932 62.1189 411.706 65.1478 415.284 68.3985L426.404 77.9285L436.404 88.4985C439.758 91.8935 442.809 95.574 445.524 99.4985C446.154 100.749 444.814 99.0385 444.414 99.0685C445.464 100.309 446.274 100.269 447.264 102.299L446.624 102.169C450.282 106.227 453.606 110.575 456.564 115.169C459.564 120.279 462.424 125.099 464.874 127.349C468.784 134.569 472.024 139.418 475.474 148.828C477.194 151.508 474.564 145.219 476.474 149.009C477.534 151.919 478.914 154.679 479.694 157.689L479.584 157.199C481.294 166.039 489.584 178.709 490.884 190.069V189.589C491.104 189.259 492.044 191.409 492.394 193.199C492.394 193.859 491.934 192.709 491.394 191.719C492.394 196.609 493.044 199.589 493.614 202.309C493.984 205.069 494.314 207.559 494.844 211.469C494.774 208.029 495.704 214.529 496.374 214.779C496.284 216.899 495.554 213.699 495.914 218.309C496.334 221.569 497.084 224.659 497.484 227.649C497.884 230.639 498.084 233.528 498.364 236.238C497.924 238.488 498.224 241.378 497.544 241.548C497.664 245.248 497.764 248.128 497.864 251.218C497.684 254.308 497.494 257.609 497.234 262.149L497.454 262.389C496.454 264.779 497.454 270.289 496.914 271.949C497.234 271.719 497.404 270.759 497.624 271.029L497.144 275.139C497.504 273.209 498.374 272.139 498.294 275.579C497.514 279.069 497.934 274.578 497.354 276.238C497.584 276.628 497.874 277.009 498.064 277.389C497.574 280.039 496.564 280.669 496.814 277.389C495.364 286.389 493.904 295.249 492.444 303.199L493.164 302.468C491.832 306.681 490.829 310.991 490.164 315.358C489.984 315.438 489.444 316.439 489.454 315.699C487.454 320.699 490.144 316.488 487.944 321.928C488.494 320.588 489.054 318.838 489.404 318.678C488.407 322.197 487.157 325.64 485.664 328.978C485.994 329.188 484.524 335.738 482.604 339.978C482.344 340.068 482.524 338.709 482.884 337.589L481.684 340.298L481.744 342.779L479.534 346.509L480.204 346.879C478.904 349.769 477.314 350.439 476.324 352.779C472.604 361.599 473.684 359.958 471.324 366.428C470.444 366.428 469.524 368.968 468.004 371.358C466.484 373.748 465.154 376.358 464.254 376.858C461.969 381.702 459.349 386.38 456.414 390.858C452.864 395.618 449.034 400.588 445.584 405.468L446.274 404.759C445.398 406.391 444.209 407.835 442.774 409.009C441.147 410.097 439.694 411.425 438.464 412.949L439.554 412.069C436.871 415.563 433.965 418.88 430.854 421.999C429.154 423.699 427.544 425.479 425.854 426.899L421.164 430.538C422.324 429.778 422.164 430.539 420.504 431.999C418.964 432.999 421.124 430.069 418.504 432.809C419.294 432.289 418.964 433.008 418.324 433.598L415.104 435.598L409.754 440.949C407.924 442.809 405.754 444.319 403.674 446.019C399.494 449.319 395.194 452.568 391.034 455.408C389.684 456.738 390.924 456.139 391.424 456.079C384.634 460.339 377.424 463.788 371.234 467.468L371.004 468.579C367.934 470.349 368.464 468.468 364.694 471.168C363.824 471.718 367.454 469.898 368.774 469.678C362.654 473.328 364.614 470.778 358.554 473.798L360.554 473.879C356.104 476.639 354.984 476.009 353.064 476.319C346.064 478.499 349.124 480.269 339.464 482.949C337.824 483.059 339.704 482.128 338.074 482.238C331.594 484.818 330.644 484.618 324.074 487.048C320.874 489.318 327.524 486.158 323.974 488.428C325.679 487.863 327.349 487.195 328.974 486.428C324.894 488.708 332.974 485.169 332.554 486.209C330.637 487.003 328.669 487.671 326.664 488.209C324.434 488.799 321.964 489.029 319.754 489.499C319.934 490.109 324.844 488.268 323.074 489.598L320.754 489.928C321.47 490.065 322.21 490.021 322.904 489.798C322.264 490.578 320.274 490.508 318.134 491.048C317.904 490.768 317.884 490.298 318.474 489.678C318.332 489.833 318.158 489.956 317.964 490.038C313.364 490.288 306.174 492.848 302.284 493.108C302.924 493.108 302.424 493.319 302.284 493.519C299.614 494.069 296.674 493.588 293.054 493.928C291.164 494.688 294.414 495.119 288.594 495.749C287.494 495.389 289.914 494.108 285.104 494.858C285.124 494.838 289.344 494.619 287.124 495.329ZM389.574 457.559C390.272 457.171 390.94 456.733 391.574 456.249C390.949 456.736 390.287 457.174 389.594 457.559H389.574ZM397.024 452.798C396.254 453.388 395.824 453.409 395.954 453.019L399.284 450.488C398.274 451.498 396.534 452.988 397.044 452.798H397.024ZM384.254 466.048H384.454L386.824 464.699C386.724 464.929 386.344 465.318 384.964 466.038C384.738 466.092 384.502 466.096 384.274 466.048H384.254Z" fill="#016C55"/>
<path d="M382.125 466.698L381.555 466.988L382.265 466.378L382.845 466.278L382.125 466.698Z" fill="#016C55"/>
<path d="M50.4547 103.498L50.5547 103.318C50.4813 103.447 50.4242 103.585 50.3848 103.728C50.4348 103.578 50.4247 103.568 50.4547 103.498Z" fill="#016C55"/>
<path d="M479.366 346.468L479.516 346.548L479.086 347.278L479.366 346.468Z" fill="#016C55"/>
<path d="M25.5658 150.748C25.5608 150.991 25.5134 151.231 25.4258 151.458C25.4347 151.215 25.482 150.976 25.5658 150.748V150.748Z" fill="#016C55"/>
<path d="M17.304 172.198L16.4141 175.318C16.7741 173.958 17.064 172.978 17.304 172.198Z" fill="#016C55"/>
<path d="M12.6454 189.218C12.5435 189.332 12.417 189.421 12.2754 189.478L12.6454 189.218Z" fill="#016C55"/>
<path d="M207.465 9.1177L208.145 9.04769C209.745 8.95769 208.665 9.0577 207.465 9.1177Z" fill="#016C55"/>
<path d="M128.936 36.2578C129.776 35.9378 130.606 35.6178 131.446 35.2578C130.176 36.0078 129.126 36.5778 128.936 36.2578Z" fill="#016C55"/>
<path d="M299.725 10.5879L300.295 10.6779L299.725 10.5879Z" fill="#016C55"/>
<path d="M134.845 33.3477C133.772 34.0799 132.634 34.7125 131.445 35.2376C132.541 34.5416 133.676 33.9105 134.845 33.3477Z" fill="#016C55"/>
<path d="M6.56445 264.828L6.67444 265.668C6.62444 265.668 6.59446 265.718 6.57446 265.788L6.56445 264.828Z" fill="#016C55"/>
<path d="M6.57587 265.788V266.788C6.51117 266.458 6.51117 266.118 6.57587 265.788V265.788Z" fill="#016C55"/>
<path d="M6.5957 268.738V266.738C6.70537 267.4 6.70537 268.076 6.5957 268.738Z" fill="#016C55"/>
<path d="M4.79492 241.499L5.03491 241.229C5.02324 241.291 4.99471 241.349 4.95242 241.397C4.91013 241.444 4.8557 241.48 4.79492 241.499V241.499Z" fill="#016C55"/>
<path d="M4.93523 234.498C4.93523 236.178 5.34522 238.698 5.23522 241.038L5.03524 241.268C5.35524 240.128 4.44523 236.048 4.93523 234.498Z" fill="#016C55"/>
<path d="M6.03415 204.618L5.22415 210.618C5.13415 209.538 5.01414 208.108 4.49414 210.798C4.98414 203.138 4.82415 212.418 6.03415 204.618Z" fill="#016C55"/>
<path d="M9.88442 186.348C8.93442 189.448 9.5244 186.208 9.3344 186.348C10.1244 184.408 10.2844 183.948 9.88442 186.348Z" fill="#016C55"/>
<path d="M77.7657 71.4976L77.0957 71.2776C78.9457 69.5676 77.2757 71.4076 77.7657 71.4976Z" fill="#016C55"/>
<path d="M99.196 57.0283L97.576 58.8483L96.3359 59.1283L99.196 57.0283Z" fill="#016C55"/>
<path d="M108.774 44.4482L107.824 44.9881L111.414 42.8281L108.774 44.4482Z" fill="#016C55"/>
<path d="M326.506 11.0383L325.506 11.5783C323.946 11.0283 323.856 10.1083 326.506 11.0383Z" fill="#016C55"/>
<path d="M412.006 58.168C413.665 59.0177 415.119 60.2189 416.266 61.688C414.596 60.248 412.776 58.998 412.006 58.168Z" fill="#016C55"/>
<path d="M493.804 324.228L494.544 322.378L493.404 325.928L493.804 324.228Z" fill="#016C55"/>
<path d="M42.7345 427.949C42.9045 428.369 42.4745 428.419 41.7345 427.479L41.6445 426.479L42.7345 427.949Z" fill="#016C55"/>
<path d="M36.776 422.548C36.136 421.268 35.546 419.698 36.536 420.068C36.936 421.498 37.316 421.618 37.726 423.198C38.416 424.198 39.186 424.678 39.226 424.378C39.376 424.798 40.506 425.708 40.636 426.438C39.1078 425.349 37.8685 423.904 37.026 422.228C36.656 421.968 36.796 422.398 36.776 422.548Z" fill="#016C55"/>
<path d="M43.5547 346.058C43.6916 345.769 43.7891 345.463 43.8447 345.148C43.8039 345.467 43.7057 345.775 43.5547 346.058V346.058Z" fill="#016C55"/>
<path d="M15.2757 292.688C15.0457 293.208 14.9057 293.408 14.8457 293.408C15.1257 292.938 15.2757 292.548 15.2757 292.688Z" fill="#016C55"/>
<path d="M26.225 288.808L25.625 288.368C25.852 288.474 26.056 288.623 26.225 288.808Z" fill="#016C55"/>
<path d="M43.5556 346.058C43.199 346.835 42.5793 347.462 41.8056 347.828C41.5556 347.738 43.0356 347.228 43.5556 346.058Z" fill="#016C55"/>
<path d="M28.7158 408.748C28.8803 409.071 29.0207 409.405 29.1358 409.748L28.6758 408.898L28.7158 408.748Z" fill="#016C55"/>
<path d="M19.0049 343.928L18.6848 344.448C18.5395 344.57 18.382 344.677 18.2148 344.768L19.0049 343.928Z" fill="#016C55"/>
<path d="M13.0449 368.018C13.0449 367.458 13.5449 367.268 13.7749 367.018C13.5451 367.385 13.4142 367.805 13.3949 368.238C13.3049 368.278 13.1849 368.208 13.0449 368.018Z" fill="#016C55"/>
<path d="M24.1953 405.098L24.4653 405.738C24.3953 405.568 24.2753 405.298 24.1953 405.098Z" fill="#016C55"/>
<path d="M34.6055 335.048C34.6734 334.971 34.7647 334.919 34.8654 334.898C34.8654 334.958 34.7555 335.008 34.6055 335.048Z" fill="#016C55"/>
<path d="M140.125 470.378C140.125 470.378 140.125 470.378 140.175 470.308C140.295 470.428 140.315 470.498 140.125 470.378Z" fill="#016C55"/>
<path d="M166.655 481.008L166.295 480.848C166.279 480.748 166.279 480.647 166.295 480.548L166.655 481.008Z" fill="#016C55"/>
<path d="M41.9758 305.708L41.9158 305.618C41.6358 305.068 41.8158 305.368 41.9758 305.708Z" fill="#016C55"/>
<path d="M88.6445 342.158C87.8945 339.858 88.5545 346.068 87.6445 342.588C87.8445 342.898 87.9745 339.248 88.6445 342.158Z" fill="#016C55"/>
<path d="M28.3342 408.248L27.8242 407.408C28.0139 407.676 28.1843 407.957 28.3342 408.248V408.248Z" fill="#016C55"/>
<path d="M87.6056 342.589L87.5156 342.229C87.5456 342.379 87.5656 342.499 87.6056 342.589Z" fill="#016C55"/>
<path d="M33.4951 306.948C33.5135 307.165 33.5135 307.382 33.4951 307.598C33.4951 307.598 33.4051 307.398 33.4951 306.948Z" fill="#016C55"/>
<path d="M47.1758 318.278L47.5958 319.168C47.4158 318.818 47.2858 318.498 47.1758 318.278Z" fill="#016C55"/>
<path d="M52.6855 300.818C53.1435 301.044 53.5649 301.337 53.9355 301.688L53.7155 301.588C53.4319 301.26 53.0805 300.998 52.6855 300.818V300.818Z" fill="#016C55"/>
<path d="M66.3148 317.308L66.0349 317.018L65.7148 316.418L66.3148 317.308Z" fill="#016C55"/>
<path d="M96.3945 423.828C96.6781 424.05 96.9955 424.226 97.3345 424.348C96.8545 424.288 98.5645 426.858 96.3945 423.828Z" fill="#016C55"/>
<path d="M28.476 408.888C28.5075 408.665 28.4578 408.438 28.3359 408.248L28.6759 408.848C28.6359 408.938 28.586 408.988 28.476 408.888Z" fill="#016C55"/>
<path d="M51.0254 304.558C51.8247 305.138 52.5831 305.773 53.2954 306.458C52.6454 305.888 51.8354 305.158 51.0254 304.558Z" fill="#016C55"/>
<path d="M6.7756 361.618L6.51562 360.958C6.6368 361.163 6.72454 361.386 6.7756 361.618Z" fill="#016C55"/>
<path d="M59.2754 313.729C59.7631 314.103 60.2061 314.533 60.5954 315.009C60.6449 315.13 60.6785 315.258 60.6954 315.389L59.2754 313.729Z" fill="#016C55"/>
<path d="M109.496 441.098C111.306 443.668 110.246 441.798 112.406 443.698C113.076 445.278 114.616 445.908 114.176 446.758C115.286 447.128 114.946 447.068 116.566 448.258C115.566 447.938 118.776 451.258 118.266 451.598C119.266 451.738 116.566 448.598 118.836 450.028C119.696 451.628 121.836 454.088 121.576 454.758C122.713 455.525 123.799 456.367 124.826 457.278C124.587 457.059 124.396 456.794 124.266 456.498C126.616 459.498 131.086 462.758 132.206 464.748C132.206 463.548 138.586 469.588 136.896 467.068C138.065 468.078 139.171 469.16 140.206 470.308C140.536 469.528 143.516 472.398 145.256 472.848C145.786 473.668 148.256 475.038 149.636 476.088C148.996 475.658 148.736 475.298 149.066 475.258C150.596 476.468 150.336 475.948 151.966 476.378C154.156 477.798 151.256 476.698 152.486 477.758C154.576 478.638 153.016 477.468 153.486 477.358C154.346 478.138 155.256 478.838 156.186 479.528C156.663 479.711 157.179 479.77 157.686 479.698C158.657 480.581 159.868 481.158 161.166 481.358C160.246 481.048 159.376 480.628 158.496 480.238L159.666 480.308C160.666 480.938 161.666 481.428 162.666 481.998C167.516 483.118 166.296 481.758 166.226 480.848L164.436 480.038C164.586 479.788 165.906 480.088 166.716 480.368C167.516 480.458 164.066 478.438 162.136 477.628C156.886 475.468 160.676 478.088 156.986 476.708C155.486 475.928 154.096 474.908 152.666 474.008L152.476 474.238C151.982 474.107 151.549 473.806 151.256 473.388C151.316 473.988 147.626 471.388 145.826 470.388L146.656 470.458C142.316 466.678 138.656 466.138 135.306 462.938L133.256 460.388H132.396C131.156 458.948 131.226 458.388 128.826 456.458C120.166 449.838 113.416 440.158 106.206 431.888C106.386 431.888 106.606 432.178 107.086 432.648C100.086 425.838 99.1956 419.738 93.3156 413.238L93.4956 413.848C91.0356 410.158 93.6656 414.468 91.5756 411.988C91.7756 411.108 88.7756 407.068 87.5056 404.828C87.8025 405.441 88.1364 406.035 88.5056 406.608C88.1056 406.298 87.6756 406.368 87.0356 405.248C86.2056 402.378 82.6056 397.418 80.1856 393.588C79.5256 393.398 76.9056 390.468 75.1356 389.268C75.0156 388.818 74.7756 387.948 74.5556 387.118C73.5681 386.184 72.7879 385.053 72.2656 383.798L74.4756 386.798V386.688C74.5456 386.828 74.6956 387.038 74.8156 387.228C75.3956 388.018 75.6756 388.458 75.5056 388.288C76.9256 389.498 75.7056 387.988 76.1856 387.778C75.2956 386.598 73.5556 384.058 73.0456 384.008C72.4956 383.308 72.1056 382.868 71.4756 382.188C71.1686 381.655 70.803 381.159 70.3856 380.708L70.5356 380.978C70.4055 380.927 70.284 380.856 70.1756 380.768C68.2094 378.301 66.4469 375.679 64.9056 372.928C65.9056 375.168 63.9656 372.928 63.6056 373.228C63.4656 372.988 65.3856 375.228 67.7556 378.078C67.5556 377.908 67.3456 377.798 67.1756 377.858C64.7556 375.728 64.0556 373.368 60.6956 370.128C60.8556 370.388 61.1656 370.898 60.8956 370.848C59.9976 370.023 59.3116 368.994 58.8956 367.848C58.2756 367.848 55.6556 365.508 54.5656 364.138C53.954 362.89 53.0809 361.788 52.0056 360.908L52.6556 361.998C50.1456 359.878 51.0456 359.788 48.8756 358.148C49.7656 358.778 49.6056 359.148 48.9656 358.598C47.5061 357.194 46.2172 355.623 45.1256 353.918V354.598C43.1256 352.438 39.0556 348.598 38.5956 349.158C40.0056 348.798 33.6756 345.008 31.4656 343.688C32.2056 344.188 32.2156 344.458 32.2356 344.598C27.7556 340.997 22.2556 338.897 16.5156 338.598L15.5656 339.338C12.6156 339.458 11.3856 338.048 7.95559 339.428C8.40559 339.428 8.85562 339.298 9.29562 339.288C6.86134 340.064 4.68609 341.493 3.00561 343.418C1.53152 345.158 0.538621 347.254 0.125604 349.498H0.645593C0.103278 351.38 -0.0998613 353.344 0.0456174 355.298C0.905617 357.208 1.80559 360.898 3.73559 364.568C5.503 368.135 7.95252 371.322 10.9456 373.948L10.4756 374.878C12.1256 376.878 14.2356 379.398 15.5956 379.758L15.1856 379.358C15.5356 378.678 16.9656 381.188 18.1856 382.178C18.9956 383.078 19.5656 384.248 18.7056 383.638C23.8956 388.068 31.7756 394.438 35.9756 395.798C41.7056 399.388 46.3556 402.498 54.2256 403.318L54.1456 403.198C56.8056 403.508 62.1456 402.578 61.8856 401.698C67.1356 400.698 71.2456 399.958 75.8856 395.078C75.4787 395.352 75.0582 395.606 74.6256 395.838C75.7956 394.638 77.8256 392.838 78.2956 392.388C78.7656 391.938 78.2956 392.158 78.1256 392.158C78.8299 391.118 79.6301 390.148 80.5156 389.258L80.1256 389.498C82.6356 385.018 86.7656 377.928 87.9056 371.358C87.5556 372.518 87.4056 371.828 87.3856 371.358C88.9156 368.898 89.6056 361.558 89.8556 358.838L89.4056 360.498C90.2856 355.208 88.7256 355.888 89.2456 350.648L89.8056 353.648C89.6456 351.498 89.7456 349.648 90.1456 350.168C89.7056 347.688 89.4956 349.888 89.1456 346.168C88.9156 346.028 89.1456 348.868 88.7756 347.668C88.4056 345.968 88.0856 344.268 87.6156 342.598C87.4181 341.788 87.3009 340.96 87.2656 340.128C88.4356 340.408 86.6256 335.898 88.1156 338.278C86.9256 330.978 84.4356 325.218 82.5456 319.198C81.5456 318.198 80.3356 315.348 79.0656 312.938C77.7956 310.528 76.4956 308.578 76.0656 309.208L71.4256 301.818C72.0247 302.352 72.5374 302.976 72.9456 303.668C72.6656 302.668 69.5656 299.478 67.8756 298.458C69.9912 300.234 71.7376 302.409 73.0156 304.858C71.0756 302.218 68.2456 298.858 66.0156 297.858C65.6118 297.954 65.222 298.102 64.8556 298.298C64.373 298.129 63.8517 298.106 63.3559 298.23C62.8602 298.355 62.4117 298.622 62.0656 298.998L60.1756 300.998L60.2856 300.398C59.4005 301.968 58.7279 303.65 58.2856 305.398C57.7895 306.932 57.5003 308.526 57.4256 310.138L57.7156 309.948C57.7156 311.548 57.1456 314.008 57.9056 315.538C57.8556 314.538 57.7756 313.538 57.7956 312.468C58.2756 312.778 58.5856 315.088 58.9656 316.088C59.1756 319.278 58.2856 317.308 58.4356 318.918C58.9956 319.528 58.7056 319.038 58.9956 317.918C59.2556 321.498 60.3856 326.198 60.8356 328.808C60.9656 328.938 60.9956 328.728 60.9956 328.728L62.9256 333.648C63.3778 334.642 63.8853 335.61 64.4456 336.548C64.9856 337.548 65.6056 337.718 66.1056 338.158L65.5056 337.508C65.8612 337.734 66.1959 337.992 66.5056 338.278C66.8856 338.468 67.5056 338.068 67.9956 337.938C69.0132 337.546 69.8834 336.847 70.4856 335.938C71.7456 334.148 71.6856 331.578 71.1156 331.518C70.9756 330.798 71.0456 331.518 70.9456 332.458C70.8456 333.398 70.6356 333.998 70.5256 332.568C70.4195 331.289 70.4395 330.003 70.5856 328.728C70.7606 327.584 70.5078 326.416 69.8756 325.448C70.1156 325.928 69.9856 325.798 69.9456 326.008C68.7886 322.981 67.4529 320.026 65.9456 317.158C63.3456 314.288 59.6056 307.158 55.6256 304.848C56.8856 305.578 55.1856 303.738 55.2756 303.608C55.3656 303.478 55.3456 303.818 55.1656 303.748C54.5304 303.184 54.0078 302.506 53.6256 301.748C52.4556 301.098 49.6856 298.898 48.5656 298.978C48.6256 298.748 47.1056 298.398 45.4256 298.478C48.7456 298.878 46.4756 299.058 47.8356 299.578C46.182 299.32 44.504 299.256 42.8356 299.388C41.0867 299.519 39.4305 300.226 38.1256 301.398C37.5344 302.089 37.012 302.835 36.5656 303.628C36.1256 303.628 35.2256 304.538 34.6156 305.628C34.2725 306.313 33.8953 306.98 33.4856 307.628C33.3756 308.518 33.2456 309.768 33.6356 309.628C32.9656 311.498 33.4756 314.328 33.1856 315.128C33.0474 314.507 32.9406 313.879 32.8656 313.248C33.4256 319.098 34.4156 322.748 37.2756 326.248L38.1256 325.498C39.1256 326.498 39.7956 327.628 40.7156 328.658C41.1504 329.24 41.7267 329.702 42.3899 330C43.0532 330.297 43.7814 330.42 44.5056 330.358C43.9656 330.528 43.5956 330.488 43.6856 330.568C44.284 330.86 44.9599 330.955 45.6156 330.838C44.6247 331.084 43.5777 330.956 42.6756 330.478C41.7587 329.985 40.928 329.347 40.2156 328.588C41.1151 329.955 42.4851 330.944 44.0656 331.368C40.9856 330.738 39.7056 328.668 38.4956 327.108C39.8556 329.418 40.0056 329.268 38.8156 328.658C39.7358 329.99 41.0893 330.961 42.6456 331.408C43.6057 331.695 44.6235 331.733 45.602 331.515C46.5806 331.298 47.4872 330.834 48.2356 330.168C49.3156 328.438 47.9956 329.838 48.6956 327.978C50.1556 324.088 47.5156 321.558 47.4456 319.428C47.1056 318.808 47.8356 320.628 47.5456 320.548C47.0056 318.658 46.3856 317.378 46.4856 316.718L47.2156 318.248C46.6456 316.878 46.9656 316.468 45.5656 313.978C45.0756 312.398 45.1356 311.308 45.9256 312.978C45.6756 312.288 44.6956 310.978 44.6656 311.638C42.5556 307.728 44.6656 309.178 42.0156 305.728C42.1456 305.988 42.2656 306.288 42.1256 306.178C41.5902 305.449 41.0961 304.691 40.6456 303.908C42.6456 307.148 39.3156 303.368 41.8756 307.048C41.1456 306.918 39.9656 304.238 38.9556 303.208C37.9556 301.208 39.4756 302.538 39.0556 301.478C38.9156 301.608 38.3956 300.848 37.6656 300.058L38.6656 300.628C38.1156 299.888 37.5456 299.198 36.9456 298.268L37.9456 299.818C36.6656 298.268 34.2156 296.418 32.0856 293.658C32.6256 294.438 33.6256 295.988 31.8556 294.488C29.3956 291.608 31.1156 293.978 29.3656 292.738C26.6656 290.168 29.4556 291.658 25.0256 288.328C24.5556 287.948 25.1456 288.098 25.6856 288.388C24.9442 287.811 24.1659 287.283 23.3556 286.808C22.3766 286.231 21.2269 286.016 20.1056 286.198C19.0069 286.452 18.0351 287.09 17.3656 287.998C16.8165 288.745 16.363 289.558 16.0156 290.418C16.6856 288.938 17.3756 287.618 15.9556 289.578C16.7056 288.898 14.6956 292.478 14.4856 293.958L14.1456 294.238C13.9856 295.428 14.4556 294.238 14.9056 293.428C14.8256 293.428 14.9056 293.088 15.1856 292.428C16.1856 290.838 16.4856 291.798 15.5156 294.428C14.2956 297.208 13.9856 296.628 13.8956 296.038C13.0356 300.088 11.8956 299.618 11.7056 303.668C11.5856 304.588 12.2256 307.668 12.3956 310.478C11.9156 311.968 11.9956 306.928 11.5956 308.578C12.8156 313.288 11.2456 318.418 13.3456 324.498L13.7556 323.598C14.1356 324.998 14.4956 326.368 14.9156 327.948L14.0056 325.948C14.2056 327.408 15.4656 330.638 15.5256 329.408C16.2356 332.658 16.8156 333.228 18.4356 335.838C16.8156 333.008 18.3056 335.838 17.4856 333.588L20.6156 338.738C20.5556 338.298 21.5456 339.098 22.1556 339.738C23.2656 341.678 26.2156 344.128 28.8956 345.738L28.9656 345.578C31.3115 346.899 33.9357 347.649 36.6256 347.768C37.9852 347.839 39.3486 347.776 40.6956 347.578C41.454 347.486 42.1666 347.166 42.7396 346.661C43.3127 346.155 43.7192 345.488 43.9056 344.748V344.748C43.9056 344.638 43.9056 344.538 43.9756 344.458C43.9682 344.615 43.9515 344.772 43.9256 344.928C43.8256 346.118 44.6056 344.848 44.4256 343.118C44.2047 341.554 43.5655 340.078 42.5756 338.848C42.0699 338.664 41.6021 338.39 41.1956 338.038C41.5356 337.528 39.5756 336.518 38.9256 336.038C37.0156 335.548 38.9256 336.548 35.8356 335.728C34.6356 335.468 34.4956 335.238 34.6656 335.028C33.9356 335.198 31.8756 335.368 30.2656 335.818C30.8456 335.818 31.7156 335.518 32.1056 335.548C32.3356 335.798 31.2156 335.808 31.2956 336.178C29.8956 336.448 30.6156 335.748 28.8956 336.398C29.4684 336.363 30.0428 336.363 30.6156 336.398C29.9768 336.572 29.3292 336.712 28.6756 336.818C29.7556 336.578 29.6756 337.058 29.6756 337.328C25.8556 338.418 28.4956 336.538 28.2056 336.128C24.9337 337.534 22.0564 339.721 19.8256 342.498L20.5756 342.318C20.0136 343.079 19.3808 343.785 18.6856 344.428C18.2856 345.094 17.9156 345.784 17.5756 346.498C18.3256 345.368 18.7156 345.068 19.0956 345.178C17.7356 347.178 16.7056 350.408 15.8956 350.798L16.0356 350.748C15.0956 353.898 14.1156 360.558 14.4256 360.368C13.6756 363.768 14.0556 368.158 13.4256 368.258C13.2756 370.348 14.4256 373.538 13.8256 375.078C14.5056 377.458 14.0056 375.178 14.4256 374.388C15.0556 376.738 14.4256 379.388 15.4756 379.988C15.6856 382.818 15.1656 379.378 14.9156 380.388C15.8356 380.808 16.1056 385.518 17.4056 387.918C17.4056 389.158 16.8456 386.818 17.0656 388.918C17.2056 388.658 17.5956 389.678 17.7856 390.198L17.4256 390.878C18.1256 391.588 18.8956 392.268 19.6156 392.948C20.4856 396.878 18.3756 392.538 20.2156 397.568L20.1256 397.258C21.2256 398.348 21.2756 400.938 23.4856 404.158C22.7556 403.048 23.4856 403.558 23.4056 403.158L24.2256 405.158C24.1556 404.978 24.1456 404.878 24.3056 405.028C25.5756 406.468 24.9056 406.558 26.3056 408.268C25.6256 406.908 26.2356 407.088 26.7256 407.568L27.8256 410.568V409.088C29.4356 411.638 31.0356 416.088 32.8256 416.688L32.0456 415.398C32.2556 415.398 33.2156 415.808 34.1156 417.658C34.4156 418.228 34.3156 418.828 33.8156 418.118L34.8756 419.238C34.7956 418.368 32.6856 415.238 31.4756 413.238C31.7156 413.968 32.6556 415.548 32.0756 415.238C30.9756 413.428 30.1456 411.568 29.1956 409.768C29.3887 410.364 29.503 410.982 29.5356 411.608C28.0856 409.818 28.8756 409.998 28.0156 408.498C27.5056 408.038 27.1656 407.728 27.2556 408.178C26.4039 406.309 25.4005 404.513 24.2556 402.808C24.2556 402.808 25.1756 405.258 24.2556 404.138C22.5556 400.258 22.7056 399.248 21.2556 394.978C20.0356 389.908 17.4456 385.588 17.2556 381.888C17.4256 381.648 18.2056 384.428 17.8456 382.118C17.5056 382.608 17.2656 380.818 17.0856 380.738C17.2556 378.128 16.3156 377.068 16.5456 375.228C16.4356 375.658 16.1156 374.228 15.8756 373.228C15.3656 373.558 15.4556 370.418 14.9656 374.228C15.4356 370.348 14.4356 367.368 15.8756 364.598L15.9556 365.598C15.9556 364.328 15.9556 363.058 16.0256 361.788V361.948C16.2076 360.562 16.2444 359.161 16.1356 357.768C15.8256 358.688 15.5856 360.068 15.3356 361.008C15.1356 358.878 16.4056 356.828 17.0056 354.668C16.5656 354.668 16.3156 356.938 16.0056 356.178C16.3557 354.7 16.8584 353.262 17.5056 351.888L17.2356 352.028C18.1056 348.028 18.7256 350.918 19.1656 347.948C19.2456 348.088 19.5256 347.808 19.5656 348.028C19.7856 346.968 20.6956 344.538 19.2356 346.638C19.7929 345.516 20.572 344.519 21.5256 343.708C21.1256 344.848 20.8456 345.008 20.9856 345.598C21.9505 344.089 23.1219 342.722 24.4656 341.538C24.8956 341.138 23.9856 341.658 23.4656 342.228C24.3373 340.867 25.526 339.737 26.9297 338.936C28.3334 338.135 29.9104 337.686 31.5256 337.628C34.8338 337.39 38.1244 338.286 40.8556 340.168C40.0556 339.868 41.0156 340.718 41.1256 341.398C41.4906 341.824 41.767 342.318 41.9387 342.852C42.1104 343.386 42.174 343.949 42.1256 344.508C42.0658 344.959 41.8539 345.376 41.5248 345.691C41.1957 346.005 40.7692 346.198 40.3156 346.238C40.5263 346.288 40.7401 346.325 40.9556 346.348C38.6098 346.628 36.231 346.361 34.0056 345.568C32.2046 344.948 30.4668 344.157 28.8156 343.208C28.7256 343.018 28.6456 343.528 29.1956 343.908C27.0956 342.278 23.7256 341.038 23.8856 339.778C24.1456 339.998 24.3856 340.228 24.6556 340.438C20.5456 336.788 18.4456 330.848 17.1756 325.438C16.2456 324.328 18.0156 328.558 17.0556 327.658C15.6456 323.948 15.3856 319.878 14.7456 315.658C14.7421 315.956 14.7153 316.253 14.6656 316.548C13.8756 312.298 15.2556 316.958 14.8656 313.378C14.5956 313.588 14.5156 313.378 14.2956 312.228L14.7056 311.148C14.6256 310.978 14.2756 311.008 14.1556 311.558C14.6156 309.938 14.3556 305.138 15.1556 303.958C15.0456 303.618 14.4256 304.448 14.2556 303.958C14.2873 302.435 14.6275 300.935 15.2556 299.548V299.548C15.0856 298.118 16.2556 294.998 15.9456 295.648C17.0156 292.358 16.3956 295.218 17.7456 292.998C17.4256 293.838 17.1856 294.708 16.9456 295.568C17.5174 294.107 18.2133 292.699 19.0256 291.358C18.6456 291.848 18.2556 292.358 17.9156 292.878C18.2983 291.86 18.8493 290.913 19.5456 290.078C19.7535 289.771 20.0537 289.539 20.4026 289.415C20.7515 289.291 21.1309 289.281 21.4856 289.388C21.2742 289.429 21.0776 289.526 20.9156 289.668C21.3756 289.668 21.5556 289.858 22.2856 290.428C22.8456 289.958 25.2856 292.628 24.4956 290.988C28.9656 294.258 30.8256 297.468 33.9356 301.298C33.3956 300.628 33.7056 300.808 33.6856 300.598C35.1482 302.176 36.2955 304.019 37.0656 306.028C37.0656 305.618 36.7156 305.028 36.8556 304.888C38.7756 307.728 37.7356 306.818 39.5156 310.138C39.2356 309.138 39.5156 309.298 40.1056 310.138C39.8056 310.138 40.1056 310.958 40.3756 311.598C40.1856 308.438 42.8556 315.088 42.9456 313.018C42.8356 313.318 44.7256 318.958 43.5256 317.618L43.2056 316.618C42.8056 316.618 43.5356 317.868 43.8756 318.858C43.7512 318.493 43.6772 318.113 43.6556 317.728C44.3756 320.258 45.6556 322.968 45.7856 325.188C45.8756 326.358 45.5556 327.348 45.2156 327.488C44.8756 327.628 44.3556 327.728 43.4156 326.978C43.6556 327.438 44.8956 328.058 44.0056 327.878C42.0056 327.078 40.6156 324.638 39.5956 322.758C38.4946 320.621 37.7578 318.316 37.4156 315.938C36.9756 315.938 37.2156 317.368 37.7756 318.848C38.3356 320.328 39.1156 321.848 38.8256 322.098C35.8756 316.838 35.3456 309.608 40.0056 305.538C40.2456 304.338 41.5756 303.378 43.1256 302.888C44.7541 302.449 46.441 302.267 48.1256 302.348C47.7056 302.688 49.2856 303.168 50.9356 304.418C50.5556 303.698 52.3556 305.048 52.0056 304.488C53.2956 305.848 57.0556 310.488 57.5056 309.828C57.2656 310.708 60.2956 313.298 60.7656 315.058C62.4756 317.058 63.6056 319.858 65.2456 322.668C64.3056 321.848 66.4256 325.668 66.6356 326.898C66.5356 326.568 66.3456 325.898 66.4756 326.038C67.3256 326.908 67.4756 329.368 67.6956 330.838C67.8956 331.508 68.1756 330.668 68.2156 331.768C67.8407 332.006 67.5036 332.299 67.2156 332.638C67.2823 332.835 67.373 333.023 67.4856 333.198C67.2956 333.258 67.1856 333.138 67.1356 332.908L66.9356 332.458L66.7556 332.058L66.0456 330.618C65.1012 328.629 64.2862 326.581 63.6056 324.488C62.2239 320.301 61.6802 315.884 62.0056 311.488L61.4256 313.038C60.7356 307.548 62.4256 309.448 62.8356 305.308C62.9513 304.219 63.2919 303.167 63.8356 302.218C64.4056 301.598 64.2556 301.598 64.8356 301.668C65.9728 302.202 67.0216 302.906 67.9456 303.758C69.0523 304.698 70.0792 305.728 71.0156 306.838C74.7028 311.521 77.5269 316.824 79.3556 322.498C79.4956 323.368 78.9856 322.098 78.7056 322.058C79.1256 322.988 79.7056 323.058 79.8856 324.508L79.4756 324.318C80.942 327.433 81.9781 330.733 82.5556 334.128C83.2956 337.778 83.8256 341.258 84.7256 343.128C84.7856 348.308 85.9056 351.958 84.8656 358.228C85.0256 360.228 85.5656 355.948 85.4756 358.638C85.2156 360.578 84.8556 362.498 84.4756 364.408L84.5656 364.098C83.7256 366.838 83.4556 370.468 82.6756 374.248C81.8956 378.028 80.6756 381.978 78.6756 384.828L78.8656 384.598C79.1456 384.598 78.6456 385.938 78.0056 386.878C77.6756 387.138 78.0056 386.438 78.1656 385.758C76.9387 387.591 75.5462 389.308 74.0056 390.888C72.7448 392.226 71.351 393.432 69.8456 394.488C71.6756 393.558 68.5156 395.848 68.5056 396.258C67.2656 396.598 68.9056 395.578 66.3656 396.578C63.1467 398.166 59.6235 399.043 56.0356 399.148C54.7156 398.698 52.9856 398.558 52.9756 398.028C48.6256 397.188 46.2756 396.188 41.2756 393.728L41.0656 393.808C40.0156 392.598 36.6456 391.688 35.9456 390.808C35.9456 391.088 36.4156 391.498 36.1956 391.558L34.1356 389.958C35.0456 390.808 35.3056 391.708 33.4756 390.548C31.8756 388.908 34.1656 390.648 33.4756 389.728L32.5756 389.828C31.2356 388.828 31.2456 387.968 33.0256 389.028C28.5797 385.771 24.3907 382.177 20.4956 378.278L20.6156 378.938C18.7671 376.838 16.8112 374.835 14.7556 372.938C14.7556 372.808 14.4956 372.138 14.8856 372.398C13.1256 369.488 14.1456 372.538 12.2756 369.318C12.7156 370.128 13.4056 371.058 13.3256 371.318C11.9856 369.448 10.6856 367.478 9.5256 365.558C9.2556 365.698 6.3656 362.558 5.5256 359.828C5.6356 359.668 6.1256 360.328 6.5256 360.948C6.2856 360.388 6.11559 359.828 5.92559 359.268C5.53559 358.938 5.19561 358.588 4.81561 358.268C4.71668 357.408 4.67659 356.543 4.69561 355.678L4.13561 355.748C3.91561 353.878 4.57562 353.128 4.60562 351.808C4.63092 350.359 4.91541 348.926 5.44561 347.578C5.79399 346.474 6.4008 345.47 7.2156 344.648C7.7156 344.918 8.87561 344.018 10.3556 343.388C11.8356 342.758 13.5256 342.388 14.0456 342.738C16.5556 342.018 19.9656 342.448 23.3156 343.838C26.7722 345.389 30.0794 347.253 33.1956 349.408L32.7356 348.988C35.7356 350.368 35.3356 351.698 38.2256 353.628L37.6256 352.978C41.6256 355.108 47.2456 360.748 49.9356 364.058C49.4256 363.328 49.9356 363.398 50.9356 364.388C51.6156 365.388 49.6156 364.128 51.4656 365.678C51.1156 365.188 51.6156 365.348 52.0156 365.728L53.2956 367.788C58.2324 372.232 62.7115 377.16 66.6656 382.498C67.5556 383.318 67.1656 382.498 67.1356 382.178C70.2556 386.248 72.9256 390.628 75.5856 394.408H76.3656C77.6956 396.258 76.4256 396.108 78.5856 398.188C79.0456 398.678 77.4856 396.578 77.2356 395.758C80.2356 399.198 78.3256 398.288 80.8956 401.808L80.8056 400.478C82.0897 401.671 82.8934 403.293 83.0656 405.038C85.0656 409.368 86.0656 407.038 89.2356 412.608C89.5456 413.608 88.6356 412.608 88.9356 413.608C91.6756 417.198 91.5556 417.918 94.3456 421.508C96.5956 422.878 92.9956 419.638 95.3456 421.218L93.1256 418.618C95.2756 420.728 91.6856 416.328 92.4556 416.358C93.8656 418.078 95.4556 421.128 96.9356 423.608C97.3156 423.338 95.0156 420.838 96.3056 421.558L97.0156 422.878C96.9633 422.411 96.7756 421.969 96.4756 421.608C97.1456 421.778 97.4756 423.018 98.3356 424.168C98.1956 424.388 97.8856 424.528 97.3356 424.348C97.469 424.392 97.5917 424.463 97.6956 424.558C98.8656 427.308 102.216 430.948 103.336 433.248C103.196 432.848 103.436 433.098 103.606 433.128C104.686 434.528 105.366 436.308 106.696 438.288C107.786 439.078 107.006 437.078 109.276 440.128C109.416 440.898 107.806 440.018 109.876 442.468C109.886 442.498 108.336 440.118 109.496 441.098ZM68.1756 383.278C67.9656 383.008 67.6356 382.578 67.2556 382.068L68.1756 383.278ZM64.9556 378.608C65.3656 379.078 65.3756 379.378 65.0956 379.318L63.3756 377.318C64.1256 377.888 65.1256 378.948 64.9556 378.608ZM74.3256 385.838V385.708C73.9156 385.118 73.5956 384.708 73.3256 384.298C73.4956 384.298 73.7756 384.538 74.3256 385.368C74.363 385.522 74.363 385.683 74.3256 385.838V385.838Z" fill="#016C55"/>
<path d="M74.8354 387.188L75.0554 387.528L74.6054 387.128L74.5254 386.758L74.8354 387.188Z" fill="#016C55"/>
<path d="M43.8652 344.988V345.148C43.8805 345.035 43.8805 344.92 43.8652 344.808C43.8691 344.868 43.8691 344.928 43.8652 344.988V344.988Z" fill="#016C55"/>
<path d="M4.81555 355.628L4.68555 355.648V355.158L4.81555 355.628Z" fill="#016C55"/>
<path d="M19.4649 347.938C19.4764 348.091 19.4559 348.244 19.4049 348.388C19.4006 348.236 19.4208 348.084 19.4649 347.938V347.938Z" fill="#016C55"/>
<path d="M15.9345 361.858C15.9345 362.538 15.8845 363.218 15.9345 363.858C15.889 363.193 15.889 362.524 15.9345 361.858V361.858Z" fill="#016C55"/>
<path d="M15.9851 372.958C15.9398 373.051 15.8708 373.13 15.7852 373.188V373.188L15.9851 372.958Z" fill="#016C55"/>
<path d="M43.7246 318.808C43.7246 318.948 43.8246 319.088 43.8646 319.218C44.1246 320.178 43.9246 319.498 43.7246 318.808Z" fill="#016C55"/>
<path d="M15.125 299.498L15.755 297.918C15.535 298.778 15.405 299.498 15.125 299.498Z" fill="#016C55"/>
<path d="M50.7656 304.378V304.368L51.0256 304.558L50.7656 304.378Z" fill="#016C55"/>
<path d="M16.4641 295.558C16.277 296.343 16.0364 297.115 15.7441 297.868C15.9049 297.075 16.1461 296.301 16.4641 295.558V295.558Z" fill="#016C55"/>
<path d="M34.375 416.979L34.715 417.399C34.715 417.399 34.715 417.459 34.715 417.499L34.375 416.979Z" fill="#016C55"/>
<path d="M34.6855 417.498L34.9955 418.018C34.853 417.871 34.7469 417.693 34.6855 417.498Z" fill="#016C55"/>
<path d="M35.6642 419.098L34.9941 418.018C35.2828 418.333 35.51 418.699 35.6642 419.098Z" fill="#016C55"/>
<path d="M26.125 404.678L26.205 404.438C26.2132 404.482 26.2102 404.527 26.1962 404.569C26.1822 404.611 26.1577 404.649 26.125 404.678V404.678Z" fill="#016C55"/>
<path d="M24.0449 400.678C24.5549 401.618 25.6149 402.888 26.2349 404.248L26.1749 404.438C26.1249 403.698 24.2149 401.738 24.0449 400.678Z" fill="#016C55"/>
<path d="M15.3953 383.658C15.7553 384.898 16.0853 386.138 16.5153 387.358C16.1353 386.768 15.6253 385.978 16.0853 387.688C14.2253 383.108 16.7253 388.558 15.3953 383.658Z" fill="#016C55"/>
<path d="M13.4056 371.798C13.4056 373.898 13.1156 371.798 13.0156 371.908C13.1256 370.568 13.1256 370.248 13.4056 371.798Z" fill="#016C55"/>
<path d="M19.8754 338.168L19.6254 338.618C18.7254 337.208 19.7654 338.498 19.8754 338.168Z" fill="#016C55"/>
<path d="M15.9258 322.178L16.5258 323.588L16.2758 324.378L15.9258 322.178Z" fill="#016C55"/>
<path d="M11.4146 312.958L11.3945 313.678L11.4245 310.948L11.4146 312.958Z" fill="#016C55"/>
<path d="M64.7246 313.818L63.9846 313.718C63.4546 312.758 63.8746 312.188 64.7246 313.818Z" fill="#016C55"/>
<path d="M59.6855 300.768C59.8587 299.995 60.2475 299.286 60.8068 298.725C61.3661 298.164 62.073 297.773 62.8456 297.598C61.4466 298.242 60.3252 299.367 59.6855 300.768Z" fill="#016C55"/>
<path d="M8.44461 371.908L9.08459 373.028L7.72461 371.028L8.44461 371.908Z" fill="#016C55"/>
<path d="M158.854 142.578C152.261 152.971 147.881 164.611 145.989 176.772C144.096 188.933 144.731 201.354 147.854 213.258C152.924 232.108 164.224 249.258 166.264 268.688C167.624 281.598 164.784 294.918 167.964 307.498C170.104 315.968 174.834 323.498 179.534 330.888C187.584 343.518 195.854 356.218 206.644 366.618C217.434 377.018 231.124 385.078 246.044 386.438C261.194 387.828 276.604 382.038 287.984 371.948C299.364 361.858 306.814 347.728 309.984 332.868C311.234 327.098 311.854 320.938 309.854 315.378C308.054 310.378 304.304 306.288 300.304 302.748C288.554 292.328 274.224 285.348 260.834 277.138C215.341 249.027 180.556 206.508 162.014 156.348L158.854 142.578Z" fill="#DEC5BB"/>
<path d="M325.375 323.318C324.605 324.318 323.915 325.418 323.065 326.318C315.645 334.598 308.165 342.818 300.775 351.128C290.575 362.578 277.975 370.538 264.025 376.558C261.354 377.788 258.597 378.821 255.775 379.648C246.365 382.158 238.235 378.928 230.685 373.568C219.734 365.804 210.676 355.669 204.185 343.918C196.885 330.828 190.245 317.358 183.535 303.918C180.395 297.628 177.645 291.138 174.965 284.638C170.765 274.438 170.535 263.918 172.745 253.208C173.495 249.578 173.825 245.858 174.275 242.708C169.595 240.828 165.415 239.188 161.275 237.458C159.795 236.838 157.435 236.098 158.175 234.298C158.985 232.298 161.105 233.898 162.575 234.298C166.215 235.298 169.815 236.408 173.425 237.488L174.065 236.758C173.455 233.518 173.235 230.158 172.155 227.088C169.485 219.528 166.775 211.948 163.435 204.668C159.785 196.668 156.685 188.738 157.145 179.808C157.322 173.375 158.841 167.05 161.605 161.238C164.415 155.618 166.475 149.598 169.605 144.238C171.377 141.104 172.154 137.505 171.835 133.918C171.605 127.488 171.615 121.008 173.465 114.738C173.975 112.998 174.605 111.268 176.895 110.738C177.015 111.218 177.245 111.608 177.175 111.918C174.545 122.508 175.515 133.128 177.175 143.688C178.099 150.066 179.455 156.374 181.235 162.568C186.015 178.308 191.055 194.018 199.915 208.068C205.872 217.688 213.534 226.14 222.525 233.008C229.245 238.078 235.735 243.468 242.375 248.648C249.265 254.018 255.905 259.818 263.235 264.518C274.325 271.638 285.965 277.908 297.305 284.648C306.115 289.878 314.935 295.118 323.565 300.648C332.685 306.508 339.145 315.008 345.565 323.588C351.215 331.158 356.085 339.058 359.065 348.068C363.405 361.188 362.865 374.398 359.775 387.638C359.375 388.692 358.83 389.685 358.155 390.588L357.325 390.408C357.161 388.897 357.08 387.378 357.085 385.858C357.745 373.318 357.745 360.798 353.175 348.858C351.319 344.331 349.102 339.96 346.545 335.788C341.705 327.528 336.325 319.578 329.395 312.928C322.435 306.151 314.496 300.457 305.845 296.038C303.365 294.788 301.035 293.238 298.625 291.848C287.055 285.178 275.335 278.768 263.965 271.768C257.755 267.938 252.065 263.248 246.305 258.768C239.165 253.188 232.435 247.068 225.105 241.768C216.615 235.628 208.635 228.928 202.195 220.768C197.85 214.978 194.038 208.806 190.805 202.328C187.805 196.648 185.695 190.508 183.105 184.608C177.695 172.268 175.105 159.188 172.935 146.018C172.783 145.439 172.599 144.868 172.385 144.308C170.475 148.738 168.525 152.568 167.155 156.588C165.155 162.588 163.355 168.708 161.705 174.838C158.935 185.178 163.445 194.228 167.095 203.398C169.775 210.118 172.735 216.728 175.095 223.548C176.565 227.788 177.095 232.338 178.265 237.388C181.315 236.578 184.425 235.808 187.505 234.928C189.945 234.238 192.315 233.258 194.775 232.728C195.675 232.538 196.775 233.288 197.775 233.608C197.265 234.508 196.965 235.718 196.195 236.248C191.936 239.222 187.012 241.103 181.855 241.728C180.685 241.868 179.495 241.938 178.615 242.018C175.285 257.668 172.925 273.108 180.505 288.098C182.145 291.338 183.585 294.678 185.195 297.928C190.695 309.058 196.005 320.288 201.815 331.248C206.975 341.008 212.445 350.718 220.365 358.538C225.543 363.69 231.175 368.362 237.195 372.498C243.655 376.888 250.975 377.448 258.395 374.378C267.473 370.726 276.151 366.152 284.295 360.728C290.825 356.298 296.185 350.728 301.225 344.728C305.965 339.082 310.865 333.568 315.925 328.188C317.795 326.188 320.285 324.788 322.555 323.188C323.237 322.86 323.966 322.637 324.715 322.528L325.375 323.318Z" fill="#534741"/>
<path d="M373.865 352.698C373.605 351.518 373.295 350.338 373.095 349.148C372.095 343.348 371.745 337.358 370.025 331.798C367.036 322.472 362.004 313.931 355.295 306.798C347.205 297.958 337.985 290.408 328.345 283.378C321.925 278.698 315.285 274.318 308.775 269.768C301.345 264.578 294.025 259.228 286.525 254.158C274.525 246.018 262.165 238.278 250.995 228.898C241.667 221.063 232.908 212.575 224.785 203.498C214.945 192.744 207.555 179.984 203.125 166.098C199.765 155.572 198.275 144.538 198.725 133.498C198.828 131.672 199.072 129.856 199.455 128.068C199.722 127.252 200.095 126.476 200.565 125.758L201.225 125.948C201.225 126.618 201.225 127.278 201.225 127.948C201.535 134.298 201.155 140.768 202.335 146.948C204.665 159.178 207.405 171.338 213.825 182.348C219.245 191.638 226.275 199.588 233.575 207.348C242.734 216.988 252.778 225.746 263.575 233.508C273.215 240.508 283.325 246.838 293.135 253.588C304.008 261.068 314.821 268.631 325.575 276.278C332.685 281.358 339.645 286.648 346.575 291.988C355.155 298.608 361.915 306.858 368.075 315.738C375.305 326.158 376.755 337.668 375.665 349.828C375.474 350.812 375.183 351.774 374.795 352.698H373.865Z" fill="#534741"/>
<path d="M251.555 114.088C251.865 114.998 252.215 115.908 252.485 116.828C255.485 127.448 257.775 138.368 261.775 148.618C267.205 162.528 274.235 175.838 284.605 186.858C291.109 193.926 298.11 200.52 305.555 206.588C314.555 213.758 324.885 219.028 335.245 224.138C345.865 229.378 356.405 234.778 366.065 241.738C374.455 247.738 381.735 254.738 386.315 264.128C390.145 271.968 393.135 280.038 392.315 289.008C392.306 289.963 392.179 290.914 391.935 291.838C391.546 292.62 391.059 293.349 390.485 294.008C389.825 293.308 388.795 292.708 388.565 291.888C387.755 288.988 387.115 286.028 386.565 283.058C384.415 271.058 379.945 260.248 370.475 252.138C363.438 245.934 355.667 240.618 347.335 236.308C340.875 233.068 334.645 229.308 328.175 226.098C317.321 220.782 307.1 214.261 297.705 206.658C296.475 205.658 295.325 204.548 294.165 203.458C284.485 194.298 275.695 184.458 268.805 172.948C259.205 156.888 253.535 139.508 250.585 121.138C250.338 119.566 250.211 117.979 250.205 116.388C250.301 115.611 250.493 114.848 250.775 114.118L251.555 114.088Z" fill="#534741"/>
<path d="M228.035 116.928C228.865 133.018 233.705 147.688 240.755 161.598C246.815 173.598 253.355 185.348 261.575 196.008C268.616 205.046 277.036 212.919 286.525 219.338C291.835 222.988 296.935 226.958 302.355 230.448C316.515 239.568 330.715 248.628 345.045 257.448C353.745 262.818 360.955 269.688 367.795 277.218C378.303 288.72 385.6 302.784 388.955 317.998C389.955 322.198 390.505 326.498 391.045 330.778C391.185 331.868 390.675 333.968 390.165 334.058C388.345 334.398 388.275 332.558 387.935 331.328C386.065 324.498 384.355 317.628 382.395 310.828C380.118 302.506 376.224 294.714 370.935 287.898C364.875 280.248 359.055 272.238 350.935 266.608C343.105 261.188 334.935 256.328 326.845 251.218C323.755 249.218 320.645 247.328 317.605 245.288C307.425 238.478 297.085 231.888 287.195 224.698C280.085 219.528 273.415 213.698 266.845 207.858C258.165 200.128 252.725 189.948 246.705 180.218C239.445 168.468 233.295 156.218 229.825 142.798C227.965 135.598 227.195 128.118 226.105 120.738C225.885 119.368 225.965 117.588 228.035 116.928Z" fill="#534741"/>
<path d="M207.635 326.438C208.361 326.313 209.101 326.286 209.835 326.358C217.055 329.288 224.635 329.258 232.195 328.938C241.085 328.568 250.065 328.568 258.655 325.798C262.795 324.468 266.745 322.528 270.825 320.988C271.922 320.725 273.047 320.594 274.175 320.598C273.605 321.598 273.255 322.918 272.405 323.598C268.115 327.268 262.835 328.968 257.475 330.108C244.221 333.017 230.548 333.488 217.125 331.498C214.722 330.973 212.401 330.125 210.225 328.978C209.405 328.618 208.815 327.628 207.635 326.438Z" fill="#534741"/>
<path d="M260.595 321.128C258.905 320.548 257.155 320.128 255.545 319.358C248.925 316.288 242.615 316.428 236.615 320.838C236.009 321.377 235.226 321.675 234.415 321.675C233.604 321.675 232.821 321.377 232.215 320.838C229.555 318.668 226.835 316.918 223.125 317.668C219.245 318.448 216.415 320.808 213.765 323.508C213.028 324.376 212.119 325.081 211.095 325.578C211.035 324.841 211.106 324.1 211.305 323.388C214.305 317.248 224.535 310.898 232.145 317.258C233.565 318.448 234.565 318.598 236.255 317.508C244.385 312.258 253.925 314.808 259.805 319.028C260.247 319.429 260.643 319.879 260.985 320.368L260.595 321.128Z" fill="#534741"/>
<path d="M217.285 335.738C222.355 337.408 227.035 339.028 231.775 340.488C237.055 342.108 242.295 341.488 247.485 339.878C249.295 339.298 251.155 338.878 253.005 338.418C253.67 338.346 254.34 338.346 255.005 338.418L255.275 339.018C254.724 339.694 254.112 340.317 253.445 340.878C248.751 344.306 242.893 345.744 237.145 344.878C231.655 343.958 226.325 341.878 221.025 340.068C220.058 339.77 219.195 339.206 218.533 338.44C217.872 337.675 217.439 336.738 217.285 335.738V335.738Z" fill="#534741"/>
<path d="M232.485 298.698C230.705 298.068 228.335 297.378 226.115 296.348C225.535 296.078 225.425 294.788 225.115 293.968C225.945 293.968 226.765 293.968 227.595 293.968C230.085 294.118 232.595 294.388 235.065 294.438C236.635 294.438 238.225 294.018 239.785 294.088C240.725 294.278 241.63 294.616 242.465 295.088C241.725 295.798 241.105 296.878 240.235 297.088C237.965 297.828 235.605 298.118 232.485 298.698Z" fill="#534741"/>
</svg>
