<svg width="492" height="490" viewBox="0 0 492 490" fill="none" xmlns="http://www.w3.org/2000/svg">
<path d="M7.99695 279.238C7.8641 279.924 7.35485 279.592 7.24414 277.776L7.88627 276.426L7.99695 279.238Z" fill="#016C55"/>
<path d="M5.22656 267.259C5.38155 265.045 5.80223 262.588 6.66576 263.894C6.13436 266.108 6.48862 266.529 5.82436 268.898C5.82436 270.714 6.40006 272.02 6.66576 271.688C6.53291 272.352 7.15288 274.478 6.66576 275.496C5.75215 272.791 5.40546 269.927 5.64726 267.082C5.49227 266.418 5.35941 267.082 5.22656 267.259Z" fill="#016C55"/>
<path d="M49.7768 99.668L49.2012 100.642C49.3661 100.302 49.5586 99.9764 49.7768 99.668V99.668Z" fill="#016C55"/>
<path d="M132.964 28.2846C132.233 28.6832 131.879 28.7717 131.812 28.7274C132.543 28.3953 133.119 28.1296 132.964 28.2846Z" fill="#016C55"/>
<path d="M149.77 19.4932L148.773 20.0024C149.071 19.7723 149.409 19.5997 149.77 19.4932V19.4932Z" fill="#016C55"/>
<path d="M49.7773 99.6681L51.3051 97.0996C51.6373 97.0996 50.5744 98.4503 49.7773 99.6681Z" fill="#016C55"/>
<path d="M5.0931 242.77C5.09465 243.303 5.05768 243.836 4.98242 244.364V242.88L5.0931 242.77Z" fill="#016C55"/>
<path d="M24.2015 141.073L23.825 141.892C23.6344 142.088 23.427 142.265 23.2051 142.424L24.2015 141.073Z" fill="#016C55"/>
<path d="M10.6934 175.991C10.8926 175.15 11.6011 175.061 11.9775 174.84C11.5458 175.307 11.2276 175.868 11.0476 176.478C10.9148 176.456 10.8041 176.323 10.6934 175.991Z" fill="#016C55"/>
<path d="M36.8014 117.404C36.7667 117.266 36.7667 117.121 36.8014 116.983C36.8014 116.983 36.8457 117.183 36.8014 117.404Z" fill="#016C55"/>
<path d="M216.813 483.695C216.813 483.695 216.813 483.696 216.813 483.806C216.813 483.917 216.526 483.651 216.813 483.695Z" fill="#016C55"/>
<path d="M174.236 478.114L174.79 478.313C174.823 478.444 174.823 478.581 174.79 478.712L174.236 478.114Z" fill="#016C55"/>
<path d="M182.316 7.38281H182.184C181.276 7.55995 181.674 7.44924 182.316 7.38281Z" fill="#016C55"/>
<path d="M457.249 120.77C454.857 118.002 459.618 126.172 456.23 121.877C456.717 122.165 454.57 117.094 457.249 120.77Z" fill="#016C55"/>
<path d="M4.96297 241.818V240.312C4.94082 240.999 4.96297 241.464 4.96297 241.818Z" fill="#016C55"/>
<path d="M456.231 121.854L455.877 121.411L456.231 121.854Z" fill="#016C55"/>
<path d="M261.806 0.229492C261.547 0.352275 261.27 0.43446 260.986 0.473086C260.986 0.473086 261.186 0.340201 261.806 0.229492Z" fill="#016C55"/>
<path d="M202.531 4.23805L203.971 3.9502C203.499 4.08253 203.018 4.17876 202.531 4.23805V4.23805Z" fill="#016C55"/>
<path d="M292.383 4.94613C293.128 4.95825 293.87 5.04728 294.597 5.21182H294.265C293.658 5.01227 293.021 4.92231 292.383 4.94613V4.94613Z" fill="#016C55"/>
<path d="M323.384 13.2055H322.786L321.834 12.8291L323.384 13.2055Z" fill="#016C55"/>
<path d="M311.601 476.3C311.14 476.549 310.721 476.87 310.361 477.252C310.693 476.654 306.176 477.65 311.601 476.3Z" fill="#016C55"/>
<path d="M4.7168 242.77C4.9167 242.496 5.00389 242.155 4.96039 241.818C4.96039 242.173 4.96039 242.527 4.96039 242.881C4.96039 243.236 4.80536 242.992 4.7168 242.77Z" fill="#016C55"/>
<path d="M292.625 10.3486C294.268 10.5902 295.894 10.9303 297.496 11.3671C296.123 11.1457 294.396 10.5258 292.625 10.3486Z" fill="#016C55"/>
<path d="M471.067 328.016L470.602 329.056C470.704 328.688 470.861 328.337 471.067 328.016Z" fill="#016C55"/>
<path d="M311.844 15.1533C312.802 15.1569 313.758 15.2459 314.7 15.4191C314.883 15.499 315.054 15.6032 315.209 15.729L311.844 15.1533Z" fill="#016C55"/>
<path d="M279.805 482.787C275.133 483.141 278.322 483.163 274.181 484.381C271.679 484.049 269.576 485.355 268.933 484.137C267.494 485.001 267.871 484.691 264.97 485.399C266.232 484.691 259.346 485.045 259.501 484.27C258.328 485.2 264.55 485.089 260.741 486.174C258.062 485.732 253.147 485.776 252.726 484.868C250.732 485.306 248.713 485.624 246.681 485.82C247.158 485.778 247.638 485.823 248.098 485.953C242.518 485.643 234.237 485.82 231.16 484.536C232.2 486.019 219.336 483.805 223.477 485.377C221.214 485.086 218.988 484.559 216.834 483.805C216.967 484.89 211.055 483.362 208.464 483.562C205.907 482.725 203.305 482.03 200.671 481.48C201.756 481.812 202.309 482.078 201.866 482.3C199.143 481.37 199.652 481.879 197.261 481.901C193.541 480.816 198.124 481.281 195.932 480.307C192.611 479.82 195.312 480.86 194.626 481.148L189.976 478.934C189.247 478.772 188.491 478.772 187.762 478.934C186.083 478.003 184.227 477.438 182.315 477.273L186.434 478.38H184.706L179.99 476.41C172.772 475.103 174.61 476.808 174.809 478.048L177.643 479.089C177.444 479.421 175.429 479.089 174.123 478.69C172.816 478.292 178.418 481.237 181.607 482.233C190.264 484.447 183.821 481.48 189.688 482.654C192.19 483.451 194.692 484.226 197.217 484.868L197.394 484.536C198.186 484.521 198.962 484.762 199.608 485.222C199.187 484.602 205.918 486.197 209.107 486.551L207.889 486.861C216.568 489.341 221.971 487.459 228.901 488.566L233.817 489.673L234.88 489.008C237.52 489.797 240.277 490.119 243.028 489.961C251.397 489.208 260.01 488.632 268.734 488.389C277.37 487.569 286.027 486.174 294.352 484.58C293.825 484.856 293.257 485.043 292.669 485.134C298.647 483.125 304.789 481.643 311.025 480.705C313.815 480.196 316.627 479.908 319.439 479.111C322.406 478.166 325.299 477.004 328.096 475.635H327.144C333.61 473.421 326.192 475.635 330.709 473.62C331.86 474.041 339.167 471.406 342.843 470.033C342.2 470.033 341.027 470.808 339.898 471.029C340.593 470.265 341.458 469.674 342.422 469.302C346.85 468.572 355.286 464.365 361.729 461.686C362.283 460.933 367.088 457.257 369.28 454.866C370.01 454.667 371.317 454.379 372.557 454.135C374.164 452.823 375.994 451.811 377.959 451.146L373.11 454.047H373.287C372.985 454.163 372.695 454.312 372.424 454.489C371.118 455.242 370.409 455.619 370.697 455.397C368.483 457.324 371.095 455.685 371.273 456.349C373.199 455.154 377.362 452.895 377.539 452.187C378.712 451.478 379.443 450.947 380.594 450.128C381.456 449.743 382.279 449.276 383.052 448.733L382.631 448.932C382.742 448.752 382.868 448.582 383.008 448.423C386.862 445.528 390.95 442.958 395.23 440.74C391.798 442.267 395.407 439.433 395.031 438.946C395.407 438.725 391.776 441.47 387.259 444.88C387.547 444.57 387.746 444.304 387.702 444.061C391.222 440.607 394.721 439.522 400.123 434.916C399.725 435.138 398.905 435.558 399.038 435.182C400.395 433.969 401.944 432.989 403.622 432.281C405.178 429.793 407.182 427.616 409.533 425.86C411.44 424.955 413.16 423.701 414.604 422.163L412.921 423.093C416.353 419.461 416.442 420.878 419.165 417.734C418.147 419.041 417.659 418.775 418.523 417.889C420.601 415.636 422.977 413.676 425.586 412.066H424.634C427.911 409.055 434.199 403.364 433.491 402.7C433.845 404.914 440.133 395.548 442.347 392.382C441.528 393.423 441.13 393.445 440.952 393.467C443.723 390.419 446.282 387.186 448.614 383.791C450.828 380.381 452.71 376.595 454.924 373.119L454.725 371.48C456.939 367.783 459.374 367.738 461.81 363.642L460.504 364.882C462.253 362.092 463.792 359.176 465.109 356.158C466.261 353.656 467.323 351.331 468.718 348.254L468.054 348.076C469.383 346.039 470.689 343.316 472.04 341.235C473.077 336.556 474.621 332.005 476.645 327.662C477.774 324.85 478.859 321.883 479.944 319.004C480.76 316.271 481.279 313.457 481.494 310.613L482.867 310.325C483.819 306.561 485.302 301.8 484.815 299.83L484.638 300.671C483.598 300.804 485.568 296.907 485.967 294.516C486.365 292.744 487.251 291.062 487.184 292.656C487.672 287.497 488.624 281.164 489.399 275.319C490.231 270.531 490.402 265.651 489.908 260.816C490.373 255.679 490.971 251.184 491.48 246.557C491.756 241.584 491.704 236.599 491.325 231.633L491.192 231.766C490.838 228.002 490.107 220.518 488.978 220.695C488.159 212.768 488.712 207.41 486.764 198.111V200.325C486.232 197.956 486.055 194.037 485.812 193.084C485.568 192.132 485.546 192.907 485.435 193.084C484.836 191.348 484.479 189.538 484.372 187.704L484.195 188.523C482.786 184.103 481.655 179.6 480.808 175.039C480.298 172.46 479.603 169.922 478.726 167.444C477.929 164.942 477.088 162.507 476.202 160.204C476.711 161.931 476.025 161.178 475.604 160.558C475.127 157.38 474.31 154.263 473.169 151.259C472.04 147.627 470.113 144.328 469.427 142.402L470.113 144.882C467.323 137.332 465.995 139.169 463.249 131.597L465.818 135.405C464.246 132.571 463.249 130.003 464.046 130.446C461.965 127.301 463.271 130.335 460.26 125.508C459.839 125.508 462.186 129.117 460.836 127.722L456.23 121.855C455.466 120.842 454.799 119.759 454.238 118.622C455.832 118.445 450.938 113.02 454.238 115.655C452.798 113.241 451.381 110.983 449.986 108.813C448.591 106.643 446.842 104.761 445.337 102.813C442.281 98.9379 439.38 95.2181 436.79 91.1883C433.446 88.8634 424.125 77.1283 423.505 78.9882C421.689 77.0176 420.117 75.1577 418.789 73.4306C417.46 71.7035 416.132 70.3308 415.18 69.0022C416.089 69.757 416.927 70.5946 417.682 71.5043C415.384 68.8207 412.89 66.3117 410.22 63.9982C412.434 66.6995 416.53 70.7957 418.08 73.1427C414.626 69.7551 410.043 64.6846 408.183 62.6698L406.633 62.5369C404.042 59.2599 403.599 60.8098 401.142 57.3336L401.917 57.6435C395.983 53.0159 396.381 52.3517 390.846 47.9898V48.4769C388.831 47.1484 386.417 44.27 384.093 43.5614L387.724 46.3513C386.971 46.5949 384.004 44.735 382.565 44.1371C378.646 41.3251 381.746 42.3215 379.731 40.9487C378.513 40.9487 379.332 41.1037 380.439 42.4765C375.741 39.5255 371.231 36.2867 366.933 32.7784C366.689 32.7784 366.933 32.9998 366.933 32.9998C363.114 30.254 359.017 27.9163 354.711 26.0252L355.663 26.5787C351.234 25.4273 345.477 20.7112 343.994 21.7297C341.957 21.0654 348.422 23.7667 344.99 22.9696C338.791 20.5119 341.514 19.8477 335.824 18.1871C336.599 18.4306 336.311 18.4085 336.532 18.652C332.525 17.1464 327.255 15.0429 322.871 13.2716C321.123 12.9649 319.399 12.5358 317.712 11.9873C315.719 11.5445 313.571 10.9467 311.379 10.371C307.361 9.09977 303.219 8.25372 299.024 7.84684C301.238 7.84684 297.541 6.85047 297.585 6.60691C297.629 6.36335 297.806 6.80615 297.585 6.85044C296.382 6.54585 295.237 6.04464 294.197 5.36698C292.138 5.49983 287.555 3.88347 286.337 3.97204C286.337 3.63991 284.411 3.44061 282.263 3.10848C286.514 4.127 283.547 4.01633 285.385 4.81344C278.986 3.99419 278.255 2.26716 271.546 1.51434C270.287 1.56005 269.03 1.67089 267.782 1.84645C267.118 0.872219 260.83 0.938628 261.007 0.584361C259.833 0.82792 258.128 0.916476 258.35 1.40359C255.671 1.02718 251.707 1.40358 250.534 0.695042L253.213 0.584361C244.888 0.274377 239.928 -0.45627 233.44 0.407257L233.64 1.80213C229.433 2.59923 225.713 1.35931 222.104 2.44426C223.344 1.91286 223.632 1.89072 220.886 1.82429C223.315 1.59915 225.755 1.52519 228.193 1.60286L222.392 1.04932H231.248C227.396 0.672909 227.661 0.805772 229.211 0.163663C223.698 0.00867065 223.344 0.916462 218.14 1.18216C216.303 1.625 218.273 1.86857 216.17 2.44426C211.52 2.59925 207.623 4.65846 204.235 4.4149C203.195 4.70274 206.117 4.19348 205.918 4.54775C203.94 4.90848 201.925 5.02745 199.918 4.90202L202.42 4.37058C200.106 4.38309 197.811 4.772 195.622 5.52199C193.142 5.76555 191.615 5.41122 194.249 4.76911C193.165 4.94624 190.906 5.87626 191.836 6.07553C185.326 7.64759 188.36 5.36698 182.204 7.51473C182.647 7.51473 183.134 7.40402 182.913 7.51473C181.614 7.91827 180.29 8.2363 178.95 8.46681C184.551 7.24901 177.533 9.97248 184.02 8.15686C183.511 9.08681 179.06 9.41894 177.09 10.371C173.835 10.9246 176.448 9.46316 174.765 9.61815C174.765 9.83957 173.569 10.2824 172.064 10.8802L173.392 9.83958C172.086 10.2824 170.824 10.7253 169.207 11.1238L171.886 10.4595C168.048 12.2699 164.063 13.7513 159.974 14.8879C161.369 14.6665 164.115 14.2237 160.926 15.5964C155.391 17.0799 159.753 16.2386 156.874 17.6999C151.649 19.9141 155.59 17.1464 148.018 20.844C147.198 21.2204 147.818 20.5783 148.593 20.069C143.501 22.6375 140.423 23.4346 135.596 26.2023C137.677 24.9403 139.36 24.121 136.238 25.1617C137.655 24.896 132.452 27.7523 130.703 29.0365H130.083C128.732 30.1436 130.393 29.3686 131.655 28.7708C131.655 28.7708 131.965 28.3943 132.873 27.9072C135.375 26.8001 135.087 28.2394 131.301 30.4093C127.138 32.402 127.426 31.3835 127.979 30.7414C122.732 33.9962 122.267 32.4242 117.307 35.679C116.134 36.3875 113.056 39.9081 109.557 42.3215C107.343 43.03 113.72 38.9338 111.351 39.8416C106.413 45.2442 98.4201 47.0155 91.8662 53.9902L93.2832 53.8573C91.6226 55.2744 90.0063 56.6693 88.0578 58.1528L90.272 55.7836C88.4564 57.0236 84.5816 60.3891 86.2865 59.7913C83.2351 61.5792 80.5644 63.9489 78.4262 66.7659C81.8581 63.3339 78.4262 66.6331 81.216 64.5517C79.2701 66.8326 77.1045 68.9167 74.7506 70.7736C75.3706 70.5744 74.3299 72.1686 73.3779 73.1206C69.8118 75.892 66.5264 79.0067 63.5691 82.4201L63.7462 82.5751C58.565 88.2877 53.6718 95.0409 48.8449 101.108L48.6013 101.418L48.9113 100.886C49.8634 98.2736 44.97 105.47 43.3315 107.241C43.2553 107.966 42.9794 108.656 42.5345 109.234C41.9145 108.924 40.4531 111.448 39.5896 112.223C38.4382 114.659 40.4753 112.378 38.1283 116.319C37.1762 117.803 36.7554 117.803 36.6226 117.471C35.9773 119.502 35.1085 121.455 34.032 123.294C34.5409 122.55 34.9995 121.774 35.4048 120.969C35.8698 120.969 34.9398 122.231 35.4048 122.43C34.3642 124.29 34.4084 122.829 33.1906 125.264L34.9399 123.404C34.4768 124.29 33.928 125.128 33.3013 125.906C34.2534 124.556 34.6299 125.043 34.7849 125.397C31.2865 130.534 32.8807 125.707 32.1721 125.685C29.4044 130.888 26.9246 134.83 24.9097 138.97L25.8617 138.483C25.2856 139.744 24.5407 140.921 23.6476 141.981L22.164 145.081C23.2269 143.398 23.6918 142.867 24.2454 142.978C22.5405 146.21 20.4592 150.772 19.3521 151.325H19.5292C18.1343 156.019 14.7909 165.629 15.1008 165.429C14.0592 167.853 13.1428 170.329 12.3553 172.847C11.7353 175.061 11.2261 176.7 10.7832 176.633C9.78686 179.622 9.78686 184.737 8.14837 186.641C7.74982 190.339 8.3255 186.885 9.25546 185.933C8.90119 189.63 6.37702 192.929 7.43982 194.413C6.35488 198.576 7.43985 193.372 6.57633 194.679C7.55056 195.808 5.42496 202.628 5.40282 206.724C4.62786 208.429 5.40279 204.842 4.40642 207.853C4.73854 207.587 4.51712 209.248 4.40642 210.067L3.54286 210.754L4.64994 215.049C2.98931 220.961 3.56503 213.654 2.19224 221.692L2.30292 221.227C2.79004 223.441 0.996593 227.006 1.57228 232.94C1.43943 230.925 1.92655 232.12 2.12582 231.478L1.83797 234.755C1.83797 234.445 1.83798 234.312 1.99298 234.622C2.5908 237.479 1.72728 237.124 2.34725 240.446C2.34725 238.231 2.98934 238.829 3.29933 239.826L2.70153 244.63L3.58718 242.638C3.87502 247.243 2.87861 254.262 4.45067 256.52V254.196C4.71637 254.351 5.51351 255.679 5.31423 258.823C5.31423 259.797 4.76067 260.506 4.6721 259.177L5.11497 261.392C5.45658 257.872 5.45658 254.327 5.11497 250.808C4.95997 251.959 4.98212 254.771 4.495 253.952C4.495 250.697 4.64996 247.597 4.6721 244.475C4.5157 245.402 4.25573 246.308 3.89713 247.177C3.32145 243.7 4.18497 244.52 4.0964 241.885C3.78641 240.888 3.58714 240.224 3.41001 240.888C3.5632 237.743 3.49662 234.592 3.21074 231.456C3.21074 231.456 2.72361 235.419 2.36935 233.227C2.83432 226.74 3.71999 225.611 5.07064 218.769C7.28481 210.931 6.93054 203.27 8.59116 197.933C8.94543 197.69 8.41407 202.118 9.18903 198.598C8.50264 199.107 9.18904 196.384 8.98977 196.162C10.4068 192.464 10.1854 190.516 11.3589 187.948C11.0046 188.523 11.3589 186.265 11.5582 184.759C10.739 185.003 12.3996 180.486 9.91968 185.778C12.5324 180.353 12.311 175.548 15.1452 171.851C15.0299 172.346 14.9485 172.849 14.9016 173.356C15.3223 171.43 16.0087 169.57 16.5401 167.666V167.909C17.3265 165.903 17.8547 163.805 18.1121 161.665C17.4258 163.016 16.695 165.009 16.0087 166.359C16.4958 163.149 18.7764 160.359 20.0163 157.082C19.4849 157.082 18.5992 160.448 18.3557 159.296C19.1783 157.129 20.1171 155.008 21.1677 152.942L20.7913 153.141C22.5626 147.163 23.0054 151.48 24.0461 146.985C24.0461 147.185 24.5553 146.742 24.5775 146.985C25.0203 145.347 26.2382 141.561 24.2233 144.948C25.0251 143.211 26.0204 141.569 27.1903 140.055C26.8139 141.871 26.4153 142.269 26.6146 143.044L30.6 135.361C30.9986 134.497 30.0465 135.892 29.5151 136.977C30.8215 131.951 33.9435 127.766 36.844 123.338C39.8951 118.769 42.7108 114.046 45.28 109.189C44.9036 110.496 46.0993 108.747 47.0071 108.038C49.0441 104.938 52.4097 100.466 54.181 97.4986L53.2953 98.185C59.0079 91.4318 63.6134 87.3799 67.1782 82.6858C67.466 82.5751 66.8018 82.4202 66.049 83.1508C69.1488 80.1839 71.6286 75.4012 73.3557 75.4233L72.2929 76.5968C78.5744 70.2797 85.3572 64.4818 92.5748 59.2599C93.6818 57.3779 88.6113 62.404 89.4084 60.5884C91.6226 58.5292 94.1246 56.6693 96.6267 54.743C99.1287 52.8166 101.631 50.8461 104.354 48.964C103.954 49.1838 103.54 49.3761 103.114 49.5397C108.295 45.4434 102.937 50.5582 107.543 47.3255C107.078 47.1926 107.233 46.9713 108.672 45.7756L110.355 45.3549C110.532 45.1114 110.244 44.7571 109.447 45.0671C111.949 44.3585 117.75 39.6866 119.809 39.3102C120.163 38.9116 118.569 38.9781 119.1 38.3803C121.064 37.1023 123.175 36.0688 125.389 35.3026V35.3026C127.015 34.074 128.708 32.9356 130.459 31.8927C134.998 29.0807 131.389 31.8928 135.131 30.2986L131.588 32.6456L138.231 29.1693L135.463 30.2764C138.275 28.2172 141.929 27.6194 145.516 25.8481L144.032 26.9773L148.46 25.5602C148.46 24.5638 153.686 23.0139 151.007 23.0804C158.513 18.9841 164.292 18.652 171.532 16.2607C170.27 16.7035 170.691 16.2607 170.403 16.2607C173.465 15.0053 176.696 14.2071 179.99 13.8916C179.37 13.7144 178.33 13.8915 178.241 13.7365C183.378 12.3859 181.518 13.4487 187.275 12.3416C185.614 12.3416 186.057 12.0538 187.585 11.5888C187.43 11.9652 188.803 11.8766 189.799 11.7216C185.083 11.0131 196.021 9.50748 193.01 8.75466C193.408 9.06464 202.442 7.71399 200.028 9.02035L198.434 9.24178C198.434 9.79532 200.405 8.99821 202.043 8.8875C201.448 8.95516 200.846 8.95516 200.25 8.8875C204.413 8.55538 208.619 8.00185 212.937 7.38188C217.379 6.5576 221.882 6.09848 226.399 6.00911C225.58 5.87626 221.794 5.72122 224.185 5.47766C232.167 5.00552 240.172 5.08694 248.142 5.72126C248.563 4.32633 238.068 5.72121 237.692 4.70269L245.131 4.56984C247.633 4.72483 250.157 4.99055 252.726 5.21197L268.491 6.73976C272.476 5.36697 278.919 8.95392 285.783 8.59965C285.075 9.06463 288.352 9.75102 291.983 10.3267C290.81 9.68459 294.64 10.3267 293.644 9.77316C296.677 11.0352 305.6 13.5816 305.512 12.4302C306.065 13.648 312.154 14.113 314.612 15.4858C318.686 16.0393 322.738 18.5635 327.653 19.9141C325.749 19.9141 332.303 21.9289 333.964 22.8368C333.477 22.6153 332.502 22.1725 332.79 22.1725C335.567 23.0373 338.257 24.1565 340.828 25.516C342.112 25.8702 340.828 24.8295 342.71 25.6931C345.563 27.8617 348.758 29.538 352.164 30.6528C351.493 30.3302 350.891 29.8789 350.393 29.3243C353.36 30.985 356.438 32.557 359.56 34.1069L368.549 39.5316L377.561 45.0449C380.492 46.9569 383.268 49.0966 385.864 51.4439L384.358 49.3404C391.886 53.7687 388.145 53.7687 393.68 57.7764C397.542 60.507 401.239 63.4645 404.751 66.6331L415.6 75.9105L425.343 86.2285C428.602 89.5275 431.565 93.106 434.199 96.923C434.819 98.1408 433.513 96.4802 433.114 96.5023C434.133 97.7201 434.93 97.6758 435.904 99.6685L435.284 99.5357C438.842 103.5 442.078 107.743 444.96 112.223C447.166 116.495 449.888 120.481 453.064 124.091C457.11 130.761 460.57 137.769 463.404 145.037C465.065 147.627 462.519 141.494 464.401 145.192C465.441 148.048 466.792 150.727 467.545 153.672L467.434 153.185C469.117 161.798 477.154 174.153 478.505 185.224V184.759C478.726 184.427 479.656 186.53 479.988 188.28C479.988 188.922 479.546 187.793 479.036 186.84C480.033 191.601 480.63 194.502 481.25 197.159C481.87 199.816 481.937 202.273 482.446 206.015C482.446 202.672 483.288 209.004 483.93 209.248C483.93 211.307 483.133 208.185 483.487 212.68C483.885 215.868 484.616 218.88 485.015 221.78C485.413 224.681 485.612 227.515 485.878 230.172C485.435 232.386 485.745 235.176 485.081 235.353C485.081 238.94 485.28 241.752 485.391 244.763C485.502 247.774 485.015 251.007 484.771 255.413L484.992 255.657C484.018 257.871 484.992 263.362 484.461 264.979C484.771 264.757 484.926 263.827 485.147 264.071L484.682 268.078C485.037 266.196 485.878 265.178 485.812 268.521C485.037 271.909 485.457 267.525 484.882 269.163C485.125 269.54 485.391 269.916 485.59 270.271C485.103 272.861 484.107 273.481 484.372 270.271C482.955 279.127 481.516 287.696 480.099 295.446L480.808 294.737C479.489 298.837 478.497 303.035 477.841 307.291C477.664 307.291 477.132 308.354 477.154 307.624C475.184 312.495 477.819 308.399 475.671 313.69C475.989 312.576 476.474 311.516 477.11 310.546C476.124 313.97 474.903 317.321 473.457 320.576C473.036 324.285 472.027 327.902 470.467 331.293C470.224 331.293 470.467 330.075 470.755 329.079L469.582 331.736V334.149L467.301 337.758L467.965 338.113C466.681 340.925 465.131 341.589 464.179 343.87C462.331 348.21 460.712 352.644 459.33 357.155C458.489 357.155 457.581 359.634 456.097 361.959C455.184 363.935 453.949 365.745 452.444 367.318C450.208 372.038 447.656 376.602 444.805 380.979C441.351 385.607 437.609 390.456 434.244 395.194L434.93 394.508C434.075 396.097 432.916 397.504 431.52 398.648C429.931 399.711 428.512 401.01 427.313 402.501L428.376 401.637C425.755 405.037 422.923 408.269 419.896 411.313C418.235 412.974 416.663 414.701 415.002 416.096L410.441 419.638C411.57 418.908 411.371 419.638 409.799 421.056C408.294 422.052 410.397 419.173 407.851 421.853C408.604 421.343 408.294 422.052 407.674 422.628L404.529 424.532L399.304 429.757C397.418 431.502 395.445 433.15 393.392 434.695C389.296 437.905 385.111 441.072 381.059 443.839C379.753 445.146 381.059 444.548 381.436 444.504C374.793 448.666 367.796 452.01 361.752 455.575L361.552 456.659C358.541 458.387 359.073 456.549 355.397 459.184C354.533 459.715 358.076 457.944 359.36 457.744C353.404 461.287 355.308 458.807 349.419 461.752H351.367C349.252 463.314 346.69 464.153 344.06 464.143C337.263 466.358 340.23 467.996 330.775 470.609C329.181 470.609 331.019 469.812 329.425 469.9C323.114 472.424 322.184 472.114 315.808 474.594C312.686 476.808 319.173 473.731 315.808 475.945C317.453 475.389 319.065 474.739 320.634 473.996C316.649 476.211 324.509 472.779 324.111 473.797C322.247 474.568 320.33 475.204 318.376 475.701C316.162 476.299 313.793 476.521 311.733 476.963C311.911 477.561 316.693 475.768 314.966 477.074L312.752 477.384C313.488 477.535 314.249 477.497 314.966 477.273C314.324 478.026 312.398 477.96 310.294 478.469C310.073 478.203 310.073 477.738 310.626 477.141C310.495 477.296 310.328 477.418 310.139 477.495C305.711 477.738 298.648 480.24 294.861 480.484C295.481 480.484 294.994 480.683 294.861 480.882C292.271 481.414 289.392 480.882 285.872 481.281C284.034 482.034 287.2 482.455 281.444 483.052C280.359 482.72 282.728 481.458 278.034 482.189C277.79 482.299 281.953 482.1 279.805 482.787ZM379.686 445.965C380.358 445.594 380.995 445.164 381.591 444.681V444.681C380.985 445.151 380.349 445.58 379.686 445.965V445.965ZM386.949 441.315C386.196 441.913 385.753 441.913 385.886 441.537L389.141 439.079C388.145 440.075 386.44 441.515 386.949 441.315ZM374.483 454.246H374.682L376.897 452.94C376.897 453.161 376.432 453.537 375.081 454.246C374.883 454.279 374.681 454.279 374.483 454.246Z" fill="#016C55"/>
<path d="M372.406 454.889L371.83 455.155L372.539 454.557H373.092L372.406 454.889Z" fill="#016C55"/>
<path d="M49.0899 100.842L49.2006 100.665C49.1223 100.788 49.0625 100.923 49.0234 101.064C49.0527 100.992 49.0749 100.918 49.0899 100.842V100.842Z" fill="#016C55"/>
<path d="M467.17 337.691L467.325 337.758L466.904 338.466L467.17 337.691Z" fill="#016C55"/>
<path d="M24.8223 146.896C24.8342 147.133 24.7886 147.368 24.6895 147.583C24.7057 147.35 24.7503 147.119 24.8223 146.896Z" fill="#016C55"/>
<path d="M16.7873 167.799L15.9238 170.854C16.256 169.482 16.5438 168.574 16.7873 167.799Z" fill="#016C55"/>
<path d="M12.2475 184.405C12.1422 184.514 12.0134 184.597 11.8711 184.649V184.649L12.2475 184.405Z" fill="#016C55"/>
<path d="M202.135 8.84394H202.799C204.371 8.68895 203.308 8.77751 202.135 8.84394Z" fill="#016C55"/>
<path d="M125.59 35.303C126.409 34.993 127.206 34.683 128.048 34.3066C126.808 35.0595 125.811 35.613 125.59 35.303Z" fill="#016C55"/>
<path d="M131.346 32.4688C130.303 33.1781 129.199 33.7932 128.047 34.3066C129.11 33.6297 130.211 33.016 131.346 32.4688Z" fill="#016C55"/>
<path d="M6.31445 258.048L6.4252 258.867C6.4252 258.867 6.42516 258.867 6.31445 258.978V258.048Z" fill="#016C55"/>
<path d="M6.31249 259.023V259.953C6.25782 259.646 6.25782 259.331 6.31249 259.023V259.023Z" fill="#016C55"/>
<path d="M6.33398 261.924V259.953C6.43433 260.606 6.43433 261.271 6.33398 261.924Z" fill="#016C55"/>
<path d="M4.54102 235.352L4.78454 235.108C4.77009 235.167 4.73978 235.221 4.69683 235.264C4.65389 235.307 4.6 235.337 4.54102 235.352V235.352Z" fill="#016C55"/>
<path d="M4.71708 228.512C4.71708 230.15 5.11564 232.608 5.00494 234.889L4.82783 235.11C5.13782 234.025 4.22996 230.039 4.71708 228.512Z" fill="#016C55"/>
<path d="M5.80445 199.416L5.00731 205.217C5.00731 204.177 4.80809 202.782 4.29883 205.416C4.7638 197.955 4.54237 207.121 5.80445 199.416Z" fill="#016C55"/>
<path d="M9.54436 181.594C8.61441 184.627 9.19005 181.461 9.01291 181.594C9.76573 179.712 9.94291 179.269 9.54436 181.594Z" fill="#016C55"/>
<path d="M75.7027 69.6224L75.0605 69.401C76.8762 67.7625 75.2377 69.556 75.7027 69.6224Z" fill="#016C55"/>
<path d="M96.6082 55.541L95.0361 57.3123L93.8184 57.578L96.6082 55.541Z" fill="#016C55"/>
<path d="M105.951 43.2742L105.021 43.8056L108.52 41.7021L105.951 43.2742Z" fill="#016C55"/>
<path d="M318.181 10.7035L317.251 11.2349C315.679 10.7035 315.59 9.81785 318.181 10.7035Z" fill="#016C55"/>
<path d="M401.518 56.5586C403.134 57.3921 404.554 58.5623 405.68 59.9905C404.042 58.7727 402.27 57.4664 401.518 56.5586Z" fill="#016C55"/>
<path d="M481.253 315.994L481.984 314.2L480.877 317.654L481.253 315.994Z" fill="#016C55"/>
<path d="M41.5595 417.092C41.7366 417.512 41.316 417.557 40.6074 416.649V415.652L41.5595 417.092Z" fill="#016C55"/>
<path d="M35.7603 411.845C35.1403 410.583 34.5646 409.055 35.5167 409.409C35.9152 410.804 36.2916 410.937 36.6902 412.465C37.3544 413.417 38.1073 413.926 38.1516 413.616C38.2844 414.037 39.3915 414.923 39.5243 415.631C38.0343 414.573 36.8257 413.167 36.0038 411.535C35.6495 411.269 35.7824 411.69 35.7603 411.845Z" fill="#016C55"/>
<path d="M42.3809 337.293C42.5027 337.001 42.5918 336.696 42.6465 336.385C42.6112 336.7 42.5213 337.008 42.3809 337.293V337.293Z" fill="#016C55"/>
<path d="M14.7918 285.259C14.5704 285.769 14.4375 285.946 14.3711 285.968C14.6147 285.503 14.8139 285.127 14.7918 285.259Z" fill="#016C55"/>
<path d="M25.4845 281.473L24.8867 281.053C25.1116 281.153 25.3147 281.295 25.4845 281.473Z" fill="#016C55"/>
<path d="M42.3795 337.294C42.028 338.044 41.4247 338.647 40.6746 338.999C40.4089 338.932 41.8702 338.423 42.3795 337.294Z" fill="#016C55"/>
<path d="M27.8997 398.382C28.0769 398.736 28.2097 399.024 28.3204 399.312L27.8555 398.493L27.8997 398.382Z" fill="#016C55"/>
<path d="M18.4468 335.19L18.1369 335.722L17.6719 336.032L18.4468 335.19Z" fill="#016C55"/>
<path d="M12.623 358.683C12.623 358.129 13.1102 357.952 13.3316 357.753C13.1221 358.11 13.0007 358.513 12.9773 358.926C12.9773 358.926 12.7559 358.882 12.623 358.683Z" fill="#016C55"/>
<path d="M23.4961 394.84L23.7618 395.46L23.4961 394.84Z" fill="#016C55"/>
<path d="M33.6367 326.555C33.7081 326.479 33.8005 326.425 33.9024 326.4C33.9024 326.4 33.7917 326.511 33.6367 326.555Z" fill="#016C55"/>
<path d="M136.525 458.453C136.525 458.453 136.679 458.563 136.525 458.453V458.453Z" fill="#016C55"/>
<path d="M162.368 468.816L162.014 468.661C162.003 468.565 162.003 468.469 162.014 468.373L162.368 468.816Z" fill="#016C55"/>
<path d="M40.8309 297.903C40.4988 297.327 40.6759 297.615 40.8309 297.903V297.903Z" fill="#016C55"/>
<path d="M86.3108 333.485C85.5801 331.271 86.3108 337.294 85.3145 333.884C85.5359 334.194 85.6687 330.651 86.3108 333.485Z" fill="#016C55"/>
<path d="M27.5464 397.895L27.0371 397.076L27.5464 397.895Z" fill="#016C55"/>
<path d="M32.553 299.143C32.5754 299.356 32.5754 299.571 32.553 299.785C32.553 299.785 32.4645 299.585 32.553 299.143Z" fill="#016C55"/>
<path d="M45.9023 310.192L46.3009 311.056C46.1533 310.775 46.0203 310.487 45.9023 310.192V310.192Z" fill="#016C55"/>
<path d="M51.2598 293.188C51.7127 293.393 52.1251 293.678 52.4775 294.029H52.2783C52.0104 293.672 51.6613 293.383 51.2598 293.188V293.188Z" fill="#016C55"/>
<path d="M64.5432 309.241L64.3217 308.975C64.3217 308.776 64.1224 308.576 64.0117 308.377L64.5432 309.241Z" fill="#016C55"/>
<path d="M93.8809 413.041C94.1542 413.258 94.4607 413.43 94.7887 413.55C94.3237 413.55 95.9843 416.052 93.8809 413.041Z" fill="#016C55"/>
<path d="M27.6595 398.516C27.702 398.302 27.6625 398.081 27.5488 397.896L27.8588 398.493C27.8588 398.493 27.7702 398.626 27.6595 398.516Z" fill="#016C55"/>
<path d="M49.6426 296.818C50.4225 297.387 51.1623 298.008 51.8568 298.678C51.2368 298.125 50.4397 297.416 49.6426 296.818Z" fill="#016C55"/>
<path d="M6.51117 352.461L6.26758 351.797C6.38038 352.005 6.46245 352.229 6.51117 352.461V352.461Z" fill="#016C55"/>
<path d="M57.6816 305.764C58.1503 306.125 58.574 306.541 58.9437 307.004C58.9979 307.123 59.0351 307.25 59.0544 307.38L57.6816 305.764Z" fill="#016C55"/>
<path d="M106.636 429.913C108.407 432.437 107.366 430.599 109.47 432.459C110.134 433.987 111.684 434.673 111.197 435.426C112.282 435.803 111.95 435.736 113.544 436.91C112.592 436.6 115.758 439.855 115.182 440.165C116.201 440.297 113.544 437.264 115.736 438.637C116.577 440.187 118.703 442.578 118.415 443.242C119.526 443.987 120.584 444.808 121.581 445.7C121.347 445.481 121.159 445.218 121.028 444.925C123.242 447.826 127.67 451.036 128.777 452.963C128.777 451.811 134.999 457.701 133.361 455.177C134.499 456.153 135.572 457.203 136.571 458.321C136.903 457.568 139.804 460.358 141.509 460.801C142.835 461.974 144.257 463.033 145.76 463.967C145.14 463.546 144.897 463.192 145.207 463.148C146.712 464.343 146.447 463.834 148.041 464.233C150.255 465.627 147.354 464.565 148.55 465.583C150.587 466.447 149.059 465.295 149.569 465.207C150.41 465.96 151.296 466.646 152.203 467.31C152.667 467.495 153.171 467.556 153.665 467.487C154.615 468.341 155.791 468.902 157.052 469.104C156.163 468.781 155.291 468.411 154.44 467.997H155.591C156.543 468.617 157.562 469.104 158.536 469.657C163.274 470.742 162.079 469.436 162.012 468.528L160.263 467.753C160.418 467.51 161.702 467.753 162.477 468.063C163.252 468.373 159.909 466.181 158.049 465.406C152.934 463.192 156.61 465.849 153.023 464.498C151.561 463.745 150.211 462.749 148.816 461.863L148.639 462.085C148.153 461.968 147.728 461.676 147.443 461.266C147.443 461.841 143.9 459.339 142.151 458.365H142.948C138.719 454.689 135.132 454.158 131.877 451.036L129.862 448.556H129.021C128.075 447.101 126.901 445.808 125.545 444.726C117.109 438.282 110.533 428.828 103.514 420.768C103.669 420.768 103.89 421.056 104.377 421.521C97.5355 414.879 96.6719 408.945 90.9372 402.59L91.1144 403.188C88.7231 399.601 91.2915 403.786 89.2323 401.372C89.4316 400.509 86.5089 396.59 85.2689 394.398C85.5521 394.992 85.8701 395.568 86.2211 396.125C85.8447 395.837 85.4239 395.903 84.804 394.818C83.9847 392.006 80.4863 387.179 78.1615 383.437C77.5194 383.26 74.9731 380.404 73.246 379.23C73.1132 378.788 72.8917 377.946 72.6703 377.149C71.7146 376.229 70.9605 375.121 70.4561 373.894L72.6703 376.773V376.662C72.7754 376.848 72.8938 377.025 73.0246 377.193C73.5781 377.968 73.8439 378.389 73.6889 378.234C75.0616 379.408 73.8881 377.946 74.3531 377.725C73.4674 376.573 71.7846 374.094 71.2975 374.072C70.812 373.447 70.2948 372.849 69.7476 372.278C69.4548 371.761 69.1058 371.279 68.707 370.839L68.8398 371.104L68.4855 370.905C66.5697 368.494 64.8518 365.932 63.3487 363.244C64.3672 365.458 62.4408 363.244 62.0866 363.554C61.9537 363.311 63.8137 365.525 66.1385 368.27C66.0645 368.194 65.9747 368.134 65.8752 368.096C65.7758 368.058 65.6691 368.042 65.5628 368.049C63.2158 365.99 62.5294 363.621 59.2524 360.521C59.4074 360.787 59.7174 361.274 59.4296 361.229C58.5671 360.428 57.9069 359.434 57.5033 358.329C55.8657 357.422 54.4274 356.194 53.2742 354.72C52.6888 353.502 51.8421 352.428 50.7943 351.575L51.4143 352.638C48.9787 350.579 49.8644 350.424 47.7388 348.874C48.6023 349.494 48.4473 349.804 47.7388 349.317C46.3147 347.951 45.0585 346.419 43.9968 344.756V345.42C42.0705 343.317 38.0628 339.619 37.62 340.106C38.9928 339.774 32.8373 336.076 30.6675 334.792C31.3981 335.257 31.4203 335.545 31.4203 335.678C27.0599 332.154 21.6967 330.101 16.0982 329.81L15.1683 330.541C12.2898 330.541 11.0942 329.279 7.75083 330.541C8.19366 330.541 8.63649 330.408 9.05718 330.386C6.691 331.147 4.57783 332.541 2.94605 334.416C1.50147 336.114 0.52462 338.159 0.11191 340.35H0.64329C0.102987 342.18 -0.0995673 344.093 0.0454879 345.996C1.09288 349.067 2.29752 352.082 3.6546 355.03C5.36546 358.513 7.75125 361.621 10.6735 364.174L10.2085 365.082C11.8249 366.986 13.8841 369.51 15.1904 369.842L14.814 369.444C15.1462 368.78 16.5411 371.237 17.781 372.189C18.556 373.075 19.1095 374.204 18.2681 373.607C23.3386 377.924 31.0217 384.146 35.118 385.452C40.6977 388.973 45.2367 392.095 52.8313 392.803V392.671C55.4219 392.98 60.5809 392.073 60.3595 391.231C65.4964 390.257 69.4819 389.526 74.0431 384.766C73.6456 385.035 73.2314 385.279 72.8031 385.497C73.9545 384.345 75.9252 382.618 76.3902 382.153C76.8551 381.688 76.3901 381.932 76.213 381.91C76.9062 380.901 77.692 379.96 78.56 379.098L78.0508 379.363C80.5085 374.935 84.5383 368.071 85.6454 361.65C85.2911 362.779 85.1582 362.115 85.1361 361.65C86.6196 359.236 87.3503 352.085 87.5495 349.428L87.1067 351.044C87.9703 345.907 86.4425 346.616 86.9517 341.457L87.5053 344.402C87.3281 342.187 87.5053 340.527 87.8374 340.992C87.3946 338.578 87.1953 340.726 86.841 337.073C86.5975 336.94 86.841 339.707 86.4646 338.534C86.1103 336.873 85.8003 335.235 85.3354 333.596C85.1483 332.804 85.0371 331.996 85.0032 331.183C86.1325 331.471 84.3611 327.065 85.8225 329.389C84.5037 323.057 82.6899 316.839 80.3978 310.79C79.0815 308.863 77.9474 306.817 77.0101 304.679C75.7702 302.332 74.4859 300.428 74.0874 301.048C72.2939 298.214 70.8768 295.933 69.5483 293.852C70.1369 294.365 70.6379 294.971 71.0318 295.645C69.7608 293.627 68.0783 291.899 66.0942 290.575C68.1574 292.306 69.858 294.428 71.0983 296.819C69.3365 294.082 67.0209 291.743 64.3007 289.955C63.9086 290.049 63.5294 290.19 63.1716 290.376C62.7 290.213 62.1913 290.192 61.7077 290.314C61.2241 290.436 60.7864 290.696 60.4481 291.062L58.6104 293.033L58.721 292.457C57.8669 293.978 57.2261 295.61 56.8168 297.306C56.3205 298.802 56.0373 300.359 55.9755 301.934L56.2412 301.734C55.9517 303.546 56.0194 305.396 56.4404 307.181C56.4404 306.185 56.3076 305.189 56.3298 304.192C56.7947 304.502 57.1047 306.739 57.4589 307.713C57.6804 310.835 56.8169 308.908 56.9497 310.48C57.5033 311.078 57.2154 310.591 57.5033 309.462C57.7468 312.96 58.8539 317.544 59.2967 320.09C59.4296 320.201 59.4517 320.09 59.4517 320.09L61.3337 324.895C61.7726 325.86 62.268 326.799 62.8173 327.707C63.3265 328.681 63.9465 328.858 64.4336 329.279L63.8358 328.659C64.2044 328.868 64.5464 329.12 64.8543 329.412C65.2307 329.589 65.8507 329.19 66.2935 329.057C67.2931 328.674 68.1456 327.984 68.7291 327.087C69.969 325.338 69.9026 322.836 69.349 322.769C69.2162 322.061 69.3491 322.769 69.1719 323.677C68.9948 324.585 68.8841 325.183 68.7734 323.677C68.6643 322.432 68.6643 321.18 68.7734 319.935C68.9586 318.824 68.7131 317.683 68.087 316.747C68.3306 317.212 68.1977 317.079 68.087 317.278C66.9941 314.44 65.7373 311.667 64.3229 308.975C61.7766 306.185 58.1453 299.255 54.2705 296.974C55.4883 297.683 53.8277 295.889 53.9384 295.778C54.0491 295.668 53.9384 295.956 53.8056 295.889C53.1869 295.344 52.6826 294.682 52.3221 293.941C51.1707 293.299 48.4694 291.151 47.3845 291.239C47.3845 290.996 45.9674 290.664 44.3289 290.752C47.5616 291.129 45.3474 291.306 46.6759 291.815C45.058 291.558 43.4149 291.498 41.7826 291.638C40.0168 291.816 38.3665 292.598 37.1107 293.852C36.5286 294.537 36.0167 295.279 35.5829 296.066C35.1622 296.066 34.2766 296.952 33.6788 297.97C33.3506 298.638 32.9885 299.288 32.5938 299.919C32.5938 300.782 32.3503 302 32.7267 301.889C32.4429 303.669 32.2948 305.468 32.2838 307.27C32.1538 306.663 32.0577 306.05 31.996 305.432C32.5274 311.145 33.5016 314.687 36.2693 318.075L37.0664 317.389C38.085 318.407 38.7049 319.47 39.5906 320.489C40.0234 321.053 40.5903 321.501 41.2399 321.791C41.8895 322.081 42.6012 322.204 43.3104 322.149C42.779 322.304 42.4248 322.26 42.4912 322.348C43.0789 322.62 43.7357 322.705 44.3732 322.592C43.4134 322.847 42.3926 322.728 41.517 322.26C40.6197 321.771 39.8052 321.143 39.1034 320.4C39.9804 321.74 41.3206 322.71 42.8676 323.123C41.7345 322.826 40.6715 322.307 39.7404 321.597C38.8092 320.886 38.0283 319.998 37.4428 318.983C38.7713 321.197 38.9263 321.064 37.7528 320.489C38.6573 321.783 39.9779 322.729 41.4948 323.168C42.4317 323.441 43.4226 323.473 44.375 323.26C45.3275 323.047 46.2104 322.596 46.9416 321.95C47.9823 320.267 46.6981 321.618 47.3845 319.736C48.8016 315.949 46.2331 313.47 46.1667 311.388C45.8345 310.791 46.5431 312.562 46.1667 312.495C45.6734 311.295 45.3313 310.038 45.1482 308.753L45.8567 310.237C45.4982 308.786 44.955 307.387 44.2403 306.074C43.7754 304.546 43.8197 303.484 44.5946 305.056C44.3511 304.391 43.399 303.107 43.3768 303.749C41.3177 299.941 43.3768 301.358 40.7862 297.992C40.9191 298.258 41.0298 298.546 40.897 298.435C40.277 297.572 39.812 296.841 39.4356 296.221C41.4062 299.365 38.1514 295.69 40.6534 299.277C39.9449 299.144 38.7713 296.531 37.7971 295.535C36.845 293.608 38.3064 294.871 37.7971 293.852C37.6642 293.985 37.1772 293.232 36.4465 292.457L37.4207 293.033C36.8672 292.302 36.3136 291.638 35.7379 290.819L36.7122 292.324C35.4501 290.819 33.081 289.003 30.9996 286.324C31.5089 287.077 32.5053 288.538 30.7782 287.121C28.3648 284.309 30.0475 286.634 28.3426 285.416C25.7077 282.914 28.3426 284.375 24.1135 281.121C23.6485 280.744 24.2243 280.899 24.7557 281.121C24.0548 280.553 23.3149 280.035 22.5415 279.571C21.5776 279.015 20.4529 278.804 19.3531 278.973C18.2901 279.227 17.3498 279.846 16.696 280.722C16.1632 281.454 15.7244 282.25 15.3897 283.091C16.0318 281.652 16.696 280.368 15.3897 282.272C16.1204 281.608 14.1498 285.106 13.9505 286.545L13.6184 286.811C13.4634 287.962 13.9283 286.811 14.349 286.036C14.349 286.036 14.349 285.682 14.6369 285.062C15.589 283.512 15.899 284.442 14.9469 287.032C13.9948 289.623 13.4633 289.247 13.3748 288.604C12.5334 292.546 11.4263 292.103 11.1606 296.022C11.0278 296.93 11.6478 299.919 11.8249 302.665C11.3599 304.104 11.4263 299.188 11.0499 300.805C12.2456 305.388 10.6956 310.392 12.7548 316.304L13.1534 315.418C13.5077 316.791 13.8619 318.119 14.2826 319.669L13.3969 317.743C13.5962 319.16 14.814 322.304 14.8805 321.108C15.3645 323.39 16.3726 325.528 17.8253 327.352C16.2311 324.585 17.6924 327.352 16.8953 325.138L19.9509 330.164C19.9509 329.744 20.8587 330.519 21.4566 331.161C23.2236 333.565 25.4895 335.559 28.0991 337.006V336.851C30.3738 338.175 32.9324 338.934 35.5608 339.065C36.8845 339.138 38.2122 339.079 39.5241 338.888C40.2648 338.801 40.961 338.489 41.5191 337.994C42.0772 337.499 42.4705 336.845 42.6461 336.121V335.833C42.6679 335.987 42.6679 336.144 42.6461 336.298C42.6461 337.471 43.3104 336.298 43.1333 334.548C42.9185 333.019 42.2993 331.574 41.3398 330.364C40.8394 330.205 40.3789 329.941 39.9892 329.589C40.3213 329.102 38.4171 328.105 37.775 327.596C35.9151 327.131 37.775 328.105 34.7637 327.286C33.5902 327.043 33.4573 326.821 33.6123 326.622C32.9038 326.777 30.911 326.954 29.3168 327.375C29.8925 327.375 30.7561 327.087 31.1325 327.131C31.5089 327.175 30.2689 327.375 30.3353 327.729C28.9626 327.995 29.6711 327.308 27.9883 327.95C28.5484 327.906 29.1111 327.906 29.6711 327.95C29.0511 328.116 28.4229 328.249 27.7891 328.349C28.8297 328.105 28.7855 328.57 28.719 328.858C24.9992 329.899 27.5676 328.061 27.2798 327.685C24.1238 329.066 21.3561 331.203 19.2202 333.906L19.9509 333.729C19.3933 334.463 18.7789 335.151 18.1131 335.788C17.7168 336.441 17.3546 337.113 17.0282 337.803C17.7589 336.696 18.1352 336.408 18.4895 336.497C17.1831 338.512 16.1646 341.612 15.3897 341.988H15.5225C14.6467 345.041 14.1193 348.183 13.9505 351.354C13.2198 354.675 13.5962 358.949 12.9541 359.037C12.7991 361.096 13.9505 364.196 13.3305 365.68C13.9948 367.894 13.5076 365.68 13.9283 365.016C14.5483 367.23 13.9284 369.842 14.9469 370.462C15.1462 373.23 14.6369 369.865 14.3933 370.839C15.3012 371.259 15.5668 375.865 16.8289 378.19C16.8289 379.408 16.2754 377.127 16.4968 379.142C16.6296 378.898 17.006 379.895 17.2053 380.404L16.851 381.046C17.5374 381.755 18.2681 382.419 19.0652 383.083C19.9066 386.914 17.8696 382.685 19.6409 387.511V387.202C20.7037 388.264 20.748 390.789 22.9179 393.844C22.2093 392.759 22.9179 393.268 22.9179 392.826L23.715 394.774C23.715 394.575 23.715 394.486 23.715 394.641C24.9549 396.036 24.3128 396.125 25.7077 397.785C25.0435 396.479 25.7077 396.656 26.1284 397.099L27.1913 400.022V398.582C28.7633 401.062 30.3132 405.358 32.0181 405.978L31.2653 404.716C31.4646 404.716 32.3946 405.114 33.2802 406.93C33.5681 407.483 33.4795 408.081 32.9924 407.373L34.033 408.458C33.097 406.41 31.9857 404.447 30.7118 402.59C30.9553 403.321 31.8631 404.804 31.2874 404.583C30.2246 402.811 29.4276 400.996 28.4976 399.247C28.6786 399.828 28.7828 400.431 28.8076 401.04C27.4126 399.291 28.1876 399.468 27.3462 398.007C26.8369 397.564 26.5048 397.254 26.5934 397.697C25.763 395.869 24.77 394.121 23.6264 392.471C23.6264 392.471 24.5342 394.84 23.6264 393.755C22.4798 390.863 21.5038 387.906 20.7037 384.899C19.508 379.961 16.9839 375.754 16.8289 372.145C16.9839 371.902 17.7367 374.603 17.4046 372.367C17.0725 372.854 16.8289 371.082 16.6518 371.016C16.8289 368.47 15.899 367.429 16.1204 365.636C16.1204 366.078 15.6997 364.661 15.4783 363.731C14.969 364.041 15.0576 360.986 14.5926 364.683C15.0576 360.897 14.0833 358.041 15.4783 355.295V356.247C15.4783 355.007 15.4783 353.767 15.4783 352.528V352.683C15.658 351.332 15.6951 349.967 15.589 348.609C15.3011 349.516 15.0576 350.823 14.814 351.775C14.9885 349.627 15.5433 347.528 16.4525 345.575C16.0097 345.575 15.7661 347.789 15.4561 347.059C15.8125 345.621 16.3017 344.22 16.9175 342.874L16.6518 343.007C17.4932 339.132 18.1131 341.944 18.5338 339.043C18.5338 339.176 18.8881 338.91 18.9324 339.043C19.1538 338.025 20.0394 335.633 18.6224 337.693C19.1501 336.595 19.9048 335.621 20.8365 334.836C20.4601 335.943 20.1723 336.098 20.3051 336.674C21.2521 335.208 22.3915 333.874 23.6928 332.711C24.1357 332.334 23.2279 332.844 22.7407 333.397C23.5996 332.083 24.7621 330.994 26.1302 330.223C27.4983 329.453 29.0317 329.022 30.601 328.969C33.8207 328.743 37.0217 329.617 39.6792 331.449C38.9042 331.161 39.8563 331.98 39.9448 332.644C40.3021 333.058 40.5709 333.541 40.7346 334.063C40.8983 334.584 40.9536 335.134 40.897 335.678C40.8388 336.115 40.6341 336.519 40.3164 336.825C39.9987 337.13 39.5867 337.319 39.1478 337.361C39.3538 337.384 39.5617 337.384 39.7677 337.361C37.4814 337.632 35.1632 337.375 32.9924 336.608C31.239 336.024 29.5419 335.283 27.9219 334.393C27.9219 334.216 27.7669 334.703 28.2983 335.08C26.2392 333.486 22.9622 332.268 23.1172 331.05C23.3829 331.271 23.6043 331.493 23.87 331.692C19.8623 328.127 17.8253 322.348 16.5854 317.101C15.6775 316.016 17.4046 320.156 16.4525 319.315C15.3023 315.492 14.5601 311.559 14.2383 307.58C14.2575 307.875 14.2575 308.171 14.2383 308.466C13.4855 304.325 14.814 308.864 14.4376 305.366C14.1719 305.565 14.0833 305.366 13.8841 304.236L14.2826 303.196C14.2826 303.019 13.8619 303.063 13.7512 303.594C14.1941 302 13.9505 297.328 14.7033 296.177C14.7033 295.845 13.9948 296.664 13.8398 296.177C13.8666 294.696 14.1903 293.235 14.7919 291.881V291.881C14.8751 290.592 15.0978 289.315 15.4561 288.073C16.4968 284.862 15.899 287.652 17.2275 285.483C16.9185 286.31 16.6524 287.152 16.4303 288.007C16.9928 286.579 17.6743 285.202 18.4674 283.888C18.091 284.375 17.7145 284.863 17.3824 285.372C17.7579 284.381 18.2968 283.461 18.9766 282.648C19.176 282.349 19.4673 282.122 19.8067 282.002C20.1462 281.882 20.5154 281.876 20.8587 281.984C20.6539 282.022 20.4628 282.114 20.3051 282.25C20.748 282.25 20.9251 282.427 21.6337 282.98C22.1872 282.516 24.5564 285.195 23.8478 283.534C28.2762 286.722 30.0032 289.844 33.0366 293.586C32.5274 292.922 32.8153 293.099 32.7931 292.9C34.2237 294.435 35.3439 296.232 36.0922 298.192C36.0922 297.793 35.7601 297.195 35.8929 297.085C36.9103 298.707 37.7774 300.419 38.4835 302.199C38.2178 301.181 38.4835 301.38 39.0592 302.199C38.7713 302.199 39.0592 302.997 39.3249 303.617C39.1256 300.539 41.7383 307.026 41.8269 305.012C41.7162 305.299 43.5761 310.791 42.3804 309.44L42.0705 308.488C41.6941 308.488 42.4026 309.706 42.7347 310.702C42.6179 310.343 42.5435 309.971 42.5133 309.595C43.431 311.946 44.1278 314.377 44.5946 316.857C44.5946 318.009 44.3732 318.961 44.0411 319.071C43.7089 319.182 43.1997 319.293 42.2919 318.562C42.5133 319.005 43.7311 319.625 42.8676 319.448C40.9037 318.285 39.3547 316.534 38.4392 314.444C37.3682 312.364 36.657 310.118 36.3357 307.801C35.8929 307.801 36.1365 309.196 36.6679 310.635C37.1993 312.075 37.9743 313.514 37.6864 313.802C34.8301 308.687 34.2987 301.646 38.8378 297.66C39.0928 297.012 39.506 296.437 40.0396 295.988C40.5732 295.54 41.2104 295.232 41.8933 295.092C43.4703 294.654 45.1079 294.474 46.7424 294.561C46.3438 294.893 47.8716 295.358 49.4879 296.576C49.1115 295.867 50.8607 297.195 50.5286 296.576C51.7907 297.904 55.4441 302.443 55.8869 301.779C55.6433 302.642 58.6103 305.166 59.0532 306.871C60.7305 309.218 62.2116 311.699 63.4815 314.289C62.5737 313.492 64.6329 317.234 64.8322 318.407C64.8322 318.097 64.5443 317.455 64.6772 317.588C65.4964 318.429 65.6071 320.843 65.8728 322.26C66.05 322.924 66.3378 322.105 66.36 323.168C65.9881 323.397 65.6523 323.681 65.3636 324.009C65.4335 324.202 65.5225 324.387 65.6292 324.563C65.4521 324.563 65.3414 324.563 65.2971 324.275L65.0979 323.832L64.9207 323.455L64.2343 322.061C63.3139 320.119 62.5153 318.123 61.843 316.082C60.4969 311.989 59.9702 307.67 60.2931 303.373L59.7174 304.879C59.0532 299.52 60.6917 301.38 61.0902 297.35C61.2253 296.282 61.5715 295.251 62.1087 294.317C62.6623 293.719 62.5073 293.719 63.1051 293.786C64.2113 294.311 65.2335 294.998 66.1385 295.823C67.2112 296.748 68.2105 297.754 69.1277 298.834C72.7861 303.402 75.5912 308.593 77.4087 314.156C77.5415 315.02 77.0322 313.78 76.7665 313.735C77.1651 314.643 77.7187 314.732 77.9179 316.127L77.5193 315.95C78.9492 318.978 79.9551 322.189 80.5085 325.493C80.9692 328.507 81.7105 331.472 82.7227 334.349C82.7227 339.398 83.874 342.962 82.8555 349.073C83.0105 351.022 83.5419 346.859 83.4534 349.472C83.1877 351.354 82.8334 353.236 82.4791 355.096V354.808C81.6599 357.465 81.3941 361.008 80.6413 364.683C80.0525 368.351 78.7268 371.861 76.7444 375.001L76.9215 374.78C77.2094 374.78 76.7222 376.086 76.0801 376.994C75.7702 377.26 76.0802 376.573 76.2573 375.909C75.0467 377.692 73.6835 379.366 72.1832 380.913C70.9605 382.22 69.6022 383.393 68.1313 384.412C69.9248 383.504 66.8471 385.74 66.8249 386.139C65.6293 386.471 67.2235 385.474 64.7436 386.449C61.606 388.005 58.1697 388.866 54.6691 388.973C53.3849 388.53 51.7021 388.397 51.7021 387.866C47.6998 387.072 43.8454 385.66 40.277 383.681H40.0777C39.0592 382.485 35.7601 381.6 35.0958 380.714C35.0958 380.98 35.5608 381.378 35.3394 381.445L33.3245 379.873C34.2102 380.692 34.4758 381.578 32.6824 380.448C31.1324 378.854 33.3466 380.448 32.6824 379.651H31.7967C30.4903 378.633 30.5125 377.858 32.2396 378.876C27.8956 375.713 23.8087 372.211 20.0173 368.403L20.1501 369.045C18.3449 367.01 16.4384 365.066 14.4376 363.222C14.4376 363.089 14.1719 362.447 14.4376 362.691C12.7327 359.857 13.7291 362.824 11.8913 359.679C12.3342 360.477 12.9984 361.384 12.932 361.65C11.6035 359.834 10.3414 357.908 9.21212 356.026C7.42541 354.564 6.08326 352.631 5.33732 350.446C5.33732 350.291 5.9352 350.933 6.28947 351.531C6.04591 351 5.89087 350.446 5.6916 349.893C5.49232 349.339 4.98309 349.229 4.60668 348.896C4.55197 348.049 4.55197 347.198 4.60668 346.35H4.0753C4.06925 345.053 4.21787 343.759 4.51809 342.497C4.54655 341.087 4.82388 339.693 5.33732 338.379C5.67733 337.303 6.26951 336.324 7.06444 335.523C7.55156 335.788 8.68073 334.903 10.1199 334.305C11.2139 333.684 12.488 333.457 13.7291 333.663C16.7762 333.034 19.9448 333.407 22.7629 334.726C26.1349 336.24 29.3592 338.063 32.3945 340.173L31.9517 339.752C34.8523 341.103 34.4759 342.387 37.2879 344.18L36.7122 343.56C41.2505 346.506 45.2998 350.145 48.713 354.343C48.2038 353.657 48.713 353.701 49.6873 354.675C50.6615 355.65 48.3808 354.432 50.1965 355.937C49.8422 355.45 50.3293 355.605 50.7278 355.937L51.9678 357.952C56.7941 362.291 61.1708 367.106 65.0314 372.322C65.895 373.119 65.5185 372.322 65.4742 372.012C68.5298 375.976 71.1204 380.227 73.7331 383.925H74.4859C75.7702 385.718 74.4859 385.585 76.7001 387.6C77.1429 388.087 75.6151 386.028 75.3716 385.231C78.3386 388.596 76.4344 387.689 78.9364 391.143V389.836C80.1879 390.995 80.975 392.569 81.1506 394.265C83.1212 398.472 84.0733 396.169 87.1732 401.638C87.461 402.634 86.5753 401.638 86.8631 402.656C89.5423 406.155 89.4316 406.863 92.1329 410.362C94.3471 411.69 90.8265 408.546 93.085 410.074L90.8708 407.483C92.9743 409.543 89.4759 405.269 90.2287 405.269C91.8281 407.544 93.3062 409.902 94.6571 412.332C95.0113 412.067 92.775 409.631 94.0371 410.34L94.7456 411.624C94.6734 411.173 94.4909 410.747 94.2142 410.384C94.8563 410.561 95.2106 411.757 96.0298 412.886C95.897 413.107 95.587 413.24 95.0334 413.063C95.1619 413.109 95.2816 413.176 95.3877 413.262C96.5391 415.941 99.816 419.506 100.901 421.743C100.768 421.344 100.901 421.588 101.167 421.743C102.207 423.093 102.872 424.842 104.178 426.769C105.219 427.522 104.466 425.595 106.68 428.562C106.813 429.293 105.263 428.452 107.256 430.776C107.012 431.264 105.506 428.961 106.636 429.913ZM66.36 373.562L65.4742 372.389L66.36 373.562ZM63.238 369.001C63.6144 369.466 63.6365 369.754 63.3708 369.71L61.688 367.717C62.3744 368.315 63.3487 369.333 63.238 369.001ZM72.3603 376.064V375.931L71.3861 374.559C71.5411 374.559 71.8289 374.802 72.3603 375.599C72.392 375.753 72.392 375.911 72.3603 376.064V376.064Z" fill="#016C55"/>
<path d="M72.8705 377.37L73.0698 377.702L72.627 377.326V376.949L72.8705 377.37Z" fill="#016C55"/>
<path d="M42.6719 336.232V336.387C42.6939 336.277 42.6939 336.164 42.6719 336.055V336.232Z" fill="#016C55"/>
<path d="M4.60941 346.615H4.47656V346.15L4.60941 346.615Z" fill="#016C55"/>
<path d="M18.8881 339.109C18.9221 339.255 18.9221 339.407 18.8881 339.552C18.868 339.405 18.868 339.256 18.8881 339.109V339.109Z" fill="#016C55"/>
<path d="M15.4322 352.683C15.4322 353.347 15.4322 354.011 15.4322 354.675C15.3872 354.012 15.3872 353.346 15.4322 352.683Z" fill="#016C55"/>
<path d="M15.6133 363.487C15.5624 363.58 15.4948 363.663 15.4141 363.731V363.731L15.6133 363.487Z" fill="#016C55"/>
<path d="M42.5371 310.724L42.67 311.122C42.9357 312.052 42.7364 311.432 42.5371 310.724Z" fill="#016C55"/>
<path d="M14.6387 291.837L15.2586 290.31C15.0594 291.262 14.9265 291.882 14.6387 291.837Z" fill="#016C55"/>
<path d="M49.3984 296.663V296.641L49.642 296.818L49.3984 296.663Z" fill="#016C55"/>
<path d="M15.9664 288.05C15.7805 288.803 15.5438 289.543 15.2578 290.264C15.4095 289.501 15.6472 288.759 15.9664 288.05V288.05Z" fill="#016C55"/>
<path d="M33.3262 406.397L33.6583 406.818L33.3262 406.397Z" fill="#016C55"/>
<path d="M33.7227 406.93L34.0327 407.417C33.8904 407.283 33.7838 407.115 33.7227 406.93V406.93Z" fill="#016C55"/>
<path d="M34.6772 408.479L34.0352 407.416C34.3034 407.735 34.52 408.093 34.6772 408.479V408.479Z" fill="#016C55"/>
<path d="M25.3535 394.42V394.177C25.3749 394.214 25.3862 394.256 25.3862 394.299C25.3862 394.341 25.3749 394.383 25.3535 394.42Z" fill="#016C55"/>
<path d="M23.3398 390.522C24.1403 391.64 24.8794 392.801 25.554 393.999V394.176C25.3326 393.467 23.517 391.563 23.3398 390.522Z" fill="#016C55"/>
<path d="M14.926 373.938C15.2803 375.133 15.5902 376.351 16.0109 377.546C15.6345 376.971 15.1474 376.196 15.5902 377.856C13.7746 373.406 16.2102 378.698 14.926 373.938Z" fill="#016C55"/>
<path d="M12.9779 362.38C12.9779 364.417 12.6901 362.38 12.6016 362.38C12.6901 361.162 12.7122 360.852 12.9779 362.38Z" fill="#016C55"/>
<path d="M19.29 329.589L19.0464 330.032C18.1607 328.659 19.1793 329.921 19.29 329.589Z" fill="#016C55"/>
<path d="M15.4355 313.999L16.0112 315.372L15.7898 316.147L15.4355 313.999Z" fill="#016C55"/>
<path d="M11.0495 305.011L11.0273 305.72L11.0495 303.062V305.011Z" fill="#016C55"/>
<path d="M62.9972 305.852H62.2887C61.7794 304.812 62.1116 304.258 62.9972 305.852Z" fill="#016C55"/>
<path d="M58.0781 293.122C58.2477 292.37 58.6268 291.682 59.1716 291.137C59.7163 290.593 60.4043 290.213 61.1559 290.044C59.8029 290.68 58.7144 291.769 58.0781 293.122V293.122Z" fill="#016C55"/>
<path d="M8.14996 362.468L8.76992 363.575L7.44141 361.627L8.14996 362.468Z" fill="#016C55"/>
<path d="M180.234 116.76L189.091 274.985C193.945 274.033 198.939 274.033 203.793 274.985C211.432 277 216.967 283.465 223.876 287.296C239.065 295.665 257.93 290.174 275.112 292.632C275.761 269.915 275.525 247.197 274.403 224.48C273.761 211.837 272.853 199.194 272.942 186.529C272.942 168.816 275.156 151.102 274.093 133.389C274.104 131.578 273.718 129.787 272.964 128.141C271.841 126.432 270.321 125.019 268.535 124.023C259.206 117.823 249.686 111.919 239.973 106.309C238.716 105.517 237.362 104.891 235.943 104.45C234.132 104.066 232.271 103.969 230.43 104.162L183.932 106.774" fill="#DEC5BB"/>
<path d="M199.168 289.689C188.446 299.527 178.689 310.367 170.029 322.061C186.65 328.305 203.08 335.22 219.317 342.808C225.849 345.885 232.336 349.074 238.602 352.661C246.308 357.089 253.659 362.182 261.076 367.119C275.837 376.935 290.857 386.286 306.134 395.173C307.625 396.237 309.379 396.872 311.205 397.01C312.738 396.881 314.214 396.371 315.5 395.527C322.185 391.787 328.068 386.769 332.815 380.758C334.313 379.049 335.417 377.03 336.048 374.847C337.576 368.204 331.62 362.536 326.084 358.838C315.19 351.664 303.101 346.483 291.698 340.106C278.125 332.534 265.527 323.301 252.175 315.33C238.204 307.001 223.436 300.088 208.091 294.694L199.168 289.689Z" fill="#DEC5BB"/>
<path d="M140.625 147.761L140.049 169.482C140.049 171.474 139.518 173.91 137.592 174.397C136.617 174.596 135.555 174.153 134.625 174.508C133.695 174.862 133.163 176.146 132.875 177.231C128.558 194.413 129.665 212.437 130.794 230.128L133.562 272.972C133.484 274.184 133.656 275.399 134.067 276.542C134.478 277.684 135.12 278.73 135.953 279.614C137.27 280.474 138.809 280.928 140.382 280.921C145.572 281.301 150.791 280.943 155.881 279.858C156.919 279.735 157.893 279.294 158.671 278.596C159.38 277.607 159.717 276.399 159.623 275.186C160.733 247.136 160.267 219.046 158.228 191.048C158.305 188.45 157.527 185.898 156.014 183.785C155.241 183.118 154.537 182.376 153.91 181.571C153.439 180.569 153.226 179.466 153.29 178.36L152.737 154.226C152.836 152.379 152.494 150.535 151.74 148.845C151.361 147.994 150.693 147.305 149.854 146.899C149.015 146.494 148.059 146.399 147.157 146.631L140.625 147.761Z" fill="#DEC5BB"/>
<path d="M310.451 189.408L307.883 213.764C307.605 214.962 307.795 216.221 308.414 217.284C309.12 218.02 310.059 218.489 311.071 218.613C317.714 220.052 324.555 218.834 331.154 220.14C332.527 220.278 333.799 220.926 334.718 221.956C335.3 222.932 335.592 224.053 335.56 225.189C335.83 229.879 335.6 234.585 334.873 239.226C334.689 239.838 334.636 240.48 334.716 241.114C334.796 241.747 335.008 242.356 335.338 242.902C336.49 244.275 338.66 243.743 340.387 244.208C343.819 245.138 344.638 249.567 344.815 253.065L346.498 291.193C346.424 293.392 346.848 295.58 347.738 297.592C348.197 298.589 348.968 299.41 349.935 299.929C350.902 300.448 352.011 300.638 353.096 300.47C356.196 299.695 356.904 295.688 356.993 292.522C357.937 255.398 355.983 218.256 351.148 181.437C351.104 180.328 350.752 179.255 350.129 178.337C349.131 177.377 347.833 176.791 346.453 176.676L320.902 171.694C319.15 171.206 317.31 171.122 315.522 171.451C314.196 171.915 313.013 172.713 312.086 173.768C311.159 174.823 310.52 176.099 310.23 177.473C309.687 180.233 309.642 183.067 310.097 185.843" fill="#DEC5BB"/>
<path d="M276.332 384.411C277.16 377.023 279.626 369.913 283.55 363.598C288.027 355.372 294.942 348.736 303.345 344.6C304.995 343.834 306.747 343.312 308.548 343.05C309.256 343.05 310.12 343.759 310.917 344.18C310.363 344.866 309.943 345.995 309.278 346.15C298.208 348.851 291.41 356.557 285.875 365.724C282.367 371.524 279.95 377.918 278.745 384.588C278.597 384.979 278.528 385.395 278.543 385.813C278.558 386.231 278.656 386.641 278.831 387.02C279.006 387.4 279.255 387.74 279.564 388.022C279.872 388.304 280.234 388.522 280.627 388.662C287.779 392.493 294.731 396.7 301.795 400.707C303.721 401.792 305.802 402.656 308.016 403.719C306.555 386.005 320.15 364.174 340.476 362.447C338.461 361.118 336.734 359.9 334.941 358.815C328.475 354.963 321.988 351.154 315.5 347.324L314.991 347.08C313.95 346.571 313.175 345.84 313.751 344.622C314.327 343.405 315.434 343.515 316.452 344.047C320.637 346.261 324.911 348.364 328.94 350.689C333.612 353.523 338.107 356.623 342.602 359.723C349.045 364.151 350.75 369.133 348.646 376.573C346.321 384.076 341.668 390.644 335.361 395.327C329.703 400.239 323.071 403.898 315.899 406.066C313.464 406.826 310.894 407.051 308.364 406.726C305.834 406.402 303.405 405.534 301.241 404.184C293.912 399.6 286.65 394.928 279.254 390.5C272.612 386.492 265.77 382.662 258.928 378.942C236.012 366.454 212.962 354.165 190.09 341.589C180.824 336.199 171.122 331.6 161.084 327.839C159.213 327.106 157.387 326.263 155.615 325.315C154.729 324.894 153.932 324.23 152.98 325.315C152.852 325.389 152.707 325.428 152.559 325.428C152.412 325.428 152.267 325.389 152.139 325.315C152.067 325.186 152.029 325.041 152.029 324.894C152.029 324.747 152.067 324.602 152.139 324.473C152.847 323.366 153.556 322.259 154.353 321.219C164.738 308.712 176.183 297.126 188.562 286.589C191.253 284.446 194.111 282.521 197.108 280.832C198.2 280.184 199.423 279.789 200.687 279.674C201.951 279.559 203.225 279.728 204.415 280.168C218.603 284.224 232.056 290.509 244.27 298.789C260.257 309.683 276.664 320.001 292.827 330.651C296.348 332.865 299.47 335.721 302.924 338.29C303.234 338.533 303.632 338.799 303.743 339.109C303.942 339.796 304.274 340.748 303.987 341.19C303.699 341.633 302.636 341.567 301.95 341.523C301.448 341.383 300.99 341.116 300.621 340.748C282.908 327.285 263.866 315.772 245.267 303.55C238.381 299.121 231.694 294.095 224.011 290.951C216.881 288.028 209.619 285.371 202.356 282.758C201.182 282.432 199.928 282.575 198.858 283.157C195.596 284.898 192.511 286.952 189.647 289.29C178.136 299.329 167.216 310.027 156.943 321.329C156.545 321.772 156.213 322.237 155.703 322.857C157.453 323.588 159.003 324.341 160.641 324.872C171.408 328.581 181.79 333.327 191.64 339.043C206.474 347.213 221.575 354.941 236.499 362.978C248.787 369.62 261.009 376.263 273.254 383.038C274.117 383.415 275.07 383.813 276.332 384.411ZM310.098 403.409C310.416 403.498 310.742 403.557 311.072 403.586L312.423 403.409C321.279 401.97 328.143 397.054 334.564 391.519C340.135 387.129 344.079 381.004 345.768 374.115C346.267 372.478 346.291 370.732 345.836 369.082C345.381 367.431 344.467 365.944 343.2 364.794C342.245 365.256 341.261 365.655 340.255 365.989C338.006 366.26 335.784 366.719 333.612 367.362C328.795 369.308 324.474 372.306 320.965 376.137C317.455 379.968 314.847 384.535 313.33 389.504C311.891 393.932 311.161 398.648 310.098 403.409Z" fill="#534741"/>
<path d="M131.722 165.163C131.722 159.716 131.722 154.27 131.722 148.823C131.722 146.741 132.032 144.682 132.143 142.601C132.079 141.672 132.375 140.755 132.968 140.038C133.561 139.321 134.407 138.86 135.331 138.748C139.936 138.128 144.586 137.575 149.236 137.309C151.768 137.239 154.3 137.447 156.786 137.929C159.798 138.438 160.462 139.08 160.572 142.18C160.75 147.76 160.772 153.362 160.572 158.941C160.44 163.791 159.952 168.662 159.642 173.511C159.664 174.24 159.413 174.95 158.938 175.503C158.463 176.056 157.798 176.412 157.074 176.5C153.944 176.996 150.787 177.307 147.62 177.43C143.789 177.43 139.959 177.231 136.128 177.12C135.752 177.12 135.265 177.231 134.999 177.12C134.292 176.579 133.619 175.995 132.984 175.371C133.67 174.839 134.379 173.865 135.065 173.865C139.671 173.865 144.276 174.264 148.882 174.485C149.457 174.485 150.033 174.64 150.631 174.662C156.188 174.662 156.875 174.197 157.118 168.706C157.45 160.536 157.65 152.343 157.783 144.173C157.783 140.94 157.65 140.564 154.417 140.542C148.594 140.542 142.793 140.896 136.969 141.162C135.353 141.162 134.6 142.202 134.534 143.841C134.224 152.299 133.87 160.735 133.515 169.171C133.516 170.207 133.449 171.243 133.316 172.271C133.316 172.736 132.74 173.134 132.43 173.555C132.187 173.156 131.744 172.758 131.7 172.337C131.478 170.743 131.39 169.127 131.235 167.245C127.138 168.861 123.862 171.164 122.599 175.393C122.366 176.713 122.617 178.074 123.308 179.223C124.225 181.006 125.567 182.535 127.216 183.674C128.866 184.814 130.771 185.529 132.762 185.755C139.804 186.301 146.869 186.493 153.93 186.331C156.429 186.001 158.854 185.252 161.104 184.117C162.109 183.649 163.012 182.986 163.761 182.168C166.174 179.799 165.975 177.74 163.23 175.703C162.632 175.26 162.388 174.352 161.99 173.644C162.831 173.644 163.805 173.378 164.469 173.644C165.48 174.249 166.332 175.087 166.952 176.089C167.572 177.09 167.943 178.226 168.034 179.4C169.872 187.482 168.61 195.608 168.964 203.756C169.429 214.606 169.496 225.455 169.717 236.305C169.983 247.995 170.16 259.686 170.492 271.377C170.669 277.045 171.112 282.669 171.422 288.316C171.547 288.817 171.547 289.342 171.422 289.843C171.134 290.33 170.536 291.039 170.138 290.995C169.814 290.936 169.508 290.801 169.246 290.6C168.984 290.4 168.774 290.141 168.632 289.843C168.347 288.577 168.184 287.287 168.145 285.991C166.418 260.683 166.639 235.33 166.462 210C166.462 201.144 166.462 192.287 166.462 183.187C166.883 183.187 166.706 183.187 166.684 183.187C164.483 185.556 161.767 187.388 158.745 188.54C155.724 189.692 152.477 190.133 149.258 189.829C144.32 189.652 139.383 189.453 134.467 189.076C130.264 188.721 126.349 186.791 123.507 183.674C123.352 183.519 123.131 183.386 122.71 183.032C122.976 186.242 123.308 189.165 123.463 192.11C123.861 199.439 124.282 206.768 124.481 214.096C124.991 233.67 125.301 253.221 125.832 272.772C125.987 277.776 126.673 282.736 127.05 287.74C127.025 288.364 127.24 288.975 127.653 289.444C128.065 289.914 128.642 290.208 129.264 290.264C132.118 290.832 135.013 291.173 137.921 291.283C143.568 291.283 149.214 290.552 154.86 290.419C158.757 290.419 162.654 290.663 166.529 290.818C166.921 290.785 167.314 290.87 167.658 291.061C168.199 291.603 168.695 292.188 169.141 292.81C168.521 293.253 167.923 294.028 167.259 294.072C165.599 294.072 163.894 293.807 162.211 293.829C154.306 293.962 146.38 294.316 138.475 294.316C135.173 294.26 131.882 293.905 128.644 293.253C127.396 293.109 126.247 292.501 125.427 291.549C124.607 290.598 124.174 289.372 124.216 288.116C123.751 279.88 122.843 271.665 122.577 263.428C121.869 240.179 121.426 216.931 120.828 193.66C120.695 189.364 120.319 185.091 119.987 180.818C119.625 177.629 120.381 174.414 122.125 171.721C123.87 169.028 126.494 167.023 129.552 166.049L131.722 165.163Z" fill="#534741"/>
<path d="M356.242 182.08C338.661 189.851 321.656 186.929 304.607 180.375C304.43 183.209 304.164 186.287 304.032 189.386C303.633 199.328 303.057 209.314 302.924 219.189C302.725 234.866 302.924 250.52 302.792 266.196C302.792 268.521 302.792 270.868 302.792 273.193C302.604 273.98 302.282 274.729 301.84 275.407C301.406 274.724 301.085 273.977 300.887 273.193C300.755 270.979 300.887 268.632 300.887 266.373C300.622 249.081 300.002 231.788 300.179 214.495C300.312 202.694 301.53 190.892 302.238 179.068C302.371 178.187 302.272 177.287 301.95 176.456C298.607 170.411 299.426 167.045 305.227 162.285C307.705 160.638 310.374 159.3 313.176 158.299C313.644 158.171 314.133 158.134 314.615 158.189L314.837 158.654L312.224 160.336C310.082 161.544 308.045 162.929 306.135 164.477C301.707 168.684 301.707 172.404 306.268 176.611C307.528 177.809 309.042 178.71 310.696 179.246C322.387 182.677 334.211 184.958 346.411 182.168C350.199 181.597 353.779 180.073 356.817 177.74C357.376 177.293 357.81 176.71 358.077 176.047C358.345 175.384 358.437 174.663 358.345 173.954C358.423 171.512 357.559 169.134 355.932 167.311C355.489 166.89 355.688 165.828 355.6 165.097C356.352 165.097 357.526 164.809 357.814 165.097C359.068 166.469 360.059 168.06 360.736 169.791C361.621 172.694 361.519 175.808 360.449 178.648C360.093 180.853 360.146 183.104 360.604 185.29C361.091 192.619 361.755 199.926 362.021 207.255C362.464 219.211 362.508 231.168 362.973 243.124C363.371 253.575 364.168 264.004 364.722 274.455C364.899 277.953 365.01 281.474 364.877 284.972C364.545 292.943 364.124 300.936 363.593 308.907C363.569 310.609 362.949 312.248 361.84 313.539C360.731 314.83 359.204 315.691 357.526 315.971C355.312 316.546 353.098 317.144 350.883 317.587C349.672 317.808 348.437 317.875 347.208 317.786C346.721 317.786 346.256 317.122 345.769 316.768C346.211 316.369 346.61 315.771 347.119 315.616C350.308 314.731 353.54 313.956 356.729 313.092C359.917 312.229 360.626 311.409 360.869 308.332C362.271 294.348 362.375 280.265 361.179 266.263C360.05 255.568 359.873 244.741 359.674 233.958C359.386 216.798 358.124 199.704 356.485 182.611C356.413 182.43 356.332 182.252 356.242 182.08V182.08Z" fill="#534741"/>
<path d="M257.686 302.333C258.382 301.973 259.128 301.719 259.9 301.581C263.73 301.581 267.561 301.581 271.369 301.581C274.292 301.581 277.215 301.824 280.226 301.824C283.237 301.824 283.237 301.824 283.613 298.835C284.161 295.24 284.523 291.618 284.698 287.986C285.186 267.327 285.805 246.669 285.85 225.989C285.85 212.438 284.676 198.865 284.543 185.292C284.543 172.694 285.097 160.095 285.252 147.496C285.252 142.36 284.942 137.223 284.787 132.108C284.732 131.46 284.732 130.808 284.787 130.159C284.911 129.752 285.106 129.37 285.363 129.03C285.739 129.318 286.381 129.539 286.47 129.894C287.041 131.953 287.441 134.057 287.665 136.182C288.064 142.094 288.44 147.984 288.507 153.895C288.507 166.56 288.33 179.248 288.507 191.913C288.684 201.854 289.592 211.84 289.769 221.693C290.012 233.384 289.946 245.075 289.769 256.766C289.769 264.958 289.237 273.129 288.772 281.299C288.396 287.654 287.887 294.008 287.134 300.319C286.647 304.614 285.451 305.566 281.2 305.699C273.855 305.912 266.51 305.242 259.324 303.706C258.8 303.54 258.295 303.317 257.818 303.042L257.686 302.333Z" fill="#534741"/>
<path d="M281.688 122.452C281.429 122.185 281.147 121.941 280.847 121.721C271.082 115.3 262.093 107.728 251.73 102.17C248.188 100.266 244.822 98.0518 241.257 96.1698C240.131 95.7008 238.901 95.5403 237.692 95.7047C222.835 96.679 207.956 97.3211 193.254 99.7124C190.929 100.089 188.604 100.332 186.279 100.51C185.704 100.51 185.084 100.045 184.486 99.7788C184.959 99.3725 185.498 99.0505 186.08 98.8267C200.445 96.0764 214.996 94.4038 229.611 93.8227C232.534 93.6898 235.456 93.4242 238.467 93.1585C240.217 93.0257 241.962 93.4774 243.427 94.4426C249.383 98.0075 255.627 101.085 261.406 104.982C269.289 110.141 276.905 115.743 284.522 121.256C285.589 122.217 286.553 123.286 287.401 124.445C277.877 126.208 268.179 126.847 258.506 126.349C245.752 125.928 233.021 125.618 220.4 127.921C217.781 128.411 215.215 129.153 212.739 130.135C211.778 130.61 210.697 130.786 209.635 130.64C208.573 130.494 207.58 130.032 206.783 129.316L191.106 115.832C185.716 111.04 179.769 106.914 173.393 103.543C172.948 103.251 172.526 102.926 172.131 102.569C173.415 101.218 174.677 101.993 175.607 102.569C179.888 104.729 184.029 107.154 188.006 109.831C193.21 113.617 198.015 117.913 202.974 122.009C203.926 122.784 204.901 123.559 205.786 124.423C206.769 125.588 208.112 126.394 209.602 126.715C211.093 127.035 212.648 126.852 214.023 126.194C221.803 123.818 229.915 122.712 238.047 122.917C245.774 122.784 253.546 123.094 261.251 123.16C268.071 123.16 274.891 123.16 281.688 123.16V122.452Z" fill="#534741"/>
<path d="M176.54 209.093C175.787 187.15 175.1 165.186 174.215 143.243C173.728 131.685 172.886 120.15 172.244 108.614C172.35 107.979 172.576 107.371 172.908 106.82C173.373 107.285 174.17 107.684 174.259 108.215C175.011 112.037 175.565 115.895 175.92 119.773C177.093 138.771 178.377 157.746 179.108 176.766C179.839 195.786 179.883 214.717 180.348 233.67C180.614 244.741 181.057 256.011 181.544 267.193C181.751 270.037 182.113 272.868 182.629 275.673C182.827 276.33 183.202 276.92 183.714 277.378C184.156 277.821 184.909 277.998 185.286 278.507C185.657 279.21 185.946 279.953 186.149 280.721C185.33 280.898 184.356 281.474 183.758 281.186C182.611 280.803 181.581 280.135 180.764 279.244C179.946 278.353 179.369 277.269 179.086 276.094C178.327 272.441 177.802 268.743 177.514 265.023C176.85 246.402 176.363 227.758 175.809 209.115L176.54 209.093Z" fill="#534741"/>
<path d="M312.09 263.207C312.666 264.868 313.064 266.351 313.662 267.635C313.958 268.29 314.059 269.016 313.953 269.727C313.847 270.438 313.538 271.103 313.064 271.643C311.288 274.042 309.381 276.34 307.352 278.529C306.515 279.294 305.844 280.224 305.383 281.261C304.922 282.297 304.68 283.417 304.673 284.552C304.673 288.448 304.673 292.345 304.673 296.242C304.673 305.476 304.562 314.709 304.673 323.92C304.673 329.189 304.119 329.344 310.275 330.695C317.635 332.079 325.189 332.079 332.549 330.695C334.414 330.211 336.225 329.536 337.952 328.68L338.062 328.016C337.279 327.335 336.399 326.775 335.45 326.355C331.984 325.314 328.436 324.574 324.844 324.141C320.061 323.809 315.234 324.141 310.43 324.141C309.685 324.103 308.945 324.007 308.215 323.853V323.322C308.756 322.955 309.345 322.665 309.965 322.458C318.622 320.798 327.257 320.244 335.738 323.388C337.066 324.02 338.34 324.76 339.546 325.602C339.966 325.857 340.421 326.051 340.896 326.178C342.491 326.577 343 327.662 341.782 328.813C340.453 330.233 338.868 331.389 337.11 332.223C334.787 333.207 332.333 333.849 329.826 334.127C322.87 335.16 315.787 334.957 308.902 333.529C308.149 333.33 307.418 333.064 306.688 332.821C305.32 332.47 304.116 331.656 303.28 330.517C302.445 329.379 302.029 327.987 302.104 326.577C302.104 319.691 301.994 312.804 301.949 305.918C301.949 301.313 301.949 296.685 301.949 292.08C301.949 289.423 301.949 286.766 302.126 284.109C302.213 281.476 303.325 278.981 305.226 277.156C307.108 275.296 308.747 273.193 310.452 271.156C311.02 270.586 311.399 269.856 311.537 269.064C311.676 268.272 311.567 267.456 311.227 266.727C310.972 266.126 310.919 265.458 311.075 264.824C311.23 264.19 311.586 263.623 312.09 263.207Z" fill="#534741"/>
<path d="M208.866 137.022C209.001 138.006 209.083 138.996 209.11 139.989C208.911 155.599 208.401 171.186 208.534 186.774C208.667 203.846 209.243 220.939 209.885 238.01C210.328 250.077 211.191 262.122 211.811 274.19C211.811 275.341 212.342 277.112 210.571 277.135C208.8 277.157 209.066 275.474 208.999 274.256C207.981 256.277 206.785 238.32 206.076 220.363C205.611 208.34 205.811 196.317 205.833 184.294C205.833 177.224 205.966 170.146 206.231 163.06C206.541 155.333 207.051 147.561 207.516 139.9C207.628 138.915 207.806 137.939 208.047 136.978L208.866 137.022Z" fill="#534741"/>
<path d="M336.313 134.388C339.524 134.941 342.956 135.451 346.499 136.159C347.479 136.31 348.383 136.777 349.074 137.488C349.765 138.199 350.206 139.116 350.329 140.1C351.55 148.449 351.854 156.905 351.237 165.32C351.172 166.326 350.78 167.285 350.121 168.048C349.461 168.811 348.57 169.338 347.583 169.549C341.162 171.763 334.763 170.789 328.364 169.549C326.15 169.128 323.737 168.84 321.434 168.42C319.131 167.999 318.755 167.224 318.821 164.921C319.021 157.194 319.153 149.422 319.308 141.761C319.331 141.629 319.331 141.494 319.308 141.362C319.308 140.344 318.622 138.86 319.065 138.395C320.132 137.285 321.503 136.515 323.006 136.181C327.28 135.428 331.597 134.986 336.313 134.388ZM321.323 144.551C321.269 144.678 321.231 144.812 321.213 144.949C321.213 151.437 321.213 157.924 321.323 164.412C321.416 164.708 321.576 164.978 321.792 165.201C322.007 165.424 322.271 165.593 322.563 165.696C324.778 166.139 326.992 166.405 329.206 166.759C334.786 167.667 340.277 168.685 345.967 166.98C347.783 166.427 348.624 165.63 348.624 163.792L348.491 145.702C348.491 145.503 348.292 145.281 348.181 145.016C339.125 149.776 330.269 147.075 321.323 144.551V144.551ZM348.181 142.735C348.004 139.547 347.694 139.148 344.771 138.484C338.044 137.224 331.132 137.33 324.445 138.794C323.05 139.06 321.146 139.259 321.013 141.008C320.881 142.757 322.984 143.222 324.357 143.576C328.364 144.351 332.439 144.883 336.49 145.414C339.613 145.735 342.762 145.158 345.569 143.754L348.181 142.735Z" fill="#534741"/>
<path d="M311.645 260.461C308.9 258.047 309.608 250.475 312.398 249.213C313.627 248.838 314.9 248.63 316.184 248.593C316.605 244.165 317.026 239.581 317.469 234.998C317.69 232.784 317.845 230.57 318.221 228.223C318.374 227.049 318.93 225.965 319.795 225.157C320.659 224.348 321.778 223.867 322.96 223.794C324.201 223.683 325.441 224.02 326.456 224.742C327.471 225.465 328.194 226.526 328.495 227.735C328.976 229.918 329.243 232.143 329.292 234.378C329.425 238.806 329.292 243.345 329.292 247.84C329.292 248.482 329.292 249.124 329.292 249.833C330.51 250.01 331.661 250.121 332.791 250.386C333.972 250.535 335.054 251.124 335.822 252.035C336.589 252.946 336.985 254.112 336.931 255.302C337.042 257.182 337.042 259.068 336.931 260.948C336.843 262.104 336.352 263.192 335.542 264.022C334.732 264.852 333.656 265.371 332.503 265.487C331.861 265.487 331.152 264.823 330.466 264.469C330.864 263.826 331.174 262.764 331.706 262.631C333.743 262.166 334.252 260.904 334.097 259.066C334.075 258.742 334.075 258.416 334.097 258.092C334.097 253.398 334.097 253.243 329.337 252.8C327.322 252.623 326.702 251.892 326.702 249.744C326.702 243.832 326.702 237.921 326.591 232.031C326.539 230.859 326.376 229.695 326.104 228.555C325.979 227.836 325.583 227.192 324.998 226.756C324.414 226.319 323.684 226.123 322.96 226.208C322.26 226.201 321.587 226.469 321.082 226.953C320.577 227.437 320.282 228.099 320.259 228.798C319.904 231.765 319.661 234.754 319.373 237.655C319.063 241.153 318.819 244.652 318.443 248.15C318.133 251.073 317.601 251.493 314.745 251.139C313.394 250.984 312.531 251.449 312.332 252.756C312.066 254.682 311.955 256.608 311.756 258.557C311.889 259.044 311.778 259.597 311.645 260.461Z" fill="#534741"/>
<path d="M343.307 303.416C343.307 309.218 343.307 315.004 343.307 320.776C343.377 321.288 343.3 321.81 343.086 322.281C342.754 322.746 342.089 323.278 341.624 323.233C341.159 323.189 340.561 322.525 340.407 322.016C340.31 321.281 340.31 320.536 340.407 319.801C340.03 307.646 339.676 295.445 339.233 283.378C339.102 281.756 338.828 280.148 338.414 278.573C338.25 277.61 337.824 276.711 337.184 275.973C336.543 275.235 335.713 274.687 334.783 274.389C333.366 274.063 332.114 273.236 331.26 272.059C330.405 270.883 330.005 269.438 330.133 267.99C330.133 267.392 330.686 266.838 330.974 266.263C331.395 266.683 332.059 267.06 332.192 267.569C332.458 268.579 332.997 269.496 333.751 270.219C334.506 270.942 335.445 271.443 336.465 271.665C337.675 271.979 338.772 272.627 339.629 273.536C340.487 274.444 341.071 275.576 341.314 276.802C342.109 280.208 342.62 283.674 342.842 287.164C343.108 292.545 342.842 297.947 342.842 303.328L343.307 303.416Z" fill="#534741"/>
<path d="M313.482 260.927C314.209 260.764 314.953 260.697 315.697 260.728C319.062 261.281 322.339 261.879 325.815 262.566C326.324 262.566 326.723 263.296 327.166 263.695C326.723 264.093 326.192 264.868 325.882 264.802C321.874 263.85 317.911 262.787 313.925 261.724C313.77 261.724 313.748 261.525 313.482 260.927Z" fill="#534741"/>
<path d="M320.238 270.184C319.174 274.046 316.833 277.433 313.596 279.793C312.087 280.641 310.792 281.822 309.809 283.247C309.345 284.339 309.111 285.515 309.123 286.701C308.606 295.883 308.503 305.086 308.813 314.312C308.786 315.006 308.923 315.696 309.212 316.327C309.629 316.831 310.16 317.229 310.76 317.491C311.359 317.752 312.012 317.869 312.666 317.833C317.31 318.159 321.978 317.771 326.504 316.681C328.384 316.399 330.114 315.494 331.42 314.113C332.393 312.601 332.908 310.84 332.903 309.042C333.464 301.749 333.36 294.419 332.593 287.144C332.514 285.755 332.169 284.395 331.575 283.137C330.453 281.647 329.1 280.346 327.567 279.284C326.792 278.754 326.175 278.022 325.785 277.167C325.395 276.313 325.246 275.368 325.353 274.435L320.238 270.184Z" fill="#DEC5BB"/>
</svg>
