<svg width="223" height="222" viewBox="0 0 223 222" fill="none" xmlns="http://www.w3.org/2000/svg">
<path d="M3.61148 126.114C3.55148 126.424 3.32148 126.284 3.27148 125.464L3.56149 124.844L3.61148 126.114Z" fill="#016C55"/>
<path d="M2.36133 120.704C2.43133 119.704 2.62132 118.594 3.01132 119.184C2.77132 120.184 2.93132 120.384 2.63132 121.444C2.63132 122.264 2.89132 122.854 3.01132 122.704C2.95132 123.004 3.23132 123.964 3.01132 124.424C2.59814 123.203 2.44155 121.909 2.55133 120.624C2.48133 120.324 2.42133 120.634 2.36133 120.704Z" fill="#016C55"/>
<path d="M22.4807 45.0137L22.2207 45.4537C22.2974 45.3014 22.3843 45.1544 22.4807 45.0137V45.0137Z" fill="#016C55"/>
<path d="M60.0512 12.7734C59.7212 12.9534 59.5612 12.9934 59.5312 12.9734C59.8613 12.8234 60.1212 12.7034 60.0512 12.7734Z" fill="#016C55"/>
<path d="M67.6414 8.80371L67.1914 9.03369C67.3258 8.92978 67.4784 8.85181 67.6414 8.80371V8.80371Z" fill="#016C55"/>
<path d="M22.4805 45.0134L23.1705 43.8634C23.3205 43.8534 22.8405 44.4634 22.4805 45.0134Z" fill="#016C55"/>
<path d="M2.29999 109.634C2.30069 109.875 2.28399 110.115 2.25 110.354V109.684L2.29999 109.634Z" fill="#016C55"/>
<path d="M10.9305 63.7139L10.7605 64.0839C10.6744 64.172 10.5807 64.2523 10.4805 64.3239L10.9305 63.7139Z" fill="#016C55"/>
<path d="M4.83008 79.4839C4.92008 79.1039 5.24006 79.0639 5.41006 78.9639C5.21312 79.1774 5.06925 79.4344 4.99008 79.7139C4.93008 79.7039 4.88008 79.6339 4.83008 79.4839Z" fill="#016C55"/>
<path d="M16.6211 53.024C16.6055 52.9616 16.6055 52.8963 16.6211 52.834C16.6211 52.834 16.6411 52.924 16.6211 53.024Z" fill="#016C55"/>
<path d="M97.9211 218.454C97.9211 218.454 97.7911 218.434 97.9211 218.454V218.454Z" fill="#016C55"/>
<path d="M78.6914 215.934L78.9414 216.024C78.9562 216.083 78.9562 216.145 78.9414 216.204L78.6914 215.934Z" fill="#016C55"/>
<path d="M82.341 3.33398H82.281C81.871 3.41398 82.051 3.37398 82.341 3.33398Z" fill="#016C55"/>
<path d="M206.51 54.5339C205.43 53.2839 207.58 56.9739 206.05 55.0339C206.27 55.1739 205.3 52.8839 206.51 54.5339Z" fill="#016C55"/>
<path d="M2.24077 109.214V108.534C2.23077 108.844 2.24077 109.054 2.24077 109.214Z" fill="#016C55"/>
<path d="M206.051 55.034L205.891 54.834L206.051 55.034Z" fill="#016C55"/>
<path d="M118.241 0.103516C118.125 0.162887 118 0.203389 117.871 0.223511C117.871 0.223511 117.961 0.153516 118.241 0.103516Z" fill="#016C55"/>
<path d="M91.4707 1.92419L92.1207 1.78418C91.9066 1.8418 91.6896 1.88855 91.4707 1.92419V1.92419Z" fill="#016C55"/>
<path d="M132.051 2.23423C132.388 2.23846 132.724 2.2821 133.051 2.36423H132.901C132.627 2.27071 132.34 2.22669 132.051 2.23423V2.23423Z" fill="#016C55"/>
<path d="M146.052 5.96417H145.782L145.352 5.78418L146.052 5.96417Z" fill="#016C55"/>
<path d="M140.73 215.114C140.522 215.227 140.333 215.372 140.17 215.544C140.32 215.284 138.28 215.724 140.73 215.114Z" fill="#016C55"/>
<path d="M2.13086 109.634C2.22114 109.51 2.26052 109.356 2.24088 109.204C2.24088 109.374 2.24088 109.524 2.24088 109.684C2.24088 109.844 2.17086 109.744 2.13086 109.634Z" fill="#016C55"/>
<path d="M132.16 4.63379C132.902 4.74287 133.637 4.89648 134.36 5.09378C133.74 5.03378 132.96 4.76379 132.16 4.63379Z" fill="#016C55"/>
<path d="M212.751 148.144L212.541 148.614C212.587 148.447 212.658 148.289 212.751 148.144V148.144Z" fill="#016C55"/>
<path d="M140.84 6.84375C141.272 6.85036 141.704 6.89048 142.13 6.96375C142.213 6.99983 142.29 7.04694 142.36 7.10376L140.84 6.84375Z" fill="#016C55"/>
<path d="M126.37 218.044C124.26 218.204 125.7 218.224 123.83 218.774C122.7 218.624 121.75 219.214 121.46 218.664C120.81 219.044 120.98 218.904 119.67 219.224C120.24 218.914 117.13 219.064 117.2 218.724C116.67 219.134 119.48 219.084 117.76 219.584C116.55 219.384 114.33 219.394 114.14 218.984C113.24 219.182 112.328 219.325 111.41 219.414C111.626 219.393 111.844 219.417 112.05 219.484C109.53 219.334 105.79 219.414 104.4 218.834C104.87 219.504 99.0603 218.504 100.93 219.214C99.9084 219.082 98.9029 218.844 97.9303 218.504C97.9903 219.004 95.3203 218.304 94.1503 218.394C92.9938 218.021 91.8189 217.707 90.6304 217.454C91.1204 217.604 91.3703 217.734 91.1703 217.824C89.9403 217.404 90.1703 217.634 89.0903 217.644C87.4103 217.154 89.4803 217.364 88.4903 216.924C86.9903 216.714 88.2103 217.174 87.9003 217.304L85.8003 216.304C85.4724 216.219 85.1283 216.219 84.8003 216.304C84.045 215.876 83.2057 215.616 82.3403 215.544L84.2004 216.044L83.4203 216.104L81.2903 215.204C78.0303 214.614 78.8603 215.384 78.9503 215.944L80.2303 216.414C80.1403 216.564 79.2303 216.414 78.6403 216.234C78.0503 216.054 80.5803 217.394 82.0203 217.834C85.9303 218.834 83.0203 217.494 85.6703 218.024C86.8003 218.384 87.9304 218.734 89.0704 219.024L89.1503 218.864C89.5083 218.857 89.8588 218.966 90.1503 219.174C89.9603 218.894 93.0004 219.614 94.4404 219.784L93.8904 219.914C97.8104 221.034 100.25 220.184 103.38 220.684L105.6 221.184L106.08 220.884C107.271 221.25 108.518 221.396 109.76 221.314C113.54 220.974 117.43 220.714 121.37 220.604C125.27 220.234 129.18 219.604 132.94 218.884C132.702 219.008 132.446 219.093 132.18 219.134C134.88 218.227 137.654 217.557 140.47 217.134C141.749 216.961 143.017 216.72 144.27 216.414C145.61 215.991 146.917 215.469 148.18 214.854H147.75C150.67 213.854 147.32 214.854 149.36 213.944C149.88 214.144 153.18 212.944 154.84 212.334C154.55 212.334 154.02 212.674 153.51 212.774C153.825 212.429 154.215 212.162 154.65 211.994C156.65 211.664 160.46 209.764 163.37 208.554C163.62 208.214 165.79 206.554 166.78 205.474C167.11 205.384 167.7 205.254 168.26 205.144C168.986 204.551 169.813 204.094 170.7 203.794L168.51 205.104H168.59C168.454 205.157 168.323 205.224 168.2 205.304C167.61 205.644 167.29 205.814 167.42 205.714C166.42 206.584 167.6 205.844 167.68 206.144C168.55 205.604 170.43 204.584 170.51 204.264C171.04 203.944 171.37 203.704 171.89 203.334C172.28 203.16 172.651 202.949 173 202.704C172.939 202.738 172.876 202.768 172.81 202.794C172.863 202.714 172.92 202.638 172.98 202.564C174.719 201.256 176.565 200.098 178.5 199.104C176.95 199.784 178.58 198.504 178.41 198.284C178.58 198.184 176.94 199.434 174.9 200.964C175.03 200.824 175.12 200.704 175.1 200.594C176.69 199.034 178.27 198.544 180.71 196.464C180.53 196.564 180.16 196.754 180.22 196.584C180.833 196.036 181.533 195.593 182.29 195.274C182.993 194.15 183.898 193.167 184.96 192.374C185.821 191.965 186.598 191.399 187.25 190.704L186.49 191.124C188.04 189.484 188.08 190.124 189.31 188.704C188.85 189.294 188.63 189.174 189.02 188.774C189.962 187.759 191.034 186.874 192.21 186.144H191.78C193.26 184.784 196.1 182.214 195.78 181.914C195.94 182.914 198.78 178.684 199.78 177.254C199.41 177.724 199.23 177.734 199.15 177.744C200.399 176.369 201.555 174.912 202.61 173.384C203.61 171.834 204.46 170.124 205.46 168.554L205.37 167.814C206.37 166.154 207.47 166.124 208.57 164.284L207.98 164.834C208.77 163.574 209.466 162.257 210.06 160.894L211.69 157.324L211.39 157.254C211.99 156.324 212.58 155.094 213.19 154.154C213.659 152.041 214.356 149.986 215.27 148.024C215.78 146.754 216.27 145.414 216.76 144.114C217.129 142.879 217.363 141.609 217.46 140.324L218.08 140.194C218.51 138.494 219.18 136.344 218.96 135.454L218.88 135.834C218.41 135.904 219.3 134.134 219.48 133.064C219.66 132.254 220.06 131.494 220.03 132.214C220.25 129.884 220.68 127.034 221.03 124.384C221.406 122.221 221.484 120.018 221.26 117.834C221.47 115.524 221.74 113.484 221.97 111.404C222.095 109.155 222.072 106.9 221.9 104.654L221.84 104.714C221.68 103.024 221.35 99.6339 220.84 99.7139C220.47 96.1439 220.72 93.7139 219.84 89.5139V90.5139C219.6 89.4439 219.52 87.6739 219.41 87.2439C219.3 86.8139 219.29 87.1739 219.24 87.2439C218.97 86.4631 218.809 85.6488 218.76 84.8239L218.68 85.1839C218.044 83.1878 217.533 81.1538 217.15 79.0939C216.92 77.9294 216.606 76.783 216.21 75.6639C215.85 74.5439 215.47 73.4339 215.07 72.3939C215.3 73.1839 214.99 72.8339 214.8 72.5539C214.583 71.119 214.215 69.7111 213.7 68.3539C213.19 66.7139 212.32 65.2239 212.01 64.3539L212.32 65.4739C211.06 62.0639 210.46 62.8939 209.22 59.5239L210.38 61.2339C209.67 59.9539 209.22 58.7939 209.58 58.9939C208.64 57.5739 209.23 58.9439 207.87 56.7639C207.68 56.7639 208.74 58.3939 208.13 57.7639L206.05 55.0339C205.702 54.5785 205.401 54.0894 205.15 53.5739C205.87 53.4939 203.66 51.0539 205.15 52.2339C204.484 51.1539 203.844 50.1239 203.23 49.1439C202.57 48.1439 201.81 47.3239 201.13 46.4339C199.75 44.6939 198.44 43.0039 197.27 41.1839C195.76 40.1839 191.55 34.8339 191.27 35.6839C190.45 34.7839 189.74 33.9539 189.14 33.1639C188.54 32.3739 187.94 31.7639 187.51 31.1639C187.924 31.5019 188.302 31.8805 188.64 32.2939C187.608 31.0772 186.481 29.9436 185.27 28.9039C186.27 30.1139 188.12 31.9639 188.82 33.0339C187.26 31.4939 185.19 29.2039 184.35 28.2939L183.65 28.2339C182.48 26.7539 182.28 27.4539 181.17 25.8839L181.52 26.024C178.84 23.934 179.02 23.6339 176.52 21.6639V21.8839C175.61 21.2839 174.52 19.9839 173.47 19.6639L175.11 20.9239C174.77 21.0339 173.43 20.2039 172.78 19.9239C171.01 18.6439 172.41 19.0939 171.5 18.4739C170.95 18.4739 171.32 18.5439 171.82 19.1639C169.701 17.8309 167.664 16.3716 165.72 14.7939C165.61 14.7939 165.72 14.8939 165.72 14.8939C163.998 13.6475 162.147 12.5882 160.2 11.7339L160.63 11.9839C158.63 11.4639 156.03 9.33394 155.36 9.79394C154.44 9.49394 157.36 10.7139 155.81 10.3639C153.01 9.24395 154.24 8.94393 151.67 8.19393C152.02 8.30393 151.89 8.30392 151.99 8.40392C150.18 7.72392 147.8 6.77394 145.82 5.98394C145.032 5.84067 144.254 5.64692 143.49 5.40392C142.59 5.19392 141.62 4.92393 140.63 4.66393C138.831 4.09998 136.977 3.72463 135.1 3.54394C136.1 3.54394 134.43 3.09394 134.45 2.98394C134.47 2.87394 134.55 3.07393 134.45 3.09393C133.907 2.95637 133.39 2.73 132.92 2.42394C131.99 2.48394 129.92 1.75394 129.37 1.79394C129.37 1.64394 128.5 1.55392 127.53 1.40392C129.45 1.86392 128.11 1.81394 128.94 2.17394C126.05 1.81394 125.72 1.03392 122.69 0.683923C122.121 0.704565 121.554 0.754656 120.99 0.833948C120.69 0.393948 117.85 0.42395 117.93 0.27395C117.4 0.37395 116.63 0.413936 116.73 0.633936C115.52 0.473936 113.73 0.633928 113.2 0.313928L114.41 0.26394C110.65 0.12394 108.41 -0.206077 105.48 0.183923L105.57 0.813928C103.67 1.17393 101.99 0.613947 100.36 1.11395C100.92 0.873947 101.05 0.853938 99.8103 0.823938C100.908 0.72731 102.009 0.693916 103.11 0.723932L100.49 0.473932H104.49C102.75 0.303932 102.87 0.363938 103.57 0.073938C101.08 0.013938 100.92 0.413929 98.5704 0.533929C97.7404 0.743929 98.6303 0.843947 97.6803 1.11395C95.5803 1.17395 93.8203 2.11392 92.2903 1.99392C91.8203 2.12392 93.1403 1.89395 93.0503 2.05395C92.1568 2.21687 91.2468 2.27057 90.3403 2.21392L91.4703 1.98394C90.426 1.98476 89.3888 2.15703 88.4003 2.49392C87.2803 2.60392 86.5903 2.44393 87.7803 2.16393C87.2903 2.23393 86.2704 2.65393 86.6904 2.75393C83.7504 3.45393 85.1203 2.42395 82.3403 3.39395C82.5403 3.39395 82.7603 3.34395 82.6603 3.39395C82.0737 3.5762 81.4758 3.71983 80.8703 3.82394C83.4003 3.27394 80.2303 4.50392 83.1603 3.68392C82.9303 4.10392 80.9203 4.25392 80.0303 4.68392C78.5603 4.94392 79.7403 4.27394 78.9803 4.35394C78.9803 4.44394 78.4403 4.64394 77.7603 4.92394L78.3603 4.45394C77.7703 4.64394 77.2004 4.84395 76.4704 5.02395L77.6803 4.72393C75.9468 5.54153 74.147 6.2106 72.3003 6.72393C72.9303 6.62393 74.1703 6.42395 72.7303 7.05395C70.2303 7.72395 72.2003 7.33392 70.9003 7.99392C68.5403 8.99392 70.3203 7.74393 66.9003 9.41393C66.5303 9.58393 66.8103 9.29393 67.1603 9.06393C64.8603 10.2339 63.4703 10.5939 61.2903 11.8339C62.2303 11.2639 62.9903 10.8939 61.5803 11.3639C62.2203 11.2439 59.8703 12.5339 59.0803 13.1139H58.8003C58.1903 13.6139 58.9403 13.2639 59.5103 12.9939C59.5103 12.9939 59.6503 12.8239 60.0603 12.6039C61.1903 12.1039 61.0603 12.7539 59.3503 13.7339C57.4703 14.6339 57.6003 14.1739 57.8503 13.8939C55.4803 15.3639 55.2703 14.6439 53.0303 16.1139C52.5003 16.4339 51.1103 18.0339 49.5303 19.1139C48.5303 19.4239 51.4103 17.5739 50.3403 17.9939C48.1103 20.4239 44.5003 21.2239 41.5403 24.3739L42.1803 24.3139C41.4303 24.9539 40.7003 25.5839 39.8203 26.2539L40.8203 25.1839C40.0003 25.7439 38.2503 27.2639 39.0203 26.9939C37.6422 27.8014 36.4361 28.8717 35.4704 30.1439C37.0204 28.5939 35.4703 30.0839 36.7303 29.1439C35.8485 30.1743 34.8708 31.1185 33.8103 31.9639C34.0903 31.8639 33.6204 32.5839 33.1904 33.0139C31.5822 34.2684 30.0986 35.6748 28.7603 37.2139L28.8403 37.2839C26.5003 39.8639 24.2903 42.9139 22.1103 45.6539L22.0004 45.7939L22.1403 45.5539C22.5703 44.3739 20.3603 47.6339 19.6203 48.4239C19.5859 48.7515 19.4613 49.063 19.2603 49.3239C18.9803 49.1839 18.3203 50.3239 17.9303 50.6739C17.4103 51.7739 18.3303 50.7539 17.2703 52.5239C16.8403 53.1939 16.6503 53.1939 16.5903 53.0439C16.3057 53.9462 15.9234 54.8147 15.4503 55.6339C15.6783 55.3143 15.8854 54.9803 16.0703 54.6339C16.2803 54.6339 15.8603 55.2039 16.0703 55.2939C15.6003 56.1339 15.6203 55.4739 15.0703 56.5739L15.8603 55.7339C15.6512 56.1339 15.4034 56.5124 15.1203 56.8639C15.5503 56.2539 15.7203 56.4739 15.7903 56.6339C14.2103 58.9539 14.9303 56.7739 14.6103 56.7639C13.3603 59.1139 12.2403 60.8939 11.3303 62.7639L11.7603 62.5339C11.5001 63.1035 11.1637 63.635 10.7603 64.1139L10.0903 65.5139C10.5703 64.7539 10.7803 64.5139 11.0303 64.5139C10.2603 65.9739 9.32033 68.0339 8.82033 68.2939H8.90034C8.27034 70.4139 6.76034 74.7639 6.90034 74.6639C6.4299 75.7586 6.016 76.8768 5.66032 78.0139C5.38032 79.0139 5.15033 79.7539 4.95033 79.7339C4.50033 81.0739 4.50033 83.3939 3.76033 84.2439C3.58033 85.9239 3.84033 84.3539 4.26033 83.9239C4.10033 85.6039 2.96035 87.0839 3.44035 87.7539C2.95035 89.6339 3.44034 87.2839 3.05034 87.8739C3.49034 88.3939 2.53034 91.4639 2.52034 93.3139C2.17034 94.0839 2.52033 92.4739 2.07033 93.8239C2.22033 93.7139 2.12033 94.4539 2.07033 94.8239L1.68034 95.1339L2.18034 97.0739C1.43034 99.7439 1.69033 96.4439 1.07033 100.074L1.12035 99.8539C1.34035 100.854 0.530329 102.464 0.790329 105.144C0.730329 104.234 0.950329 104.774 1.04033 104.484L0.910324 105.964C0.910324 105.834 0.910332 105.764 0.980332 105.904C1.25033 107.204 0.860335 107.034 1.14034 108.534C1.14034 107.534 1.43033 107.804 1.57033 108.254L1.30034 110.424L1.70033 109.524C1.83033 111.614 1.38035 114.774 2.09035 115.794V114.794C2.21035 114.864 2.57033 115.454 2.48033 116.874C2.48033 117.324 2.23035 117.634 2.19035 117.034L2.39034 118.034C2.54462 116.444 2.54462 114.844 2.39034 113.254C2.32034 113.774 2.33034 115.044 2.11034 114.674C2.11034 113.214 2.18035 111.804 2.19035 110.394C2.11971 110.812 2.00231 111.222 1.84035 111.614C1.58035 110.044 1.97034 110.424 1.93034 109.224C1.79034 108.774 1.70035 108.474 1.62035 108.774C1.6894 107.354 1.65933 105.93 1.53035 104.514C1.53035 104.514 1.31034 106.304 1.15034 105.324C1.36034 102.384 1.76035 101.874 2.37035 98.7839C3.37035 95.2439 3.21034 91.7839 3.96034 89.3739C4.12034 89.2639 3.88033 91.2639 4.23033 89.6739C3.92033 89.9039 4.23034 88.6739 4.14034 88.5739C4.78034 86.9039 4.68034 86.0239 5.21034 84.8639C5.05034 85.1239 5.21034 84.1039 5.30034 83.4239C4.93034 83.5339 5.68035 81.4939 4.56035 83.8839C5.74035 81.4339 5.64033 79.2639 6.92033 77.5939C6.86829 77.8178 6.83156 78.0451 6.81035 78.2739C7.00035 77.4039 7.31034 76.5639 7.55034 75.7039V75.8139C7.90548 74.9078 8.14405 73.9602 8.26033 72.9939C7.95033 73.6039 7.62035 74.5039 7.31035 75.1139C7.53035 73.6739 8.56035 72.4039 9.12035 70.9239C8.88035 70.9239 8.48035 72.4439 8.37035 71.9239C8.74189 70.9452 9.16582 69.9871 9.64034 69.0539L9.47035 69.1439C10.2704 66.4439 10.4704 68.3939 10.9404 66.3639C10.9404 66.4539 11.1703 66.2539 11.1803 66.3639C11.3803 65.6239 11.9303 63.9239 11.0203 65.4439C11.3825 64.6592 11.832 63.9179 12.3603 63.2339C12.1903 64.0539 12.0103 64.2339 12.1003 64.5839L13.9003 61.1239C14.0803 60.7239 13.6503 61.3539 13.4103 61.8439C14.0003 59.5739 15.4104 57.6839 16.7204 55.6839C18.0983 53.6202 19.37 51.4874 20.5303 49.2939C20.3603 49.8839 20.9003 49.0939 21.3103 48.7739C22.2303 47.3739 23.7503 45.3539 24.5503 44.0139L24.1503 44.3239C26.7303 41.2739 28.8103 39.4439 30.4203 37.3239C30.5503 37.2639 30.2503 37.1939 29.9103 37.5239C31.3103 36.1839 32.4303 34.0239 33.2103 34.0339L32.7303 34.5739C35.5647 31.7181 38.6283 29.0994 41.8903 26.7439C42.3903 25.8939 40.1003 28.1539 40.4603 27.3339C41.4603 26.4139 42.5904 25.5639 43.7204 24.6939C44.8504 23.8239 45.9803 22.9339 47.2103 22.0939C47.0305 22.1918 46.8433 22.2754 46.6503 22.3439C48.9903 20.4939 46.5703 22.8039 48.6503 21.3439C48.4403 21.2839 48.5103 21.1839 49.1603 20.6439L49.9203 20.4539C50.0003 20.3439 49.8703 20.1839 49.5103 20.3239C50.6403 20.0039 53.2604 17.8939 54.1904 17.7339C54.3504 17.5439 53.6303 17.5839 53.8703 17.3039C54.7569 16.7268 55.7106 16.26 56.7103 15.9139V15.9139C57.4103 15.2539 59.4404 14.1739 59.0004 14.3739C61.0504 13.1039 59.4203 14.3739 61.1103 13.6539L59.5103 14.7139L62.5103 13.1439L61.2603 13.6439C62.5303 12.7139 64.1803 12.4539 65.8003 11.6439L65.1303 12.1539L67.0603 11.4339C67.0603 10.9839 69.4203 10.2939 68.2103 10.3139C71.6003 8.46393 74.2103 8.36392 77.4803 7.24392C76.9103 7.43392 77.1004 7.24392 76.9704 7.24392C78.355 6.68183 79.8132 6.32151 81.3003 6.17394C81.0203 6.09394 80.5503 6.17394 80.5103 6.10394C82.8303 5.49394 81.9903 5.97393 84.5903 5.47393C83.8403 5.47393 84.0403 5.34394 84.7303 5.13394C84.6603 5.30394 85.2803 5.26393 85.7303 5.19393C83.6003 4.87393 88.5403 4.19394 87.1803 3.85394C87.3603 3.99394 91.4403 3.38393 90.3503 3.97393L89.6304 4.07394C89.6304 4.32394 90.5204 3.96393 91.2604 3.91393C90.9912 3.94449 90.7195 3.94449 90.4504 3.91393C92.3304 3.76393 94.2303 3.51394 96.1803 3.23394C98.187 2.86507 100.22 2.66104 102.26 2.62393C101.89 2.55393 100.18 2.48393 101.26 2.37393C104.865 2.16069 108.481 2.19746 112.08 2.48394C112.27 1.85394 107.53 2.48393 107.36 2.03393L110.72 1.97393C111.85 2.03393 112.99 2.15393 114.15 2.25393L121.27 2.94393C123.07 2.32393 125.98 3.94393 129.08 3.78393C128.76 3.99393 130.24 4.31393 131.88 4.56393C131.35 4.27393 133.08 4.56393 132.63 4.31393C134 4.88393 138.03 6.03394 137.99 5.51394C138.24 6.06394 140.99 6.27395 142.1 6.89395C143.94 7.15395 145.77 8.28395 147.99 8.89395C147.13 8.89395 150.09 9.81392 150.84 10.2139C150.62 10.1139 150.18 9.91393 150.31 9.91393C151.564 10.3045 152.779 10.81 153.94 11.4239C154.52 11.5839 153.94 11.1139 154.79 11.5039C156.068 12.4957 157.505 13.2633 159.04 13.774C158.74 13.6277 158.469 13.4277 158.24 13.1839C159.58 13.9239 160.97 14.6339 162.38 15.3339L166.44 17.7839L170.51 20.274C171.834 21.1375 173.088 22.1038 174.26 23.1639L173.58 22.1639C176.98 24.1639 175.29 24.1639 177.79 25.9839C179.537 27.2139 181.207 28.5497 182.79 29.9839L187.69 34.1739L192.09 38.8339C193.565 40.3252 194.903 41.9449 196.09 43.6739C196.37 44.2239 195.78 43.4639 195.6 43.4839C196.06 44.0239 196.42 44.0039 196.86 44.9039L196.58 44.8439C198.185 46.6364 199.646 48.5524 200.95 50.5739C201.947 52.5034 203.176 54.3035 204.61 55.9339C206.438 58.9462 208 62.1114 209.28 65.3939C210.03 66.5739 208.88 63.8039 209.73 65.4739C210.269 66.7222 210.743 67.9972 211.15 69.2939L211.1 69.0739C211.86 72.9639 215.49 78.5439 216.1 83.5439V83.3339C216.2 83.1939 216.62 84.1339 216.77 84.9239C216.77 85.2139 216.57 84.7039 216.34 84.2739C216.79 86.4239 217.06 87.7339 217.34 88.9339C217.62 90.1339 217.65 91.2439 217.88 92.9339C217.88 91.4139 218.26 94.2739 218.55 94.3839C218.55 95.3139 218.19 93.9039 218.35 95.9439C218.53 97.3739 218.86 98.7339 219.04 100.054C219.22 101.374 219.31 102.634 219.43 103.834C219.23 104.834 219.37 106.094 219.07 106.174C219.07 107.804 219.16 109.064 219.21 110.434C219.26 111.804 219.04 113.244 218.93 115.234L219.03 115.344C218.59 116.394 219.03 118.824 218.79 119.554C218.93 119.454 219 119.034 219.1 119.144L218.89 120.954C219.05 120.104 219.43 119.644 219.4 121.154C219.05 122.684 219.24 120.704 218.98 121.444C219.09 121.614 219.21 121.784 219.3 121.944C219.08 123.114 218.63 123.394 218.75 121.944C218.11 125.894 217.46 129.804 216.82 133.304L217.14 132.984C216.545 134.836 216.097 136.732 215.8 138.654C215.72 138.654 215.48 139.134 215.49 138.804C214.6 141.004 215.79 139.154 214.82 141.554C214.963 141.047 215.182 140.565 215.47 140.124C215.025 141.67 214.474 143.184 213.82 144.654C213.629 146.332 213.173 147.969 212.47 149.504C212.36 149.504 212.47 148.944 212.6 148.444L212.07 149.644V150.734L211.07 152.374L211.37 152.534C210.79 153.804 210.09 154.104 209.66 155.134C208.826 157.094 208.095 159.097 207.47 161.134C207.09 161.134 206.68 162.254 206.01 163.304C205.598 164.196 205.04 165.014 204.36 165.724C203.351 167.856 202.198 169.917 200.91 171.894C199.35 173.984 197.66 176.174 196.14 178.324L196.45 178.014C196.061 178.73 195.538 179.365 194.91 179.884C194.19 180.357 193.549 180.941 193.01 181.614L193.49 181.224C192.304 182.761 191.025 184.223 189.66 185.604C188.91 186.344 188.2 187.134 187.45 187.754L185.39 189.354C185.9 189.024 185.81 189.354 185.1 190.004C184.42 190.444 185.37 189.154 184.22 190.354C184.56 190.124 184.42 190.444 184.14 190.704L182.72 191.574L180.36 193.924C179.509 194.712 178.618 195.456 177.69 196.154C175.84 197.604 173.95 199.034 172.12 200.294C171.53 200.874 172.12 200.614 172.29 200.584C169.29 202.464 166.13 203.984 163.4 205.584L163.31 206.064C161.95 206.844 162.19 206.064 160.53 207.214C160.14 207.444 161.74 206.654 162.32 206.554C159.63 208.154 160.49 207.034 157.83 208.364H158.71C157.755 209.07 156.598 209.448 155.41 209.444C152.34 210.444 153.68 211.184 149.41 212.364C148.69 212.364 149.52 212.004 148.8 212.054C145.95 213.184 145.53 213.054 142.65 214.164C141.24 215.164 144.17 213.774 142.65 214.774C143.393 214.526 144.121 214.236 144.83 213.904C143.03 214.904 146.58 213.344 146.4 213.804C145.559 214.152 144.693 214.439 143.81 214.664C142.81 214.934 141.74 215.034 140.81 215.244C140.89 215.504 143.05 214.694 142.27 215.244L141.27 215.394C141.604 215.451 141.946 215.431 142.27 215.334C141.98 215.674 141.11 215.644 140.16 215.884C140.06 215.754 140.06 215.544 140.31 215.274C140.251 215.344 140.175 215.399 140.09 215.434C138.09 215.544 134.9 216.674 133.19 216.784C133.47 216.784 133.25 216.884 133.19 216.964C132.02 217.204 130.72 216.964 129.13 217.144C128.3 217.484 129.73 217.674 127.13 217.954C126.64 217.794 127.71 217.224 125.59 217.564C125.46 217.834 127.34 217.734 126.37 218.044ZM171.48 201.414C171.784 201.246 172.071 201.052 172.34 200.834V200.834C172.067 201.046 171.78 201.24 171.48 201.414ZM174.76 199.324C174.42 199.584 174.22 199.594 174.28 199.414L175.75 198.304C175.3 198.754 174.53 199.404 174.76 199.324V199.324ZM169.13 205.154H169.22L170.22 204.564C170.22 204.664 170.01 204.834 169.4 205.154C169.311 205.169 169.22 205.169 169.13 205.154Z" fill="#016C55"/>
<path d="M168.192 205.444L167.932 205.564L168.252 205.294H168.502L168.192 205.444Z" fill="#016C55"/>
<path d="M22.1706 45.5341L22.2206 45.4541C22.1869 45.5107 22.1601 45.5711 22.1406 45.6341C22.1538 45.6018 22.1639 45.5683 22.1706 45.5341V45.5341Z" fill="#016C55"/>
<path d="M210.991 152.514L211.061 152.544L210.871 152.864L210.991 152.514Z" fill="#016C55"/>
<path d="M11.2104 66.3438C11.217 66.4505 11.1964 66.5572 11.1504 66.6537C11.1577 66.5484 11.1779 66.4443 11.2104 66.3438V66.3438Z" fill="#016C55"/>
<path d="M7.58139 75.7842L7.19141 77.1642C7.34141 76.5642 7.47139 76.1342 7.58139 75.7842Z" fill="#016C55"/>
<path d="M5.53134 83.2842C5.48675 83.3368 5.4276 83.3751 5.36133 83.3942V83.3942L5.53134 83.2842Z" fill="#016C55"/>
<path d="M91.291 3.99398H91.591C92.301 3.92398 91.821 3.96398 91.291 3.99398Z" fill="#016C55"/>
<path d="M56.7207 15.9442C57.0907 15.8042 57.4507 15.6641 57.8307 15.4941C57.2707 15.8341 56.8207 16.0842 56.7207 15.9442Z" fill="#016C55"/>
<path d="M59.3201 14.6338C58.849 14.9542 58.3504 15.2319 57.8301 15.4638C58.31 15.1581 58.8075 14.8809 59.3201 14.6338Z" fill="#016C55"/>
<path d="M2.85156 116.563L2.90158 116.943C2.90158 116.943 2.90156 116.943 2.85156 116.993V116.563Z" fill="#016C55"/>
<path d="M2.85061 116.994V117.404C2.82584 117.269 2.82584 117.13 2.85061 116.994V116.994Z" fill="#016C55"/>
<path d="M2.86133 118.293V117.403C2.90665 117.698 2.90665 117.998 2.86133 118.293Z" fill="#016C55"/>
<path d="M2.05078 106.304L2.16077 106.184C2.15247 106.21 2.13832 106.235 2.11929 106.256C2.10027 106.277 2.07686 106.293 2.05078 106.304Z" fill="#016C55"/>
<path d="M2.13074 103.204C2.13074 103.944 2.31074 105.054 2.26074 106.084L2.18076 106.184C2.32076 105.694 1.91074 103.894 2.13074 103.204Z" fill="#016C55"/>
<path d="M2.6214 90.0635L2.26138 92.6935C2.26138 92.2135 2.17141 91.5835 1.94141 92.7735C2.15141 89.4135 2.0514 93.4935 2.6214 90.0635Z" fill="#016C55"/>
<path d="M4.31012 82.0143C3.89012 83.3843 4.1501 81.9543 4.0701 82.0143C4.4101 81.1643 4.49012 80.9643 4.31012 82.0143Z" fill="#016C55"/>
<path d="M34.1904 31.4434L33.9004 31.3434C34.7204 30.6334 33.9804 31.4134 34.1904 31.4434Z" fill="#016C55"/>
<path d="M43.6311 25.084L42.9211 25.884L42.3711 26.014L43.6311 25.084Z" fill="#016C55"/>
<path d="M47.8516 19.544L47.4316 19.784L49.0116 18.834L47.8516 19.544Z" fill="#016C55"/>
<path d="M143.702 4.83376L143.282 5.08376C142.572 4.83376 142.532 4.43376 143.702 4.83376Z" fill="#016C55"/>
<path d="M181.34 25.6338C182.07 26.0142 182.711 26.546 183.22 27.1938C182.48 26.5038 181.68 25.9538 181.34 25.6338Z" fill="#016C55"/>
<path d="M217.352 142.713L217.682 141.903L217.182 143.473L217.352 142.713Z" fill="#016C55"/>
<path d="M18.7698 188.384C18.8498 188.564 18.6598 188.594 18.3398 188.174V187.724L18.7698 188.384Z" fill="#016C55"/>
<path d="M16.1506 186.004C15.8706 185.434 15.6106 184.744 16.0406 184.914C16.2206 185.544 16.3906 185.594 16.5706 186.284C16.8706 186.714 17.2106 186.944 17.2306 186.814C17.2906 186.994 17.7906 187.394 17.8506 187.714C17.1731 187.241 16.6261 186.605 16.2606 185.864C16.1006 185.744 16.1606 185.934 16.1506 186.004Z" fill="#016C55"/>
<path d="M19.1406 152.334C19.1945 152.205 19.2347 152.071 19.2606 151.934C19.2431 152.073 19.2026 152.208 19.1406 152.334V152.334Z" fill="#016C55"/>
<path d="M6.68024 128.833C6.58024 129.063 6.52023 129.153 6.49023 129.153C6.60023 128.943 6.69024 128.773 6.68024 128.833Z" fill="#016C55"/>
<path d="M11.5102 127.124L11.2402 126.934C11.3401 126.982 11.4314 127.046 11.5102 127.124Z" fill="#016C55"/>
<path d="M19.1399 152.334C18.979 152.674 18.7075 152.949 18.3699 153.114C18.2499 153.074 18.9099 152.844 19.1399 152.334Z" fill="#016C55"/>
<path d="M12.6001 179.924C12.6801 180.084 12.7401 180.214 12.7901 180.344L12.5801 179.974L12.6001 179.924Z" fill="#016C55"/>
<path d="M8.33047 151.394L8.19049 151.624L7.98047 151.764L8.33047 151.394Z" fill="#016C55"/>
<path d="M5.70117 161.994C5.70117 161.754 5.92118 161.664 6.02118 161.574C5.92541 161.739 5.87053 161.924 5.86118 162.114C5.86118 162.114 5.76117 162.084 5.70117 161.994Z" fill="#016C55"/>
<path d="M10.6113 178.324L10.7313 178.604L10.6113 178.324Z" fill="#016C55"/>
<path d="M15.1914 147.484C15.2236 147.449 15.2654 147.425 15.3114 147.414C15.3114 147.414 15.2614 147.464 15.1914 147.484Z" fill="#016C55"/>
<path d="M61.6602 207.063C61.6602 207.063 61.7302 207.103 61.6602 207.063V207.063Z" fill="#016C55"/>
<path d="M73.3317 211.734L73.1717 211.664C73.1667 211.621 73.1667 211.577 73.1717 211.534L73.3317 211.734Z" fill="#016C55"/>
<path d="M18.4405 134.564C18.2905 134.284 18.3705 134.414 18.4405 134.564V134.564Z" fill="#016C55"/>
<path d="M38.9812 150.634C38.6512 149.634 38.9812 152.354 38.5312 150.824C38.6313 150.934 38.6912 149.334 38.9812 150.634Z" fill="#016C55"/>
<path d="M12.4409 179.704L12.2109 179.334L12.4409 179.704Z" fill="#016C55"/>
<path d="M14.7014 135.114C14.7115 135.207 14.7115 135.301 14.7014 135.394C14.7014 135.394 14.6614 135.314 14.7014 135.114Z" fill="#016C55"/>
<path d="M20.7305 140.104L20.9105 140.494C20.8305 140.334 20.7805 140.214 20.7305 140.104Z" fill="#016C55"/>
<path d="M23.1504 132.414C23.3528 132.511 23.5385 132.639 23.7004 132.794H23.6104C23.4894 132.633 23.3317 132.502 23.1504 132.414V132.414Z" fill="#016C55"/>
<path d="M29.1506 139.634L29.0306 139.504C29.0306 139.424 28.9406 139.324 28.8906 139.244L29.1506 139.634Z" fill="#016C55"/>
<path d="M42.4004 186.563C42.5238 186.662 42.6623 186.739 42.8104 186.793C42.6004 186.773 43.3504 187.903 42.4004 186.563Z" fill="#016C55"/>
<path d="M12.4914 179.984C12.5106 179.888 12.4927 179.788 12.4414 179.704L12.5814 179.974C12.5814 179.974 12.5414 180.034 12.4914 179.984Z" fill="#016C55"/>
<path d="M22.4199 134.063C22.7721 134.317 23.1062 134.594 23.4199 134.893C23.1006 134.6 22.7669 134.323 22.4199 134.063V134.063Z" fill="#016C55"/>
<path d="M2.94009 159.184L2.83008 158.884C2.88102 158.978 2.91809 159.079 2.94009 159.184V159.184Z" fill="#016C55"/>
<path d="M26.0508 138.094C26.2649 138.258 26.4566 138.45 26.6208 138.664C26.6451 138.714 26.6619 138.768 26.6708 138.824L26.0508 138.094Z" fill="#016C55"/>
<path d="M48.1605 194.163C48.9605 195.303 48.4906 194.473 49.4406 195.313C49.7406 196.013 50.4406 196.313 50.2206 196.663C50.7106 196.823 50.5606 196.793 51.2806 197.323C50.8506 197.183 52.2805 198.663 52.0205 198.793C52.4805 198.853 51.2805 197.483 52.2705 198.103C52.6505 198.803 53.6105 199.883 53.4805 200.183C53.9824 200.52 54.4602 200.891 54.9105 201.293C54.8048 201.195 54.7198 201.076 54.6605 200.943C55.6605 202.253 57.6605 203.703 58.1605 204.573C58.1605 204.053 60.9705 206.713 60.2305 205.573C60.7447 206.014 61.2291 206.489 61.6805 206.993C61.8305 206.653 63.1405 207.913 63.9105 208.113C64.5067 208.646 65.1492 209.125 65.8305 209.543C65.5505 209.353 65.4405 209.193 65.5805 209.173C66.2605 209.713 66.1405 209.483 66.8605 209.673C67.8605 210.293 66.5506 209.813 67.0906 210.273C68.0106 210.663 67.3205 210.143 67.5505 210.103C67.9305 210.443 68.3305 210.753 68.7405 211.103C68.9499 211.187 69.1773 211.214 69.4006 211.183C69.8298 211.569 70.361 211.822 70.9305 211.913C70.5205 211.773 70.1406 211.593 69.7506 211.423H70.2705C70.7005 211.703 71.1605 211.913 71.6005 212.163C73.7405 212.653 73.2005 212.063 73.1705 211.653L72.3805 211.303C72.4505 211.193 73.0305 211.303 73.3805 211.443C73.7305 211.583 72.2205 210.593 71.3805 210.243C69.0705 209.243 70.7305 210.443 69.1105 209.833C68.4505 209.493 67.8405 209.043 67.2105 208.653L67.1305 208.743C66.9113 208.69 66.7191 208.559 66.5906 208.373C66.5906 208.633 64.9905 207.503 64.2005 207.063H64.5606C62.6506 205.403 61.0306 205.163 59.5606 203.753L58.6505 202.633H58.2705C57.8407 201.978 57.3109 201.395 56.7005 200.903C52.8905 197.993 49.9206 193.733 46.7506 190.093C46.8206 190.093 46.9205 190.213 47.1405 190.423C44.0505 187.423 43.6605 184.743 41.0705 181.883L41.1505 182.143C40.0705 180.523 41.2305 182.413 40.3005 181.333C40.3905 180.943 39.0705 179.163 38.5105 178.173C38.6402 178.444 38.7837 178.708 38.9406 178.963C38.7706 178.823 38.5805 178.853 38.3005 178.363C37.9305 177.093 36.3505 174.913 35.3005 173.233C35.0105 173.143 33.8605 171.853 33.0805 171.323C33.0205 171.123 32.9205 170.743 32.8205 170.383C32.3889 169.968 32.0483 169.468 31.8205 168.914L32.8205 170.213C32.8684 170.294 32.9219 170.371 32.9805 170.443C33.2305 170.793 33.3506 170.984 33.2806 170.914C33.9006 171.444 33.3705 170.783 33.5805 170.693C33.1805 170.173 32.4205 169.053 32.2005 169.033C31.9813 168.752 31.7477 168.481 31.5006 168.223C31.3683 167.99 31.2107 167.772 31.0306 167.573L31.0906 167.693C31.0332 167.671 30.9794 167.641 30.9305 167.603C30.0653 166.514 29.2894 165.357 28.6105 164.143C29.0705 165.143 28.2005 164.143 28.0405 164.283C27.9805 164.173 28.8206 165.174 29.8706 166.414C29.7806 166.344 29.6905 166.293 29.6105 166.323C28.5505 165.383 28.2405 164.324 26.7605 162.914C26.8305 163.034 26.9706 163.253 26.8406 163.233C26.454 162.873 26.1562 162.428 25.9706 161.933C25.2334 161.516 24.5846 160.959 24.0606 160.293C23.7934 159.745 23.4114 159.261 22.9406 158.873L23.2206 159.353C22.1206 158.423 22.5206 158.353 21.5606 157.653C21.9506 157.933 21.8806 158.073 21.5606 157.853C20.9151 157.238 20.3475 156.547 19.8706 155.793V156.093C19.0006 155.093 17.1905 153.473 16.9905 153.703C17.6105 153.543 14.8305 151.873 13.8505 151.293C14.1805 151.513 14.1906 151.633 14.1906 151.693C12.2178 150.108 9.79758 149.181 7.27054 149.043L6.85053 149.373C5.55053 149.373 5.01056 148.803 3.50056 149.373C3.70056 149.373 3.90055 149.313 4.09055 149.303C3.0219 149.647 2.06751 150.277 1.33054 151.123C0.673421 151.899 0.231966 152.833 0.0505428 153.833H0.290533C0.0465127 154.66 -0.0449682 155.524 0.020544 156.383C0.493586 157.771 1.03764 159.132 1.65055 160.463C2.42324 162.037 3.50075 163.44 4.82053 164.593L4.61054 165.003C5.34054 165.873 6.27054 167.003 6.86054 167.153L6.69056 166.973C6.84056 166.673 7.47055 167.783 8.03055 168.213C8.38055 168.613 8.63056 169.123 8.25056 168.863C10.5406 170.803 14.0105 173.613 15.8605 174.213C18.3805 175.793 20.4305 177.163 23.8605 177.523C25.0305 177.653 27.3605 177.243 27.2605 176.863C29.5805 176.423 31.3806 176.093 33.4406 173.943C33.2612 174.068 33.0741 174.182 32.8805 174.283C33.4005 173.753 34.2906 172.973 34.5006 172.763C34.7106 172.553 34.5005 172.663 34.4205 172.653C34.7336 172.198 35.0885 171.773 35.4805 171.383L35.2506 171.503C36.3606 169.503 38.1805 166.413 38.6805 163.503C38.5205 164.013 38.4605 163.713 38.4505 163.503C39.1205 162.423 39.4505 159.183 39.5405 157.993L39.3405 158.723C39.7305 156.393 39.0405 156.723 39.2705 154.383L39.5205 155.713C39.4405 154.763 39.5205 153.963 39.6705 154.183C39.4705 153.083 39.3806 154.053 39.2206 152.403C39.1106 152.343 39.2205 153.603 39.0505 153.063C38.8905 152.313 38.7505 151.573 38.5405 150.833C38.4565 150.479 38.4063 150.117 38.3905 149.753C38.9005 149.873 38.1005 147.883 38.7605 148.933C38.1635 146.074 37.3444 143.266 36.3106 140.533C35.7178 139.665 35.2057 138.745 34.7806 137.783C34.2206 136.713 33.6405 135.863 33.4605 136.143C32.6505 134.853 32.0105 133.823 31.4105 132.883C31.6788 133.117 31.9054 133.394 32.0805 133.703C31.5098 132.787 30.7494 132.002 29.8505 131.403C30.7823 132.185 31.5504 133.144 32.1105 134.223C31.3121 132.989 30.2668 131.934 29.0405 131.123C28.8634 131.166 28.6922 131.23 28.5306 131.313C28.3176 131.24 28.0878 131.23 27.8694 131.285C27.651 131.34 27.4533 131.458 27.3005 131.623L26.4706 132.523L26.5205 132.253C26.1365 132.941 25.8472 133.678 25.6605 134.443C25.4374 135.119 25.3095 135.823 25.2806 136.533L25.4005 136.443C25.2698 137.261 25.3004 138.097 25.4905 138.903C25.4905 138.453 25.4306 138.003 25.4406 137.553C25.6506 137.693 25.7905 138.703 25.9505 139.153C26.0505 140.553 25.6606 139.683 25.7206 140.393C25.9706 140.663 25.8406 140.393 25.9706 139.933C26.0806 141.513 26.5806 143.583 26.7806 144.733C26.8406 144.783 26.8505 144.733 26.8505 144.733L27.7005 146.903C27.8966 147.341 28.1204 147.765 28.3706 148.173C28.6006 148.623 28.8805 148.693 29.1005 148.893L28.8305 148.603C28.9948 148.701 29.1489 148.815 29.2905 148.943C29.4605 149.023 29.7406 148.843 29.9406 148.793C30.3907 148.613 30.7746 148.299 31.0405 147.893C31.6005 147.103 31.5705 145.973 31.3205 145.943C31.2605 145.633 31.3205 145.943 31.2405 146.363C31.1605 146.783 31.1106 147.034 31.0606 146.414C31.0112 145.848 31.0112 145.279 31.0606 144.713C31.1442 144.212 31.0333 143.697 30.7506 143.273C30.8606 143.483 30.8006 143.423 30.7506 143.523C30.2477 142.189 29.6633 140.886 29.0006 139.623C27.8506 138.363 26.2105 135.233 24.4605 134.203C25.0105 134.523 24.2606 133.714 24.3106 133.664C24.3606 133.614 24.3106 133.753 24.2506 133.723C23.9722 133.473 23.7447 133.17 23.5805 132.833C23.0605 132.543 21.8405 131.573 21.3505 131.613C21.3505 131.513 20.7106 131.353 19.9706 131.393C21.4306 131.563 20.4306 131.653 21.0306 131.873C20.2998 131.757 19.5577 131.73 18.8205 131.793C18.0294 131.86 17.2849 132.195 16.7105 132.743C16.4476 133.053 16.2165 133.388 16.0205 133.743C15.8305 133.743 15.4305 134.143 15.1605 134.603C15.0123 134.905 14.8488 135.199 14.6705 135.483C14.6705 135.873 14.5605 136.423 14.7305 136.383C14.6024 137.184 14.5356 137.993 14.5306 138.803C14.4718 138.529 14.4284 138.252 14.4005 137.973C14.6405 140.553 15.0805 142.153 16.3305 143.683L16.6906 143.383C17.1506 143.833 17.4305 144.323 17.8305 144.773C18.0241 145.031 18.2799 145.234 18.5737 145.365C18.8676 145.497 19.1899 145.551 19.5105 145.523C19.2705 145.593 19.1105 145.573 19.1405 145.613C19.4056 145.737 19.7016 145.779 19.9905 145.733C19.5558 145.845 19.095 145.788 18.7005 145.573C18.2957 145.356 17.9279 145.076 17.6105 144.743C18.0124 145.341 18.6158 145.774 19.3106 145.963C18.7988 145.829 18.3187 145.595 17.8982 145.274C17.4777 144.953 17.125 144.552 16.8605 144.093C17.4605 145.093 17.5306 145.093 17.0006 144.773C17.4061 145.361 18.0037 145.789 18.6906 145.983C19.1126 146.111 19.5603 146.129 19.9909 146.034C20.4216 145.94 20.8208 145.736 21.1505 145.443C21.6205 144.673 21.0405 145.293 21.3505 144.443C21.9905 142.733 20.8305 141.613 20.8005 140.683C20.6505 140.403 20.9705 141.203 20.8005 141.173C20.5778 140.631 20.4232 140.064 20.3406 139.483L20.6605 140.164C20.5019 139.507 20.2564 138.875 19.9305 138.283C19.7205 137.583 19.7406 137.103 20.0906 137.823C19.9806 137.513 19.5505 136.943 19.5405 137.223C18.6105 135.503 19.5406 136.143 18.3706 134.623C18.4306 134.743 18.4805 134.873 18.4205 134.823C18.1405 134.433 17.9305 134.103 17.7605 133.823C18.6505 135.253 17.1806 133.583 18.3106 135.203C17.9906 135.203 17.4605 133.973 17.0205 133.513C16.5905 132.643 17.2505 133.223 17.0205 132.753C16.9605 132.813 16.7405 132.473 16.4105 132.133L16.8505 132.383C16.6005 132.053 16.3506 131.753 16.0906 131.383L16.5306 132.063C15.9606 131.383 14.8905 130.563 13.9505 129.353C14.1805 129.693 14.6305 130.353 13.8505 129.713C12.7605 128.453 13.5206 129.493 12.7506 128.943C11.5606 127.813 12.7506 128.473 10.8406 127.003C10.6306 126.843 10.8905 126.903 11.1305 127.003C10.814 126.747 10.4798 126.513 10.1305 126.303C9.69519 126.052 9.18729 125.957 8.69056 126.033C8.20795 126.148 7.78234 126.432 7.49055 126.833C7.24804 127.159 7.04966 127.516 6.90055 127.893C7.19055 127.243 7.49055 126.663 6.90055 127.523C7.23055 127.223 6.34056 128.803 6.25056 129.453L6.10053 129.573C6.03053 130.103 6.24055 129.573 6.43055 129.223C6.43055 129.223 6.43055 129.073 6.56055 128.793C6.99055 128.093 7.13054 128.513 6.70054 129.673C6.27054 130.833 6.03055 130.673 5.99055 130.383C5.61055 132.163 5.11055 131.963 4.99055 133.743C4.93055 134.143 5.21053 135.493 5.29053 136.743C5.08053 137.393 5.11056 135.173 4.94056 135.903C5.48056 137.973 4.78055 140.233 5.71055 142.903L5.89054 142.503C6.05054 143.123 6.21055 143.723 6.40055 144.423L6.00056 143.553C6.09056 144.193 6.64054 145.613 6.67054 145.073C6.87071 146.104 7.30905 147.073 7.95054 147.903C7.23054 146.663 7.89055 147.903 7.53055 146.903L8.91053 149.173C8.91053 148.983 9.32055 149.333 9.59055 149.623C10.3886 150.709 11.412 151.61 12.5906 152.263V152.193C13.6179 152.791 14.7735 153.134 15.9605 153.193C16.5584 153.226 17.158 153.2 17.7506 153.113C18.0851 153.074 18.3995 152.933 18.6515 152.71C18.9036 152.486 19.0812 152.191 19.1605 151.863V151.863V151.743C19.17 151.81 19.17 151.877 19.1605 151.943C19.1605 152.473 19.4605 151.943 19.3805 151.153C19.2861 150.465 19.0061 149.815 18.5705 149.273C18.3466 149.192 18.1398 149.07 17.9605 148.914C18.1105 148.694 17.2505 148.243 16.9605 148.013C16.1205 147.803 16.9605 148.243 15.6005 147.883C15.0705 147.763 15.0105 147.663 15.0805 147.573C14.7605 147.643 13.8605 147.724 13.1405 147.914C13.4005 147.914 13.7905 147.783 13.9605 147.803C14.1305 147.823 13.5705 147.913 13.6005 148.073C12.9805 148.193 13.3005 147.883 12.5405 148.173C12.7936 148.158 13.0474 148.158 13.3005 148.173C13.0205 148.248 12.7368 148.308 12.4505 148.353C12.9205 148.253 12.9006 148.463 12.8706 148.583C11.1906 149.053 12.3506 148.233 12.2206 148.053C10.7973 148.681 9.54803 149.645 8.58054 150.863L8.91053 150.783C8.65872 151.115 8.38121 151.426 8.08054 151.713C7.90054 152.013 7.74055 152.313 7.59055 152.623C7.92055 152.123 8.09056 151.993 8.25056 152.043C7.66056 152.943 7.20053 154.343 6.85053 154.513H6.91053C6.51463 155.895 6.27646 157.318 6.20054 158.753C5.87054 160.243 6.04056 162.183 5.75056 162.223C5.68056 163.143 6.20054 164.543 5.92054 165.223C6.22054 166.223 6.00056 165.223 6.19056 164.923C6.47056 165.923 6.19055 167.103 6.65055 167.383C6.74055 168.633 6.51055 167.113 6.40055 167.563C6.81055 167.743 6.93056 169.823 7.50056 170.873C7.50056 171.423 7.25053 170.393 7.35053 171.303C7.41053 171.193 7.58054 171.643 7.67054 171.873L7.51053 172.173C7.82053 172.483 8.15053 172.783 8.51053 173.083C8.89053 174.813 7.97054 172.903 8.77054 175.083V174.943C9.25054 175.423 9.27056 176.563 10.2506 177.943C9.93056 177.453 10.2506 177.683 10.2506 177.483L10.6105 178.363C10.6105 178.283 10.6105 178.233 10.6105 178.303C11.1705 178.933 10.8805 178.973 11.5105 179.723C11.2105 179.133 11.5105 179.213 11.7005 179.423L12.1805 180.733V180.083C12.8905 181.203 13.5905 183.143 14.3605 183.423L14.0205 182.863C14.1105 182.863 14.5305 183.043 14.9305 183.863C15.0605 184.113 15.0205 184.383 14.8005 184.063L15.2705 184.553C14.8494 183.631 14.3475 182.748 13.7705 181.914C13.8805 182.234 14.2906 182.913 14.0306 182.803C13.5506 182.003 13.1905 181.183 12.7705 180.393C12.8523 180.656 12.8993 180.929 12.9105 181.203C12.2805 180.423 12.6306 180.493 12.2506 179.833C12.0206 179.633 11.8705 179.493 11.9105 179.693C11.5333 178.869 11.085 178.08 10.5705 177.333C10.5705 177.333 10.9805 178.414 10.5705 177.914C10.0527 176.607 9.61193 175.272 9.25056 173.914C8.71056 171.684 7.57056 169.783 7.50056 168.153C7.57056 168.043 7.91053 169.273 7.76053 168.253C7.61053 168.473 7.50054 167.683 7.42054 167.643C7.50054 166.493 7.08055 166.033 7.18055 165.223C7.18055 165.413 6.99054 164.773 6.89054 164.353C6.66054 164.503 6.70055 163.113 6.49055 164.783C6.70055 163.073 6.26054 161.783 6.89054 160.543V160.973C6.89054 160.413 6.89054 159.853 6.89054 159.293V159.363C6.97192 158.754 6.9887 158.137 6.94056 157.523C6.81056 157.933 6.70055 158.523 6.59055 158.953C6.66935 157.984 6.9199 157.036 7.33054 156.153C7.13054 156.153 7.02053 157.153 6.88053 156.823C7.04148 156.174 7.26244 155.542 7.54053 154.933L7.42054 154.993C7.80054 153.243 8.08054 154.513 8.27054 153.203C8.27054 153.263 8.43054 153.143 8.45054 153.203C8.55054 152.743 8.95055 151.673 8.31055 152.593C8.55168 152.099 8.8921 151.66 9.31055 151.303C9.14055 151.803 9.01053 151.873 9.07053 152.133C9.49576 151.472 10.0107 150.873 10.6005 150.353C10.8005 150.173 10.3905 150.403 10.1705 150.653C10.5602 150.062 11.0857 149.571 11.7032 149.223C12.3207 148.875 13.0123 148.68 13.7206 148.653C15.1747 148.551 16.6203 148.946 17.8205 149.773C17.4705 149.643 17.9006 150.013 17.9406 150.313C18.1019 150.5 18.2233 150.718 18.2972 150.954C18.3712 151.19 18.3961 151.438 18.3706 151.683C18.343 151.881 18.2504 152.064 18.1073 152.204C17.9643 152.343 17.779 152.431 17.5805 152.453H17.8605C16.828 152.576 15.781 152.46 14.8005 152.113C14.007 151.854 13.2402 151.519 12.5105 151.113C12.5105 151.033 12.4405 151.253 12.6805 151.423C11.7505 150.703 10.2706 150.163 10.3406 149.603C10.4606 149.703 10.5605 149.803 10.6805 149.893C8.87055 148.293 7.95054 145.673 7.39054 143.303C6.98054 142.823 7.76054 144.683 7.33054 144.303C6.81199 142.58 6.4768 140.807 6.33054 139.013C6.33945 139.143 6.33945 139.274 6.33054 139.403C5.99054 137.533 6.59054 139.583 6.42054 138.003C6.30054 138.103 6.26054 138.003 6.17054 137.503L6.35053 137.023C6.35053 136.953 6.16054 136.963 6.11054 137.203C6.31054 136.493 6.20053 134.373 6.54053 133.853C6.54053 133.713 6.22055 134.073 6.15055 133.853C6.1596 133.184 6.30595 132.524 6.58054 131.914V131.914C6.61812 131.331 6.7187 130.754 6.88053 130.193C7.35053 128.753 7.08055 130.003 7.68055 129.033C7.53959 129.403 7.41939 129.78 7.32053 130.163C7.57659 129.52 7.88428 128.898 8.24055 128.303C8.07055 128.523 7.90056 128.743 7.75056 128.973C7.92012 128.526 8.1635 128.11 8.47056 127.743C8.56275 127.61 8.69447 127.51 8.84705 127.456C8.99963 127.402 9.1653 127.398 9.32053 127.443C9.22803 127.461 9.14174 127.502 9.07053 127.563C9.27053 127.563 9.35054 127.643 9.67054 127.893C9.92054 127.693 10.9905 128.893 10.6705 128.143C12.6705 129.583 13.4505 130.993 14.8205 132.683C14.5905 132.383 14.7205 132.463 14.7105 132.373C15.3547 133.068 15.8603 133.879 16.2005 134.763C16.2005 134.583 16.0505 134.313 16.1105 134.263C16.57 134.996 16.9617 135.769 17.2806 136.573C17.1606 136.113 17.2805 136.203 17.5405 136.573C17.4105 136.573 17.5405 136.933 17.6605 137.213C17.5705 135.823 18.7505 138.753 18.7905 137.843C18.7405 137.973 19.5805 140.453 19.0405 139.843L18.9005 139.414C18.7305 139.414 19.0505 139.964 19.2005 140.414C19.1469 140.252 19.1133 140.084 19.1005 139.914C19.515 140.975 19.8297 142.073 20.0405 143.193C20.0405 143.713 19.9405 144.143 19.7905 144.193C19.6405 144.243 19.4106 144.303 19.0006 143.963C19.1006 144.173 19.6505 144.443 19.2605 144.363C18.3743 143.842 17.6746 143.055 17.2605 142.113C16.7793 141.173 16.4582 140.159 16.3106 139.113C16.1106 139.113 16.2205 139.743 16.4605 140.403C16.7005 141.063 17.0505 141.693 16.9205 141.823C15.6305 139.513 15.3906 136.333 17.4406 134.533C17.5573 134.241 17.7443 133.983 17.9851 133.78C18.2258 133.578 18.5128 133.438 18.8205 133.373C19.5327 133.175 20.2724 133.094 21.0105 133.133C20.8305 133.283 21.5206 133.493 22.2506 134.043C22.0806 133.733 22.8706 134.323 22.7206 134.043C23.2906 134.643 24.9405 136.693 25.1405 136.393C25.0305 136.783 26.3705 137.923 26.5705 138.703C27.3302 139.762 27.9993 140.883 28.5705 142.053C28.1605 141.693 29.0905 143.374 29.1805 143.914C29.1805 143.764 29.0505 143.483 29.1105 143.533C29.4805 143.913 29.5305 145.003 29.6505 145.643C29.7305 145.943 29.8606 145.573 29.8706 146.053C29.7026 146.157 29.551 146.285 29.4205 146.433C29.4501 146.521 29.4904 146.605 29.5405 146.683C29.4605 146.683 29.4105 146.683 29.3905 146.563L29.3005 146.353L29.2206 146.183L28.9105 145.553C28.4931 144.677 28.1324 143.776 27.8305 142.853C27.2226 141.005 26.9847 139.054 27.1305 137.113L26.8706 137.793C26.5706 135.373 27.3105 136.213 27.4905 134.393C27.5499 133.914 27.7064 133.451 27.9505 133.033C28.2005 132.753 28.1305 132.753 28.4005 132.783C28.9001 133.021 29.3618 133.331 29.7705 133.703C30.255 134.121 30.7063 134.576 31.1206 135.063C32.7728 137.127 34.0397 139.471 34.8605 141.983C34.9205 142.373 34.6905 141.813 34.5705 141.793C34.7505 142.203 35.0005 142.253 35.0905 142.873L34.9105 142.793C35.5577 144.164 36.012 145.618 36.2605 147.113C36.4711 148.475 36.8058 149.813 37.2605 151.113C37.2605 153.383 37.7805 154.993 37.3205 157.753C37.3905 158.633 37.6305 156.753 37.5905 157.933C37.4705 158.793 37.3105 159.633 37.1505 160.473V160.343C36.7805 161.543 36.6605 163.143 36.3205 164.813C36.0527 166.466 35.4541 168.048 34.5606 169.463L34.6405 169.363C34.7705 169.363 34.5505 169.953 34.2605 170.363C34.1205 170.473 34.2605 170.163 34.3405 169.863C33.7964 170.671 33.1806 171.427 32.5006 172.123C31.9483 172.714 31.3349 173.243 30.6705 173.703C31.4805 173.303 30.0905 174.303 30.0805 174.493C29.5405 174.633 30.2605 174.193 29.1405 174.623C27.7235 175.326 26.1715 175.715 24.5906 175.763C24.0106 175.563 23.2506 175.503 23.2506 175.263C21.443 174.905 19.7021 174.267 18.0906 173.373H18.0006C17.5406 172.833 16.0506 172.433 15.7506 172.033C15.7506 172.153 15.9605 172.333 15.8605 172.363L14.9505 171.653C15.3505 172.033 15.4705 172.424 14.6605 171.914C13.9605 171.194 14.9605 171.963 14.6605 171.553H14.2605C13.6705 171.093 13.6805 170.743 14.4605 171.203C12.4987 169.775 10.6529 168.193 8.94056 166.473L9.00056 166.763C8.14056 165.853 7.00054 164.603 6.42054 164.133C6.42054 164.073 6.30054 163.783 6.42054 163.893C5.65054 162.613 6.10054 163.953 5.27054 162.533C5.47054 162.893 5.77055 163.303 5.74055 163.423C5.14055 162.603 4.57055 161.733 4.06055 160.883C3.25081 160.226 2.64404 159.352 2.31055 158.363C2.31055 158.293 2.58055 158.583 2.74055 158.853C2.63055 158.613 2.56056 158.363 2.47056 158.123L1.98054 157.664C1.95604 157.284 1.95604 156.903 1.98054 156.523H1.74055C1.64055 155.703 1.93056 155.373 1.94056 154.783C1.95341 154.147 2.07866 153.517 2.31055 152.923C2.46411 152.437 2.73153 151.995 3.09055 151.633C3.31055 151.753 3.82056 151.353 4.47056 151.083C4.96463 150.803 5.54002 150.701 6.10053 150.793C7.47672 150.51 8.9078 150.678 10.1805 151.273C11.7035 151.957 13.1597 152.781 14.5306 153.733L14.3305 153.543C15.6405 154.153 15.4705 154.743 16.7405 155.543L16.4805 155.263C18.5329 156.595 20.3621 158.242 21.9005 160.143C21.6705 159.823 21.9006 159.843 22.3406 160.283C22.7806 160.723 21.7505 160.173 22.5705 160.853C22.4105 160.633 22.6306 160.703 22.8106 160.853L23.3706 161.763C25.5503 163.723 27.5269 165.897 29.2705 168.253C29.6605 168.613 29.4906 168.253 29.4706 168.113C30.8506 169.903 32.0205 171.833 33.2005 173.493H33.5405C34.1205 174.303 33.5405 174.243 34.5405 175.153C34.7405 175.373 34.0506 174.443 33.9406 174.083C35.2806 175.603 34.4205 175.203 35.5505 176.753V176.164C36.1157 176.687 36.4712 177.397 36.5505 178.164C37.4405 180.064 37.8705 179.033 39.2705 181.493C39.4005 181.953 39.0005 181.493 39.1305 181.953C40.3405 183.533 40.2905 183.853 41.5105 185.433C42.5105 186.043 40.9206 184.613 41.9406 185.303L40.9406 184.133C41.8906 185.063 40.3105 183.133 40.6505 183.133C41.375 184.163 42.0426 185.231 42.6505 186.333C42.8105 186.213 41.8005 185.103 42.3705 185.423L42.6906 186.003C42.658 185.8 42.5755 185.607 42.4505 185.443C42.7405 185.523 42.9005 186.063 43.2705 186.573C43.2105 186.673 43.0705 186.733 42.8205 186.653C42.8785 186.674 42.9326 186.705 42.9805 186.743C43.5005 187.953 44.9806 189.563 45.4706 190.573C45.4106 190.393 45.4705 190.503 45.5905 190.523C46.0605 191.133 46.3605 191.923 46.9505 192.793C47.4205 193.143 47.0805 192.263 48.0805 193.603C48.1405 193.943 47.4405 193.553 48.3405 194.603C48.3305 194.773 47.6505 193.743 48.1605 194.163ZM29.9706 168.713L29.5705 168.183L29.9706 168.713ZM28.5606 166.633C28.7306 166.833 28.7406 166.963 28.6206 166.943L27.8605 166.043C28.1705 166.343 28.6106 166.803 28.5606 166.633ZM32.6805 169.813V169.753L32.2405 169.133C32.3105 169.133 32.4405 169.243 32.6805 169.603C32.6993 169.682 32.6993 169.765 32.6805 169.843V169.813Z" fill="#016C55"/>
<path d="M32.9108 170.434L33.0008 170.584L32.8008 170.414V170.244C32.8321 170.31 32.8689 170.374 32.9108 170.434V170.434Z" fill="#016C55"/>
<path d="M19.2715 151.853V151.933C19.2817 151.881 19.2817 151.826 19.2715 151.773V151.853Z" fill="#016C55"/>
<path d="M2.08148 156.544L2.02148 156.554V156.334L2.08148 156.544Z" fill="#016C55"/>
<path d="M8.53023 153.153C8.54594 153.219 8.54594 153.288 8.53023 153.353C8.52117 153.287 8.52117 153.22 8.53023 153.153V153.153Z" fill="#016C55"/>
<path d="M6.97034 159.284C6.97034 159.584 6.97034 159.884 6.97034 160.184C6.94999 159.884 6.94999 159.584 6.97034 159.284V159.284Z" fill="#016C55"/>
<path d="M7.05093 164.174C7.02578 164.211 6.99548 164.245 6.96094 164.274V164.274L7.05093 164.174Z" fill="#016C55"/>
<path d="M19.2109 140.334L19.2709 140.514C19.3909 140.934 19.3009 140.634 19.2109 140.334Z" fill="#016C55"/>
<path d="M6.61133 131.814L6.89133 131.114C6.80133 131.514 6.74133 131.824 6.61133 131.814Z" fill="#016C55"/>
<path d="M22.3105 133.984V133.974L22.4205 134.064L22.3105 133.984Z" fill="#016C55"/>
<path d="M7.21063 130.094C7.12669 130.434 7.01977 130.768 6.89062 131.094C6.95911 130.749 7.06647 130.414 7.21063 130.094V130.094Z" fill="#016C55"/>
<path d="M15.0508 183.554L15.2008 183.734L15.0508 183.554Z" fill="#016C55"/>
<path d="M15.2305 183.784L15.3705 184.004C15.3062 183.944 15.2581 183.868 15.2305 183.784V183.784Z" fill="#016C55"/>
<path d="M15.6611 184.484L15.3711 184.004C15.4922 184.148 15.5901 184.31 15.6611 184.484Z" fill="#016C55"/>
<path d="M11.4512 178.134V178.034C11.4611 178.049 11.4663 178.066 11.4663 178.084C11.4663 178.102 11.4611 178.119 11.4512 178.134V178.134Z" fill="#016C55"/>
<path d="M10.541 176.374C10.9025 176.879 11.2363 177.403 11.541 177.944V178.034C11.441 177.704 10.621 176.844 10.541 176.374Z" fill="#016C55"/>
<path d="M6.74148 168.884C6.90148 169.424 7.04147 169.974 7.23147 170.514C7.06147 170.254 6.84146 169.904 7.04146 170.654C6.22146 168.634 7.32148 171.034 6.74148 168.884Z" fill="#016C55"/>
<path d="M5.86139 163.634C5.86139 164.554 5.73141 163.634 5.69141 163.684C5.73141 163.124 5.74139 162.984 5.86139 163.634Z" fill="#016C55"/>
<path d="M8.71156 148.854L8.60154 149.054C8.20154 148.434 8.66156 149.004 8.71156 148.854Z" fill="#016C55"/>
<path d="M6.9707 141.813L7.23068 142.433L7.13068 142.784L6.9707 141.813Z" fill="#016C55"/>
<path d="M4.99048 137.754L4.98047 138.074L4.99048 136.874V137.754Z" fill="#016C55"/>
<path d="M28.4518 138.134H28.1318C27.9018 137.634 28.0518 137.424 28.4518 138.134Z" fill="#016C55"/>
<path d="M26.2305 132.394C26.3065 132.053 26.4773 131.741 26.7233 131.493C26.9693 131.246 27.2803 131.073 27.6205 130.994C27.0083 131.285 26.5167 131.78 26.2305 132.394V132.394Z" fill="#016C55"/>
<path d="M3.68134 163.704L3.96133 164.204L3.36133 163.324L3.68134 163.704Z" fill="#016C55"/>
<path d="M65.1107 116.284C64.4907 116.034 64.0207 115.834 63.5307 115.664C59.1307 114.184 56.6007 110.804 55.0007 106.744C54.4393 105.085 54.3493 103.302 54.7407 101.594C55.6907 97.1242 57.8407 93.3542 62.0007 90.9542C66.1607 88.5542 70.1907 87.6342 74.7507 88.8342C77.6921 89.6075 80.2085 91.5127 81.7507 94.1342C82.3652 95.4889 82.815 96.9124 83.0906 98.3742C83.2375 98.285 83.3749 98.1812 83.5007 98.0642L94.3606 87.6342C95.5706 86.4642 96.1306 86.4542 97.3606 87.6342C100.971 90.9242 104.561 94.2342 108.191 97.4942C109.191 98.4242 110.411 99.1942 111.521 100.034C112.891 101.034 112.951 101.984 111.661 103.034C110.721 103.824 109.731 104.544 108.801 105.334C107.651 106.199 106.693 107.293 105.986 108.545C105.279 109.798 104.838 111.183 104.691 112.614C104.6 114.04 104.773 115.471 105.201 116.834C105.998 119.943 107.89 122.66 110.531 124.484C111.268 124.999 112.133 125.3 113.031 125.357C113.928 125.413 114.824 125.222 115.621 124.804C120.246 122.588 124.084 119.012 126.621 114.554C127.261 113.424 128.181 113.234 129.051 114.174C131.604 116.947 134.387 119.5 137.371 121.804C139.226 123.383 140.946 125.116 142.511 126.984C143.511 128.134 143.461 129.094 142.361 130.204C136.851 135.634 131.291 141.094 125.811 146.634C121.111 151.364 116.541 156.214 111.811 160.934C108.981 163.774 106.081 166.554 103.051 169.184C101.888 170.119 100.543 170.801 99.1006 171.184C96.4406 171.964 94.2506 171.124 92.1606 169.184C85.7606 163.304 79.0506 157.764 72.7306 151.804C67.5906 146.944 62.8507 141.664 57.9307 136.564C57.2807 135.894 56.6207 135.214 56.0207 134.484C55.4237 133.803 54.8788 133.077 54.3906 132.314C53.2106 130.314 53.2106 129.504 54.7006 127.804C57.8206 124.224 61.0407 120.734 64.2207 117.214L65.1107 116.284ZM96.0507 89.3442L95.4407 89.8842L83.1907 101.634C83.0207 101.804 82.8607 102.054 82.6507 102.114C82.1745 102.34 81.6422 102.42 81.1207 102.344C80.9258 102.193 80.7647 102.003 80.6476 101.786C80.5305 101.569 80.46 101.33 80.4407 101.084C80.408 100.416 80.4415 99.7459 80.5406 99.0842C80.6328 98.0569 80.4928 97.0221 80.1311 96.0562C79.7693 95.0903 79.195 94.2181 78.4506 93.5042C77.2121 92.2301 75.6661 91.2967 73.9618 90.7939C72.2575 90.2912 70.4524 90.2362 68.7207 90.6342C62.6507 91.7742 58.4907 95.2742 56.9707 101.444C56.6854 102.49 56.6137 103.582 56.7597 104.656C56.9058 105.729 57.2666 106.763 57.8206 107.694C59.5703 110.936 62.5274 113.358 66.0507 114.434C67.8707 114.994 67.9806 115.974 66.6706 117.354C63.2106 120.994 59.764 124.661 56.3307 128.354C55.9156 128.73 55.6613 129.252 55.6203 129.81C55.5794 130.369 55.7549 130.922 56.1106 131.354C56.7201 132.156 57.3887 132.912 58.1107 133.614C58.7407 134.274 59.4207 134.874 60.0507 135.524C64.8407 140.454 69.4407 145.584 74.4707 150.264C81.1407 156.464 88.1406 162.264 95.0206 168.264C95.4149 168.6 95.8974 168.815 96.4106 168.884C97.2626 168.998 98.1289 168.934 98.955 168.696C99.7811 168.459 100.549 168.053 101.211 167.504C102.621 166.304 104.081 165.144 105.371 163.834C109.131 159.994 112.761 156.024 116.561 152.214C124.111 144.654 131.731 137.214 139.321 129.654C139.711 129.274 140.081 128.874 140.581 128.364C139.211 126.974 137.991 125.634 136.661 124.414C134.001 122.004 131.281 119.664 128.581 117.294C128.475 117.212 128.365 117.135 128.251 117.064C128.081 117.294 127.951 117.454 127.821 117.614C125.121 121.292 121.676 124.359 117.711 126.614C114.041 128.614 110.581 128.274 107.601 125.384C104.385 122.443 102.453 118.356 102.221 114.004C102.021 109.444 104.221 106.004 107.621 103.194C108.251 102.674 108.891 102.194 109.421 101.744L96.0507 89.3442Z" fill="#534741"/>
<path d="M155.05 115.774C153.58 115.054 152.05 114.284 150.47 113.504C145.04 110.774 142.89 102.894 145.23 97.9442C149.39 89.1542 158.97 86.5042 167.1 93.1742C168.68 94.4642 169.36 96.0142 170.16 99.1742L181.05 87.5342L142.77 43.6342C137.26 48.4342 131.92 53.2342 127.44 59.1142C127.87 59.1642 128.15 59.2142 128.44 59.2342C129.984 59.2709 131.497 59.6724 132.856 60.4059C134.215 61.1393 135.382 62.1838 136.26 63.4542C138.108 65.801 139.4 68.5362 140.04 71.4542C140.36 73.0804 140.15 74.7665 139.44 76.2642C138.491 78.5774 136.891 80.565 134.833 81.9853C132.775 83.4056 130.349 84.1973 127.85 84.2642C125.4 84.4342 122.95 84.6242 120.6 83.7642C118.734 83.1457 117.042 82.0936 115.662 80.6943C114.281 79.2949 113.253 77.5882 112.66 75.7142C112.34 74.7142 112.08 73.7742 111.72 72.5542C107.36 77.1142 103.08 81.5542 98.7198 86.0842L97.8398 85.2542C98.4798 84.4642 99.0499 83.6842 99.6999 82.9742C103.62 78.7542 107.55 74.5442 111.49 70.3442C111.56 70.2642 111.63 70.1542 111.72 70.1242C112.13 69.9942 112.62 69.7042 112.94 69.8342C113.26 69.9642 113.5 70.4842 113.59 70.8342C113.82 71.7742 113.9 72.7542 114.12 73.7042C115.44 79.3142 120.23 82.8742 126.52 82.2342C127.87 82.0942 129.22 81.9442 130.52 81.7042C132.491 81.231 134.278 80.1828 135.652 78.6925C137.027 77.2023 137.927 75.3373 138.24 73.3342C138.315 72.8504 138.315 72.3579 138.24 71.8742C137.557 68.4978 135.85 65.4143 133.35 63.0442C132.559 62.3478 131.633 61.8223 130.63 61.5005C129.627 61.1787 128.568 61.0676 127.52 61.1742C126.93 61.1742 126.34 61.3242 125.75 61.3242C125.53 61.362 125.303 61.3331 125.099 61.241C124.895 61.149 124.724 60.998 124.607 60.8076C124.489 60.6173 124.432 60.3961 124.441 60.1728C124.451 59.9494 124.527 59.7339 124.66 59.5542C124.867 59.2033 125.101 58.869 125.36 58.5542C129.838 52.7834 134.946 47.5309 140.59 42.8942C142.11 41.5842 142.89 41.5642 144.3 42.9742C146.92 45.5842 149.51 48.2342 151.96 50.9742C160.687 60.8742 169.383 70.7975 178.05 80.7442C179.85 82.7442 181.7 84.7442 183.55 86.7442C184.74 88.0342 184.65 88.2442 183.29 89.3842C181.93 90.5242 180.39 92.1042 178.97 93.4942C176.38 96.0342 173.81 98.5942 171.21 101.134C170.819 101.58 170.351 101.952 169.83 102.234C169.331 102.493 168.752 102.554 168.21 102.404C167.85 102.214 167.65 101.504 167.58 100.994C167.578 99.9637 167.504 98.9345 167.36 97.9142C166.5 94.7342 163.99 93.2642 161.11 92.2842C154.7 90.1242 147.5 94.2842 146.55 100.754C146.11 103.224 146.549 105.77 147.792 107.949C149.034 110.129 151.001 111.804 153.35 112.684C154.44 113.144 155.52 113.684 156.58 114.174C157.64 114.664 157.96 115.694 157.06 116.544C153.62 119.814 150.12 123.004 146.64 126.234C146.517 126.359 146.366 126.451 146.2 126.504C145.884 126.524 145.566 126.524 145.25 126.504C145.251 126.161 145.319 125.821 145.45 125.504C145.848 125.066 146.272 124.652 146.72 124.264C149.5 121.494 152.23 118.634 155.05 115.774Z" fill="#534741"/>
<path d="M69.2601 112.184C64.6001 111.484 60.7501 106.764 61.5001 102.114C62.2501 97.4635 67.9901 94.1935 72.1801 96.3435C76.7201 98.6735 77.3001 104.804 77.2901 109.904L92.7701 94.4035C93.1082 93.9868 93.5829 93.7034 94.1101 93.6035C94.6272 93.6395 95.1154 93.8553 95.4901 94.2135L103.73 100.564C99.7483 105.208 97.7482 111.23 98.1601 117.334C98.409 120.355 99.4083 123.266 101.067 125.803C102.726 128.341 104.992 130.424 107.66 131.863C109.263 132.713 111.046 133.169 112.86 133.194C119.03 133.114 123.1 127.034 127.93 123.194L133.71 128.504C134.1 128.854 134.52 129.304 134.44 129.814C134.352 130.14 134.163 130.43 133.9 130.644L112.24 152.363C108.58 156.033 104.6 159.874 99.5101 160.834C98.6162 161.037 97.686 161.02 96.8001 160.784C96.0715 160.488 95.3959 160.076 94.8001 159.564L72.4501 142.334C70.4769 140.95 68.6978 139.309 67.1601 137.454C65.2361 134.777 64.3097 131.512 64.5417 128.224C64.7736 124.936 66.1494 121.833 68.4301 119.454C69.5901 118.314 70.9801 117.334 71.6801 115.864C72.3801 114.394 71.9701 112.234 70.4101 111.794" fill="#DDC4BA"/>
</svg>
