<svg width="223" height="222" viewBox="0 0 223 222" fill="none" xmlns="http://www.w3.org/2000/svg">
<path d="M22.4807 44.999L22.2207 45.449C22.2971 45.2933 22.384 45.143 22.4807 44.999V44.999Z" fill="#016C55"/>
<path d="M60.0512 12.7589C59.7212 12.9389 59.5612 12.989 59.5312 12.969C59.8613 12.819 60.1212 12.6989 60.0512 12.7589Z" fill="#016C55"/>
<path d="M67.6414 8.78906L67.1914 9.01904C67.3283 8.91902 67.4802 8.84141 67.6414 8.78906V8.78906Z" fill="#016C55"/>
<path d="M22.4805 44.9997L23.1705 43.8497C23.3205 43.8397 22.8405 44.4597 22.4805 44.9997Z" fill="#016C55"/>
<path d="M10.9305 63.6992L10.7605 64.0692L10.4805 64.3192L10.9305 63.6992Z" fill="#016C55"/>
<path d="M16.6208 53.0191C16.6056 52.9567 16.6056 52.8915 16.6208 52.8291C16.6208 52.8291 16.6408 52.8991 16.6208 53.0191Z" fill="#016C55"/>
<path d="M97.9211 218.439C97.9211 218.439 97.9211 218.439 97.9211 218.489C97.9211 218.539 97.7911 218.429 97.9211 218.439Z" fill="#016C55"/>
<path d="M78.6914 215.899L78.9414 215.989C78.9558 216.049 78.9558 216.11 78.9414 216.169L78.6914 215.899Z" fill="#016C55"/>
<path d="M82.341 3.31934H82.281C81.871 3.40934 82.051 3.35934 82.341 3.31934Z" fill="#016C55"/>
<path d="M206.51 54.519C205.43 53.269 207.58 56.959 206.05 55.019C206.27 55.159 205.3 52.899 206.51 54.519Z" fill="#016C55"/>
<path d="M206.051 55.0193L205.891 54.8193L206.051 55.0193Z" fill="#016C55"/>
<path d="M118.241 0.0996094C118.122 0.15054 117.998 0.187441 117.871 0.209595C117.871 0.209595 117.961 0.149609 118.241 0.0996094Z" fill="#016C55"/>
<path d="M91.4707 1.89954L92.1207 1.76953L91.4707 1.89954Z" fill="#016C55"/>
<path d="M132.051 2.22987C132.388 2.23 132.723 2.27031 133.051 2.3499H132.901C132.627 2.26099 132.339 2.22036 132.051 2.22987V2.22987Z" fill="#016C55"/>
<path d="M146.052 5.94952H145.782L145.352 5.76953L146.052 5.94952Z" fill="#016C55"/>
<path d="M140.73 215.109C140.52 215.215 140.331 215.358 140.17 215.529C140.32 215.269 138.28 215.709 140.73 215.109Z" fill="#016C55"/>
<path d="M132.16 4.65918C132.901 4.77313 133.636 4.92668 134.36 5.11917C133.74 5.01917 132.96 4.74918 132.16 4.65918Z" fill="#016C55"/>
<path d="M212.751 148.13L212.541 148.61C212.59 148.441 212.66 148.28 212.751 148.13Z" fill="#016C55"/>
<path d="M140.84 6.83894C141.272 6.83706 141.704 6.87386 142.13 6.94892C142.21 6.98878 142.287 7.03564 142.36 7.08894L140.84 6.83894Z" fill="#016C55"/>
<path d="M126.371 218.029C124.261 218.189 125.701 218.209 123.831 218.759C122.701 218.609 121.751 219.199 121.461 218.649C120.811 219.029 120.981 218.889 119.671 219.209C120.241 218.899 117.131 219.049 117.201 218.709C116.671 219.129 119.481 219.069 117.761 219.569C116.551 219.369 114.331 219.379 114.141 218.969C113.241 219.167 112.329 219.311 111.411 219.399C111.627 219.383 111.844 219.407 112.051 219.469C109.531 219.329 105.791 219.409 104.401 218.819C104.871 219.489 99.061 218.489 100.931 219.209C99.9086 219.075 98.903 218.834 97.931 218.489C97.991 218.989 95.321 218.289 94.151 218.379C92.9945 218.006 91.8196 217.692 90.6311 217.439C91.1211 217.589 91.371 217.719 91.171 217.809C89.941 217.389 90.171 217.619 89.091 217.639C87.411 217.139 89.481 217.349 88.491 216.909C86.991 216.699 88.211 217.159 87.901 217.289L85.801 216.289C85.4731 216.204 85.129 216.204 84.801 216.289C84.0438 215.865 83.2055 215.606 82.341 215.529L84.2011 216.039H83.421L81.291 215.139C78.031 214.549 78.861 215.329 78.951 215.879L80.231 216.349C80.141 216.499 79.231 216.349 78.641 216.169C78.051 215.989 80.581 217.329 82.021 217.779C85.931 218.779 83.021 217.439 85.671 217.959C86.801 218.329 87.9311 218.669 89.0711 218.959L89.151 218.799C89.5074 218.803 89.855 218.911 90.151 219.109C89.961 218.829 93.0011 219.549 94.4411 219.719L93.8911 219.849C97.8111 220.969 100.251 220.119 103.381 220.619L105.601 221.129L106.081 220.819C107.271 221.185 108.518 221.331 109.761 221.249C113.541 220.909 117.431 220.649 121.371 220.539C125.271 220.169 129.181 219.539 132.941 218.819C132.705 218.949 132.447 219.037 132.181 219.079C134.881 218.172 137.655 217.503 140.471 217.079C141.749 216.906 143.018 216.666 144.271 216.359C145.611 215.936 146.918 215.414 148.181 214.799H147.751C150.671 213.799 147.321 214.799 149.361 213.889C149.881 214.079 153.181 212.889 154.841 212.269C154.551 212.269 154.021 212.609 153.511 212.709C153.827 212.369 154.217 212.106 154.651 211.939C156.651 211.609 160.461 209.699 163.371 208.489C163.621 208.149 165.791 206.489 166.781 205.409C167.111 205.319 167.701 205.189 168.261 205.089C168.989 204.498 169.815 204.037 170.701 203.729C169.851 204.249 169.091 204.729 168.511 205.039H168.591C168.491 205.039 168.331 205.169 168.201 205.239C167.611 205.579 167.291 205.759 167.421 205.649C166.421 206.519 167.601 205.779 167.681 206.089C168.551 205.539 170.431 204.519 170.511 204.209C171.041 203.879 171.371 203.639 171.891 203.269C172.284 203.103 172.657 202.892 173.001 202.639C172.94 202.673 172.876 202.703 172.811 202.729C172.811 202.659 172.921 202.589 172.981 202.499C174.722 201.195 176.568 200.037 178.501 199.039C176.951 199.719 178.581 198.439 178.411 198.219C178.581 198.129 176.941 199.369 174.901 200.899C175.031 200.769 175.121 200.639 175.101 200.529C176.691 198.979 178.271 198.479 180.711 196.399C180.531 196.499 180.161 196.699 180.221 196.529C180.832 195.976 181.532 195.529 182.291 195.209C182.994 194.085 183.899 193.102 184.961 192.309C185.824 191.904 186.602 191.337 187.251 190.639L186.491 191.069C188.041 189.429 188.081 190.069 189.311 188.639C188.851 189.229 188.631 189.109 189.021 188.709C189.959 187.694 191.033 186.812 192.211 186.089H191.781C193.261 184.739 196.101 182.159 195.781 181.869C195.941 182.869 198.781 178.629 199.781 177.199C199.411 177.679 199.231 177.679 199.151 177.689C200.402 176.316 201.558 174.859 202.611 173.329C203.611 171.779 204.461 170.069 205.461 168.499L205.371 167.759C206.371 166.099 207.471 166.069 208.571 164.229L207.981 164.779C208.775 163.521 209.47 162.204 210.061 160.839L211.691 157.269L211.391 157.199C211.991 156.269 212.581 155.039 213.191 154.099C213.661 151.987 214.359 149.931 215.271 147.969C215.781 146.699 216.271 145.369 216.761 144.059C217.13 142.825 217.365 141.554 217.461 140.269L218.081 140.149C218.511 138.449 219.181 136.289 218.961 135.399L218.881 135.779C218.411 135.849 219.301 134.079 219.481 133.009C219.661 132.209 220.061 131.439 220.031 132.159C220.251 129.829 220.681 126.979 221.031 124.339C221.407 122.173 221.484 119.966 221.261 117.779C221.471 115.469 221.741 113.439 221.971 111.349C222.096 109.1 222.072 106.845 221.901 104.599L221.841 104.659C221.681 102.969 221.351 99.5791 220.841 99.6591C220.471 96.0891 220.721 93.6591 219.841 89.4591V90.4591C219.601 89.3991 219.521 87.6191 219.411 87.1991C219.301 86.7791 219.291 87.1191 219.241 87.1991C218.971 86.4183 218.809 85.604 218.761 84.7791L218.681 85.1391C218.045 83.1464 217.534 81.1157 217.151 79.0591C216.922 77.8942 216.608 76.7478 216.211 75.6291C215.851 74.4991 215.471 73.3891 215.071 72.3591C215.301 73.1391 214.991 72.7891 214.801 72.5091C214.584 71.0741 214.215 69.6662 213.701 68.3091C213.191 66.6791 212.321 65.1891 212.011 64.3091L212.321 65.4191C211.061 62.0191 210.461 62.8491 209.221 59.4691L210.381 61.1891C209.671 59.9091 209.221 58.7391 209.581 58.9491C208.641 57.5191 209.231 58.8891 207.871 56.7191C207.681 56.7191 208.741 58.3391 208.131 57.7191L206.051 55.0191C205.703 54.5636 205.402 54.0746 205.151 53.5591C205.871 53.4791 203.661 51.0391 205.151 52.2191C204.501 51.1391 203.861 50.1191 203.231 49.1291C202.601 48.1391 201.811 47.3091 201.131 46.4191C199.751 44.6791 198.441 42.9891 197.271 41.1691C195.761 40.1691 191.551 34.8191 191.271 35.6691C190.451 34.7791 189.741 33.9391 189.141 33.1591C188.541 32.3791 187.941 31.7491 187.511 31.1591C187.925 31.4971 188.303 31.8757 188.641 32.2891C187.606 31.0747 186.479 29.9414 185.271 28.8991C186.271 30.1091 188.121 31.9591 188.821 33.0291C187.261 31.4891 185.191 29.1991 184.351 28.2991L183.651 28.2391C182.481 26.7491 182.281 27.4591 181.171 25.8891L181.521 26.0191C178.841 23.9291 179.021 23.6291 176.521 21.6591V21.8791C175.611 21.2791 174.521 19.9891 173.471 19.6691L175.111 20.9191C174.771 21.0391 173.431 20.1991 172.781 19.9191C171.011 18.6491 172.411 19.0891 171.501 18.4691C170.951 18.4691 171.321 18.5391 171.821 19.1591C169.702 17.8261 167.665 16.3668 165.721 14.7891C165.611 14.7891 165.721 14.8891 165.721 14.8891C163.999 13.6426 162.148 12.5833 160.201 11.7291L160.631 11.9791C158.631 11.4591 156.031 9.32909 155.361 9.78909C154.441 9.48909 157.361 10.7091 155.811 10.3591C153.011 9.23907 154.241 8.94908 151.671 8.18908C152.021 8.29908 151.891 8.29908 151.991 8.39908C150.181 7.71908 147.801 6.77906 145.821 5.97906C145.033 5.83579 144.254 5.64207 143.491 5.39908C142.591 5.18908 141.621 4.92909 140.631 4.65909C138.83 4.09991 136.977 3.72466 135.101 3.53909C136.101 3.53909 134.431 3.08907 134.451 2.98907C134.471 2.88907 134.551 3.07908 134.451 3.08908C133.908 2.95152 133.391 2.72512 132.921 2.41906C131.991 2.48906 129.921 1.74909 129.371 1.78909C129.371 1.64909 128.501 1.54909 127.531 1.40909C129.451 1.86909 128.111 1.80907 128.941 2.17907C126.051 1.80907 125.721 1.02907 122.691 0.679074C122.122 0.703103 121.555 0.756511 120.991 0.839078C120.691 0.389078 117.851 0.419071 117.931 0.269071C117.401 0.369071 116.631 0.409087 116.731 0.629087C115.521 0.469087 113.731 0.629089 113.201 0.319089L114.411 0.269071C110.651 0.119071 108.411 -0.200926 105.481 0.179074L105.571 0.809079C103.671 1.16908 101.991 0.619067 100.361 1.10907C100.921 0.869067 101.051 0.859089 99.8111 0.819089C100.909 0.72752 102.01 0.694134 103.111 0.719083L100.491 0.469083H104.491C102.751 0.299083 102.871 0.359089 103.571 0.0690891C101.081 0.00908909 100.921 0.409081 98.5711 0.529081C97.7411 0.739081 98.631 0.839067 97.681 1.10907C95.581 1.17907 93.821 2.10907 92.291 1.98907C91.821 2.11907 93.141 1.88907 93.051 2.04907C92.1575 2.21199 91.2475 2.26572 90.341 2.20907L91.471 1.97906C90.4271 1.98497 89.3908 2.15713 88.401 2.48907C87.281 2.59907 86.591 2.48909 87.781 2.15909C87.291 2.22909 86.2711 2.64908 86.6911 2.74908C83.7511 3.44908 85.121 2.41907 82.341 3.38907C82.541 3.38907 82.761 3.38907 82.661 3.38907C82.0744 3.57132 81.4765 3.71499 80.871 3.81909C83.401 3.27909 80.231 4.49907 83.161 3.67907C82.931 4.09907 80.9211 4.25907 80.0311 4.67907C78.5611 4.92907 79.741 4.25908 78.981 4.33908C78.981 4.43908 78.441 4.62909 77.761 4.90909L78.361 4.43908C77.771 4.63908 77.2011 4.82906 76.4711 5.00906L77.681 4.70907C75.9496 5.53157 74.1493 6.2008 72.301 6.70907C72.931 6.59907 74.171 6.39908 72.731 7.02908C70.231 7.69908 72.201 7.31908 70.901 7.96908C68.541 8.96908 70.321 7.71908 66.901 9.39908C66.531 9.55908 66.811 9.26909 67.161 9.03909C64.861 10.2091 63.471 10.5691 61.291 11.8091C62.231 11.2491 62.991 10.8691 61.581 11.3491C62.221 11.2191 59.871 12.5191 59.081 13.0991H58.801C58.191 13.5891 58.941 13.2391 59.511 12.9791C59.511 12.9791 59.6511 12.7991 60.0611 12.5891C61.1911 12.0791 61.061 12.7391 59.351 13.7191C57.471 14.6091 57.601 14.1491 57.851 13.8691C55.481 15.3391 55.2711 14.6291 53.0311 16.0991C52.5011 16.4091 51.1111 18.0091 49.5311 19.0991C48.5311 19.4191 51.411 17.5591 50.341 17.9791C48.111 20.4191 44.501 21.2091 41.541 24.3591L42.181 24.3091C41.431 24.9491 40.701 25.5691 39.821 26.2391L40.821 25.1791C40.001 25.7291 38.251 27.2491 39.021 26.9791C37.6446 27.793 36.439 28.8662 35.4711 30.1391C37.0211 28.5891 35.471 30.0691 36.731 29.0891C35.8519 30.1219 34.8739 31.0664 33.8111 31.9091C34.0911 31.8191 33.6211 32.5391 33.1911 32.9691C31.5805 34.2207 30.0967 35.6274 28.761 37.1691L28.841 37.2291C26.501 39.8091 24.291 42.8691 22.111 45.6091L22.0011 45.7391L22.141 45.5091C22.571 44.3191 20.361 47.5791 19.621 48.3691C19.5854 48.6993 19.461 49.0138 19.261 49.2791C18.981 49.1291 18.321 50.2791 17.931 50.6191C17.411 51.7191 18.331 50.6991 17.271 52.4691C16.841 53.1491 16.651 53.1391 16.591 52.9991C16.2995 53.9131 15.907 54.7919 15.421 55.6191C15.6509 55.2833 15.858 54.9325 16.041 54.5691C16.251 54.5691 15.831 55.1391 16.041 55.2291C15.571 56.0691 15.591 55.4191 15.041 56.5091L15.831 55.6691C15.6219 56.069 15.3741 56.4475 15.091 56.7991C15.521 56.1991 15.691 56.4091 15.761 56.5791C14.181 58.8891 14.901 56.7191 14.581 56.7091C13.331 59.0491 12.211 60.8291 11.301 62.7091L11.731 62.4791C11.4708 63.0486 11.1344 63.5801 10.731 64.0591L10.0611 65.4691C10.5411 64.6991 10.7511 64.4691 11.0011 64.4691C10.2311 65.9291 9.29103 67.9991 8.79103 68.2491H8.87105C8.24105 70.3791 6.73105 74.719 6.87105 74.619C6.40061 75.7137 5.98671 76.8319 5.63103 77.9691C5.35103 78.9691 5.12104 79.7091 4.92104 79.6891C4.47104 81.0291 4.47103 83.3491 3.73103 84.1991C3.55103 85.8791 3.81103 84.3091 4.23103 83.8891C4.07103 85.5591 2.93103 87.0391 3.41103 87.7091C2.92103 89.5991 3.41104 87.2391 3.02104 87.8391C3.46104 88.3491 2.50104 91.4191 2.49104 93.2691C2.14104 94.0391 2.49103 92.4291 2.04103 93.7791C2.19103 93.6691 2.09103 94.4091 2.04103 94.7791L1.65105 95.0891L2.15105 97.0191C1.40105 99.6991 1.66103 96.3991 1.04103 100.019L1.09105 99.7991C1.31105 100.799 0.501032 102.409 0.761032 105.089C0.701032 104.179 0.921032 104.719 1.01103 104.429L0.951035 105.899C0.951035 105.769 0.951042 105.699 1.02104 105.899C1.29104 107.189 0.901046 107.019 1.18105 108.529C1.18105 107.479 1.47104 107.789 1.61104 108.239L1.34105 110.409L1.74104 109.509C1.87104 111.599 1.42103 114.769 2.13103 115.779V114.779C2.25103 114.849 2.61104 115.439 2.52104 116.859C2.52104 117.309 2.27103 117.619 2.23103 117.019L2.43105 118.069C2.58516 116.476 2.58516 114.872 2.43105 113.279C2.36105 113.799 2.37105 115.079 2.15105 114.699C2.15105 113.239 2.22103 111.829 2.23103 110.419C2.16193 110.838 2.04447 111.247 1.88103 111.639C1.62103 110.079 2.01105 110.449 1.97105 109.259C1.83105 108.809 1.74103 108.499 1.66103 108.809C1.73021 107.389 1.70014 105.965 1.57103 104.549C1.57103 104.549 1.35106 106.329 1.19106 105.349C1.40106 102.419 1.80103 101.899 2.41103 98.8191C3.41103 95.2791 3.25105 91.8191 4.00105 89.3991C4.16105 89.2891 3.92104 91.2991 4.27104 89.7091C3.96104 89.9291 4.27105 88.7091 4.18105 88.6091C4.82105 86.9391 4.72105 86.0491 5.25105 84.8891C5.09105 85.1491 5.25105 84.1291 5.34105 83.4491C4.97105 83.5691 5.72103 81.5191 4.60103 83.9091C5.78103 81.4691 5.68104 79.289 6.96104 77.619C6.909 77.843 6.87224 78.0702 6.85103 78.2991C7.04103 77.4291 7.35105 76.5891 7.59105 75.7391V75.8491C7.94497 74.9426 8.1835 73.9951 8.30104 73.0291C7.99104 73.6291 7.66103 74.5391 7.35103 75.1391C7.57103 73.6991 8.60103 72.4291 9.16103 70.9591C8.92103 70.9591 8.52103 72.4791 8.41103 71.9591C8.78443 70.9811 9.20835 70.0231 9.68105 69.0891L9.51103 69.1791C10.311 66.4791 10.511 68.4391 10.981 66.3991C10.981 66.4891 11.2111 66.2891 11.2211 66.3991C11.4211 65.6591 11.9711 63.9491 11.0611 65.4691C11.4232 64.6844 11.8727 63.943 12.401 63.2591C12.231 64.0891 12.051 64.2591 12.141 64.6091L13.9411 61.1491C14.1211 60.7591 13.691 61.3791 13.451 61.8791C14.041 59.5991 15.451 57.7191 16.761 55.7191C18.071 53.7191 19.321 51.5991 20.571 49.3191C20.401 49.9191 20.941 49.1191 21.351 48.7991C22.271 47.3991 23.791 45.3791 24.591 44.0391L24.1911 44.3491C26.7711 41.2991 28.851 39.4691 30.461 37.3491C30.591 37.2891 30.291 37.2191 29.951 37.5491C31.351 36.2091 32.4711 34.0491 33.2511 34.0691L32.771 34.5991C35.6054 31.7433 38.669 29.1245 41.931 26.7691C42.431 25.9191 40.1411 28.1791 40.5011 27.3591C41.5011 26.4391 42.631 25.5891 43.761 24.7291C44.891 23.8691 46.0211 22.9591 47.2511 22.1191C46.8311 22.3591 46.8911 22.2591 46.6911 22.3791C49.0311 20.5191 46.6111 22.8391 48.6911 21.3791C48.4811 21.3091 48.551 21.2091 49.201 20.6691L49.961 20.4791C50.041 20.3791 49.911 20.2091 49.551 20.3491C50.681 20.0291 53.301 17.9191 54.231 17.7591C54.391 17.5791 53.671 17.6091 53.911 17.3291C54.8022 16.76 55.7549 16.2937 56.7511 15.9391V15.9391C57.487 15.383 58.2513 14.8657 59.041 14.3891C61.091 13.1191 59.461 14.3891 61.151 13.6691L59.551 14.7291L62.551 13.1691L61.301 13.6591C62.571 12.7291 64.221 12.4691 65.841 11.6591L65.171 12.1691L67.101 11.4491C67.101 10.9991 69.4611 10.3091 68.2511 10.3391C71.6411 8.48908 74.251 8.33906 77.521 7.25906C76.951 7.44906 77.141 7.25906 77.011 7.25906C78.394 6.68978 79.8528 6.32594 81.341 6.17907C81.061 6.09907 80.591 6.17908 80.551 6.11908C82.871 5.49908 82.0311 5.98906 84.6311 5.47906C83.8811 5.47906 84.081 5.34907 84.771 5.13907C84.701 5.30907 85.321 5.26906 85.771 5.19906C83.641 4.87906 88.581 4.19908 87.221 3.86908C87.401 3.99908 91.4811 3.38906 90.3911 3.97906L89.671 4.08908C89.671 4.33908 90.561 3.96906 91.301 3.91906C91.0319 3.94962 90.7602 3.94962 90.491 3.91906C92.371 3.76906 94.271 3.51907 96.221 3.23907C98.2277 2.8702 100.261 2.6662 102.301 2.62909C101.931 2.55909 100.221 2.49909 101.301 2.37909C104.906 2.16585 108.521 2.20259 112.121 2.48907C112.311 1.85907 107.571 2.48909 107.401 2.03909L110.761 1.97906C111.891 2.03906 113.031 2.15906 114.191 2.25906L121.311 2.94906C123.111 2.32906 126.021 3.94907 129.121 3.79907C128.801 3.99907 130.281 4.31909 131.921 4.56909C131.391 4.28909 133.121 4.56907 132.671 4.32907C134.041 4.88907 138.071 6.03907 138.031 5.51907C138.281 6.07907 141.031 6.27908 142.141 6.89908C143.981 7.15908 145.811 8.28908 148.031 8.89908C147.171 8.89908 150.131 9.81908 150.881 10.2191C150.661 10.1191 150.221 9.91906 150.351 9.91906C151.605 10.3137 152.82 10.8226 153.981 11.4391C154.561 11.5891 153.981 11.1191 154.831 11.5091C156.109 12.5008 157.546 13.2684 159.081 13.7791C158.781 13.6328 158.509 13.4329 158.281 13.1891C159.621 13.9391 161.011 14.6491 162.421 15.3391L166.481 17.7891L170.551 20.2791C171.877 21.1429 173.131 22.1127 174.301 23.1791L173.621 22.1791C177.021 24.1791 175.331 24.1791 177.831 25.9991C179.578 27.229 181.248 28.5649 182.831 29.9991L187.731 34.1991L192.051 38.8991C193.526 40.3903 194.864 42.0101 196.051 43.7391C196.331 44.2891 195.741 43.5391 195.561 43.5491C196.021 44.0991 196.381 44.0791 196.821 44.9691L196.541 44.9191C198.148 46.706 199.609 48.6188 200.911 50.6391C201.907 52.5685 203.137 54.3686 204.571 55.9991C206.397 59.0124 207.959 62.1774 209.241 65.4591C209.991 66.6391 208.841 63.8691 209.691 65.5391C210.161 66.8191 210.771 68.0391 211.111 69.3591L211.061 69.1391C211.821 73.0391 215.451 78.6091 216.061 83.6091V83.3991C216.161 83.2591 216.581 84.2091 216.731 84.9891C216.731 85.2891 216.531 84.7791 216.301 84.3391C216.751 86.4891 217.021 87.8091 217.301 88.9991C217.581 90.1891 217.611 91.3191 217.841 92.9991C217.841 91.4791 218.221 94.3391 218.511 94.4491C218.511 95.3891 218.151 93.9791 218.311 96.0091C218.491 97.4391 218.821 98.799 219.001 100.119C219.181 101.439 219.271 102.709 219.391 103.899C219.191 104.899 219.331 106.159 219.031 106.239C219.031 107.869 219.121 109.139 219.171 110.499C219.221 111.859 219.001 113.309 218.891 115.309L218.991 115.409C218.551 116.469 218.991 118.889 218.751 119.619C218.891 119.519 218.961 119.099 219.061 119.209L218.851 121.019C219.011 120.179 219.391 119.709 219.361 121.219C219.011 122.759 219.201 120.769 218.941 121.509C219.051 121.679 219.171 121.849 219.261 122.019C219.041 123.179 218.591 123.459 218.711 122.019C218.071 126.019 217.421 129.879 216.781 133.379L217.101 133.059C216.506 134.914 216.057 136.813 215.761 138.739C215.681 138.739 215.441 139.209 215.451 138.889C214.561 141.079 215.751 139.229 214.781 141.629C214.928 141.124 215.147 140.642 215.431 140.199C214.986 141.745 214.434 143.259 213.781 144.729C213.591 146.407 213.136 148.044 212.431 149.579C212.321 149.579 212.431 149.019 212.561 148.579L212.051 149.799V150.889L211.051 152.539L211.351 152.699C210.771 153.969 210.071 154.259 209.641 155.299C208.805 157.259 208.074 159.262 207.451 161.299C207.071 161.299 206.661 162.419 205.991 163.469C205.581 164.363 205.027 165.184 204.351 165.899C203.343 168.029 202.19 170.087 200.901 172.059C199.341 174.149 197.651 176.339 196.131 178.489L196.441 178.179C196.052 178.895 195.529 179.53 194.901 180.049C194.183 180.525 193.542 181.109 193.001 181.779L193.481 181.399C192.295 182.932 191.016 184.392 189.651 185.769C188.901 186.519 188.191 187.299 187.441 187.919L185.381 189.529C185.891 189.189 185.801 189.529 185.091 190.169C184.411 190.619 185.361 189.319 184.211 190.529C184.551 190.299 184.411 190.619 184.131 190.869L182.711 191.739L180.351 194.089C179.499 194.877 178.608 195.621 177.681 196.319C175.831 197.779 173.941 199.209 172.111 200.459C171.521 201.049 172.111 200.779 172.281 200.749C169.281 202.629 166.121 204.149 163.391 205.749L163.301 206.239C161.941 207.019 162.181 206.189 160.521 207.379C160.131 207.619 161.731 206.819 162.311 206.719C159.621 208.329 160.481 207.199 157.821 208.529H158.701C157.748 209.238 156.589 209.614 155.401 209.599C152.331 210.599 153.671 211.339 149.401 212.519C148.681 212.569 149.511 212.159 148.791 212.209C145.941 213.339 145.521 213.209 142.641 214.329C141.231 215.329 144.161 213.939 142.641 214.929C143.386 214.686 144.114 214.395 144.821 214.059C143.021 215.059 146.571 213.499 146.391 213.959C145.548 214.306 144.683 214.597 143.801 214.829C142.801 215.089 141.731 215.189 140.801 215.399C140.881 215.659 143.041 214.859 142.261 215.399L141.261 215.549C141.594 215.618 141.939 215.597 142.261 215.489C141.971 215.829 141.101 215.799 140.151 216.039C140.051 215.919 140.051 215.709 140.301 215.439C140.236 215.503 140.162 215.557 140.081 215.599C138.081 215.699 134.891 216.829 133.181 216.939C133.461 216.939 133.241 217.039 133.181 217.129C132.011 217.369 130.711 217.129 129.121 217.309C128.291 217.639 129.721 217.829 127.121 218.109C126.631 217.949 127.701 217.389 125.581 217.719C125.461 217.819 127.341 217.719 126.371 218.029ZM171.481 201.409C171.782 201.238 172.069 201.044 172.341 200.829V200.829C172.067 201.04 171.779 201.234 171.481 201.409V201.409ZM174.761 199.309C174.421 199.569 174.221 199.579 174.281 199.399L175.751 198.289C175.301 198.739 174.531 199.389 174.761 199.309ZM169.131 205.139H169.221L170.221 204.549C170.221 204.649 170.011 204.819 169.401 205.139C169.312 205.158 169.22 205.158 169.131 205.139V205.139Z" fill="#016C55"/>
<path d="M168.192 205.429L167.932 205.559L168.252 205.289H168.502L168.192 205.429Z" fill="#016C55"/>
<path d="M22.1706 45.5292L22.2206 45.4492C22.1853 45.5049 22.1583 45.5656 22.1406 45.6292L22.1706 45.5292Z" fill="#016C55"/>
<path d="M210.991 152.499L211.061 152.529L210.871 152.859L210.991 152.499Z" fill="#016C55"/>
<path d="M11.2104 66.3398C11.2158 66.4465 11.1952 66.5529 11.1504 66.6498C11.1577 66.5445 11.1779 66.4404 11.2104 66.3398V66.3398Z" fill="#016C55"/>
<path d="M91.291 3.97891H91.591C92.301 3.89891 91.821 3.95891 91.291 3.97891Z" fill="#016C55"/>
<path d="M56.7207 15.8992C57.0907 15.7592 57.4507 15.6192 57.8307 15.4492C57.2707 15.8192 56.8207 16.0692 56.7207 15.8992Z" fill="#016C55"/>
<path d="M59.3201 14.6494C58.849 14.9698 58.3504 15.2475 57.8301 15.4794C58.3122 15.1775 58.8095 14.9004 59.3201 14.6494V14.6494Z" fill="#016C55"/>
<path d="M34.1904 31.4294L33.9004 31.3394C34.7204 30.5994 33.9804 31.4094 34.1904 31.4294Z" fill="#016C55"/>
<path d="M43.6311 25.0791L42.9211 25.8791L42.3711 25.9991L43.6311 25.0791Z" fill="#016C55"/>
<path d="M47.8516 19.5393L47.4316 19.7793L49.0116 18.8193L47.8516 19.5393Z" fill="#016C55"/>
<path d="M143.702 4.82967L143.282 5.06969C142.572 4.82969 142.532 4.41967 143.702 4.82967Z" fill="#016C55"/>
<path d="M181.34 25.5791C182.072 25.9521 182.714 26.4812 183.22 27.1291C182.48 26.4891 181.68 25.8991 181.34 25.5791Z" fill="#016C55"/>
<path d="M217.352 142.7L217.682 141.89L217.182 143.46L217.352 142.7Z" fill="#016C55"/>
<path d="M18.7698 188.369C18.8498 188.559 18.6598 188.579 18.3398 188.159V187.709L18.7698 188.369Z" fill="#016C55"/>
<path d="M16.1506 185.989C15.8706 185.429 15.6106 184.739 16.0406 184.899C16.2206 185.529 16.3906 185.579 16.5706 186.279C16.8706 186.699 17.2106 186.929 17.2306 186.799C17.2906 186.979 17.7906 187.379 17.8506 187.699C17.1731 187.227 16.6261 186.59 16.2606 185.849C16.1006 185.739 16.1606 185.899 16.1506 185.989Z" fill="#016C55"/>
<path d="M19.1406 152.319C19.1956 152.191 19.2358 152.056 19.2606 151.919C19.2431 152.058 19.2026 152.193 19.1406 152.319Z" fill="#016C55"/>
<path d="M11.5102 127.109L11.2402 126.919C11.3401 126.967 11.4314 127.031 11.5102 127.109Z" fill="#016C55"/>
<path d="M19.1399 152.319C18.979 152.659 18.7075 152.934 18.3699 153.099C18.2499 153.059 18.9099 152.839 19.1399 152.319Z" fill="#016C55"/>
<path d="M12.6001 179.899C12.6721 180.035 12.7355 180.176 12.7901 180.319L12.5801 179.939L12.6001 179.899Z" fill="#016C55"/>
<path d="M8.33047 151.38L8.19049 151.61L7.98047 151.75L8.33047 151.38Z" fill="#016C55"/>
<path d="M10.6113 178.31L10.7313 178.59L10.6113 178.31Z" fill="#016C55"/>
<path d="M15.1914 147.469C15.2263 147.438 15.2671 147.414 15.3114 147.399C15.3114 147.399 15.2614 147.449 15.1914 147.469Z" fill="#016C55"/>
<path d="M61.6602 207.05C61.6602 207.05 61.7302 207.1 61.6602 207.05V207.05Z" fill="#016C55"/>
<path d="M73.3318 211.729L73.1718 211.659C73.1667 211.616 73.1667 211.572 73.1718 211.529L73.3318 211.729Z" fill="#016C55"/>
<path d="M18.4405 134.549C18.2905 134.269 18.3705 134.409 18.4405 134.549V134.549Z" fill="#016C55"/>
<path d="M38.9812 150.6C38.6512 149.6 38.9812 152.32 38.5312 150.79C38.6313 150.9 38.6912 149.32 38.9812 150.6Z" fill="#016C55"/>
<path d="M12.4409 179.699L12.2109 179.329C12.2959 179.447 12.3727 179.571 12.4409 179.699V179.699Z" fill="#016C55"/>
<path d="M14.7014 135.1C14.7116 135.196 14.7116 135.293 14.7014 135.39C14.7014 135.39 14.6614 135.3 14.7014 135.1Z" fill="#016C55"/>
<path d="M20.7305 140.09L20.9105 140.48C20.8305 140.33 20.7805 140.2 20.7305 140.09Z" fill="#016C55"/>
<path d="M23.1504 132.399C23.3528 132.496 23.5385 132.624 23.7004 132.779H23.6104C23.4894 132.618 23.3317 132.488 23.1504 132.399Z" fill="#016C55"/>
<path d="M29.1506 139.66L29.0306 139.53C29.0306 139.45 28.9406 139.35 28.8906 139.27L29.1506 139.66Z" fill="#016C55"/>
<path d="M42.4004 186.55C42.5238 186.648 42.6623 186.726 42.8104 186.78C42.6004 186.76 43.3504 187.9 42.4004 186.55Z" fill="#016C55"/>
<path d="M12.4914 179.979C12.5116 179.883 12.4937 179.783 12.4414 179.699L12.5814 179.959C12.5814 179.959 12.5414 180.019 12.4914 179.979Z" fill="#016C55"/>
<path d="M22.4199 134.05C22.7745 134.303 23.1089 134.584 23.4199 134.89C23.1035 134.59 22.7696 134.31 22.4199 134.05V134.05Z" fill="#016C55"/>
<path d="M26.0508 138.09C26.2671 138.248 26.4592 138.436 26.6208 138.65C26.6453 138.704 26.6621 138.761 26.6708 138.82L26.0508 138.09Z" fill="#016C55"/>
<path d="M48.1603 194.159C48.9603 195.289 48.4903 194.469 49.4403 195.299C49.7403 195.999 50.4403 196.299 50.2203 196.649C50.7103 196.809 50.5603 196.789 51.2803 197.309C50.8503 197.169 52.2803 198.649 52.0203 198.779C52.4803 198.839 51.2803 197.469 52.2703 198.089C52.6503 198.789 53.6103 199.879 53.4803 200.169C53.9822 200.506 54.46 200.876 54.9103 201.279C54.8072 201.182 54.7225 201.067 54.6603 200.939C55.6603 202.239 57.6603 203.689 58.1603 204.569C58.1603 204.039 60.9703 206.699 60.2303 205.569C60.7452 206.013 61.2296 206.491 61.6803 206.999C61.8303 206.659 63.1403 207.919 63.9103 208.109C64.5039 208.645 65.1468 209.124 65.8303 209.539C65.5503 209.349 65.4403 209.199 65.5803 209.179C66.2603 209.709 66.1403 209.479 66.8603 209.669C67.8603 210.289 66.5503 209.809 67.0903 210.279C68.0103 210.669 67.3203 210.149 67.5503 210.099C67.9303 210.439 68.3303 210.749 68.7403 211.099C68.9502 211.181 69.178 211.205 69.4003 211.169C69.8259 211.56 70.3588 211.814 70.9303 211.899C70.5287 211.757 70.1348 211.593 69.7503 211.409H70.2703C70.7003 211.689 71.1603 211.899 71.6003 212.149C73.7403 212.649 73.2003 212.049 73.1703 211.649L72.3803 211.289C72.4503 211.179 73.0303 211.289 73.3803 211.439C73.7303 211.589 72.2203 210.589 71.3803 210.229C69.0703 209.229 70.7303 210.429 69.1103 209.819C68.4503 209.479 67.8403 209.029 67.2103 208.639L67.1303 208.739C66.9095 208.684 66.7171 208.548 66.5903 208.359C66.5903 208.629 64.9903 207.489 64.2003 207.049H64.5603C62.6503 205.389 61.0303 205.149 59.5603 203.739L58.6503 202.619H58.2703C57.8404 201.964 57.3107 201.38 56.7003 200.889C52.8903 197.979 49.9203 193.719 46.7503 190.079C46.8203 190.079 46.9203 190.209 47.1403 190.409C44.0503 187.409 43.6603 184.729 41.0703 181.869L41.1503 182.139C40.0703 180.509 41.2303 182.409 40.3003 181.319C40.3903 180.929 39.0703 179.149 38.5103 178.159C38.6378 178.431 38.7814 178.695 38.9403 178.949C38.7703 178.809 38.5803 178.839 38.3003 178.349C37.9303 177.089 36.3503 174.909 35.3003 173.219C35.0103 173.129 33.8603 171.849 33.0803 171.319C33.0203 171.119 32.9203 170.729 32.8203 170.319C32.3891 169.907 32.0486 169.41 31.8203 168.859L32.8203 170.159V170.109C32.8682 170.19 32.9217 170.266 32.9803 170.339C33.2303 170.689 33.3503 170.889 33.2803 170.809C33.9003 171.349 33.3703 170.679 33.5803 170.589C33.1803 170.069 32.4203 168.949 32.2003 168.929C31.981 168.651 31.7473 168.384 31.5003 168.129C31.3709 167.891 31.213 167.669 31.0303 167.469L31.0903 167.589C31.033 167.567 30.9791 167.537 30.9303 167.499C30.0675 166.412 29.2918 165.258 28.6103 164.049C29.0703 165.049 28.2003 164.049 28.0403 164.179C27.9803 164.079 28.8203 165.069 29.8703 166.319C29.7803 166.239 29.6903 166.189 29.6103 166.219C28.5503 165.279 28.2403 164.219 26.7603 162.819C26.8303 162.929 26.9703 163.159 26.8403 163.139C26.4528 162.776 26.155 162.327 25.9703 161.829C25.2285 161.418 24.5786 160.86 24.0603 160.189C23.7906 159.643 23.409 159.159 22.9403 158.769L23.2203 159.249C22.1203 158.319 22.5203 158.249 21.5603 157.559C21.9503 157.839 21.8803 157.969 21.5603 157.759C20.9166 157.139 20.3493 156.444 19.8703 155.689V155.989C19.0003 155.039 17.1903 153.369 16.9903 153.599C17.6103 153.439 14.8303 151.769 13.8503 151.189C14.1803 151.409 14.1903 151.529 14.1903 151.589C12.2176 150.004 9.79736 149.077 7.27032 148.939L6.85031 149.269C5.55031 149.269 5.01033 148.699 3.50033 149.269C3.70033 149.269 3.90033 149.209 4.09033 149.209C3.01805 149.545 2.06173 150.176 1.33032 151.029C0.677888 151.792 0.236591 152.713 0.0503225 153.699H0.290313C0.0467301 154.526 -0.0447423 155.39 0.0203237 156.249C0.491619 157.637 1.03571 158.999 1.65033 160.329C2.42302 161.902 3.50053 163.306 4.82031 164.459L4.61032 164.869C5.34032 165.739 6.27032 166.869 6.86032 167.019L6.69034 166.849C6.84034 166.539 7.47033 167.649 8.03033 168.089C8.38033 168.479 8.63033 168.999 8.25033 168.729C10.5403 170.679 14.0103 173.479 15.8603 174.079C18.3803 175.659 20.4303 177.079 23.8603 177.389C25.0303 177.519 27.3603 177.119 27.2603 176.729C29.5803 176.289 31.3803 175.959 33.4403 173.809C33.261 173.934 33.0739 174.048 32.8803 174.149C33.4003 173.619 34.2903 172.849 34.5003 172.629C34.7103 172.409 34.5003 172.529 34.4203 172.529C34.7309 172.069 35.0859 171.64 35.4803 171.249L35.2503 171.369C36.3603 169.369 38.1803 166.279 38.6803 163.369C38.5203 163.889 38.4603 163.579 38.4503 163.369C39.1203 162.289 39.4503 159.059 39.5403 157.859L39.3403 158.589C39.7303 156.259 39.0403 156.589 39.2703 154.249L39.5203 155.579C39.4403 154.579 39.5203 153.829 39.6703 154.049C39.4703 152.949 39.3803 153.919 39.2203 152.279C39.1103 152.219 39.2203 153.469 39.0503 152.939C38.8903 152.189 38.7503 151.439 38.5403 150.709C38.4581 150.351 38.4079 149.986 38.3903 149.619C38.9003 149.739 38.1003 147.749 38.7603 148.809C38.1647 145.949 37.3455 143.141 36.3103 140.409C35.7201 139.536 35.2081 138.612 34.7803 137.649C34.2203 136.589 33.6403 135.729 33.4603 136.009L31.4103 132.749C31.6763 132.985 31.9026 133.262 32.0803 133.569C31.5096 132.652 30.7492 131.868 29.8503 131.269C30.7821 132.051 31.5502 133.009 32.1103 134.089C31.309 132.857 30.2642 131.803 29.0403 130.989C28.8628 131.035 28.6916 131.102 28.5303 131.189C28.3183 131.115 28.0891 131.103 27.8708 131.157C27.6524 131.21 27.4542 131.325 27.3003 131.489L26.4703 132.389L26.5203 132.129C26.1351 132.813 25.8457 133.547 25.6603 134.309C25.4382 134.985 25.3103 135.688 25.2803 136.399L25.4003 136.309C25.2698 137.131 25.3004 137.97 25.4903 138.779C25.4903 138.329 25.4303 137.879 25.4403 137.429C25.6503 137.559 25.7903 138.579 25.9503 139.019C26.0503 140.419 25.6603 139.549 25.7203 140.259C25.9703 140.529 25.8403 140.319 25.9703 139.799C26.0803 141.379 26.5803 143.449 26.7803 144.599C26.8403 144.659 26.8503 144.599 26.8503 144.599L27.7003 146.769C27.8984 147.209 28.1221 147.636 28.3703 148.049C28.6003 148.489 28.8803 148.559 29.1003 148.759L28.8303 148.469C28.9946 148.567 29.1487 148.681 29.2903 148.809C29.4603 148.889 29.7403 148.709 29.9403 148.659C30.3925 148.482 30.7773 148.167 31.0403 147.759C31.6003 146.969 31.5703 145.839 31.3203 145.819C31.2603 145.499 31.3203 145.819 31.2403 146.229C31.1603 146.639 31.1103 146.909 31.0603 146.229C31.0109 145.667 31.0109 145.101 31.0603 144.539C31.1466 144.034 31.0356 143.515 30.7503 143.089C30.8603 143.309 30.8003 143.249 30.7503 143.339C30.2456 142.005 29.6612 140.703 29.0003 139.439C27.8503 138.179 26.2103 135.059 24.4603 134.019C25.0103 134.349 24.2603 133.529 24.3103 133.479C24.3603 133.429 24.3103 133.569 24.2503 133.539C23.9698 133.29 23.742 132.988 23.5803 132.649C23.0603 132.359 21.8403 131.389 21.3503 131.429C21.3503 131.329 20.7103 131.179 19.9703 131.209C21.4303 131.389 20.4303 131.469 21.0303 131.689C20.2991 131.578 19.5576 131.551 18.8203 131.609C18.0221 131.687 17.2761 132.041 16.7103 132.609C16.4493 132.92 16.2183 133.255 16.0203 133.609C15.8303 133.609 15.4303 134.009 15.1603 134.469C14.8903 134.929 14.7103 135.399 14.6703 135.359C14.6703 135.749 14.5603 136.299 14.7303 136.249C14.6022 137.05 14.5354 137.859 14.5303 138.669C14.4716 138.395 14.4282 138.118 14.4003 137.839C14.6403 140.419 15.0803 142.029 16.3303 143.549L16.6903 143.249C17.1503 143.699 17.4303 144.189 17.8303 144.639C18.0226 144.898 18.2781 145.102 18.5723 145.234C18.8665 145.365 19.1895 145.419 19.5103 145.389C19.2703 145.459 19.1103 145.439 19.1403 145.479C19.4037 145.609 19.7014 145.651 19.9903 145.599C19.5555 145.71 19.0948 145.653 18.7003 145.439C18.2955 145.222 17.9276 144.942 17.6103 144.609C18.0122 145.207 18.6156 145.64 19.3103 145.829C18.797 145.699 18.3154 145.466 17.8943 145.144C17.4733 144.823 17.1216 144.42 16.8603 143.959C17.4603 144.959 17.5303 144.909 17.0003 144.639C17.4058 145.227 18.0034 145.655 18.6903 145.849C19.1124 145.977 19.56 145.994 19.9907 145.9C20.4213 145.805 20.8206 145.602 21.1503 145.309C21.6203 144.549 21.0403 145.159 21.3503 144.309C21.9903 142.599 20.8303 141.479 20.8003 140.549C20.6503 140.269 20.9703 141.079 20.8003 141.039C20.5752 140.498 20.4206 139.93 20.3403 139.349L20.6603 140.029C20.4984 139.374 20.2531 138.742 19.9303 138.149C19.7203 137.449 19.7403 136.969 20.0903 137.689C19.9803 137.379 19.5503 136.809 19.5403 137.099C18.6103 135.369 19.5403 136.009 18.3703 134.489C18.4303 134.609 18.4803 134.739 18.4203 134.689C18.1827 134.368 17.9624 134.034 17.7603 133.689C18.6503 135.119 17.1803 133.449 18.3103 135.079C17.9903 135.019 17.4603 133.839 17.0203 133.379C16.5903 132.509 17.2503 133.089 17.0203 132.619C16.9603 132.679 16.7403 132.349 16.4103 131.999L16.8503 132.249C16.6003 131.919 16.3503 131.619 16.0903 131.249L16.5303 131.929C15.9603 131.249 14.8903 130.429 13.9503 129.219C14.1803 129.559 14.6303 130.219 13.8503 129.579C12.7603 128.319 13.5203 129.359 12.7503 128.819C11.5603 127.689 12.7503 128.339 10.8403 126.819C10.6303 126.659 10.8903 126.719 11.1303 126.819C10.8136 126.566 10.4794 126.335 10.1303 126.129C9.69861 125.868 9.18719 125.773 8.69034 125.859C8.20885 125.971 7.78318 126.251 7.49032 126.649C7.24989 126.976 7.05166 127.332 6.90033 127.709C7.19033 127.059 7.49033 126.479 6.90033 127.339C7.23033 127.039 6.34033 128.619 6.25033 129.269L6.10031 129.399C6.03031 129.919 6.24033 129.399 6.43033 129.039C6.43033 129.039 6.43033 128.889 6.56033 128.609C6.99033 127.909 7.13032 128.329 6.70032 129.489C6.27032 130.649 6.03032 130.489 5.99032 130.199C5.61032 131.989 5.11032 131.779 4.99032 133.559C4.93032 133.969 5.21031 135.319 5.29031 136.559C5.08031 137.219 5.11034 134.999 4.94034 135.719C5.48034 137.789 4.78033 140.049 5.71033 142.719L5.89032 142.319C6.05032 142.939 6.21033 143.539 6.40033 144.239L6.00033 143.369C6.09033 144.009 6.64032 145.439 6.67032 144.899C6.8726 145.929 7.31072 146.897 7.95032 147.729C7.23032 146.479 7.89033 147.729 7.53033 146.729L8.91031 148.989C8.91031 148.799 9.32033 149.149 9.59033 149.439C10.3855 150.528 11.4095 151.429 12.5903 152.079V152.009C13.6178 152.607 14.7733 152.949 15.9603 153.009C16.5585 153.039 17.1581 153.009 17.7503 152.919C18.0835 152.88 18.397 152.741 18.6489 152.519C18.9008 152.298 19.0792 152.005 19.1603 151.679V151.679V151.549C19.1702 151.619 19.1702 151.69 19.1603 151.759C19.1603 152.279 19.4603 151.759 19.3803 150.959C19.2835 150.271 19.0037 149.622 18.5703 149.079C18.3479 148.999 18.1414 148.881 17.9603 148.729C18.1103 148.499 17.2503 148.059 16.9603 147.829C16.1203 147.609 16.9603 148.049 15.6003 147.689C15.0703 147.569 15.0103 147.469 15.0803 147.379C14.7603 147.459 13.8603 147.529 13.1403 147.729C13.4003 147.729 13.7903 147.599 13.9603 147.609C14.1303 147.619 13.5703 147.719 13.6003 147.889C12.9803 148.009 13.3003 147.699 12.5403 147.989C12.7934 147.974 13.0472 147.974 13.3003 147.989C13.0215 148.069 12.7375 148.129 12.4503 148.169C12.9203 148.069 12.9003 148.279 12.8703 148.399C11.1903 148.879 12.3503 148.049 12.2203 147.869C10.7991 148.5 9.55061 149.464 8.58032 150.679L8.91031 150.599C8.6585 150.931 8.38099 151.242 8.08032 151.529C7.90032 151.829 7.74033 152.129 7.59033 152.439C7.92033 151.939 8.09033 151.809 8.25033 151.859C7.66033 152.759 7.20031 154.159 6.85031 154.339H6.91031C6.51516 155.721 6.277 157.144 6.20032 158.579C5.87032 160.069 6.04033 162.009 5.75033 162.049C5.68033 162.969 6.20032 164.379 5.92032 165.049C6.22032 166.049 6.00034 165.049 6.19034 164.749C6.47034 165.749 6.19033 166.929 6.65033 167.209C6.74033 168.459 6.51033 166.939 6.40033 167.389C6.81033 167.579 6.93033 169.649 7.50033 170.699C7.50033 171.249 7.25031 170.219 7.35031 171.139C7.41031 171.019 7.58032 171.469 7.67032 171.699L7.51031 171.999C7.82031 172.309 8.15031 172.609 8.51031 172.909C8.89031 174.639 7.97032 172.729 8.77032 174.909V174.769C9.25032 175.249 9.27033 176.389 10.2503 177.769C9.93033 177.289 10.2503 177.509 10.2503 177.309L10.6103 178.189C10.6103 178.109 10.6103 178.069 10.6103 178.129C11.1703 178.769 10.8803 178.809 11.5103 179.559C11.2103 178.959 11.5103 179.039 11.7003 179.249L12.1803 180.559V179.909C12.8903 181.029 13.5903 182.969 14.3603 183.259L14.0203 182.689C14.1103 182.689 14.5303 182.869 14.9303 183.689C15.0603 183.939 15.0203 184.199 14.8003 183.889L15.2703 184.379C14.8498 183.453 14.3478 182.566 13.7703 181.729C13.8803 182.049 14.2903 182.729 14.0303 182.619C13.5503 181.829 13.1903 181.009 12.7703 180.219C12.853 180.478 12.9001 180.747 12.9103 181.019C12.2803 180.239 12.6303 180.309 12.2503 179.659C12.0203 179.449 11.8703 179.319 11.9103 179.509C11.5309 178.686 11.0826 177.897 10.5703 177.149C10.5703 177.149 10.9803 178.229 10.5703 177.739C10.0528 176.433 9.61211 175.097 9.25033 173.739C8.71033 171.509 7.57033 169.609 7.50033 167.979C7.57033 167.879 7.91031 169.099 7.76031 168.079C7.61031 168.299 7.50032 167.509 7.42032 167.469C7.50032 166.329 7.08033 165.859 7.18033 165.049C7.18033 165.239 6.99032 164.599 6.89032 164.179C6.66032 164.329 6.70032 162.939 6.49032 164.619C6.70032 162.909 6.26032 161.619 6.89032 160.369V160.799C6.89032 160.239 6.89032 159.679 6.89032 159.119V159.189C6.9717 158.579 6.98848 157.963 6.94034 157.349C6.81034 157.759 6.70033 158.349 6.59033 158.779C6.66797 157.812 6.9186 156.867 7.33032 155.989C7.13032 155.989 7.02031 156.989 6.88031 156.649C7.03963 156.003 7.26065 155.373 7.54031 154.769L7.42032 154.829C7.80032 153.069 8.08032 154.339 8.27032 153.029C8.27032 153.089 8.43032 152.969 8.45032 153.029C8.55032 152.559 8.95033 151.489 8.31033 152.409C8.54858 151.916 8.88954 151.48 9.31033 151.129C9.14033 151.629 9.01031 151.699 9.07031 151.959C9.49801 151.297 10.0126 150.695 10.6003 150.169C10.8003 149.989 10.3903 150.219 10.1703 150.469C10.56 149.877 11.0855 149.387 11.703 149.039C12.3205 148.691 13.0121 148.496 13.7203 148.469C15.174 148.372 16.6181 148.766 17.8203 149.589C17.4703 149.459 17.9003 149.839 17.9403 150.139C18.1022 150.326 18.2239 150.544 18.2978 150.779C18.3718 151.015 18.3965 151.264 18.3703 151.509C18.3424 151.706 18.2494 151.888 18.1062 152.025C17.9631 152.163 17.7779 152.249 17.5803 152.269H17.8603C16.827 152.389 15.7799 152.269 14.8003 151.919C14.0052 151.664 13.238 151.329 12.5103 150.919C12.5103 150.839 12.4403 151.059 12.6803 151.229C11.7503 150.519 10.2703 149.969 10.3403 149.409C10.4603 149.509 10.5603 149.609 10.6803 149.699C8.87033 148.099 7.95032 145.479 7.39032 143.119C6.98032 142.629 7.76032 144.489 7.33032 144.119C6.81266 142.392 6.4775 140.616 6.33032 138.819C6.33923 138.949 6.33923 139.079 6.33032 139.209C5.99032 137.339 6.59032 139.389 6.42032 137.809C6.30032 137.909 6.26032 137.809 6.17032 137.309L6.35031 136.829C6.35031 136.759 6.16032 136.769 6.11032 137.009C6.31032 136.299 6.20031 134.189 6.54031 133.669C6.54031 133.519 6.22033 133.889 6.15033 133.669C6.1605 133 6.3068 132.34 6.58032 131.729V131.729C6.61728 131.15 6.71787 130.576 6.88031 130.019C7.35031 128.569 7.08033 129.829 7.68033 128.849C7.5408 129.219 7.42062 129.597 7.32031 129.979C7.57438 129.338 7.88215 128.719 8.24032 128.129C8.06348 128.342 7.89985 128.566 7.75033 128.799C7.9222 128.35 8.16532 127.931 8.47034 127.559C8.56253 127.426 8.69425 127.326 8.84683 127.272C8.99941 127.218 9.16508 127.214 9.32031 127.259C9.22564 127.276 9.13839 127.321 9.07031 127.389C9.27031 127.389 9.35032 127.469 9.67032 127.719C9.92032 127.509 10.9903 128.719 10.6703 127.959C12.6703 129.399 13.4503 130.819 14.8203 132.499C14.5903 132.209 14.7203 132.289 14.7103 132.199C15.3559 132.889 15.8619 133.697 16.2003 134.579C16.2003 134.399 16.0503 134.129 16.1103 134.079C16.5678 134.813 16.9594 135.586 17.2803 136.389C17.1603 135.939 17.2803 136.029 17.5403 136.389C17.4103 136.389 17.5403 136.759 17.6603 137.039C17.5703 135.639 18.7503 138.569 18.7903 137.659C18.7403 137.789 19.5803 140.279 19.0403 139.659L18.9003 139.229C18.7303 139.229 19.0503 139.769 19.2003 140.229C19.1467 140.067 19.1131 139.899 19.1003 139.729C19.5149 140.794 19.8296 141.896 20.0403 143.019C20.0403 143.529 19.9403 143.969 19.7903 144.019C19.6403 144.069 19.4103 144.129 19.0003 143.799C19.1003 143.999 19.6503 144.269 19.2603 144.189C18.3719 143.67 17.6714 142.882 17.2603 141.939C16.7794 140.999 16.4584 139.985 16.3103 138.939C16.1103 138.939 16.2203 139.569 16.4603 140.219C16.7003 140.869 17.0503 141.509 16.9203 141.649C15.6303 139.329 15.3903 136.149 17.4403 134.359C17.555 134.065 17.7412 133.804 17.9821 133.599C18.2231 133.395 18.5112 133.254 18.8203 133.189C19.534 132.999 20.2728 132.922 21.0103 132.959C20.8303 133.099 21.5203 133.309 22.2503 133.869C22.0803 133.549 22.8703 134.139 22.7203 133.869C23.2903 134.469 24.9403 136.519 25.1403 136.219C25.0303 136.619 26.3703 137.749 26.5703 138.529C27.33 139.588 27.9991 140.708 28.5703 141.879C28.1603 141.519 29.0903 143.209 29.1803 143.739C29.1803 143.599 29.0503 143.309 29.1103 143.359C29.4803 143.739 29.5303 144.829 29.6503 145.479C29.7303 145.769 29.8603 145.399 29.8703 145.879C29.7023 145.987 29.5507 146.118 29.4203 146.269C29.4521 146.353 29.4923 146.433 29.5403 146.509C29.4603 146.509 29.4103 146.509 29.3903 146.389L29.3003 146.189L29.2203 146.009L28.9103 145.379C28.4929 144.503 28.1322 143.601 27.8303 142.679C27.2224 140.83 26.9845 138.88 27.1303 136.939L26.8703 137.619C26.5703 135.199 27.3103 136.039 27.4903 134.219C27.5497 133.739 27.7062 133.277 27.9503 132.859C28.2003 132.579 28.1303 132.589 28.4003 132.619C28.9041 132.849 29.3669 133.16 29.7703 133.539C30.2571 133.951 30.7086 134.402 31.1203 134.889C32.7727 136.956 34.0396 139.304 34.8603 141.819C34.9203 142.199 34.6903 141.639 34.5703 141.619C34.7503 142.029 35.0003 142.079 35.0903 142.699L34.9103 142.619C35.5574 143.99 36.0118 145.444 36.2603 146.939C36.4696 148.301 36.8044 149.64 37.2603 150.939C37.2603 153.219 37.7803 154.819 37.3203 157.579C37.3903 158.459 37.6303 156.579 37.5903 157.759C37.4703 158.619 37.3103 159.469 37.1503 160.309V160.169C36.7803 161.379 36.6603 162.969 36.3203 164.639C36.0509 166.295 35.4525 167.879 34.5603 169.299L34.6403 169.199C34.7703 169.199 34.5503 169.779 34.2603 170.199C34.1203 170.309 34.2603 169.999 34.3403 169.709C33.7965 170.513 33.1807 171.267 32.5003 171.959C31.946 172.55 31.3328 173.083 30.6703 173.549C31.4803 173.139 30.0903 174.139 30.0803 174.329C29.5403 174.479 30.2603 174.029 29.1403 174.469C27.7211 175.165 26.17 175.55 24.5903 175.599C24.0103 175.399 23.2503 175.339 23.2503 175.099C21.4415 174.745 19.7 174.107 18.0903 173.209H18.0003C17.5403 172.679 16.0503 172.269 15.7503 171.869C15.7503 171.989 15.9603 172.169 15.8603 172.199L14.9503 171.489C15.3503 171.869 15.4703 172.269 14.6603 171.749C13.9603 171.029 14.9603 171.749 14.6603 171.389H14.2603C13.6703 170.929 13.6803 170.569 14.4603 171.029C12.4984 169.601 10.6527 168.019 8.94034 166.299L9.00033 166.589C8.14033 165.679 7.00032 164.429 6.42032 163.959C6.42032 163.899 6.30032 163.609 6.42032 163.729C5.65032 162.439 6.10032 163.789 5.27032 162.369C5.47032 162.729 5.77032 163.139 5.74032 163.249C5.14032 162.429 4.57033 161.559 4.06033 160.719C3.25573 160.057 2.65007 159.185 2.31033 158.199C2.31033 158.119 2.58032 158.409 2.74032 158.689C2.63032 158.439 2.56034 158.189 2.47034 157.949L1.98032 157.489C1.95582 157.11 1.95582 156.729 1.98032 156.349H1.74032C1.64032 155.529 1.93034 155.199 1.94034 154.609C1.95319 153.972 2.07844 153.343 2.31033 152.749C2.46632 152.264 2.73341 151.823 3.09033 151.459C3.31033 151.579 3.82034 151.189 4.47034 150.909C4.96629 150.634 5.53985 150.532 6.10031 150.619C7.4778 150.344 8.90712 150.516 10.1803 151.109C11.7031 151.789 13.1594 152.609 14.5303 153.559L14.3303 153.369C15.6403 153.979 15.4703 154.569 16.7403 155.369L16.4803 155.079C18.5327 156.41 20.3619 158.057 21.9003 159.959C21.6703 159.639 21.9003 159.669 22.3403 160.099C22.7803 160.529 21.7503 159.989 22.5703 160.669C22.4103 160.459 22.6303 160.529 22.8103 160.669L23.3703 161.569C25.5501 163.529 27.5267 165.703 29.2703 168.059C29.6603 168.419 29.4903 168.059 29.4703 167.919C30.8503 169.709 32.0203 171.639 33.2003 173.309H33.5403C34.1203 174.129 33.5403 174.059 34.5403 174.979C34.7403 175.189 34.0503 174.269 33.9403 173.909C35.2803 175.419 34.4203 175.019 35.5503 176.569V175.979C36.1155 176.502 36.471 177.213 36.5503 177.979C37.4403 179.889 37.8703 178.849 39.2703 181.319C39.4003 181.769 39.0003 181.319 39.1303 181.779C40.3403 183.359 40.2903 183.679 41.5103 185.259C42.5103 185.859 40.9203 184.429 41.9403 185.129L40.9403 183.949C41.8903 184.879 40.3103 182.949 40.6503 182.949C41.3749 183.975 42.0426 185.04 42.6503 186.139C42.8103 186.019 41.8003 184.919 42.3703 185.239L42.6903 185.819C42.6598 185.615 42.5772 185.422 42.4503 185.259C42.7403 185.329 42.9003 185.879 43.2703 186.379C43.2103 186.479 43.0703 186.539 42.8203 186.459C42.8801 186.481 42.9346 186.515 42.9803 186.559C43.5003 187.769 44.9803 189.369 45.4703 190.379C45.4103 190.209 45.4703 190.309 45.5903 190.379C46.0603 190.999 46.3603 191.779 46.9503 192.649C47.4203 192.999 47.0803 192.119 48.0803 193.459C48.1403 193.799 47.4403 193.409 48.3403 194.459C48.3303 194.759 47.6503 193.729 48.1603 194.159ZM29.9703 168.699L29.5703 168.169L29.9703 168.699ZM28.5603 166.699C28.7303 166.909 28.7403 167.039 28.6203 167.009C28.3403 166.679 28.0703 166.369 27.8603 166.109C28.1703 166.329 28.6103 166.799 28.5603 166.649V166.699ZM32.6803 169.879V169.819L32.2403 169.199C32.3103 169.199 32.4403 169.309 32.6803 169.679C32.6885 169.729 32.6885 169.78 32.6803 169.829V169.879Z" fill="#016C55"/>
<path d="M32.9108 170.419L33.0008 170.579L32.8008 170.399V170.239L32.9108 170.419Z" fill="#016C55"/>
<path d="M19.2715 151.899C19.282 151.85 19.282 151.798 19.2715 151.749V151.899Z" fill="#016C55"/>
<path d="M8.53001 153.149C8.54527 153.212 8.54527 153.277 8.53001 153.339C8.52125 153.276 8.52125 153.212 8.53001 153.149V153.149Z" fill="#016C55"/>
<path d="M19.2109 140.319L19.2709 140.499C19.3909 140.899 19.3009 140.639 19.2109 140.319Z" fill="#016C55"/>
<path d="M22.3105 133.97L22.4205 134.05L22.3105 133.97Z" fill="#016C55"/>
<path d="M15.0508 183.539L15.2008 183.729L15.0508 183.539Z" fill="#016C55"/>
<path d="M15.2305 183.77L15.3705 184C15.3055 183.936 15.2574 183.857 15.2305 183.77V183.77Z" fill="#016C55"/>
<path d="M15.6611 184.469L15.3711 183.999C15.4939 184.138 15.592 184.297 15.6611 184.469V184.469Z" fill="#016C55"/>
<path d="M11.4512 178.12V178.02C11.4611 178.034 11.4663 178.052 11.4663 178.07C11.4663 178.087 11.4611 178.105 11.4512 178.12V178.12Z" fill="#016C55"/>
<path d="M10.541 176.359C10.771 176.779 11.241 177.359 11.541 177.929V178.019C11.441 177.689 10.621 176.829 10.541 176.359Z" fill="#016C55"/>
<path d="M8.71156 148.839L8.60154 149.039C8.20154 148.419 8.66156 148.989 8.71156 148.839Z" fill="#016C55"/>
<path d="M28.4518 138.119H28.1318C27.9018 137.659 28.0518 137.409 28.4518 138.119Z" fill="#016C55"/>
<path d="M26.2305 132.379C26.3086 132.04 26.4802 131.729 26.7258 131.481C26.9714 131.234 27.2813 131.06 27.6205 130.979C27.0083 131.27 26.5167 131.765 26.2305 132.379V132.379Z" fill="#016C55"/>
<path d="M105.85 75.8995C99.6299 77.6195 97.0699 80.4995 94.0099 85.2895C90.9499 90.0795 89.6199 95.7895 89.3099 101.459C88.9999 107.129 89.6999 112.819 92.5399 117.629C94.0199 120.119 96.0199 122.269 97.5399 124.779C99.4299 128.019 100.33 131.779 101.16 135.389C101.429 136.996 101.977 138.543 102.78 139.959C103.562 141.099 104.587 142.052 105.78 142.749C108.995 144.59 112.762 145.222 116.401 144.531C120.041 143.84 123.314 141.871 125.63 138.979C129.31 134.079 129.69 127.439 132.63 122.069C133.63 120.219 134.95 118.539 135.98 116.699C140.08 109.289 139.08 99.9295 135.62 92.1995C133.502 87.2064 130.142 82.8379 125.86 79.5095C121.531 76.188 116.08 74.6817 110.66 75.3094L105.85 75.8995Z" fill="#DDC4BA"/>
<path d="M148.291 104.02C148.381 113.38 145.291 121.76 140.351 129.55C138.821 131.97 137.201 134.35 135.501 136.65C131.672 141.659 129.671 147.827 129.831 154.13C129.792 155.969 129.659 157.804 129.431 159.63C129.311 161.72 128.647 163.744 127.503 165.498C126.359 167.252 124.776 168.677 122.911 169.63C117.761 172.55 112.471 173.37 107.081 170.41C105.369 169.341 103.729 168.162 102.171 166.88C101.754 166.521 101.317 166.187 100.861 165.88C100.166 165.465 99.5793 164.892 99.1483 164.207C98.7173 163.522 98.4544 162.745 98.381 161.94C97.761 158.35 97.271 154.73 96.381 151.21C94.921 145.53 93.321 139.87 91.491 134.29C90.651 131.74 89.111 129.41 87.931 126.97C83.9889 119.222 81.3694 110.871 80.181 102.26C79.481 96.4196 79.701 90.6296 82.341 85.2596C84.2601 81.1433 87.0958 77.5209 90.631 74.6697C94.1166 71.7754 97.9536 69.3328 102.051 67.3997C112.051 63.0397 121.601 64.3097 130.591 69.8497C137.606 73.9836 142.96 80.4337 145.731 88.0897C147.461 93.2212 148.326 98.6045 148.291 104.02ZM105.721 115.81C107.101 114.64 108.381 113.61 109.601 112.53C111.261 111.05 111.251 111.03 110.091 109.13C109.304 107.926 108.776 106.572 108.54 105.154C108.304 103.735 108.366 102.283 108.721 100.89C108.951 99.9597 109.461 98.9896 110.461 99.0096C111.275 99.1004 112.026 99.4886 112.571 100.1C113.756 101.401 114.513 103.035 114.74 104.78C114.967 106.525 114.653 108.298 113.841 109.86C113.671 110.2 113.611 110.86 113.841 111.08C116.051 113.25 118.581 114.79 121.841 114.78C122.116 114.81 122.393 114.737 122.617 114.574C122.84 114.411 122.995 114.171 123.051 113.9C123.351 112.84 123.741 111.81 124.141 110.79C124.42 110.046 124.851 109.367 125.405 108.798C125.959 108.228 126.625 107.779 127.361 107.48C127.941 107.189 128.597 107.088 129.238 107.19C129.878 107.293 130.47 107.593 130.931 108.05C131.36 108.49 131.634 109.058 131.712 109.668C131.789 110.278 131.666 110.896 131.361 111.43C130.878 112.611 130.108 113.653 129.122 114.463C128.136 115.273 126.964 115.825 125.711 116.07C125.219 116.138 124.766 116.375 124.429 116.739C124.092 117.104 123.891 117.574 123.861 118.07C121.701 128.29 121.861 138.59 122.761 148.92C122.82 149.311 122.904 149.699 123.011 150.08C124.141 149.69 125.141 149.32 126.141 148.99C126.427 148.918 126.68 148.754 126.861 148.522C127.042 148.29 127.141 148.004 127.141 147.71C127.456 144.958 128.371 142.309 129.821 139.95C131.631 136.95 133.491 134 135.501 131.15C138.907 126.479 141.566 121.308 143.381 115.82C145.741 108.33 145.311 100.82 143.951 93.1497C142.011 82.3097 130.951 71.5696 122.311 69.3196C117.681 68.0996 113.091 67.2297 108.311 68.4697C101.368 70.3286 95.0581 74.0331 90.051 79.1896C86.2905 82.7837 83.8494 87.5391 83.121 92.6896C82.6203 96.4874 82.7114 100.34 83.3911 104.11C84.8391 112.342 87.5725 120.296 91.491 127.68C93.7794 131.962 95.4813 136.533 96.551 141.27C97.101 143.78 97.771 146.27 98.421 148.75C98.511 149.1 98.751 149.58 99.031 149.68C101.763 150.653 104.624 151.219 107.521 151.36C108.111 140.11 107.601 129.05 104.521 118.16L103.421 118.39C100.421 119.04 98.421 117.89 97.521 114.91C97.3231 114.259 97.1957 113.588 97.1411 112.91C97.0298 112.308 97.1052 111.686 97.3572 111.129C97.6093 110.571 98.0258 110.104 98.551 109.79C99.1101 109.493 99.7462 109.373 100.375 109.446C101.004 109.52 101.595 109.782 102.071 110.2C103.452 111.2 104.497 112.594 105.071 114.2L105.721 115.81ZM108.961 151.34C109.075 151.396 109.196 151.436 109.321 151.46C113.064 151.746 116.829 151.473 120.491 150.65C121.241 150.49 121.131 150.04 121.071 149.5C119.851 140.497 119.901 131.368 121.221 122.38C121.521 120.51 121.891 118.64 122.221 116.98C120.401 116.598 118.615 116.07 116.881 115.4C115.293 114.523 113.778 113.52 112.351 112.4C110.611 113.86 108.931 115.4 107.121 116.77C106.795 116.944 106.544 117.231 106.411 117.576C106.279 117.921 106.275 118.302 106.401 118.65C108.201 126.65 109.711 134.65 109.301 142.97C109.121 145.72 109.051 148.51 108.961 151.34V151.34ZM99.021 151.27C99.261 152.88 99.5311 154.39 99.7011 155.91C99.7021 156.252 99.8258 156.582 100.05 156.841C100.273 157.1 100.583 157.269 100.921 157.32C109.301 159.45 117.601 158.74 125.861 156.62C126.121 156.55 126.511 156.25 126.531 156.03C126.671 154.32 126.731 152.61 126.831 150.73C117.886 153.979 108.116 154.169 99.051 151.27H99.021ZM100.021 158.55C100.021 159.39 100.101 160.05 100.131 160.7C100.241 163.22 100.241 163.2 102.771 163.77C108.793 165.068 115.02 165.092 121.051 163.84C122.409 163.532 123.745 163.134 125.051 162.65C125.371 162.54 125.801 162.27 125.861 162C126.121 160.85 126.251 159.67 126.461 158.31C122.144 159.491 117.704 160.162 113.231 160.31C108.764 160.607 104.283 160.008 100.051 158.55H100.021ZM124.331 164.9C117.741 166.34 111.171 167.13 104.331 165.62C111.841 172.29 119.941 169.54 124.331 164.9ZM104.151 116.44C103.911 114.771 103.139 113.225 101.951 112.03C101.476 111.581 100.91 111.24 100.291 111.03C100.127 110.955 99.9461 110.923 99.7661 110.937C99.586 110.952 99.4127 111.012 99.2625 111.112C99.1122 111.212 98.99 111.349 98.9075 111.509C98.825 111.67 98.7849 111.849 98.791 112.03C98.6585 112.816 98.7185 113.622 98.9658 114.379C99.2131 115.137 99.6403 115.823 100.211 116.38C101.351 117.37 102.701 116.9 104.151 116.44ZM112.211 109.11C114.041 106.8 113.121 101.75 110.651 100.63C109.301 102.65 110.051 106.9 112.211 109.11V109.11ZM124.801 114.37C126.981 113.86 128.591 112.91 129.451 111.01C129.586 110.416 129.61 109.802 129.521 109.2C128.873 109.127 128.218 109.181 127.591 109.36C125.711 110.39 125.401 112.36 124.801 114.37V114.37Z" fill="#534741"/>
<path d="M126.211 61.559C126.521 60.499 126.751 59.559 127.071 58.669C128.331 55.189 129.561 51.669 130.921 48.249C131.433 47.1534 132.075 46.1228 132.831 45.179C133.011 44.929 133.461 44.859 133.831 44.709C133.855 45.0444 133.828 45.3816 133.751 45.709C132.031 49.9623 130.298 54.209 128.551 58.449C128.111 59.539 127.721 60.649 127.261 61.729C127.171 61.929 126.821 62.019 126.601 62.169L126.211 61.559Z" fill="#534741"/>
<path d="M75.3315 95.5498C72.9415 96.4498 60.7815 94.1398 59.7715 92.6498C61.1715 92.0798 74.6515 94.5498 75.3315 95.5498Z" fill="#534741"/>
<path d="M75.9599 60.7197C78.4599 61.3997 87.3099 71.4197 87.0099 73.7197L75.6699 61.0297L75.9599 60.7197Z" fill="#534741"/>
<path d="M64.0502 77.0698C64.325 77.0538 64.6007 77.0739 64.8702 77.1298C68.8702 78.5398 72.8702 79.9498 76.8702 81.4298C77.3502 81.6098 77.6702 82.1998 78.0702 82.5998C77.5373 82.6897 76.9931 82.6897 76.4602 82.5998C72.6202 81.1598 68.8102 79.6698 64.9902 78.1598C64.6013 77.9502 64.2387 77.6951 63.9102 77.3998L64.0502 77.0698Z" fill="#534741"/>
<path d="M103.701 41.6895C105.661 47.8673 106.955 54.2367 107.561 60.6895L107.111 60.7794C105.778 54.4594 104.445 48.1261 103.111 41.7794L103.701 41.6895Z" fill="#534741"/>
<path d="M157.501 64.619C152.501 67.399 147.301 69.7291 143.271 73.9291L142.891 73.5891C143.073 73.2367 143.287 72.902 143.531 72.5891C146.226 69.7095 149.492 67.424 153.121 65.879C154.121 65.409 155.201 64.9591 156.261 64.5391C156.613 64.4252 156.974 64.3416 157.341 64.2891L157.501 64.619Z" fill="#534741"/>
<path d="M97.4203 64.8994C96.2703 64.1394 92.1903 54.2094 92.4903 52.8994C94.0503 53.5994 98.0503 63.3794 97.4203 64.8994Z" fill="#534741"/>
<path d="M152.891 92.569C157.848 90.009 163.193 88.2826 168.711 87.459L168.851 87.859L153.051 92.899L152.891 92.569Z" fill="#534741"/>
<path d="M144.121 56.0596L135.051 66.8996C134.441 65.0996 141.531 56.3696 144.121 56.0596Z" fill="#534741"/>
<path d="M116.541 48.3398C117.541 49.5098 117.341 58.8598 116.361 60.0198C115.521 58.9798 115.661 49.3898 116.541 48.3398Z" fill="#534741"/>
<path d="M159.721 76.6697L149.391 81.8997C149.671 80.1097 157.201 76.2197 159.721 76.6697Z" fill="#534741"/>
<path d="M155.102 101.17C158 100.213 161.058 99.8361 164.102 100.06V100.46L155.102 101.54V101.17Z" fill="#534741"/>
</svg>
