<svg width="459" height="459" viewBox="0 0 459 459" fill="none" xmlns="http://www.w3.org/2000/svg">
<path d="M453.78 260.901C453.52 261.491 453.13 261.101 453.4 259.421L454.26 258.311L453.78 260.901Z" fill="#1F686A"/>
<path d="M453.64 249.43C454.2 247.49 455.06 245.26 455.64 246.61C454.73 248.51 454.98 249.01 453.92 251.04C453.67 252.72 453.85 254.04 454.15 253.75C453.9 254.32 454.02 256.38 453.46 257.24C453.187 254.592 453.431 251.915 454.18 249.36C454.04 248.72 453.79 249.3 453.64 249.43Z" fill="#1F686A"/>
<path d="M410.34 94.4697L411.05 95.2697C410.8 95.0151 410.563 94.7481 410.34 94.4697V94.4697Z" fill="#1F686A"/>
<path d="M333.119 29.3095C333.799 29.6895 334.049 29.8995 334.049 29.9795C333.439 29.5995 332.939 29.2895 333.119 29.3095Z" fill="#1F686A"/>
<path d="M317.08 22.6504L318.08 23.0004C317.728 22.9457 317.389 22.8271 317.08 22.6504Z" fill="#1F686A"/>
<path d="M410.339 94.4699L408.52 92.4699C408.6 92.1299 409.499 93.4399 410.339 94.4699Z" fill="#1F686A"/>
<path d="M457.299 226.79C457.243 227.293 457.15 227.791 457.02 228.28C457.07 227.8 457.13 227.35 457.18 226.88L457.299 226.79Z" fill="#1F686A"/>
<path d="M432.97 133.18L433.31 133.93C433.33 134.179 433.33 134.43 433.31 134.68L432.97 133.18Z" fill="#1F686A"/>
<path d="M445.06 165.351C444.82 164.611 445.34 164.171 445.52 163.811C445.411 164.392 445.435 164.99 445.59 165.561C445.47 165.611 445.31 165.551 445.06 165.351Z" fill="#1F686A"/>
<path d="M455.03 218.92L454.93 219.92C454.96 219.64 455 219.22 455.03 218.92Z" fill="#1F686A"/>
<path d="M421.09 111.62C420.96 111.61 420.838 111.557 420.74 111.47C420.8 111.43 420.93 111.49 421.09 111.62Z" fill="#1F686A"/>
<path d="M257.039 456.799C257.039 456.799 257.039 456.729 257.039 456.689C257.239 456.729 257.299 456.759 257.039 456.799Z" fill="#1F686A"/>
<path d="M295.91 445.46L295.37 445.59C295.279 445.505 295.204 445.403 295.15 445.29L295.91 445.46Z" fill="#1F686A"/>
<path d="M286.92 13.1699H287.06C287.84 13.4699 287.39 13.3399 286.92 13.1699Z" fill="#1F686A"/>
<path d="M36.7198 115.5C37.8898 112.35 33.4298 119.79 35.3698 115.17C35.3498 115.69 38.4598 111.75 36.7198 115.5Z" fill="#1F686A"/>
<path d="M457.24 225.89C457.24 225.42 457.3 224.89 457.31 224.46C457.315 224.938 457.292 225.415 457.24 225.89V225.89Z" fill="#1F686A"/>
<path d="M35.3691 115.17L35.5791 114.7L35.3691 115.17Z" fill="#1F686A"/>
<path d="M214.77 5.84955C214.996 5.70537 215.242 5.59423 215.5 5.51953C215.47 5.58953 215.31 5.67955 214.77 5.84955Z" fill="#1F686A"/>
<path d="M269.03 7.92026L267.68 7.78027C268.132 7.80369 268.582 7.8504 269.03 7.92026V7.92026Z" fill="#1F686A"/>
<path d="M186.649 8.58008C186.018 8.7769 185.367 8.90762 184.709 8.97009L184.999 8.8501C185.56 8.85222 186.118 8.76095 186.649 8.58008V8.58008Z" fill="#1F686A"/>
<path d="M158.24 16.06L158.71 15.77L159.61 15.5L158.24 16.06Z" fill="#1F686A"/>
<path d="M166.58 449.28C167.082 449.3 167.584 449.246 168.07 449.12C167.5 449.42 171.7 450.78 166.58 449.28Z" fill="#1F686A"/>
<path d="M456.949 226.761C457.146 226.512 457.258 226.207 457.269 225.891L457.179 226.891C457.079 226.961 456.989 226.971 456.949 226.761Z" fill="#1F686A"/>
<path d="M184.509 3.9502C182.939 4.2202 181.409 4.69017 179.859 5.05017C181.39 4.60551 182.942 4.2384 184.509 3.9502V3.9502Z" fill="#1F686A"/>
<path d="M14.5293 307.83L14.8593 308.83C14.7025 308.514 14.5915 308.177 14.5293 307.83Z" fill="#1F686A"/>
<path d="M166.079 8.45996C165.288 8.91219 164.462 9.30011 163.609 9.61996C163.417 9.64048 163.222 9.64048 163.029 9.61996L166.079 8.45996Z" fill="#1F686A"/>
<path d="M196.83 455.96C201.22 456.86 198.3 455.96 202.39 455.96C204.62 456.96 206.82 456.3 207.21 457.38C208.72 456.77 208.31 457.01 211.15 456.7C209.86 457.2 216.4 457.7 216.15 458.38C217.34 457.66 211.48 457.04 215.15 456.47C217.61 457.29 222.26 457.47 222.62 458.41C224.546 458.144 226.486 457.99 228.43 457.95C227.969 457.954 227.511 457.872 227.08 457.71C232.4 458.47 240.23 457.55 243.29 458.42C242.15 457.29 254.58 457.42 250.43 456.55C252.607 456.435 254.789 456.479 256.96 456.68C256.6 455.75 262.4 455.76 264.7 454.79C266.02 455.15 269.92 454.31 272.35 454.17C271.27 454.25 270.67 454.17 271 453.85C273.74 453.76 273 453.49 275.18 452.59C278.85 452.14 274.67 453.47 276.95 453.46C280.02 452.56 277.29 452.75 277.77 452.23C279.38 452.23 281 452.23 282.62 452.15C283.302 451.964 283.932 451.621 284.46 451.15C286.29 451.175 288.102 450.785 289.76 450.01L285.76 451.01L287.14 450.14C288.76 449.96 290.36 449.71 291.98 449.49C298.45 446.84 295.98 446.43 295.25 445.59L292.52 446.21C292.52 445.84 294.29 445.11 295.46 444.74C296.46 444.19 290.85 444.96 287.89 445.6C280.01 447.7 286.56 447.23 281.16 448.8C278.77 449.16 276.36 449.48 273.96 449.8V450.16C273.286 450.442 272.541 450.505 271.83 450.34C272.42 450.78 266.06 451.57 263.16 452.07L264.16 451.46C255.93 451.62 251.46 454.26 244.91 454.17C243.37 454.02 241.84 453.85 240.31 453.66L239.39 454.37C236.7 454.08 236.21 453.59 231.85 453.88C216.4 455.17 199.93 452.28 184.54 449.88C185.086 449.79 185.644 449.79 186.19 449.88C183.08 449.673 179.998 449.157 176.99 448.34C175.61 447.98 174.29 447.62 172.99 447.21L169.29 445.81C166.86 444.81 164.47 443.98 161.96 443.07C159.306 442.035 156.578 441.2 153.8 440.57L154.51 441.08C148.63 438.9 155.22 441.65 150.81 440.41C150.3 439.29 143.58 436.98 140.41 435.2C141.207 435.729 142.046 436.191 142.92 436.58C141.963 436.71 140.991 436.493 140.18 435.97C137.866 434.226 135.375 432.727 132.75 431.5C129.75 429.83 126.44 428.04 123.7 426.5C122.7 426.68 117.79 424.29 114.84 423.64C114.37 423.13 113.55 422.2 112.84 421.31C111.103 420.518 109.527 419.413 108.19 418.05L112.53 420.88C112.496 420.84 112.465 420.796 112.44 420.75C112.664 420.943 112.901 421.12 113.15 421.28C114.34 422 114.95 422.38 114.64 422.28C117.12 423.11 114.7 421.83 115.18 421.38C113.32 420.44 109.9 417.82 109.18 418C108.12 417.33 107.39 416.95 106.25 416.33C105.592 415.778 104.886 415.286 104.14 414.86L104.46 415.15C104.268 415.131 104.079 415.084 103.9 415.01C100.261 412.523 96.9077 409.642 93.9 406.42C96.02 409.09 92.69 406.6 92.34 407.05C92.06 406.78 95.34 409.38 99.59 412.3C99.25 412.13 98.9599 412.05 98.7599 412.16C94.6899 410.11 92.9199 407.16 87.5399 403.49C87.8299 403.8 88.41 404.42 88.03 404.4C86.5889 403.504 85.412 402.241 84.62 400.74C83.83 400.8 79.81 397.86 78.12 396.06C77.1559 394.375 75.8918 392.88 74.39 391.65L75.39 393.12C71.84 390.18 73.05 390.12 70.12 387.71C71.29 388.71 71.12 389.04 70.24 388.32C68.3099 386.26 66.6713 383.945 65.37 381.44V382.32C62.76 379.18 58.49 372.77 57.74 373.32C59.46 373.55 52.74 366.02 50.53 363.24C51.25 364.24 51.17 364.55 51.14 364.73C49.14 361.56 47.14 358.43 44.83 355.44C42.52 352.45 40.48 349.28 38.43 346.14L37 345.61C35 342.13 36.08 340.22 33.91 336.53L34.2899 338.09C32.3999 334.79 31.36 332.32 30.15 330.09C28.94 327.86 27.86 325.87 26.56 323.09L26.0399 323.46C25.3999 321.32 24.26 318.81 23.61 316.67C21.97 314.67 20.24 309.91 18.53 304.67C17.73 302.03 16.88 299.26 15.94 296.67C15.1833 294.185 14.2544 291.756 13.16 289.4L14.16 288.52C13.08 285.16 12.4 280.7 11.16 279.28L11.3499 280.04C10.5599 280.59 10.5399 276.6 9.84995 274.5C9.63995 272.84 9.92995 271.09 10.36 272.5C7.84995 263.43 6.95995 249.5 5.60995 243.77C5.37995 239.07 5.82995 234.92 5.91995 230.71C6.00995 226.5 6.52996 222.22 6.61996 217.16L6.47995 217.28C6.57995 213.87 6.77996 207.01 5.79996 206.93C6.88996 199.65 8.73997 195.23 9.93997 186.62L9.23996 188.4C9.5281 186.2 10.0856 184.044 10.9 181.98C11.05 181.22 10.74 181.73 10.58 181.8C10.72 179.7 11.5099 178.61 11.9799 177.01L11.5099 177.59C12.2899 170.59 16.81 160.49 19.63 152.06C18.99 153.58 18.92 152.63 19 151.95C20.6023 149.508 21.943 146.903 23 144.18C24.32 141.02 25.87 137.94 26.71 136.28L25.44 138.06C29.06 131.73 26.99 131.82 30.94 125.71L29.61 129.71C30.79 127.01 32.11 124.89 32.22 125.71C33.5 122.53 31.5699 124.89 34.0399 120.35C33.8799 120.02 32.04 123.48 32.5 121.82L35.37 115.19C35.8344 114.129 36.4146 113.123 37.0999 112.19C37.9199 113.42 40.37 107.19 39.55 110.95C40.94 108.83 42.23 106.76 43.45 104.74C44.67 102.72 46.01 100.85 47.24 98.97C49.6264 95.274 52.3192 91.7851 55.2899 88.54C56.4099 84.83 66.52 75.42 64.77 74.99C66.47 73.19 68.08 71.62 69.58 70.29C70.9371 69.1308 72.3888 68.0871 73.92 67.17C73.1706 67.9547 72.3467 68.6647 71.46 69.29C72.7 68.7 77.04 64.66 78.83 62.95C76.22 64.9 72.19 68.28 69.89 69.58C73.3 66.58 78.1599 62.64 80.2599 61.25L80.5399 59.84C83.8299 57.84 82.49 57.22 85.92 55.39L85.5399 56.06C90.9299 51.67 91.54 52.27 96.72 48.49L96.28 48.37C98.01 46.97 101.16 45.74 102.46 43.84L99.0099 46.25C99.0099 45.51 101.48 43.41 102.5 42.31C106.31 39.95 104.37 42.31 106.29 41.12C106.77 40.12 106.29 40.73 104.69 41.12C106.86 39.85 109.39 38.36 111.8 37.03C113.892 35.893 116.072 34.9265 118.32 34.14C118.46 33.95 118.18 33.96 118.18 33.96C122.59 31.19 127.18 30.16 129.77 28.26L128.84 28.64C132.11 25.87 138.84 24.83 139.04 23.11C140.73 22.05 134.99 25 137.58 23.05C143.04 20.05 141.79 22.48 146.67 20.1C145.99 20.41 146.18 20.24 145.9 20.21L152.07 17.9L158.66 15.9C160.085 15.0753 161.593 14.4048 163.16 13.9C164.95 13.34 166.94 12.8 168.96 12.26C172.96 11.08 177.15 10.26 179.96 8.85001C178.16 9.77001 181.58 9.05999 181.63 9.26999C181.63 9.26999 181.36 9.2 181.63 9.06C182.731 8.72538 183.9 8.68745 185.02 8.95001C186.73 8.21001 191.16 8.29999 192.25 7.82999C192.33 8.13999 194.06 7.71 196.02 7.41C192.02 7.71 194.66 6.96999 192.82 6.79999C198.67 5.64999 199.82 7.2 205.82 6.13C206.92 5.77 208.04 5.55001 209.16 5.26001C209.93 6.08001 215.6 5.26 215.5 5.62C216.5 5.27 218.06 4.99 217.81 4.62C220.3 4.75 223.98 4.22 225.02 4.72L222.57 5.01001C230.22 4.37001 234.76 5.90001 240.64 5.45001V4.13C244.64 3.87 247.84 5.34001 251.29 4.82001C250.06 5.17001 249.83 4.94999 252.29 5.67999C250.81 5.53999 248.09 5.08999 245.62 4.89999L250.8 6.04001L242.66 5.09C246.13 5.86 245.88 5.70998 244.42 6.13998C249.33 6.92998 249.83 5.79999 254.48 6.89999C256.21 6.89999 254.48 6.24001 256.48 6.20001C260.63 7.09001 264.62 6.34001 267.48 7.54001C268.48 7.54001 265.77 7.21001 266.05 6.95001C268.74 7.52001 270.69 7.79 271.4 8.31L269.06 8.07001C271.06 8.36001 271.33 8.92001 275.22 9.45001C277.38 10.22 278.49 11.12 276.08 10.62C277.08 10.91 279.25 11.02 278.58 10.47C284.58 11.73 281.1 12.47 286.95 13.32C286.57 13.18 286.17 13.01 286.41 12.99C287.623 13.2131 288.819 13.5205 289.99 13.91C284.99 12.48 291.84 13.31 285.82 11.97C286.65 11.48 290.4 12.97 292.36 13.29C295.1 14.64 292.36 14.36 293.74 15.14C293.74 14.92 294.96 15.29 296.39 15.64L294.87 15.72C296.138 16.0866 297.386 16.5171 298.61 17.01L296.29 16.06C297.6 16.42 299.29 16.7 301.22 17.14C303.336 17.6945 305.395 18.4478 307.37 19.39C306.26 18.75 304.04 17.49 307.13 18.32C311.93 20.42 308.35 18.53 311.28 19.17C316.04 21.27 311.76 20.39 318.97 23.03C319.73 23.34 318.9 23.33 318.08 23.15C322.98 24.96 325.36 26.59 330.08 28.42C328.08 27.54 326.4 27.03 328.99 28.5C328.06 27.5 332.86 30.07 334.72 30.74L335.05 31.22C336.57 31.69 335.14 30.81 334.05 30.13C334.05 30.23 333.6 30.13 332.77 29.63C330.66 28.28 331.91 27.8 335.49 29.56C339.14 31.77 338.19 32.06 337.42 31.96C342.51 34.49 341.42 35.66 346.29 37.96C347.35 38.6 351.36 39.96 354.75 42.02C356.12 43.62 350.38 39.73 352 41.4C355.2 42.49 357.8 44.67 360.57 47.01C363.34 49.35 366.12 52.01 369.8 54.31L369.41 53.07C371.099 54.2718 372.709 55.5812 374.23 56.99L371.73 55.39C373.14 56.82 376.81 59.75 376 58.33C379.07 61.69 380 62.09 383.17 64.83C379.87 61.83 383.05 64.83 380.92 62.35C383.11 64.0355 385.121 65.9422 386.92 68.04C386.73 67.47 388.21 68.4 389.09 69.3C390.89 71.8 394.63 75.41 397.22 78.79L397.38 78.64C398.5 80.02 399.76 81.33 400.98 82.7C402.2 84.07 403.42 85.47 404.66 86.86C407.155 89.5722 409.392 92.5116 411.34 95.64V95.64L411.53 95.94L411.15 95.52C410.15 94.74 410.87 95.93 411.99 97.52C413.11 99.11 414.48 101.29 414.99 102.26C415.605 102.548 416.126 103.006 416.49 103.58C415.98 104.01 417.78 106.04 418.07 107.07C419.56 109.07 418.57 106.38 420.76 109.98C421.58 111.4 421.39 111.74 421.07 111.71C422.46 113.09 423.664 114.647 424.65 116.34C424.311 115.582 423.888 114.864 423.39 114.2C423.55 113.77 424.23 115.12 424.57 114.87C425.57 116.58 424.43 115.87 425.84 117.93L425.17 115.66C425.669 116.437 426.085 117.265 426.41 118.13C425.78 116.75 426.34 116.67 426.71 116.71C429.21 121.94 426.04 118.37 425.71 118.92C428.8 123.42 430.03 127.61 431.9 131.38L432.09 130.38C432.697 131.509 433.107 132.733 433.3 134L434.58 136.89C434.04 135.14 433.97 134.5 434.36 134.17C435.57 137.33 437.64 141.5 437.19 142.62L437.27 142.45C438.27 144.45 439.61 147.67 440.77 150.3C441.93 152.93 442.67 155.08 442.77 154.89C443.41 157.22 444.4 159.78 445 161.89C445.6 164 445.94 165.49 445.58 165.67C446.04 167.302 446.615 168.899 447.3 170.45C447.933 171.826 448.205 173.34 448.09 174.85C449.41 178.04 448.34 174.97 448.68 173.85C449.99 177.06 449.53 180.73 450.86 181.6C451.27 185.6 450.45 180.74 450.2 182.17C451.38 182.79 451.87 189.4 453.02 193.01C452.83 194.74 452.5 191.36 452.46 194.3C452.69 193.97 452.96 195.49 453.1 196.3L452.53 197.13L454.74 200.67C454.68 206.4 453.44 199.67 454.09 207.21V206.75C455.04 208.75 454.25 212.08 454.79 217.45C454.64 215.6 455.11 216.68 455.3 216.09C455.2 217.09 455.14 218.09 455.02 219.09C455.07 218.82 455.11 218.69 455.19 218.98C455.66 221.65 454.88 221.28 455.19 224.39C455.41 222.26 455.9 222.92 456.1 223.88L455.1 228.29L456.1 226.53C455.98 230.89 453.96 237.18 455.04 239.53L455.36 237.4C455.55 237.58 456.15 238.93 455.36 241.79C455.17 242.69 454.57 243.24 454.72 242.01V244.2C455.42 243.2 456.08 237.83 456.51 234.44C456.18 235.49 455.77 238.1 455.51 237.26C455.96 234.26 456.57 231.41 456.94 228.49C456.713 229.336 456.376 230.15 455.94 230.91C455.84 227.63 456.49 228.49 456.7 226.01C456.51 225.01 456.36 224.39 456.15 225.01C456.575 222.075 456.629 219.098 456.31 216.15C456.31 216.15 455.89 219.86 455.53 217.82C455.83 211.82 456.43 210.49 456.01 203.99C456.07 196.38 453.38 189.57 453.01 184.31C453.22 183.97 454.23 188.09 453.75 184.7C453.33 185.38 453.01 182.75 452.75 182.63C452.85 178.81 451.34 177.34 451.3 174.63C451.3 175.28 450.55 173.23 450.03 171.9C449.48 172.46 448.81 168 449.15 173.47C448.954 170.971 448.436 168.507 447.61 166.14C446.917 164.075 446.579 161.908 446.61 159.73C446.83 160.15 447.03 160.59 447.22 161.03C446.58 159.28 445.83 157.56 445.14 155.83L445.23 156.05C444.623 154.118 443.762 152.275 442.67 150.57C443 151.93 443.67 153.84 443.93 155.21C443.206 153.843 442.71 152.367 442.46 150.84C442.114 149.257 441.68 147.695 441.16 146.16C440.75 146.48 442.25 149.41 441.34 148.72C440.566 146.689 439.898 144.62 439.34 142.52L439.2 142.91C436.4 137.82 439.54 140.31 437 136.79C437.2 136.79 437.14 136.28 437.39 136.45C436.48 135.12 434.54 131.97 435.72 135.45C434.99 133.82 434.401 132.131 433.96 130.4C435.09 131.74 435.09 132.22 435.81 132.59C434.75 130.09 433.56 127.64 432.44 125.16C432.03 124.35 432.5 125.88 433.01 126.91C430.353 122.823 427.99 118.552 425.94 114.13C423.54 109.77 421.13 105.13 417.29 101.27C418.29 102.02 417.18 100.4 416.84 99.37C414.84 96.51 411.63 92.29 409.5 89.85L409.88 90.85C405.1 84.05 401.69 79.38 397.83 75.46C397.75 75.17 397.54 75.78 398.13 76.58C395.89 73.12 391.13 70.95 391.23 69.33L392.34 70.33C386.7 64.65 380.62 58.15 374.34 52.68C372.42 51.96 377.94 55.84 376.11 55.38L369.36 49.87C367.068 47.8774 364.646 46.0399 362.11 44.37C362.432 44.6576 362.739 44.9614 363.03 45.28C357.69 42.05 364.03 45.11 359.66 42.15C359.66 42.6 359.43 42.52 357.91 41.66L356.91 40.31C356.64 40.25 356.45 40.62 356.98 41.21C355.45 39.32 349.33 35.94 348.12 34.4C347.62 34.31 348.41 35.53 347.65 35.4C345.684 34.4247 343.842 33.2196 342.16 31.81V31.81C340.26 31.19 336.08 28.92 336.93 29.47C332.4 27.36 336.42 28.76 333.24 26.61L336.93 28.19L330.74 24.77L333.07 26.37C330.07 25.05 327.31 23.21 323.9 21.59L325.63 21.96L321.83 19.9C321.1 20.49 316.66 17.95 318.46 19.74C314.69 18.41 311.76 16.94 308.81 15.74C305.813 14.2928 302.731 13.0305 299.58 11.96C300.79 12.33 300.27 12.35 300.47 12.55C297.438 11.7351 294.501 10.5987 291.71 9.16C292.15 9.53 293.1 9.9 293.05 10.16C288.2 8.84 290.23 8.91 284.91 7.25C286.31 7.97 285.8 8.02 284.32 7.72C284.62 7.49 283.43 6.94999 282.46 6.60999C286.14 9.16999 276.23 5.92999 278.46 7.79999C278.27 7.39999 269.99 4.89999 272.53 4.79999L273.98 5.23999C274.24 4.83999 272.2 4.54001 270.67 4.29001C271.229 4.38925 271.768 4.57479 272.27 4.84C268.43 3.94 264.45 3.18998 260.33 2.63998C256.21 2.08998 251.95 1.55 247.53 1.13C248.29 1.35 251.82 1.9 249.53 1.87C240.77 1.44 235.71 0.36 226.8 0C226.41 0.93 236.41 0.22001 236.72 1.26001L229.67 0.889984L222.46 0.809998C217.58 0.629998 212.58 0.929989 207.35 1.01999C205.61 1.87999 203.1 2.14 200.2 2.28C197.3 2.42 194.03 2.57001 190.97 3.79001C191.48 3.18001 188.29 3.56 184.83 4.16C186.09 4.36 182.45 5.03 183.53 5.16C180.44 5.36 171.74 7.15999 172.33 8.07999C171.33 7.34999 166.02 9.92001 163.4 9.95001C159.78 11.32 155.45 12.36 150.93 14.15C152.31 12.94 146.32 15.62 144.57 16.04C145.05 15.9 146.03 15.6 145.83 15.78C144.69 16.85 140.4 17.3 138.05 18.78C137.05 19.49 138.55 19.17 136.74 20.05C136.55 19.71 129.52 22.14 127.37 23.99C127.993 23.6671 128.672 23.4668 129.37 23.4C117.37 28.4 105.96 36.31 94.7599 43.4L97.0999 42.64C90.9299 48.17 91.9799 44.82 86.8499 48.94C79.955 54.6408 73.4067 60.7484 67.24 67.23C61.11 73.92 55.12 80.64 49.61 87.42C48.61 88.29 49.8599 86.67 49.7599 86.31C48.8899 87.57 49.1 88.31 47.52 89.67V89.06C47.01 89.93 46.4 90.86 45.71 91.83C45.02 92.8 44.35 93.88 43.59 94.95C42.1 97.11 40.35 99.33 38.78 101.6C35.73 106.18 32.78 110.6 32.14 113.6C27.74 119.89 26.14 125.13 21.39 133.11C20.51 135.92 23.39 130.3 21.87 133.94C20.55 136.47 19.06 138.94 17.87 141.55L18.0999 141.14C13.7399 148.39 11.69 162.09 8.26996 171.86L8.44995 171.45C8.74995 171.28 8.57996 173.45 8.11996 175.05C7.79996 175.58 7.94995 174.46 7.94995 173.42C6.68995 177.87 5.94995 180.6 5.28995 183.1C4.62995 185.6 4.33997 187.94 3.62997 191.53C4.62997 188.53 3.43995 194.48 4.00995 194.88C3.38995 196.73 3.55996 193.69 2.70996 197.88C2.31996 200.88 1.98997 203.83 1.87997 206.63C1.76997 209.43 1.73996 212.11 1.67996 214.63C0.979962 216.63 1.04996 219.35 0.429962 219.46C0.289962 222.91 0.169957 225.6 0.0499569 228.46C-0.0700431 231.32 0.0499727 234.46 0.159973 238.68L0.379974 238.89C-0.430026 241.21 1.26996 246.2 0.899963 247.81C1.15996 247.55 1.19997 246.64 1.43997 246.81V250.67C1.53997 248.83 2.19996 247.74 2.51996 250.88C2.21996 254.2 2.07997 250.01 1.74997 251.65C2.01997 251.96 2.26997 252.26 2.55997 252.56C2.78997 255.03 2.06997 255.82 1.46997 252.82C2.02997 257.02 2.37997 261.23 2.96997 265.29C3.55997 269.35 4.17996 273.29 5.07996 276.97L5.35995 276.09C6.16995 280.19 7.30996 285.74 8.45996 288C8.34996 288.15 8.38997 289.2 8.05997 288.6C8.79997 293.6 8.94996 288.9 9.76996 294.32C9.56996 292.98 9.18995 291.32 9.38995 291.02C10.13 294.33 10.84 297.66 11.81 300.92C12.5831 301.927 13.197 303.047 13.63 304.24C14.46 306.16 15.45 308.58 16.13 310.62C16.01 310.84 15.31 309.79 14.87 308.78L15.71 311.41L17.2599 313.08L18.05 317.08L18.71 316.88C19.71 319.64 19.43 321.03 20.45 323.18C24.45 331.12 24.1 329.3 27.45 334.63C26.45 335.94 32.3099 343.38 32.3199 345.23L36.3199 350.9L40.72 357.45L45.56 364.29C47.18 366.6 49.0299 368.75 50.7599 370.89L50.2899 370.11C51.5487 371.283 52.5675 372.689 53.2899 374.25C54.1065 375.859 55.1618 377.336 56.42 378.63L55.74 377.54C58.13 379.79 61.05 383.19 64.09 386.45L68.37 391.34L72.06 395.42C71.27 394.42 72.06 394.54 73.44 395.95C74.44 397.31 71.63 395.49 74.34 397.74C73.8 397.04 74.49 397.31 75.08 397.85C75.75 398.85 76.51 399.7 77.22 400.63C84.22 406.35 92.93 412.45 100.41 418.08C101.95 418.9 101.05 417.96 100.84 417.54L109.84 423.87C112.84 425.87 115.84 427.74 118.69 429.49L119.64 429.17C122.5 430.76 120.89 431.17 124.99 432.51C125.88 432.86 122.5 431.18 121.62 430.36C127.73 432.84 124.73 432.79 130.38 435.57L129.29 434.06C133.82 435.71 134.07 436.76 135.45 437.97C141.23 441.71 140.45 438.46 148.73 442.53C149.94 443.46 148.06 442.94 149.27 443.87C155.45 445.87 156 446.64 162.27 448.46C165.98 448.19 159.09 447.56 163.07 447.46C161.45 447.14 159.88 446.64 158.29 446.22C162.52 446.95 154.69 444.82 155.56 444.32C157.39 444.865 159.181 445.533 160.92 446.32C162.92 447.14 165 447.9 166.92 448.61C167.08 448.06 162.3 447.23 164.36 447.01L166.36 447.82C165.859 447.386 165.257 447.084 164.61 446.94C165.5 446.63 167.02 447.59 168.96 448.16C169.02 448.48 168.81 448.86 168.05 449.07C168.238 449.033 168.432 449.033 168.62 449.07C172.39 451.14 179.45 451.92 182.79 453.42C182.26 453.12 182.79 453.19 182.96 453.1C185.44 453.56 187.86 454.72 191.18 455.55C193.07 455.44 190.33 454.16 195.64 455.25C196.53 455.84 194.01 456.35 198.54 456.91C198.57 456.91 194.67 456.06 196.83 455.96ZM102.75 418.7C102.33 418.44 101.69 417.99 100.96 417.44C101.535 417.89 102.132 418.311 102.75 418.7V418.7ZM96.39 413.61C97.12 414.11 97.27 414.49 96.89 414.49L93.7299 412.27C94.92 412.89 96.7 414 96.39 413.61V413.61ZM111.87 419.71L111.77 419.55L109.77 418.19C110 418.19 110.45 418.33 111.57 419.19C111.704 419.341 111.806 419.518 111.87 419.71V419.71Z" fill="#1F686A"/>
<path d="M113.239 421.18C113.409 421.3 113.489 421.37 113.709 421.51C113.439 421.41 113.179 421.33 112.929 421.21L112.619 420.78L113.239 421.18Z" fill="#1F686A"/>
<path d="M411.17 95.4095L411.05 95.2695C411.145 95.3658 411.248 95.4529 411.36 95.5295C411.24 95.4395 411.24 95.4595 411.17 95.4095Z" fill="#1F686A"/>
<path d="M17.8896 317.2L18.0396 317.15L18.1996 317.93L17.8896 317.2Z" fill="#1F686A"/>
<path d="M437.47 136.26C437.634 136.413 437.773 136.592 437.88 136.79C437.717 136.635 437.578 136.456 437.47 136.26V136.26Z" fill="#1F686A"/>
<path d="M445.3 155.86L446.48 158.62C445.94 157.44 445.58 156.56 445.3 155.86Z" fill="#1F686A"/>
<path d="M450.299 171.33C450.269 171.471 450.203 171.601 450.109 171.71V171.71L450.299 171.33Z" fill="#1F686A"/>
<path d="M270.869 3.9801L270.249 3.85009C268.809 3.49009 269.799 3.7001 270.869 3.9801Z" fill="#1F686A"/>
<path d="M342.3 31.6104C341.66 31.1004 341.02 30.6104 340.3 30.1104C341.52 30.7504 342.45 31.2804 342.3 31.6104Z" fill="#1F686A"/>
<path d="M185.03 3.83984L184.5 3.93985L185.03 3.83984Z" fill="#1F686A"/>
<path d="M337.16 28.4297C338.271 28.8735 339.331 29.4368 340.32 30.1097C339.33 29.5697 338.11 29.0597 337.16 28.4297Z" fill="#1F686A"/>
<path d="M456.24 241.22V242C456.24 242 456.17 242 456.14 242.09L456.24 241.22Z" fill="#1F686A"/>
<path d="M456.13 242.061L455.97 242.911C455.974 242.62 456.028 242.333 456.13 242.061V242.061Z" fill="#1F686A"/>
<path d="M455.65 244.739L455.97 242.939C455.963 243.553 455.855 244.161 455.65 244.739V244.739Z" fill="#1F686A"/>
<path d="M457.32 219.75L457.56 219.5C457.545 219.558 457.514 219.612 457.472 219.656C457.43 219.699 457.378 219.732 457.32 219.75V219.75Z" fill="#1F686A"/>
<path d="M457.32 213.15C457.636 215.185 457.776 217.242 457.74 219.3L457.56 219.5C457.95 218.48 457.01 214.66 457.32 213.15Z" fill="#1F686A"/>
<path d="M450.889 186.59C451.279 188.35 451.729 190.1 452.059 191.88C451.679 190.98 451.169 189.81 451.489 192.25C449.579 185.67 452.309 193.54 450.889 186.59Z" fill="#1F686A"/>
<path d="M446.829 170.3C447.469 173.14 446.509 170.36 446.399 170.55C446.099 168.72 446.019 168.28 446.829 170.3Z" fill="#1F686A"/>
<path d="M385.91 67.2502L385.72 67.8602C384.14 66.2802 385.86 67.6802 385.91 67.2502Z" fill="#1F686A"/>
<path d="M370.25 49.75L372.21 50.83L372.71 51.88L370.25 49.75Z" fill="#1F686A"/>
<path d="M356.799 44.8399L357.539 45.4699C356.539 44.7099 355.609 43.9099 354.609 43.1699C355.359 43.6999 356.069 44.2899 356.799 44.8399Z" fill="#1F686A"/>
<path d="M163.32 14.9499L163.76 14.0899C165.24 13.7999 165.78 14.4699 163.32 14.9499Z" fill="#1F686A"/>
<path d="M86.3898 55.7803C85.4579 57.1667 84.2322 58.3309 82.7998 59.1903C84.2398 57.8703 85.5698 56.3703 86.3898 55.7803Z" fill="#1F686A"/>
<path d="M15.3203 293.22L15.0703 291.47L15.7803 294.71L15.3203 293.22Z" fill="#1F686A"/>
<path d="M421.24 390.4C420.88 390.6 420.78 390.22 421.54 389.4L422.45 389.17L421.24 390.4Z" fill="#20696A"/>
<path d="M425.109 384.16C426.109 383.33 427.369 382.46 427.259 383.41C426.059 384.08 426.049 384.47 424.709 385.13C423.979 385.93 423.649 386.71 423.919 386.69C423.559 386.9 422.919 388.06 422.289 388.29C423.033 386.742 424.109 385.377 425.439 384.29C425.589 383.94 425.239 384.15 425.109 384.16Z" fill="#20696A"/>
<path d="M420.14 313.87C420.039 313.736 419.958 313.587 419.9 313.43L420.14 313.87Z" fill="#20696A"/>
<path d="M442.55 267.059C442.72 267.509 442.74 267.719 442.7 267.759C442.57 267.299 442.46 266.949 442.55 267.059Z" fill="#20696A"/>
<path d="M436.64 265.21L437.12 264.78C436.992 264.956 436.828 265.103 436.64 265.21Z" fill="#20696A"/>
<path d="M420.14 313.87C420.387 314.195 420.741 314.421 421.14 314.51C421.14 314.72 420.44 314.42 420.14 313.87Z" fill="#20696A"/>
<path d="M434.659 373C434.469 373.265 434.254 373.513 434.02 373.74C434.21 373.5 434.379 373.26 434.549 373.01L434.659 373Z" fill="#20696A"/>
<path d="M439.06 313.95L439.32 314.38C439.335 314.536 439.335 314.694 439.32 314.85L439.06 313.95Z" fill="#20696A"/>
<path d="M443.949 334.57C443.949 334.08 444.369 333.91 444.569 333.71C444.381 334.04 444.278 334.411 444.269 334.79C444.179 334.8 444.079 334.73 443.949 334.57Z" fill="#20696A"/>
<path d="M435.559 367.76L435.209 368.27L435.559 367.76Z" fill="#20696A"/>
<path d="M427.24 307.22C427.206 307.295 427.151 307.358 427.08 307.4C427.02 307.34 427.09 307.28 427.24 307.22Z" fill="#20696A"/>
<path d="M328.64 423.93C328.64 423.93 328.64 423.93 328.69 424C328.55 424.06 328.5 424.06 328.64 423.93Z" fill="#20696A"/>
<path d="M307.13 437.35L307.48 437.26C307.544 437.322 307.595 437.397 307.63 437.48L307.13 437.35Z" fill="#20696A"/>
<path d="M424.05 280.38V280.3C424.41 279.89 424.24 280.14 424.05 280.38Z" fill="#20696A"/>
<path d="M381.67 311.56C381.53 309.44 380.67 314.87 380.67 311.69C380.8 312 381.73 308.96 381.67 311.56Z" fill="#20696A"/>
<path d="M434.91 372.469L435.39 371.689C435.246 371.959 435.086 372.22 434.91 372.469V372.469Z" fill="#20696A"/>
<path d="M380.66 311.69V311.36C380.65 311.5 380.65 311.58 380.66 311.69Z" fill="#20696A"/>
<path d="M424.31 280.63C424.445 280.698 424.559 280.802 424.64 280.93C424.64 280.93 424.53 280.86 424.31 280.63Z" fill="#20696A"/>
<path d="M417.98 290.36L417.72 291.17C417.79 290.895 417.877 290.625 417.98 290.36V290.36Z" fill="#20696A"/>
<path d="M412.01 275.74C411.722 276.003 411.415 276.244 411.09 276.46C411.122 276.404 411.159 276.35 411.2 276.3C411.505 276.171 411.781 275.98 412.01 275.74Z" fill="#20696A"/>
<path d="M400.439 289.82C400.439 289.72 400.499 289.59 400.529 289.48L400.849 288.98L400.439 289.82Z" fill="#20696A"/>
<path d="M367.69 382.939C367.574 383.26 367.516 383.599 367.52 383.939C367.42 383.459 365.7 385.629 367.69 382.939Z" fill="#20696A"/>
<path d="M434.439 372.86C434.638 372.79 434.804 372.652 434.909 372.47L434.549 373.01C434.469 373.06 434.399 372.99 434.439 372.86Z" fill="#20696A"/>
<path d="M409.239 273.24C408.364 273.928 407.542 274.68 406.779 275.49C407.528 274.666 408.351 273.913 409.239 273.24V273.24Z" fill="#20696A"/>
<path d="M455.55 330.47L455.92 329.83C455.829 330.061 455.704 330.276 455.55 330.47V330.47Z" fill="#20696A"/>
<path d="M400.771 282.57C400.557 283.128 400.31 283.673 400.03 284.2C399.939 284.287 399.838 284.364 399.73 284.43L400.771 282.57Z" fill="#20696A"/>
<path d="M355.74 398.22C353.74 400.22 355.24 398.99 353.91 401.22C352.58 401.99 352.2 403.42 351.39 403.12C351.19 404.12 351.21 403.83 350.33 405.41C350.54 404.55 347.74 407.53 347.44 407.09C347.38 408.03 350 405.43 348.88 407.53C347.53 408.42 345.39 410.41 344.75 410.1C344.063 411.098 343.311 412.05 342.5 412.95C342.696 412.742 342.935 412.578 343.2 412.47C340.54 414.47 337.15 418.02 335.2 418.58C336.36 418.95 329.77 422.98 332.28 422.13C331.177 422.923 329.968 423.559 328.69 424.02C329.21 424.5 326 426.14 324.93 427.24C324.04 427.24 322.02 428.71 320.6 429.24C321.23 429.02 321.6 428.92 321.49 429.24C319.87 429.79 320.37 429.81 319.25 430.79C317.12 431.65 319.37 430.11 317.99 430.44C316.33 431.5 317.99 430.99 317.76 431.44C316.771 431.692 315.77 431.892 314.76 432.04C314.354 432.239 314.009 432.543 313.76 432.92C312.643 433.061 311.571 433.447 310.62 434.05C311.41 433.8 312.18 433.45 312.95 433.12L312.21 433.85C311.21 434.12 310.21 434.26 309.21 434.47C305.37 436.42 306.84 436.72 307.4 437.34L309.12 436.86C309.12 437.12 308.04 437.68 307.3 437.96C306.56 438.24 310.3 437.76 312.22 437.17C317.13 435.04 312.9 435.92 316.16 434.3C317.67 433.85 319.08 433.18 320.55 432.61L320.48 432.36C320.839 432.045 321.302 431.874 321.78 431.88C321.35 431.75 325 429.88 326.6 428.8L326.2 429.44C328.247 428.502 330.117 427.221 331.73 425.65C333.061 424.204 334.55 422.913 336.17 421.8L338.79 420.34L338.94 419.57C340.464 418.917 341.829 417.941 342.94 416.71C349.68 409.38 357.42 401.96 363.18 393.71C363.095 394.072 362.935 394.413 362.71 394.71C367.12 387.01 372 384.41 375.78 377.35L375.32 377.69C377.71 374.45 374.85 378.04 376.32 375.48C377.13 375.37 379.63 371.54 381.14 369.77C380.71 370.209 380.306 370.673 379.93 371.16C379.958 370.535 380.206 369.94 380.63 369.48C382.81 367.87 385.92 363.29 388.52 360.14C388.47 359.5 390.28 356.46 390.85 354.6C391.403 354.238 391.974 353.905 392.56 353.6C393.131 352.516 393.929 351.568 394.9 350.82L392.9 353.43H392.99C392.89 353.52 392.74 353.7 392.61 353.85C392.06 354.54 391.77 354.91 391.87 354.72C391.2 356.27 392.18 354.81 392.48 355.18C393.26 354.09 395.07 352.01 394.97 351.55C395.45 350.92 395.72 350.46 396.19 349.76C396.589 349.385 396.948 348.969 397.26 348.52L397.06 348.7C397.07 348.575 397.104 348.453 397.16 348.34C398.6 346.15 401.48 343.79 403.09 342.34C401.29 343.59 402.94 341.5 402.62 341.22C402.8 341.05 401.12 343.11 399.01 345.66C399.13 345.44 399.19 345.26 399.11 345.11C400.6 342.63 402.52 341.59 405.05 338.29C404.84 338.46 404.42 338.79 404.43 338.54C405.039 337.645 405.898 336.949 406.9 336.54C406.9 336 408.78 333.47 410.02 332.49C411.148 331.965 412.148 331.201 412.95 330.25L411.95 330.81C413.86 328.57 413.95 329.46 415.57 327.65C414.94 328.38 414.67 328.22 415.16 327.65C416.487 326.419 418.048 325.467 419.75 324.85L419.15 324.75C421.27 323.24 425.49 320.81 425.15 320.28C425.01 321.47 430.01 317.46 431.9 316.28C431.24 316.65 431.01 316.56 430.9 316.52C435.15 314.58 439.06 311.9 443.45 311.66L444.13 310.96C446.54 311.1 446.97 312.56 449.01 313.33C448.8 313.13 448.6 312.91 448.37 312.72C449.823 313.191 451.148 313.992 452.24 315.06C453.131 316.061 453.768 317.261 454.1 318.56L454.54 318.4C454.667 319.743 454.548 321.099 454.19 322.4C454.58 323.89 453.61 326.83 451.81 329.7C450.01 332.57 447.59 335.48 446.23 338.15L445.32 337.88C443.93 339.61 441.86 341.56 441.6 342.77L441.94 342.4C442.57 342.7 440.4 344.03 439.5 345.09C438.69 345.78 437.63 346.17 438.2 345.46C434.27 349.94 426.86 354.78 424.1 357.22C421.699 358.467 419.18 359.472 416.58 360.22C413.969 361.01 411.291 361.559 408.58 361.86L408.66 361.95C407.411 362.143 406.152 362.263 404.89 362.31C403.63 362.36 402.58 362.42 402.51 362.77C398.16 361.56 396.12 359.47 392.19 356.21C392.37 356.56 392.61 356.85 392.82 357.21C391.793 356.347 390.941 355.294 390.31 354.11C390.01 353.76 390.1 354.11 390.07 354.23C389.07 353.41 388.97 352.52 388.46 351.65V352.13C386.853 350.063 385.633 347.722 384.86 345.22C383.97 342.429 383.223 339.596 382.62 336.73C382.78 337.73 382.39 337.27 382.18 336.89C382.42 334.53 381.46 328.31 381.61 325.95L381.38 327.41C381.65 322.83 380.31 323.47 380.91 318.91L381.33 321.52C381.2 319.67 381.41 318.11 381.76 318.52C381.63 316.37 381.13 318.22 381.3 314.98C381.06 314.82 380.96 317.31 380.75 316.22C380.68 314.7 380.57 313.17 380.59 311.64C380.589 310.898 380.683 310.158 380.87 309.44C381.8 309.98 381.54 305.73 382.13 308.14C383.29 301.89 384.23 296.46 386.72 291.53C386.72 290.3 387.77 287.78 388.8 285.63C389.83 283.48 390.8 281.73 390.14 281.63C391.366 279.407 393.13 277.526 395.27 276.16C394.827 276.657 394.346 277.119 393.83 277.54C394.54 277.1 397.16 274.54 398.37 273.84C396.63 274.62 394.14 276.79 392.81 277.77C393.831 276.609 394.986 275.571 396.25 274.68C397.141 273.968 398.159 273.432 399.25 273.1C399.334 272.829 399.459 272.573 399.62 272.34C400.194 272.434 400.759 272.575 401.31 272.76C401.7 272.91 402.18 273.19 402.45 274.31C402.33 274.22 402.2 274.14 402.07 274.06C402.787 275.221 403.116 276.58 403.01 277.94C403.01 279.01 403.01 280.03 403.01 282.02L403.26 281.83C403.45 283.22 402.76 285.23 403.26 286.6C403.32 285.73 403.41 284.86 403.41 283.98C403.87 284.25 403.99 286.29 404.11 287.23C403.68 290.04 403.26 288.13 403.02 289.52C403.35 290.17 403.22 289.7 403.78 288.79C403.25 291.92 401.9 295.98 400.54 297.79C400.54 297.94 400.69 297.79 400.69 297.79C400.15 299.188 399.442 300.514 398.58 301.74C397.99 302.55 397.88 302.5 397.66 303.19L397.83 303.05C397.779 303.278 397.702 303.5 397.6 303.71C397.49 303.86 397.24 303.71 397.08 303.65C396.732 303.418 396.488 303.059 396.4 302.65C396.21 301.89 396.31 301.6 395.75 301.17C395.67 300.56 395.65 301.32 395.65 301.72C395.65 302.12 395.65 302.6 395.3 301.89C395.174 301.392 395.154 300.873 395.24 300.367C395.326 299.861 395.517 299.378 395.8 298.95C396.344 298.213 396.732 297.372 396.94 296.48C396.79 296.93 396.79 296.76 396.64 296.88C397.716 294.257 399.021 291.734 400.54 289.34C401.355 287.175 402.536 285.166 404.03 283.4C405.601 281.535 407.06 279.578 408.4 277.54C407.8 278.67 409.4 277.14 409.49 277.27C409.58 277.4 409.32 277.27 409.38 277.16C409.864 276.635 410.507 276.284 411.21 276.16C411.735 275.603 412.392 275.186 413.12 274.95C413.9 274.65 414.63 274.54 414.91 274.37C414.99 274.58 415.91 274.29 416.91 274.32C414.82 274.15 416.22 273.88 415.18 273.63C415.786 273.488 416.415 273.47 417.028 273.576C417.641 273.683 418.227 273.912 418.75 274.25C419.784 274.899 420.786 275.6 421.75 276.35C422.346 276.646 422.906 277.008 423.42 277.43C423.31 277.79 423.8 278.55 424.15 279.31C424.5 280.07 424.79 280.78 424.66 280.79C425.07 281.25 425.36 282.07 425.66 281.88C425.88 283.29 426.09 285.52 425.66 286.08C425.667 285.602 425.643 285.125 425.59 284.65C425.621 286.556 425.149 288.436 424.22 290.1C423.46 291.6 422.58 292.86 421.75 294.42L422.58 294.93C421.567 296.706 419.965 298.072 418.05 298.79C418.32 298.62 418.44 298.52 418.39 298.47C418.147 298.416 417.914 298.325 417.7 298.2C418.06 298.266 418.431 298.242 418.78 298.13C419.398 297.914 419.957 297.554 420.41 297.08C419.78 297.624 418.96 297.897 418.13 297.84C418.692 297.788 419.224 297.561 419.65 297.19C420.269 296.712 420.836 296.168 421.34 295.57C419.69 296.97 419.91 296.74 420.13 295.97C419.13 296.84 418.71 297.19 418.37 297.44C418.03 297.69 417.78 297.75 417.55 297.33C417.493 297.306 417.431 297.299 417.371 297.31C417.311 297.321 417.255 297.348 417.21 297.39C417.1 297.39 416.97 297.57 416.73 297.22C416.43 295.36 416.36 292.77 417.5 291.11C417.61 290.5 417.11 292.11 416.94 291.93C417.282 290.81 417.81 289.756 418.5 288.81L418.06 290.22C418.51 289 418.94 288.96 419.75 286.62C420.57 285.43 421.34 284.93 420.68 286.31C421 285.78 421.38 284.44 420.91 284.74C422.71 281.35 422.65 283.62 424.13 280.24C423.98 280.44 423.79 280.64 423.82 280.49C424.16 279.799 424.576 279.149 425.06 278.55C423.21 281.23 424.94 277.24 423.06 280.61C422.83 279.97 424.55 278.06 425.06 276.94C426.46 275.61 425.79 277.2 426.55 276.59C426.42 276.51 426.85 275.87 427.38 275.11L427.14 276.05C427.629 275.39 428.16 274.762 428.73 274.17L427.65 275.29C428.65 273.92 429.8 271.52 432.16 269.65C431.49 270.1 430.16 271.03 431.42 269.45C433.91 267.29 431.84 268.78 432.97 267.27C435.47 265.12 433.81 267.34 437.37 264.08C437.77 263.75 437.54 264.23 437.2 264.64C437.677 264.171 438.203 263.755 438.77 263.4C438.891 263.315 439.027 263.255 439.172 263.224C439.316 263.194 439.465 263.192 439.61 263.22C439.895 263.298 440.146 263.471 440.32 263.71C440.724 264.218 441.098 264.748 441.44 265.3C440.69 264.13 440.11 263.49 440.8 265.01C440.71 264.17 442.3 267.01 442.8 268.14L442.73 268.5C443.24 269.33 443.01 268.33 442.73 267.58C442.68 267.63 442.53 267.39 442.31 266.85C441.76 265.42 442.76 265.52 443.77 267.85C444.51 270.45 443.77 270.19 443.51 269.85C444.63 273.2 443.51 273.19 444.22 276.42C444.804 278.294 445.166 280.231 445.3 282.19C444.84 283.45 444.99 279.1 444.6 280.53C445.71 284.66 443.6 288.92 443.06 294.19L443.74 293.66C443.509 294.938 443.174 296.196 442.74 297.42C442.83 296.8 442.9 296.19 442.96 295.57C442.56 296.75 441.7 299.57 442.4 298.77C440.99 301.24 440.99 301.85 439.85 304.2C441.15 301.77 439.85 304.14 441.02 302.48C440.431 304.108 439.5 305.592 438.29 306.83C438.64 306.68 438.29 307.71 437.7 308.3C435.809 310.071 433.682 311.572 431.38 312.76L431.47 312.9C429.45 313.919 427.29 314.63 425.06 315.01C423.929 315.17 422.781 315.17 421.65 315.01C421.168 314.975 420.714 314.766 420.374 314.422C420.034 314.078 419.83 313.623 419.8 313.14V313.06C419.821 313.155 419.847 313.248 419.88 313.34C420.31 313.78 420.07 313.25 420.24 312.27C420.418 311.303 420.919 310.426 421.66 309.78C421.75 309.52 421.66 309.22 422.18 308.78C422.48 309.08 423.59 308.08 424.18 308.06C425.42 307.45 423.73 307.47 426.18 306.88C427.18 306.75 427.29 307.04 427.18 307.22C428.266 306.789 429.455 306.685 430.6 306.92C430.125 306.769 429.628 306.701 429.13 306.72C428.97 306.43 429.87 306.62 429.9 306.31C431.12 306.47 430.31 306.81 431.8 307.03C431.4 306.75 430.96 306.55 430.52 306.3C431.096 306.375 431.652 306.558 432.16 306.84C431.3 306.46 431.51 306.13 431.71 305.95C435.14 307.52 431.99 307.13 432.11 307.6C435.22 308.51 436.84 310.91 438.25 312.91L438.33 312.25C438.821 312.874 439.163 313.603 439.33 314.38C439.65 314.94 439.96 315.51 440.24 316.09C439.89 315.01 439.81 314.63 440.09 314.37C441.09 316.25 442.16 318.97 441.74 319.68L441.81 319.57C442.482 321.241 443.034 322.959 443.46 324.71C443.641 325.75 443.908 326.774 444.26 327.77C444.53 330.77 444.88 334.7 444.26 334.77C444.12 336.56 444.88 339.54 443.96 340.77C444.13 342.96 444.11 340.91 444.61 340.29C444.82 342.51 443.44 344.54 444.16 345.39C443.45 347.85 444.08 344.78 443.56 345.55C444.29 346.24 442.74 350.2 442.46 352.55C441.85 353.49 442.57 351.45 441.73 353.12C441.98 353.01 441.73 353.95 441.57 354.42L440.95 354.71C441.1 355.61 441.18 356.5 441.29 357.41C439.4 360.56 440.8 356.41 438.74 360.77L438.89 360.52C438.89 361.93 437.17 363.52 435.89 366.69C436.37 365.61 436.33 366.38 436.64 366.11L435.54 367.71C435.65 367.57 435.72 367.51 435.68 367.71C435.18 369.38 434.78 368.88 434.08 370.71C434.86 369.59 434.97 370.13 434.83 370.71L432.83 372.83L434.03 372.21C432.62 374.64 429.39 377.38 429.31 379.06L430.2 378C430.27 378.18 430.2 379.15 428.81 380.45C428.4 380.88 427.81 380.95 428.34 380.32L427.62 381.53C428.4 381.28 430.56 378.53 431.89 376.81C431.36 377.28 430.26 378.57 430.33 377.99C431.58 376.49 432.84 375.11 433.98 373.6C433.565 374.001 433.093 374.338 432.58 374.6C433.51 372.71 433.7 373.45 434.58 372.11C434.74 371.5 434.85 371.11 434.52 371.36C435.673 369.851 436.609 368.188 437.3 366.42C437.3 366.42 435.89 368.35 436.3 367.09C438.3 363.81 439.16 363.37 441.09 359.63C443.67 355.38 443.76 350.58 444.98 347.42C445.21 347.28 444.78 349.99 445.38 347.85C444.9 348.14 445.38 346.5 445.26 346.36C446.26 344.11 445.72 342.86 446.32 341.23C446.13 341.61 446.13 340.23 446.07 339.28C445.55 339.5 446.07 336.66 445.07 340.04C446.14 336.55 445.18 333.82 446.16 331.12L446.36 332.03C446.2 330.83 446.06 329.64 445.82 328.45V328.61C445.721 327.302 445.382 326.024 444.82 324.84C444.82 325.74 445.08 327.01 445.06 327.91C444.38 326.1 444.82 323.91 444.3 321.91C444 322.09 444.69 324.08 444.12 323.57C443.74 322.13 443.67 320.84 443.34 319.47L443.21 319.72C441.56 316.39 443.69 317.98 442 315.72C442.14 315.72 442.11 315.37 442.29 315.48C441.66 314.61 440.2 312.73 441.1 314.9C440.554 313.885 440.073 312.836 439.66 311.76C440.54 312.51 440.55 312.84 441.09 313C440.232 311.387 439.151 309.902 437.88 308.59C437.43 308.18 438.1 309.03 438.6 309.59C436.1 307.59 433.45 305.59 430.05 304.99C428.335 304.614 426.554 304.658 424.86 305.12C423.052 305.578 421.471 306.676 420.41 308.21C420.77 307.39 419.78 308.36 419.2 308.89C418.286 310.186 417.887 311.776 418.08 313.35C418.211 314.28 418.703 315.12 419.45 315.69C420.069 316.132 420.801 316.389 421.56 316.43C421.33 316.31 421.09 316.19 420.87 316.05C423.018 316.565 425.248 316.637 427.424 316.262C429.601 315.887 431.678 315.073 433.53 313.87C433.74 313.87 433.34 313.62 432.74 313.87C435.38 312.87 436.82 309.71 437.89 309.8C437.68 310.05 437.48 310.31 437.25 310.55C441.169 306.63 444.055 301.799 445.65 296.49C445.5 295.14 444.73 299.49 444.44 298.22C445.568 294.564 446.331 290.806 446.72 287C446.656 287.269 446.572 287.533 446.47 287.79C446.53 283.79 446.97 288.29 447.18 284.91C446.92 285.08 446.86 284.91 446.8 283.78L447.25 282.78C447.19 282.61 446.87 282.63 446.73 283.12C447.4 281.65 446.89 277.12 447.2 275.91C447.04 275.62 446.64 276.51 446.4 276.06C446.148 274.67 446.005 273.262 445.97 271.85V271.85C445.41 270.67 444.47 267.76 444.61 268.4C443.29 265.47 444.75 267.82 444.04 265.4C444.5 266.15 444.88 266.94 445.27 267.74C444.772 266.262 444.153 264.827 443.42 263.45C443.64 264.03 443.88 264.61 444.05 265.21C443.48 264.27 443.05 263.36 442.44 262.27C442.046 261.621 441.496 261.081 440.84 260.7C440.082 260.305 439.2 260.219 438.38 260.46C438.887 260.208 439.444 260.075 440.01 260.07C438.665 259.899 437.306 260.258 436.22 261.07C436.22 261.76 433.5 263.43 435.1 263.07C431.36 266.57 428.51 268.4 425.44 272.01C425.94 271.37 425.85 271.71 426.03 271.64C424.831 273.267 423.493 274.786 422.03 276.18C422.38 276.01 422.8 275.5 422.94 275.59C421.13 278.29 421.51 277.01 419.48 280C420.2 279.27 420.15 279.61 419.72 280.49C419.6 280.24 419.04 280.88 418.66 281.43C421.02 279.65 417.21 285.2 418.88 284.15C418.53 284.15 415.77 289 415.98 287.37L416.46 286.51C416.21 286.27 415.75 287.51 415.38 288.51C415.62 288.04 415.9 287.51 415.98 287.58C415.384 288.733 414.86 289.922 414.41 291.14C413.843 292.491 413.505 293.928 413.41 295.39C413.351 296.241 413.432 297.095 413.65 297.92C413.911 298.968 414.517 299.897 415.37 300.56C416.304 301.24 417.464 301.537 418.61 301.39C419.606 301.241 420.552 300.857 421.37 300.27C420.819 300.571 420.235 300.806 419.63 300.97C418.98 301.1 418.7 301.1 419.63 300.74C420.982 300.066 422.17 299.103 423.11 297.92C423.93 296.99 424.67 296.09 425.37 295.14C426.987 293.037 428.179 290.639 428.88 288.08C428.53 287.87 428.19 289.52 427.53 291.08C426.87 292.64 426.02 294.21 425.63 294.08C427.391 291.315 428.458 288.166 428.74 284.9C429.032 281.18 427.834 277.497 425.41 274.66C424.09 274.07 422.81 272.81 420.87 271.78C419.816 271.172 418.635 270.817 417.42 270.742C416.206 270.667 414.99 270.875 413.87 271.35C414.26 270.85 411.64 271.35 409.58 272.91C410.44 272.65 408.35 274.23 409.08 273.97C407.08 274.97 403.22 279.33 403.97 279.64C403.05 279.57 401.35 283.01 400.05 284.1C398.87 286.32 397.05 288.6 395.83 291.55C395.89 290.33 394.27 294.3 393.7 295.33C393.85 295.03 394.16 294.44 394.16 294.62C393.984 295.477 393.673 296.3 393.24 297.06C392.753 298.118 392.494 299.266 392.48 300.43C392.61 301.43 392.87 300.2 392.91 301.75C392.82 301.75 392.76 302.25 392.82 303.09C392.876 304.122 393.192 305.123 393.74 306C394.299 306.936 395.144 307.669 396.15 308.09C396.63 308.24 397.09 308.37 397.52 308.46L397.83 308.53C397.92 308.53 397.97 308.41 398.04 308.36C398.11 308.31 398.28 308.12 398.39 308.01C398.19 308.17 398.04 308.28 397.92 308.36C397.8 308.44 397.63 308.27 397.52 308.24L396.8 307.83C397.13 307.96 397.49 308.07 397.8 308.18L398.55 307.61L399.31 307.03C399.446 306.935 399.573 306.828 399.69 306.71L400.05 306.15L401.47 303.87L402.26 302.39C403.252 300.405 404.078 298.341 404.73 296.22C405.98 291.951 406.735 287.552 406.98 283.11L406.42 284.66C406.12 281.94 406.23 281.06 406.48 280.28C406.923 279.114 406.997 277.839 406.69 276.63C406.37 274.814 405.622 273.1 404.51 271.63C403.761 270.673 402.745 269.959 401.59 269.58C400.365 269.209 399.048 269.28 397.87 269.78C396.329 270.557 394.935 271.596 393.75 272.85C392.663 273.939 391.66 275.109 390.75 276.35C387.13 281.29 384.86 286.63 382.64 291.81C382.2 292.53 382.64 291.29 382.46 291.08C382.18 292.08 382.46 292.45 381.78 293.6L381.61 293.22C381.11 295.79 379.85 299.29 379 302.76C378.15 306.23 377.58 309.59 378 311.56C377 316.42 377.56 319.91 377.12 325.9C377.49 327.77 377.48 323.69 377.71 326.22C377.65 328.07 377.71 329.92 377.71 331.78V331.48C377.771 334.832 378.449 338.144 379.71 341.25C380.99 344.79 382.71 348.25 384.13 351.4L384.02 351.12C384.12 350.89 385.02 351.97 385.54 352.95C385.61 353.35 385.17 352.76 384.69 352.28C385.698 354.27 386.929 356.138 388.36 357.85C389.607 359.349 391.03 360.693 392.6 361.85C391.04 360.34 394.36 362.85 394.81 362.49C395.81 363.35 393.88 362.56 396.4 364.09C398.219 364.969 400.167 365.549 402.17 365.81C403.972 365.989 405.788 365.989 407.59 365.81C408.99 366.14 410.78 365.81 410.94 366.2C415.194 365.565 419.309 364.212 423.11 362.2V361.99C424.75 361.84 427.16 359.37 428.17 359.08C427.93 358.99 427.39 359.24 427.43 359.08L429.61 357.86C428.54 358.38 427.7 358.29 429.33 357.1C431.33 356.24 429.01 357.66 430.05 357.35L430.27 356.55C431.59 355.67 432.27 355.89 430.82 357.17C435.168 354.217 439.236 350.869 442.97 347.17L442.36 347.29C444.365 345.556 446.137 343.57 447.63 341.38C447.76 341.38 448.33 341.01 448.14 341.38C450.57 339.21 447.93 340.77 450.53 338.38C449.9 338.99 449.14 339.79 448.9 339.77C450.4 338.17 451.81 336.55 453.22 334.77C453.07 334.55 454.86 330.9 456.12 328.33C456.3 328.33 456.12 329.13 455.86 329.8C456.18 329.27 456.46 328.71 456.74 328.16C456.74 327.64 456.74 327.16 456.74 326.6C457.209 325.802 457.623 324.974 457.98 324.12L457.5 323.97C457.96 322.03 458.68 321.22 458.5 319.43C458.319 317.502 457.59 315.667 456.4 314.14C455.527 313.047 454.471 312.113 453.28 311.38C453.41 310.84 451.91 309.72 450.15 309.09C448.39 308.46 446.5 308.23 445.98 307.83C442.578 307.872 439.216 308.571 436.08 309.89C432.729 311.314 429.563 313.137 426.65 315.32L427.24 315.06C424.98 317.06 423.97 316.37 421.47 318.51L422.21 318.13C419.1 320.96 413.32 325.44 410.21 327.95C410.89 327.48 410.81 328 409.88 328.87C408.97 329.49 410.15 327.65 408.68 329.36C409.14 329.03 408.97 329.49 408.61 329.85C407.98 330.26 407.33 330.66 406.72 331.09C402.91 335.46 398.81 340.82 394.89 345.3C394.34 346.3 394.98 345.75 395.27 345.65C392.27 349.26 389.15 352.78 386.57 356.15L386.76 356.83C385.55 358.51 385.32 357.37 384.15 359.83C383.86 360.36 385.22 358.4 385.85 357.94C383.77 361.57 383.96 359.61 381.72 362.94L382.84 362.46C382.205 363.925 381.061 365.111 379.62 365.8C376.56 368.88 378.87 368.99 375.09 373.44C374.31 374.01 374.89 372.92 374.09 373.5C371.88 376.94 371.25 377.09 369.01 380.5C368.51 382.81 370.22 378.81 369.55 381.25L371.18 378.59C370.05 381.07 372.69 376.67 372.9 377.33C371.416 379.434 369.796 381.438 368.05 383.33C368.39 383.58 369.86 380.88 369.62 382.2L368.69 383.2C369.077 383.024 369.402 382.735 369.62 382.37C369.62 382.99 368.73 383.67 367.96 384.7C367.73 384.64 367.52 384.41 367.53 383.89C367.532 384.015 367.505 384.138 367.45 384.25C365.45 386.02 363.14 389.84 361.37 391.32C361.69 391.11 361.53 391.37 361.54 391.53C360.61 392.81 359.13 393.72 357.7 395.28C357.21 396.37 358.86 395.36 356.56 397.87C355.91 398.11 356.41 396.57 354.56 398.76C354.59 398.77 356.4 397.06 355.74 398.22ZM394.48 346.85L395.36 345.77C394.92 346.32 394.66 346.62 394.48 346.85ZM398.01 343.04C397.65 343.48 397.39 343.55 397.39 343.29L398.95 341.39C398.51 342.13 397.73 343.21 398.01 343.06V343.04ZM393.66 352.84H393.77L394.77 351.64C394.77 351.79 394.67 352.08 394.08 352.75C393.947 352.808 393.805 352.839 393.66 352.84V352.84Z" fill="#20696A"/>
<path d="M392.609 353.6C392.519 353.7 392.469 353.74 392.359 353.87L392.599 353.39L392.899 353.22L392.609 353.6Z" fill="#20696A"/>
<path d="M419.87 313.35V313.43C419.841 313.368 419.804 313.311 419.76 313.26C419.79 313.296 419.828 313.327 419.87 313.35V313.35Z" fill="#20696A"/>
<path d="M458.11 324.181L457.99 324.151L458.21 323.641L458.11 324.181Z" fill="#20696A"/>
<path d="M442.31 315.57C442.423 315.662 442.518 315.774 442.59 315.9C442.59 315.9 442.44 315.75 442.31 315.57Z" fill="#20696A"/>
<path d="M445.88 328.74C446.01 329.37 446.14 330 446.23 330.64C446.08 329.81 445.97 329.21 445.88 328.74Z" fill="#20696A"/>
<path d="M446.29 339.22C446.241 339.303 446.168 339.369 446.08 339.41V339.41L446.29 339.22Z" fill="#20696A"/>
<path d="M415.369 288.561L415.199 288.931C414.759 289.791 415.039 289.201 415.369 288.561Z" fill="#20696A"/>
<path d="M445.99 272.001C445.963 271.461 445.903 270.923 445.81 270.391C446.09 271.241 446.24 271.921 445.99 272.001Z" fill="#20696A"/>
<path d="M409.55 273.01H409.56L409.25 273.24L409.55 273.01Z" fill="#20696A"/>
<path d="M445.109 268.17C445.446 268.873 445.682 269.621 445.809 270.39C445.599 269.69 445.289 268.89 445.109 268.17Z" fill="#20696A"/>
<path d="M429.46 380.71L429.18 381.13C429.18 381.13 429.13 381.13 429.09 381.13L429.46 380.71Z" fill="#20696A"/>
<path d="M429.089 381.13L428.709 381.54C428.869 381.34 428.999 381.16 429.089 381.13Z" fill="#20696A"/>
<path d="M427.91 382.4L428.71 381.54C428.499 381.874 428.228 382.165 427.91 382.4V382.4Z" fill="#20696A"/>
<path d="M436.8 369.06L437.02 369C436.993 369.03 436.958 369.052 436.919 369.062C436.88 369.073 436.838 369.072 436.8 369.06V369.06Z" fill="#20696A"/>
<path d="M438.81 365.34C438.38 366.578 437.841 367.776 437.2 368.92H437.02C437.57 368.52 438.14 366.06 438.81 365.34Z" fill="#20696A"/>
<path d="M442.83 348.391C442.6 349.511 442.39 350.641 442.09 351.751C442.09 351.121 442.09 350.311 441.6 351.751C442.24 347.501 441.79 352.761 442.83 348.391Z" fill="#20696A"/>
<path d="M444.09 337.881C443.89 339.701 443.83 337.881 443.72 337.881C443.95 336.791 444.01 336.501 444.09 337.881Z" fill="#20696A"/>
<path d="M438.59 306.23L438.15 306.13C438.97 305.06 438.29 306.21 438.59 306.23Z" fill="#20696A"/>
<path d="M446.09 293.38L446.04 294.84L445.5 295.41L446.09 293.38Z" fill="#20696A"/>
<path d="M444.24 284.341L444.14 284.951L444.41 282.641C444.37 283.201 444.32 283.771 444.24 284.341Z" fill="#20696A"/>
<path d="M402.499 287.22L402.289 286.59C402.899 285.85 403.479 286 402.499 287.22Z" fill="#20696A"/>
<path d="M402.059 274.641L400.439 273.23C400.792 273.341 401.118 273.523 401.397 273.766C401.676 274.009 401.901 274.306 402.059 274.641Z" fill="#20696A"/>
<path d="M447.46 335.58L446.64 336.34L448.04 334.79L447.46 335.58Z" fill="#20696A"/>
<path d="M340.629 244.601C338.514 244.875 336.497 245.661 334.754 246.892C333.012 248.122 331.596 249.759 330.629 251.661C329.72 253.591 329.388 255.744 329.674 257.858C329.959 259.973 330.85 261.96 332.239 263.581C333.392 264.8 334.745 265.815 336.239 266.581C337.535 267.32 338.939 267.853 340.399 268.161C341.943 268.438 343.528 268.383 345.049 268.001C346.658 267.612 348.172 266.906 349.504 265.924C350.836 264.942 351.958 263.703 352.805 262.281C353.651 260.859 354.205 259.282 354.434 257.643C354.662 256.004 354.561 254.336 354.136 252.737C353.711 251.138 352.97 249.639 351.958 248.33C350.946 247.021 349.682 245.928 348.241 245.114C346.8 244.3 345.211 243.782 343.567 243.591C341.924 243.4 340.258 243.539 338.669 244.001" fill="#E9D0C6"/>
<path d="M341.91 257.82C344.572 257.628 347.242 258.072 349.699 259.115C352.156 260.158 354.329 261.771 356.04 263.82C353.378 264.012 350.708 263.568 348.251 262.525C345.794 261.482 343.621 259.869 341.91 257.82V257.82Z" fill="#534741"/>
<path d="M322.68 248.93C325.344 248.73 328.018 249.171 330.477 250.214C332.937 251.258 335.112 252.875 336.82 254.93C334.156 255.122 331.484 254.679 329.026 253.636C326.567 252.592 324.392 250.979 322.68 248.93V248.93Z" fill="#534741"/>
<path d="M338.44 259.061C338.369 262.336 337.715 265.573 336.51 268.621C335.426 271.717 333.793 274.593 331.69 277.111C331.412 273.798 331.873 270.464 333.04 267.351C334.207 264.238 336.052 261.423 338.44 259.111V259.061Z" fill="#534741"/>
<path d="M348.87 233.67C348.801 236.946 348.147 240.184 346.94 243.23C345.859 246.328 344.226 249.204 342.12 251.72C341.847 248.407 342.311 245.076 343.478 241.964C344.645 238.852 346.487 236.037 348.87 233.72V233.67Z" fill="#534741"/>
<path d="M104.029 152.58C101.912 152.844 99.8919 153.626 98.1479 154.855C96.4039 156.085 94.9894 157.725 94.0291 159.63C93.1126 161.559 92.7731 163.711 93.0517 165.827C93.3302 167.944 94.2149 169.935 95.5991 171.56C96.7552 172.777 98.1073 173.791 99.5991 174.56C100.893 175.297 102.293 175.83 103.749 176.14C105.293 176.419 106.879 176.361 108.399 175.97C110.008 175.582 111.522 174.876 112.854 173.893C114.186 172.911 115.308 171.673 116.155 170.251C117.002 168.829 117.555 167.252 117.784 165.613C118.013 163.974 117.911 162.306 117.486 160.707C117.061 159.107 116.32 157.609 115.308 156.3C114.296 154.991 113.032 153.897 111.591 153.083C110.15 152.27 108.561 151.752 106.918 151.561C105.274 151.37 103.608 151.509 102.019 151.97" fill="#E9D0C6"/>
<path d="M105.31 165.8C107.972 165.605 110.643 166.047 113.1 167.09C115.558 168.134 117.731 169.748 119.44 171.8C116.775 172.06 114.088 171.615 111.65 170.51C109.165 169.514 106.98 167.891 105.31 165.8V165.8Z" fill="#534741"/>
<path d="M86.0898 156.91C88.7525 156.715 91.4233 157.157 93.8807 158.201C96.3381 159.244 98.5113 160.859 100.22 162.91C97.555 163.171 94.8684 162.726 92.4298 161.62C89.9437 160.627 87.7588 159.004 86.0898 156.91V156.91Z" fill="#534741"/>
<path d="M101.84 167.061C101.772 170.34 101.119 173.581 99.91 176.631C98.8295 179.729 97.1964 182.605 95.09 185.121C94.8051 181.798 95.263 178.454 96.4305 175.33C97.598 172.207 99.4458 169.382 101.84 167.061V167.061Z" fill="#534741"/>
<path d="M112.24 141.641C112.162 144.919 111.509 148.158 110.31 151.211C109.222 154.307 107.586 157.183 105.48 159.701C105.122 156.376 105.585 153.014 106.83 149.911C107.939 146.758 109.795 143.92 112.24 141.641V141.641Z" fill="#534741"/>
<path d="M213.37 94.3797C206.85 100.86 213.66 109.63 208.15 118.74C199.8 132.52 177.9 122.8 169.76 134.36C161.27 146.36 180.16 163.05 181.27 203.17C181.384 210.237 181.006 217.304 180.14 224.32C178.74 236.284 176.178 248.083 172.49 259.55C162.26 293.4 156.03 314.14 163.65 332.13C172.24 352.41 196.65 364.84 218.46 365.66C243.1 366.58 260.13 352.55 265.41 348.2C270.49 344.02 281.01 335.11 286.24 319.8C286.98 317.62 290.04 308.22 288.65 292.6C286.05 263.36 271.11 248.6 266.65 222.81C266.65 222.81 264 207.49 267.34 197.53C267.5 197.04 268.46 194.22 269.78 190.17C270.5 187.94 271.36 185.26 272.31 182.17C276.58 168.17 277.68 163.78 278.14 160.81C278.24 160.17 278.24 160.06 278.36 159.19C279.19 153.19 280.2 149.53 280.68 147.19C281.16 144.85 282.36 138.96 281.12 135.19C277.48 124.05 252.92 130.28 244.82 117.19C239.82 109.08 246.24 102.19 240.57 95.5398C234.68 88.5298 219.85 87.9197 213.37 94.3797Z" fill="#E9D0C6"/>
<path d="M289.699 311.47C289.105 302.519 287.016 293.731 283.519 285.47C278.519 273.56 273.219 261.79 267.859 250.04C261.619 236.37 258.859 222.19 262.079 207.53C264.159 198.14 267.779 189.06 270.469 179.77C272.689 172.13 274.599 164.41 276.469 156.69C276.669 155.84 275.799 154.75 275.469 153.78C274.769 154.52 273.739 155.15 273.419 156.01C269.729 166.01 266.229 176.1 262.519 186.1C258.279 197.55 254.799 209.1 255.109 221.43C255.389 232.33 258.379 242.54 262.779 252.43C268.039 264.32 273.539 276.11 278.469 288.11C279.57 290.8 280.535 293.543 281.359 296.33C281.359 296.33 281.359 296.33 281.419 296.42C284.809 303.97 285.549 312.02 284.819 320.14C284.819 320.14 284.819 320.14 284.819 320.2C284.819 320.26 284.819 320.2 284.819 320.28C283.907 324.901 282.369 329.375 280.249 333.58C280.149 333.82 280.069 334.06 279.969 334.3C277.468 339.782 274.384 344.979 270.769 349.8C270.769 349.8 270.769 349.89 270.769 349.93L270.839 349.77C270.82 349.825 270.797 349.879 270.769 349.93C270.769 349.93 270.769 349.99 270.769 350.02C270.746 350.292 270.682 350.558 270.579 350.81C270.449 351.09 270.319 351.38 270.199 351.66C270.139 351.81 270.079 351.95 270.029 352.09C269.818 352.664 269.651 353.252 269.529 353.85C269.529 353.95 269.529 354.05 269.529 354.15V354.37V354.47L269.579 354.53L269.899 354.63H270.029H270.819L271.209 354.55C271.549 354.465 271.883 354.358 272.209 354.23H272.339L272.629 354.1C273.239 353.81 273.839 353.49 274.429 353.17L275.669 352.5C278.669 348.1 281.469 343.5 284.079 338.84C288.819 330.45 290.319 321.15 289.699 311.47Z" fill="#534741"/>
<path d="M157.629 311.47C158.222 302.518 160.315 293.729 163.819 285.47C168.819 273.56 174.119 261.79 179.479 250.04C185.709 236.37 188.479 222.19 185.259 207.53C183.179 198.14 179.549 189.06 176.859 179.77C174.649 172.13 172.739 164.41 170.859 156.69C170.649 155.84 171.519 154.75 171.859 153.78C172.559 154.52 173.589 155.15 173.859 156.01C177.549 166.01 181.059 176.1 184.769 186.1C189.009 197.55 192.479 209.1 192.169 221.43C191.899 232.33 188.909 242.54 184.499 252.43C179.239 264.32 173.739 276.11 168.819 288.11C167.714 290.798 166.749 293.542 165.929 296.33C165.929 296.33 165.929 296.33 165.869 296.42C162.479 303.97 161.739 312.02 162.459 320.14C162.459 320.14 162.459 320.14 162.459 320.2C162.459 320.26 162.459 320.2 162.459 320.28C163.379 324.9 164.92 329.374 167.039 333.58C167.139 333.82 167.209 334.06 167.319 334.3C169.816 339.784 172.901 344.981 176.519 349.8C176.519 349.8 176.519 349.89 176.519 349.93C176.519 349.93 176.519 349.84 176.459 349.77L176.519 349.93C176.519 349.93 176.519 349.99 176.519 350.02C176.539 350.291 176.599 350.558 176.699 350.81L177.089 351.66C177.149 351.81 177.199 351.95 177.259 352.09C177.467 352.664 177.63 353.252 177.749 353.85C177.749 353.95 177.749 354.05 177.749 354.15C177.754 354.224 177.754 354.297 177.749 354.37V354.47L177.699 354.53L177.379 354.63H177.249H176.469L176.079 354.55C175.74 354.463 175.406 354.356 175.079 354.23H174.959L174.659 354.1C174.049 353.81 173.459 353.49 172.869 353.17L171.629 352.5C168.629 348.1 165.829 343.5 163.219 338.84C158.519 330.45 157.019 321.15 157.629 311.47Z" fill="#534741"/>
<path d="M216.929 145.97C217.506 146.823 218.017 147.719 218.459 148.65C223.68 162.125 226.499 176.411 226.789 190.86C227.209 207.22 224.439 223.23 220.949 239.15C219.139 247.39 216.419 255.46 214.679 263.72C213.683 268.901 213.174 274.164 213.159 279.44C212.919 291.36 214.729 303.05 220.449 313.99C223.449 319.69 227.139 325.09 230.389 330.68C230.939 331.68 230.829 332.89 231.029 334.01C229.862 333.583 228.756 333.004 227.739 332.29C213.739 319.46 208.439 303.75 207.739 286.22C207.219 273.88 210.299 262.27 213.349 250.49C216.139 239.71 218.019 228.73 220.049 217.81C222.31 206.504 222.896 194.926 221.789 183.45C220.609 172.72 218.359 162.06 216.599 151.37C216.319 149.67 216.119 147.96 215.889 146.26L216.929 145.97Z" fill="#534741"/>
<path d="M249.07 96.1797C246.99 98.3997 245.45 100.3 244.69 103.4C244.311 105.014 244.213 106.682 244.4 108.33C244.519 110.263 245.058 112.146 245.98 113.85C246.717 115.165 247.64 116.367 248.72 117.42C249.428 118.143 250.224 118.775 251.09 119.3C253.187 120.512 255.397 121.516 257.69 122.3C262.79 124.03 268.6 125.45 273.87 127.09C276.561 127.875 279.167 128.927 281.65 130.23C283.904 131.482 285.878 133.184 287.45 135.23C290.45 139.17 290.45 145.16 290 149.33C289.55 153.5 287.24 159.59 286.35 162.06C284.47 167.01 282.7 171.42 281.56 174.7C280.42 177.98 281.06 175.92 280.13 178.78C279.2 181.64 278.24 184.34 277.28 188.22C276.094 192.74 275.228 197.338 274.69 201.98C274.129 207.371 273.885 212.79 273.96 218.21C274.224 229.25 277.275 240.045 282.83 249.59C284.18 251.92 285.12 253.19 286.32 255.01C286.91 255.92 287.38 256.49 287.71 257.01C288.04 257.53 287.91 257.28 288.06 257.5C288.21 257.72 288.06 257.44 288.13 257.62L288.49 258.32C291.153 263.487 294.322 268.377 297.95 272.92C296.88 267.208 295.103 261.652 292.66 256.38C292.58 256.19 292.42 255.91 292.31 255.66C292.186 255.412 292.042 255.174 291.88 254.95C291.754 254.799 291.64 254.638 291.54 254.47C291.2 253.98 290.77 253.42 290.2 252.57C289.07 250.86 288.2 249.57 286.89 247.44C281.649 238.614 278.779 228.582 278.56 218.32C278.504 212.977 278.748 207.635 279.29 202.32C279.799 197.844 280.638 193.412 281.8 189.06C282.74 185.31 283.67 182.76 284.58 179.97C285.49 177.18 284.86 179.27 285.96 175.97C287.06 172.67 288.77 168.65 290.68 163.51C291.68 160.92 294.07 154.51 294.54 149.77C295.01 145.03 295.01 137.33 291.41 132.71C289.453 130.206 287.049 128.087 284.32 126.46C281.568 124.984 278.681 123.776 275.7 122.85C270.26 121.14 264.53 119.69 259.45 118.02C257.342 117.387 255.325 116.482 253.45 115.33C252.76 114.89 252.125 114.37 251.56 113.78C250.737 112.987 250.06 112.056 249.56 111.03C248.46 108.41 248.41 106.29 248.11 103.67C247.964 101.135 248.29 98.5956 249.07 96.1797V96.1797Z" fill="#534741"/>
<path d="M204.62 98.5098C205.323 100.961 205.578 103.518 205.37 106.06C205.08 108.73 205.37 110.82 203.8 113.4C203.043 114.374 202.097 115.187 201.02 115.79C200.191 116.278 199.321 116.693 198.42 117.03C196.135 117.856 193.796 118.524 191.42 119.03C186.17 120.17 180.81 121.24 175.6 123.37C172.84 124.49 170.214 125.916 167.77 127.62C165.28 129.522 163.167 131.872 161.54 134.55C158.54 139.41 158.2 146.55 158.54 151.19C158.88 155.83 160.95 162.02 161.74 164.55C163.33 169.55 164.62 173.49 165.45 176.7C166.28 179.91 165.8 177.86 166.45 180.6C167.1 183.34 167.69 185.82 168.24 189.51C168.897 193.795 169.298 198.116 169.44 202.45C169.56 207.09 169.6 212.82 169.44 218.06C169.131 228.446 167.215 238.721 163.76 248.52C162.95 250.86 162.29 252.34 161.52 254.23C161.14 255.18 160.82 255.81 160.59 256.36C160.36 256.91 160.49 256.6 160.35 256.89C160.228 257.138 160.134 257.4 160.07 257.67L159.86 258.44C158.44 264.001 157.635 269.702 157.46 275.44C160.311 270.459 162.599 265.177 164.28 259.69C164.34 259.5 164.43 259.14 164.49 258.94C164.504 258.892 164.521 258.845 164.54 258.8C164.64 258.56 164.54 258.8 164.78 258.26C165.02 257.72 165.36 257.05 165.78 256.06C166.59 254.06 167.27 252.57 168.13 250.11C171.768 239.816 173.792 229.022 174.13 218.11C174.23 212.87 174.19 207.04 174.07 202.3C173.914 197.782 173.49 193.277 172.8 188.81C172.23 185 171.59 182.35 170.93 179.54C170.27 176.73 170.74 178.75 169.93 175.54C169.12 172.33 167.72 168.03 166.18 163.19C165.41 160.8 163.48 154.92 163.18 150.85C162.88 146.78 163.06 141.05 165.55 136.96C166.808 134.809 168.476 132.927 170.46 131.42C172.592 129.928 174.891 128.69 177.31 127.73C182.31 125.73 187.72 124.56 193.01 123.4C195.597 122.816 198.14 122.051 200.62 121.11C201.84 120.65 202.95 120.04 203.74 119.66C205.176 118.958 206.43 117.931 207.4 116.66C208.538 114.993 209.18 113.037 209.25 111.02C209.358 109.298 209.216 107.571 208.83 105.89C208.14 102.72 206.62 100.81 204.62 98.5098Z" fill="#534741"/>
</svg>
