<svg width="405" height="413" viewBox="0 0 405 413" fill="none" xmlns="http://www.w3.org/2000/svg">
<path d="M118.34 168.47C132.97 198.67 116.26 237.41 127.62 268.97C129.68 274.67 132.83 280.53 138.36 282.97C141.89 284.55 145.91 284.52 149.79 284.46L278.27 282.58C283.08 282.51 288.63 282.07 291.39 278.13C293.11 275.68 293.23 272.48 293.29 269.48L295.19 171.84C295.344 170.143 295.112 168.434 294.51 166.84C292.58 162.75 286.93 162.53 282.41 162.92C230.94 167.29 178.12 164.86 126.51 167.2" fill="#DEC5BB"/>
<path d="M112.519 154.99C112.448 154.998 112.376 154.99 112.308 154.965C112.241 154.941 112.179 154.902 112.13 154.85C110.78 154.01 108.809 151.85 111.959 149.18C112.101 149.069 112.26 148.981 112.429 148.92L122.499 148.78C151.126 148.393 179.766 148.167 208.419 148.1C222.739 148.1 237.073 148.117 251.419 148.15L279.64 148.32C279.64 148.32 288.87 149.01 295.34 150.01C306.34 151.41 301.9 152.71 295.09 153.36C295.8 153.5 278.799 154.36 278.799 154.36L249.189 154.2H206.989C178.849 154.273 150.713 154.503 122.58 154.89L112.519 154.99Z" fill="#695E59"/>
<path d="M302.5 154.25C302.49 154.178 302.496 154.105 302.518 154.035C302.541 153.966 302.579 153.903 302.63 153.85C303.42 152.49 305.52 150.4 308.29 153.44C308.404 153.582 308.495 153.74 308.56 153.91C308.72 157.29 308.93 160.67 308.99 164.04C309.29 173.5 309.25 182.96 309.04 192.38C308.83 201.8 308.48 211.22 308.1 220.61C307.72 230 307.35 239.37 307.1 248.73C307 253.41 306.91 258.09 306.9 262.73V266.11V269.05C306.9 269.05 306.75 271.34 306.54 274.45C306.33 277.56 306.03 281.45 305.75 284.71C305.02 295.71 303.46 291.46 302.39 284.64C302.209 283.905 302.095 283.156 302.05 282.4C301.9 280.9 301.7 278.84 301.5 276.75C301.3 274.66 301.14 272.55 301.04 270.96L300.85 268.3V265.37V261.05C300.85 256.4 300.98 251.77 301.08 247.13C301.32 237.87 301.7 228.63 302.08 219.4C302.46 210.17 302.79 200.96 302.98 191.75C303.17 182.54 303.23 173.36 302.92 164.2C302.86 160.9 302.66 157.58 302.5 154.25Z" fill="#695E59"/>
<path d="M113.38 154.94C113.26 154.94 113.22 154.94 113.1 154.7C112.503 154.007 112.117 153.156 111.99 152.25C111.92 151.25 112.3 150.07 114.4 149.17C114.587 149.109 114.783 149.078 114.98 149.08C118.496 150.141 121.831 151.729 124.87 153.79C128.27 156 131.38 158.44 134.43 160.72L136.72 162.4C137.47 162.93 138.24 163.46 139.06 164.01L143.86 167.24C150.267 171.547 156.723 175.777 163.23 179.93C169.737 184.083 176.307 188.11 182.94 192.01C186.273 193.957 189.607 195.863 192.94 197.73L198.36 200.73L202.93 203.6L207.23 206.31C208.72 207.26 210.23 208.2 211.6 209.11C216.28 211.97 217.6 213.22 216.79 213.54C215.98 213.86 213.24 213.19 209.98 212.05C210.28 212.25 206.43 210.8 202.57 209.13C200.63 208.32 198.7 207.44 197.24 206.79L194.81 205.68L188.81 202.39C185.46 200.53 182.14 198.61 178.81 196.67C172.223 192.79 165.71 188.79 159.27 184.67C152.83 180.55 146.47 176.347 140.19 172.06L135.44 168.86C134.66 168.34 133.84 167.77 133.03 167.2L130.68 165.47C127.6 163.15 124.68 160.86 121.61 158.88C119.079 157.164 116.305 155.835 113.38 154.94V154.94Z" fill="#695E59"/>
<path d="M302.649 151.46C302.707 151.412 302.774 151.376 302.846 151.355C302.919 151.334 302.995 151.329 303.069 151.34C304.038 151.235 305.011 151.503 305.789 152.09C306.549 152.78 306.929 153.94 306.459 155.89C306.414 156.059 306.339 156.218 306.239 156.36C303.609 158.27 300.929 160.45 297.999 162.36L230.319 207.77C230.319 207.77 222.319 212.4 216.409 215.24C206.569 220.24 209.469 216.73 214.719 212.34C214.059 212.63 227.609 202.34 227.609 202.34L294.609 157.34C297.319 155.57 299.859 153.5 302.649 151.46Z" fill="#695E59"/>
<path d="M108.859 158.41C108.852 158.337 108.863 158.263 108.891 158.196C108.919 158.128 108.963 158.068 109.019 158.02C109.909 156.71 112.179 154.85 114.689 158.12C114.793 158.265 114.871 158.428 114.919 158.6L114.629 168.65C113.859 196.65 113.629 224.77 113.129 252.88L112.669 273.96L112.369 284.5L112.029 294.91H112.209L114.209 295C115.069 295 115.909 295.09 116.779 295.09C120.239 295.17 123.719 295.18 127.209 295.14C134.209 295.07 141.209 294.86 148.209 294.61L190.319 292.85C204.319 292.41 218.342 291.883 232.389 291.27L274.489 289.45L282.319 289.15C282.319 289.15 291.579 289.42 298.079 290.15C309.079 291.09 304.759 292.57 297.979 293.51C298.339 293.56 294.279 293.99 290.139 294.41L281.759 295.24L228.409 297.52C214.609 298.11 200.759 298.6 186.999 299.05C173.239 299.5 159.419 300.32 145.589 300.78C138.669 301.01 131.749 301.2 124.799 301.24C121.309 301.24 117.799 301.24 114.299 301.08H112.969H112.309H111.979H111.389L106.389 300.66C106.199 300.66 105.939 300.66 105.809 300.57V299.92V298.63L105.899 296.04L106.009 292.86C106.489 279.08 106.842 265.29 107.069 251.49C107.559 223.9 107.779 196.27 108.529 168.62L108.859 158.41Z" fill="#695E59"/>
<path d="M46.4992 83.1602C46.9592 82.8302 47.0792 83.3103 46.1092 84.4503L44.9492 84.9002L46.4992 83.1602Z" fill="#016C55"/>
<path d="M41.3498 91.9101C40.0398 93.1201 38.3498 94.4201 38.5798 93.1501C40.1298 92.1501 40.1698 91.6301 41.8998 90.5801C42.8998 89.4301 43.3098 88.3701 42.9698 88.4201C43.4198 88.1001 44.2698 86.4901 45.0898 86.1001C44.0815 88.2292 42.6725 90.1441 40.9398 91.7401C40.7198 92.2601 41.1898 91.9401 41.3498 91.9101Z" fill="#016C55"/>
<path d="M28.1895 107.41C28.4646 107.058 28.7619 106.724 29.0795 106.41L28.3195 107.41H28.1895Z" fill="#016C55"/>
<path d="M3.76953 189.41L3.85956 188.69C3.95875 188.489 4.07237 188.295 4.19955 188.11L3.76953 189.41Z" fill="#016C55"/>
<path d="M9.33984 159.52C9.18984 160.19 8.58984 160.28 8.33984 160.52C8.68968 160.128 8.94913 159.664 9.09985 159.16C9.18985 159.13 9.24984 159.25 9.33984 159.52Z" fill="#016C55"/>
<path d="M26.3203 114.41L26.8403 113.72L26.3203 114.41Z" fill="#016C55"/>
<path d="M2.90039 211.19C2.98991 211.261 3.05897 211.354 3.1004 211.46C3.0304 211.46 2.96039 211.41 2.90039 211.19Z" fill="#016C55"/>
<path d="M285.19 24.8801C285.19 24.8801 285.19 24.8801 285.19 24.9701C285.02 24.8401 284.99 24.7801 285.19 24.8801Z" fill="#016C55"/>
<path d="M250.57 15.6602L251.04 15.8202C251.065 15.9254 251.065 16.0349 251.04 16.1402L250.57 15.6602Z" fill="#016C55"/>
<path d="M27.8194 108.08C27.5794 108.42 27.3394 108.77 27.1094 109.13C27.325 108.766 27.5621 108.416 27.8194 108.08V108.08Z" fill="#016C55"/>
<path d="M350.269 71.9902C349.899 71.7451 349.495 71.5564 349.069 71.4302C349.639 71.4602 347.079 68.5102 350.269 71.9902Z" fill="#016C55"/>
<path d="M28.4603 107.57C28.193 107.658 27.966 107.839 27.8203 108.08L28.3403 107.37C28.4503 107.35 28.5303 107.41 28.4603 107.57Z" fill="#016C55"/>
<path d="M330.419 53.0799C327.499 50.3899 329.319 52.3799 326.209 50.5299C324.959 48.7799 323.009 48.2499 323.209 47.2499C321.789 47.0099 322.209 47.0199 319.919 45.9499C321.119 46.1699 316.389 42.7999 316.919 42.3799C315.679 42.3799 319.839 45.5399 316.769 44.2699C315.279 42.5199 311.849 40.2699 311.999 39.3799C310.418 38.7018 308.878 37.9305 307.389 37.0699C307.736 37.2782 308.044 37.5456 308.299 37.8599C304.619 34.8599 298.299 31.9699 296.299 29.8599C296.649 31.2399 287.299 25.4599 290.039 28.0099C288.336 27.1031 286.702 26.0737 285.149 24.9299C284.999 25.7899 280.599 23.1299 278.419 22.8199C277.589 21.9299 274.249 20.8199 272.339 19.8199C273.199 20.2499 273.619 20.5799 273.219 20.6799C271.099 19.4899 271.529 20.0299 269.469 19.6799C266.469 18.3399 270.259 19.2399 268.539 18.2099C265.799 17.4799 267.949 18.5899 267.349 18.7699C266.129 18.0299 264.889 17.3099 263.639 16.6099C263.034 16.4374 262.396 16.4099 261.779 16.5299C260.409 15.6669 258.859 15.1297 257.249 14.9599L260.699 16.0099H259.249C257.939 15.4099 256.609 14.8699 255.249 14.2899C249.139 13.2899 250.789 14.7499 250.989 15.7499L253.339 16.5299C253.179 16.8099 251.499 16.5299 250.439 16.2899C249.439 16.2899 254.039 18.2399 256.569 19.1099C263.499 21.1099 258.319 18.4799 263.129 19.7699C265.129 20.5899 267.092 21.4499 269.019 22.3499L269.199 22.0799C269.838 22.1708 270.43 22.4654 270.889 22.9199C270.649 22.3099 275.829 24.6299 278.259 25.5799H277.259C283.559 29.2299 288.159 29.2799 293.079 32.3499C294.169 33.1699 295.259 33.9999 296.329 34.8499L297.329 34.7199C299.239 36.1799 299.329 36.7699 302.819 38.5499C315.109 44.6399 326.269 54.3799 336.819 63.2399C336.363 63.0573 335.94 62.8005 335.569 62.4799C337.828 64.0662 339.924 65.8716 341.829 67.8699C342.709 68.7699 343.549 69.6499 344.319 70.5399L346.489 73.2999C347.889 75.1299 349.299 76.8899 350.779 78.7299C352.304 80.7278 353.975 82.6096 355.779 84.3599L355.469 83.6499C358.929 87.9899 355.199 82.8899 357.969 85.8499C357.839 86.9299 361.879 91.7599 363.469 94.5599C363.104 93.7942 362.679 93.0586 362.199 92.3599C362.979 92.7044 363.613 93.3136 363.989 94.0799C364.942 96.4621 366.141 98.7378 367.569 100.87C369.089 103.52 370.759 106.38 372.109 108.87C372.919 109.17 375.579 113.24 377.509 115.09C377.639 115.69 377.829 116.77 377.959 117.77C378.903 119.167 379.582 120.726 379.959 122.37C379.179 120.75 378.489 119.37 377.959 118.24C377.959 118.29 377.959 118.34 377.959 118.38C377.876 118.13 377.776 117.886 377.659 117.65C377.089 116.56 376.799 115.99 376.979 116.23C375.479 114.46 376.729 116.53 376.169 116.66C377.169 118.23 378.529 121.77 379.169 121.95C379.659 122.95 380.039 123.56 380.619 124.56C380.864 125.277 381.175 125.97 381.549 126.63L381.439 126.27C381.575 126.372 381.697 126.493 381.799 126.63C383.401 130.178 384.611 133.89 385.409 137.7C385.029 134.7 386.409 138.11 386.889 137.94C386.969 138.27 385.689 134.81 383.789 130.65C383.979 130.93 384.159 131.13 384.359 131.13C386.499 134.55 386.499 137.57 388.889 142.83C388.809 142.46 388.659 141.73 388.889 141.92C389.572 143.257 389.886 144.751 389.799 146.25C390.429 146.57 392.119 150.64 392.579 152.77C392.545 154.472 392.819 156.166 393.389 157.77L393.329 156.22C394.669 160.07 393.729 159.55 394.839 162.73C394.399 161.46 394.689 161.26 395.029 162.21C395.549 164.653 395.727 167.157 395.559 169.65L395.979 168.99C396.519 172.57 396.819 179.38 397.619 179.33C396.419 178.33 398.089 187.16 398.469 190.27C398.369 189.2 398.589 188.98 398.689 188.86C398.696 192.173 398.873 195.484 399.219 198.78C399.509 202.1 399.689 205.44 399.799 208.78L400.649 209.84C400.539 213.37 398.869 214.34 398.819 218.12L399.249 216.77C399.179 220.14 398.829 222.49 398.749 224.69C398.669 226.89 398.549 228.93 398.249 231.64H398.819C398.329 233.55 398.039 235.98 397.549 237.9C397.859 240.19 397.009 244.56 395.899 249.32C395.299 251.69 394.669 254.17 394.179 256.58C393.621 258.81 393.213 261.075 392.959 263.36L391.829 263.57C391.099 266.57 389.569 270.3 389.829 271.95L390.029 271.28C390.889 271.28 389.079 274.28 388.639 276.17C388.029 277.52 387.009 278.71 387.319 277.48C385.059 285.48 379.369 296.48 377.759 301.41C375.759 305.08 373.539 308.01 371.549 311.16C369.559 314.31 367.189 317.31 364.809 321.1H364.969C363.329 323.63 360.039 328.73 360.739 329.24C356.589 334.24 353.159 336.76 348.309 342.73L349.659 341.73C348.43 343.265 347.02 344.645 345.459 345.84C344.999 346.34 345.459 346.1 345.619 346.12C344.549 347.65 343.449 348.12 342.359 349.12L342.989 348.9C339.199 353.83 331.139 359.42 325.149 364.51C326.329 363.66 325.939 364.41 325.569 364.89C323.239 366.008 321.033 367.369 318.989 368.95C316.539 370.74 313.989 372.36 312.569 373.23L314.459 372.39C308.819 375.53 310.459 376.39 304.639 379.23L307.459 376.83C305.339 378.34 303.359 379.34 303.669 378.64C301.239 380.46 303.789 379.56 299.839 381.86C299.839 382.19 302.839 380.43 301.679 381.46L296.469 385.16C295.628 385.763 294.722 386.269 293.769 386.67C293.709 385.36 289.009 388.93 291.339 386.48C289.339 387.48 287.399 388.48 285.549 389.4C283.699 390.32 281.829 391.18 280.029 392.04C276.532 393.744 272.9 395.152 269.169 396.25C266.619 398.54 254.649 401.05 255.779 402.17C253.659 402.757 251.725 403.21 249.979 403.53C248.418 403.786 246.84 403.913 245.259 403.91C246.186 403.654 247.138 403.493 248.099 403.43C246.889 403.3 241.759 404.43 239.619 404.85C242.489 404.57 247.079 403.85 249.429 403.92C245.489 404.61 239.979 405.39 237.749 405.49L236.889 406.43C233.489 406.43 234.219 407.52 230.779 407.33L231.379 407C225.289 407.86 225.119 407.14 219.449 407.62L219.719 407.9C217.719 408.17 214.819 407.66 212.969 408.5L216.679 408.26C216.349 408.83 213.519 409.26 212.239 409.65C208.239 409.65 210.809 408.82 208.819 408.82C208.009 409.35 208.629 409.1 210.029 409.56C207.809 409.56 205.209 409.5 202.769 409.4C200.664 409.306 198.57 409.042 196.509 408.61C196.309 408.69 196.509 408.8 196.509 408.8C191.909 408.88 187.949 407.55 185.119 407.8L185.999 407.94C182.249 408.53 176.649 406.22 175.739 407.45C173.979 407.45 179.669 407.87 176.819 408.16C171.319 407.92 173.369 406.67 168.589 406.24C169.239 406.31 169.019 406.35 169.219 406.51L163.689 405.41L157.769 403.92C156.317 403.889 154.872 403.705 153.459 403.37C151.839 402.98 150.089 402.47 148.309 401.96C144.729 401.02 141.169 399.75 138.399 399.49C140.169 399.62 137.259 398.59 137.319 398.41C137.319 398.41 137.499 398.58 137.269 398.59C136.281 398.34 135.377 397.833 134.649 397.12C133.009 396.89 129.699 394.8 128.649 394.66C128.729 394.38 127.219 393.92 125.599 393.25C128.749 394.84 126.429 394.2 127.749 395.17C122.749 393.36 122.669 391.69 117.579 389.72C116.579 389.49 115.629 389.14 114.649 388.85C114.439 387.85 109.779 385.85 110.019 385.67C109.069 385.47 107.779 384.97 107.779 385.41C105.959 384.17 102.919 382.88 102.359 382.04L104.359 382.94C98.2786 379.94 95.5386 376.68 90.8786 374.33L90.3086 375.33C87.1986 373.71 85.4186 371.11 82.5586 369.93C83.6586 370.22 83.7286 370.49 82.2086 368.82C83.2586 369.6 85.1186 371.19 86.9086 372.46L83.4986 369.23L89.2386 373.67C86.9586 371.51 87.0786 371.73 88.3786 372.08C85.0186 369.22 84.1186 369.86 81.1086 366.89C79.8086 366.09 80.7886 367.38 79.2686 366.5C76.5386 363.93 73.1786 362.67 71.5286 360.44C70.7886 359.97 72.6786 361.44 72.3486 361.54C70.5686 359.88 69.2186 358.78 68.9186 358.07L70.5786 359.32C69.1686 358.17 69.2386 357.63 66.5786 355.44C65.3086 353.88 64.8786 352.69 66.4686 354.17C65.8786 353.51 64.2486 352.41 64.4686 353.17C60.4686 349.48 63.4686 350.49 59.4686 347.17C59.6986 347.45 59.9186 347.76 59.7286 347.67C58.9135 346.942 58.1485 346.161 57.4386 345.33C60.5786 348.7 55.7586 344.94 59.7186 348.71C58.8586 348.71 56.7186 345.83 55.3686 344.71C53.9086 342.44 55.8286 343.89 55.1686 342.71C55.0386 342.86 54.3086 342.04 53.3886 341.12L54.5686 341.76C53.8386 340.93 53.1186 340.13 52.3286 339.07L53.6486 340.84C52.8286 339.97 51.6486 338.98 50.4186 337.77C49.0659 336.384 47.8502 334.87 46.7886 333.25C47.3386 334.25 48.4386 336.25 46.4786 334.17C43.8086 330.38 45.6486 333.45 43.7286 331.63C41.0786 327.85 43.9186 330.48 39.6686 325.19C39.2286 324.6 39.8586 324.99 40.3986 325.5C37.5086 321.89 36.4586 319.56 33.6986 316C34.8386 317.6 35.8486 318.74 34.5586 316.43C34.8086 317.61 32.3486 313.43 31.2486 312.11V311.6C30.3186 310.6 30.9986 311.87 31.5086 312.88C31.5586 312.81 31.8386 313.12 32.2486 313.88C33.2486 315.88 32.0686 315.66 30.1686 312.69C28.4086 309.34 29.2686 309.56 29.7986 309.99C27.0986 305.74 28.4686 305.36 25.8486 301.35C25.3386 300.35 22.9286 297.52 21.2986 294.4C20.9886 292.56 23.5686 298.14 23.0986 296.13C21.1786 293.84 20.1986 291 19.1786 287.96C18.1586 284.92 17.2786 281.6 15.5286 278.2L15.2586 279.32C14.5256 277.637 13.9076 275.906 13.4086 274.14L14.5686 276.5C14.1486 274.77 12.7186 270.87 12.6686 272.32C12.0932 269.517 11.2734 266.77 10.2186 264.11C11.3486 267.89 10.3186 264.11 10.7886 267.02C9.8961 264.737 9.2426 262.368 8.83857 259.95C8.71857 260.47 8.02856 259.09 7.76856 258.01C7.54856 255.29 6.36857 250.84 5.95857 247.09L5.76856 247.14C5.54856 245.58 5.19857 244.01 4.89857 242.41C4.59857 240.81 4.31856 239.2 4.01856 237.58C3.3815 234.382 3.0467 231.131 3.01856 227.87V227.87C3.01856 227.76 3.01856 227.65 3.01856 227.56L3.10859 228.05C3.52859 229.05 3.51857 227.87 3.39857 226.13C3.27857 224.39 3.23856 222.13 3.29856 221.13C2.96788 220.627 2.78431 220.042 2.76856 219.44C3.35856 219.35 2.91859 216.99 3.16859 216.07C2.94859 213.91 2.47858 216.37 2.46858 212.64C2.46858 211.19 2.79857 211.02 3.02857 211.19C2.60122 209.508 2.40276 207.775 2.43858 206.04C2.35462 206.771 2.35462 207.509 2.43858 208.24C2.12858 208.49 2.22858 207.16 1.84858 207.19C1.84858 205.43 2.41858 206.49 2.28858 204.3L1.75858 206.3C1.7386 205.482 1.80226 204.665 1.94859 203.86C1.79859 205.19 1.33858 205 1.06858 204.8C1.57858 199.69 2.33858 203.85 2.84858 203.58C2.57858 198.76 3.55858 195.03 3.84858 191.32L3.25858 191.97C3.3129 190.839 3.56327 189.725 3.99857 188.68L4.34858 185.9C3.95858 187.48 3.71857 187.99 3.27857 188.06C3.80857 185.11 4.13857 181.06 4.99857 180.36L4.85859 180.46C5.05859 178.46 5.47859 175.46 5.85859 172.91C6.23859 170.36 6.60858 168.42 6.43858 168.52C7.02858 166.46 7.43858 164.07 7.93858 162.22C8.43858 160.37 8.86856 159.06 9.23856 159.1C9.63295 157.652 9.92371 156.179 10.1086 154.69C10.2657 153.36 10.754 152.092 11.5286 151C11.9886 148 11.3986 150.78 10.6086 151.52C11.0886 148.52 13.1186 145.91 12.5086 144.64C14.0286 141.42 12.4186 145.48 13.2686 144.51C12.6486 143.51 15.2686 138.27 16.0986 135.02C17.0386 133.79 15.7286 136.5 17.0986 134.29C16.7786 134.43 17.2686 133.16 17.5086 132.52L18.3186 132.15L18.2686 128.45C20.9386 124.15 18.7986 129.81 21.7586 123.8L21.5486 124.15C21.7286 122.23 23.8686 120.04 25.9186 115.73C25.1786 117.19 25.3286 116.16 24.9186 116.52C25.4486 115.8 25.9186 115.07 26.5086 114.36C26.3586 114.54 26.2586 114.62 26.3386 114.36C27.2086 112.12 27.6186 112.76 28.7886 110.24C27.6486 111.76 27.5786 111.03 27.8586 110.24L30.6286 107.36L29.0486 108.22C31.1386 104.97 35.5486 101.13 35.7886 98.8899L34.3786 100.41C34.3086 100.18 34.4786 98.8899 36.3786 97.0599C36.9386 96.4699 37.6386 96.3299 36.9686 97.1899L37.9686 95.5299C36.9686 95.9499 34.0186 99.7299 32.1486 102.1C32.8786 101.46 34.3786 99.6699 34.2386 100.44C32.5186 102.51 30.7486 104.39 29.1286 106.44C29.6928 105.902 30.3288 105.444 31.0186 105.08C29.5886 107.61 29.4886 106.65 28.1986 108.44C27.8986 109.25 27.7086 109.82 28.1486 109.44C26.4863 111.474 25.0854 113.708 23.9786 116.09C23.9786 116.09 25.9786 113.47 25.3286 115.18C22.3286 119.57 21.3286 120.32 18.6386 125.43C15.1086 131.16 14.0286 137.56 11.8986 141.71C11.5786 141.87 12.6986 138.29 11.5086 141.08C12.1486 140.75 11.1786 142.89 11.3086 143.08C9.47857 145.93 9.94857 147.73 8.74857 149.79C9.07857 149.32 8.67856 151.2 8.45856 152.44C9.13856 152.27 7.59858 155.95 9.84858 151.66C8.8541 153.642 8.11487 155.742 7.64857 157.91C7.23861 159.794 6.50798 161.593 5.48856 163.23C5.48856 162.81 5.55857 162.38 5.61857 161.97C5.30857 163.59 5.08858 165.23 4.81858 166.85V166.64C4.39645 168.384 4.20149 170.176 4.23856 171.97C4.61856 170.79 5.01859 169.06 5.41859 167.88C5.3404 169.253 5.03981 170.604 4.52857 171.88C4.06434 173.236 3.68035 174.619 3.37858 176.02C3.82858 175.97 4.03858 173.02 4.37858 174.02C4.03153 175.908 3.58759 177.777 3.04856 179.62L3.32859 179.39C3.11859 184.53 1.87859 181.21 2.19859 185.04C2.06859 184.91 1.85857 185.36 1.74857 185.11C1.82857 186.54 1.84856 189.81 2.54856 186.64C2.34547 188.212 2.01097 189.764 1.54856 191.28C1.29856 189.74 1.54857 189.39 1.14857 188.77C0.808568 191.15 0.588561 193.55 0.298561 195.94C0.238561 196.74 0.578577 195.36 0.658577 194.35C0.807183 198.663 0.643431 202.981 0.168587 207.27C-0.0114129 211.67 -0.291409 216.27 0.828591 220.97C0.378591 219.92 0.518571 221.68 0.308571 222.61C0.518571 225.7 1.00857 230.36 1.49857 233.19L1.66859 232.25C2.18859 239.59 2.66858 244.68 3.75858 249.42C3.68858 249.68 4.12858 249.31 4.03858 248.42C4.15858 252.06 6.75859 255.88 5.94859 257.07L5.55857 255.8C7.23857 262.68 8.86859 270.39 11.1086 277.41C12.2386 278.83 9.82858 273.41 11.0086 274.56L13.5986 281.82C14.4302 284.378 15.4325 286.876 16.5986 289.3C16.4875 288.935 16.3974 288.565 16.3286 288.19C18.8886 293.08 15.5186 287.88 17.4486 292.1C17.6286 291.75 17.7886 291.93 18.5486 293.27L18.6486 294.73C18.8286 294.9 19.1386 294.73 19.0086 294.02C19.2986 296.15 22.3886 301.51 22.5986 303.24C22.9386 303.53 22.8986 302.24 23.4086 302.7C24.4518 304.336 25.2946 306.092 25.9186 307.93V307.93C27.0686 309.27 29.1986 312.93 28.8086 312.1C31.2686 315.78 28.8686 312.88 30.2886 315.96L28.1886 312.99L31.3086 318.42L30.3086 316.14C31.9386 318.49 33.2286 321.14 35.0686 323.96L33.9186 322.89L35.8586 326.19C36.6786 326.07 38.8586 330.03 38.3386 327.85C40.5886 330.58 42.1386 333.04 43.7986 335.33C45.4063 337.798 47.1629 340.166 49.0586 342.42C48.3086 341.58 48.7086 341.81 48.6486 341.56C50.5737 343.564 52.2769 345.77 53.7286 348.14C53.5686 347.66 53.0186 346.95 53.1586 346.8C56.2286 350.02 54.7286 349.03 57.9986 352.73C57.2686 351.54 57.6786 351.73 58.6686 352.64C58.3286 352.64 58.9786 353.64 59.5686 354.33C57.9386 350.71 63.9586 357.7 63.0986 355.24C63.0486 355.63 68.1786 361.32 66.1986 360.24L65.2986 359.24C64.9186 359.43 66.2986 360.59 67.3686 361.48C66.8786 360.97 66.3686 360.42 66.3686 360.33C68.8686 362.77 71.5386 365.16 74.3686 367.46C77.1986 369.76 80.2086 372.13 83.3686 374.46C82.8986 373.94 80.4786 371.91 82.1986 372.97C88.6386 377.32 91.9686 380.45 98.5486 384.8C99.2786 384.28 91.3786 380.23 91.6186 379.3L96.7886 382.81L102.209 386.18C105.829 388.55 109.749 390.61 113.749 392.93C115.88 393.315 117.917 394.106 119.749 395.26C122.129 396.692 124.726 397.729 127.439 398.33C126.769 398.56 129.359 399.74 132.259 400.87C131.389 400.13 134.449 401.3 133.689 400.72C136.119 401.98 143.549 404.58 143.509 403.64C143.949 404.64 149.129 405.13 151.129 406.31C154.499 406.93 158.249 408.13 162.499 408.84C160.899 409.13 166.659 409.84 168.179 410.32C167.749 410.21 166.869 409.98 167.099 409.94C168.459 409.65 171.919 411.27 174.379 411.22C175.499 411.15 174.179 410.69 175.959 410.86C175.959 411.2 182.379 412.58 184.849 412.16C184.231 412.118 183.627 411.959 183.069 411.69C194.439 413.44 206.709 412.63 218.419 412.42L216.299 411.93C223.499 410.56 221.179 412.62 226.959 411.85C234.895 410.656 242.752 408.986 250.489 406.85C258.199 404.58 265.819 402.24 273.089 399.63C274.219 399.41 272.559 400.08 272.479 400.4C273.709 399.85 273.869 399.21 275.699 398.88L275.449 399.35C276.229 398.93 277.129 398.51 278.089 398.09C279.049 397.67 280.089 397.16 281.089 396.69C283.219 395.74 285.559 394.86 287.779 393.86C292.189 391.78 296.419 389.81 298.309 387.81C304.519 385.07 308.109 381.81 315.379 377.96C317.379 376.23 312.569 379.16 315.379 377.11C317.539 375.8 319.799 374.6 321.909 373.18L321.549 373.39C328.289 369.89 336.119 360.41 343.189 354.61L342.859 354.84C342.559 354.84 343.679 353.28 344.759 352.27C345.249 352.02 344.619 352.8 344.139 353.58C347.139 350.78 348.959 349.07 350.589 347.46L355.709 341.84C353.579 343.7 357.199 339.7 356.959 339.14C358.269 338.01 356.749 340.24 359.319 337.44C360.999 335.32 362.589 333.26 363.959 331.19L367.769 325.19C369.229 323.99 370.409 321.9 370.929 322.1L375.349 315.44C376.709 313.28 378.079 310.92 379.949 307.66L379.879 307.4C381.549 306 382.549 301.45 383.569 300.4C383.249 300.48 382.799 301.15 382.719 300.88L384.459 297.94C383.539 299.29 382.549 299.81 383.739 297.29C385.479 294.91 383.669 298.15 384.669 297.05C384.609 296.7 384.559 296.35 384.479 295.99C385.479 293.99 386.339 293.75 385.419 296.3C386.919 292.85 388.579 289.51 389.989 286.17C391.399 282.83 392.739 279.55 393.749 276.35L393.129 276.89C394.399 273.42 396.069 268.69 396.239 266.45C396.379 266.39 396.839 265.57 396.819 266.18C398.529 262.08 396.269 265.54 398.139 261.06C397.856 262.006 397.442 262.908 396.909 263.74C397.909 260.89 398.859 258.04 399.619 255.13C399.489 254.016 399.537 252.889 399.759 251.79C400.009 249.95 400.359 247.66 400.759 245.79C400.959 245.67 401.009 246.79 400.879 247.79L401.439 245.41L401.039 243.41L402.259 240.03L401.669 239.88C402.189 237.34 403.019 236.41 403.239 234.31C403.819 226.45 403.239 228.01 403.149 222.42C404.469 221.86 403.479 213.57 404.319 212.17C404.169 210.29 404.019 208.23 403.849 206.02C403.679 203.81 403.639 201.47 403.519 199.02C403.399 196.57 403.169 194.11 402.989 191.62C402.809 189.13 402.399 186.62 402.069 184.24V185.04C401.667 183.579 401.551 182.055 401.729 180.55C401.843 178.957 401.718 177.356 401.359 175.8V176.94C400.569 174.14 399.919 170.23 399.119 166.37C398.769 164.37 398.429 162.49 398.119 160.7C397.809 158.91 397.449 157.28 397.189 155.93C397.319 157.06 396.809 156.6 396.389 154.93C396.209 153.42 397.549 156.11 396.519 153.16C396.619 153.94 396.209 153.42 396.019 152.74C395.959 151.74 395.779 150.69 395.669 149.66C392.959 142.1 389.189 133.51 386.099 125.82C385.299 124.5 385.559 125.62 385.519 126.03L381.609 117.12C380.299 114.2 378.839 111.44 377.479 108.81L376.609 108.62C375.179 106.1 376.609 106.55 374.089 103.62C373.569 102.96 375.369 105.77 375.659 106.8C372.159 102.12 374.409 103.54 371.409 98.7999L371.539 100.45C368.869 97.1199 369.159 96.2099 368.669 94.6599C365.999 89.1799 365.079 91.9899 360.669 85.1299C360.179 83.8699 361.359 85.1299 360.869 83.8699C357.099 79.5299 357.039 78.6799 353.129 74.4399C350.199 72.9499 355.129 76.5799 352.069 74.8399C353.149 75.8399 354.069 76.9199 355.119 77.9599C352.239 75.4799 357.209 80.6699 356.319 80.6499C355.179 79.4049 354.123 78.0853 353.159 76.6999C352.049 75.1699 350.799 73.6299 349.639 72.1899C349.269 72.5399 352.509 75.3499 350.849 74.5699L349.719 73.0599C349.899 73.6184 350.215 74.1235 350.639 74.5299C349.829 74.3499 349.109 72.9299 347.899 71.6099C348.009 71.3399 348.339 71.1499 349.009 71.3399C348.841 71.2949 348.685 71.2167 348.549 71.1099C346.649 67.8299 341.659 63.9899 339.819 61.3299C340.079 61.7999 339.739 61.5299 339.539 61.4999C337.869 60.0099 336.539 58.0199 334.439 55.8799C332.949 55.0999 334.439 57.3199 330.919 54.0599C330.519 53.2099 332.659 53.9799 329.479 51.4799C329.529 51.5699 332.079 54.0199 330.419 53.0799ZM384.619 124.38C384.809 124.77 385.089 125.38 385.389 126.15C385.019 125.25 384.789 124.74 384.619 124.41V124.38ZM387.099 131.15C386.769 130.43 386.839 130.08 387.099 130.26C387.609 131.41 388.099 132.51 388.479 133.38C387.879 132.41 387.049 130.71 387.099 131.15V131.15ZM378.189 119.41V119.57C378.559 120.38 378.829 121 379.069 121.52C378.899 121.42 378.619 121.1 378.149 119.97C378.114 119.783 378.127 119.59 378.189 119.41V119.41Z" fill="#016C55"/>
<path d="M377.8 117.7C377.739 117.543 377.669 117.389 377.59 117.24C377.758 117.422 377.911 117.616 378.05 117.82C378.05 117.98 378.05 118.15 378.05 118.29L377.8 117.7Z" fill="#016C55"/>
<path d="M1.77952 185.02C1.71815 184.834 1.69435 184.636 1.70952 184.44C1.75648 184.63 1.78 184.825 1.77952 185.02Z" fill="#016C55"/>
<path d="M4.82031 166.59L5.19031 163.96C5.05031 165.11 4.93031 165.93 4.82031 166.59Z" fill="#016C55"/>
<path d="M8.11914 152.59C8.20548 152.5 8.31163 152.432 8.42914 152.39V152.39L8.11914 152.59Z" fill="#016C55"/>
<path d="M35.5898 96.9201L35.9799 96.3501C35.9799 96.3501 36.0499 96.3501 36.0999 96.3501L35.5898 96.9201Z" fill="#016C55"/>
<path d="M36.0996 96.3303L36.6096 95.7603C36.4749 95.9791 36.3022 96.1721 36.0996 96.3303V96.3303Z" fill="#016C55"/>
<path d="M37.6794 94.54L36.6094 95.76C36.8985 95.2988 37.2597 94.8869 37.6794 94.54V94.54Z" fill="#016C55"/>
<path d="M24.9697 112.7L24.6797 112.78C24.7167 112.743 24.763 112.715 24.8139 112.701C24.8649 112.687 24.9186 112.687 24.9697 112.7V112.7Z" fill="#016C55"/>
<path d="M21.9492 117.7C22.6441 116.016 23.4805 114.393 24.4492 112.85L24.6792 112.78C23.9092 113.41 22.8692 116.7 21.9492 117.7Z" fill="#016C55"/>
<path d="M14.6504 140.76C15.1704 139.25 15.6504 137.76 16.1904 136.22C16.0704 137.07 15.9204 138.22 16.8004 136.22C15.1904 142.06 16.7604 134.85 14.6504 140.76Z" fill="#016C55"/>
<path d="M10.2704 154.95C11.0904 152.51 10.5404 155.06 10.7104 154.95C10.1104 156.49 9.96035 156.86 10.2704 154.95Z" fill="#016C55"/>
<path d="M130.46 0C130.83 0 130.73 0.339996 129.8 0.589996L129.01 0.339996L130.46 0Z" fill="#016C55"/>
<path d="M124.65 2.93032C123.52 3.11032 122.16 3.19032 122.65 2.52032C123.87 2.52032 124.05 2.27033 125.37 2.38033C126.29 2.11033 126.89 1.67032 126.68 1.56032C127.04 1.56032 128.06 0.980332 128.68 1.10033C127.408 1.91673 125.976 2.44886 124.48 2.66033C124.19 2.88033 124.55 2.88032 124.65 2.93032Z" fill="#016C55"/>
<path d="M96.1895 58.4102C96.2094 58.5528 96.2094 58.6975 96.1895 58.8401C96.1895 58.7601 96.1895 58.6202 96.1895 58.4102Z" fill="#016C55"/>
<path d="M57.8086 83.6603C57.8786 83.2503 57.9586 83.0803 58.0086 83.0703C57.9086 83.4103 57.8286 83.7603 57.8086 83.6603Z" fill="#016C55"/>
<path d="M61.4487 87.7402L60.8887 87.8503C61.0662 87.7769 61.2566 87.7395 61.4487 87.7402V87.7402Z" fill="#016C55"/>
<path d="M96.1902 58.41C96.1557 58.0534 95.9963 57.7205 95.7402 57.47C95.8602 57.34 96.2502 57.89 96.1902 58.41Z" fill="#016C55"/>
<path d="M112.309 7.01025C112.573 6.89621 112.848 6.80583 113.129 6.74023C112.869 6.84023 112.629 6.94024 112.389 7.06024L112.309 7.01025Z" fill="#016C55"/>
<path d="M81.9297 49.7202V49.2802C81.9825 49.1498 82.0495 49.0257 82.1297 48.9102L81.9297 49.7202Z" fill="#016C55"/>
<path d="M87.6786 31.8703C87.4786 32.2503 87.0486 32.1703 86.8086 32.2303C87.1018 32.0676 87.3494 31.8337 87.5286 31.5503C87.5986 31.5803 87.6486 31.6803 87.6786 31.8703Z" fill="#016C55"/>
<path d="M109.189 10.5703L109.689 10.3403L109.189 10.5703Z" fill="#016C55"/>
<path d="M87.8398 60.25C87.9022 60.2093 87.9754 60.1884 88.0498 60.19C88.0298 60.24 87.9498 60.25 87.8398 60.25Z" fill="#016C55"/>
<path d="M215.92 16.9904C215.92 16.9904 215.92 16.9404 215.92 16.9104C215.92 16.8804 216.07 16.9804 215.92 16.9904Z" fill="#016C55"/>
<path d="M238.36 16.6701L238.05 16.5801C238.035 16.5042 238.035 16.426 238.05 16.3501L238.36 16.6701Z" fill="#016C55"/>
<path d="M77.929 82.0103H77.8591C77.4291 82.2203 77.669 82.1103 77.929 82.0103Z" fill="#016C55"/>
<path d="M124.31 77.8099C123.44 79.4799 126.55 75.7399 125.14 78.1699C125.19 77.8799 123.07 79.7499 124.31 77.8099Z" fill="#016C55"/>
<path d="M111.88 7.30029L111.15 7.67029C111.386 7.53316 111.63 7.40963 111.88 7.30029V7.30029Z" fill="#016C55"/>
<path d="M125.189 78.1699L125.039 78.4199L125.189 78.1699Z" fill="#016C55"/>
<path d="M77.8503 81.7101C77.7773 81.5968 77.7391 81.4648 77.7403 81.3301C77.7403 81.3301 77.7903 81.4101 77.8503 81.7101Z" fill="#016C55"/>
<path d="M87.0996 77.2402L87.6596 76.7402C87.4842 76.9191 87.2972 77.0862 87.0996 77.2402V77.2402Z" fill="#016C55"/>
<path d="M84.9297 91.0499C85.258 90.9743 85.5929 90.9308 85.9297 90.9199C85.8837 90.9511 85.8331 90.9747 85.7797 90.9899C85.4952 90.953 85.2062 90.9734 84.9297 91.0499V91.0499Z" fill="#016C55"/>
<path d="M100.129 85.6802L99.9095 85.9002L99.4395 86.1302L100.129 85.6802Z" fill="#016C55"/>
<path d="M167.58 30.1502C167.8 29.9684 167.989 29.7523 168.14 29.5103C168.02 29.8803 170.32 29.0202 167.58 30.1502Z" fill="#016C55"/>
<path d="M112.409 7.22006C112.228 7.18328 112.041 7.21164 111.879 7.30008L112.389 7.06006C112.459 7.09006 112.499 7.14006 112.409 7.22006Z" fill="#016C55"/>
<path d="M85.8691 94.2104C86.8446 94.0836 87.8103 93.8898 88.7592 93.6304C87.8157 93.9122 86.8483 94.1064 85.8691 94.2104Z" fill="#016C55"/>
<path d="M77.0095 29.6602L76.4395 29.9702C76.6128 29.8388 76.805 29.7343 77.0095 29.6602V29.6602Z" fill="#016C55"/>
<path d="M96.5703 91.0199C96.9802 90.6903 97.4148 90.3928 97.8703 90.1299C97.9833 90.1169 98.0973 90.1169 98.2103 90.1299L96.5703 91.0199Z" fill="#016C55"/>
<path d="M183.63 24.0499C186.04 23.4499 184.35 23.6899 186.37 22.6299C187.74 22.6299 188.68 21.7499 189.15 22.3499C189.77 21.6599 189.62 21.8899 191.01 21.0999C190.45 21.6499 193.94 20.6799 194.01 21.1499C194.48 20.4699 191.3 21.2299 193.11 20.1499C194.55 20.0999 197.11 19.5699 197.42 20.0999C198.392 19.6521 199.394 19.2745 200.42 18.9699C200.173 19.0232 199.917 19.0232 199.67 18.9699C202.6 18.6799 206.79 17.5399 208.52 17.9699C207.82 17.1599 214.66 17.1199 212.36 16.6199C213.561 16.5232 214.769 16.5939 215.95 16.8299C215.78 16.2299 218.95 16.4599 220.27 16.1099C220.96 16.4899 223.14 16.3299 224.46 16.5999C223.87 16.4699 223.56 16.3899 223.77 16.2099C225.25 16.5299 224.89 16.2799 226.18 16.0499C228.18 16.3799 225.78 16.5199 226.97 16.8899C228.72 16.8899 227.27 16.4999 227.6 16.2599C228.45 16.5099 229.29 16.8299 230.12 17.1599C230.512 17.1936 230.906 17.121 231.26 16.9499C232.173 17.3512 233.163 17.5491 234.16 17.5299C233.44 17.3599 232.71 17.2699 231.97 17.1699L232.87 16.9599C233.73 17.1899 234.56 17.5499 235.39 17.8499C239.2 18.1299 238.22 17.2199 238.08 16.4999L236.56 16.0799C236.65 15.8599 237.75 15.9499 238.45 16.0799C239.15 16.2099 236.08 14.8599 234.36 14.4299C229.67 13.7899 233.27 15.0599 230.06 14.7999C228.71 14.4499 227.34 14.3099 225.96 14.0699L225.9 14.2899C225.482 14.3643 225.051 14.2824 224.69 14.0599C224.96 14.3499 221.32 14.1299 219.63 14.1799L220.23 13.8899C218.249 13.6601 216.243 13.7717 214.3 14.2199C212.631 14.7039 210.914 15.0024 209.18 15.1099L206.52 15.0099L206.06 15.5199C204.611 15.3345 203.139 15.4572 201.74 15.8799C193.28 18.3399 184.03 20.4199 175.87 24.0499C176.096 23.8284 176.365 23.6549 176.66 23.5399C169.8 27.3599 164.91 27.0899 158.81 30.7099L159.32 30.6599C156.02 32.0199 159.83 30.6099 157.56 31.8799C156.89 31.5899 153.24 33.3499 151.28 33.9999C151.809 33.8624 152.33 33.6955 152.84 33.4999C152.533 33.9604 152.072 34.297 151.54 34.4499C149.15 34.6699 144.7 36.7199 141.29 37.9199C141.03 38.4199 138.29 39.9199 136.99 41.0399C136.59 41.0399 135.88 41.0399 135.21 41.0399C134.29 41.5783 133.269 41.9189 132.21 42.0399L134.95 40.9899H134.86C134.97 40.9899 135.17 40.8899 135.34 40.8399C136.08 40.5699 136.46 40.4199 136.34 40.5199C137.55 39.6599 136.15 40.3099 136.08 39.8899C135 40.3599 132.68 41.1099 132.54 41.4999C131.88 41.7599 131.47 41.9799 130.8 42.2999C130.324 42.3965 129.861 42.5475 129.42 42.7499H129.65C129.588 42.8433 129.506 42.9219 129.41 42.9799C127.32 43.9799 124.05 44.4499 122.18 44.7899C124.11 44.6699 121.91 45.4999 122.02 45.8499C121.81 45.8999 124.02 45.1099 126.79 44.1499C126.6 44.2599 126.47 44.3699 126.47 44.5199C124.2 45.7099 122.27 45.6299 118.84 46.9599C119.08 46.9599 119.55 46.8699 119.43 47.0599C118.556 47.4633 117.583 47.6057 116.63 47.4699C116.42 47.8899 113.8 48.9299 112.41 49.0999C111.317 48.9845 110.211 49.1073 109.17 49.4599H110.17C107.7 50.2899 108.03 49.5599 105.98 50.1899C106.8 49.9299 106.93 50.1899 106.31 50.3499C104.739 50.6677 103.121 50.6677 101.55 50.3499L101.97 50.6999C99.67 50.8699 95.35 50.7699 95.35 51.3199C96 50.4799 90.35 51.2299 88.41 51.2499C89.08 51.2499 89.21 51.4399 89.28 51.5299C85.18 51.0599 80.99 51.2899 77.55 49.4599L76.72 49.6899C74.96 48.4799 75.3 47.1699 74.11 45.6899C74.1626 45.9467 74.2294 46.2005 74.31 46.4499C73.4473 45.3654 72.8574 44.0897 72.59 42.7299C72.3798 41.5644 72.4448 40.3658 72.78 39.2299L72.38 39.1499C72.8981 38.0866 73.6026 37.1247 74.46 36.3099C74.84 34.9999 76.93 33.2199 79.6 31.8699C82.27 30.5199 85.44 29.4299 87.7 28.0199L88.26 28.6399C90.11 27.9699 92.57 27.4399 93.31 26.6399L92.89 26.7599C92.55 26.2399 94.8 26.2299 95.97 25.8399C96.9 25.6899 97.89 25.8399 97.13 26.1599C102.13 24.5599 109.98 24.2899 113.19 23.7099C115.585 23.8526 117.961 24.2346 120.28 24.8499C122.609 25.4426 124.879 26.2494 127.06 27.2599V27.1599C128.088 27.5867 129.09 28.0743 130.06 28.6199C131.06 29.1499 131.87 29.6199 132.06 29.3599C134.81 32.2599 135.39 34.7799 136.88 39.0499C136.88 38.6999 136.88 38.3699 136.88 38.0499C137.264 39.1749 137.43 40.3627 137.37 41.5499C137.43 41.9599 137.52 41.6499 137.6 41.5499C137.799 42.4322 137.799 43.3477 137.6 44.2299L137.8 43.8599C138.064 46.1612 137.915 48.4911 137.36 50.7399C136.752 53.2619 136.018 55.7517 135.16 58.1999C135.51 57.3599 135.59 57.8899 135.57 58.2699C134.31 59.9499 132.19 65.0999 131 66.8199L131.84 65.8199C129.54 69.1599 130.84 69.2899 128.3 72.4799L129.18 70.2999C128.43 71.7599 127.55 72.8499 127.5 72.2999C126.62 73.9899 127.85 72.8099 126.23 75.1999C126.34 75.4199 127.55 73.5899 127.23 74.5099C126.58 75.6899 125.96 76.8999 125.23 78.0499C124.895 78.6135 124.488 79.1311 124.02 79.5899C123.56 78.7499 121.81 82.0799 122.47 79.9899C118.73 84.1899 115.54 87.8799 111.38 90.4699C110.85 91.4199 108.87 92.8299 107.11 93.9899C105.35 95.1499 103.8 95.9899 104.27 96.3999C102.322 97.5177 100.126 98.1329 97.88 98.1899C98.4427 98.0166 99.0176 97.8863 99.6 97.7999C98.86 97.7999 95.72 98.5299 94.46 98.5299C96.4686 98.5578 98.4759 98.4139 100.46 98.0999C99.1609 98.5084 97.8184 98.7635 96.46 98.8599C95.4591 98.9908 94.4428 98.9399 93.46 98.7099C93.2736 98.8772 93.0607 99.0124 92.83 99.1099C92.4407 98.7768 92.0795 98.4122 91.75 98.0199C91.5703 97.7781 91.4612 97.4912 91.4348 97.1911C91.4083 96.891 91.4655 96.5894 91.6 96.3199C91.6454 96.4433 91.6988 96.5635 91.76 96.6799C91.7572 95.4726 92.1313 94.2945 92.83 93.3099C93.34 92.5099 93.83 91.7599 94.71 90.2399H94.44C94.93 89.0999 96.37 87.8999 96.62 86.6399C96.19 87.2699 95.72 87.8899 95.32 88.5499C95.09 88.1399 95.93 86.5499 96.32 85.7699C97.92 83.8299 97.37 85.4799 98.19 84.5399C98.24 83.8899 98.12 84.3099 97.28 84.7399C99.11 82.6099 101.99 80.1499 103.86 79.3999C103.93 79.2799 103.76 79.2899 103.76 79.2899C104.811 78.4821 105.96 77.8101 107.18 77.2899C107.99 76.9399 108.05 77.0299 108.53 76.6099H108.34C108.484 76.461 108.645 76.33 108.82 76.2199C108.97 76.1499 109.1 76.3699 109.18 76.4999C109.337 76.828 109.362 77.2039 109.25 77.5499C109.05 78.2199 108.84 78.3899 109.06 78.9699C108.85 79.4699 109.21 78.8999 109.4 78.5999C109.59 78.2999 109.8 77.9399 109.74 78.5999C109.607 79.0353 109.384 79.4382 109.086 79.7826C108.788 80.127 108.422 80.4054 108.01 80.5999C107.262 80.9203 106.583 81.382 106.01 81.9599C106.32 81.6799 106.25 81.8099 106.42 81.7899C104.4 83.2812 102.255 84.596 100.01 85.7199C98.4052 86.9879 96.5913 87.9659 94.65 88.6099C92.6066 89.3122 90.6036 90.1268 88.65 91.0499C89.65 90.4699 87.73 90.9099 87.7 90.7599C87.7 90.7599 87.86 90.8099 87.7 90.8899C87.0954 91.0731 86.4464 91.0448 85.86 90.8099C85.2047 90.9837 84.5153 90.9837 83.86 90.8099C83.13 90.6799 82.52 90.4299 82.24 90.4299C82.24 90.2399 81.48 90.0599 80.71 89.5599C82.21 90.6499 81.03 90.2099 81.71 90.8799C81.1855 90.7094 80.7004 90.4358 80.2831 90.0751C79.8658 89.7145 79.5247 89.2741 79.28 88.7799C78.88 87.9899 78.54 87.2099 77.96 85.7799C77.6538 85.2789 77.3959 84.7498 77.19 84.1999C77.45 83.9699 77.42 83.1999 77.5 82.4299C77.58 81.6599 77.69 81.0299 77.8 81.0799C77.7 80.5499 77.85 79.7899 77.55 79.7999C78.02 78.6299 78.88 76.8499 79.5 76.6399C79.2786 77.0014 79.0782 77.3753 78.9 77.7599C79.7483 76.2996 80.9702 75.0916 82.44 74.2599C83.7 73.4799 84.94 72.9199 86.29 72.1199L85.89 71.3599C87.4677 70.4689 89.3107 70.1677 91.09 70.5099C90.81 70.5099 90.67 70.5099 90.68 70.5899C90.8433 70.7404 90.9817 70.916 91.09 71.1099C90.8445 70.8995 90.5535 70.7488 90.24 70.6699C89.671 70.5481 89.081 70.5652 88.52 70.7199C89.2435 70.5992 89.9857 70.7641 90.59 71.1799C90.1369 70.9718 89.6325 70.9022 89.14 70.9799C88.4592 71.0635 87.7889 71.2176 87.14 71.4399C89.02 71.1299 88.75 71.2099 88.24 71.6899C89.39 71.4799 89.87 71.4199 90.24 71.3799C90.61 71.3399 90.83 71.3799 90.81 71.8399C90.89 71.9499 90.98 71.9499 91.1 71.9499C91.22 71.9499 91.36 71.9499 91.38 72.2999C90.76 73.8399 89.63 75.8399 88 76.5699C87.63 76.9799 88.77 75.9699 88.8 76.2099C88.0273 76.9055 87.1412 77.4636 86.18 77.8599L87.18 76.9899C86.1652 77.5807 85.1868 78.2319 84.25 78.9399C83.08 79.4699 82.25 79.4899 83.4 78.7499C82.92 79.0099 82.02 79.8399 82.51 79.8299C79.6 81.5699 80.68 79.8899 78.01 81.7599C78.22 81.6899 78.45 81.6199 78.36 81.7599C77.7861 82.1283 77.1721 82.4302 76.53 82.6599C79.16 81.4799 76.02 83.7099 79.02 82.0399C78.9 82.6299 76.73 83.2899 75.79 83.8799C74.12 84.2399 75.36 83.3499 74.5 83.4599C74.57 83.5799 73.94 83.8699 73.2 84.2099L73.81 83.5999C73.1384 83.8754 72.4504 84.1092 71.75 84.2999L73.08 83.9499C71.2161 85.0114 69.1883 85.7549 67.08 86.1499C67.79 86.1499 69.22 86.0199 67.55 86.6499C64.67 87.1399 66.93 86.9599 65.37 87.5799C62.5 88.0599 64.77 87.1499 60.58 87.9899C60.13 88.0499 60.53 87.7999 60.97 87.6399C60.3926 87.7744 59.8027 87.8482 59.21 87.8599C58.9464 87.8749 58.6876 87.785 58.49 87.6099C58.3091 87.4193 58.1995 87.172 58.18 86.9099C58.0998 86.3434 58.0597 85.772 58.06 85.1999C58.06 86.4199 58.24 87.1999 58.41 85.7099C58.09 86.3899 58.21 83.4899 58.31 82.4099L58.52 82.1699C58.52 81.2999 58.24 82.1699 58.09 82.8599C58.15 82.8599 58.15 83.0999 58.09 83.5999C57.85 84.9399 57.14 84.4099 57.44 82.1799C58.07 79.8799 58.5 80.3999 58.54 80.8199C59.23 77.7699 60.08 78.2899 61.01 75.5099C61.4272 73.8251 62.0379 72.1943 62.83 70.6499C63.76 69.8999 61.65 73.1199 62.61 72.2199C63.66 68.5899 67.23 66.3399 70.03 62.5799L69.27 62.6799C70.0196 61.8077 70.8426 61.0014 71.73 60.2699C71.38 60.6999 71.04 61.1299 70.73 61.5699C71.57 60.8599 73.49 59.1499 72.62 59.4099C74.81 58.1799 75.09 57.7199 77.03 56.4599C74.94 57.7099 77.03 56.5199 75.36 57.2299C76.5532 56.2782 77.9383 55.5959 79.42 55.2299C79.08 55.1799 79.86 54.5799 80.54 54.3799C82.7842 53.9096 85.0817 53.7448 87.37 53.8899V53.7499C89.366 53.9037 91.3277 54.3553 93.19 55.0899C94.1199 55.482 94.9914 56.0002 95.78 56.6299C96.1309 56.8753 96.3797 57.2408 96.4792 57.6573C96.5787 58.0738 96.5221 58.5124 96.32 58.8899V58.8899L96.24 59.0399L96.31 58.7899C96.18 58.2599 96.11 58.7899 95.54 59.4399C94.9603 60.089 94.1778 60.5226 93.32 60.6699C93.14 60.8299 93.09 61.1099 92.47 61.1999C92.38 60.8299 91.08 61.0899 90.6 60.8099C89.38 60.7099 90.66 61.4699 88.6 60.8099C87.81 60.4699 87.84 60.1799 87.99 60.0899C86.9717 59.9163 86.0244 59.4548 85.26 58.7599C85.5495 59.0828 85.8867 59.3593 86.26 59.5799C86.26 59.8699 85.65 59.3199 85.49 59.5799C84.63 58.8899 85.4 59.0199 84.38 58.1599C84.5686 58.5514 84.7789 58.932 85.01 59.2999C84.6051 58.9813 84.2655 58.5874 84.01 58.1399C84.49 58.8199 84.18 58.9699 83.94 59.0199C82.06 56.2599 84.27 58.0199 84.4 57.5899C82.4 55.4799 82.33 52.9099 82.17 50.7599L81.81 51.2199C81.7346 50.5239 81.8166 49.8199 82.05 49.1599C82.05 48.5899 82.05 48.0199 82.14 47.4499C81.91 48.4499 81.8 48.7499 81.47 48.8099C81.6 46.9499 82 44.3799 82.64 44.0399L82.54 44.0899C82.7953 42.518 83.1663 40.9672 83.65 39.4499C83.9915 38.5781 84.2559 37.678 84.44 36.7599C85.64 34.3199 87.15 31.2199 87.64 31.4299C88.57 30.1399 89.35 27.5399 90.64 27.0299C91.51 25.2899 90.59 26.8599 89.92 27.0999C90.79 25.3199 92.76 24.4099 92.61 23.4399C94.27 21.8999 92.38 23.9399 93.14 23.5899C92.9 22.7299 95.88 20.4499 97.19 18.7699C98.08 18.3399 96.6 19.5399 98 18.6699C97.76 18.6699 98.4 18.0499 98.72 17.7599L99.33 17.8199C99.62 17.0699 99.97 16.3599 100.33 15.6199C103.2 14.0999 100.26 16.6199 103.8 14.2499L103.57 14.3599C104.25 13.3599 106.23 12.9199 108.66 11.0599C107.81 11.6599 108.18 11.0599 107.83 11.1599L109.4 10.4499C109.25 10.5099 109.17 10.5199 109.29 10.3899C110.43 9.38991 110.51 9.90989 111.9 8.80989C110.79 9.29989 110.9 8.80989 111.35 8.42989L113.81 7.72991L112.63 7.64989C114.8 6.45989 118.51 5.85989 119.34 4.64989L118.18 5.04992C118.18 4.87992 118.7 4.17991 120.35 3.82991C120.86 3.69991 121.35 3.89989 120.65 4.14989L121.75 3.55989C121.04 3.39989 118.16 4.47989 116.35 5.17989C116.97 5.06989 118.35 4.5999 118.07 4.9999C116.44 5.5699 114.85 5.99989 113.3 6.64989C113.796 6.54598 114.304 6.51234 114.81 6.54992C113.24 7.54992 113.44 6.89992 112.17 7.54992C111.77 7.93992 111.49 8.19989 111.86 8.14989C110.3 8.76363 108.832 9.59159 107.5 10.6099C107.5 10.6099 109.45 9.79991 108.58 10.6099C105.58 12.1599 104.71 12.1099 101.58 14.0599C97.67 16.0599 95.41 19.6899 93.04 21.5299C92.8 21.5299 94.36 19.6699 92.94 21.0199C93.43 21.0199 92.29 22.0199 92.34 22.1999C90.54 23.4399 90.39 24.6399 89.19 25.6099C89.5 25.3999 88.87 26.4699 88.48 27.1899C88.98 27.2699 87.29 29.1899 89.58 27.0699C87.17 29.2199 86.64 31.7299 84.67 33.3199L84.93 32.5399C84.51 33.5399 84.06 34.4899 83.7 35.5399L83.75 35.4099C83.2335 36.4523 82.9148 37.5813 82.81 38.7399C83.19 38.0399 83.61 36.9799 84.03 36.2999C83.72 37.9799 82.4 39.4099 81.85 41.2199C82.16 41.2199 82.55 39.3899 82.75 40.0399C82.38 41.3099 81.84 42.3199 81.46 43.4999L81.67 43.3699C81.4 46.6499 80.52 44.4699 80.75 46.9699C80.66 46.8799 80.51 47.1799 80.42 47.0199C80.5 47.9599 80.75 50.0199 81.07 48.0199C81.0071 49.0254 80.8902 50.0269 80.72 51.0199C80.39 50.0199 80.53 49.7899 80.2 49.4199C80.113 51.0345 80.251 52.6533 80.61 54.2299C80.76 54.7499 80.61 53.7999 80.53 53.1299C81.53 55.7799 82.62 58.4899 84.9 60.5299C86.0313 61.5996 87.4032 62.3816 88.9 62.8099C90.4806 63.2979 92.1855 63.1875 93.69 62.4999C93.04 62.9599 94.24 62.6799 94.91 62.4999C96.1976 61.9423 97.229 60.9216 97.8 59.6399C98.1145 58.8708 98.1145 58.009 97.8 57.2399C97.5417 56.6185 97.1027 56.089 96.54 55.7199C96.66 55.9099 96.78 56.1099 96.89 56.3199C95.4995 54.9449 93.8432 53.8677 92.0224 53.1542C90.2017 52.4407 88.2545 52.1058 86.3 52.1699C86.14 52.0899 86.3 52.4499 86.9 52.5199C84.45 52.0499 81.9 53.8099 81.14 53.2499C81.42 53.1599 81.69 53.0499 81.97 52.9799C77.2056 54.1504 72.807 56.4871 69.17 59.7799C68.66 60.8699 71.23 57.9399 70.88 59.0199C68.3497 61.274 66.0485 63.7729 64.01 66.4799C64.41 66.0499 64.37 66.1899 64.56 65.9899C62.69 68.9899 64.41 65.3799 62.71 67.8399C62.98 67.8399 62.95 67.9899 62.48 68.8399L61.69 69.3699C61.69 69.5299 61.91 69.6599 62.25 69.3699C61.06 70.1799 59.38 73.8199 58.58 74.6099C58.58 74.9099 59.28 74.4099 59.26 74.8599C58.8101 76.0274 58.2753 77.1604 57.66 78.2499V78.2499C57.54 79.3999 56.93 82.0299 57.12 81.4799C56.77 84.3199 56.74 81.8599 56.18 84.0099C56.18 83.2299 56.25 82.4599 56.31 81.6799C56.0123 83.0291 55.825 84.4003 55.75 85.7799C55.85 85.2299 55.94 84.6899 56.08 84.1599C56.08 85.1599 55.96 85.9999 55.95 87.1099C55.9528 87.7817 56.1247 88.442 56.45 89.0299C56.6403 89.3534 56.893 89.6358 57.1934 89.8607C57.4939 90.0856 57.836 90.2485 58.2 90.3399C57.6982 90.3022 57.212 90.1482 56.78 89.8899C57.7138 90.6363 58.8991 90.9944 60.09 90.8899C60.38 90.3499 63.24 90.3499 61.84 89.8899C66.28 88.9499 69.27 88.8899 73.26 87.5399C72.58 87.7999 72.8 87.5399 72.64 87.5399C74.2978 86.8517 76.0149 86.3162 77.77 85.9399C77.43 85.9399 76.88 86.0999 76.77 85.9399C79.38 84.7299 78.5 85.5199 81.41 84.1899C80.53 84.4099 80.72 84.1899 81.41 83.7099C81.41 83.9399 82.1 83.7099 82.64 83.4799C80.04 83.7399 85.47 81.2799 83.72 81.3099C83.99 81.4699 88.3 79.0699 87.39 80.2099L86.63 80.6399C86.72 80.9399 87.63 80.1899 88.35 79.6399C87.96 79.8799 87.52 80.1199 87.47 80.0699C88.4485 79.4593 89.3902 78.7915 90.29 78.0699C91.3436 77.3112 92.2629 76.3817 93.01 75.3199C93.4469 74.7102 93.7844 74.0352 94.01 73.3199C94.2903 72.4084 94.255 71.429 93.91 70.5399C93.5144 69.5925 92.7697 68.8334 91.83 68.4199C91.01 68.0849 90.1234 67.9445 89.24 68.0099C89.7915 68.034 90.3384 68.1212 90.87 68.2699C91.42 68.4799 91.63 68.5999 90.75 68.4399C89.4164 68.3342 88.0757 68.5184 86.82 68.9799C85.82 69.3099 84.82 69.6499 83.82 70.0599C81.6324 70.9075 79.6315 72.1746 77.93 73.7899C78.09 74.1099 79.11 73.0199 80.33 72.1199C81.55 71.2199 82.91 70.4499 83.16 70.6899C80.5602 71.983 78.3101 73.8833 76.6 76.2299C74.6816 78.9162 73.9017 82.2515 74.43 85.5099C75.17 86.5599 75.55 88.0999 76.56 89.7599C77.0767 90.7076 77.8078 91.5213 78.6951 92.136C79.5824 92.7507 80.6012 93.1493 81.67 93.2999C81.14 93.4999 83.35 94.2999 85.67 94.0899C84.9 93.8899 87.2 93.6399 86.53 93.5099C88.53 93.6499 93.43 92.1399 93 91.5599C93.67 92.0299 96.53 90.2099 98 89.9799C99.92 88.8299 102.35 87.9799 104.61 86.2699C104.01 87.1599 107.05 84.8999 107.95 84.3799C107.71 84.5299 107.2 84.8399 107.28 84.7099C107.791 84.1608 108.385 83.6952 109.04 83.3299C109.893 82.7527 110.615 82.0033 111.16 81.1299C111.49 80.3499 110.76 81.1299 111.43 79.9399C111.51 79.9399 111.78 79.6199 112.12 78.9399C112.545 78.1322 112.765 77.2325 112.76 76.3199C112.764 75.3518 112.456 74.4082 111.88 73.6299C111.59 73.2999 111.3 72.9899 111.02 72.7199L110.81 72.5299C110.74 72.5299 110.65 72.5299 110.58 72.5299L110.15 72.6299C110.323 72.6183 110.497 72.6183 110.67 72.6299C110.8 72.6299 110.85 72.8299 110.92 72.8899C110.99 72.9499 111.12 73.2599 111.27 73.5399C111.08 73.2899 110.86 73.0399 110.65 72.7999L109.82 72.8899L108.97 72.9799C108.824 72.9852 108.68 73.0088 108.54 73.0499L108.02 73.3099L105.89 74.3799L104.62 75.1399C102.956 76.1852 101.384 77.3694 99.92 78.6799C97.0179 81.3426 94.434 84.3325 92.22 87.5899L93.35 86.6699C92.35 88.8699 91.84 89.4799 91.29 89.9599C90.4243 90.6384 89.7888 91.5672 89.47 92.6199C88.8699 94.1442 88.6469 95.7909 88.82 97.4199C88.9576 98.482 89.3986 99.482 90.09 100.3C90.846 101.145 91.8771 101.694 93 101.85C94.5235 101.97 96.0564 101.825 97.53 101.42C98.8606 101.101 100.164 100.68 101.43 100.16C106.43 98.0799 110.61 95.0699 114.66 92.1599C115.32 91.8199 114.43 92.5599 114.46 92.7999C115.11 92.2099 115.05 91.7399 116.13 91.1999V91.5699C117.68 89.8499 120.24 87.7799 122.47 85.5699C124.7 83.3599 126.67 81.0399 127.26 79.3699C130.26 76.1499 131.42 73.2399 134.5 68.9099C135.07 67.3199 133.21 70.4199 134.19 68.3899C135.09 67.0199 135.91 65.5999 136.72 64.1699L136.58 64.3999C138.083 61.838 139.1 59.0209 139.58 56.0899C140.23 52.8199 140.51 49.3799 140.88 46.3799L140.83 46.6399C140.65 46.7599 140.45 45.5199 140.52 44.5599C140.65 44.2199 140.71 44.8699 140.86 45.4499C141.006 43.4842 140.929 41.5082 140.63 39.5599C140.366 37.8442 139.899 36.1659 139.24 34.5599C139.72 36.4199 138.35 33.0099 137.85 33.0699C137.49 31.9499 138.59 33.4399 137.38 31.1299C136.404 29.6314 135.196 28.298 133.8 27.1799C132.522 26.2136 131.156 25.3699 129.72 24.6599C128.81 23.7699 127.28 23.2199 127.36 22.8299C123.863 21.3658 120.144 20.5037 116.36 20.2799L116.23 20.4099C114.92 19.7799 111.96 20.5399 111.06 20.2999C111.2 20.4699 111.72 20.5299 111.6 20.6799L109.39 20.5999C110.39 20.6999 111.03 21.1499 109.25 21.2999C107.36 21.0499 109.75 21.0299 108.82 20.7899L108.29 21.2999C106.89 21.3599 106.44 20.8499 108.16 20.5699C103.512 20.8122 98.8956 21.4817 94.37 22.5699L94.89 22.7599C92.5769 23.1536 90.3247 23.8461 88.19 24.8199C88.1 24.7499 87.49 24.8199 87.82 24.5699C84.99 25.0999 87.7 25.1299 84.63 25.7599C85.2346 25.5509 85.8703 25.4461 86.51 25.4499C84.63 25.9699 82.82 26.5499 80.95 27.2399C80.95 27.4699 77.95 29.4199 75.8 30.7899C75.65 30.7899 76.14 30.1499 76.68 29.7899C76.19 30.0399 75.73 30.3399 75.26 30.6299C75.01 31.0199 74.8 31.4399 74.59 31.8399C73.8649 32.224 73.1696 32.6619 72.51 33.1499L72.8 33.4799C71.57 34.7399 70.65 35.0199 69.94 36.4799C69.1991 38.0355 68.9114 39.7684 69.11 41.4799C69.2689 42.7052 69.6412 43.8931 70.21 44.9899C69.87 45.3399 70.49 46.8799 71.53 48.1699C72.57 49.4599 73.9 50.4799 74.11 51.0299C76.7057 52.568 79.5755 53.5869 82.56 54.0299C85.7493 54.4936 88.9835 54.5641 92.19 54.2399L91.67 54.1899C94.31 53.6899 94.76 54.6999 97.62 54.1899L96.89 54.1399C100.54 53.4199 106.97 52.6799 110.48 52.1999C109.75 52.1999 110.04 51.8899 111.15 51.6599C112.15 51.5999 110.38 52.4599 112.28 51.8399C111.78 51.8399 112.12 51.5999 112.56 51.4899C113.22 51.4899 113.89 51.4899 114.56 51.4199C119.45 49.8599 125.02 47.6699 130.03 46.0699C130.89 45.5899 130.17 45.6899 129.9 45.6399C133.9 44.2899 137.8 43.0399 141.31 41.6399L141.47 41.0399C143.15 40.3099 142.81 41.2899 144.83 39.9399C145.3 39.6699 143.37 40.5299 142.68 40.5899C145.92 38.7899 144.88 40.1899 148.08 38.7199L147.02 38.5799C148.177 37.745 149.602 37.3675 151.02 37.5199C154.75 36.5899 153.02 35.4499 157.95 33.8099C158.8 33.7299 157.86 34.2899 158.72 34.2099C161.97 32.6199 162.52 32.7899 165.78 31.2099C167.22 29.6899 164.09 31.9399 165.71 30.3899L163.26 31.6599C165.26 30.2999 161.26 32.4299 161.38 31.8199C163.465 30.9151 165.606 30.1468 167.79 29.5199C167.65 29.1799 165.3 30.5199 166.09 29.6599L167.24 29.3299C166.865 29.2958 166.488 29.3649 166.15 29.5299C166.41 29.0399 167.43 28.9599 168.48 28.5299C168.63 28.6799 168.68 28.9499 168.48 29.3399C168.538 29.2439 168.617 29.162 168.71 29.0999C171.05 28.6999 174.53 26.8499 176.54 26.5299C176.2 26.5299 176.44 26.4199 176.54 26.2999C177.83 25.7499 179.37 25.7399 181.17 25.2099C182.04 24.6099 180.33 24.6199 183.17 23.7699C183.77 23.8899 182.69 24.8299 185.06 23.9999C184.75 24.1599 182.59 24.6299 183.63 24.0499ZM130.76 45.2199L129.6 45.6299L130.76 45.2199ZM126.35 46.4799C126.82 46.3099 127.05 46.3899 126.93 46.5799L124.88 47.2999C125.55 46.9499 126.64 46.4799 126.35 46.4799ZM134.12 41.0599H134.02L132.73 41.5199C132.8 41.4099 133.01 41.2299 133.73 40.9999C133.863 40.9826 133.998 41.0034 134.12 41.0599V41.0599Z" fill="#016C55"/>
<path d="M135.269 40.9601L135.579 40.8701L135.179 41.1301H134.879L135.269 40.9601Z" fill="#016C55"/>
<path d="M96.1893 58.9604V58.8804C96.1843 58.9403 96.1843 59.0005 96.1893 59.0604C96.1893 59.0004 96.1893 59.0004 96.1893 58.9604Z" fill="#016C55"/>
<path d="M72.1891 33.25L72.2691 33.33L71.8691 33.62L72.1891 33.25Z" fill="#016C55"/>
<path d="M80.1891 47.0101C80.1635 46.8814 80.1635 46.7489 80.1891 46.6201C80.2073 46.7495 80.2073 46.8808 80.1891 47.0101V47.0101Z" fill="#016C55"/>
<path d="M83.5391 35.4103C83.7291 34.8703 83.919 34.3303 84.149 33.8003C83.879 34.4903 83.6891 35.0003 83.5391 35.4103Z" fill="#016C55"/>
<path d="M88.0293 27.2702C88.1028 27.2306 88.1861 27.2133 88.2693 27.2203V27.2203L88.0293 27.2702Z" fill="#016C55"/>
<path d="M88.25 79.8004L88.55 79.5904C89.27 79.1404 88.8 79.4704 88.25 79.8004Z" fill="#016C55"/>
<path d="M57.4792 78.3202C57.2501 78.741 57.0463 79.175 56.8691 79.6202C57.0491 78.8402 57.2592 78.2602 57.4792 78.3202Z" fill="#016C55"/>
<path d="M85.5393 94.24H85.5293L85.8693 94.21L85.5393 94.24Z" fill="#016C55"/>
<path d="M56.3887 81.6201C56.4563 80.9346 56.6178 80.2617 56.8687 79.6201C56.7187 80.2501 56.5787 80.9901 56.3887 81.6201Z" fill="#016C55"/>
<path d="M119.77 3.55014L120.17 3.37012C120.17 3.37012 120.17 3.37012 120.25 3.37012L119.77 3.55014Z" fill="#016C55"/>
<path d="M120.25 3.41003L120.72 3.27002C120.572 3.34117 120.413 3.38844 120.25 3.41003V3.41003Z" fill="#016C55"/>
<path d="M121.719 2.97998L120.719 3.26996C121.031 3.11049 121.37 3.01209 121.719 2.97998V2.97998Z" fill="#016C55"/>
<path d="M108.87 9.04008L108.67 8.98008C108.706 8.97177 108.743 8.97294 108.778 8.98347C108.813 8.994 108.845 9.01351 108.87 9.04008Z" fill="#016C55"/>
<path d="M105.66 10.9102C106.553 10.166 107.507 9.49709 108.51 8.91016L108.67 8.96014C108.05 9.07014 106.49 10.6702 105.66 10.9102Z" fill="#016C55"/>
<path d="M94.8496 21.9102C95.5396 21.1702 96.2196 20.4102 96.9496 19.7002C96.6596 20.1802 96.2996 20.8002 97.3296 19.9002C94.8996 22.8702 97.6396 19.0702 94.8496 21.9102Z" fill="#016C55"/>
<path d="M89.0797 29.3C90.0797 28.01 89.2597 29.44 89.3797 29.42C88.6897 30.18 88.5097 30.41 89.0797 29.3Z" fill="#016C55"/>
<path d="M78.7501 55.7803L79.0401 56.0603C77.9201 56.5003 78.9701 55.9303 78.7501 55.7803Z" fill="#016C55"/>
<path d="M67.1992 62.0801L67.8992 61.0001L68.5692 60.8101L67.1992 62.0801Z" fill="#016C55"/>
<path d="M64.4491 69.7703L64.799 69.3604L63.5391 70.9803C63.8291 70.5703 64.1891 70.1703 64.4491 69.7703Z" fill="#016C55"/>
<path d="M97.3889 86.7002L97.2489 87.2802C96.4489 87.5602 96.0889 87.1802 97.3889 86.7002Z" fill="#016C55"/>
<path d="M91.9601 96.4102L92.5401 98.2202C92.3232 97.9751 92.1597 97.6877 92.0598 97.3761C91.96 97.0645 91.926 96.7356 91.9601 96.4102V96.4102Z" fill="#016C55"/>
<path d="M85.4699 29.49L86.4399 29.29L84.6699 29.83L85.4699 29.49Z" fill="#016C55"/>
</svg>
