<svg width="459" height="458" viewBox="0 0 459 458" fill="none" xmlns="http://www.w3.org/2000/svg">
<path d="M451.178 260.316C451.298 260.946 451.768 260.656 451.868 258.966L451.268 257.686L451.178 260.316Z" fill="#016C55"/>
<path d="M453.758 249.146C453.598 247.146 453.208 244.786 452.398 245.996C452.908 247.996 452.568 248.476 453.188 250.666C453.108 252.366 452.648 253.586 452.408 253.266C452.528 253.886 451.958 255.866 452.318 256.826C453.187 254.303 453.528 251.627 453.318 248.966C453.498 248.366 453.588 248.986 453.758 249.146Z" fill="#016C55"/>
<path d="M412.198 92.8562L412.748 93.7762C412.584 93.4583 412.4 93.151 412.198 92.8562V92.8562Z" fill="#016C55"/>
<path d="M334.588 26.2962C335.278 26.6662 335.588 26.7562 335.668 26.7162C335.028 26.4062 334.478 26.1562 334.588 26.2962Z" fill="#016C55"/>
<path d="M412.198 92.8563L410.778 90.4863C410.468 90.4863 411.458 91.7363 412.198 92.8563Z" fill="#016C55"/>
<path d="M453.858 226.306C453.863 226.805 453.903 227.303 453.978 227.796V226.406C453.935 226.377 453.895 226.343 453.858 226.306V226.306Z" fill="#016C55"/>
<path d="M436.048 131.486L436.408 132.246C436.583 132.429 436.774 132.596 436.978 132.746L436.048 131.486Z" fill="#016C55"/>
<path d="M448.648 164.026C448.468 163.256 447.798 163.176 447.458 162.956C447.853 163.401 448.147 163.927 448.318 164.496C448.428 164.486 448.588 164.336 448.648 164.026Z" fill="#016C55"/>
<path d="M456.668 218.646L456.738 219.646C456.718 219.366 456.688 218.936 456.668 218.646Z" fill="#016C55"/>
<path d="M424.298 109.406C424.339 109.28 424.339 109.143 424.298 109.016C424.258 109.056 424.258 109.206 424.298 109.406Z" fill="#016C55"/>
<path d="M256.448 450.956C256.448 450.956 256.448 451.036 256.448 451.066C256.648 450.986 256.708 450.936 256.448 450.956Z" fill="#016C55"/>
<path d="M296.148 445.756L295.628 445.946C295.599 446.068 295.599 446.195 295.628 446.316L296.148 445.756Z" fill="#016C55"/>
<path d="M32.2378 112.486C34.4678 109.906 30.0178 117.486 33.1778 113.486C32.7178 113.836 34.7278 109.116 32.2378 112.486Z" fill="#016C55"/>
<path d="M453.988 225.416L454.048 224.006C454.008 224.646 453.988 225.086 453.988 225.416Z" fill="#016C55"/>
<path d="M33.1777 113.556L33.4977 113.136L33.1777 113.556Z" fill="#016C55"/>
<path d="M168.048 444.076C168.478 444.312 168.872 444.608 169.218 444.956C168.898 444.416 173.118 445.336 168.048 444.076Z" fill="#016C55"/>
<path d="M454.218 226.306C454.04 226.045 453.959 225.731 453.988 225.416C453.988 225.756 453.988 226.086 453.988 226.416C454.058 226.486 454.148 226.486 454.218 226.306Z" fill="#016C55"/>
<path d="M19.3579 305.796L19.7979 306.796C19.6942 306.446 19.5463 306.11 19.3579 305.796V305.796Z" fill="#016C55"/>
<path d="M199.588 449.676C195.208 448.986 197.408 450.156 196.408 450.486C191.118 449.916 194.068 449.486 192.358 448.826C189.058 448.526 186.358 448.956 183.968 448.456C183.818 448.276 183.358 448.106 183.968 448.076C180.428 447.846 173.888 445.516 169.718 445.296C169.541 445.218 169.381 445.106 169.248 444.966C169.788 445.526 169.768 445.966 169.558 446.206C167.618 445.726 165.798 445.776 165.218 445.076C165.864 445.282 166.551 445.324 167.218 445.196L165.108 444.896C163.498 443.686 167.968 445.356 168.108 444.806C166.108 444.376 163.858 444.166 161.828 443.626C160.003 443.15 158.213 442.551 156.468 441.836C156.108 440.896 163.468 444.116 159.728 442.036C161.188 442.733 162.691 443.337 164.228 443.846C160.998 441.786 167.048 444.656 164.138 442.586C158.188 440.386 157.328 440.586 151.438 438.216C149.948 438.116 151.668 438.966 150.178 438.866C141.398 436.436 144.178 434.866 137.808 432.866C136.068 432.586 135.048 433.166 130.998 430.646L132.828 430.576C127.328 427.836 129.108 430.146 123.548 426.836C124.738 427.036 128.038 428.686 127.248 428.196C123.828 425.736 124.308 427.446 121.508 425.836L121.308 424.836C115.688 421.496 109.118 418.356 102.958 414.476C103.408 414.536 104.528 415.086 103.308 413.876C99.5277 411.286 95.6177 408.336 91.8177 405.336C89.9477 403.786 87.9576 402.416 86.2976 400.736L81.4277 395.866L78.4977 394.086C77.9177 393.556 77.6177 392.886 78.3377 393.366C75.9577 390.876 77.9176 393.556 76.5176 392.626C75.0376 391.336 74.8676 390.626 75.9176 391.306L71.5877 387.956C70.0377 386.666 68.5877 385.046 67.0277 383.506C64.2075 380.676 61.5689 377.67 59.1277 374.506L60.1277 375.306C59.0061 373.925 57.6849 372.718 56.2076 371.726C54.9058 370.66 53.8255 369.348 53.0277 367.866L53.6477 368.506C50.5177 364.076 47.0377 359.506 43.8077 355.226C41.1463 351.147 38.7674 346.891 36.6877 342.486C35.8777 342.056 34.5777 339.706 33.2877 337.486C31.9977 335.266 31.0677 332.986 30.2877 333.006C28.1777 327.126 29.1577 328.616 25.7777 320.606C24.8777 318.476 23.4277 317.866 22.2477 315.236L22.8576 314.906L20.8576 311.516L20.9176 309.266L19.8276 306.796C20.1576 307.796 20.3176 309.046 20.0776 308.966C18.3376 305.106 16.9976 299.156 17.2976 298.966C15.9429 295.935 14.8067 292.81 13.8977 289.616C14.2177 289.756 14.7277 291.336 15.2277 292.566C13.2277 287.616 15.6777 291.436 13.8477 286.896C13.8477 287.576 13.3676 286.666 13.2076 286.596C12.5985 282.623 11.6756 278.704 10.4476 274.876L11.0977 275.536C9.76766 268.306 8.44766 260.246 7.09766 252.076C7.32766 255.076 6.40765 254.456 5.95765 252.076C6.13765 251.736 6.39764 251.386 6.60764 251.076C6.07764 249.556 6.45767 253.646 5.75767 250.476C5.67767 247.366 6.46767 248.316 6.75767 250.066L6.31766 246.336C6.51766 246.096 6.67766 246.966 6.96766 247.176C6.43766 245.666 7.36767 240.666 6.47767 238.486L6.67765 238.266C6.43765 234.136 6.26764 231.146 6.10764 228.336C6.19764 225.526 6.28765 222.906 6.39765 219.546C5.77765 219.386 6.04765 216.756 5.64765 214.716C5.89765 212.246 6.16764 209.636 6.44764 206.906C6.72764 204.176 7.49766 201.376 7.87766 198.416C8.20766 194.226 7.53765 197.136 7.45765 195.206C8.06765 194.986 8.91766 189.076 8.84766 192.206C9.32766 188.646 9.62766 186.376 9.96766 183.866C10.4877 181.396 11.0577 178.696 11.9677 174.246C11.4977 175.146 11.1176 176.196 11.0776 175.596C11.3976 173.966 12.2376 172.006 12.4476 172.306L12.3977 172.746C13.6177 162.416 21.1177 150.906 22.6777 142.876L22.5677 143.316C23.2777 140.586 24.5677 138.076 25.4977 135.426C27.2677 131.976 24.8776 137.696 26.4476 135.266C29.5776 126.706 32.5276 122.266 36.0776 115.736C38.3076 113.736 40.9277 109.316 43.6277 104.666C46.3022 100.489 49.3122 96.5358 52.6277 92.8463L52.0476 92.9663C52.9376 91.1163 53.6776 91.1563 54.6376 90.0263C54.2676 90.0263 53.0476 91.5463 53.6376 90.4163C56.1045 86.8479 58.8784 83.5019 61.9277 80.4163L71.0077 70.8063L81.1076 62.1463C84.3666 59.1936 87.7994 56.4387 91.3876 53.8963C96.5576 50.1763 93.0477 50.0963 100.088 46.0163L98.6777 48.0163C101.188 46.0163 103.558 43.6763 106.408 42.0163L114.818 36.8763L123.208 31.8163C126.118 30.3763 128.968 28.9063 131.738 27.3663C131.295 27.8324 130.769 28.2122 130.188 28.4863C132.828 27.8163 139.088 24.2363 138.958 23.8063C140.748 22.9963 139.528 23.9763 140.708 23.6463C143.178 22.6463 146.708 20.6463 148.208 20.5263C148.468 20.5263 147.568 20.9463 147.128 21.1463C148.668 20.3063 154.778 18.4163 152.998 18.4163C157.578 17.1563 161.378 14.8163 165.168 14.2863C167.378 13.0063 173.168 12.5863 173.638 11.4463C173.568 12.5163 181.878 10.1363 184.708 8.9763C183.778 9.4263 187.348 8.8863 186.268 9.4763C189.648 8.9563 192.718 8.29632 192.038 7.87632C198.448 8.18632 204.468 4.8763 208.178 6.1363L222.878 4.70631C225.258 4.50631 227.618 4.25632 229.948 4.12632L236.888 4.24632C236.528 5.18632 226.748 3.88632 227.148 5.18632C234.583 4.59494 242.051 4.51808 249.498 4.95631C251.718 5.19631 248.188 5.32632 247.418 5.46632C251.798 5.26632 255.918 6.2663 259.968 6.7263C264.018 7.1863 267.968 7.8263 271.798 8.1363C271.243 8.19798 270.683 8.19798 270.128 8.1363C271.658 8.2463 273.558 8.9963 273.488 8.4763L272.018 8.2563C269.758 7.0363 278.198 8.25632 278.548 8.02632C275.738 8.70632 285.948 10.1163 281.548 10.7763C282.548 10.9263 283.828 11.0063 283.678 10.6563C285.108 11.0863 285.518 11.3663 283.968 11.3563C289.328 12.3563 287.588 11.3563 292.378 12.6663C292.308 12.8563 291.378 12.6663 290.748 12.8063C293.841 13.0931 296.874 13.8378 299.748 15.0163C299.468 15.0663 299.878 15.3863 298.698 15.0163C305.478 17.3263 310.838 17.5463 317.838 21.3663C315.328 21.3063 320.168 22.7463 320.218 23.6763L324.218 25.1563L322.828 24.1063C326.188 25.6863 329.578 26.2363 332.198 28.1563L329.618 27.1563L335.798 30.3863L332.488 28.1863C335.988 29.6363 332.618 27.0563 336.858 29.6763C335.938 29.2563 340.128 31.4963 341.588 32.8663C343.65 33.5846 345.621 34.5446 347.458 35.7263C347.938 36.3063 346.458 36.2363 346.788 36.6063C348.708 36.9463 354.118 41.3063 356.458 41.9663C355.718 41.6763 355.458 42.0163 355.598 42.2363L357.178 42.6263C358.508 43.7363 358.668 43.9563 358.238 44.0763C362.478 47.0763 357.478 42.2963 362.328 46.1263C361.927 45.9702 361.536 45.7899 361.158 45.5863C363.708 47.3363 366.068 49.1763 368.378 50.9763C370.688 52.7763 372.968 54.5163 375.088 56.4163C375.848 58.1163 371.088 53.4163 372.148 55.1963C378.879 60.0608 385.203 65.4653 391.058 71.3563L390.058 70.2563C391.668 70.2563 393.998 74.6863 396.888 77.4663C396.178 76.7763 395.568 76.9263 395.838 77.0363C399.148 81.3363 403.448 85.1163 408.778 91.4163L407.948 90.7663C409.598 93.5363 412.728 97.7163 414.628 100.606C415.478 101.266 416.628 102.906 416.258 101.676C418.649 106.209 421.272 110.615 424.118 114.876C426.818 119.006 429.738 122.876 430.948 127.596C430.468 126.596 429.558 125.286 429.948 126.096L433.648 133.246C433.838 132.456 433.478 132.166 433.108 130.456C434.208 131.865 435.138 133.399 435.878 135.026C434.008 131.876 435.138 135.406 435.548 136.926C435.548 136.626 435.968 137.046 436.058 136.856C436.968 141.066 437.438 137.026 439.058 142.596L438.708 142.416C439.685 144.345 440.56 146.325 441.328 148.346C441.108 149.466 440.278 146.286 439.768 146.346C440.928 149.346 443.058 152.006 443.518 154.986C442.878 153.736 442.188 151.866 441.518 150.616C441.755 152.61 442.246 154.566 442.978 156.436L442.918 156.216C443.418 157.986 444.048 159.716 444.458 161.506C444.409 161.038 444.328 160.574 444.218 160.116C446.868 163.556 446.658 168.046 449.088 173.116C446.768 168.176 448.318 172.396 447.558 172.166C447.738 173.576 448.078 175.676 447.738 175.166C448.848 177.566 448.628 179.386 449.958 182.836C449.778 183.046 450.408 185.576 449.768 185.106C450.498 188.386 450.008 184.246 450.328 184.476C451.868 189.476 451.598 196.606 453.608 203.916C454.868 210.286 455.708 211.356 456.138 217.406C455.808 219.406 455.338 215.746 455.338 215.746C455.079 218.672 455.019 221.612 455.158 224.546C454.988 223.906 454.818 224.546 454.518 225.466C454.428 227.936 455.238 227.166 454.698 230.396C454.367 229.589 454.129 228.747 453.988 227.886C453.988 230.796 454.208 233.696 454.148 236.716C453.708 237.486 453.728 234.856 453.568 233.776C453.478 237.166 453.158 242.556 453.648 243.666L454.068 241.516C453.978 242.746 453.498 242.096 453.468 241.176C453.278 238.246 454.038 237.016 454.278 236.876V239.026C455.728 236.936 454.798 230.386 455.068 226.086L455.898 227.946L455.348 223.466C455.628 222.536 456.168 221.896 456.228 224.046C456.808 220.946 456.008 221.286 456.558 218.616C456.638 218.326 456.688 218.456 456.718 218.736L456.438 215.676C456.638 216.276 457.088 215.166 456.968 217.046C457.498 211.506 455.818 208.226 456.268 206.116L456.388 206.566C455.098 199.106 455.638 205.916 454.088 200.396L455.088 196.396L454.298 195.766C454.188 194.986 453.978 193.456 454.298 193.696C453.348 190.896 454.088 194.226 453.368 192.636C453.368 188.816 451.368 182.466 452.268 181.416C451.538 180.186 452.488 185.046 451.458 181.156C452.458 179.766 450.108 176.706 449.778 173.256C450.638 174.136 451.168 177.366 450.778 173.906C449.258 172.146 449.268 167.356 448.328 164.586C447.918 164.636 447.428 163.136 446.858 161.036C446.121 158.691 445.266 156.385 444.298 154.126C444.668 154.326 441.548 145.366 440.248 140.976L440.418 141.056C439.418 140.526 437.418 136.276 435.868 133.256C436.368 133.176 436.808 133.646 437.798 135.256L436.418 132.356C435.571 131.374 434.867 130.276 434.328 129.096L435.218 129.556C433.338 125.706 431.028 122.036 428.438 117.186C427.798 117.186 429.258 121.706 425.998 116.926C426.158 116.586 426.508 116.136 427.388 117.376C426.798 116.663 426.292 115.884 425.878 115.056L427.498 116.796C426.428 114.526 426.498 115.886 425.498 114.146C425.898 113.956 425.018 112.706 425.498 112.776C425.859 113.532 426.281 114.257 426.758 114.946C425.771 113.227 424.964 111.411 424.348 109.526C424.238 109.826 423.838 109.836 422.958 108.446C420.758 104.786 422.658 106.906 421.578 104.626C420.778 103.916 419.418 101.546 418.838 101.846C418.423 101.304 418.166 100.656 418.098 99.9763C416.568 98.3363 412.008 91.6163 412.898 94.0663L413.188 94.5463L412.958 94.2763C408.468 88.6163 403.898 82.2763 399.048 76.9863L399.228 76.8463C396.466 73.6673 393.405 70.7607 390.088 68.1663C389.188 67.2863 388.228 65.7963 388.798 65.9863C386.616 64.2468 384.607 62.3011 382.798 60.1763C385.428 62.1763 382.218 59.1263 385.418 62.3263C382.498 59.2063 382.078 58.1963 378.088 55.8163C379.668 56.3763 376.088 53.2363 374.378 52.0863L376.438 54.2863C374.618 52.9063 373.108 51.6163 371.558 50.2863L372.878 50.3963C366.778 43.8963 359.318 42.2463 354.708 37.2163C352.508 36.3563 358.438 40.2163 356.388 39.5263C353.118 37.2163 350.238 33.9163 349.148 33.2663C344.528 30.2663 344.098 31.7063 339.208 28.6663C339.718 29.2563 339.978 30.2063 336.118 28.3563C332.668 26.3563 332.318 24.9763 334.638 26.0263C335.488 26.4663 335.858 26.7663 335.778 26.8263C336.958 27.3763 338.508 28.0963 337.248 27.0763H336.668C335.048 25.8763 330.188 23.1963 331.508 23.4563C328.588 22.4563 330.158 23.2563 332.088 24.4563C327.598 21.8863 324.738 21.1463 319.988 18.7263C320.708 19.2063 321.288 19.8063 320.528 19.4663C313.528 16.0163 317.188 18.5363 312.328 16.5163C309.648 15.1663 313.698 15.9563 308.548 14.5763C305.548 13.2763 308.128 13.6963 309.438 13.9063C304.658 12.8363 300.938 10.6863 298.318 9.70631L300.818 10.3263C299.328 9.95631 298.138 9.55631 296.918 9.14631L298.148 10.1463C296.758 9.57631 295.548 9.14632 295.638 8.96632C294.068 8.80632 296.508 10.1863 293.468 9.6663C291.638 8.8163 287.468 8.5063 287.008 7.6663C293.068 9.3563 286.508 6.8263 291.728 7.9463C290.478 7.73886 289.245 7.44144 288.038 7.05632C287.838 6.93632 288.288 6.96632 288.698 7.05632C282.968 5.05632 285.798 7.1863 279.698 5.7263C280.558 5.5263 278.448 4.6563 277.438 4.5063C279.888 5.0963 278.438 5.4263 276.168 5.1963C272.348 3.9263 271.888 4.4463 269.828 4.1363L272.158 4.61631C271.288 4.88631 269.328 4.55631 266.558 4.29631C266.368 3.95631 269.088 4.4363 268.128 4.1663C264.968 4.4163 261.328 2.47632 256.988 2.33632C254.988 1.79632 256.888 1.57631 255.168 1.14631C250.318 0.906313 249.998 0.0663134 244.868 0.146313C246.298 0.746313 246.558 0.6263 242.948 0.9763H251.328L245.908 1.49632C248.418 1.66632 251.258 1.29631 252.728 1.70631C250.168 1.76631 250.428 1.7963 251.588 2.2863C248.228 1.2863 244.758 2.41632 240.828 1.68632L241.008 0.376324C235.008 -0.423676 230.348 0.256307 222.578 0.546307L225.078 0.656323C224.078 1.22632 220.288 0.966317 217.788 1.30632C217.998 0.856317 216.418 0.776317 215.318 0.556317C215.478 0.876317 209.618 0.8163 208.988 1.7263C207.825 1.55359 206.653 1.45008 205.478 1.4163C199.218 2.1263 198.538 3.73632 192.578 4.49632C194.298 3.74632 191.578 3.85632 195.488 2.90632C193.488 3.20632 191.678 3.39631 191.698 3.70631C190.488 3.61631 186.278 5.1363 184.368 5.0063C183.398 5.63625 182.33 6.09935 181.208 6.37632C180.948 6.37632 181.208 6.1663 181.208 6.1663C181.208 6.3763 177.848 7.3363 179.868 7.3163C176.728 7.4163 172.528 8.52631 168.448 9.61631C166.448 10.1763 164.398 10.7263 162.548 11.1463C160.969 11.6527 159.359 12.0536 157.728 12.3463C153.648 13.9963 148.728 15.9463 144.998 17.3463C145.188 17.1363 144.928 17.1363 145.648 16.9163C140.338 18.4763 142.888 19.0863 137.098 21.3863C133.928 22.1263 139.938 19.5963 138.028 20.2163C136.658 19.2663 131.308 23.6663 127.138 24.7363L128.028 24.2163C124.918 25.2163 121.028 27.9263 116.628 30.7363C116.628 30.7363 116.788 30.4963 116.548 30.5363C113.828 33.0463 108.158 36.7763 103.958 39.5363C104.958 38.2563 105.758 38.0963 104.618 38.1163C102.748 39.3963 105.618 38.4663 101.978 41.1163C100.628 41.7363 97.8677 43.4663 97.1577 43.2263L100.568 40.6363C98.3577 41.2963 96.1477 43.9763 94.2577 45.2163V44.7563C89.0877 48.8163 89.4677 49.4463 83.9277 53.7563L84.6376 53.4663C82.3576 56.7063 81.9377 55.2663 79.5277 58.3263L78.0877 58.4463C76.3477 60.3163 72.0876 65.0363 68.8576 68.2163C70.2876 66.0163 74.0077 62.2163 76.1877 59.6863C74.3177 61.3763 69.8877 65.4963 69.1877 66.6863C69.8839 65.8365 70.6609 65.0562 71.5077 64.3563C70.6277 65.6663 69.4077 66.9763 68.1477 68.5663C66.8877 70.1563 65.4477 71.9063 63.7577 73.7463C63.1877 71.9963 54.4976 82.9563 51.3876 85.1063C48.9576 88.8663 46.2676 92.3563 43.3876 95.9563C41.9976 97.7863 40.3877 99.5463 39.0677 101.546C37.7477 103.546 36.4277 105.696 35.0677 107.926C38.0677 105.486 33.5276 110.526 35.0176 110.696C34.5051 111.759 33.8817 112.765 33.1577 113.696L28.6676 119.526C27.4176 120.826 29.5976 117.426 29.2076 117.466C26.3976 121.956 27.6277 119.126 25.6877 122.066C26.4277 121.646 25.4976 124.066 24.0176 126.696L26.4277 123.146C23.8677 130.146 22.6277 128.406 20.0377 135.446L20.6676 133.136C20.0276 134.956 18.2276 138.026 17.1676 141.406C16.1171 144.211 15.3564 147.116 14.8977 150.076C14.5177 150.656 13.8977 151.376 14.3477 149.756C13.5277 151.896 12.7376 154.186 11.9876 156.506C11.1796 158.782 10.5445 161.115 10.0877 163.486C9.30254 167.738 8.24028 171.933 6.90766 176.046L6.75767 175.296C6.42767 176.976 6.63767 178.296 5.75767 180.296C5.64767 180.156 5.59764 179.556 5.38764 180.296C5.17764 181.036 4.98765 184.826 4.51765 187.036L4.43766 185.036C2.68766 193.796 3.20766 198.716 2.43766 206.096C1.43766 205.966 0.787659 212.956 0.437659 216.456L0.297645 216.326C-0.0451536 220.962 -0.0918994 225.615 0.157661 230.256C0.647661 234.566 1.15765 238.766 1.61765 243.546C1.16866 248.058 1.33348 252.609 2.10764 257.076C2.87764 262.536 3.78766 268.426 4.21766 273.226C4.21766 271.746 4.99765 273.326 5.36765 274.986C5.73765 277.206 7.57765 280.846 6.61765 280.706L6.42765 279.926C5.98765 281.766 7.37767 286.206 8.25767 289.716L9.53767 289.986C9.74137 292.64 10.224 295.264 10.9777 297.816C11.9177 300.496 12.9777 303.256 14.0677 305.876C16.1977 311.116 18.0677 315.876 18.3377 318.536C19.5977 320.476 20.8277 323.016 22.0677 324.926L21.4476 325.086C22.7576 327.966 23.7477 330.086 24.8177 332.446C25.8877 334.806 26.8877 337.356 29.1177 340.586L27.9377 339.486C30.1977 343.286 32.4177 343.346 34.5377 346.776L34.3677 348.306C36.4177 351.556 38.0877 355.076 40.2477 358.306C42.4244 361.465 44.8132 364.472 47.3977 367.306C47.2177 367.306 46.8677 367.306 46.0877 366.306C48.1877 369.246 54.0277 377.906 54.3377 375.926C53.7577 376.536 59.6077 381.856 62.6577 384.656H61.7777C64.2121 386.153 66.4295 387.976 68.3677 390.076C69.1677 390.896 68.7177 391.146 67.7777 389.926C70.3177 392.826 70.3876 391.546 73.5776 394.926L72.0277 394.046C73.372 395.485 74.977 396.656 76.7577 397.496C78.7577 398.986 82.1976 402.656 82.2676 403.496C83.8312 404.167 85.2764 405.086 86.5476 406.216C86.6676 406.566 85.8976 406.216 85.5476 405.956C90.5976 410.256 93.8676 411.276 97.1376 414.486C97.1376 414.716 97.2777 414.976 97.5377 415.246C93.3377 412.086 89.9577 409.516 90.3077 409.726C89.9577 410.176 93.3077 412.806 90.1177 411.406C93.1177 413.126 98.3577 415.856 101.528 418.556C101.648 418.736 101.788 418.876 101.868 419.026C101.731 418.975 101.597 418.915 101.468 418.846C102.187 419.353 102.954 419.789 103.758 420.146C104.838 420.916 105.528 421.406 106.608 422.076C106.768 422.736 110.658 424.836 112.458 425.956C112.628 425.326 114.958 426.856 112.998 425.066C113.258 425.276 112.618 424.916 111.398 424.206C111.118 424.056 110.788 423.876 110.588 423.796H110.738L106.218 421.096C108.038 421.72 109.731 422.665 111.218 423.886C112.358 424.106 113.588 424.366 114.218 424.546C116.268 426.756 120.748 430.206 121.218 430.906C127.218 433.416 135.108 437.346 139.218 438.026C140.116 438.373 140.92 438.924 141.568 439.636C140.508 439.426 139.408 438.786 138.818 438.706C142.248 440.036 149.058 442.446 150.138 442.056C154.358 443.996 147.428 441.866 153.458 443.926L152.558 443.876C155.174 445.141 157.878 446.217 160.648 447.096C163.269 447.696 165.919 448.16 168.588 448.486C174.407 449.359 180.138 450.738 185.718 452.606C185.17 452.523 184.642 452.344 184.158 452.076C191.898 453.556 199.978 454.866 208.038 455.626C216.158 455.856 224.208 456.396 232.038 457.096C236.478 457.276 236.958 456.716 239.638 456.216L240.638 456.836L245.208 455.836C251.668 454.836 256.708 456.556 264.798 454.256L263.678 453.976C266.678 453.626 272.928 452.136 272.538 452.726C273.135 452.299 273.853 452.071 274.588 452.076L274.748 452.406C277.108 451.74 279.441 451.023 281.748 450.256C287.328 449.176 281.218 451.886 289.298 449.876C292.298 448.956 297.458 446.456 296.298 446.566C295.098 446.896 293.198 447.256 293.008 446.936L295.648 445.936C295.838 444.796 297.558 443.196 290.828 444.406L286.418 446.256L284.808 446.156L288.658 445.156C286.878 445.299 285.149 445.821 283.588 446.686C282.916 446.5 282.211 446.473 281.528 446.606L277.208 448.606C276.568 448.326 279.078 447.376 275.978 447.816C273.978 448.716 278.218 448.286 274.738 449.316C272.408 449.316 272.998 448.806 270.448 449.676C270.038 449.476 270.558 449.216 271.578 448.916C269.308 449.666 265.428 450.136 264.298 450.856C261.878 450.666 256.378 452.106 256.488 451.076C254.469 451.787 252.38 452.283 250.258 452.556C254.118 451.076 242.118 453.146 243.088 451.756C240.218 452.966 232.508 452.756 227.308 453.096C227.735 452.97 228.183 452.926 228.628 452.966C226.728 452.78 224.841 452.48 222.978 452.066C222.578 452.926 217.978 452.886 215.498 453.306C211.958 452.306 217.748 452.386 216.668 451.526C216.808 452.236 210.388 451.916 211.558 452.526C208.848 451.866 209.208 452.156 207.868 451.366C207.268 452.496 205.308 451.276 202.978 451.586C199.108 450.456 202.098 450.416 197.738 450.086C195.698 449.486 199.588 449.676 199.588 449.676ZM102.778 414.606C103.35 415.045 103.955 415.439 104.588 415.786C103.954 415.442 103.348 415.048 102.778 414.606V414.606ZM95.7777 409.356L98.7777 411.656C98.8977 412.016 98.4977 411.996 97.7777 411.456C98.2677 411.636 96.6877 410.286 95.7477 409.356H95.7777ZM108.778 423.486C107.518 422.826 107.178 422.486 107.078 422.266L109.238 423.486H109.418C109.203 423.532 108.982 423.532 108.768 423.486H108.778Z" fill="#016C55"/>
<path d="M111.368 424.096L111.888 424.366L111.238 423.806L110.708 423.716L111.368 424.096Z" fill="#016C55"/>
<path d="M412.848 93.9464L412.748 93.7764C412.814 93.8975 412.867 94.0248 412.908 94.1564C412.884 94.0876 412.864 94.0174 412.848 93.9464V93.9464Z" fill="#016C55"/>
<path d="M22.9779 314.816L22.8379 314.886L23.2279 315.546L22.9779 314.816Z" fill="#016C55"/>
<path d="M435.468 136.906C435.472 137.126 435.516 137.342 435.598 137.546C435.583 137.328 435.539 137.113 435.468 136.906V136.906Z" fill="#016C55"/>
<path d="M442.968 156.396L443.778 159.246C443.458 158.006 443.198 157.106 442.968 156.396Z" fill="#016C55"/>
<path d="M447.208 171.876C447.296 171.985 447.414 172.065 447.548 172.106L447.208 171.876Z" fill="#016C55"/>
<path d="M341.508 32.8463C340.748 32.5463 339.988 32.2663 339.218 31.9163C340.378 32.6163 341.298 33.1363 341.508 32.8463Z" fill="#016C55"/>
<path d="M336.138 30.1963C337.111 30.8606 338.142 31.4362 339.218 31.9163C338.228 31.2791 337.199 30.7046 336.138 30.1963V30.1963Z" fill="#016C55"/>
<path d="M452.738 240.596L452.638 241.366C452.638 241.366 452.708 241.366 452.728 241.476L452.738 240.596Z" fill="#016C55"/>
<path d="M452.728 241.486V242.346C452.776 242.062 452.776 241.771 452.728 241.486Z" fill="#016C55"/>
<path d="M452.718 244.156V242.336C452.618 242.939 452.618 243.554 452.718 244.156Z" fill="#016C55"/>
<path d="M454.348 219.406L454.128 219.156C454.139 219.214 454.165 219.267 454.204 219.311C454.243 219.355 454.292 219.388 454.348 219.406Z" fill="#016C55"/>
<path d="M454.218 213.006C454.218 214.526 453.848 216.826 453.948 219.006L454.128 219.206C453.838 218.156 454.668 214.486 454.218 213.006Z" fill="#016C55"/>
<path d="M453.218 185.876L453.958 191.296C454.038 190.296 454.148 189.016 454.618 191.466C454.168 184.486 454.318 192.966 453.218 185.876Z" fill="#016C55"/>
<path d="M449.718 169.266C450.588 172.086 450.048 169.146 450.218 169.266C449.528 167.486 449.358 167.086 449.718 169.266Z" fill="#016C55"/>
<path d="M388.018 64.8463L388.628 64.6464C386.948 63.1164 388.458 64.7863 388.018 64.8463Z" fill="#016C55"/>
<path d="M368.538 51.7163L370.008 53.3763L371.138 53.6263L368.538 51.7163Z" fill="#016C55"/>
<path d="M359.828 40.2864L360.698 40.7764L357.428 38.8064L359.828 40.2864Z" fill="#016C55"/>
<path d="M84.1981 52.7563C82.6917 53.5303 81.3713 54.6222 80.3281 55.9564C81.8481 54.6464 83.5081 53.4863 84.1981 52.7563Z" fill="#016C55"/>
<path d="M9.85773 294.596L9.17773 292.906L10.2177 296.146L9.85773 294.596Z" fill="#016C55"/>
<path d="M419.858 388.876C419.708 389.256 420.098 389.306 420.748 388.446L420.838 387.516L419.858 388.876Z" fill="#016C55"/>
<path d="M425.278 383.966C425.858 382.796 426.398 381.376 425.498 381.706C425.128 383.006 424.788 383.116 424.418 384.556C423.788 385.436 423.088 385.906 423.048 385.636C422.908 386.016 421.888 386.836 421.768 387.496C423.159 386.512 424.286 385.2 425.048 383.676C425.388 383.486 425.258 383.826 425.278 383.966Z" fill="#016C55"/>
<path d="M419.108 314.486C418.991 314.221 418.908 313.942 418.858 313.656C418.889 313.946 418.974 314.228 419.108 314.486Z" fill="#016C55"/>
<path d="M444.818 265.926C445.028 266.396 445.158 266.576 445.218 266.586C444.998 266.146 444.818 265.796 444.818 265.926Z" fill="#016C55"/>
<path d="M434.858 262.396C435.068 262.256 435.228 262.126 435.408 261.996C435.203 262.097 435.017 262.233 434.858 262.396Z" fill="#016C55"/>
<path d="M419.108 314.486C419.439 315.186 420 315.751 420.698 316.086C420.928 315.966 419.588 315.486 419.108 314.486Z" fill="#016C55"/>
<path d="M432.588 371.416C432.428 371.746 432.308 372.026 432.208 372.286L432.628 371.516L432.588 371.416Z" fill="#016C55"/>
<path d="M441.428 312.486L441.718 312.966C441.854 313.073 441.998 313.17 442.148 313.256L441.428 312.486Z" fill="#016C55"/>
<path d="M446.848 334.396C446.848 333.886 446.398 333.716 446.188 333.526C446.392 333.862 446.509 334.244 446.528 334.636C446.588 334.636 446.728 334.576 446.848 334.396Z" fill="#016C55"/>
<path d="M436.708 368.106L436.468 368.686C436.528 368.536 436.638 368.286 436.708 368.106Z" fill="#016C55"/>
<path d="M427.248 304.486C427.219 304.448 427.183 304.416 427.142 304.392C427.101 304.368 427.055 304.352 427.008 304.346C427.018 304.346 427.108 304.396 427.248 304.486Z" fill="#016C55"/>
<path d="M331.308 427.486C331.308 427.486 331.308 427.486 331.258 427.416C331.208 427.346 331.168 427.536 331.308 427.486Z" fill="#016C55"/>
<path d="M307.218 437.096L307.548 436.956C307.558 436.867 307.558 436.776 307.548 436.687L307.218 437.096Z" fill="#016C55"/>
<path d="M420.588 277.756L420.648 277.686C420.858 277.186 420.698 277.486 420.588 277.756Z" fill="#016C55"/>
<path d="M378.128 310.896C378.808 308.806 378.208 314.446 379.128 311.276C378.858 311.566 378.738 308.246 378.128 310.896Z" fill="#016C55"/>
<path d="M432.948 370.966L433.408 370.196C433.235 370.441 433.082 370.698 432.948 370.966V370.966Z" fill="#016C55"/>
<path d="M379.078 311.276L379.168 310.956C379.128 311.086 379.108 311.166 379.078 311.276Z" fill="#016C55"/>
<path d="M428.258 278.886C428.239 279.082 428.239 279.28 428.258 279.476C428.258 279.476 428.348 279.296 428.258 278.886Z" fill="#016C55"/>
<path d="M415.818 289.186L415.438 289.996C415.58 289.734 415.707 289.463 415.818 289.186Z" fill="#016C55"/>
<path d="M410.818 273.316C410.399 273.52 410.015 273.786 409.678 274.106L409.878 274.016C410.138 273.719 410.458 273.481 410.818 273.316Z" fill="#016C55"/>
<path d="M398.428 288.296L398.688 288.036L398.968 287.496L398.428 288.296Z" fill="#016C55"/>
<path d="M371.078 385.126C370.822 385.328 370.535 385.487 370.228 385.596C370.668 385.546 369.118 387.886 371.078 385.126Z" fill="#016C55"/>
<path d="M432.828 371.546C432.793 371.345 432.836 371.138 432.948 370.966L432.638 371.516C432.668 371.596 432.718 371.636 432.828 371.546Z" fill="#016C55"/>
<path d="M412.328 276.716C411.602 277.244 410.913 277.822 410.268 278.446C410.848 277.926 411.588 277.266 412.328 276.716Z" fill="#016C55"/>
<path d="M452.588 328.586L452.828 327.976C452.716 328.166 452.635 328.372 452.588 328.586V328.586Z" fill="#016C55"/>
<path d="M404.828 285.056C404.383 285.393 403.98 285.783 403.628 286.216C403.583 286.325 403.553 286.44 403.538 286.556L404.828 285.056Z" fill="#016C55"/>
<path d="M358.828 402.066C360.698 399.846 359.248 400.646 359.368 399.946C361.438 397.176 360.728 398.946 361.708 398.276C362.928 396.476 363.538 394.856 364.518 393.586C364.668 393.586 364.888 393.326 364.768 393.696C365.768 391.606 368.828 388.286 369.898 385.786C369.996 385.704 370.108 385.64 370.228 385.596C369.728 385.766 369.438 385.596 369.308 385.436C370.058 384.386 370.388 383.266 370.998 383.106C370.726 383.438 370.556 383.841 370.508 384.266L371.158 383.066C372.328 382.406 370.238 384.676 370.578 384.926C371.821 382.659 373.182 380.459 374.658 378.336C375.358 378.336 372.098 382.336 374.048 380.396L372.048 382.816C374.158 381.386 370.898 384.326 372.938 383.086C375.468 379.826 375.368 379.166 377.858 375.896C378.128 374.966 377.308 375.896 377.578 374.956C380.448 369.856 381.348 371.956 383.188 368.066C383.346 366.481 384.078 365.008 385.248 363.926L385.168 365.136C387.498 361.926 385.728 362.756 388.498 359.636C388.268 360.376 386.848 362.286 387.258 361.836C389.258 359.946 388.078 360.086 389.258 358.406H389.968C392.388 354.966 394.818 350.986 397.658 347.286C397.658 347.596 397.268 348.286 398.078 347.586C401.678 342.722 405.755 338.23 410.248 334.176L411.418 332.316C411.778 331.966 412.228 331.816 411.908 332.316C413.598 330.906 411.778 332.016 412.388 331.136C413.258 330.236 413.758 330.136 413.298 330.846C415.748 327.846 420.838 322.706 424.478 320.766L423.938 321.356C426.568 319.606 426.208 318.356 428.938 317.146L428.588 317.486C431.424 315.52 434.437 313.823 437.588 312.416C440.588 311.156 443.728 310.766 446.008 311.416C446.478 311.106 448.008 311.416 449.358 312.006C450.708 312.596 451.758 313.396 452.218 313.146C452.959 313.89 453.508 314.803 453.818 315.806C454.303 317.033 454.564 318.337 454.588 319.656C454.588 320.856 455.218 321.536 455.008 323.236L454.508 323.176C454.52 323.961 454.484 324.746 454.398 325.526C454.058 325.856 453.748 326.176 453.398 326.526C453.228 327.036 453.068 327.526 452.858 328.046C453.178 327.486 453.628 326.886 453.728 327.046C452.988 329.546 450.358 332.386 450.108 332.256C449.058 333.996 447.878 335.786 446.668 337.486C446.588 337.246 447.218 336.396 447.668 335.656C445.968 338.596 446.888 335.806 445.288 338.466C445.648 338.226 445.378 338.826 445.408 338.946C444.188 339.946 441.848 342.496 440.088 344.386L440.188 343.786C436.611 347.312 432.766 350.555 428.688 353.486C430.298 352.486 430.318 353.256 429.088 354.216L428.278 354.126C427.648 354.956 429.718 353.376 428.278 354.866C426.608 355.926 426.848 355.106 427.678 354.326L425.808 355.786C425.598 355.726 426.018 355.356 426.028 355.106C425.398 355.946 422.328 356.776 421.378 357.876L421.188 357.796C416.638 360.026 414.498 360.946 410.548 361.706C410.548 362.186 408.968 362.316 407.768 362.706C404.51 362.605 401.312 361.807 398.388 360.366C396.068 359.456 397.558 360.366 396.388 360.076C396.388 359.696 393.518 357.626 395.178 358.466C393.809 357.509 392.542 356.413 391.398 355.196C389.995 353.764 388.73 352.204 387.618 350.536C387.778 351.146 388.068 351.786 387.758 351.536C387.178 350.676 386.758 349.426 386.978 349.466L387.148 349.666C385.332 346.744 384.121 343.486 383.588 340.086C382.888 336.636 382.588 333.346 381.878 330.856L381.958 331.136C381.618 329.406 381.288 327.656 381.048 325.886C380.968 323.446 381.458 327.336 381.608 325.516C380.608 319.816 381.678 316.516 381.738 311.796C382.558 310.056 383.028 306.896 383.738 303.576C384.264 300.492 385.209 297.494 386.548 294.666L386.178 294.826C386.348 293.546 386.858 293.446 387.248 292.606C386.988 292.606 386.528 293.796 386.648 292.996C388.35 287.814 390.961 282.975 394.358 278.706C395.211 277.7 396.144 276.763 397.148 275.906C397.991 275.135 398.945 274.495 399.978 274.006C400.528 273.946 400.388 273.936 400.908 274.506C401.43 275.365 401.77 276.321 401.908 277.316C402.288 281.076 403.818 279.316 403.188 284.316L402.658 282.906C402.955 286.914 402.459 290.941 401.198 294.756C400.583 296.664 399.841 298.528 398.978 300.336L398.338 301.636L398.178 301.996L397.998 302.416C397.998 302.616 397.848 302.726 397.678 302.676C397.781 302.515 397.862 302.34 397.918 302.156C397.644 301.853 397.331 301.588 396.988 301.366C396.988 300.366 397.278 301.136 397.458 300.536C397.698 299.196 397.788 296.956 398.568 296.166C398.688 296.056 398.508 296.646 398.428 296.946C398.608 295.846 400.538 292.356 399.688 293.106C401.178 290.546 402.208 287.996 403.758 286.186C404.178 284.586 406.938 282.186 406.758 281.426C407.168 282.036 410.578 277.816 411.758 276.576C411.438 277.086 413.078 275.866 412.758 276.516C414.258 275.376 415.698 274.946 415.318 274.636C416.84 274.558 418.366 274.72 419.838 275.116C421.248 275.566 422.458 276.436 422.678 277.526C426.918 281.236 426.428 287.796 423.748 292.526C423.488 292.256 424.218 290.936 424.698 289.586C425.178 288.236 425.438 286.896 425.028 286.936C424.714 289.101 424.038 291.197 423.028 293.136C422.098 294.846 420.788 297.056 419.028 297.786C418.228 297.946 419.348 297.386 419.568 296.966C418.708 297.656 418.318 297.666 417.928 297.426C417.538 297.186 417.338 296.426 417.418 295.336C417.528 293.336 418.688 290.856 419.348 288.556C419.33 288.898 419.263 289.234 419.148 289.556C419.458 288.656 420.148 287.556 419.758 287.556L419.468 288.446C418.368 289.656 420.098 284.536 419.998 284.266C420.078 286.146 422.508 280.096 422.338 282.976C422.588 282.396 422.848 281.636 422.578 281.646C423.108 280.866 423.368 280.646 423.108 281.646C424.728 278.646 423.778 279.456 425.538 276.876C425.658 276.976 425.358 277.536 425.338 277.876C426.043 276.053 427.088 274.38 428.418 272.946C428.418 273.136 428.678 272.946 428.188 273.586C431.018 270.096 432.698 267.176 436.768 264.206C436.058 265.706 438.268 263.266 438.768 263.696C439.428 263.176 439.598 263.036 440.008 263.016C439.864 262.88 439.683 262.79 439.488 262.756C439.809 262.659 440.153 262.667 440.469 262.779C440.786 262.89 441.058 263.1 441.248 263.376C441.886 264.134 442.387 264.997 442.728 265.926C442.428 265.446 442.068 264.996 441.728 264.546C442.463 265.768 443.095 267.05 443.618 268.376C443.416 267.584 443.172 266.803 442.888 266.036C444.118 268.036 443.558 265.456 444.528 268.446C444.268 267.856 445.308 270.696 445.148 271.986C445.713 273.246 446.019 274.606 446.048 275.986C445.898 276.456 445.338 275.696 445.238 275.986C445.938 277.056 445.708 281.416 446.128 282.896C446.018 282.396 445.698 282.366 445.628 282.526L445.998 283.526C445.808 284.606 445.728 284.766 445.488 284.526C445.128 287.786 446.378 283.526 445.658 287.416C445.613 287.145 445.59 286.871 445.588 286.596C445.008 290.466 444.778 294.166 443.498 297.536C442.618 298.356 444.228 294.536 443.378 295.536C442.228 300.426 440.318 305.826 436.588 309.136C436.828 308.946 437.048 308.736 437.278 308.536C437.428 309.686 434.368 310.816 432.458 312.296C432.958 311.946 432.888 311.486 432.798 311.656C431.297 312.516 429.721 313.236 428.088 313.806C426.062 314.518 423.901 314.761 421.768 314.516C421.964 314.493 422.157 314.457 422.348 314.406C421.938 314.365 421.553 314.188 421.255 313.903C420.956 313.619 420.76 313.244 420.698 312.836C420.652 312.329 420.707 311.818 420.859 311.332C421.012 310.846 421.26 310.396 421.588 310.006C421.678 309.386 422.588 308.616 421.828 308.886C424.316 307.181 427.308 306.366 430.318 306.576C431.784 306.634 433.214 307.045 434.487 307.774C435.76 308.504 436.837 309.53 437.628 310.766C437.178 310.246 436.348 309.766 436.738 310.136C437.954 311.217 439.018 312.458 439.898 313.826C440.028 313.286 439.768 313.146 439.408 312.116C440.281 312.847 440.989 313.753 441.488 314.776C440.158 312.866 440.988 315.076 441.188 316.036C441.188 315.836 441.478 316.086 441.558 315.966C441.958 318.666 442.558 316.046 443.308 319.676L443.068 319.546C443.649 320.798 444.105 322.105 444.428 323.446C444.138 324.136 443.908 322.056 443.508 322.066C444.058 324.066 445.208 325.896 445.028 327.836C444.798 326.976 444.578 325.726 444.308 324.836C444.202 326.103 444.235 327.377 444.408 328.636V328.486C444.488 329.646 444.468 330.806 444.468 331.956L444.548 331.076C445.848 333.596 444.948 336.306 445.378 339.836C444.928 336.376 445.018 339.246 444.548 338.936C444.328 339.806 444.038 341.126 443.938 340.726C444.148 342.396 443.288 343.366 443.448 345.726C443.288 345.796 443.068 347.426 442.758 346.986C442.428 349.076 443.128 346.556 443.288 346.766C443.138 350.136 440.798 354.056 439.678 358.666C438.368 362.546 438.498 363.466 436.958 366.996C436.108 367.996 436.958 365.796 436.958 365.796C435.901 367.34 434.974 368.969 434.188 370.666C434.278 370.256 433.968 370.546 433.498 370.956C432.718 372.316 433.448 372.166 432.128 373.786C432.153 373.219 432.253 372.657 432.428 372.116C431.568 373.746 430.808 375.446 429.808 377.116C429.288 377.366 430.138 375.936 430.358 375.266C429.258 377.116 427.358 379.956 427.268 380.736L428.268 379.736C427.818 380.386 427.728 379.836 428.008 379.326C428.818 377.636 429.688 377.256 429.878 377.256L429.168 378.436C430.778 377.846 432.228 373.836 433.688 371.526V372.866L434.688 370.156C435.138 369.726 435.688 369.566 435.078 370.796C436.368 369.246 435.768 369.166 436.918 367.856C437.068 367.716 437.048 367.856 436.988 367.976L437.738 366.166C437.738 366.566 438.328 366.106 437.668 367.166C439.668 364.236 439.718 361.886 440.718 360.896L440.638 361.186C442.308 356.606 440.388 360.556 441.178 356.976C441.838 356.366 442.538 355.746 443.178 355.096L442.858 354.476C443.028 354.006 443.378 353.086 443.508 353.316C443.708 351.426 443.208 353.556 443.208 352.426C444.378 350.246 444.628 345.966 445.458 345.576C445.238 344.656 444.768 347.786 444.958 345.216C445.958 344.636 445.338 342.266 445.958 340.136C446.328 340.846 445.878 342.916 446.498 340.746C445.928 339.356 446.998 336.456 446.858 334.556C446.258 334.466 446.598 330.476 445.928 327.386C446.208 327.556 445.308 321.496 444.458 318.636H444.588C443.848 318.276 442.918 315.386 441.678 313.526C442.028 313.426 442.378 313.696 443.058 314.726C442.748 314.086 442.408 313.466 442.058 312.846C441.43 312.261 440.857 311.618 440.348 310.926L441.028 311.096C439.024 308.58 436.44 306.586 433.498 305.286C433.238 305.656 435.638 307.366 432.158 306.386C432.098 306.136 432.058 305.696 433.028 305.916C432.435 305.823 431.847 305.696 431.268 305.536C431.778 305.536 432.268 305.536 432.838 305.536C431.268 304.946 431.928 305.536 430.648 305.336C430.728 304.996 429.708 304.986 429.918 304.766C430.268 304.766 431.068 305.026 431.588 305.006C430.118 304.596 428.248 304.446 427.588 304.296C427.748 304.476 427.588 304.686 426.528 304.926C423.708 305.666 425.448 304.766 423.718 305.206C423.118 305.686 421.348 306.606 421.658 307.066C421.288 307.387 420.86 307.635 420.398 307.796C419.5 308.916 418.92 310.256 418.718 311.676C418.558 313.246 419.268 314.406 419.168 313.326C419.159 313.183 419.159 313.04 419.168 312.896C419.168 312.976 419.168 313.056 419.228 313.156C419.397 313.83 419.767 314.436 420.288 314.895C420.81 315.354 421.458 315.644 422.148 315.726C423.372 315.911 424.612 315.971 425.848 315.906C428.307 315.804 430.706 315.119 432.848 313.906L432.918 314.046C435.348 312.586 438.038 310.356 439.038 308.596C439.588 307.996 440.498 307.276 440.438 307.666L443.288 302.986C442.538 304.986 443.898 302.456 442.418 305.036C443.898 302.666 444.418 302.146 445.068 299.196C445.128 300.306 446.268 297.366 446.448 296.046L445.618 297.836C446.008 296.396 446.338 295.156 446.678 293.836L447.048 294.646C448.958 289.126 447.528 284.456 448.648 280.176C448.278 278.676 448.348 283.266 447.908 281.906C448.068 279.336 448.648 276.556 448.538 275.716C448.358 272.036 447.328 272.466 446.538 268.786C446.458 269.316 446.168 269.846 445.068 267.316C444.178 264.916 444.468 264.046 445.368 265.496C445.648 266.066 445.688 266.386 445.628 266.386C446.028 267.146 446.458 268.196 446.318 267.116L446.008 266.866C445.808 265.516 444.008 262.266 444.668 262.866C443.378 261.086 443.998 262.286 444.608 263.636C444.295 262.853 443.881 262.114 443.378 261.436C442.773 260.612 441.893 260.031 440.898 259.796C439.863 259.623 438.8 259.821 437.898 260.356C437.159 260.784 436.451 261.262 435.778 261.786C436.278 261.526 436.778 261.396 436.388 261.786C432.388 264.786 434.888 263.456 432.438 265.786C430.848 266.906 432.438 264.786 430.168 267.366C428.568 268.736 429.478 267.366 429.958 266.616C428.028 269.126 425.798 270.816 424.638 272.216L425.548 270.806C425.008 271.656 424.478 272.286 423.978 272.956L424.878 272.436C424.208 273.156 423.738 273.846 423.608 273.726C423.228 274.726 424.608 273.496 423.698 275.296C422.788 276.236 421.698 278.676 421.048 278.786C423.378 275.446 420.338 278.876 422.168 275.936C421.756 276.65 421.305 277.341 420.818 278.006C420.688 278.096 420.818 277.826 420.918 277.586C418.498 280.726 420.428 279.406 418.508 282.966C418.508 282.366 417.588 283.556 417.368 284.186C418.088 282.706 418.138 283.696 417.688 285.186C416.418 287.456 416.688 287.826 416.188 289.066L416.858 287.676C416.948 288.276 416.388 289.436 415.858 291.156C415.588 291.226 416.248 289.576 415.948 290.156C415.888 292.086 413.478 294.386 414.808 297.916C415.438 299.606 414.238 298.346 415.228 299.916C415.907 300.524 416.731 300.946 417.621 301.142C418.511 301.339 419.436 301.302 420.308 301.036C421.721 300.635 422.952 299.755 423.788 298.546C422.708 299.096 422.848 299.226 424.078 297.136C422.978 298.546 421.808 300.426 419.018 300.996C420.457 300.619 421.704 299.721 422.518 298.476C421.867 299.165 421.111 299.745 420.278 300.196C419.46 300.634 418.507 300.748 417.608 300.516C418.202 300.626 418.815 300.542 419.358 300.276C419.438 300.196 419.108 300.276 418.618 300.086C419.277 300.143 419.94 300.03 420.544 299.759C421.148 299.488 421.672 299.067 422.068 298.536C422.898 297.606 423.488 296.596 424.418 295.666L425.168 296.296C427.758 293.136 428.668 289.826 429.168 284.506C429.102 285.081 429.005 285.652 428.878 286.216C428.608 285.486 429.078 282.916 428.468 281.216C428.828 281.316 428.708 280.216 428.608 279.376C428.239 278.786 427.905 278.175 427.608 277.546C427.048 276.596 426.228 275.746 425.828 275.776C425.417 275.067 424.942 274.398 424.408 273.776C423.233 272.627 421.696 271.92 420.058 271.776C418.537 271.644 417.005 271.702 415.498 271.946C416.728 271.476 414.668 271.306 417.678 270.946C416.158 270.866 414.778 271.186 414.828 271.406C413.828 271.326 411.288 273.326 410.228 273.916C409.889 274.614 409.413 275.237 408.828 275.746C408.668 275.816 408.728 275.626 408.728 275.626C408.728 275.626 407.268 277.416 408.408 276.756C404.798 278.886 401.408 285.336 399.038 287.936C397.665 290.543 396.453 293.232 395.408 295.986C395.408 295.796 395.258 295.916 395.478 295.476C394.898 296.362 394.666 297.43 394.828 298.476C394.968 299.635 394.985 300.805 394.878 301.966C394.788 303.266 394.638 302.706 394.508 301.866C394.378 301.026 394.508 300.356 394.348 301.016C393.838 301.076 393.778 303.406 394.918 305.016C395.463 305.857 396.256 306.507 397.188 306.876C397.608 306.986 398.188 307.356 398.538 307.186C398.83 306.925 399.144 306.691 399.478 306.486L398.928 307.076C399.378 306.676 399.928 306.526 400.438 305.616C400.948 304.763 401.409 303.882 401.818 302.976L403.578 298.506C403.578 298.506 403.578 298.696 403.718 298.576C404.138 296.206 405.158 291.926 405.398 288.676C405.658 289.736 405.398 290.176 405.908 289.676C406.038 288.206 405.228 289.996 405.428 287.106C405.768 286.196 406.048 284.106 406.488 283.816C406.488 284.746 406.428 285.676 406.388 286.606C407.068 285.206 406.558 282.976 406.558 281.516L406.818 281.696C406.756 280.231 406.493 278.781 406.038 277.386C405.649 275.807 405.051 274.287 404.258 272.866L404.358 273.416L402.638 271.566C402.323 271.224 401.914 270.981 401.463 270.869C401.011 270.757 400.536 270.78 400.098 270.936C399.782 270.761 399.446 270.623 399.098 270.526C397.098 271.446 394.518 274.526 392.758 276.936C393.916 274.705 395.503 272.724 397.428 271.106C395.888 272.036 393.078 274.936 392.818 275.846C393.191 275.22 393.656 274.654 394.198 274.166L389.588 280.926C389.208 280.346 388.008 282.116 386.858 284.316C385.708 286.516 384.588 289.096 383.698 290.006C381.988 295.476 379.698 300.706 378.648 307.346C379.998 305.176 378.348 309.276 379.408 309.026C379.383 309.786 379.276 310.54 379.088 311.276C378.668 312.796 378.368 314.336 378.088 315.886C377.718 316.976 377.968 314.386 377.748 314.516C377.418 317.916 377.228 315.916 376.818 318.176C377.188 317.726 377.278 319.386 377.138 321.336L377.648 318.606C378.118 323.356 376.648 322.746 377.498 327.546L377.088 326.046C377.318 328.516 377.938 335.186 379.338 337.426C379.338 337.876 379.178 338.506 378.868 337.426C379.868 343.426 383.648 349.856 385.938 353.926L385.468 353.676C386.274 354.484 387.004 355.365 387.648 356.306C387.518 356.306 387.168 356.096 387.488 356.526C387.808 356.956 389.768 358.526 390.828 359.656C390.448 359.426 390.038 359.226 389.678 358.966C393.918 363.406 397.678 364.076 402.438 364.966C402.238 365.766 407.048 366.606 409.438 366.326L409.368 366.436C416.518 365.696 420.738 362.866 425.958 359.596C429.768 358.366 436.958 352.596 441.658 348.596C440.868 349.146 441.388 348.086 442.118 347.276C443.268 346.376 444.568 344.086 444.888 344.706L444.518 345.076C445.748 344.736 447.668 342.426 449.168 340.636L448.738 339.786C451.46 337.404 453.686 334.509 455.288 331.266C457.048 327.926 457.868 324.576 458.648 322.836C458.78 321.061 458.594 319.276 458.098 317.566H458.588C458.214 315.525 457.311 313.618 455.968 312.036C454.44 310.287 452.461 308.99 450.248 308.286C450.658 308.286 451.058 308.366 451.468 308.416C448.358 307.156 447.228 308.416 444.548 308.336L443.688 307.656C438.469 307.937 433.47 309.85 429.398 313.126C429.398 312.996 429.398 312.746 430.098 312.296C428.098 313.496 422.328 316.946 423.618 317.296C423.198 316.826 419.478 320.296 417.678 322.236V321.626C416.686 323.175 415.514 324.602 414.188 325.876C413.608 326.336 413.468 326.046 414.268 325.466C412.268 326.956 413.118 327.046 410.838 328.966L411.428 327.966C410.447 328.763 409.655 329.767 409.108 330.906C408.108 332.146 405.728 334.296 405.108 334.276C404.73 335.306 404.113 336.232 403.308 336.976C403.058 336.976 403.308 336.556 403.488 336.316C400.428 339.256 399.798 341.406 397.588 343.316C397.438 343.266 397.258 343.316 397.068 343.516C399.218 340.946 400.968 338.886 400.838 339.106C400.508 338.826 398.718 340.866 399.658 338.836C398.256 341.336 396.657 343.72 394.878 345.966C394.772 346.04 394.658 346.1 394.538 346.146L394.678 345.906C394.297 346.319 393.961 346.771 393.678 347.256C393.174 347.785 392.696 348.339 392.248 348.916C391.788 348.916 390.248 351.266 389.398 352.336C389.828 352.526 388.728 353.896 390.008 352.796C389.858 352.956 390.108 352.556 390.638 351.796C390.748 351.626 390.888 351.426 390.948 351.306V351.406L392.948 348.716C392.475 349.853 391.766 350.875 390.868 351.716L390.348 353.716C388.738 354.806 386.348 357.466 385.748 357.646C383.548 361.126 380.288 365.646 379.528 368.236C378.948 369.236 378.528 369.236 378.188 369.476C378.521 368.957 378.818 368.416 379.078 367.856C377.928 369.856 375.208 373.566 375.388 374.366C373.478 376.616 375.868 372.696 373.638 376.056L373.798 375.506C368.458 381.416 367.658 386.956 361.278 393.146C361.718 392.716 361.928 392.486 362.078 392.456C355.588 399.976 349.418 408.786 341.588 414.796C339.408 416.536 339.478 417.066 338.348 418.366H337.568L335.698 420.686C332.698 423.596 329.338 424.086 325.388 427.526L326.148 427.456C324.498 428.366 321.148 430.706 321.208 430.166C320.942 430.552 320.543 430.826 320.088 430.936L319.918 430.736C318.618 431.546 317.358 432.476 315.998 433.186C312.648 434.436 316.088 432.056 311.318 434.016C309.568 434.756 306.428 436.596 307.148 436.516C307.888 436.256 309.088 435.986 309.228 436.216L307.598 436.946C307.538 437.776 306.428 439.016 310.838 437.946C311.758 437.426 312.698 436.946 313.588 436.406L314.648 436.336C313.848 436.696 313.058 437.076 312.228 437.336C313.404 437.145 314.5 436.621 315.388 435.826C315.847 435.894 316.317 435.838 316.748 435.666C317.602 435.042 318.423 434.375 319.208 433.666C319.668 433.756 318.208 434.836 320.148 434.026C321.268 433.026 318.628 434.026 320.628 432.776C322.098 432.386 321.868 432.856 323.258 431.776C323.558 431.776 323.318 432.146 322.738 432.526C323.998 431.576 326.238 430.326 326.738 429.586C328.328 429.176 331.028 426.586 331.328 427.276C332.265 426.234 333.267 425.252 334.328 424.336C332.798 426.626 338.598 421.136 338.598 422.216C339.598 420.416 343.678 417.416 345.818 414.716C345.7 414.989 345.526 415.235 345.308 415.436C346.234 414.607 347.217 413.841 348.248 413.146C347.988 412.536 349.968 410.296 350.748 408.846C352.808 407.566 350.328 410.396 351.268 410.276C350.808 409.996 353.678 406.946 352.808 407.276C354.278 406.186 353.968 406.276 354.978 405.906C354.588 405.136 355.978 404.566 356.588 403.126C358.588 401.396 357.588 403.126 359.238 400.766C360.238 399.936 358.828 402.066 358.828 402.066ZM397.588 347.166L396.748 348.256L397.588 347.166ZM401.118 342.816L399.548 344.676C399.298 344.676 399.308 344.456 399.678 344.026C399.588 344.326 400.468 343.376 401.098 342.816H401.118ZM391.198 350.176C391.688 349.416 391.938 349.236 392.088 349.176L391.188 350.456V350.576C391.15 350.446 391.146 350.308 391.178 350.176H391.198Z" fill="#016C55"/>
<path d="M390.678 351.826C390.609 351.926 390.546 352.03 390.488 352.136L390.888 351.776L390.968 351.436L390.678 351.826Z" fill="#016C55"/>
<path d="M418.828 313.486V313.636C418.809 313.531 418.809 313.422 418.828 313.316C418.838 313.386 418.838 313.406 418.828 313.486Z" fill="#016C55"/>
<path d="M454.328 323.136L454.448 323.156L454.438 322.706L454.328 323.136Z" fill="#016C55"/>
<path d="M441.008 316.146C441.002 316.285 441.022 316.425 441.068 316.556C441.072 316.417 441.052 316.278 441.008 316.146V316.146Z" fill="#016C55"/>
<path d="M444.228 328.796C444.228 329.416 444.228 330.036 444.228 330.666C444.265 330.044 444.265 329.419 444.228 328.796Z" fill="#016C55"/>
<path d="M444.168 338.886C444.213 338.971 444.278 339.043 444.358 339.096L444.168 338.886Z" fill="#016C55"/>
<path d="M418.958 289.666C418.958 289.796 418.868 289.926 418.838 290.036C418.588 290.916 418.778 290.326 418.958 289.666Z" fill="#016C55"/>
<path d="M444.968 272.066L444.388 270.636C444.588 271.486 444.698 272.106 444.968 272.066Z" fill="#016C55"/>
<path d="M412.558 276.556V276.546L412.328 276.716L412.558 276.556Z" fill="#016C55"/>
<path d="M443.738 268.536C443.911 269.249 444.128 269.951 444.388 270.636C444.246 269.915 444.028 269.211 443.738 268.536V268.536Z" fill="#016C55"/>
<path d="M427.458 378.896L427.158 379.286C427.158 379.286 427.158 379.336 427.158 379.376L427.458 378.896Z" fill="#016C55"/>
<path d="M427.178 379.376L426.898 379.846C427.023 379.711 427.119 379.551 427.178 379.376V379.376Z" fill="#016C55"/>
<path d="M426.288 380.836L426.898 379.836C426.633 380.128 426.426 380.467 426.288 380.836Z" fill="#016C55"/>
<path d="M434.978 367.716L434.908 367.506C434.9 367.544 434.902 367.584 434.915 367.621C434.927 367.658 434.949 367.691 434.978 367.716Z" fill="#016C55"/>
<path d="M436.848 364.086C436.378 364.936 435.418 366.086 434.848 367.326L434.898 367.506C435.008 366.836 436.698 365.046 436.848 364.086Z" fill="#016C55"/>
<path d="M444.708 348.616C444.388 349.746 444.078 350.876 443.708 351.976C444.048 351.446 444.508 350.726 444.098 352.276C445.768 348.116 443.508 353.066 444.708 348.616Z" fill="#016C55"/>
<path d="M446.528 337.836C446.528 339.746 446.788 337.836 446.878 337.936C446.788 336.716 446.768 336.426 446.528 337.836Z" fill="#016C55"/>
<path d="M440.638 307.266L440.868 307.676C441.678 306.386 440.738 307.566 440.638 307.266Z" fill="#016C55"/>
<path d="M444.228 292.736L443.688 294.016L443.908 294.736L444.228 292.736Z" fill="#016C55"/>
<path d="M448.328 284.356L448.348 285.006L448.318 282.526L448.328 284.356Z" fill="#016C55"/>
<path d="M399.868 285.136L400.548 285.036C401.018 284.166 400.648 283.656 399.868 285.136Z" fill="#016C55"/>
<path d="M404.458 273.266C404.299 272.565 403.946 271.922 403.438 271.413C402.93 270.903 402.289 270.547 401.588 270.386C402.855 270.977 403.872 271.997 404.458 273.266V273.266Z" fill="#016C55"/>
<path d="M451.028 337.936L450.448 338.956L451.678 337.136L451.028 337.936Z" fill="#016C55"/>
<path d="M81.1777 268.896C82.1174 260.26 85.231 252.003 90.2278 244.896C91.7278 242.766 94.1077 240.526 96.5677 241.356C97.4989 241.748 98.3171 242.367 98.9477 243.156C105.898 250.706 109.798 260.636 116.608 268.316C120.478 272.666 125.238 276.256 128.508 281.076C131.778 285.896 133.218 292.676 129.868 297.436C126.038 302.876 117.868 303.136 111.648 300.846C101.818 297.226 94.4578 289.106 87.5078 281.266C85.0578 278.506 81.5077 276.076 81.1777 272.396V268.896Z" fill="#F4D5CA"/>
<path d="M163.118 199.486C168.578 202.886 172.288 208.486 177.278 212.586C184.648 218.402 190.998 225.404 196.068 233.306C196.068 233.306 203.068 244.726 200.428 249.216C200.18 249.703 199.833 250.132 199.41 250.477C198.986 250.821 198.495 251.073 197.968 251.216C197.092 251.355 196.194 251.259 195.368 250.936C192.008 250.046 188.768 249.136 185.428 248.306C186.328 258.906 191.188 268.486 190.988 279.206C190.988 281.936 189.578 284.426 190.538 287.206C192.838 293.856 199.298 295.476 205.668 297.336C220.978 301.826 232.738 310.926 247.828 316.956C280.018 329.806 311.468 329.766 342.688 313.816C351.198 309.476 357.348 303.076 359.688 294.006C361.418 287.206 358.688 280.696 355.168 274.926C351.648 269.156 346.588 264.626 341.888 259.746C327.688 244.876 314.888 228.886 300.888 213.746C294.988 207.326 288.888 201.336 281.168 196.836C273.671 192.403 264.85 190.756 256.258 192.186C259.798 196.736 265.258 197.726 269.758 201.086C277.758 207.086 281.008 216.546 286.168 224.836C288.668 228.836 291.978 232.306 293.968 236.606C295.958 240.906 297.038 245.736 294.518 250.046C291.998 254.356 287.648 256.046 282.868 257.416C278.088 258.786 273.098 260.156 267.868 259.416C256.678 257.926 248.268 251.336 240.438 243.476C232.608 235.616 225.588 227.666 215.798 222.346C218.798 226.106 222.318 230.036 222.938 234.916C223.558 239.796 221.188 245.236 215.858 245.606C211.688 245.906 209.208 243.206 206.178 239.976C193.418 226.366 178.958 211.626 174.998 192.666C174.688 191.156 174.378 189.776 173.148 189.306C172.832 189.173 172.491 189.109 172.148 189.116C169.538 189.116 160.148 192.886 160.778 196.806C161.018 198.226 162.438 199.086 163.118 199.486Z" fill="#F4D5CA"/>
<path d="M194.258 233.306C190.808 229.486 186.898 226.106 183.408 222.306C176.308 214.596 168.688 207.546 159.518 202.306C159.518 202.306 159.518 202.236 159.468 202.166L157.798 201.166C156.798 200.726 155.798 200.286 154.798 199.826C154.088 199.496 153.378 199.146 152.688 198.776L151.278 198.366L151.008 198.256C150.547 198.22 150.09 198.153 149.638 198.056C143.101 196.427 136.424 195.422 129.698 195.056C118.994 194.907 108.407 192.806 98.4578 188.856C90.8378 185.726 83.0878 182.706 77.2078 176.516C76.8578 176.146 76.1278 176.156 75.5778 175.986C75.5778 176.616 75.3578 177.366 75.5778 177.866C77.1363 180.579 79.3637 182.848 82.0478 184.456C91.1098 190.555 101.283 194.813 111.988 196.986C119.248 198.416 126.728 198.726 134.128 199.416C146.268 200.536 157.308 204.326 166.818 212.186C176.328 220.046 184.298 229.556 193.068 238.186C193.976 239.164 194.68 240.313 195.138 241.566C196.078 243.876 194.688 245.666 192.288 245.086C187.354 243.906 182.451 242.593 177.578 241.146C176.459 240.78 175.425 240.197 174.532 239.43C173.64 238.663 172.908 237.727 172.378 236.676C170.473 233.436 169.365 229.789 169.148 226.036C169.016 225.512 168.808 225.009 168.528 224.546C168.018 224.846 167.228 225.036 167.048 225.476C166.519 226.603 166.22 227.823 166.168 229.066C166.183 230.531 166.507 231.975 167.118 233.306C168.488 236.066 170.118 238.696 171.688 241.366C176.705 249.943 180.171 259.337 181.928 269.116C182.928 274.696 183.238 279.926 177.788 283.586C177.734 283.623 177.69 283.67 177.658 283.726C177.468 284.456 177.288 285.186 177.108 285.906C177.808 285.836 178.668 285.996 179.198 285.656C182.928 283.266 185.608 280.016 185.458 275.396C185.188 267.186 184.458 259.016 180.858 251.396C179.758 249.086 178.698 246.766 177.528 244.246C178.108 244.386 178.468 244.466 178.828 244.566C183.048 245.716 187.258 246.966 191.518 247.996C196.618 249.226 200.518 245.136 198.748 240.206C197.691 237.648 196.169 235.308 194.258 233.306V233.306Z" fill="#534741"/>
<path d="M289.498 246.876C288.498 244.226 288.678 241.636 288.298 239.016C287.608 234.216 284.938 230.426 281.238 227.386C280.058 226.386 279.358 225.616 279.958 223.946C280.205 222.894 280.205 221.799 279.958 220.746C279.218 215.866 276.388 212.296 272.628 209.326C268.868 206.356 264.838 203.196 261.008 200.046C254.329 194.448 246.967 189.721 239.098 185.976C235.018 184.086 230.838 182.036 227.438 179.176C218.388 171.586 209.258 163.986 201.058 155.516C193.528 147.736 187.168 138.826 180.258 130.446C179.654 129.871 178.982 129.37 178.258 128.956C178.316 129.808 178.529 130.642 178.888 131.416C185.088 139.786 190.888 148.506 197.748 156.306C203.878 163.306 211.198 169.246 217.978 175.666C223.685 181.134 230.261 185.615 237.438 188.926C250.538 194.926 260.888 204.736 272.168 213.266C275.418 215.726 276.978 219.366 276.938 223.846C276.346 223.494 275.778 223.103 275.238 222.676C272.398 219.946 269.608 217.186 266.768 214.456C263.768 211.556 260.708 208.666 257.628 205.826C257.027 205.41 256.375 205.074 255.688 204.826C255.634 205.055 255.63 205.293 255.675 205.524C255.719 205.755 255.812 205.974 255.948 206.166C261.658 213.306 267.008 220.756 274.328 226.466C277.178 228.686 279.898 231.096 282.528 233.576C283.671 234.625 284.552 235.928 285.097 237.381C285.643 238.833 285.838 240.394 285.668 241.936C280.238 237.696 274.778 233.836 269.808 229.426C263.918 224.206 258.448 218.506 252.808 213.036C251.928 212.186 250.918 211.486 249.958 210.716L249.348 211.316C250.403 213.158 251.569 214.934 252.838 216.636C261.488 227.077 271.591 236.224 282.838 243.796C284.059 244.592 285.157 245.562 286.098 246.676C287.098 247.896 286.508 249.196 284.968 249.456C280.968 250.126 277.068 249.696 273.778 247.016C269.598 243.596 265.268 240.316 261.408 236.546C252.318 227.666 243.468 218.546 234.508 209.546C233.982 209.079 233.421 208.654 232.828 208.276L232.358 208.586C232.411 209.213 232.553 209.829 232.778 210.416C233.523 211.823 234.389 213.161 235.368 214.416C244.402 225.095 254.204 235.098 264.698 244.346C265.698 245.206 266.698 246.036 267.798 247.006C263.688 247.826 260.188 247.156 256.158 245.006C248.548 240.906 241.838 235.566 235.328 230.006C228.078 223.786 220.018 219.136 210.668 216.866C210.403 216.764 210.164 216.605 209.968 216.399C209.773 216.193 209.626 215.946 209.538 215.676C209.258 214.676 209.288 213.676 209.078 212.676C208.906 212.227 208.663 211.808 208.358 211.436C207.938 211.756 207.248 212.006 207.148 212.436C206.734 213.676 206.551 214.981 206.608 216.286C207.024 219.206 208.367 221.916 210.438 224.016C213.556 227.099 215.395 231.246 215.588 235.626C215.588 237.206 215.698 239.246 213.908 239.686C212.118 240.126 211.658 238.126 211.078 236.866C209.408 233.286 207.069 230.058 204.188 227.356C201.018 224.356 197.858 221.276 194.848 218.086C191.029 214.026 188.666 208.814 188.128 203.266C187.418 197.156 186.258 191.096 185.128 185.056C184.191 179.594 181.358 174.637 177.128 171.056C173.834 168.27 170.374 165.685 166.768 163.316C157.935 157.76 149.909 151.013 142.918 143.266C138.728 138.506 133.918 134.266 129.358 129.876C128.815 129.489 128.219 129.182 127.588 128.966L127.158 129.476C127.641 130.321 128.178 131.132 128.768 131.906C132.828 136.626 137.018 141.236 141.008 146.026C145.553 151.517 150.724 156.458 156.418 160.746C160.888 164.106 165.588 167.156 170.068 170.496C174.928 174.136 179.068 178.366 180.518 184.576C180.528 184.709 180.528 184.843 180.518 184.976V185.156C180.693 185.414 180.834 185.693 180.938 185.986C181.205 186.49 181.333 187.056 181.308 187.626V187.746L181.608 188.466C181.608 188.566 181.608 188.676 181.608 188.776C181.608 188.876 181.658 188.826 181.668 188.866C181.811 189.129 181.877 189.427 181.858 189.726C181.858 189.726 181.858 189.726 181.858 189.726C181.858 189.926 181.858 190.126 181.938 190.316C182.018 190.506 181.938 190.566 181.938 190.696C182.488 194.376 183.008 197.776 183.488 201.166C184.198 206.166 184.698 211.286 188.078 215.306C191.878 219.806 195.898 224.136 200.078 228.306C203.288 231.516 206.498 234.636 208.438 238.836C208.856 239.693 209.406 240.479 210.068 241.166C212.538 243.826 216.128 243.326 217.408 239.916C218.063 238.005 218.328 235.982 218.188 233.966C217.858 229.667 216.057 225.613 213.088 222.486C212.308 221.596 211.588 220.646 210.838 219.726L211.238 219.316C219.148 222.806 226.758 226.766 233.338 232.556C239.378 237.92 245.876 242.745 252.758 246.976C257.807 250.178 263.886 251.333 269.758 250.206C270.769 250.075 271.795 250.302 272.658 250.846C274.675 252.263 277.024 253.133 279.477 253.373C281.931 253.613 284.404 253.215 286.658 252.216C289.298 251.076 290.518 249.486 289.498 246.876Z" fill="#534741"/>
<path d="M159.958 243.486C160.452 244.2 160.899 244.945 161.298 245.716C165.628 255.536 169.998 265.346 174.238 275.206C176.598 280.716 177.078 286.376 174.828 292.086C173.258 296.086 169.188 298.196 165.468 296.606C163.898 295.936 162.728 294.336 161.278 293.066C158.938 295.216 156.558 298.206 152.278 297.066C148.378 296.066 146.728 292.916 145.278 289.576C142.548 291.226 140.028 291.206 137.828 288.716C135.458 286.036 132.938 283.096 131.828 279.826C128.828 271.136 123.658 264.196 116.998 258.026C111.992 253.236 108.589 247.016 107.258 240.216C107.13 239.411 106.829 238.644 106.374 237.967C105.92 237.29 105.324 236.72 104.628 236.296C101.888 234.596 99.2778 232.696 96.8178 231.016C94.9678 232.586 93.4678 233.946 91.8778 235.186C82.7207 242.324 76.2039 252.31 73.3578 263.566C73.0978 264.506 72.7578 265.426 72.3578 266.736C71.8005 266.008 71.4059 265.169 71.2007 264.275C70.9954 263.382 70.9842 262.455 71.1678 261.556C72.0916 254.004 75.0581 246.847 79.7478 240.856C83.1587 236.14 87.536 232.206 92.5878 229.316C84.7378 224.456 75.4378 223.456 67.2778 219.636L67.4378 218.746C68.1728 218.676 68.9128 218.676 69.6478 218.746C77.4078 220.246 85.0778 222.066 92.1778 225.656C96.7878 227.986 101.278 230.556 105.948 233.076V225.486H106.588C106.668 226.236 106.738 226.986 106.838 227.736C108.028 236.386 110.158 244.736 115.538 251.836C117.515 254.401 119.742 256.763 122.188 258.886C127.477 263.509 131.46 269.441 133.738 276.086C134.947 279.081 136.444 281.951 138.208 284.656C138.87 285.789 139.829 286.719 140.982 287.345C142.135 287.97 143.437 288.268 144.748 288.206C142.798 272.616 134.748 259.676 126.988 246.326C127.675 246.597 128.31 246.982 128.868 247.466C131.508 250.706 134.298 253.856 136.608 257.326C142.331 265.856 146.151 275.518 147.808 285.656C148.22 287.836 149.016 289.925 150.158 291.826C151.718 294.496 154.248 294.826 156.838 293.106L160.938 290.406C159.058 285.346 157.418 280.066 155.168 275.056C152.468 269.056 149.258 263.246 146.258 257.356C145.258 255.466 144.258 253.616 144.608 250.866C145.428 251.506 146.078 251.786 146.398 252.286C148.908 256.286 151.578 260.136 153.768 264.286C158.261 272.419 161.625 281.125 163.768 290.166C163.921 290.786 164.118 291.394 164.358 291.986C164.868 293.456 165.668 294.626 167.428 294.636C168.294 294.722 169.165 294.53 169.915 294.087C170.664 293.645 171.254 292.976 171.598 292.176C172.918 289.066 173.598 285.726 172.598 282.496C170.538 276.166 168.068 269.966 165.818 263.696C163.778 258.016 161.778 252.323 159.818 246.616C159.573 245.688 159.399 244.741 159.298 243.786L159.958 243.486Z" fill="#534741"/>
<path d="M336.268 282.846H336.348C336.348 282.846 336.288 282.846 336.448 282.916C336.608 282.986 336.998 283.486 337.268 283.516C337.66 283.572 338.059 283.541 338.438 283.426C338.736 283.243 338.992 282.997 339.188 282.706C339.283 282.38 339.283 282.033 339.188 281.706C338.981 280.415 338.69 279.139 338.318 277.886C338.205 277.629 338.061 277.387 337.888 277.166C335.218 272.506 333.338 267.166 330.358 262.766C327.49 258.3 324.245 254.088 320.658 250.176C314.478 243.656 308.468 237.376 302.488 230.606C299.818 227.606 297.048 224.926 294.488 221.606C291.928 218.286 288.758 214.686 286.038 211.396C285.694 210.948 285.305 210.535 284.878 210.166C284.755 210.058 284.609 209.982 284.45 209.943C284.291 209.905 284.126 209.906 283.968 209.946C283.748 210.066 283.738 210.666 283.748 210.946C283.792 211.286 283.927 211.607 284.138 211.876C289.56 220.024 295.485 227.826 301.878 235.236C309.398 244.026 318.438 252.016 324.658 261.866C326.406 264.796 327.969 267.832 329.338 270.956C331.138 275.196 333.466 279.191 336.268 282.846Z" fill="#534741"/>
<path d="M356.008 266.396C355.264 266.236 354.558 265.934 353.928 265.506C345.928 257.986 340.758 248.636 332.668 241.146C328.668 237.496 325.618 232.476 322.168 228.146C314.268 218.216 305.278 209.256 295.988 200.546C289.988 194.926 283.138 191.636 275.248 189.546C269.698 188.086 264.098 187.986 258.398 187.956C257.064 188.004 255.728 187.967 254.398 187.846C253.918 187.786 253.478 187.296 253.078 187.016C253.388 186.706 253.748 186.016 254.188 186.016C256.268 185.636 258.258 184.926 260.378 184.966C274.718 185.256 286.688 187.846 297.828 197.446C309.033 207.048 319.147 217.853 327.988 229.666C329.94 232.318 332.054 234.846 334.318 237.236C340.118 243.306 344.978 249.536 350.318 256.236C352.148 258.526 353.978 261.526 355.628 263.996C356.03 264.608 356.324 265.285 356.498 265.996C356.528 266.156 356.168 266.486 356.008 266.396Z" fill="#534741"/>
<path d="M289.588 304.206C288.765 304.501 287.914 304.712 287.048 304.836C274.968 304.926 264.628 300.836 256.628 291.616C252.428 286.776 248.238 281.886 244.528 276.676C237.078 266.226 228.118 257.676 216.298 252.346C215.579 252.07 214.906 251.689 214.298 251.216C213.938 250.906 213.568 250.216 213.698 249.836C213.852 249.621 214.054 249.445 214.289 249.324C214.523 249.202 214.784 249.138 215.048 249.136C215.736 249.187 216.412 249.349 217.048 249.616C228.268 253.346 237.108 260.326 244.328 269.536C248.438 274.786 252.608 279.996 256.718 285.246C263.278 293.626 271.888 298.556 282.248 300.656C284.097 301.118 285.899 301.755 287.628 302.556C288.198 302.786 288.588 303.396 289.588 304.206Z" fill="#534741"/>
<path d="M133.648 188.916C134.285 188.597 134.978 188.407 135.689 188.358C136.399 188.308 137.113 188.399 137.788 188.626C139.215 189.094 140.446 190.022 141.288 191.266C142.133 192.511 142.528 194.007 142.408 195.506C142.368 196.218 142.184 196.915 141.868 197.554C141.552 198.194 141.11 198.762 140.568 199.226C140.289 198.068 139.935 196.929 139.508 195.816C139.161 194.945 138.721 194.114 138.198 193.336C137.675 192.559 137.071 191.838 136.398 191.186C135.532 190.371 134.613 189.612 133.648 188.916V188.916Z" fill="#534741"/>
<path d="M170.438 176.066C171.419 177.287 172.471 178.449 173.588 179.546C174.577 180.518 175.651 181.398 176.798 182.176C177.95 182.95 179.168 183.619 180.438 184.176C181.876 184.797 183.348 185.335 184.848 185.786C183.351 186.754 181.574 187.194 179.798 187.036C177.982 186.908 176.232 186.305 174.721 185.289C173.211 184.273 171.992 182.88 171.188 181.246C170.364 179.653 170.1 177.828 170.438 176.066Z" fill="#534741"/>
<path d="M238.918 188.126C242.648 187.606 246.768 187.126 251.228 186.856C256.708 186.486 261.758 186.416 266.278 186.516" stroke="#534741" stroke-width="2.04" stroke-miterlimit="10"/>
</svg>
