<svg width="442" height="440" viewBox="0 0 442 440" fill="none" xmlns="http://www.w3.org/2000/svg">
<path d="M7.19247 250.506C7.07247 251.106 6.61246 250.826 6.52246 249.196L7.10248 247.976L7.19247 250.506Z" fill="#016C55"/>
<path d="M4.71289 239.756C4.85289 237.816 5.2329 235.566 6.0029 236.756C5.5229 238.706 5.8529 239.126 5.2529 241.246C5.3329 242.876 5.7729 244.046 6.0029 243.746C5.8929 244.336 6.4429 246.246 6.0929 247.166C5.26807 244.737 4.95153 242.163 5.1629 239.606C4.9529 239.006 4.82289 239.606 4.71289 239.756Z" fill="#016C55"/>
<path d="M44.6823 89.4263L44.1523 90.3163C44.3071 90.0071 44.4842 89.7096 44.6823 89.4263Z" fill="#016C55"/>
<path d="M119.312 25.4063C118.642 25.7563 118.312 25.8463 118.312 25.8163C118.902 25.5163 119.432 25.2763 119.312 25.4063Z" fill="#016C55"/>
<path d="M134.363 17.5264L133.463 17.9763C133.732 17.7709 134.037 17.6182 134.363 17.5264V17.5264Z" fill="#016C55"/>
<path d="M44.6826 89.4263L46.0426 87.1463C46.3426 87.1363 45.4326 88.3463 44.6826 89.4263Z" fill="#016C55"/>
<path d="M4.6022 217.786C4.60556 218.265 4.56875 218.743 4.49219 219.216V217.886L4.6022 217.786Z" fill="#016C55"/>
<path d="M21.7428 126.576L21.3928 127.306C21.224 127.482 21.04 127.643 20.8428 127.786L21.7428 126.576Z" fill="#016C55"/>
<path d="M9.62305 157.886C9.79305 157.146 10.433 157.066 10.763 156.886C10.3775 157.309 10.0967 157.815 9.94305 158.366C9.82305 158.316 9.72305 158.186 9.62305 157.886Z" fill="#016C55"/>
<path d="M1.90277 210.416L1.84277 211.416C1.85277 211.116 1.88277 210.706 1.90277 210.416Z" fill="#016C55"/>
<path d="M33.0431 105.346C33.0012 105.223 33.0012 105.09 33.0431 104.966C33.0731 105.006 33.0731 105.156 33.0431 105.346Z" fill="#016C55"/>
<path d="M194.493 433.886C194.493 433.886 194.493 433.956 194.493 433.996C194.293 433.886 194.243 433.886 194.493 433.886Z" fill="#016C55"/>
<path d="M156.303 428.886L156.803 429.066C156.832 429.184 156.832 429.308 156.803 429.426L156.303 428.886Z" fill="#016C55"/>
<path d="M163.563 6.65625H163.433C162.613 6.82625 163.063 6.72625 163.563 6.65625Z" fill="#016C55"/>
<path d="M410.152 108.346C408.012 105.856 412.282 113.186 409.242 109.346C409.682 109.606 407.752 105.066 410.152 108.346Z" fill="#016C55"/>
<path d="M4.48285 216.936L4.42285 215.576C4.43285 216.196 4.48285 216.616 4.48285 216.936Z" fill="#016C55"/>
<path d="M409.243 109.336L408.933 108.936L409.243 109.336Z" fill="#016C55"/>
<path d="M234.853 0.246094C234.617 0.363718 234.364 0.441451 234.103 0.476105C234.133 0.416105 234.303 0.346094 234.853 0.246094Z" fill="#016C55"/>
<path d="M181.683 3.88623L182.973 3.62622C182.548 3.73789 182.117 3.82472 181.683 3.88623V3.88623Z" fill="#016C55"/>
<path d="M262.252 4.47625C262.902 4.48958 263.55 4.57341 264.182 4.72625H263.872C263.35 4.55007 262.802 4.46549 262.252 4.47625Z" fill="#016C55"/>
<path d="M290.082 11.8863L289.542 11.8263L288.692 11.4763L290.082 11.8863Z" fill="#016C55"/>
<path d="M279.512 427.256C279.101 427.481 278.726 427.767 278.402 428.106C278.702 427.576 274.642 428.466 279.512 427.256Z" fill="#016C55"/>
<path d="M4.2627 217.796C4.43388 217.544 4.51168 217.24 4.4827 216.936C4.4827 217.266 4.4827 217.576 4.4827 217.936C4.4327 217.966 4.3327 217.996 4.2627 217.796Z" fill="#016C55"/>
<path d="M262.482 9.31616C263.96 9.53232 265.423 9.83959 266.862 10.2362C265.632 10.0262 264.082 9.48616 262.482 9.31616Z" fill="#016C55"/>
<path d="M422.543 294.246L422.123 295.196C422.218 294.861 422.359 294.541 422.543 294.246V294.246Z" fill="#016C55"/>
<path d="M279.723 13.6362C280.585 13.6351 281.445 13.7121 282.293 13.8663C282.453 13.9429 282.607 14.0332 282.753 14.1362L279.723 13.6362Z" fill="#016C55"/>
<path d="M250.993 433.066C246.803 433.386 249.673 433.416 245.993 434.516C243.753 434.216 241.863 435.386 241.293 434.296C239.993 435.056 240.293 434.776 237.733 435.416C238.863 434.786 232.733 435.096 232.823 434.416C231.823 435.256 237.353 435.146 233.943 436.136C231.533 435.736 227.133 435.766 226.753 434.946C224.961 435.337 223.148 435.624 221.323 435.806C221.75 435.769 222.18 435.809 222.593 435.926C217.593 435.646 210.173 435.806 207.413 434.646C208.343 435.976 196.803 433.996 200.513 435.416C198.47 435.146 196.46 434.671 194.513 433.996C194.613 434.996 189.323 433.596 187.003 433.776C185.913 433.086 182.183 432.636 180.003 431.906C181.003 432.196 181.483 432.456 181.083 432.646C178.633 431.806 179.193 432.266 176.963 432.296C173.613 431.296 177.723 431.726 175.763 430.856C172.763 430.426 175.193 431.346 174.583 431.616L170.433 429.686C169.77 429.55 169.083 429.577 168.433 429.766C166.93 428.917 165.262 428.402 163.543 428.256L167.253 429.256L165.703 429.356L161.433 427.586C154.963 426.416 156.613 427.956 156.793 429.056L159.333 429.996C159.153 430.296 157.333 429.996 156.173 429.626C155.033 429.526 160.033 431.926 162.883 432.816C170.653 434.746 164.783 432.146 170.143 433.186C172.383 433.906 174.636 434.593 176.903 435.246L177.053 434.926C177.769 434.924 178.468 435.144 179.053 435.556C178.663 434.996 184.723 436.426 187.573 436.756L186.483 437.026C194.273 439.246 199.123 437.556 205.333 438.556L209.733 439.556L210.733 438.946C213.313 439.436 213.733 439.946 218.043 439.806C225.553 439.126 233.293 438.606 241.103 438.386C248.863 437.656 256.623 436.386 264.103 434.966C263.633 435.225 263.122 435.4 262.593 435.486C267.958 433.671 273.473 432.332 279.073 431.486C281.605 431.137 284.119 430.66 286.603 430.056C289.267 429.212 291.868 428.176 294.383 426.956H293.523C299.313 424.956 292.653 427.016 296.713 425.156C297.713 425.536 304.303 423.216 307.603 421.936C307.033 422.006 305.973 422.626 304.953 422.826C305.576 422.142 306.35 421.612 307.213 421.276C311.213 420.626 318.773 416.846 324.543 414.436C325.033 413.756 329.353 410.436 331.313 408.316C331.963 408.146 333.143 407.886 334.243 407.676C335.689 406.499 337.335 405.591 339.103 404.996L334.753 407.586H334.893C334.628 407.704 334.371 407.838 334.123 407.986C332.953 408.666 332.333 408.986 332.583 408.806C330.703 410.526 332.933 409.056 333.093 409.666C334.833 408.586 338.573 406.556 338.723 405.926C339.723 405.286 340.423 404.806 341.463 404.066C342.237 403.729 342.974 403.314 343.663 402.826C343.54 402.891 343.413 402.947 343.283 402.996C343.384 402.84 343.495 402.69 343.613 402.546C346.613 399.946 351.693 397.316 354.613 395.666C351.533 397.016 354.763 394.476 354.423 394.046C354.763 393.856 351.513 396.316 347.423 399.366C347.683 399.096 347.853 398.846 347.813 398.626C350.963 395.536 354.113 394.566 358.963 390.426C358.593 390.626 357.863 391.016 357.963 390.676C359.184 389.589 360.572 388.704 362.073 388.056C362.153 387.266 365.453 383.736 367.383 382.306C369.092 381.491 370.635 380.366 371.933 378.986L370.433 379.886C373.513 376.626 373.573 377.886 376.023 375.066C375.113 376.236 374.673 375.996 375.453 375.206C377.322 373.192 379.454 371.439 381.793 369.996H380.943C383.873 367.296 389.503 362.186 388.943 361.596C389.243 363.506 394.863 355.176 396.883 352.346C396.133 353.276 395.793 353.346 395.623 353.346C398.107 350.613 400.405 347.716 402.503 344.676C404.573 341.596 406.183 338.206 408.153 335.096L407.983 333.616C409.983 330.316 412.163 330.266 414.333 326.616L413.163 327.726C415.303 324.606 416.163 322.066 417.293 319.896C418.423 317.726 419.293 315.576 420.533 312.816L419.933 312.666C421.133 310.826 422.303 308.376 423.523 306.506C423.783 303.926 425.583 299.376 427.633 294.336C428.633 291.806 429.703 289.156 430.633 286.576C431.357 284.121 431.823 281.598 432.023 279.046L433.253 278.796C434.093 275.416 435.433 271.136 435.003 269.376L434.833 270.126C433.903 270.256 435.673 266.756 436.023 264.616C436.383 263.026 437.173 261.506 437.133 262.936C437.553 258.306 438.423 252.646 439.133 247.396C439.873 243.104 440.027 238.73 439.593 234.396C440.013 229.806 440.533 225.766 440.993 221.626C441.241 217.158 441.198 212.679 440.863 208.216L440.733 208.346C440.413 204.976 439.733 198.256 438.823 198.346C438.103 191.246 438.593 186.516 436.913 178.096L436.843 179.996C436.383 177.876 436.213 174.356 436.003 173.506C435.793 172.656 435.753 173.356 435.643 173.506C434.823 171.586 435.013 170.296 434.693 168.686L434.553 169.406C433.25 165.452 432.208 161.417 431.433 157.326C430.994 155.008 430.375 152.728 429.583 150.506C428.853 148.266 428.103 146.066 427.313 144.016C427.773 145.566 427.143 144.886 426.783 144.326C426.337 141.477 425.606 138.68 424.603 135.976C423.603 132.736 421.843 129.776 421.233 128.026L421.843 130.246C419.353 123.476 418.153 125.126 415.693 118.416L418.003 121.826C416.583 119.296 415.693 116.976 416.403 117.386C414.543 114.546 415.713 117.276 413.013 112.956C412.643 112.956 414.743 116.186 413.543 114.956L409.213 109.346C408.522 108.446 407.925 107.478 407.433 106.456C408.863 106.296 404.433 101.456 407.433 103.786C406.163 101.636 404.883 99.6062 403.623 97.6562C402.363 95.7062 400.803 94.0362 399.463 92.2762C396.713 88.8062 394.123 85.4562 391.793 81.8462C388.793 79.7762 380.443 69.2362 379.893 70.9162C378.273 69.1462 376.893 67.4762 375.673 65.9162C374.453 64.3562 373.283 63.1362 372.433 61.9162C373.25 62.5921 374 63.3457 374.673 64.1662C374.033 63.0262 369.773 59.0562 367.973 57.4262C370.073 59.8462 373.653 63.5162 374.973 65.6362C371.873 62.5762 367.773 58.0362 366.093 56.2362L364.713 56.1162C362.393 53.1762 361.993 54.5662 359.793 51.4462L360.473 51.7262C355.153 47.5762 355.473 46.9662 350.543 43.0662V43.4962C348.733 42.3062 346.603 39.7362 344.473 39.0962L347.753 41.5862C347.073 41.8162 344.413 40.1562 343.113 39.5862C339.593 37.0662 342.373 37.9462 340.573 36.7162C339.483 36.7162 340.223 36.8562 341.213 38.0862C337.213 35.4062 331.713 31.8162 329.103 29.3962C328.873 29.3962 329.023 29.5962 329.023 29.5962C324.753 26.8862 321.023 24.3062 318.023 23.3262L318.873 23.8262C314.873 22.8262 309.723 18.5662 308.403 19.4762C306.573 18.8762 312.343 21.3062 309.293 20.5962C303.723 18.3862 306.173 17.7962 301.073 16.3062C301.763 16.5162 301.513 16.5162 301.703 16.7162C298.113 15.3662 293.383 13.4862 289.453 11.9062C287.887 11.6184 286.341 11.2343 284.823 10.7562C283.043 10.3462 281.103 9.81621 279.143 9.28621C275.223 8.22621 271.143 7.16621 268.143 7.06621C270.073 7.06621 266.813 6.16622 266.843 5.95622C266.843 5.95622 267.063 6.13621 266.843 6.16621C265.775 5.89538 264.76 5.4457 263.843 4.83623C262.013 4.96623 257.973 3.5062 256.843 3.5962C256.843 3.2962 255.113 3.11622 253.193 2.82622C256.993 3.73622 254.333 3.63621 255.993 4.35622C250.253 3.62621 249.603 2.07621 243.593 1.35621C242.458 1.39705 241.327 1.49718 240.203 1.6562C239.603 0.786203 233.973 0.836208 234.113 0.536207C233.113 0.746207 231.543 0.826209 231.743 1.25621C229.333 0.926209 225.743 1.1762 224.743 0.626204L227.143 0.526228C219.673 0.246228 215.143 -0.403785 209.413 0.356215L209.593 1.61622C205.813 2.32622 202.473 1.22622 199.243 2.20622C200.353 1.72622 200.613 1.69621 198.143 1.63621C199.563 1.24621 202.293 1.6362 204.703 1.4362L199.433 0.886214H207.493C204.023 0.556214 204.273 0.666226 205.643 0.0862258C200.713 -0.0337742 200.403 0.776209 195.743 1.00621C194.093 1.41621 195.863 1.6262 193.993 2.1562C189.813 2.2862 186.313 4.1562 183.273 3.9062C182.353 4.1662 184.963 3.70623 184.783 4.02623C182.123 4.28623 180.233 4.60623 179.393 4.33623L181.643 3.8762C179.643 4.1762 179.223 3.6762 175.543 4.8762C173.323 5.1062 171.963 4.7862 174.323 4.2162C173.323 4.3662 171.323 5.21621 172.143 5.38621C166.313 6.78621 169.033 4.73621 163.523 6.66621C163.913 6.66621 164.343 6.57621 164.153 6.66621C162.992 7.03861 161.805 7.32605 160.603 7.52623C165.603 6.44623 159.313 8.87621 165.143 7.25621C164.673 8.08621 160.693 8.39622 158.933 9.20622C156.003 9.70622 158.343 8.37621 156.843 8.53621C156.933 8.72621 155.763 9.12621 154.423 9.66621L155.603 8.73622C154.443 9.12622 153.293 9.51622 151.863 9.86622L154.263 9.27623C151.743 10.2162 148.163 12.2762 143.573 13.2762C144.823 13.0662 147.303 12.6762 144.433 13.9162C139.433 15.2462 143.373 14.4862 140.783 15.7862C136.113 17.7262 139.643 15.2962 132.903 18.6162C132.163 18.9462 132.733 18.3662 133.423 17.9162C128.853 20.2362 126.093 20.9162 121.773 23.4162C123.633 22.2962 125.143 21.5562 122.343 22.4962C123.613 22.2462 118.943 24.8162 117.343 25.9662H116.783C115.563 26.9662 117.053 26.2562 118.193 25.7362C118.113 25.6762 118.473 25.3862 119.293 24.9562C121.523 23.9562 121.183 25.2562 117.863 27.1962C114.153 28.9862 114.403 28.0662 114.863 27.5062C110.153 30.4162 109.733 29.0062 105.283 31.9262C104.283 32.5562 101.473 35.7262 98.2828 37.9262C96.2828 38.5562 102.023 34.8762 99.9027 35.7062C95.4727 40.5462 88.2927 42.1262 82.4327 48.3862L83.6928 48.2762C82.2128 49.5362 80.7528 50.7862 79.0028 52.1162L81.0028 49.9962C79.3828 51.1062 75.9027 54.1262 77.4227 53.5862C73.5827 55.8762 73.1827 56.8462 70.4227 59.8462C73.4927 56.7762 70.4227 59.7162 72.9327 57.7762C71.1824 59.824 69.2365 61.6962 67.1227 63.3662C67.6727 63.1862 66.7528 64.6162 65.8828 65.4662C62.6921 67.9616 59.7486 70.7578 57.0928 73.8162L57.2627 73.9462C52.6027 79.0662 48.2127 85.1262 43.8927 90.5762L43.6628 90.8362L43.9428 90.3762C44.8028 88.0262 40.4128 94.4862 38.9428 96.0662C38.8773 96.7204 38.6315 97.3435 38.2327 97.8662C37.6727 97.5762 36.3628 99.8662 35.5928 100.536C34.5928 102.726 36.3827 100.686 34.2727 104.206C33.4127 105.546 33.0427 105.536 32.9327 105.206C32.3432 107.019 31.5656 108.765 30.6127 110.416C31.0681 109.753 31.4758 109.058 31.8327 108.336C32.2527 108.266 31.4127 109.466 31.8327 109.646C30.9027 111.326 30.9327 110.016 29.9028 112.196L31.4627 110.526C31.0549 111.319 30.5692 112.07 30.0127 112.766C30.8527 111.566 31.1928 111.996 31.3428 112.316C28.2028 116.926 29.6227 112.596 28.9927 112.576C26.5027 117.236 24.2828 120.766 22.4728 124.476L23.3327 124.026C22.8169 125.162 22.1436 126.219 21.3327 127.166L20.0028 129.956C21.0028 128.436 21.3827 127.956 21.8627 128.056C20.3327 130.966 18.4727 135.056 17.4827 135.556L17.6427 135.486C16.4327 139.886 13.4328 148.466 13.8128 148.276C12.8785 150.449 12.0574 152.669 11.3528 154.926C10.8028 156.926 10.3528 158.386 9.94276 158.336C9.03276 161.006 9.04274 165.606 7.58274 167.336C7.22274 170.676 7.74274 167.556 8.58274 166.716C8.26274 170.036 6.01275 172.976 6.96275 174.316C5.96275 178.056 6.88275 173.386 6.18275 174.566C7.06275 175.566 5.18275 181.686 5.12275 185.356C4.43275 186.886 5.12274 183.676 4.23274 186.356C4.54274 186.126 4.34274 187.596 4.23274 188.356L3.46275 188.966L4.46275 192.806C2.97275 198.126 3.46276 191.566 2.25276 198.746L2.36274 198.316C2.79274 200.316 1.18276 203.496 1.69276 208.826C1.58276 207.016 2.01274 208.086 2.20274 207.516L1.93275 210.446C1.93275 210.186 2.01275 210.056 2.09275 210.336C2.62275 212.906 1.85276 212.576 2.41276 215.556C2.46276 213.496 2.98276 214.106 3.25276 214.996L2.72276 219.306L3.52275 217.526C3.78275 221.666 2.88276 227.956 4.28276 229.976V227.896C4.51276 228.036 5.23274 229.216 5.05274 232.036C5.05274 232.926 4.56274 233.546 4.48274 232.356L4.87275 234.426C5.34275 233.366 5.04275 228.186 4.96275 224.926C4.80275 225.926 4.82275 228.486 4.40275 227.746C4.34275 224.836 4.53274 222.046 4.55274 219.246C4.41827 220.076 4.19016 220.888 3.87275 221.666C3.35275 218.556 4.12273 219.296 4.04273 216.926C3.75273 216.036 3.59274 215.426 3.42274 216.036C3.55939 213.216 3.50261 210.389 3.25276 207.576C3.25276 207.576 2.80274 211.116 2.48274 209.166C2.90274 203.346 3.71276 202.326 4.91276 196.166C6.85276 189.166 6.59276 182.306 8.07276 177.466C8.38276 177.246 7.90274 181.236 8.61274 178.076C8.00274 178.526 8.61274 176.076 8.42274 175.896C9.70274 172.576 9.49275 170.816 10.5628 168.516C10.2328 169.036 10.5627 167.006 10.7327 165.656C10.0027 165.886 11.4927 161.816 9.27275 166.566C11.6027 161.706 11.4027 157.396 13.9527 154.076C13.8453 154.52 13.7685 154.971 13.7228 155.426C14.1128 153.696 14.7227 152.036 15.2027 150.336L15.1427 150.546C15.8438 148.745 16.3175 146.864 16.5527 144.946C15.9427 146.146 15.2728 147.946 14.6628 149.156C15.1128 146.286 17.1527 143.766 18.2627 140.836C17.7827 140.836 16.9827 143.836 16.7627 142.776C17.5085 140.834 18.353 138.932 19.2927 137.076L18.9527 137.256C20.5327 131.896 20.9527 135.776 21.8627 131.736C21.9527 131.906 22.3228 131.516 22.3528 131.806C22.7428 130.336 23.8427 126.946 22.0427 129.966C22.7537 128.403 23.6465 126.93 24.7027 125.576C24.3527 127.216 24.0027 127.496 24.1827 128.256L27.7427 121.386C28.1127 120.596 27.2427 121.846 26.7427 122.826C27.9127 118.316 30.7428 114.566 33.3228 110.586C36.0502 106.486 38.5636 102.247 40.8528 97.8862C40.5328 99.0662 41.6028 97.4862 42.4128 96.8862C44.2428 94.1062 47.2628 90.0862 48.8428 87.4262L48.0427 88.0462C53.1727 81.9862 57.3027 78.3562 60.4927 74.2162C60.7527 74.1062 60.1627 73.9562 59.4927 74.6162C62.2727 71.9562 64.4928 67.6662 66.0628 67.6962L65.0628 68.6962C70.6864 63.0226 76.7705 57.8248 83.2528 53.1562C84.2528 51.4662 79.6927 55.9662 80.4227 54.3262C82.4227 52.4962 84.6428 50.8162 86.8828 49.0962C89.1228 47.3762 91.3628 45.5962 93.8228 43.9162C93.4603 44.1161 93.0824 44.2866 92.6928 44.4262C97.3628 40.7462 92.5528 45.3462 96.6328 42.4262C96.2128 42.2962 96.3628 42.0962 97.6328 41.0162L99.1527 40.6462C99.3127 40.4362 99.0427 40.1162 98.3327 40.3862C100.583 39.7562 105.783 35.5562 107.633 35.2362C107.943 34.8762 106.523 34.9362 106.993 34.3862C108.755 33.2457 110.649 32.3224 112.633 31.6362V31.6362C114.033 30.3262 118.073 28.1662 117.183 28.5662C121.263 26.0462 118.023 28.5662 121.393 27.1362L118.213 29.2462L124.143 26.1362L121.663 27.1362C124.183 25.2862 127.453 24.7562 130.663 23.2362L129.323 24.2362L133.153 22.8062C133.153 21.9062 137.853 20.5262 135.443 20.5862C142.173 16.9162 147.323 16.6962 153.853 14.4762C152.713 14.8562 153.103 14.5562 152.853 14.4762C155.605 13.3544 158.505 12.6369 161.463 12.3462C160.913 12.1962 159.973 12.3962 159.903 12.2162C164.503 10.9962 162.833 11.9562 167.993 10.9562C166.503 10.9562 166.903 10.6962 168.273 10.2762C168.133 10.6162 169.353 10.5362 170.273 10.3962C166.053 9.76622 175.863 8.3962 173.163 7.7462C173.503 8.0162 181.613 6.80621 179.443 7.97621L178.033 8.1862C177.963 8.6862 179.793 7.95622 181.263 7.85622C180.728 7.91814 180.188 7.91814 179.653 7.85622C183.383 7.56622 187.153 7.06621 191.043 6.50621C194.933 5.94621 198.903 5.09621 203.103 5.28621C202.363 5.15621 198.973 5.02622 201.103 4.79622C208.263 4.37802 215.443 4.45488 222.593 5.02623C222.973 3.76623 213.593 5.02622 213.223 4.11622L219.903 3.9962C222.143 4.1262 224.413 4.36623 226.703 4.55623L240.843 5.9362C244.413 4.6962 250.193 7.93622 256.363 7.60622C255.713 8.01621 258.663 8.60622 261.913 9.14622C260.913 8.58622 264.313 9.09621 263.413 8.66621C266.133 9.78621 274.133 12.0662 274.063 11.0362C274.553 12.1362 280.063 12.5462 282.213 13.7762C285.863 14.2862 289.513 16.5362 293.923 17.7762C292.213 17.7762 298.083 19.5962 299.563 20.4062C299.143 20.2062 298.273 19.7962 298.563 19.8062C300.003 19.8762 303.403 21.8062 305.783 22.8062C306.913 23.1162 305.783 22.1862 307.463 22.9662C307.343 23.3662 313.353 26.8162 315.893 27.4662C315.293 27.1817 314.756 26.7805 314.313 26.2862C316.983 27.7762 319.733 29.1862 322.523 30.5662L330.603 35.4362L338.683 40.3762C341.423 41.9462 343.683 44.1762 346.113 46.1262L344.763 44.2262C351.533 48.1562 348.163 48.2262 353.133 51.8162C356.586 54.2543 359.885 56.9026 363.013 59.7462L372.733 68.0662L381.473 77.3162C384.417 80.2775 387.094 83.4934 389.473 86.9262C390.033 88.0162 388.863 86.5262 388.473 86.5462C389.393 87.6362 390.103 87.5462 390.963 89.3762L390.403 89.2562C393.602 92.8053 396.508 96.6077 399.093 100.626C401.693 105.106 404.213 109.306 406.353 111.276C409.773 117.586 412.613 121.836 415.623 130.066C417.133 132.406 414.833 126.906 416.533 130.216C417.463 132.766 418.673 135.216 419.353 137.816L419.253 137.376C420.753 145.106 427.963 156.186 429.143 166.116V165.696C429.343 165.406 430.143 167.296 430.463 168.856C430.463 169.436 430.053 168.426 429.603 167.556C430.503 171.836 431.043 174.436 431.543 176.816C431.863 179.226 432.163 181.416 432.613 184.816C432.613 181.816 433.373 187.496 433.963 187.716C433.883 189.566 433.243 186.766 433.553 190.796C433.923 193.646 434.553 196.346 434.923 198.966C435.293 201.586 435.453 204.106 435.703 206.476C435.313 208.476 435.573 210.966 434.983 211.116C435.083 214.356 435.173 216.876 435.263 219.576C435.103 222.276 434.933 225.156 434.703 229.126L434.903 229.336C434.043 231.436 434.903 236.246 434.433 237.696C434.703 237.496 434.863 236.696 435.053 236.886L434.633 240.486C434.943 238.796 435.703 237.876 435.633 240.866C434.953 243.926 435.323 239.986 434.813 241.446C435.023 241.786 435.273 242.126 435.443 242.446C435.013 244.756 434.123 245.306 434.343 242.446C433.073 250.306 431.803 258.056 430.523 265.016L431.153 264.376C429.977 268.059 429.088 271.827 428.493 275.646C428.343 275.716 427.863 276.586 427.873 275.946C426.123 280.306 428.473 276.636 426.553 281.396C427.033 280.216 427.553 278.686 427.833 278.556C426.959 281.63 425.866 284.638 424.563 287.556C424.853 287.756 423.563 293.476 421.883 297.186C421.653 297.266 421.813 296.086 422.133 295.106L421.083 297.476L421.133 299.636L419.203 302.906L419.793 303.216C418.653 305.746 417.263 306.336 416.393 308.386C413.143 316.086 414.083 314.656 412.063 320.316C411.293 320.316 410.483 322.536 409.153 324.626C407.823 326.716 406.663 329.026 405.883 329.436C403.876 333.667 401.584 337.756 399.023 341.676C395.923 345.836 392.573 350.186 389.553 354.446L390.153 353.826C389.388 355.253 388.352 356.516 387.103 357.546C385.676 358.492 384.405 359.652 383.333 360.986L384.333 360.216C381.982 363.271 379.441 366.173 376.723 368.906C375.243 370.386 373.833 371.906 372.343 373.176C370.853 374.446 369.413 375.466 368.243 376.366C369.243 375.706 369.093 376.366 367.663 377.636C366.313 378.526 368.203 375.956 365.923 378.356C366.603 377.896 366.313 378.526 365.763 379.046L362.883 380.886L358.203 385.566C356.603 387.186 354.683 388.506 352.893 389.996C349.233 392.876 345.473 395.716 341.843 398.206C340.663 399.376 341.743 398.846 342.183 398.786C336.243 402.516 329.933 405.536 324.523 408.786L324.333 409.786C321.643 411.326 322.103 409.686 318.813 412.046C318.053 412.526 321.223 410.936 322.373 410.746C317.023 413.936 318.743 411.746 313.443 414.346L315.203 414.416C311.303 416.826 310.333 416.276 308.653 416.546C302.553 418.456 305.203 420.006 296.763 422.346C295.323 422.436 296.973 421.626 295.543 421.716C289.883 423.976 289.053 423.806 283.333 425.926C280.533 427.926 286.333 425.156 283.243 427.136C284.72 426.645 286.166 426.064 287.573 425.396C284.003 427.396 291.053 424.296 290.703 425.196C289.027 425.889 287.307 426.467 285.553 426.926C283.553 427.446 281.443 427.646 279.553 428.056C279.703 428.586 284.003 426.976 282.453 428.146L280.453 428.436C281.077 428.545 281.718 428.504 282.323 428.316C281.773 428.996 280.023 428.936 278.153 429.406C277.953 429.166 277.943 428.746 278.453 428.206C278.327 428.344 278.174 428.453 278.003 428.526C274.003 428.746 267.693 430.976 264.293 431.206C264.853 431.206 264.413 431.396 264.293 431.566C261.953 432.046 259.393 431.636 256.213 431.926C254.573 432.586 257.413 432.926 252.323 433.516C251.323 433.206 253.473 432.086 249.263 432.746C249.183 432.646 252.923 432.446 250.993 433.066ZM340.573 400.066C341.177 399.726 341.755 399.342 342.303 398.916V398.916C341.761 399.343 341.182 399.721 340.573 400.046V400.066ZM347.093 395.906C346.413 396.426 346.033 396.436 346.153 396.096L349.063 393.886C348.163 394.756 346.643 396.046 347.093 395.886V395.906ZM335.923 407.486H336.103L338.173 406.316C338.083 406.516 337.753 406.856 336.543 407.486C336.337 407.529 336.125 407.522 335.923 407.466V407.486Z" fill="#016C55"/>
<path d="M334.043 408.046L333.543 408.296L334.163 407.756L334.673 407.666L334.043 408.046Z" fill="#016C55"/>
<path d="M44.0519 90.4762L44.1519 90.3162C44.0877 90.4297 44.0374 90.5506 44.002 90.6762C44.0223 90.6105 44.0389 90.5437 44.0519 90.4762V90.4762Z" fill="#016C55"/>
<path d="M419.052 302.926L419.193 302.996L418.812 303.626L419.052 302.926Z" fill="#016C55"/>
<path d="M22.2928 131.806C22.2929 132.015 22.2521 132.223 22.1729 132.416C22.1871 132.209 22.2274 132.004 22.2928 131.806V131.806Z" fill="#016C55"/>
<path d="M15.0827 150.546L14.3027 153.286C14.6127 152.096 14.8627 151.236 15.0827 150.546Z" fill="#016C55"/>
<path d="M11.0029 165.436C10.9172 165.541 10.8023 165.617 10.6729 165.656V165.656L11.0029 165.436Z" fill="#016C55"/>
<path d="M181.332 7.96613L181.932 7.90613C183.322 7.88613 182.432 7.88613 181.332 7.96613Z" fill="#016C55"/>
<path d="M112.673 31.7061C113.413 31.4261 114.133 31.1462 114.873 30.8062C113.753 31.4862 112.883 31.9861 112.673 31.7061Z" fill="#016C55"/>
<path d="M262.002 9.25635L262.492 9.33636L262.002 9.25635Z" fill="#016C55"/>
<path d="M117.843 29.1562C116.896 29.7975 115.891 30.3499 114.843 30.8063C115.81 30.1988 116.812 29.6479 117.843 29.1562Z" fill="#016C55"/>
<path d="M5.68262 231.536L5.78262 232.276C5.78262 232.276 5.71263 232.276 5.69263 232.376L5.68262 231.536Z" fill="#016C55"/>
<path d="M5.69195 232.376V233.206C5.64435 232.932 5.64435 232.651 5.69195 232.376Z" fill="#016C55"/>
<path d="M5.71289 234.966V233.206C5.80737 233.789 5.80737 234.383 5.71289 234.966Z" fill="#016C55"/>
<path d="M4.14258 211.146L4.3526 210.916C4.341 210.97 4.31545 211.019 4.27856 211.06C4.24168 211.1 4.19476 211.13 4.14258 211.146V211.146Z" fill="#016C55"/>
<path d="M4.26261 204.996C4.26261 206.466 4.62262 208.666 4.52262 210.716L4.35264 210.916C4.63264 209.946 3.83261 206.376 4.26261 204.996Z" fill="#016C55"/>
<path d="M5.22305 178.886L4.51303 184.106C4.44303 183.166 4.33305 181.916 3.87305 184.266C4.30305 177.606 4.16305 185.716 5.22305 178.886Z" fill="#016C55"/>
<path d="M8.59207 162.886C7.75207 165.596 8.27208 162.766 8.10208 162.886C8.77208 161.226 8.94207 160.826 8.59207 162.886Z" fill="#016C55"/>
<path d="M67.9325 62.4862L67.3525 62.2962C68.9725 60.8262 67.5125 62.4262 67.9325 62.4862Z" fill="#016C55"/>
<path d="M86.6729 49.8562L85.2529 51.4562L84.1729 51.6962L86.6729 49.8562Z" fill="#016C55"/>
<path d="M95.0529 38.8563L94.2129 39.3363L97.3629 37.4463L95.0529 38.8563Z" fill="#016C55"/>
<path d="M285.432 9.64626L284.592 10.1262C283.172 9.64624 283.092 8.88626 285.432 9.64626Z" fill="#016C55"/>
<path d="M360.173 50.8862C361.62 51.6331 362.889 52.6837 363.893 53.9662C362.433 52.6762 360.843 51.5862 360.173 50.8862Z" fill="#016C55"/>
<path d="M431.682 283.466L432.332 281.856L431.332 284.966L431.682 283.466Z" fill="#016C55"/>
<path d="M37.313 374.156C37.453 374.526 37.083 374.576 36.453 373.746L36.373 372.846L37.313 374.156Z" fill="#016C55"/>
<path d="M32.0921 369.436C31.5421 368.316 31.0221 366.946 31.8921 367.266C32.2421 368.516 32.5721 368.626 32.8921 370.006C33.4921 370.846 34.1621 371.296 34.2021 371.006C34.3321 371.376 35.3221 372.166 35.4321 372.806C34.0941 371.859 33.0119 370.594 32.2821 369.126C31.9921 368.886 32.1221 369.306 32.0921 369.436Z" fill="#016C55"/>
<path d="M38.0332 302.566C38.1464 302.31 38.2303 302.041 38.2832 301.766C38.2422 302.044 38.1578 302.314 38.0332 302.566V302.566Z" fill="#016C55"/>
<path d="M13.3029 255.886C13.1029 256.346 12.9729 256.516 12.9229 256.526C13.1229 256.116 13.3029 255.776 13.3029 255.886Z" fill="#016C55"/>
<path d="M22.8825 252.506L22.3525 252.126C22.5527 252.216 22.7329 252.346 22.8825 252.506V252.506Z" fill="#016C55"/>
<path d="M38.0326 302.566C37.7162 303.241 37.1754 303.785 36.5026 304.106C36.2826 304.036 37.5726 303.586 38.0326 302.566Z" fill="#016C55"/>
<path d="M25.0527 357.366C25.196 357.637 25.3197 357.918 25.4227 358.206L25.0127 357.456L25.0527 357.366Z" fill="#016C55"/>
<path d="M16.563 300.696L16.2831 301.156C16.1552 301.262 16.018 301.356 15.873 301.436L16.563 300.696Z" fill="#016C55"/>
<path d="M11.3525 321.766C11.3525 321.266 11.7925 321.106 11.9825 320.926C11.7864 321.246 11.6762 321.611 11.6625 321.986C11.5725 321.996 11.4325 321.886 11.3525 321.766Z" fill="#016C55"/>
<path d="M21.1025 354.176L21.3325 354.736L21.1025 354.176Z" fill="#016C55"/>
<path d="M30.2031 292.936C30.2612 292.866 30.3431 292.82 30.4331 292.806C30.4331 292.886 30.3331 292.886 30.2031 292.936Z" fill="#016C55"/>
<path d="M122.482 411.257C122.482 411.257 122.482 411.257 122.532 411.197C122.582 411.137 122.622 411.347 122.482 411.257Z" fill="#016C55"/>
<path d="M145.663 420.546L145.343 420.406C145.323 420.321 145.323 420.232 145.343 420.146L145.663 420.546Z" fill="#016C55"/>
<path d="M36.6425 267.276V267.206C36.3525 266.726 36.5025 266.986 36.6425 267.276Z" fill="#016C55"/>
<path d="M77.4325 299.156C76.7725 297.156 77.3525 302.576 76.5225 299.526C76.7525 299.796 76.8625 296.606 77.4325 299.156Z" fill="#016C55"/>
<path d="M24.7232 356.936L24.2832 356.196C24.4437 356.434 24.5906 356.682 24.7232 356.936V356.936Z" fill="#016C55"/>
<path d="M76.5429 299.526L76.4629 299.206C76.4929 299.336 76.5129 299.416 76.5429 299.526Z" fill="#016C55"/>
<path d="M29.2328 268.366C29.2513 268.556 29.2513 268.747 29.2328 268.936C29.2328 268.936 29.1528 268.766 29.2328 268.366Z" fill="#016C55"/>
<path d="M41.1924 278.276L41.5624 279.046C41.4262 278.796 41.3027 278.539 41.1924 278.276V278.276Z" fill="#016C55"/>
<path d="M46.002 263.006C46.4061 263.201 46.7773 263.457 47.102 263.766L46.912 263.686C46.6629 263.395 46.352 263.163 46.002 263.006V263.006Z" fill="#016C55"/>
<path d="M57.9323 277.416L57.6823 277.166L57.4023 276.646L57.9323 277.416Z" fill="#016C55"/>
<path d="M84.2324 370.556C84.4775 370.747 84.7507 370.899 85.0424 371.006C84.6224 370.966 86.1224 373.206 84.2324 370.556Z" fill="#016C55"/>
<path d="M24.8427 357.496C24.8722 357.301 24.8295 357.102 24.7227 356.936L25.0126 357.456C24.9826 357.536 24.9427 357.576 24.8427 357.496Z" fill="#016C55"/>
<path d="M44.5527 266.276C45.2592 266.78 45.9277 267.335 46.5527 267.936C45.9727 267.436 45.2627 266.806 44.5527 266.276Z" fill="#016C55"/>
<path d="M5.86258 316.166L5.64258 315.586C5.74838 315.766 5.82279 315.962 5.86258 316.166V316.166Z" fill="#016C55"/>
<path d="M51.7725 274.296C52.2013 274.62 52.5876 274.996 52.9225 275.416C52.9685 275.521 52.9988 275.632 53.0125 275.746L51.7725 274.296Z" fill="#016C55"/>
<path d="M95.6828 385.656C97.2628 387.906 96.3328 386.266 98.2228 387.926C98.8028 389.306 100.153 389.856 99.7728 390.596C100.773 390.926 100.443 390.876 101.863 391.916C101.023 391.636 103.793 394.576 103.343 394.836C104.243 394.956 101.863 392.236 103.843 393.466C104.603 394.856 106.493 397.016 106.243 397.596C107.237 398.269 108.186 399.007 109.083 399.806C108.873 399.613 108.707 399.378 108.593 399.116C110.593 401.706 114.593 404.596 115.533 406.326C115.533 405.326 121.113 410.566 119.633 408.326C120.658 409.208 121.627 410.153 122.533 411.156C122.823 410.476 125.423 412.976 126.943 413.376C127.403 414.086 129.573 415.286 130.773 416.206C130.213 415.836 129.983 415.516 130.273 415.486C131.613 416.536 131.393 416.086 132.803 416.486C134.733 417.726 132.193 416.766 133.263 417.696C135.093 418.466 133.733 417.436 134.173 417.346C134.933 418.026 135.723 418.646 136.533 419.246C136.952 419.412 137.407 419.463 137.853 419.396C138.693 420.158 139.734 420.661 140.853 420.846C140.053 420.576 139.283 420.206 138.513 419.846L139.513 419.906C140.363 420.456 141.273 420.906 142.153 421.386C146.393 422.386 145.323 421.176 145.273 420.386L143.703 419.686C143.843 419.466 144.983 419.686 145.703 419.966C146.413 420.046 143.393 418.286 141.703 417.576C137.113 415.686 140.423 417.976 137.203 416.766C135.893 416.086 134.683 415.196 133.423 414.416L133.263 414.606C132.828 414.497 132.448 414.234 132.193 413.866C132.243 414.386 129.023 412.136 127.443 411.266L128.163 411.326C124.373 408.016 121.163 407.546 118.253 404.746L116.453 402.516H115.703C114.613 401.266 114.703 400.756 112.583 399.086C105.003 393.296 99.1028 384.826 92.8028 377.606C92.9628 377.606 93.1528 377.856 93.5728 378.266C87.4428 372.316 86.6728 366.986 81.5728 361.266L81.7228 361.796C79.5828 358.566 81.8828 362.336 80.0528 360.176C80.2228 359.406 77.6028 355.876 76.4928 353.906C76.7446 354.445 77.0319 354.966 77.3528 355.466C77.0028 355.196 76.6228 355.266 76.0728 354.286C75.3328 351.766 72.1928 347.436 70.0728 344.086C69.4928 343.916 67.1928 341.366 65.6528 340.306C65.5428 339.916 65.3328 339.156 65.1428 338.436C64.2829 337.614 63.602 336.624 63.1428 335.526L65.0728 338.106V338.016C65.1228 338.126 65.2628 338.316 65.3628 338.476C65.8728 339.176 66.1128 339.556 65.9728 339.406C67.2028 340.466 66.1428 339.146 66.5628 338.966C65.7828 337.966 64.2628 335.706 63.8228 335.666C63.3428 335.056 63.0028 334.666 62.4428 334.076C62.1736 333.61 61.8551 333.174 61.4928 332.776L61.6228 333.016C61.51 332.968 61.4027 332.908 61.3028 332.836C59.59 330.675 58.0518 328.381 56.7028 325.976C57.6028 327.976 55.8828 325.976 55.5728 326.246C55.4428 326.026 57.1228 328.006 59.1928 330.486C59.0128 330.326 58.8428 330.236 58.6928 330.286C56.5728 328.426 55.9528 326.356 53.0128 323.526C53.1528 323.756 53.4328 324.206 53.1928 324.166C52.4161 323.451 51.8228 322.559 51.4628 321.566C50.9128 321.566 48.6228 319.516 47.6628 318.326C47.1348 317.232 46.3737 316.266 45.4328 315.496L45.9928 316.496C43.8028 314.646 44.5928 314.566 42.6928 313.136C43.4728 313.686 43.3328 313.966 42.7728 313.526C41.5021 312.294 40.375 310.922 39.4128 309.436V310.026C37.6828 308.136 34.1028 304.816 33.7028 305.276C34.9428 304.956 29.4028 301.646 27.4728 300.496C28.1228 300.926 28.1328 301.166 28.1428 301.286C24.2358 298.14 19.4412 296.297 14.4328 296.016L13.6128 296.676C11.0328 296.776 9.95276 295.546 6.95276 296.746C7.35276 296.696 7.74278 296.636 8.13278 296.616C6.00098 297.293 4.09763 298.546 2.63279 300.236C1.33989 301.759 0.467694 303.593 0.102786 305.556H0.562778C0.0863931 307.201 -0.0897726 308.919 0.0427582 310.626C0.792758 312.286 1.57277 315.516 3.27277 318.726C4.81319 321.845 6.95019 324.63 9.56278 326.926L9.16278 327.736C10.6028 329.466 12.4528 331.686 13.6328 332.006L13.2728 331.656C13.5828 331.056 14.8328 333.256 15.9428 334.126C16.6428 334.906 17.1428 335.926 16.3828 335.396C20.9228 339.266 27.8228 344.836 31.4828 346.026C36.4828 349.166 40.5628 351.886 47.4828 352.606L47.4128 352.496C49.7328 352.766 54.4128 351.956 54.1728 351.196C58.7728 350.316 62.3628 349.666 66.4528 345.406C66.1028 345.646 65.7128 345.846 65.3428 346.066C66.3428 345.016 68.1428 343.476 68.5528 343.066C68.9628 342.656 68.5528 342.856 68.4028 342.856C69.0198 341.947 69.723 341.1 70.5028 340.326L70.0528 340.566C72.2428 336.646 75.8528 330.446 76.8528 324.696C76.5428 325.696 76.4128 325.106 76.4028 324.696C77.7428 322.546 78.3428 316.136 78.5528 313.756L78.1628 315.206C78.9328 310.576 77.5728 311.206 78.0228 306.596L78.5128 309.226C78.3728 307.346 78.5128 305.756 78.8128 306.226C78.4228 304.056 78.2428 305.976 77.9228 302.706C77.7128 302.586 77.9228 305.076 77.6028 304.016C77.2728 302.526 76.9928 301.016 76.6028 299.586C76.4276 298.878 76.3237 298.155 76.2928 297.426C77.2928 297.666 75.7328 293.726 77.0328 295.816C76.0328 289.426 73.8228 284.396 72.1728 279.136C71.3228 278.256 70.2328 275.766 69.1728 273.656C68.1128 271.546 66.9128 269.846 66.5428 270.396L62.3728 263.886C62.8987 264.357 63.3475 264.907 63.7028 265.516C63.4528 264.636 60.7528 261.846 59.2728 260.956C61.1256 262.507 62.6518 264.411 63.7628 266.556C62.0728 264.246 59.6028 261.276 57.6628 260.396C57.3142 260.483 56.9782 260.614 56.6628 260.786C56.2416 260.633 55.7843 260.61 55.3496 260.718C54.9149 260.827 54.5225 261.063 54.2228 261.396L52.5728 263.166L52.6628 262.646C51.9042 264.011 51.3292 265.471 50.9528 266.986C50.5128 268.329 50.2571 269.725 50.1928 271.136L50.4528 270.966C50.4528 272.366 49.9528 274.516 50.6128 275.856C50.6128 274.966 50.5028 274.066 50.5228 273.176C50.9428 273.446 51.2128 275.456 51.5228 276.336C51.7128 279.116 50.9328 277.396 51.0628 278.816C51.5528 279.346 51.2928 278.916 51.5528 277.896C51.7728 281.026 52.7628 285.136 53.1628 287.426C53.2728 287.536 53.2928 287.346 53.2928 287.346L54.9828 291.656C55.3816 292.522 55.8255 293.367 56.3128 294.186C56.7828 295.066 57.3128 295.186 57.7728 295.596L57.2428 295.026C57.5638 295.224 57.8651 295.451 58.1428 295.706C58.4728 295.866 59.0428 295.516 59.4428 295.406C60.3369 295.049 61.0985 294.424 61.6228 293.616C62.7228 292.056 62.6728 289.816 62.1728 289.756C62.0528 289.126 62.1128 289.756 62.0228 290.576C61.9328 291.396 61.7528 291.916 61.6628 290.676C61.5669 289.557 61.5837 288.432 61.7128 287.316C61.859 286.316 61.6389 285.297 61.0928 284.446C61.2928 284.876 61.1828 284.756 61.1528 284.936C60.1457 282.29 58.9837 279.706 57.6728 277.196C55.3928 274.696 52.1228 268.486 48.6728 266.436C49.7828 267.076 48.2928 265.436 48.3728 265.356C48.4528 265.276 48.4328 265.536 48.2728 265.476C47.7171 264.981 47.2622 264.384 46.9328 263.716C45.9328 263.136 43.4828 261.216 42.5028 261.296C42.5528 261.086 41.2328 260.776 39.7628 260.856C42.6628 261.196 40.6728 261.366 41.8628 261.856C40.4118 261.622 38.9376 261.564 37.4728 261.686C35.9034 261.824 34.4283 262.494 33.2928 263.586C32.7742 264.206 32.3187 264.876 31.9328 265.586C31.5428 265.586 30.7528 266.386 30.2228 267.296C29.9194 267.899 29.5856 268.487 29.2228 269.056C29.1228 269.826 29.0128 270.926 29.3528 270.826C28.7728 272.466 29.2228 274.936 28.9628 275.646C28.8388 275.102 28.7453 274.551 28.6828 273.996C29.1728 279.116 30.0328 282.296 32.5328 285.336L33.2528 284.726C34.1528 285.626 34.7128 286.596 35.5128 287.486C35.8915 287.999 36.396 288.405 36.9775 288.666C37.5591 288.927 38.198 289.034 38.8328 288.976C38.3628 289.126 38.0428 289.086 38.1128 289.166C38.639 289.415 39.2292 289.495 39.8028 289.396C38.9378 289.622 38.0193 289.511 37.2328 289.086C36.4289 288.656 35.7023 288.095 35.0828 287.426C35.8661 288.626 37.0671 289.492 38.4528 289.856C35.7628 289.306 34.6328 287.506 33.5828 286.136C34.7628 288.136 34.9028 288.026 33.8528 287.496C34.6597 288.662 35.8478 289.511 37.2128 289.896C38.0508 290.147 38.9391 290.18 39.7932 289.991C40.6473 289.802 41.4389 289.397 42.0928 288.816C43.0928 287.306 41.8828 288.526 42.4928 286.896C43.7728 283.496 41.4928 281.286 41.4028 279.426C41.1028 278.876 41.7428 280.476 41.4828 280.426C41.0128 278.766 40.4828 277.656 40.5628 277.076L41.2028 278.416C40.7028 277.216 40.9828 276.856 39.7628 274.676C39.3328 273.296 39.3828 272.346 40.0728 273.766C39.8628 273.156 39.0028 272.016 38.9728 272.586C37.1328 269.166 38.9728 270.436 36.6528 267.416C36.7728 267.656 36.8728 267.906 36.7528 267.816C36.2821 267.175 35.848 266.507 35.4528 265.816C37.2128 268.656 34.2928 265.346 36.5328 268.566C35.8928 268.456 34.8628 266.106 33.9828 265.206C33.1328 263.476 34.4428 264.616 34.0628 263.696C33.9428 263.806 33.4928 263.146 32.8528 262.456L33.7128 262.956C33.2328 262.306 32.7128 261.706 32.2028 260.886L33.0828 262.246C31.9628 260.896 29.8228 259.246 27.9628 256.856C28.4228 257.536 29.3028 258.856 27.7628 257.586C25.6028 255.066 27.1128 257.136 25.5728 256.056C23.2128 253.806 25.6628 255.116 21.7828 252.196C21.3728 251.866 21.8828 251.996 22.3628 252.256C21.7295 251.747 21.0612 251.282 20.3628 250.866C19.5061 250.366 18.5023 250.178 17.5228 250.336C16.5624 250.559 15.7142 251.12 15.1328 251.916C14.65 252.566 14.2533 253.275 13.9528 254.026C14.5328 252.726 15.1328 251.576 13.8928 253.286C14.5528 252.696 12.7928 255.826 12.6028 257.126L12.3028 257.366C12.1728 258.366 12.5828 257.366 12.9728 256.666C12.9128 256.666 12.9728 256.356 13.2128 255.806C14.0828 254.416 14.3628 255.246 13.5028 257.556C12.4428 259.986 12.1728 259.486 12.0928 258.966C11.3428 262.506 10.3528 262.096 10.1828 265.636C10.0728 266.446 10.6328 269.126 10.7828 271.636C10.3628 272.936 10.4328 268.526 10.0828 269.966C11.1528 274.086 9.78277 278.576 11.6128 283.886L11.9728 283.106C12.3028 284.326 12.6128 285.526 12.9728 286.906L12.1828 285.176C12.3528 286.456 13.4528 289.286 13.5128 288.176C14.1328 291.006 14.6328 291.516 16.0528 293.786C14.6328 291.316 15.9428 293.786 15.2228 291.786L17.9628 296.286C17.9028 295.906 18.7728 296.596 19.3028 297.176C20.3028 298.876 22.8628 301.016 25.1928 302.426L25.2628 302.276C27.3108 303.442 29.6082 304.1 31.9628 304.196C33.1488 304.259 34.3382 304.202 35.5128 304.026C36.1761 303.947 36.7999 303.669 37.3016 303.228C37.8033 302.787 38.1594 302.204 38.3228 301.556V301.556C38.3228 301.456 38.3228 301.376 38.3228 301.296C38.3375 301.436 38.3375 301.577 38.3228 301.716C38.2328 302.716 38.9128 301.646 38.7628 300.136C38.5652 298.768 38.0059 297.477 37.1428 296.396C36.6991 296.241 36.2887 296.003 35.9328 295.696C36.2328 295.246 34.5228 294.366 33.9328 293.906C32.2728 293.486 33.9328 294.356 31.2328 293.636C30.1828 293.406 30.0628 293.206 30.2328 293.026C29.5928 293.176 27.7928 293.326 26.3828 293.716C26.8928 293.716 27.6528 293.456 27.9928 293.476C28.1928 293.696 27.2128 293.706 27.2928 294.026C26.0628 294.266 26.6928 293.656 25.1928 294.226C25.6923 294.196 26.1932 294.196 26.6928 294.226C26.137 294.379 25.5727 294.5 25.0028 294.586C25.9328 294.376 25.8928 294.796 25.8328 295.036C22.4928 296.036 24.8328 294.346 24.5428 294.036C21.714 295.284 19.2297 297.199 17.3028 299.616L17.9628 299.456C17.4686 300.12 16.9164 300.74 16.3128 301.306C15.9628 301.896 15.6428 302.496 15.3128 303.116C15.9728 302.116 16.3128 301.866 16.6428 301.956C15.4528 303.756 14.5528 306.526 13.8428 306.876L13.9628 306.826C13.1428 309.586 12.2828 315.406 12.5528 315.246C11.9028 318.246 12.2328 322.056 11.6628 322.136C11.5228 323.966 12.5528 326.756 12.0028 328.136C12.6028 330.226 12.1728 328.226 12.5328 327.546C13.0828 329.546 12.5328 331.876 13.4428 332.426C13.6328 334.906 13.1728 331.896 12.9628 332.776C13.7728 333.156 13.9628 337.276 15.1328 339.366C15.1328 340.456 14.6528 338.366 14.8428 340.226C14.9628 339.996 15.3028 340.896 15.4728 341.346L15.1528 341.936C15.7728 342.566 16.4328 343.156 17.0728 343.746C17.8328 347.186 15.9928 343.396 17.5928 347.746L17.5128 347.476C18.5128 348.426 18.5128 350.696 20.4528 353.476C19.8228 352.476 20.4528 352.946 20.3828 352.556L21.1028 354.296C21.0428 354.136 21.0328 354.056 21.1728 354.186C22.2828 355.446 21.6928 355.526 22.9428 357.016C22.3528 355.836 22.8828 356.016 23.3128 356.406L24.3128 359.006V357.726C25.7228 359.946 27.1128 363.796 28.6528 364.366L27.9728 363.236C28.1528 363.236 28.9728 363.586 29.7728 365.236C30.0428 365.736 29.9528 366.236 29.5228 365.636L30.4428 366.636C30.3828 365.886 28.5328 363.156 27.4428 361.376C27.6528 362.016 28.4428 363.376 27.9728 363.156C26.9728 361.576 26.2828 359.946 25.4528 358.376C25.6196 358.894 25.7171 359.432 25.7428 359.976C24.4728 358.416 25.1728 358.566 24.4228 357.256C23.9728 356.866 23.6728 356.586 23.7528 356.976C22.9973 355.342 22.1076 353.773 21.0928 352.286C21.0928 352.286 21.8928 354.426 21.0928 353.456C19.6028 350.056 19.7328 349.166 18.4628 345.456C17.3928 341.026 15.1428 337.256 14.9928 334.016C15.1428 333.806 15.8228 336.236 15.5128 334.216C15.2128 334.646 15.0028 333.076 14.8428 333.006C14.9928 330.736 14.1728 329.806 14.3728 328.196C14.2828 328.576 14.0028 327.306 13.7828 326.466C13.3428 326.766 13.4228 324.006 12.9928 327.336C13.4028 323.936 12.5328 321.336 13.7828 318.906L13.8628 319.756C13.8628 318.646 13.8628 317.536 13.9228 316.416V316.566C14.0854 315.353 14.1189 314.126 14.0228 312.906C13.7528 313.716 13.5428 314.906 13.3328 315.746C13.1528 313.886 14.2528 312.086 14.7828 310.196C14.4028 310.196 14.1828 312.196 13.9028 311.516C14.209 310.228 14.648 308.974 15.2128 307.776L14.9728 307.896C15.7328 304.406 16.2828 306.896 16.6628 304.326C16.7328 304.446 16.9828 304.206 17.0128 304.396C17.2028 303.466 18.0128 301.346 16.7328 303.176C17.2151 302.194 17.8962 301.322 18.7328 300.616C18.3828 301.616 18.1328 301.756 18.2528 302.266C19.0893 300.954 20.0984 299.76 21.2528 298.716C21.6328 298.366 20.8328 298.826 20.3928 299.326C21.1552 298.149 22.1886 297.171 23.4065 296.475C24.6244 295.779 25.9913 295.385 27.3928 295.326C30.2859 295.119 33.1635 295.902 35.5528 297.546C34.8528 297.286 35.7028 298.026 35.7928 298.626C36.1072 299.001 36.3442 299.434 36.4901 299.901C36.636 300.368 36.6879 300.859 36.6428 301.346C36.5864 301.738 36.4001 302.1 36.1137 302.374C35.8272 302.648 35.4572 302.818 35.0628 302.856C35.2466 302.904 35.4338 302.937 35.6228 302.956C33.5708 303.196 31.491 302.964 29.5428 302.276C27.9667 301.733 26.4464 301.04 25.0028 300.206C24.9228 300.046 24.8528 300.486 25.3328 300.826C23.4928 299.396 20.5628 298.316 20.7028 297.206C20.9228 297.406 21.1328 297.606 21.3628 297.786C17.7728 294.596 15.9428 289.406 14.8228 284.706C14.0128 283.706 15.5628 287.436 14.7228 286.646C13.4828 283.406 13.2628 279.846 12.7228 276.126C12.7213 276.388 12.6979 276.649 12.6528 276.906C11.9628 273.196 13.1728 277.266 12.8228 274.136C12.5928 274.326 12.5228 274.136 12.3228 273.136L12.6928 272.186C12.6228 272.036 12.3128 272.066 12.2028 272.546C12.6128 271.126 12.3828 266.936 13.0628 265.896C12.9628 265.606 12.4228 266.336 12.2828 265.896C12.307 264.564 12.6031 263.25 13.1528 262.036V262.036C13.0028 260.796 14.0028 258.036 13.7528 258.626C14.6928 255.756 14.1428 258.246 15.3328 256.306C15.0528 257.046 14.8428 257.806 14.6328 258.556C15.1301 257.278 15.7391 256.047 16.4528 254.876C16.1228 255.306 15.7728 255.746 15.4528 256.206C15.7831 255.313 16.2671 254.483 16.8828 253.756C17.0634 253.489 17.3249 253.286 17.6291 253.178C17.9332 253.07 18.264 253.063 18.5728 253.156C18.3857 253.19 18.2123 253.277 18.0728 253.406C18.4728 253.406 18.6328 253.566 19.2728 254.066C19.7528 253.646 21.8828 255.996 21.2028 254.556C25.1128 257.406 26.7328 260.216 29.4528 263.556C28.9828 262.966 29.2528 263.126 29.2328 262.946C30.5243 264.325 31.5424 265.937 32.2328 267.696C32.2328 267.336 31.9228 266.796 32.0428 266.696C33.7328 269.186 32.8228 268.386 34.3728 271.286C34.1328 270.376 34.3728 270.556 34.8828 271.286C34.6328 271.286 34.8828 272.006 35.1228 272.556C34.9528 269.796 37.2928 275.556 37.3728 273.806C37.2728 274.066 38.9328 278.996 37.8728 277.806L37.5928 276.946C37.2428 276.946 37.8928 278.036 38.1928 278.946C38.0796 278.624 38.0123 278.287 37.9928 277.946C38.6228 280.156 39.7428 282.526 39.8528 284.466C39.9328 285.466 39.6628 286.356 39.3628 286.466C39.0628 286.576 38.6128 286.686 37.7828 286.026C37.9928 286.426 39.0728 286.966 38.3028 286.816C36.5928 286.106 35.3028 283.976 34.4428 282.336C33.4784 280.457 32.8361 278.428 32.5428 276.336C32.1528 276.336 32.3628 277.586 32.8528 278.886C33.3428 280.186 34.0228 281.456 33.7728 281.716C31.1928 277.116 30.7228 270.796 34.7728 267.236C34.9828 266.236 36.1428 265.356 37.5028 264.926C38.9184 264.538 40.387 264.38 41.8528 264.456C41.4928 264.756 42.8528 265.166 44.3128 266.266C43.9828 265.636 45.5528 266.816 45.2528 266.266C46.3828 267.456 49.6628 271.526 50.0528 270.936C49.8428 271.716 52.5028 273.936 52.9028 275.516C54.3928 277.256 55.3928 279.706 56.8228 282.166C56.0028 281.456 57.8228 284.806 58.0328 285.866C57.9528 285.576 57.7828 285.006 57.8928 285.116C58.6428 285.866 58.7328 288.026 58.9628 289.316C59.1428 289.896 59.3828 289.156 59.4128 290.116C59.0826 290.328 58.7831 290.583 58.5228 290.876C58.58 291.051 58.6572 291.219 58.7528 291.376C58.5928 291.426 58.4928 291.316 58.4428 291.126L58.2728 290.726L58.1228 290.376L57.5028 289.116C56.6687 287.38 55.9537 285.589 55.3628 283.756C54.1509 280.085 53.6751 276.211 53.9628 272.356L53.4528 273.716C52.8528 268.916 54.3128 270.576 54.6828 266.956C54.8028 266.003 55.1159 265.084 55.6028 264.256C56.0928 263.706 55.9628 263.706 56.4928 263.766C57.4839 264.24 58.4002 264.857 59.2128 265.596C60.1774 266.423 61.0736 267.326 61.8928 268.296C65.1677 272.396 67.6808 277.049 69.3128 282.036C69.4328 282.806 68.9828 281.696 68.7328 281.656C69.1028 282.476 69.6028 282.566 69.7328 283.796L69.3728 283.636C70.6602 286.36 71.5686 289.246 72.0728 292.216C72.7128 295.406 73.1728 298.446 73.9628 300.116C74.0128 304.646 74.9628 307.836 74.0828 313.316C74.2328 315.066 74.6928 311.316 74.6228 313.676C74.3928 315.376 74.0728 317.056 73.7428 318.676L73.8228 318.406C73.0828 320.796 72.8228 323.966 72.1728 327.276C71.6504 330.565 70.4628 333.712 68.6828 336.526L68.8528 336.326C69.0928 336.326 68.6528 337.496 68.0928 338.326C67.8028 338.556 68.0928 337.936 68.2428 337.326C67.1645 338.928 65.9464 340.43 64.6028 341.816C63.4976 342.982 62.2781 344.034 60.9628 344.956C62.5628 344.146 59.8028 346.146 59.7928 346.506C58.7128 346.806 60.1428 345.916 57.9128 346.786C55.1096 348.175 52.0397 348.943 48.9128 349.036C47.7628 348.636 46.2528 348.526 46.2428 348.036C42.4428 347.306 40.3828 346.426 36.0128 344.276L35.8328 344.346C34.9128 343.286 31.9628 342.496 31.3528 341.686C31.3528 341.926 31.7628 342.286 31.5728 342.346L29.7728 340.946C30.5728 341.686 30.7728 342.476 29.1928 341.456C27.7928 340.026 29.7928 341.546 29.1928 340.746L28.4128 340.826C27.2328 339.916 27.2428 339.206 28.8028 340.126C24.9135 337.287 21.2523 334.147 17.8528 330.736L17.9528 331.306C16.2528 329.486 13.9528 327.016 12.8328 326.076C12.8328 325.966 12.6028 325.386 12.9428 325.616C11.4028 323.066 12.2928 325.736 10.6628 322.916C11.0428 323.626 11.6628 324.446 11.5728 324.676C10.4028 323.036 9.27278 321.316 8.25278 319.676C8.02278 319.806 5.49278 317.076 4.78278 314.676C4.88278 314.526 5.30278 315.106 5.62278 315.676C5.41278 315.196 5.26278 314.676 5.09278 314.206C4.75278 313.916 4.45278 313.616 4.09278 313.296C3.99726 312.547 3.96046 311.791 3.98276 311.036L3.49277 311.096C3.30277 309.466 3.88277 308.806 3.90277 307.646C3.92164 306.381 4.17245 305.131 4.64276 303.956C4.9375 302.989 5.4665 302.11 6.18277 301.396C6.62277 301.626 7.63277 300.846 8.93277 300.296C10.2328 299.746 11.7028 299.426 12.1628 299.726C14.9001 299.181 17.7401 299.532 20.2628 300.726C23.2875 302.082 26.1799 303.716 28.9028 305.606L28.5028 305.236C31.1128 306.446 30.7728 307.606 33.3028 309.236L32.7728 308.676C36.2728 310.536 41.1828 315.466 43.5328 318.366C43.0928 317.726 43.5328 317.786 44.4028 318.646C45.0028 319.486 43.2428 318.426 44.8628 319.776C44.5628 319.346 45.0028 319.486 45.3428 319.826L46.4628 321.616C50.7847 325.517 54.7074 329.838 58.1728 334.516C58.9528 335.226 58.6128 334.516 58.5828 334.236C61.3128 337.786 63.6428 341.616 65.9728 344.926H66.6528C67.8128 346.536 66.7028 346.406 68.6528 348.226C69.0428 348.656 67.6528 346.816 67.4628 346.096C70.1128 349.096 68.4128 348.316 70.6628 351.396L70.5828 350.226C71.7154 351.271 72.4268 352.693 72.5828 354.226C74.3528 358.006 75.2128 355.946 77.9828 360.846C78.2428 361.746 77.4528 360.846 77.7128 361.756C80.1128 364.896 80.0028 365.536 82.4428 368.676C84.4428 369.866 81.2628 367.036 83.2928 368.416L81.3828 366.076C83.2628 367.926 80.1328 364.076 80.8028 364.076C82.219 366.12 83.5275 368.236 84.7228 370.416C85.0428 370.176 83.0428 367.986 84.1728 368.616L84.7928 369.776C84.7434 369.368 84.5767 368.982 84.3128 368.666C84.9028 368.816 85.2228 369.896 85.9428 370.906C85.8228 371.096 85.5428 371.216 85.0628 371.056C85.1782 371.097 85.2838 371.162 85.3728 371.246C86.3728 373.646 89.3728 376.836 90.3128 378.846C90.1928 378.486 90.4028 378.706 90.5528 378.736C91.4928 379.966 92.0828 381.516 93.2528 383.246C94.2028 383.936 93.5228 382.246 95.5028 384.856C95.6228 385.526 94.2228 384.766 96.0228 386.856C96.0128 386.886 94.6628 384.806 95.6828 385.656ZM59.5528 335.106L58.7428 334.046L59.5528 335.106ZM56.7428 331.026C57.0928 331.436 57.1028 331.686 56.8628 331.646L55.3528 329.886C55.9628 330.396 56.8528 331.316 56.7428 331.026ZM64.9328 337.336V337.226L64.0628 335.996C64.2028 335.996 64.4528 336.206 64.9228 336.936C64.9591 337.067 64.9625 337.204 64.9328 337.336V337.336Z" fill="#016C55"/>
<path d="M65.3725 338.516L65.5625 338.816L65.1725 338.476L65.1025 338.146L65.3725 338.516Z" fill="#016C55"/>
<path d="M38.3024 301.626V301.766C38.3175 301.667 38.3175 301.566 38.3024 301.466C38.2924 301.546 38.2924 301.566 38.3024 301.626Z" fill="#016C55"/>
<path d="M4.15298 310.926L4.04297 310.946L4.05298 310.516L4.15298 310.926Z" fill="#016C55"/>
<path d="M16.9627 304.206C16.9957 304.334 16.9957 304.468 16.9627 304.596C16.9421 304.467 16.9421 304.335 16.9627 304.206V304.206Z" fill="#016C55"/>
<path d="M13.8732 316.376C13.8732 316.976 13.8732 317.566 13.8732 318.166C13.8366 317.57 13.8366 316.972 13.8732 316.376Z" fill="#016C55"/>
<path d="M13.9222 326.076C13.8871 326.162 13.8235 326.232 13.7422 326.276V326.276L13.9222 326.076Z" fill="#016C55"/>
<path d="M38.1826 278.736C38.1826 278.856 38.2626 278.976 38.2926 279.086C38.5326 279.936 38.3526 279.366 38.1826 278.736Z" fill="#016C55"/>
<path d="M13.1621 261.806L13.7121 260.426C13.5221 261.216 13.4321 261.886 13.1621 261.806Z" fill="#016C55"/>
<path d="M44.332 266.126V266.116L44.552 266.276L44.332 266.126Z" fill="#016C55"/>
<path d="M14.3429 258.406C14.1805 259.087 13.97 259.755 13.7129 260.406C13.8542 259.72 14.0653 259.05 14.3429 258.406V258.406Z" fill="#016C55"/>
<path d="M30.002 364.566L30.2919 364.936C30.2919 364.936 30.2919 364.986 30.2919 365.026L30.002 364.566Z" fill="#016C55"/>
<path d="M30.2725 365.026L30.5424 365.476C30.4187 365.349 30.3262 365.195 30.2725 365.026V365.026Z" fill="#016C55"/>
<path d="M31.123 366.426L30.543 365.476C30.796 365.752 30.993 366.075 31.123 366.426V366.426Z" fill="#016C55"/>
<path d="M22.7627 353.816L22.8327 353.606C22.8396 353.644 22.8369 353.684 22.8246 353.72C22.8124 353.757 22.7911 353.79 22.7627 353.816Z" fill="#016C55"/>
<path d="M20.9629 350.316C21.6563 351.322 22.2972 352.364 22.8829 353.436L22.8329 353.606C22.7429 352.956 21.1129 351.236 20.9629 350.316Z" fill="#016C55"/>
<path d="M13.4327 335.436C13.7527 336.516 14.0427 337.606 14.4327 338.676C14.1027 338.156 13.6627 337.466 14.0527 338.956C12.4327 334.956 14.5627 339.716 13.4327 335.436Z" fill="#016C55"/>
<path d="M11.6623 325.066C11.6623 326.896 11.4123 325.066 11.3223 325.166C11.4323 323.986 11.4323 323.716 11.6623 325.066Z" fill="#016C55"/>
<path d="M17.3225 295.656L17.1025 296.056C16.3225 294.816 17.2225 295.956 17.3225 295.656Z" fill="#016C55"/>
<path d="M13.873 281.686L14.393 282.916L14.183 283.606L13.873 281.686Z" fill="#016C55"/>
<path d="M9.9321 273.626L9.91211 274.246L9.9321 271.866V273.626Z" fill="#016C55"/>
<path d="M56.5325 274.376L55.8825 274.286C55.4325 273.446 55.7925 272.946 56.5325 274.376Z" fill="#016C55"/>
<path d="M52.1328 262.966C52.2833 262.29 52.6224 261.669 53.1109 261.177C53.5993 260.685 54.2171 260.342 54.8928 260.186C53.6707 260.754 52.6918 261.74 52.1328 262.966V262.966Z" fill="#016C55"/>
<path d="M7.33313 325.156L7.89313 326.146L6.70312 324.396L7.33313 325.156Z" fill="#016C55"/>
<path d="M160.433 110.806C151.993 120.726 144.383 134.406 146.733 147.216C148.113 154.766 153.423 161.746 152.283 169.336C151.283 176.046 145.593 180.876 141.463 186.266C135.411 194.243 132.465 204.148 133.173 214.136C134.393 230.476 145.273 245.036 145.813 261.406C146.163 272.236 143.673 271.466 144.453 281.656C146.113 303.486 158.753 318.496 161.603 321.746C173.093 334.836 186.193 339.536 197.953 343.746C206.073 346.656 233.443 355.486 266.213 347.176C275.793 344.756 288.893 341.276 301.563 330.486C308.33 324.602 314.08 317.642 318.583 309.886C323.227 302.047 326.738 293.589 329.013 284.766C339.593 246.356 335.643 209.986 335.643 209.986C332.873 181.116 324.643 152.306 308.163 128.426C298.353 114.186 276.093 85.4962 237.813 81.3362C195.313 76.6562 164.903 106.266 160.433 110.806Z" fill="#F4D5CA"/>
<path d="M138.183 267.406C137.503 269.246 136.623 271.286 135.983 273.406C133.273 282.406 133.073 291.616 133.983 300.876C134.992 311.389 138.54 321.499 144.323 330.336C144.785 330.948 145.29 331.526 145.833 332.066L146.293 331.806C146.171 331.16 146.007 330.522 145.803 329.896C144.493 326.676 143.063 323.496 141.803 320.256C135.273 303.326 134.203 286.156 139.803 268.756C140.161 267.946 140.74 267.253 141.473 266.756C142.553 265.916 142.663 265.126 141.593 264.316C140.523 263.506 139.433 262.886 138.433 262.206C124.753 252.836 117.113 240.016 117.063 223.286C117.131 213.415 119.782 203.734 124.753 195.206C131.323 183.486 142.093 179.426 154.583 178.316C155.463 178.27 156.335 178.505 157.073 178.986C160.583 181.366 164.133 183.706 167.413 186.376C169.285 187.856 170.834 189.704 171.963 191.806C173.725 195.52 175.278 199.329 176.613 203.216C179.813 211.926 184.323 219.646 192.553 224.526C193.703 225.149 194.71 226.005 195.512 227.037C196.315 228.07 196.894 229.258 197.213 230.526C198.447 235.157 199.415 239.855 200.113 244.596C200.508 247.114 200.364 249.688 199.69 252.146C199.016 254.605 197.827 256.892 196.203 258.856C194.203 261.276 191.843 263.436 189.663 265.716C189.093 266.316 188.563 266.956 188.013 267.576C188.183 267.776 188.343 267.986 188.513 268.196C193.513 267.466 197.093 264.196 200.513 260.416C206.626 263.667 211.794 268.446 215.513 274.286C217.929 278.302 219.649 282.697 220.603 287.286C220.722 287.646 220.921 287.975 221.184 288.249C221.447 288.522 221.768 288.733 222.123 288.866C222.533 288.976 223.553 288.226 223.703 287.686C225.877 280.004 230.467 273.227 236.793 268.356C237.655 267.75 238.309 266.893 238.667 265.902C239.025 264.911 239.069 263.833 238.793 262.816C238.519 261.386 238.335 259.94 238.243 258.486C237.823 254.066 238.413 249.876 241.243 246.266C243.243 243.666 245.963 243.266 248.793 244.956C252.013 246.956 253.143 250.406 251.533 254.446C250.533 257.076 248.853 259.446 247.773 262.096C246.973 263.72 246.591 265.518 246.663 267.326C247.482 273.096 247.563 278.946 246.903 284.736C246.183 290.526 245.173 296.276 242.643 301.586C241.643 303.797 240.083 305.707 238.116 307.128C236.15 308.549 233.846 309.431 231.433 309.686C219.963 311.056 209.113 309.166 199.433 302.386C198.567 301.914 197.651 301.539 196.703 301.266L196.373 301.766C196.637 302.525 197.04 303.227 197.563 303.836C200.613 306.266 203.563 309.046 206.923 310.836C214.103 314.606 222.053 314.936 229.923 314.126C237.513 313.356 243.623 309.606 246.613 302.346C250.833 292.433 252.278 281.558 250.793 270.886C250.193 266.636 250.103 262.806 252.573 259.116C253.422 257.848 254.01 256.424 254.303 254.926C254.867 252.673 255.05 250.34 254.843 248.026C254.163 243.776 251.183 241.386 247.083 240.426C243.273 239.526 240.423 241.206 238.523 244.266C237.202 246.481 236.193 248.866 235.523 251.356C234.523 254.926 235.203 258.526 236.123 262.046C236.613 263.936 236.353 265.366 234.443 266.506C229.363 269.506 226.123 274.186 223.563 279.376C223.283 279.946 222.983 280.516 222.503 281.436C219.273 270.156 212.263 262.686 202.273 257.696C207.273 248.696 204.963 239.556 202.543 230.166C208.701 232.965 215.321 234.609 222.073 235.016C227.183 235.456 232.333 235.666 237.363 234.316C243.943 232.546 248.833 228.246 253.003 223.106C256.003 219.386 258.803 215.476 261.773 211.526C261.953 211.916 262.133 212.226 262.253 212.526C264.388 218.509 268.697 223.468 274.323 226.416C279.555 229.369 284.951 232.023 290.483 234.366C299.933 238.176 309.413 241.886 318.483 246.666C323.422 249.277 327.568 253.17 330.483 257.936C337.193 268.606 338.183 280.296 335.973 292.196C333.6 305.579 328.942 318.453 322.203 330.256C324.273 329.946 326.333 329.696 328.393 329.476C332.219 322.778 335.435 315.75 338.003 308.476C342.413 296.036 344.883 283.356 342.283 270.266C339.913 258.356 334.283 248.156 323.283 242.016C316.846 238.514 310.219 235.372 303.433 232.606C294.803 228.986 285.933 225.996 277.753 221.276C270.453 217.066 266.753 210.776 265.983 202.676C265.295 193.582 265.782 184.436 267.433 175.466C267.643 174.216 268.763 172.416 266.903 171.806C265.043 171.196 264.743 173.236 264.323 174.416C260.808 184.417 259.518 195.065 260.543 205.616C260.646 206.223 260.604 206.846 260.42 207.434C260.236 208.021 259.915 208.557 259.483 208.996C256.873 211.846 254.483 214.906 251.883 217.746C249.283 220.586 246.443 223.566 243.493 226.226C241.041 228.467 237.964 229.908 234.673 230.356C227.294 231.356 219.786 230.731 212.673 228.526C205.863 226.526 200.013 222.526 194.103 218.686C189.55 215.619 185.989 211.293 183.853 206.236C182.333 202.906 180.913 199.506 179.643 196.066C177.003 188.916 172.923 183.066 165.753 179.776C164.993 179.452 164.285 179.018 163.653 178.486C160.513 175.666 157.003 173.136 154.423 169.866C151.22 165.593 148.917 160.715 147.653 155.526C145.523 147.716 145.543 139.746 145.793 131.756C145.793 131.036 145.793 130.326 145.793 129.606H145.133C142.933 136.966 142.853 144.476 143.843 152.086C144.958 159.651 147.686 166.888 151.843 173.306C149.373 173.716 147.033 173.926 144.843 174.506C136.333 176.716 128.453 180.136 123.253 187.646C112.973 202.476 108.903 218.806 113.253 236.506C116.733 250.426 124.663 261.226 138.183 267.406Z" fill="#534741"/>
<path d="M146.063 172.796C145.431 172.257 144.836 171.676 144.283 171.056C140.283 165.896 138.143 159.766 136.753 153.566C132.093 132.726 135.363 113.406 150.653 97.7364C157.123 91.0964 164.983 85.6164 172.813 80.5464C184.323 73.1064 196.883 67.8764 210.663 66.1564C228.327 63.8426 246.289 65.8536 263.003 72.0164C282.753 79.3064 299.953 90.4164 314.003 106.256C324.263 117.736 333.433 129.886 339.603 144.006C345.146 156.387 349.12 169.411 351.433 182.776C353.763 196.866 355.843 211.026 357.433 225.226C358.245 233.414 358.432 241.651 357.993 249.866C357.643 257.476 356.353 265.056 355.233 272.616C354.863 275.156 353.723 277.616 352.943 280.066L352.213 279.916C352.303 278.216 352.343 276.516 352.483 274.826C353.163 266.506 354.143 258.186 354.483 249.826C354.663 245.256 353.853 240.636 353.273 236.066C351.747 223.826 350.153 211.596 348.493 199.376C345.493 177.076 340.233 155.376 328.673 135.796C313.413 109.986 292.673 89.9964 264.343 78.7964C253.978 74.6634 243.042 72.1377 231.913 71.3064C220.193 70.4464 208.583 71.1264 197.393 74.8764C188.028 77.8767 179.173 82.2837 171.133 87.9464C167.393 90.6664 163.653 93.3864 159.943 96.1464C147.133 105.696 140.673 118.636 138.943 134.376C137.603 146.806 140.863 158.206 145.613 169.376C146.023 170.376 146.373 171.306 146.753 172.276L146.063 172.796Z" fill="#534741"/>
<path d="M275.433 329.276C269.373 331.406 263.523 333.856 257.433 335.536C241.993 339.806 226.653 338.426 211.623 333.536C193.423 327.536 178.903 316.426 167.363 301.246C163.563 296.246 159.593 291.406 155.743 286.466C154.083 284.336 152.543 282.116 150.873 279.826C149.212 281.106 148.097 282.967 147.753 285.036C146.063 292.146 145.833 299.196 148.803 306.036C149.087 306.843 149.314 307.668 149.483 308.506L148.973 308.786C148.444 308.163 147.972 307.494 147.563 306.786C145.531 302.764 144.557 298.29 144.733 293.786C144.992 290.069 145.466 286.369 146.153 282.706C146.524 281.3 147.17 279.981 148.053 278.826C149.943 276.006 152.133 275.886 154.353 278.476C160.66 285.81 166.943 293.183 173.203 300.596C187.423 317.386 205.363 327.486 227.203 330.726C238.743 332.446 250.033 331.276 261.203 328.256C265.293 327.156 269.443 326.256 273.563 325.256C274.633 325.006 275.353 324.596 275.463 323.306C276.133 315.656 278.533 308.486 281.573 301.486C285.853 291.596 290.983 282.266 298.773 274.636C300.123 273.306 301.233 271.636 303.773 271.116C303.494 271.841 303.159 272.543 302.773 273.216C301.213 275.526 299.653 277.836 298.013 280.086C288.472 293.249 282.016 308.389 279.123 324.386C278.802 326.075 278.385 327.745 277.873 329.386C277.575 329.981 277.179 330.521 276.703 330.986L275.433 329.356C275.343 329.216 275.283 329.046 275.433 329.276Z" fill="#534741"/>
<path d="M150.343 126.886C150.653 127.408 150.93 127.949 151.173 128.506C157.383 144.836 168.493 156.886 183.123 166.166C194.559 173.511 208.113 176.846 221.653 175.646C227.065 175.177 232.447 174.403 237.773 173.326C243.551 172.105 249.051 169.82 253.993 166.586C257.463 164.426 261.193 162.656 264.873 160.836C265.573 160.496 266.583 160.836 267.453 160.836C267.163 161.676 267.113 162.746 266.553 163.316C260.52 169.523 253.054 174.152 244.813 176.796C229.543 181.676 214.093 182.256 198.663 177.606C194.615 176.347 190.719 174.647 187.043 172.536C176.356 166.631 167.007 158.579 159.583 148.886C155.261 143.209 152.061 136.761 150.153 129.886C149.949 128.943 149.805 127.988 149.723 127.026L150.343 126.886Z" fill="#534741"/>
<path d="M181.282 243.286C180.404 243.488 179.503 243.568 178.602 243.526C173.142 242.526 165.982 237.526 166.682 229.526C166.956 226.345 168.214 223.329 170.282 220.896C170.731 220.269 171.366 219.8 172.096 219.554C172.827 219.308 173.616 219.298 174.352 219.526C175.219 219.738 176.015 220.174 176.661 220.79C177.307 221.406 177.78 222.18 178.032 223.036C178.122 223.336 177.942 223.716 177.842 224.346C176.982 223.536 176.362 222.856 175.642 222.296C174.012 221.026 172.642 221.216 171.382 222.806C166.692 228.806 168.072 235.686 174.772 239.306C176.322 240.136 178.022 240.696 179.632 241.436C180.256 241.772 180.861 242.142 181.442 242.546L181.282 243.286Z" fill="#534741"/>
<path d="M207.242 209.346C209.791 208.938 212.315 208.388 214.802 207.696C218.212 206.556 220.632 204.006 222.802 201.226C223.704 200.103 224.709 199.065 225.802 198.126C226.142 197.826 226.802 197.926 227.362 197.846C227.362 198.426 227.682 199.176 227.422 199.566C226.267 201.3 225.019 202.969 223.682 204.566C220.944 207.952 217.11 210.276 212.842 211.136C210.062 211.716 208.242 211.056 207.242 209.346Z" fill="#534741"/>
</svg>
