<svg width="272" height="96" viewBox="0 0 272 96" fill="none" xmlns="http://www.w3.org/2000/svg">
<path d="M19.5412 21.7098C19.5902 21.5626 19.6393 21.5136 19.6883 21.5626C19.7374 21.5626 19.811 21.5136 19.909 21.4155V22.3719C19.86 22.2738 19.7864 22.2493 19.6883 22.2983C19.6393 22.2983 19.6393 22.2248 19.6883 22.0776C19.5412 22.1267 19.4431 22.2493 19.394 22.4455C19.394 22.5926 19.3205 22.5926 19.1733 22.4455C19.1733 22.5926 19.1733 22.6662 19.1733 22.6662C19.0752 22.6662 19.0262 22.6417 19.0262 22.5926C19.0752 22.5436 19.0752 22.5191 19.0262 22.5191C18.879 22.7643 18.6583 22.985 18.364 23.1812C18.0697 23.3774 17.8245 23.5491 17.6283 23.6962C17.3831 23.6472 17.334 23.6226 17.4812 23.6226C17.6774 23.5736 17.7509 23.5 17.7019 23.4019C17.6038 23.4019 17.5057 23.4264 17.4076 23.4755C17.3095 23.4755 17.2605 23.5245 17.2605 23.6226C16.9662 23.5245 16.77 23.3529 16.6719 23.1076C16.6228 22.8624 16.4021 22.6172 16.0097 22.3719C15.9607 22.0286 15.8626 21.6852 15.7154 21.3419C15.6173 20.9495 15.5192 20.5571 15.4212 20.1648C15.3721 19.7724 15.3476 19.38 15.3476 18.9876C15.3966 18.5952 15.5438 18.2028 15.789 17.8104C15.8871 17.8595 15.9362 17.8595 15.9362 17.8104C15.9362 17.7614 15.9852 17.7369 16.0833 17.7369C16.1323 17.6388 16.1814 17.5897 16.2304 17.5897C16.3285 17.5407 16.4021 17.4671 16.4512 17.369C16.5493 17.369 16.6474 17.2954 16.7454 17.1483C16.8435 17.0012 16.9171 16.854 16.9662 16.7069C18.2905 15.824 19.6393 15.0392 21.0126 14.3526C22.386 13.6168 23.8084 12.9056 25.2798 12.219C25.6232 12.0228 25.991 11.8266 26.3834 11.6304C26.7758 11.4342 27.1682 11.2625 27.5605 11.1154C27.8058 11.0173 28.0756 10.9192 28.3698 10.8211C28.7132 10.723 29.0075 10.6249 29.2527 10.5268C29.9394 10.2816 30.6506 10.0854 31.3863 9.93823C32.122 9.74203 32.9068 9.52132 33.7406 9.27608C34.5744 9.17798 35.4328 9.07989 36.3156 8.98179C37.1985 8.83465 38.0814 8.73655 38.9642 8.6875C40.779 8.6875 42.4957 8.95727 44.1143 9.4968C45.7329 10.0363 46.9591 10.8456 47.7929 11.9247C47.9891 12.1699 48.1607 12.4397 48.3079 12.734C48.5041 13.0283 48.7248 13.3471 48.97 13.6904C49.0681 13.9356 49.1662 14.1564 49.2643 14.3526C49.3624 14.4997 49.4605 14.7204 49.5586 15.0147C50.1962 15.8485 50.5396 16.7804 50.5886 17.8104C50.7848 19.6743 50.5396 21.3664 49.8529 22.8869C49.2153 24.3584 48.406 25.5846 47.425 26.5655C46.8855 27.6446 46.1743 28.552 45.2914 29.2877C44.4086 29.9744 43.5993 30.7591 42.8635 31.642C42.275 31.9853 41.7354 32.4513 41.245 33.0399C40.7545 33.5794 40.1414 33.8982 39.4057 33.9963C38.4247 34.7811 37.4437 35.4923 36.4628 36.1299C35.4818 36.7185 34.5009 37.3071 33.5199 37.8956C33.8142 38.0428 34.133 38.1409 34.4763 38.1899C34.8687 38.239 35.1875 38.3861 35.4328 38.6314C37.2966 39.1218 39.1359 39.6859 40.9507 40.3235C40.9507 40.4216 40.9752 40.4707 41.0242 40.4707C41.1223 40.4707 41.1714 40.5197 41.1714 40.6178H41.3185C42.1524 41.1083 42.8881 41.6478 43.5257 42.2364C44.2124 42.7759 44.7764 43.3154 45.2179 43.855C45.316 44.2964 45.5121 44.6888 45.8064 45.0321C46.1498 45.3264 46.3214 45.7188 46.3214 46.2093C46.4195 46.2093 46.4441 46.2338 46.395 46.2829C46.395 46.2829 46.4441 46.2583 46.5422 46.2093C46.5912 46.4055 46.6893 46.6017 46.8364 46.7979C46.9836 46.945 47.0081 47.1412 46.91 47.3864C47.1553 47.6807 47.3024 48.0486 47.3514 48.49C47.4495 48.8824 47.6212 49.1522 47.8665 49.2993C48.2588 50.1822 48.455 51.1877 48.455 52.3158C48.5041 53.3948 48.2343 54.3758 47.6457 55.2587C47.4986 55.602 47.3024 55.9453 47.0572 56.2887C46.8119 56.632 46.5667 56.9753 46.3214 57.3187C46.1252 57.613 45.8555 57.8827 45.5121 58.128C45.414 58.2751 45.2669 58.3977 45.0707 58.4958C44.9236 58.643 44.7519 58.8146 44.5557 59.0108C44.2614 59.2561 43.9671 59.5258 43.6728 59.8201C43.4276 60.1635 43.1824 60.4577 42.9371 60.703C42.3976 61.0954 41.8826 61.4387 41.3921 61.733C40.9507 62.0763 40.5092 62.4442 40.0678 62.8366H39.7735L38.2285 63.9402C37.689 64.1364 37.223 64.3816 36.8306 64.6759C36.4383 65.0192 35.9968 65.3135 35.5063 65.5587C35.2611 65.6568 34.9913 65.7795 34.697 65.9266C34.4518 66.0738 34.2066 66.2454 33.9613 66.4416C33.7161 66.6378 33.4708 66.8095 33.2256 66.9566C32.9804 67.1528 32.7351 67.3 32.4899 67.3981C31.9504 67.7414 31.3863 68.0112 30.7977 68.2073C30.2582 68.4035 29.7432 68.5997 29.2527 68.7959L27.6341 69.6052L24.3969 70.4881C23.416 70.7824 22.4596 71.1012 21.5276 71.4445C20.5957 71.7879 19.5412 72.0086 18.364 72.1067C18.4621 72.0086 18.5602 71.935 18.6583 71.886C18.8055 71.886 18.9526 71.8369 19.0998 71.7388C21.4541 71.1502 23.6367 70.4145 25.6477 69.5316C27.7077 68.6488 29.7677 67.7414 31.8277 66.8095C31.9258 66.7114 31.9994 66.6378 32.0484 66.5888C32.1465 66.5397 32.2201 66.4416 32.2692 66.2945C32.8577 66.1473 33.3973 65.9021 33.8878 65.5587C34.3782 65.2645 34.8932 64.9947 35.4328 64.7495C35.8252 64.5042 36.193 64.2345 36.5363 63.9402C36.9287 63.6459 37.3702 63.4252 37.8606 63.278C38.0078 63.0328 38.1304 62.8856 38.2285 62.8366C38.1795 62.6404 38.1795 62.5178 38.2285 62.4687C38.3266 62.4197 38.3757 62.3461 38.3757 62.248C38.1304 62.248 37.9342 62.3461 37.7871 62.5423C37.6399 62.7385 37.4928 62.8856 37.3456 62.9837C37.2475 63.0818 37.1495 63.1309 37.0514 63.1309C36.9533 63.1309 36.8797 63.1799 36.8306 63.278C36.5854 63.3271 36.4137 63.4006 36.3156 63.4987C36.2666 63.6459 36.1685 63.7685 36.0213 63.8666L35.1385 64.1609C34.8442 64.308 34.5499 64.4797 34.2556 64.6759C33.9613 64.9211 33.6916 65.1664 33.4463 65.4116C32.2201 66.0492 30.9449 66.6133 29.6206 67.1038C29.2772 67.4962 28.7622 67.815 28.0756 68.0602C27.4379 68.3054 26.8739 68.5262 26.3834 68.7224C26.1382 68.9676 25.8193 69.1393 25.427 69.2374C25.0346 69.3354 24.6912 69.4826 24.3969 69.6788C24.3969 69.6788 24.3969 69.6052 24.3969 69.4581C23.6122 69.7033 22.8519 69.9486 22.1162 70.1938C21.3805 70.439 20.6202 70.6843 19.8355 70.9295C20.0807 70.6843 20.326 70.5617 20.5712 70.5617C20.8164 70.5617 21.0617 70.4636 21.3069 70.2674C20.2769 70.6107 19.2959 70.9295 18.364 71.2238C17.4812 71.5671 16.4021 71.8614 15.1269 72.1067C16.8926 71.6162 18.5848 71.0767 20.2033 70.4881C21.8219 69.9486 23.4896 69.36 25.2062 68.7224C25.2553 68.7224 25.2798 68.6488 25.2798 68.5016C25.7703 68.4035 26.1872 68.2564 26.5305 68.0602C26.9229 67.9131 27.3889 67.7659 27.9284 67.6188C28.0265 67.5697 28.051 67.4961 28.002 67.3981C27.9529 67.349 27.9775 67.3245 28.0756 67.3245C29.2527 66.883 30.3808 66.319 31.4599 65.6323C32.588 64.9947 33.667 64.3325 34.697 63.6459C34.3047 63.744 33.9123 63.9156 33.5199 64.1609C33.1275 64.4061 32.7596 64.5778 32.4163 64.6759C32.1711 64.774 31.9504 64.8966 31.7542 65.0437C31.607 65.2399 31.4108 65.3871 31.1656 65.4852L29.9149 66.0738C28.3944 66.8585 26.8003 67.5207 25.1327 68.0602L26.8984 67.2509C26.9965 67.3 27.0701 67.2754 27.1191 67.1773C27.1682 67.1283 27.1927 67.1528 27.1927 67.2509C27.6832 67.0057 28.1491 66.7604 28.5906 66.5152C29.081 66.319 29.5715 66.0738 30.062 65.7795C30.6506 65.5342 31.1656 65.2645 31.607 64.9702C32.0975 64.6759 32.6125 64.4306 33.152 64.2344C33.9858 63.4987 34.9178 62.9102 35.9478 62.4687C36.9778 62.0273 37.8852 61.3897 38.6699 60.5558C38.6209 60.4577 38.5473 60.4332 38.4492 60.4823C38.4002 60.5804 38.3757 60.5558 38.3757 60.4087C38.768 60.3106 39.0623 60.1635 39.2585 59.9673C39.4547 59.7711 39.6754 59.5258 39.9207 59.2315C39.6264 59.3787 39.3811 59.5504 39.1849 59.7466C39.0378 59.9918 38.768 60.1635 38.3757 60.2616C38.2776 60.5558 38.0814 60.7275 37.7871 60.7766C37.5418 60.8256 37.2966 61.0463 37.0514 61.4387C37.0023 61.4387 36.9287 61.4632 36.8306 61.5123C36.7816 61.6104 36.659 61.6349 36.4628 61.5859C36.1194 62.0273 35.7025 62.3706 35.212 62.6159C34.7216 62.8611 34.1575 63.1799 33.5199 63.5723C33.0294 63.8175 32.5389 64.0628 32.0484 64.308C31.607 64.5533 31.0675 64.7249 30.4299 64.823C30.577 64.7249 30.7242 64.6514 30.8713 64.6023C31.0675 64.6023 31.1901 64.5287 31.2392 64.3816C30.8468 64.4797 30.4789 64.6023 30.1356 64.7495C29.8413 64.9456 29.5225 65.0928 29.1791 65.1909C30.2091 64.6514 31.2392 64.1364 32.2692 63.6459C33.3482 63.1554 34.3047 62.4932 35.1385 61.6594C35.8252 61.4142 36.4628 61.0218 37.0514 60.4823C37.6399 59.9918 38.2776 59.5504 38.9642 59.158C39.0623 58.9127 39.2095 58.7411 39.4057 58.643C39.6509 58.5449 39.8716 58.3732 40.0678 58.128C39.8716 58.128 39.749 58.177 39.6999 58.2751C39.6509 58.3242 39.5773 58.3487 39.4792 58.3487C39.5773 58.1525 39.798 57.9808 40.1414 57.8337C40.4847 57.6375 40.6809 57.3922 40.73 57.098C40.5828 57.0489 40.4111 57.0489 40.215 57.098C40.0678 57.147 39.9207 57.2206 39.7735 57.3187C39.6754 57.4168 39.5773 57.5149 39.4792 57.613C39.3811 57.7111 39.3076 57.7356 39.2585 57.6865C38.9642 57.9808 38.6209 58.2261 38.2285 58.4223C37.8361 58.6675 37.3947 58.9373 36.9042 59.2315V59.673C36.8061 59.722 36.708 59.7711 36.6099 59.8201C36.5609 59.9182 36.4873 59.9182 36.3892 59.8201C36.3892 59.9182 36.4137 59.9918 36.4628 60.0408L34.9913 60.5558C34.7461 60.8011 34.4028 60.9973 33.9613 61.1444C33.5199 61.3406 33.2011 61.5368 33.0049 61.733C33.2011 61.8311 33.3727 61.782 33.5199 61.5859C33.667 61.4387 33.8632 61.3161 34.1085 61.218C33.2256 61.9537 32.2201 62.5668 31.092 63.0573C29.9639 63.5968 28.8848 64.1364 27.8548 64.6759C27.6096 64.6268 27.4134 64.6759 27.2663 64.823C27.1191 65.0192 26.8739 65.0683 26.5305 64.9702C26.6777 64.8721 26.8494 64.8721 27.0455 64.9702C27.7813 64.4797 28.6151 63.9892 29.547 63.4987C30.4789 63.0573 31.3863 62.6894 32.2692 62.3951C32.2201 62.199 32.3427 62.0763 32.637 62.0273C32.9313 62.0273 33.0294 61.9047 32.9313 61.6594L32.4163 62.0273C32.3182 62.0273 32.2937 61.9782 32.3427 61.8801C32.3918 61.8311 32.3673 61.8311 32.2692 61.8801C32.1711 61.9292 32.1465 61.9537 32.1956 61.9537C32.2446 62.0028 32.2201 62.0518 32.122 62.1009C31.9749 62.1499 31.7787 62.2235 31.5334 62.3216C31.3373 62.4197 31.1411 62.4932 30.9449 62.5423C30.8468 62.5423 30.8222 62.5423 30.8713 62.5423C30.9203 62.5913 30.9203 62.6404 30.8713 62.6894C29.9884 63.0818 29.1546 63.4742 28.3698 63.8666C27.5851 64.308 26.7758 64.6759 25.942 64.9702C25.8929 64.9702 25.8929 64.9702 25.942 64.9702C25.991 65.0192 25.9665 65.0928 25.8684 65.1909C25.7212 65.0928 25.5741 65.0928 25.427 65.1909C25.3289 65.289 25.1817 65.3871 24.9855 65.4852L19.7619 67.3245C19.3695 67.4226 18.9526 67.5452 18.5112 67.6923C18.1188 67.8395 17.7019 67.9866 17.2605 68.1338C17.0152 68.1828 16.7945 68.2564 16.5983 68.3545C16.4021 68.5016 16.1323 68.5752 15.789 68.5752C15.2495 68.8204 14.6854 68.9921 14.0969 69.0902C13.5083 69.2374 12.9197 69.3845 12.3311 69.5316C11.8406 69.6788 11.3747 69.7769 10.9333 69.8259C10.5409 69.875 10.0749 69.9485 9.53538 70.0466C9.43729 70.0466 9.41276 70.0221 9.46181 69.9731C9.51086 69.9731 9.48633 69.9731 9.38824 69.9731C9.143 70.0712 8.99585 70.1938 8.94681 70.3409C10.124 70.2919 11.4237 70.1693 12.8461 69.9731C14.3176 69.8259 15.6909 69.6052 16.9662 69.3109C16.2795 69.5562 15.5683 69.7278 14.8326 69.8259C14.0969 69.924 13.4347 70.1447 12.8461 70.4881C12.9442 70.5862 13.0178 70.5862 13.0668 70.4881C13.1159 70.39 13.1895 70.3655 13.2876 70.4145C13.1404 70.5126 12.9442 70.5617 12.699 70.5617C12.4537 70.6107 12.2575 70.6843 12.1104 70.7824C12.2085 70.9295 12.3066 70.9786 12.4047 70.9295C12.5518 70.9295 12.699 70.9295 12.8461 70.9295C12.748 71.1748 12.5273 71.2728 12.184 71.2238C11.8897 71.1748 11.6444 71.2483 11.4483 71.4445C11.6444 71.4936 11.8161 71.469 11.9633 71.3709C12.1104 71.3219 12.3066 71.2974 12.5518 71.2974C12.1595 71.6898 11.6935 71.7879 11.154 71.5917C10.6144 71.4445 10.0749 71.3955 9.53538 71.4445C9.33919 71.4936 9.19204 71.5426 9.09395 71.5917C8.99585 71.6898 8.87323 71.6898 8.72609 71.5917C7.89227 71.6898 7.00941 71.6407 6.07749 71.4445C5.09653 71.2483 4.23819 71.0767 3.50247 70.9295C3.35532 70.6843 3.15913 70.4636 2.91389 70.2674C2.66865 70.1202 2.49698 69.875 2.39889 69.5316C2.34984 69.5316 2.32531 69.5071 2.32531 69.4581C2.27627 69.4581 2.17817 69.4581 2.03103 69.4581C1.93293 69.5562 1.93293 69.6788 2.03103 69.8259C2.12912 69.9731 2.17817 70.1202 2.17817 70.2674C2.03103 70.1202 1.88388 69.9731 1.73674 69.8259C1.58959 69.6788 1.46697 69.5071 1.36888 69.3109C1.46697 69.409 1.56507 69.5071 1.66317 69.6052C1.76126 69.7033 1.85936 69.8014 1.95745 69.8995C1.95745 69.8014 1.88388 69.6297 1.73674 69.3845C1.58959 69.1883 1.56507 69.0657 1.66317 69.0166C1.56507 69.0166 1.51602 68.9676 1.51602 68.8695C1.46697 68.7714 1.36888 68.7469 1.22173 68.7959C1.27078 68.5507 1.2953 68.3545 1.2953 68.2073C1.24626 68.1092 1.17268 67.9376 1.07459 67.6923L0.706727 67.9131C0.804824 68.1583 0.829348 68.3054 0.7803 68.3545C0.682204 68.4035 0.633156 68.3545 0.633156 68.2073C0.584108 68.1092 0.535059 68.0112 0.486011 67.9131C0.584108 67.815 0.633156 67.7414 0.633156 67.6923C0.633156 67.6433 0.682204 67.5697 0.7803 67.4716C0.682204 67.3735 0.633156 67.3 0.633156 67.2509C0.584108 67.2019 0.486011 67.1773 0.338867 67.1773C0.436963 67.0302 0.559583 66.883 0.706727 66.7359C0.853872 66.6378 0.927444 66.4661 0.927444 66.2209C1.22173 66.0247 1.3934 65.9511 1.44245 66.0002C1.54054 65.9021 1.61412 65.8285 1.66317 65.7795C1.66317 65.7304 1.76126 65.7304 1.95745 65.7795C1.90841 65.6814 1.93293 65.6323 2.03103 65.6323C2.12912 65.6323 2.12912 65.6323 2.03103 65.6323C2.37436 65.338 2.79127 65.1418 3.28175 65.0437C3.77223 64.9456 4.28724 64.9211 4.82677 64.9702C4.92486 64.9702 4.94939 64.9947 4.90034 65.0437C4.85129 65.0928 4.82677 65.1664 4.82677 65.2645C4.92486 65.2645 4.97391 65.1664 4.97391 64.9702C5.12105 65.3135 5.39082 65.4607 5.7832 65.4116C6.12654 65.4116 6.44535 65.4852 6.73964 65.6323C6.4944 65.8776 6.17559 65.9511 5.7832 65.853C5.34177 65.7549 5.04748 65.9021 4.90034 66.2945C4.6551 66.3926 4.36081 66.5152 4.01747 66.6623C3.67414 66.8095 3.55152 67.0547 3.64961 67.3981C3.79676 67.5942 4.06652 67.7659 4.45891 67.9131C4.85129 68.0602 5.2682 68.1583 5.70963 68.2073C6.15106 68.3054 6.56797 68.379 6.96036 68.4281C7.40179 68.4771 7.74513 68.5016 7.99037 68.5016C8.13751 68.1093 8.26013 67.6433 8.35823 67.1038C8.45632 66.6133 8.55442 66.1228 8.65252 65.6323C8.75061 65.1909 8.87323 64.774 9.02038 64.3816C9.16752 63.9892 9.31467 63.5723 9.46181 63.1309C10.4918 59.158 11.6935 55.3322 13.0668 51.6536C14.4892 47.975 16.0343 44.419 17.7019 40.9857C17.6038 40.9366 17.5302 40.8876 17.4812 40.8385C17.4812 40.7404 17.4076 40.6914 17.2605 40.6914C17.3095 40.3971 17.2605 40.1764 17.1133 40.0292C17.0152 39.833 16.8926 39.6614 16.7454 39.5142C16.8926 39.3671 17.0397 39.2935 17.1869 39.2935C17.1378 39.0973 17.1624 38.9011 17.2605 38.7049C17.6038 38.6559 17.8736 38.5823 18.0697 38.4842C18.315 38.3371 18.6093 38.239 18.9526 38.1899C19.5902 36.9147 20.2033 35.6149 20.7919 34.2906C21.3805 32.9663 21.9936 31.593 22.6312 30.1706C23.1217 29.1896 23.6367 28.1841 24.1762 27.1541C24.7158 26.1241 25.2308 25.045 25.7212 23.9169C26.2117 22.936 26.6777 21.9305 27.1191 20.9005C27.6096 19.8705 28.0756 18.8405 28.517 17.8104C28.7622 17.32 28.9829 16.8785 29.1791 16.4861C29.3753 16.0447 29.5225 15.6033 29.6206 15.1619C29.7187 15.0638 29.7922 14.9902 29.8413 14.9411C29.9394 14.8921 30.013 14.8185 30.062 14.7204C30.5034 14.8676 30.8958 14.8921 31.2392 14.794C31.5825 14.6959 31.9504 14.6959 32.3427 14.794C32.637 14.794 32.9313 14.843 33.2256 14.9411C33.5199 15.0392 33.7161 15.1373 33.8142 15.2354C34.0594 15.4807 34.182 15.7504 34.182 16.0447C34.182 16.339 34.133 16.6333 34.0349 16.9276C33.9368 17.2219 33.8142 17.5407 33.667 17.884C33.5199 18.2274 33.4218 18.5462 33.3727 18.8405C32.7351 20.0176 32.073 21.1702 31.3863 22.2983C30.7487 23.3774 30.2091 24.6036 29.7677 25.977H29.6206C29.2282 27.2032 28.7868 28.3558 28.2963 29.4348C27.8548 30.5139 27.4625 31.6175 27.1191 32.7456C27.0701 32.8437 26.9965 32.9418 26.8984 33.0399C26.8494 33.138 26.7758 33.2851 26.6777 33.4813C26.4324 34.217 26.1382 34.9282 25.7948 35.6149C25.4515 36.3016 25.0836 36.9882 24.6912 37.6749C25.0836 37.6259 25.4515 37.5278 25.7948 37.3806C26.1382 37.2335 26.4324 37.0618 26.6777 36.8656C28.9339 35.7866 30.9694 34.683 32.7842 33.5549C32.8823 33.3587 32.9313 33.2361 32.9313 33.187C33.8142 32.6475 34.5989 32.108 35.2856 31.5684C35.9723 31.0289 36.6835 30.4894 37.4192 29.9498V29.8027C40.0678 27.6936 42.3485 25.2412 44.2614 22.4455V22.0776C44.5067 21.6852 44.7764 21.2438 45.0707 20.7533C45.4141 20.2138 45.7329 19.6497 46.0272 19.0612C46.3214 18.4726 46.5422 17.8595 46.6893 17.2219C46.8855 16.5352 46.9836 15.873 46.9836 15.2354C46.9345 14.8921 46.861 14.6468 46.7629 14.4997C46.6648 14.3035 46.5667 14.0828 46.4686 13.8376C44.9481 12.8566 43.2069 12.1454 41.245 11.704C39.283 11.2625 37.3947 11.238 35.5799 11.6304L33.3727 11.9982C31.9504 12.3906 30.577 12.8321 29.2527 13.3225C27.9775 13.813 26.7267 14.3035 25.5005 14.794C24.3724 15.4316 23.2198 16.1428 22.0426 16.9276C20.8655 17.6633 20.0071 18.7424 19.4676 20.1648C19.5167 20.1648 19.5902 20.1648 19.6883 20.1648C19.8355 20.1648 19.8845 20.2138 19.8355 20.3119C19.7374 20.3119 19.6883 20.3119 19.6883 20.3119C19.6883 20.2628 19.6638 20.2383 19.6148 20.2383C19.7129 20.3855 19.7129 20.5081 19.6148 20.6062C19.5657 20.7043 19.5657 20.8024 19.6148 20.9005C19.6638 20.9005 19.6883 20.8514 19.6883 20.7533C19.7864 20.7533 19.811 20.8269 19.7619 20.974C19.7619 21.0721 19.811 21.0476 19.909 20.9005C19.909 21.1457 19.8355 21.2929 19.6883 21.3419C19.5412 21.391 19.4921 21.5136 19.5412 21.7098ZM35.2856 59.4523C35.2856 59.3051 35.3101 59.2315 35.3592 59.2315C35.4573 59.2315 35.4818 59.1825 35.4328 59.0844C35.3347 59.0354 35.2611 59.0599 35.212 59.158C35.163 59.2561 35.114 59.2561 35.0649 59.158C35.0649 59.158 35.114 59.1089 35.212 59.0108C35.3101 58.9618 35.3837 58.8882 35.4328 58.7901C35.5309 58.692 35.629 58.643 35.7271 58.643C35.9232 58.5449 36.1194 58.4713 36.3156 58.4223C36.5609 58.4223 36.7325 58.2996 36.8306 58.0544C36.9287 58.0544 36.9778 58.0544 36.9778 58.0544C37.0268 58.0053 37.1004 58.0053 37.1985 58.0544C37.2475 57.8582 37.3456 57.7356 37.4928 57.6865C37.6399 57.6375 37.738 57.5149 37.7871 57.3187C38.6699 56.7791 39.4302 56.117 40.0678 55.3322C40.7545 54.4984 41.4166 53.7136 42.0543 52.9779C42.0543 52.7817 42.0788 52.6591 42.1278 52.6101C42.5202 52.0215 42.9126 51.3103 43.305 50.4765C43.7464 49.6426 43.9426 48.7598 43.8936 47.8279C43.8445 47.2883 43.6483 46.7733 43.305 46.2829C42.9616 45.7433 42.5693 45.3509 42.1278 45.1057C41.7354 44.8605 41.294 44.6397 40.8035 44.4436C40.3621 44.2474 39.9697 44.0512 39.6264 43.855C39.5283 43.855 39.4792 43.8795 39.4792 43.9285C39.4792 43.9776 39.4302 43.9776 39.3321 43.9285C39.0868 43.7814 38.8171 43.6097 38.5228 43.4135C38.2285 43.1683 37.9097 42.9966 37.5664 42.8985C36.6344 42.6533 35.8497 42.3835 35.212 42.0892C34.5744 41.844 33.9613 41.6478 33.3727 41.5007C32.8332 41.3535 32.2692 41.2064 31.6806 41.0592C30.6996 41.0102 29.6206 41.0838 28.4434 41.28C27.3153 41.4761 26.2608 41.7214 25.2798 42.0157C25.1327 42.0157 25.0591 41.9911 25.0591 41.9421C25.1081 41.8931 25.0836 41.844 24.9855 41.795C24.6422 41.8931 24.2989 42.0157 23.9555 42.1628C23.6612 42.2609 23.3179 42.359 22.9255 42.4571C22.9255 42.359 22.8765 42.31 22.7784 42.31C22.4841 42.2609 22.3124 42.2854 22.2634 42.3835C22.2143 42.4816 22.1407 42.6778 22.0426 42.9721C21.6993 43.8059 21.3069 44.6888 20.8655 45.6207C20.4731 46.5526 20.1052 47.5091 19.7619 48.49C19.6638 48.8334 19.5902 49.2257 19.5412 49.6672C19.4921 50.0596 19.3695 50.4519 19.1733 50.8443C18.879 51.8253 18.6338 52.8062 18.4376 53.7872C18.2414 54.7682 18.0697 55.7737 17.9226 56.8037C17.7264 57.2941 17.5547 57.7601 17.4076 58.2015C17.3095 58.5939 17.2114 59.0354 17.1133 59.5258C17.0152 59.7711 16.9171 60.0899 16.819 60.4823C16.6719 60.9728 16.4757 61.4142 16.2304 61.8066C16.0343 62.248 15.8626 62.6649 15.7154 63.0573C15.4212 63.5968 15.1514 64.0383 14.9061 64.3816C14.6609 64.7249 14.3666 65.0928 14.0233 65.4852C14.0723 65.4852 14.0969 65.5097 14.0969 65.5587C13.8516 65.7549 13.6554 66.0247 13.5083 66.368C13.3611 66.7114 13.1895 67.0792 12.9933 67.4716C12.699 67.5207 12.4783 67.6188 12.3311 67.7659C12.233 67.9621 12.1349 68.1338 12.0368 68.2809C13.263 68.0357 14.5628 67.7659 15.9362 67.4716C17.3586 67.2264 18.6583 66.8585 19.8355 66.368C19.8355 66.2699 19.811 66.2454 19.7619 66.2945C19.7129 66.3926 19.6638 66.3926 19.6148 66.2945C20.4486 66.1964 21.1843 66.0002 21.8219 65.7059C22.5086 65.4116 23.2688 65.1664 24.1027 64.9702C24.0536 64.7249 24.1027 64.6268 24.2498 64.6759C24.3969 64.774 24.5196 64.7004 24.6177 64.4552C24.6177 64.6023 24.6422 64.6759 24.6912 64.6759C25.0346 64.4306 25.4515 64.2344 25.942 64.0873C26.0891 64.0383 26.2363 63.9892 26.3834 63.9402C26.5305 63.8911 26.6041 63.8175 26.6041 63.7194C26.8984 63.7685 27.0701 63.744 27.1191 63.6459C27.2172 63.5478 27.3889 63.4987 27.6341 63.4987C27.6341 63.4497 27.6096 63.4252 27.5605 63.4252C27.5605 63.4252 27.5605 63.3761 27.5605 63.278C27.6586 63.3761 27.7813 63.3516 27.9284 63.2044C28.1246 63.0573 28.3208 63.0082 28.517 63.0573C28.517 63.0573 28.4679 63.0082 28.3698 62.9101C28.9094 62.8121 29.3753 62.5913 29.7677 62.248C30.1601 61.9047 30.6261 61.7085 31.1656 61.6594C31.2637 61.5613 31.2882 61.4878 31.2392 61.4387C31.2392 61.3897 31.2882 61.3161 31.3863 61.218C31.6315 61.218 31.8032 61.1444 31.9013 60.9973C32.0485 60.8992 32.2692 60.8256 32.5635 60.7766C32.7596 60.6294 32.9068 60.4823 33.0049 60.3351C33.152 60.237 33.3237 60.188 33.5199 60.188C33.5689 60.1389 33.667 60.0654 33.8142 59.9673C33.9613 59.8692 34.0839 59.7956 34.182 59.7466L34.2556 59.8937C34.3047 59.8937 34.3292 59.8446 34.3292 59.7466C34.3292 59.6485 34.3537 59.5994 34.4028 59.5994C34.5009 59.5013 34.5989 59.4277 34.697 59.3787C34.8442 59.3296 34.9668 59.2561 35.0649 59.158C35.0649 59.2561 35.0894 59.3051 35.1385 59.3051C35.1875 59.3051 35.2366 59.3542 35.2856 59.4523ZM19.6148 69.7524C20.4976 69.5071 21.356 69.2619 22.1898 69.0166C23.0727 68.7714 23.931 68.5016 24.7648 68.2073C24.7158 68.2073 24.6912 68.2564 24.6912 68.3545C22.9746 68.894 21.2824 69.4581 19.6148 70.0466C17.9471 70.6843 16.1814 71.1257 14.3176 71.3709C15.1514 71.1748 16.0343 70.954 16.9662 70.7088C17.8981 70.4636 18.7809 70.1447 19.6148 69.7524ZM42.7164 41.8685C42.6183 41.9176 42.5447 41.9176 42.4957 41.8685C42.4957 41.8195 42.4957 41.844 42.4957 41.9421C42.839 42.1873 43.1578 42.4816 43.4521 42.825C43.7464 43.1683 44.1143 43.4381 44.5557 43.6343C44.4086 43.5852 44.4331 43.5607 44.6293 43.5607C44.6293 43.6588 44.6048 43.7324 44.5557 43.7814C44.5557 43.8304 44.6048 43.855 44.7029 43.855C44.6538 43.7569 44.6538 43.6833 44.7029 43.6343C44.7519 43.5852 44.7764 43.5116 44.7764 43.4135H44.7029C44.6538 43.4135 44.6293 43.4135 44.6293 43.4135C44.1388 42.874 43.6728 42.4326 43.2314 42.0892C42.79 41.7459 42.2259 41.378 41.5393 40.9857C41.6864 41.329 41.8335 41.5252 41.9807 41.5742C42.1769 41.5742 42.4221 41.6723 42.7164 41.8685ZM33.0049 63.7194C33.2501 63.3761 33.5689 63.1309 33.9613 62.9837C34.3537 62.8366 34.7216 62.6404 35.0649 62.3951C35.163 62.3951 35.2611 62.3461 35.3592 62.248C35.4573 62.199 35.4573 62.1499 35.3592 62.1009C34.8687 62.3461 34.3537 62.6159 33.8142 62.9101C33.2747 63.2535 32.7351 63.5723 32.1956 63.8666C32.3427 63.8175 32.4408 63.7685 32.4899 63.7194C32.588 63.6704 32.7596 63.6704 33.0049 63.7194ZM45.5121 45.4736C45.5121 45.2283 45.4386 45.0076 45.2914 44.8114C45.1443 44.6152 44.9971 44.5416 44.85 44.5907C44.9481 44.7378 45.0217 44.9095 45.0707 45.1057C45.1198 45.3019 45.2669 45.4245 45.5121 45.4736ZM42.4221 60.6294C41.9807 60.8747 41.6619 61.218 41.4657 61.6594C41.5638 61.5613 41.7354 61.3897 41.9807 61.1444C42.2259 60.8992 42.3731 60.7275 42.4221 60.6294ZM26.3098 63.7194C26.2608 63.8175 26.1872 63.8666 26.0891 63.8666C26.0401 63.9156 25.991 63.9892 25.942 64.0873C25.991 63.9402 26.1136 63.8175 26.3098 63.7194ZM3.20818 69.9731C3.30628 69.924 3.37985 69.8995 3.4289 69.8995C3.4289 69.8014 3.35532 69.7524 3.20818 69.7524V69.8995C3.25723 69.8995 3.25723 69.924 3.20818 69.9731ZM24.8384 68.1338C24.8874 68.0847 24.961 68.0602 25.0591 68.0602C24.961 68.0602 24.8629 68.1092 24.7648 68.2073C24.7648 68.1583 24.7893 68.1338 24.8384 68.1338Z" fill="#016C55"/>
<path d="M73.0293 41.9421C73.0783 41.6969 73.1519 41.844 73.25 42.3835C73.3481 42.874 73.3971 43.5852 73.3971 44.5171C73.3971 45.4 73.3236 46.4055 73.1764 47.5336C73.0293 48.6126 72.735 49.5936 72.2935 50.4765C72.5388 50.5255 73.25 50.4029 74.4271 50.1086L75.3836 49.7407C75.825 49.6426 76.2664 49.52 76.7079 49.3729C77.1493 49.1767 77.5907 48.9805 78.0322 48.7843L79.5772 48.1957L80.6808 47.7543C81.1712 47.5581 81.6372 47.3619 82.0786 47.1657C82.5691 46.9695 82.986 46.7488 83.3294 46.5036L85.0215 45.3264L85.1687 45.2528C85.2668 45.2038 85.3649 45.1547 85.463 45.1057C85.561 45.0567 85.6837 44.9586 85.8308 44.8114C86.027 44.6643 86.2722 44.4926 86.5665 44.2964C86.9099 44.1002 87.2287 43.9285 87.523 43.7814C87.8663 43.5852 88.1606 43.4135 88.4058 43.2664C88.6511 43.1193 88.7737 43.0212 88.7737 42.9721L89.068 43.6343C89.2151 43.4871 89.2887 43.4626 89.2887 43.5607C89.2887 43.6588 89.2151 43.8304 89.068 44.0757C88.9699 44.2719 88.7982 44.5416 88.553 44.885C88.3568 45.1793 88.1115 45.449 87.8173 45.6943L86.9344 46.2093C86.6892 46.4055 86.4684 46.6262 86.2722 46.8714C86.1251 47.0676 85.9534 47.2393 85.7572 47.3864C85.6591 47.4355 85.5365 47.5336 85.3894 47.6807C85.2913 47.8279 85.2177 47.8769 85.1687 47.8279C85.0215 47.926 84.9479 48.0486 84.9479 48.1957C84.9479 48.2938 84.8498 48.3183 84.6537 48.2693C84.3594 48.4655 84.1387 48.6862 83.9915 48.9314C83.8934 49.1276 83.6727 49.3238 83.3294 49.52C83.2313 49.5691 83.1332 49.6426 83.0351 49.7407C82.937 49.8388 82.8634 49.8388 82.8144 49.7407C82.7653 49.7898 82.6917 49.8388 82.5936 49.8879C82.4955 49.9369 82.3975 49.986 82.2994 50.035C82.2503 50.0841 82.1767 50.1331 82.0786 50.1822L79.2829 51.5065C79.0867 51.6536 78.8415 51.8008 78.5472 51.9479C78.2529 52.046 77.9586 52.1686 77.6643 52.3158C77.4191 52.4139 77.1984 52.512 77.0022 52.6101C76.806 52.6591 76.7079 52.6836 76.7079 52.6836C76.6098 52.7817 76.4872 52.8308 76.34 52.8308C76.1929 52.7817 75.9476 52.7817 75.6043 52.8308C75.4571 52.8798 75.261 53.0024 75.0157 53.1986C74.7705 53.3458 74.5498 53.4439 74.3536 53.4929C73.5688 53.591 72.8085 53.7136 72.0728 53.8608C71.3862 53.9589 70.9202 54.106 70.675 54.3022C70.5278 54.5475 70.4052 54.7191 70.3071 54.8172C70.258 54.9153 70.1845 54.9889 70.0864 55.0379C70.0373 55.087 69.9883 55.1606 69.9392 55.2587C69.8902 55.3567 69.7921 55.5284 69.6449 55.7737C69.5469 55.6265 69.4978 55.602 69.4978 55.7001C69.5469 55.7491 69.5714 55.8472 69.5714 55.9944C69.3752 56.4849 69.1299 56.8772 68.8357 57.1715C68.5904 57.4658 68.3452 57.8092 68.0999 58.2015C68.0018 58.2015 67.8547 58.2751 67.6585 58.4223C67.5114 58.6184 67.4378 58.692 67.4378 58.643C67.0945 59.1335 66.8002 59.3787 66.5549 59.3787C66.3097 59.3787 66.0154 59.5504 65.6721 59.8937C65.574 59.7956 65.5004 59.7956 65.4513 59.8937C65.4513 59.9918 65.4023 59.9918 65.3042 59.8937C65.2551 60.0408 65.108 60.1389 64.8628 60.188C63.4894 60.5804 61.9199 60.703 60.1541 60.5558L60.2277 60.4823C60.0806 60.3842 59.9579 60.3597 59.8599 60.4087C59.7618 60.4577 59.6391 60.4823 59.492 60.4823C59.2958 60.3351 59.1241 60.2125 58.977 60.1144C58.8789 60.0163 58.7072 59.9427 58.462 59.8937C57.6772 59.4523 57.1377 58.7901 56.8434 57.9072C56.8434 57.8092 56.7453 57.662 56.5491 57.4658C56.402 57.2696 56.402 57.098 56.5491 56.9508C56.3529 56.7056 56.2058 56.3377 56.1077 55.8472C56.0586 55.3077 56.1567 54.7927 56.402 54.3022C56.5001 53.2722 56.7208 52.2912 57.0641 51.3593C57.0641 51.3593 57.1622 51.1386 57.3584 50.6972C57.5546 50.2557 57.7753 49.7898 58.0206 49.2993C58.2658 48.7598 58.4865 48.2693 58.6827 47.8279C58.9279 47.3864 59.0751 47.1657 59.1241 47.1657C59.1241 47.2638 59.1487 47.2148 59.1977 47.0186C59.2958 46.7733 59.3939 46.6017 59.492 46.5036C59.8353 45.8659 60.2522 45.2038 60.7427 44.5171C61.2332 43.8304 61.7237 43.2173 62.2142 42.6778C62.7537 42.1383 63.2687 41.6723 63.7592 41.28C64.2497 40.8876 64.6666 40.6423 65.0099 40.5442L66.3342 39.7349C66.6285 39.833 66.8492 39.8576 66.9963 39.8085C67.1435 39.7595 67.2661 39.7104 67.3642 39.6614C67.4623 39.6123 67.5359 39.5878 67.5849 39.5878C67.683 39.5878 67.7811 39.6859 67.8792 39.8821H68.0999C68.0999 39.833 68.149 39.8576 68.2471 39.9556C68.3452 40.0537 68.3942 40.0292 68.3942 39.8821C68.6395 39.8821 68.7866 39.9557 68.8357 40.1028C68.8847 40.2009 68.9583 40.2499 69.0564 40.2499C69.0073 40.348 69.0073 40.3726 69.0564 40.3235C69.1545 40.2254 69.2035 40.2009 69.2035 40.2499C69.5469 40.1028 69.7921 40.0783 69.9392 40.1764C70.0864 40.2254 70.2335 40.299 70.3807 40.3971C70.4788 40.4461 70.4788 40.5197 70.3807 40.6178C70.2826 40.6668 70.2826 40.7159 70.3807 40.7649C70.6259 40.7649 70.724 40.6914 70.675 40.5442C71.0673 40.6423 71.3616 40.814 71.5578 41.0592C71.8031 41.3045 72.1219 41.5497 72.5143 41.795C72.4652 41.844 72.4652 41.9176 72.5143 42.0157C72.5633 42.1138 72.6859 42.1873 72.8821 42.2364H73.0293L72.9557 42.0157L72.5143 41.795C72.5143 41.6478 72.6859 41.6969 73.0293 41.9421ZM66.3342 53.3458C65.3042 53.1005 64.544 52.561 64.0535 51.7272C63.612 50.8934 63.2197 50.1331 62.8763 49.4465C62.6801 49.5446 62.4839 49.7162 62.2877 49.9615C62.0915 50.1577 61.8708 50.3538 61.6256 50.55L61.552 50.6236C61.503 50.6727 61.4784 50.7217 61.4784 50.7708C61.4294 50.8198 61.4049 50.8688 61.4049 50.9179V51.065H61.4784C61.1842 51.3593 60.9634 51.7517 60.8163 52.2422C60.7182 52.5365 60.6201 52.8308 60.522 53.1251C60.4239 53.3703 60.3749 53.591 60.3749 53.7872C60.2768 54.1796 60.2032 54.6456 60.1541 55.1851C60.1541 55.6756 60.1541 56.166 60.1541 56.6565C60.2032 57.098 60.2768 57.4903 60.3749 57.8337C60.522 58.177 60.7182 58.3732 60.9634 58.4223C61.0125 58.4223 61.1351 58.4223 61.3313 58.4223C61.5765 58.3732 61.8218 58.3487 62.067 58.3487C62.3123 58.2996 62.533 58.2506 62.7292 58.2015C62.9744 58.1525 63.1461 58.1034 63.2442 58.0544C64.127 57.613 64.7647 57.2451 65.157 56.9508C65.5494 56.6565 65.8437 56.3868 66.0399 56.1415C66.2361 55.8472 66.4078 55.5775 66.5549 55.3322C66.7511 55.087 67.0454 54.8172 67.4378 54.5229L67.7321 53.5665C67.4868 53.5174 67.2171 53.4929 66.9228 53.4929C66.6775 53.4929 66.4813 53.4439 66.3342 53.3458ZM69.5714 42.31C69.3752 42.4081 69.1054 42.6042 68.7621 42.8985C68.4678 43.1928 68.149 43.5362 67.8056 43.9285C67.4623 44.2719 67.119 44.6397 66.7756 45.0321C66.4813 45.3755 66.2361 45.6943 66.0399 45.9886C66.089 45.9886 66.1135 46.0131 66.1135 46.0621C66.1135 46.0621 66.138 46.0621 66.1871 46.0621C66.138 46.1602 66.0399 46.2093 65.8928 46.2093C65.7947 46.2093 65.6966 46.2583 65.5985 46.3564C65.5004 46.5036 65.4513 46.6017 65.4513 46.6507C65.5004 46.6998 65.5249 46.7243 65.5249 46.7243C65.574 46.7243 65.5985 46.7488 65.5985 46.7979C65.6475 46.7979 65.6475 46.896 65.5985 47.0921C65.6475 47.3374 65.7456 47.6807 65.8928 48.1222C66.0399 48.5636 66.2361 49.005 66.4813 49.4465C66.7756 49.8879 67.0945 50.2803 67.4378 50.6236C67.8302 50.9179 68.2716 51.016 68.7621 50.9179C68.9092 50.4765 69.0809 49.8143 69.2771 48.9314C69.5223 47.9995 69.7185 47.0676 69.8657 46.1357C70.0128 45.2038 70.0619 44.37 70.0128 43.6343C70.0128 42.8495 69.8657 42.4081 69.5714 42.31ZM61.552 50.6236C61.503 50.6727 61.4784 50.7217 61.4784 50.7708V50.8443C61.4784 50.8934 61.4539 50.9179 61.4049 50.9179C61.4049 50.9669 61.4294 51.016 61.4784 51.065V50.9915C61.4784 50.8443 61.503 50.7217 61.552 50.6236Z" fill="#016C55"/>
<path d="M110.083 56.1415C109.935 56.2887 109.886 56.3622 109.935 56.3622C109.935 56.3622 109.886 56.4113 109.788 56.5094C109.2 56.6565 108.636 56.9999 108.096 57.5394C107.557 58.0299 106.968 58.3977 106.33 58.643C106.232 58.5939 106.208 58.5449 106.257 58.4958C106.306 58.4468 106.33 58.3732 106.33 58.2751C106.134 58.2751 105.987 58.3487 105.889 58.4958C105.791 58.643 105.693 58.643 105.595 58.4958C105.497 58.643 105.349 58.7411 105.153 58.7901C105.006 58.8882 104.859 59.0108 104.712 59.158C104.614 59.2561 104.565 59.2806 104.565 59.2315C104.565 59.1825 104.516 59.158 104.418 59.158C104.27 59.3542 104.025 59.4523 103.682 59.4523C103.388 59.5013 103.093 59.5258 102.799 59.5258C102.848 59.4277 102.946 59.3787 103.093 59.3787C103.24 59.3787 103.338 59.2806 103.388 59.0844C103.338 59.0354 103.265 59.0599 103.167 59.158C103.069 59.2561 103.02 59.1825 103.02 58.9373C102.627 59.0354 102.358 59.1089 102.21 59.158C102.112 59.207 101.941 59.2806 101.695 59.3787C101.597 59.2806 101.573 59.207 101.622 59.158C101.671 59.1089 101.671 59.0354 101.622 58.9373C101.426 58.9373 101.278 59.0354 101.18 59.2315C100.788 59.0354 100.518 58.8392 100.371 58.643C100.175 58.7411 100.028 58.7411 99.9296 58.643C99.8315 58.5449 99.6844 58.5449 99.4882 58.643C98.7034 58.0544 98.0413 57.3432 97.5018 56.5094C97.0113 55.6756 96.717 54.6946 96.6189 53.5665V52.8308C96.6679 52.3893 96.7415 51.8253 96.8396 51.1386C96.9377 50.4519 97.0358 49.7407 97.1339 49.005C97.232 48.2203 97.3301 47.4845 97.4282 46.7979C97.5263 46.1112 97.6244 45.5471 97.7225 45.1057C97.3791 45.4 97.1339 45.7188 96.9868 46.0621C96.8887 46.4055 96.7906 46.7733 96.6925 47.1657C96.5944 47.1657 96.5453 47.0921 96.5453 46.945C96.3001 46.9941 96.1775 47.1167 96.1775 47.3129C96.2265 47.46 96.202 47.6072 96.1039 47.7543C96.0058 47.7543 95.9568 47.7298 95.9568 47.6807C96.0058 47.6317 96.0058 47.5826 95.9568 47.5336C95.8096 47.6807 95.736 47.8769 95.736 48.1222C95.736 48.0731 95.7115 48.0486 95.6625 48.0486C95.6625 48.0486 95.6625 47.9995 95.6625 47.9014C95.5153 48.0486 95.4908 48.1712 95.5889 48.2693C95.687 48.3674 95.7115 48.49 95.6625 48.6372C95.5644 48.6372 95.5153 48.5391 95.5153 48.3429C95.4172 48.441 95.3927 48.5391 95.4417 48.6372C95.4908 48.6862 95.5153 48.7598 95.5153 48.8579C95.3682 48.956 95.3191 48.956 95.3682 48.8579C95.4172 48.7107 95.3927 48.6372 95.2946 48.6372C95.1965 49.1276 95.0494 49.5446 94.8532 49.8879C94.7551 49.8879 94.706 49.8634 94.706 49.8143C94.706 49.7162 94.657 49.6917 94.5589 49.7407C94.4117 49.6917 94.3382 49.7407 94.3382 49.8879C94.3872 50.035 94.3136 50.0596 94.1174 49.9615C94.1174 50.0596 94.0929 50.1822 94.0439 50.3293C94.0439 50.4765 93.9703 50.501 93.8232 50.4029C93.8232 50.6481 93.7986 50.8443 93.7496 50.9915C93.7005 51.1386 93.627 51.1631 93.5289 51.065C93.4308 51.3103 93.3081 51.531 93.161 51.7272C93.0139 51.8743 92.9893 52.1441 93.0874 52.5365C92.9893 52.5365 92.9648 52.4874 93.0139 52.3893C93.0629 52.2912 93.0384 52.2422 92.9403 52.2422C92.8912 52.1931 92.7686 52.2912 92.5724 52.5365C92.3762 52.7817 92.3027 53.027 92.3517 53.2722C92.2536 53.3703 92.2046 53.3703 92.2046 53.2722C92.2046 53.1741 92.131 53.1496 91.9839 53.1986C91.7386 53.6891 91.616 54.1796 91.616 54.6701C91.2727 54.6701 91.101 54.8172 91.101 55.1115C90.8557 55.1115 90.7086 55.1606 90.6596 55.2587C90.6105 55.3077 90.5369 55.3813 90.4388 55.4794V55.7001C90.3407 55.9944 90.12 56.2887 89.7767 56.5829C89.4824 56.8282 89.2126 57.1225 88.9674 57.4658L88.2317 58.5694C88.2807 58.6184 88.2562 58.6184 88.1581 58.5694C88.1091 58.5694 88.0845 58.5939 88.0845 58.643C88.0355 58.692 88.011 58.7411 88.011 58.7901C88.011 58.8882 87.9619 58.9618 87.8638 59.0108C87.8148 59.0599 87.7412 59.0844 87.6431 59.0844C87.5941 59.1334 87.5205 59.2315 87.4224 59.3787C87.3733 59.3787 87.2998 59.5013 87.2017 59.7466C87.0545 59.9427 86.8583 60.0899 86.6131 60.188C86.3679 60.3351 86.1962 60.4332 86.0981 60.4823C85.7057 60.6785 85.3624 60.8747 85.0681 61.0708C84.8228 61.3161 84.4305 61.4142 83.8909 61.3651L83.1552 61.0708C82.91 60.9728 82.6647 60.9237 82.4195 60.9237C82.2233 60.9728 82.0271 60.8992 81.8309 60.703C81.4876 60.8011 81.2423 60.7766 81.0952 60.6294C80.899 60.4823 80.7273 60.2861 80.5802 60.0408C80.433 59.8446 80.3104 59.6239 80.2123 59.3787C80.1142 59.1334 79.9671 58.9373 79.7709 58.7901C79.5256 57.8092 79.5011 56.9263 79.6973 56.1415C79.8935 55.3077 80.1142 54.4739 80.3595 53.6401C80.4576 52.9534 80.6292 52.3158 80.8745 51.7272C81.1197 51.0896 81.3404 50.4274 81.5366 49.7407C81.7819 49.2012 82.1007 48.7107 82.4931 48.2693C82.9345 47.7788 83.2778 47.2638 83.5231 46.7243C83.9645 46.0376 84.3814 45.4245 84.7738 44.885C85.1662 44.3455 85.5831 43.7569 86.0245 43.1193C86.3679 42.874 86.6867 42.5062 86.9809 42.0157C87.3243 41.5252 87.8393 41.329 88.526 41.4271C89.0655 41.5252 89.5805 41.5252 90.071 41.4271C90.5615 41.28 91.0765 41.28 91.616 41.4271C91.7141 41.5252 91.9103 41.6233 92.2046 41.7214C92.5479 41.7704 92.8422 41.844 93.0874 41.9421C93.1365 41.9911 93.1855 42.0647 93.2346 42.1628C93.2836 42.2119 93.3572 42.2364 93.4553 42.2364C93.5534 42.2854 93.627 42.31 93.676 42.31C93.7251 42.2609 93.7986 42.2609 93.8967 42.31C94.0929 42.4081 94.2646 42.5307 94.4117 42.6778C94.5589 42.825 94.657 42.8985 94.706 42.8985C94.8041 42.7514 94.9267 42.5797 95.0739 42.3835C95.3682 41.9911 95.5644 41.7214 95.6625 41.5742C95.7115 41.5742 95.736 41.5007 95.736 41.3535C95.736 41.3045 95.7606 41.329 95.8096 41.4271C95.8587 41.4761 95.8832 41.4761 95.8832 41.4271C96.1284 41.0838 96.3246 40.7404 96.4718 40.3971C96.717 40.0047 96.9622 39.6614 97.2075 39.3671C97.4527 39.0237 97.6244 38.6559 97.7225 38.2635C97.7715 38.2635 97.7961 38.3125 97.7961 38.4106C97.7961 38.4597 97.8451 38.4597 97.9432 38.4106C97.8451 38.3125 97.8696 38.1899 98.0168 38.0428C98.1639 37.8466 98.262 37.6749 98.3111 37.5278C98.4091 37.6259 98.3846 37.724 98.2375 37.8221C98.0903 37.9202 98.0413 38.0673 98.0903 38.2635C98.3356 38.0673 98.4827 37.7975 98.5318 37.4542C98.5808 37.0618 98.7525 36.8166 99.0468 36.7185C99.0468 36.1299 99.292 35.7866 99.7825 35.6885C99.9296 35.247 100.126 34.8547 100.371 34.5113C100.616 34.168 100.837 33.7265 101.033 33.187H101.254C101.352 33.138 101.401 33.0399 101.401 32.8927C101.744 32.4022 102.137 31.7401 102.578 30.9063C103.069 30.0725 103.559 29.1896 104.05 28.2577C104.589 27.3258 105.08 26.4184 105.521 25.5355C106.012 24.6527 106.404 23.9415 106.698 23.4019C106.698 23.3038 106.674 23.2548 106.625 23.2548C106.625 23.2548 106.649 23.1812 106.698 23.0341L106.993 22.8133C106.993 22.7153 106.968 22.6417 106.919 22.5926C106.87 22.5436 106.845 22.47 106.845 22.3719C106.944 22.2248 107.042 22.1022 107.14 22.0041C107.238 21.8569 107.336 21.6852 107.434 21.489C107.777 21.489 107.974 21.5626 108.023 21.7098C108.366 21.8079 108.783 21.8814 109.273 21.9305C109.764 21.9795 110.205 22.0776 110.598 22.2248C110.696 22.2738 110.745 22.3474 110.745 22.4455C110.794 22.4945 110.843 22.5436 110.892 22.5926C111.039 22.6907 111.211 22.8133 111.407 22.9605C111.652 23.0586 111.726 23.3038 111.628 23.6962C111.628 23.7943 111.579 23.8924 111.48 23.9905C111.382 24.0886 111.284 24.1867 111.186 24.2848L110.965 25.2412C110.916 25.3884 110.794 25.511 110.598 25.6091C110.598 25.6581 110.598 25.7072 110.598 25.7562C110.647 25.7562 110.671 25.7808 110.671 25.8298C110.475 25.9279 110.328 26.075 110.23 26.2712L109.347 27.6691C109.347 27.6691 109.347 27.7182 109.347 27.8163C109.347 27.8653 109.224 28.086 108.979 28.4784C108.734 28.8217 108.464 29.2141 108.17 29.6556C107.924 30.097 107.679 30.5139 107.434 30.9063C107.189 31.2987 107.066 31.5194 107.066 31.5684C107.017 31.6175 106.944 31.8137 106.845 32.157C106.845 32.2061 106.796 32.2306 106.698 32.2306C106.649 32.2306 106.6 32.2551 106.551 32.3042C106.551 32.3532 106.551 32.4268 106.551 32.5249C106.551 32.623 106.502 32.6965 106.404 32.7456C106.502 32.8437 106.478 32.9418 106.33 33.0399C106.232 33.0889 106.159 33.1625 106.11 33.2606C106.012 33.5058 105.938 33.7511 105.889 33.9963C105.84 34.2416 105.766 34.4623 105.668 34.6585C105.57 34.8056 105.472 34.9527 105.374 35.0999C105.276 35.198 105.251 35.3697 105.3 35.6149H105.006C105.006 36.0073 104.883 36.3506 104.638 36.6449C104.442 36.9392 104.344 37.2825 104.344 37.6749C104.246 37.6749 104.197 37.6749 104.197 37.6749C104.197 37.6259 104.148 37.6013 104.05 37.6013C103.853 38.3861 103.584 39.0973 103.24 39.7349C102.897 40.3726 102.676 41.1083 102.578 41.9421C102.48 42.0892 102.382 42.2364 102.284 42.3835C102.235 42.4816 102.161 42.5797 102.063 42.6778C102.014 43.4626 101.892 44.1493 101.695 44.7378C101.548 45.3264 101.377 45.964 101.18 46.6507C101.18 46.8469 101.131 46.9695 101.033 47.0186C101.082 47.2638 101.033 47.5091 100.886 47.7543C100.935 48.1467 100.886 48.5391 100.739 48.9314C100.592 49.3238 100.494 49.7162 100.445 50.1086C100.445 50.2557 100.42 50.5255 100.371 50.9179C100.371 51.3103 100.347 51.7027 100.298 52.0951C100.248 52.4874 100.199 52.8798 100.15 53.2722C100.101 53.6155 100.052 53.8363 100.003 53.9344C100.101 54.5229 100.175 55.136 100.224 55.7737C100.322 56.3622 100.567 56.8282 100.96 57.1715C102.235 56.9753 103.388 56.5829 104.418 55.9944C105.497 55.4058 106.551 54.8172 107.581 54.2286C108.317 53.7382 109.077 53.2232 109.862 52.6836C110.696 52.0951 111.382 51.4574 111.922 50.7708C111.971 50.7708 111.995 50.7953 111.995 50.8443C112.192 50.7953 112.412 50.6727 112.658 50.4765C112.903 50.2312 113.099 50.0105 113.246 49.8143V50.1822C113.442 49.9369 113.663 49.7162 113.908 49.52C114.154 49.3238 114.325 49.1031 114.423 48.8579C114.521 48.9069 114.57 48.9069 114.57 48.8579C114.57 48.7598 114.62 48.7353 114.718 48.7843C115.061 48.2938 115.331 48.0241 115.527 47.975C115.723 47.926 116.017 47.6562 116.41 47.1657C116.655 47.3129 116.729 47.2638 116.631 47.0186C116.68 47.0186 116.753 47.0676 116.851 47.1657C116.949 47.1657 116.949 47.1412 116.851 47.0921C116.802 46.994 116.827 46.9205 116.925 46.8714C117.023 46.8714 117.096 46.9205 117.146 47.0186C117.244 47.0676 117.342 47.1167 117.44 47.1657C117.538 47.0186 117.587 46.8224 117.587 46.5771C117.636 46.3319 117.734 46.1848 117.881 46.1357C117.979 46.1357 118.028 46.2093 118.028 46.3564C118.077 46.5036 118.102 46.6262 118.102 46.7243C118.2 46.7243 118.274 46.7243 118.323 46.7243C118.421 46.6752 118.543 46.6507 118.691 46.6507C118.641 46.6998 118.617 46.7733 118.617 46.8714C118.617 46.9205 118.666 46.945 118.764 46.945C118.666 47.2393 118.494 47.6072 118.249 48.0486C118.004 48.441 117.734 48.8334 117.44 49.2257C117.146 49.5691 116.851 49.9124 116.557 50.2557C116.263 50.5991 116.017 50.8443 115.821 50.9915C115.821 51.2367 115.797 51.3839 115.748 51.4329C115.601 51.8743 115.257 52.2912 114.718 52.6836C114.178 53.027 113.712 53.4439 113.32 53.9344C113.32 53.6891 113.467 53.4929 113.761 53.3458C114.105 53.1986 114.301 52.9534 114.35 52.6101C114.105 52.8553 113.835 53.1005 113.54 53.3458C113.295 53.542 113.05 53.7627 112.805 54.0079C112.805 54.106 112.731 54.1551 112.584 54.1551C112.388 54.3513 112.192 54.5965 111.995 54.8908C111.652 54.9398 111.431 55.0379 111.333 55.1851C111.235 55.2832 111.137 55.4058 111.039 55.5529C111.088 55.5529 111.039 55.651 110.892 55.8472C110.794 55.8963 110.745 55.9208 110.745 55.9208C110.745 55.8718 110.72 55.8472 110.671 55.8472C110.769 55.7491 110.843 55.7001 110.892 55.7001C110.843 55.602 110.72 55.651 110.524 55.8472C110.426 55.8963 110.303 55.9944 110.156 56.1415H110.083ZM87.9374 53.2722C88.526 52.3403 89.1145 51.4084 89.7031 50.4765C90.3407 49.5446 91.0274 48.6617 91.7631 47.8279C91.8612 47.4355 92.0329 47.1167 92.2781 46.8714C92.5724 46.5771 92.7931 46.2338 92.9403 45.8414C93.0384 45.8414 93.0629 45.8169 93.0139 45.7678C92.8177 45.3264 92.597 44.9095 92.3517 44.5171C92.1065 44.1247 91.7877 43.8059 91.3953 43.5607C90.7086 43.5116 90.2427 43.6833 89.9974 44.0757C89.7522 44.419 89.4088 44.6888 88.9674 44.885C88.7712 45.4245 88.526 45.915 88.2317 46.3564C87.9374 46.7488 87.6431 47.1657 87.3488 47.6072C87.0545 48.0486 86.7848 48.5145 86.5395 49.005C86.2943 49.4465 86.1226 49.9615 86.0245 50.55C85.7793 50.9424 85.5586 51.3593 85.3624 51.8008C85.2152 52.1931 85.019 52.5365 84.7738 52.8308C84.8228 52.9779 84.7983 53.1251 84.7002 53.2722C84.6512 53.3703 84.6021 53.4439 84.5531 53.4929C84.5531 53.6401 84.5285 53.7627 84.4795 53.8608C84.4305 53.9098 84.4305 54.0324 84.4795 54.2286C84.1362 54.621 83.9154 55.1115 83.8173 55.7001C83.7683 56.2396 83.6702 56.8037 83.5231 57.3922C83.6212 57.5394 83.6702 57.7111 83.6702 57.9072C83.6702 58.1034 83.7193 58.2506 83.8173 58.3487C84.5531 57.5639 85.2643 56.7791 85.9509 55.9944C86.6867 55.1606 87.3488 54.2532 87.9374 53.2722ZM100.077 36.4978C99.9787 36.743 99.8561 36.9392 99.7089 37.0863C99.6108 37.1844 99.5127 37.3561 99.4146 37.6013C99.5618 37.5032 99.7334 37.3316 99.9296 37.0863C100.126 36.8411 100.175 36.6449 100.077 36.4978ZM111.922 54.4494C111.971 54.3513 112.02 54.2777 112.069 54.2286C112.167 54.1305 112.167 54.0324 112.069 53.9344C112.02 54.0324 111.946 54.106 111.848 54.1551C111.799 54.2041 111.824 54.3022 111.922 54.4494ZM114.718 52.3158C114.865 52.3158 115.036 52.1686 115.233 51.8743C114.987 51.9724 114.889 51.997 114.938 51.9479C115.036 51.8498 114.963 51.9724 114.718 52.3158ZM110.818 55.3322C110.916 55.3322 110.965 55.1606 110.965 54.8172C110.818 54.8663 110.769 55.0379 110.818 55.3322ZM109.935 56.3622L110.671 55.8472H110.524C110.426 55.9944 110.328 56.0679 110.23 56.0679L110.156 56.1415H110.083L109.935 56.3622ZM114.497 52.6101C114.497 52.512 114.521 52.4629 114.57 52.4629C114.669 52.4629 114.718 52.4139 114.718 52.3158C114.57 52.3158 114.472 52.3648 114.423 52.4629C114.374 52.561 114.399 52.6101 114.497 52.6101ZM110.818 54.5229C110.965 54.5229 111.015 54.4003 110.965 54.1551C110.916 54.2041 110.892 54.2532 110.892 54.3022C110.843 54.3513 110.818 54.4248 110.818 54.5229Z" fill="#016C55"/>
<path d="M149.095 45.0321V45.1057C149.144 45.2038 149.144 45.2774 149.095 45.3264C149.095 45.3755 149.095 45.449 149.095 45.5471L148.948 45.8414V45.915C148.85 46.0131 148.777 46.1112 148.728 46.2093C148.728 46.2583 148.703 46.3074 148.654 46.3564H148.875L149.022 46.2093H149.095C149.095 46.3074 149.12 46.381 149.169 46.43C149.218 46.43 149.218 46.479 149.169 46.5771C149.12 46.5281 149.022 46.5036 148.875 46.5036C148.875 46.6998 148.899 46.7979 148.948 46.7979C148.85 46.7979 148.801 46.7979 148.801 46.7979C148.85 46.7488 148.826 46.6998 148.728 46.6507C148.629 46.7488 148.654 46.8469 148.801 46.945C148.948 47.0431 149.071 47.0921 149.169 47.0921C149.169 47.3374 149.071 47.4845 148.875 47.5336C148.727 47.5826 148.703 47.7052 148.801 47.9014C148.556 48.0486 148.311 48.1957 148.065 48.3429C147.82 48.49 147.648 48.6617 147.55 48.8579C147.158 48.956 146.888 49.1522 146.741 49.4465C146.643 49.7407 146.422 49.9615 146.079 50.1086C146.079 50.0596 146.054 50.0596 146.005 50.1086L145.564 50.3293C145.515 50.3293 145.49 50.3293 145.49 50.3293C145.49 50.2803 145.466 50.2557 145.417 50.2557C145.319 50.3538 145.049 50.4765 144.607 50.6236C144.215 50.7217 144.019 50.8198 144.019 50.9179C143.97 50.9179 143.945 50.9179 143.945 50.9179C143.945 50.8688 143.896 50.8443 143.798 50.8443C143.455 51.0405 143.259 51.3103 143.21 51.6536V51.5065C143.013 51.6536 142.842 51.8008 142.695 51.9479C142.547 52.0951 142.351 52.2177 142.106 52.3158C142.057 52.2667 142.032 52.2422 142.032 52.2422C142.081 52.1931 142.057 52.1686 141.959 52.1686C141.812 52.1686 141.738 52.2912 141.738 52.5365C141.493 52.6346 141.297 52.7817 141.15 52.9779C141.002 53.1741 140.806 53.3458 140.561 53.4929C140.61 53.4439 140.635 53.3948 140.635 53.3458C140.635 53.2967 140.61 53.2477 140.561 53.1986L140.267 53.5665C140.169 53.5174 140.071 53.591 139.972 53.7872C139.923 53.9344 139.85 53.9834 139.752 53.9344C139.654 54.0815 139.433 54.2286 139.09 54.3758C138.795 54.5229 138.452 54.6701 138.06 54.8172C137.716 54.9644 137.397 55.136 137.103 55.3322C136.809 55.4794 136.637 55.6265 136.588 55.7737C136.245 55.6756 135.975 55.8227 135.779 56.2151C135.632 56.5584 135.46 56.7546 135.264 56.8037C135.215 56.8527 135.19 56.9018 135.19 56.9508C135.19 56.9999 135.166 57.0734 135.117 57.1715C134.675 57.1715 134.332 57.4168 134.087 57.9072V57.8337C134.038 57.8337 134.013 57.8582 134.013 57.9072C133.915 58.0053 133.817 58.128 133.719 58.2751C133.67 58.3732 133.523 58.3977 133.277 58.3487C133.179 58.643 132.959 58.8637 132.615 59.0108C132.321 59.207 132.125 59.5013 132.027 59.8937H131.806C131.61 60.0899 131.463 60.2125 131.364 60.2616C131.315 60.3106 131.242 60.3597 131.144 60.4087C131.095 60.4577 131.021 60.5068 130.923 60.5558C130.825 60.6539 130.702 60.8011 130.555 60.9973C130.457 61.1935 130.408 61.2916 130.408 61.2916V61.3651L130.849 60.9237C130.948 61.1689 130.899 61.2916 130.702 61.2916C130.555 61.3406 130.506 61.4878 130.555 61.733H130.482C130.433 61.782 130.408 61.8066 130.408 61.8066C130.506 61.9537 130.482 62.0763 130.334 62.1744C130.236 62.3216 130.212 62.4932 130.261 62.6894C130.261 62.7385 130.212 62.7385 130.114 62.6894C130.065 62.6894 130.065 62.7385 130.114 62.8366C130.065 62.9347 130.065 62.9592 130.114 62.9101C130.212 62.9101 130.261 62.9347 130.261 62.9837C130.163 63.1799 130.089 63.3516 130.04 63.4987C129.991 63.6459 129.967 63.8175 129.967 64.0137C129.869 64.0137 129.844 63.9647 129.893 63.8666C129.942 63.8175 129.942 63.793 129.893 63.793C129.795 63.9402 129.672 64.0628 129.525 64.1609C129.378 64.308 129.354 64.5042 129.452 64.7495C129.55 64.6514 129.599 64.5287 129.599 64.3816C129.599 64.2345 129.721 64.1364 129.967 64.0873C129.918 64.3325 129.869 64.5533 129.819 64.7495C129.77 64.9947 129.623 65.1664 129.378 65.2645C129.378 65.3626 129.378 65.4116 129.378 65.4116C129.427 65.4116 129.452 65.4361 129.452 65.4852C129.059 65.5833 128.888 65.7549 128.937 66.0002C129.035 66.2454 128.937 66.4661 128.642 66.6623C128.642 67.0547 128.618 67.349 128.569 67.5452C128.569 67.7904 128.471 68.0357 128.274 68.2809H128.054C127.956 68.5262 127.907 68.7469 127.907 68.9431C127.956 69.1393 127.907 69.2864 127.759 69.3845C127.759 69.4826 127.784 69.5316 127.833 69.5316C127.882 69.5807 127.907 69.6788 127.907 69.8259C127.808 69.875 127.71 69.8995 127.612 69.8995C127.563 69.8995 127.514 69.924 127.465 69.9731C127.563 70.1202 127.539 70.2183 127.392 70.2674C127.244 70.3164 127.22 70.4145 127.318 70.5617C127.416 70.4636 127.514 70.4145 127.612 70.4145C127.71 70.4145 127.784 70.39 127.833 70.3409C127.833 70.439 127.808 70.5126 127.759 70.5617C127.71 70.6107 127.686 70.6598 127.686 70.7088C127.441 70.7088 127.269 70.7578 127.171 70.8559C127.122 70.954 127.073 71.0521 127.024 71.1502C127.122 71.1502 127.195 71.1257 127.244 71.0767C127.343 71.0276 127.441 71.0031 127.539 71.0031C127.441 71.1012 127.293 71.1993 127.097 71.2974C126.95 71.4445 126.828 71.5671 126.729 71.6652C126.68 71.7633 126.631 71.8614 126.582 71.9595C126.533 72.1067 126.558 72.1802 126.656 72.1802C126.754 72.1802 126.778 72.1312 126.729 72.0331C126.729 71.935 126.778 71.8369 126.877 71.7388C126.975 71.8369 127.048 71.8369 127.097 71.7388C127.146 71.6407 127.22 71.6162 127.318 71.6652C127.269 71.7633 127.195 71.8369 127.097 71.886C127.048 71.935 127.024 71.984 127.024 72.0331V72.1802C126.828 72.2783 126.705 72.401 126.656 72.5481C126.607 72.7443 126.533 72.9405 126.435 73.1367C126.435 73.1857 126.46 73.2348 126.509 73.2838H126.435C126.386 73.3819 126.337 73.48 126.288 73.5781C126.288 73.7253 126.239 73.8479 126.141 73.946C126.043 73.946 125.945 73.995 125.847 74.0931C125.748 74.1912 125.748 74.2893 125.847 74.3874C125.945 74.3874 125.994 74.2893 125.994 74.0931C126.092 74.2893 126.092 74.4365 125.994 74.5345C125.896 74.6817 125.847 74.8779 125.847 75.1231C125.601 75.1722 125.479 75.2703 125.479 75.4174C125.479 75.5646 125.405 75.6627 125.258 75.7117C125.307 75.9569 125.233 76.1286 125.037 76.2267C124.841 76.3248 124.792 76.521 124.89 76.8153C124.743 76.8153 124.669 76.8643 124.669 76.9624H124.743C124.694 77.0605 124.645 77.1341 124.596 77.1831C124.547 77.2322 124.522 77.3058 124.522 77.4039C124.522 77.4529 124.547 77.4284 124.596 77.3303C124.645 77.2812 124.694 77.3058 124.743 77.4039C124.743 77.502 124.596 77.6001 124.302 77.6981C124.253 77.9434 124.179 78.1641 124.081 78.3603C123.983 78.6055 123.811 78.8017 123.566 78.9489C123.566 79.047 123.615 79.0715 123.713 79.0224C123.811 79.0224 123.836 79.0715 123.787 79.1696C123.688 79.2677 123.541 79.3167 123.345 79.3167C123.198 79.3658 123.149 79.4639 123.198 79.611C123.198 79.7091 123.223 79.7091 123.272 79.611C123.37 79.562 123.443 79.5865 123.492 79.6846L122.462 80.7882C122.511 80.7882 122.536 80.8372 122.536 80.9353C122.291 81.1806 122.094 81.4258 121.947 81.671C121.8 81.9653 121.677 82.2351 121.579 82.4803H121.359C121.015 82.9708 120.623 83.4368 120.182 83.8782C119.74 84.3196 119.299 84.7611 118.857 85.2025C118.514 85.2025 118.293 85.2516 118.195 85.3497C118.097 85.4477 117.999 85.5949 117.901 85.7911C117.656 85.7911 117.41 85.8401 117.165 85.9382C116.92 86.0363 116.699 86.0854 116.503 86.0854C116.258 86.1344 116.012 86.1344 115.767 86.0854C115.571 86.0363 115.35 86.0118 115.105 86.0118H114.222L112.971 85.7175C112.726 85.6194 112.505 85.5458 112.309 85.4968C112.064 85.4477 111.794 85.4232 111.5 85.4232C111.353 85.4232 111.279 85.3496 111.279 85.2025V84.6875C111.377 84.7365 111.451 84.8346 111.5 84.9818C111.5 85.1289 111.574 85.2025 111.721 85.2025C111.819 85.0063 111.819 84.8837 111.721 84.8346C111.623 84.7856 111.549 84.7365 111.5 84.6875C111.549 84.4913 111.574 84.2706 111.574 84.0254C111.525 83.8292 111.5 83.633 111.5 83.4368C111.451 83.3877 111.426 83.3632 111.426 83.3632C111.377 83.3632 111.353 83.3877 111.353 83.4368C111.794 81.0334 112.456 78.9734 113.339 77.2567C113.388 77.3058 113.388 77.3548 113.339 77.4039C113.29 77.4529 113.29 77.502 113.339 77.551C114.271 75.491 115.203 73.6026 116.135 71.886C117.067 70.2183 118.072 68.6243 119.152 67.1038C120.231 65.5833 121.432 64.1364 122.757 62.763C124.081 61.3897 125.601 59.9918 127.318 58.5694C127.71 57.2941 128.078 55.9453 128.422 54.5229C128.765 53.0515 129.01 51.8743 129.157 50.9915C129.157 50.8934 129.133 50.9179 129.084 51.065C129.035 51.2122 129.01 51.2367 129.01 51.1386C129.108 50.6481 129.206 50.2312 129.304 49.8879C129.403 49.4955 129.452 49.1031 129.452 48.7107C129.157 49.1031 128.888 49.4955 128.642 49.8879C128.397 50.2803 128.078 50.5991 127.686 50.8443C127.539 51.3348 127.195 51.7027 126.656 51.9479C126.558 52.2912 126.386 52.5855 126.141 52.8308C125.896 53.027 125.626 53.2477 125.332 53.4929C124.988 53.8363 124.645 54.2532 124.302 54.7436C123.958 55.2341 123.59 55.7001 123.198 56.1415C122.757 56.5339 122.266 56.9263 121.727 57.3187C121.187 57.7111 120.574 57.9318 119.887 57.9808C119.397 58.0789 119.029 58.0789 118.784 57.9808C118.587 57.8827 118.293 57.7601 117.901 57.613C117.656 57.5149 117.361 57.4413 117.018 57.3922C116.724 57.3432 116.478 57.2451 116.282 57.098C116.037 56.9508 115.816 56.632 115.62 56.1415C115.473 55.602 115.399 55.136 115.399 54.7436C115.301 52.6346 115.473 50.6481 115.914 48.7843C116.405 46.9205 116.895 45.1302 117.386 43.4135C117.533 42.874 117.705 42.3345 117.901 41.795C118.097 41.2064 118.195 40.6423 118.195 40.1028L118.931 39.8085H119.593V39.8821C119.789 39.9802 119.961 40.0047 120.108 39.9556C120.255 39.9066 120.451 39.9311 120.697 40.0292C120.844 40.0783 121.015 40.2009 121.212 40.3971C121.408 40.5442 121.555 40.7159 121.653 40.9121C121.702 41.0102 121.677 41.1328 121.579 41.28C121.53 41.4271 121.628 41.5252 121.874 41.5742C121.776 41.9666 121.702 42.3835 121.653 42.825C121.653 43.2664 121.555 43.6588 121.359 44.0021C121.359 44.1002 121.334 44.1738 121.285 44.2228C121.236 44.2719 121.187 44.37 121.138 44.5171C121.04 44.6643 120.966 44.8605 120.917 45.1057C120.917 45.3019 120.868 45.5471 120.77 45.8414C120.721 46.0376 120.672 46.2338 120.623 46.43C120.574 46.5771 120.5 46.7733 120.402 47.0186C120.206 47.46 120.083 47.9014 120.034 48.3429C119.985 48.7843 119.936 49.2012 119.887 49.5936C119.642 50.5746 119.421 51.5065 119.225 52.3893C119.029 53.2722 118.931 54.2041 118.931 55.1851C120.746 53.7136 122.487 52.0215 124.154 50.1086C125.871 48.1957 127.588 46.3564 129.304 44.5907C129.55 44.2964 129.795 44.0266 130.04 43.7814C130.334 43.4871 130.531 43.2419 130.629 43.0457C130.825 42.7023 130.972 42.3345 131.07 41.9421C131.217 41.5497 131.438 41.3045 131.732 41.2064C131.929 41.2064 132.1 41.2554 132.247 41.3535C132.444 41.4516 132.64 41.4026 132.836 41.2064C133.13 41.4026 133.523 41.5497 134.013 41.6478C134.504 41.6969 134.871 41.8685 135.117 42.1628C135.215 42.8985 135.141 43.6097 134.896 44.2964C134.7 44.934 134.553 45.6207 134.455 46.3564C134.405 46.6507 134.258 47.2393 134.013 48.1222C133.768 49.005 133.498 49.9615 133.204 50.9915C132.909 51.9724 132.615 52.9043 132.321 53.7872C132.076 54.621 131.929 55.136 131.879 55.3322C132.37 55.087 132.909 54.7927 133.498 54.4494C134.087 54.106 134.626 53.7627 135.117 53.4193C135.215 53.3703 135.264 53.3703 135.264 53.4193C135.264 53.4684 135.288 53.4684 135.337 53.4193C135.583 53.2722 135.901 53.076 136.294 52.8308C136.735 52.5365 137.177 52.2422 137.618 51.9479C138.109 51.6536 138.55 51.3593 138.942 51.065C139.335 50.7708 139.654 50.55 139.899 50.4029H140.12C140.218 50.4029 140.242 50.4029 140.193 50.4029C140.144 50.3538 140.144 50.3293 140.193 50.3293C140.536 50.3293 140.782 50.2312 140.929 50.035C141.076 49.7898 141.223 49.5936 141.37 49.4465C141.468 49.4955 141.444 49.5446 141.297 49.5936C141.199 49.6426 141.199 49.6672 141.297 49.6672C141.493 49.6672 141.591 49.5446 141.591 49.2993C141.885 49.2993 142.081 49.2257 142.18 49.0786C142.278 48.9315 142.376 48.7843 142.474 48.6372C142.572 48.5881 142.67 48.5391 142.768 48.49C142.866 48.3919 142.964 48.3183 143.062 48.2693V48.49C143.406 48.3429 143.823 48.1712 144.313 47.975C144.804 47.7298 145.098 47.4355 145.196 47.0921C145.245 47.0921 145.27 47.1167 145.27 47.1657C145.319 47.2148 145.392 47.2148 145.49 47.1657C145.539 47.0676 145.539 46.9941 145.49 46.945C145.49 46.896 145.539 46.8714 145.637 46.8714C145.785 46.8224 145.883 46.7733 145.932 46.7243C146.03 46.6752 146.128 46.6507 146.226 46.6507C146.471 46.2093 146.913 45.915 147.55 45.7678C148.188 45.5717 148.678 45.3264 149.022 45.0321H149.095ZM125.405 64.823C125.454 64.774 125.454 64.7495 125.405 64.7495C125.356 64.8476 125.307 64.7985 125.258 64.6023C125.209 64.4552 125.135 64.4552 125.037 64.6023L123.272 66.7359C123.124 66.785 123.026 66.8585 122.977 66.9566C122.928 67.1038 122.855 67.2264 122.757 67.3245C122.757 67.5207 122.707 67.6188 122.609 67.6188C122.609 67.5697 122.634 67.5452 122.683 67.5452C122.732 67.5452 122.732 67.4961 122.683 67.3981C122.34 67.6433 122.094 67.9131 121.947 68.2073C121.8 68.5507 121.628 68.845 121.432 69.0902C121.383 69.0902 121.359 69.0657 121.359 69.0166C121.359 69.0166 121.334 69.0166 121.285 69.0166C121.04 69.409 120.819 69.8014 120.623 70.1938C120.476 70.5862 120.28 70.9786 120.034 71.3709C120.034 71.2728 120.01 71.2483 119.961 71.2974C119.863 71.3464 119.814 71.3955 119.814 71.4445C119.814 71.5426 119.789 71.6162 119.74 71.6652C119.642 71.7143 119.617 71.7143 119.667 71.6652C119.716 71.6162 119.691 71.5917 119.593 71.5917C119.495 71.8859 119.372 72.2048 119.225 72.5481C119.078 72.9405 118.98 73.3329 118.931 73.7253C118.931 73.7253 118.857 73.7253 118.71 73.7253C118.661 73.9705 118.563 74.1667 118.416 74.3138C118.318 74.51 118.195 74.6817 118.048 74.8288V74.6817C117.95 75.025 117.803 75.3438 117.606 75.6381C117.41 75.9815 117.239 76.3248 117.091 76.6681C116.993 76.6681 116.969 76.6436 117.018 76.5946C117.067 76.5946 117.042 76.5946 116.944 76.5946C116.748 77.1341 116.552 77.6736 116.356 78.2132C116.16 78.8017 115.988 79.4148 115.841 80.0525C115.743 80.0525 115.694 80.0279 115.694 79.9789C115.743 79.9789 115.718 79.9789 115.62 79.9789C115.571 80.2241 115.522 80.4203 115.473 80.5675C115.424 80.7146 115.399 80.9108 115.399 81.156H115.252C115.203 81.2051 115.179 81.2296 115.179 81.2296C115.228 81.5729 115.179 81.8672 115.031 82.1125C114.884 82.4068 114.86 82.7256 114.958 83.0689C115.007 83.118 115.056 83.1915 115.105 83.2896C115.154 83.3877 115.252 83.4613 115.399 83.5103C115.497 83.5594 115.596 83.5103 115.694 83.3632C115.841 83.2161 115.963 83.118 116.061 83.0689C116.16 82.9708 116.282 82.8727 116.429 82.7746C116.576 82.7256 116.699 82.652 116.797 82.5539C116.797 82.3577 116.846 82.2106 116.944 82.1125C117.091 82.1125 117.19 82.088 117.239 82.0389C117.337 81.9899 117.435 81.9653 117.533 81.9653C117.631 81.8672 117.729 81.7201 117.827 81.5239C117.925 81.3768 118.048 81.3277 118.195 81.3768V81.0825C118.244 81.0334 118.318 80.9598 118.416 80.8617C118.563 80.8127 118.686 80.7882 118.784 80.7882C119.078 79.9544 119.495 79.2186 120.034 78.581C120.574 77.9434 120.966 77.2077 121.212 76.3738C121.408 76.2758 121.53 76.1286 121.579 75.9324C121.628 75.7362 121.727 75.5646 121.874 75.4174V75.1967C121.972 74.9515 122.094 74.7062 122.242 74.461C122.438 74.2157 122.585 73.9705 122.683 73.7253L123.419 72.1802C123.517 72.0331 123.566 71.8614 123.566 71.6652C123.566 71.5181 123.615 71.3464 123.713 71.1502C123.86 70.7088 124.032 70.2428 124.228 69.7524C124.473 69.3109 124.62 68.8204 124.669 68.2809C124.866 68.1338 124.964 67.9131 124.964 67.6188C125.013 67.3735 125.086 67.0792 125.184 66.7359C125.332 66.1964 125.503 65.7549 125.699 65.4116C125.945 65.0683 126.141 64.6514 126.288 64.1609C126.141 64.2099 126.018 64.308 125.92 64.4552C125.822 64.6514 125.65 64.774 125.405 64.823ZM149.095 45.0321V45.1057C149.144 45.2038 149.144 45.2774 149.095 45.3264C149.095 45.3755 149.095 45.449 149.095 45.5471L148.948 45.8414V45.915C148.85 46.0131 148.777 46.1112 148.728 46.2093C148.728 46.2583 148.703 46.3074 148.654 46.3564H148.875L149.022 46.2093L149.463 46.1357L149.316 44.9586L149.095 45.0321ZM111.574 84.3196V84.6139C111.672 84.5649 111.721 84.5404 111.721 84.5404V84.3932L111.647 84.3196H111.574ZM111.574 84.6139C111.672 84.5649 111.721 84.5404 111.721 84.5404V84.3932L111.647 84.3196H111.574V84.6139ZM149.463 46.1357V46.2093C149.365 46.2093 149.292 46.2338 149.243 46.2829C149.243 46.2829 149.193 46.2583 149.095 46.2093L149.463 46.1357Z" fill="#016C55"/>
<path d="M136.933 76.8402V74.9138H147.804V76.8402H143.386V94.7307H141.365V76.8402H136.933Z" fill="#4D4D4D"/>
<path d="M149.623 80.0734H151.549V82.2154C152.124 81.3712 152.73 80.7425 153.368 80.3294C154.006 79.9073 154.67 79.6962 155.362 79.6962C155.883 79.6962 156.44 79.8624 157.032 80.1947L156.049 81.7843C155.654 81.6137 155.322 81.5284 155.052 81.5284C154.423 81.5284 153.817 81.7888 153.233 82.3097C152.65 82.8217 152.205 83.621 151.9 84.7077C151.666 85.5429 151.549 87.2314 151.549 89.7731V94.7307H149.623V80.0734Z" fill="#4D4D4D"/>
<path d="M170.976 89.8674L172.565 90.7026C172.044 91.7265 171.443 92.5527 170.76 93.1814C170.078 93.8101 169.31 94.2906 168.456 94.6229C167.603 94.9462 166.638 95.1079 165.56 95.1079C163.171 95.1079 161.303 94.3265 159.956 92.7638C158.609 91.1921 157.935 89.4183 157.935 87.4425C157.935 85.5834 158.505 83.9263 159.646 82.4714C161.092 80.6213 163.027 79.6962 165.452 79.6962C167.949 79.6962 169.943 80.6437 171.434 82.5388C172.493 83.8769 173.032 85.5474 173.05 87.5502H159.875C159.911 89.2566 160.454 90.6577 161.505 91.7534C162.556 92.8401 163.854 93.3835 165.398 93.3835C166.144 93.3835 166.867 93.2533 167.567 92.9928C168.277 92.7323 168.879 92.3866 169.372 91.9555C169.866 91.5244 170.401 90.8283 170.976 89.8674ZM170.976 85.9202C170.724 84.9143 170.356 84.1105 169.871 83.5087C169.395 82.907 168.762 82.422 167.971 82.0538C167.181 81.6855 166.35 81.5014 165.479 81.5014C164.042 81.5014 162.807 81.964 161.774 82.889C161.02 83.5626 160.45 84.573 160.064 85.9202H170.976Z" fill="#4D4D4D"/>
<path d="M191.183 80.0734V94.7307H189.324V92.2114C188.534 93.1724 187.645 93.8954 186.657 94.3804C185.678 94.8654 184.605 95.1079 183.437 95.1079C181.362 95.1079 179.589 94.3579 178.116 92.8581C176.652 91.3493 175.92 89.5171 175.92 87.3616C175.92 85.2511 176.661 83.4458 178.143 81.946C179.624 80.4461 181.407 79.6962 183.491 79.6962C184.694 79.6962 185.781 79.9522 186.751 80.4641C187.73 80.976 188.588 81.7439 189.324 82.7678V80.0734H191.183ZM183.639 81.5149C182.588 81.5149 181.618 81.7754 180.729 82.2963C179.84 82.8082 179.131 83.5312 178.601 84.4652C178.08 85.3992 177.819 86.3872 177.819 87.429C177.819 88.4618 178.084 89.4497 178.614 90.3928C179.144 91.3358 179.853 92.0722 180.743 92.6021C181.641 93.123 182.602 93.3835 183.626 93.3835C184.658 93.3835 185.637 93.123 186.562 92.6021C187.487 92.0812 188.197 91.3762 188.691 90.4871C189.194 89.5979 189.445 88.5965 189.445 87.4829C189.445 85.7854 188.884 84.3664 187.761 83.2258C186.648 82.0852 185.274 81.5149 183.639 81.5149Z" fill="#4D4D4D"/>
<path d="M197.084 74.6309H198.983V80.0734H201.974V81.69H198.983V94.7307H197.084V81.69H194.511V80.0734H197.084V74.6309Z" fill="#4D4D4D"/>
<path d="M204.776 80.0734H206.649V82.6061C207.304 81.6721 207.978 80.9895 208.669 80.5584C209.621 79.9836 210.623 79.6962 211.674 79.6962C212.383 79.6962 213.057 79.8354 213.694 80.1138C214.332 80.3923 214.853 80.765 215.257 81.232C215.661 81.69 216.012 82.3501 216.308 83.2123C216.937 82.0628 217.722 81.1916 218.665 80.5988C219.609 79.9971 220.623 79.6962 221.71 79.6962C222.725 79.6962 223.619 79.9522 224.391 80.4641C225.172 80.976 225.752 81.69 226.129 82.6061C226.506 83.5222 226.695 84.8963 226.695 86.7285V94.7307H224.768V86.7285C224.768 85.1568 224.656 84.079 224.431 83.4952C224.207 82.9025 223.821 82.4265 223.273 82.0672C222.734 81.708 222.087 81.5284 221.333 81.5284C220.417 81.5284 219.577 81.7978 218.814 82.3367C218.059 82.8755 217.507 83.594 217.157 84.4922C216.806 85.3903 216.631 86.8901 216.631 88.9917V94.7307H214.759V87.2269C214.759 85.4576 214.646 84.2586 214.422 83.63C214.206 82.9923 213.825 82.4849 213.277 82.1077C212.729 81.7215 212.078 81.5284 211.323 81.5284C210.452 81.5284 209.635 81.7933 208.872 82.3232C208.117 82.8441 207.556 83.5491 207.188 84.4383C206.828 85.3274 206.649 86.688 206.649 88.5202V94.7307H204.776V80.0734Z" fill="#4D4D4D"/>
<path d="M243.022 89.8674L244.612 90.7026C244.091 91.7265 243.489 92.5527 242.807 93.1814C242.124 93.8101 241.356 94.2906 240.503 94.6229C239.65 94.9462 238.684 95.1079 237.607 95.1079C235.218 95.1079 233.35 94.3265 232.002 92.7638C230.655 91.1921 229.982 89.4183 229.982 87.4425C229.982 85.5834 230.552 83.9263 231.693 82.4714C233.139 80.6213 235.074 79.6962 237.499 79.6962C239.996 79.6962 241.99 80.6437 243.48 82.5388C244.54 83.8769 245.079 85.5474 245.097 87.5502H231.922C231.958 89.2566 232.501 90.6577 233.552 91.7534C234.603 92.8401 235.9 93.3835 237.445 93.3835C238.19 93.3835 238.913 93.2533 239.614 92.9928C240.324 92.7323 240.925 92.3866 241.419 91.9555C241.913 91.5244 242.448 90.8283 243.022 89.8674ZM243.022 85.9202C242.771 84.9143 242.403 84.1105 241.918 83.5087C241.442 82.907 240.808 82.422 240.018 82.0538C239.228 81.6855 238.397 81.5014 237.526 81.5014C236.089 81.5014 234.854 81.964 233.821 82.889C233.067 83.5626 232.496 84.573 232.11 85.9202H243.022Z" fill="#4D4D4D"/>
<path d="M248.627 80.0734H250.513V82.7004C251.267 81.6945 252.102 80.9446 253.018 80.4506C253.934 79.9477 254.931 79.6962 256.009 79.6962C257.105 79.6962 258.075 79.9746 258.919 80.5315C259.772 81.0883 260.401 81.8382 260.805 82.7812C261.209 83.7243 261.411 85.1927 261.411 87.1865V94.7307H259.539V87.7388C259.539 86.0504 259.467 84.9232 259.323 84.3574C259.099 83.3875 258.676 82.66 258.057 82.175C257.437 81.6811 256.629 81.4341 255.632 81.4341C254.491 81.4341 253.467 81.8113 252.56 82.5657C251.662 83.3201 251.069 84.2542 250.782 85.3678C250.602 86.0953 250.513 87.4245 250.513 89.3554V94.7307H248.627V80.0734Z" fill="#4D4D4D"/>
<path d="M267.11 74.6309H269.009V80.0734H272V81.69H269.009V94.7307H267.11V81.69H264.537V80.0734H267.11V74.6309Z" fill="#4D4D4D"/>
<path d="M170.558 16.8971C170.353 18.0092 171.102 19.2718 171.499 19.945C171.83 20.4719 172.235 20.948 172.703 21.3581C172.891 21.5505 173.092 21.7762 173.481 22.232C176.357 25.5767 177.348 27.8679 177.348 27.8679C177.925 29.2443 178.295 30.6982 178.448 32.1826C178.651 34.4187 178.393 36.6726 177.691 38.8052C177.258 40.2037 176.698 41.5598 176.019 42.8566C175.697 43.4323 175.326 43.9792 174.911 44.4913C174.304 45.3526 173.995 45.6787 173.506 46.3978C173.366 46.627 173.246 46.8676 173.146 47.1169C171.198 51.2143 170.68 56.0098 173.008 59.8145C173.783 61.1184 174.809 62.2553 176.027 63.1592C176.826 63.7404 180.087 66.2531 184.447 65.7138C190.384 64.9779 192.947 59.4424 193.052 59.2082C194.252 56.4739 193.913 53.773 193.746 52.4686C193.561 51.0379 193.184 49.6386 192.625 48.3085C191.923 46.6361 191.4 46.1762 189.699 43.1116C189.115 42.1225 188.583 41.1038 188.106 40.0595C187.382 38.3286 186.475 36.1503 186.747 33.3909C186.928 31.8367 187.378 30.3259 188.076 28.9256C188.148 28.7751 188.135 28.8128 188.398 28.3194C188.662 27.8261 189.494 25.4555 190.715 23.7204C191.371 22.8355 192.141 22.0413 193.006 21.3581C193.65 20.869 193.896 20.8021 194.26 20.3631C194.887 19.6314 195.381 18.444 195.134 17.3988C194.795 15.9856 193.223 15.2623 191.471 14.4428C189.636 13.6105 187.677 13.0811 185.672 12.875C183.171 12.5192 180.627 12.5828 178.147 13.0631C175.948 13.4854 171.014 14.4345 170.558 16.8971Z" fill="#F4D5CA"/>
<path d="M187.805 2C187.38 2.62989 187.152 3.37241 187.152 4.13228C187.164 4.55069 187.262 4.96217 187.441 5.34058C187.659 5.77183 187.954 6.15996 188.31 6.48616C188.611 6.74662 188.933 6.98157 189.272 7.18855C189.485 7.32653 189.724 7.44777 189.979 7.58156C190.523 7.85286 191.081 8.09568 191.651 8.30905C192.851 8.77313 194.16 9.18705 195.414 9.73475C196.034 9.99598 196.623 10.3255 197.17 10.7173C197.675 11.1061 198.101 11.5888 198.424 12.1388C199.023 13.2422 199.254 14.5074 199.085 15.7511C198.951 16.8612 198.692 17.9525 198.311 19.0039C197.722 20.9397 197.387 22.194 197.387 22.194C197.387 22.194 197.308 22.5159 197.162 23.0803C197.015 23.6448 196.827 24.4726 196.668 25.4886C196.475 26.6574 196.356 27.8375 196.313 29.0215C196.263 30.3343 196.271 31.7391 196.267 33.1648C196.281 36.0212 196.802 38.8524 197.805 41.5267C198.023 42.1078 198.224 42.6304 198.424 43.0653C198.52 43.2785 198.608 43.4834 198.688 43.6422C198.688 43.6882 198.725 43.7258 198.742 43.7677C198.743 43.776 198.743 43.7844 198.742 43.7927C198.742 43.8638 198.784 43.9307 198.8 43.9934C199.203 45.4293 199.802 46.8025 200.582 48.074C200.574 46.5831 200.362 45.1003 199.95 43.6673C199.95 43.6046 199.913 43.5377 199.892 43.4624C199.876 43.393 199.852 43.3256 199.821 43.2618L199.766 43.1447L199.52 42.5844C199.34 42.1663 199.135 41.6688 198.93 41.1128C197.974 38.5728 197.477 35.8829 197.463 33.169C197.463 31.7349 197.463 30.3468 197.504 29.0758C197.547 27.9398 197.659 26.8075 197.839 25.6851C197.994 24.7151 198.186 23.9207 198.315 23.3688C198.445 22.8169 198.537 22.5075 198.537 22.5075C198.537 22.5075 198.859 21.2533 199.486 19.3718C199.895 18.2361 200.176 17.0581 200.322 15.8598C200.512 14.3611 200.219 12.841 199.486 11.52C199.08 10.8289 198.542 10.2249 197.902 9.74311C197.289 9.3001 196.629 8.92838 195.932 8.63516C194.586 8.04565 193.261 7.63591 192.103 7.18437C191.566 6.98642 191.04 6.76033 190.526 6.50706C190.301 6.38999 190.108 6.28129 189.908 6.16422C189.63 5.99592 189.365 5.80579 189.117 5.59561C188.618 5.16982 188.241 4.61848 188.026 3.99849C187.823 3.35317 187.747 2.67424 187.805 2Z" fill="#016C55" stroke="#016C55" stroke-width="0.73" stroke-miterlimit="10"/>
<path d="M178.883 4.82812C178.943 5.50102 178.867 6.17906 178.662 6.82244C178.449 7.44402 178.074 7.9971 177.574 8.42374C177.326 8.63475 177.06 8.82492 176.78 8.99235C176.6 9.10523 176.391 9.21812 176.161 9.33519C175.743 9.5526 175.158 9.79509 174.589 10.0125C173.431 10.4599 172.106 10.8738 170.76 11.4633C170.05 11.7554 169.378 12.1301 168.757 12.5796C168.119 13.0627 167.582 13.6665 167.176 14.3565C166.444 15.6775 166.151 17.1976 166.34 18.6963C166.487 19.8932 166.767 21.0698 167.176 22.2041C167.804 24.1065 168.126 25.344 168.126 25.344L168.347 26.2053C168.477 26.7572 168.665 27.5474 168.82 28.5215C169.003 29.6436 169.117 30.7761 169.158 31.9123C169.208 33.1666 169.2 34.5714 169.2 36.0013C169.186 38.7235 168.69 41.4217 167.733 43.9701C167.528 44.5262 167.314 45.0237 167.143 45.4418L166.896 45.9979C166.896 46.0397 166.859 46.0815 166.842 46.1192C166.811 46.1837 166.786 46.2508 166.767 46.3198L166.712 46.5205C166.299 47.9545 166.086 49.439 166.081 50.9314C166.865 49.6645 167.47 48.2956 167.879 46.8634L167.937 46.6627C167.937 46.625 167.937 46.6627 167.937 46.6376C167.937 46.6125 167.975 46.5582 167.992 46.5163C168.067 46.3491 168.155 46.1526 168.255 45.9394C168.439 45.5213 168.673 44.9819 168.87 44.4008C169.888 41.7139 170.416 38.8662 170.429 35.9929C170.429 34.5672 170.429 33.1666 170.387 31.8538C170.34 30.6701 170.221 29.4903 170.032 28.3209C169.869 27.3007 169.672 26.4812 169.539 25.9126C169.405 25.344 169.309 25.0263 169.309 25.0263C169.309 25.0263 168.978 23.7511 168.347 21.8237C167.967 20.7721 167.708 19.6809 167.574 18.5709C167.405 17.3272 167.636 16.0619 168.234 14.9586C168.556 14.4062 168.982 13.9219 169.489 13.5329C170.042 13.1482 170.639 12.8284 171.265 12.5796C172.52 12.0319 173.841 11.618 175.028 11.1539C175.618 10.9281 176.237 10.6689 176.701 10.4264C176.956 10.2926 177.194 10.1672 177.403 10.0334C177.744 9.82855 178.066 9.59347 178.365 9.331C178.724 9.00708 179.019 8.61846 179.234 8.18543C179.413 7.80686 179.511 7.39548 179.523 6.97713C179.528 6.21313 179.305 5.46493 178.883 4.82812V4.82812Z" fill="#016C55" stroke="#016C55" stroke-width="0.73" stroke-miterlimit="10"/>
<path d="M174.956 17.8008C174.442 18.2567 173.976 18.7638 173.564 19.3143C173.11 19.9347 172.802 20.6491 172.661 21.4048C172.595 21.7701 172.575 22.1424 172.603 22.5127C172.62 22.779 172.666 23.0425 172.74 23.2987C172.758 23.3745 172.782 23.4486 172.812 23.5203C172.845 23.6039 172.874 23.6959 172.916 23.7795C172.993 23.9518 173.082 24.1181 173.184 24.2771C173.388 24.5969 173.617 24.9003 173.869 25.1843C174.371 25.7488 174.919 26.263 175.345 26.8233C175.757 27.4004 176.06 28.0479 176.24 28.734C176.591 30.1889 176.569 31.7089 176.177 33.1532C175.466 36.1133 173.702 38.6219 172.477 40.5117C171.858 41.4566 171.352 42.251 171.022 42.8154C170.692 43.3798 170.512 43.7059 170.512 43.7059C170.512 43.7059 170.328 44.0279 170.04 44.6216C169.631 45.4488 169.305 46.3142 169.065 47.2054C168.736 48.4853 168.595 49.8065 168.647 51.1271C168.707 52.6711 168.944 54.203 169.354 55.6927C169.772 57.248 170.299 58.7657 170.809 60.2583C171.319 61.7509 171.858 63.2059 172.322 64.4685C172.715 65.5179 173.037 66.3834 173.196 66.814C173.68 68.117 174.344 69.3457 175.17 70.464C175.098 69.0952 174.816 67.7457 174.333 66.4628C174.175 66.0447 173.857 65.1667 173.468 64.1173C172.531 61.5502 171.377 58.402 170.541 55.4335C170.152 54.0186 169.925 52.5641 169.864 51.0978C169.818 49.8725 169.952 48.647 170.261 47.4604C170.483 46.6346 170.784 45.8323 171.16 45.0647C171.436 44.5045 171.612 44.1951 171.612 44.1951C171.612 44.1951 171.779 43.8857 172.101 43.3589C172.423 42.8321 172.916 42.0377 173.535 41.097C174.154 40.1563 174.898 39.0358 175.625 37.7523C176.4 36.3893 176.992 34.9301 177.386 33.4124C177.812 31.7922 177.819 30.0901 177.406 28.4664C177.195 27.6492 176.832 26.8791 176.336 26.1961C175.826 25.5272 175.257 25.0087 174.806 24.4945C174.401 24.0787 174.093 23.5792 173.903 23.0311C173.848 22.8417 173.815 22.6468 173.802 22.45C173.778 22.1595 173.792 21.8672 173.844 21.5804C173.97 20.9275 174.143 20.2847 174.363 19.6571C174.547 19.076 174.731 18.499 174.956 17.8008Z" fill="#016C55" stroke="#016C55" stroke-width="0.72" stroke-miterlimit="10"/>
<path d="M192.337 16.793C192.944 17.9254 193.233 19.2012 193.173 20.4847C193.153 20.7872 193.109 21.0877 193.043 21.3836C193.01 21.576 192.931 21.7767 192.872 22.0024C192.672 22.5691 192.41 23.1118 192.09 23.6205C191.912 23.9096 191.718 24.1888 191.509 24.4566C191.409 24.5988 191.287 24.7242 191.175 24.8747L191.087 24.9751C191.087 24.9751 190.966 25.1047 190.949 25.159L190.798 25.4224C190.396 26.1125 190.092 26.8556 189.895 27.63C189.544 29.2134 189.544 30.8546 189.895 32.4381C190.056 33.209 190.284 33.9644 190.577 34.6958C190.865 35.4442 191.212 36.0797 191.517 36.6985L191.973 37.6099L192.337 38.5004C192.558 39.0774 192.822 39.6042 192.968 40.1185C193.294 41.1386 193.583 41.9664 193.704 42.5643L193.934 43.4925C193.934 43.4925 193.934 43.5761 193.993 43.735C194.051 43.8939 194.08 44.1238 194.13 44.4248L194.314 45.5119C194.348 45.7209 194.386 45.93 194.427 46.185C194.469 46.4401 194.478 46.6742 194.503 46.9418C194.801 49.6018 194.785 52.2877 194.457 54.9441C194.087 57.8819 193.43 60.7764 192.496 63.5861C192.124 64.6314 191.848 65.4968 191.66 65.9191C191.163 67.1882 190.82 68.5116 190.635 69.8617C191.557 68.8028 192.286 67.5899 192.788 66.2787C192.977 65.8606 193.261 64.97 193.625 63.9039C194.579 61.0288 195.248 58.067 195.623 55.0612C195.961 52.3283 195.975 49.5651 195.665 46.8289C195.64 46.5571 195.611 46.2979 195.585 46.0512C195.56 45.8046 195.506 45.5746 195.468 45.3572C195.397 44.9391 195.33 44.521 195.276 44.2325C195.244 43.9929 195.196 43.7555 195.134 43.5218L195.075 43.2709C195.075 43.2709 194.988 42.9281 194.841 42.3135C194.695 41.6989 194.423 40.8376 194.08 39.8049C193.93 39.2697 193.662 38.7262 193.428 38.1325C193.307 37.8315 193.181 37.5263 193.052 37.2127L192.588 36.2804C192.274 35.6407 191.923 34.9843 191.676 34.3404C191.404 33.6636 191.193 32.964 191.045 32.2499C190.729 30.8135 190.729 29.3256 191.045 27.8892C191.211 27.2022 191.472 26.5421 191.823 25.9283L191.948 25.7067C191.969 25.6775 191.948 25.7067 191.977 25.6691L192.073 25.5604C192.199 25.4099 192.333 25.2677 192.446 25.1131C192.677 24.8179 192.894 24.5109 193.094 24.1932C193.283 23.8901 193.455 23.576 193.608 23.2525C193.686 23.099 193.756 22.9413 193.817 22.7801L193.909 22.5459C193.934 22.4791 193.98 22.362 193.98 22.3494C194.051 22.0902 194.139 21.8561 194.181 21.6261C194.255 21.2748 194.304 20.9185 194.327 20.56C194.374 19.7739 194.188 18.9914 193.792 18.3107C193.429 17.7007 192.931 17.1816 192.337 16.793V16.793Z" fill="#016C55" stroke="#016C55" stroke-width="0.72" stroke-miterlimit="10"/>
</svg>
