<svg width="294" height="111" viewBox="0 0 294 111" fill="none" xmlns="http://www.w3.org/2000/svg">
<path d="M23.6215 75.9051C23.3957 75.9404 23.3816 76.1239 23.311 76.2509C20.1639 82.0583 16.9109 87.8092 14.2718 93.8917C14.2083 94.0399 14.1872 94.2728 13.9473 94.2657C13.7073 94.2587 13.6579 94.0187 13.5803 93.8494C10.7578 87.9574 7.66712 82.2276 4.77402 76.3779C4.6964 76.2156 4.68228 75.9898 4.39297 75.9122C4.22362 77.3235 4.05427 78.7912 3.88492 80.2236C3.4192 84.1963 3.00993 88.1761 2.74179 92.17C2.69945 92.7698 2.67123 93.3696 2.67829 93.9623C2.67829 94.2587 2.57949 94.3504 2.29724 94.3151C1.70149 94.2517 1.10068 94.2517 0.504926 94.3151C0.194447 94.3504 0.152108 94.2163 0.194446 93.9341C0.843628 89.7426 1.48576 85.5535 2.12083 81.3667C2.70651 77.4646 3.16517 73.5554 3.5956 69.6321C3.5956 69.4274 3.44742 69.0887 3.85668 69.0111C4.26595 68.9335 4.35064 69.2157 4.48471 69.4909C7.56833 75.8416 10.9271 82.1077 14.3071 88.3243C14.3918 88.4936 14.42 88.7759 14.6388 88.7759C14.8575 88.7759 14.8787 88.5007 14.9704 88.3314C18.3245 82.1218 21.6763 75.9098 25.0257 69.6956C25.1739 69.4274 25.2162 68.9476 25.6678 69.0252C26.1194 69.1028 25.9007 69.5544 25.936 69.8226C26.3311 73.2449 26.691 76.6743 27.0791 80.0966C27.5871 84.6056 28.074 89.1146 28.7303 93.6095C28.829 94.3151 28.8361 94.3151 28.1164 94.2798C27.3966 94.2446 26.564 94.2798 25.7878 94.2798C25.4985 94.2798 25.4138 94.2234 25.3926 93.9341C25.1245 90.7234 24.8704 87.5058 24.567 84.2951C24.3059 81.5573 23.9955 78.8335 23.6991 76.0957C23.6827 76.0287 23.6565 75.9645 23.6215 75.9051V75.9051Z" fill="#016C55"/>
<path d="M56.7435 94.2956C55.05 94.2956 53.3565 94.2956 51.663 94.2956C51.2325 94.2956 51.1902 94.1686 51.2114 93.8087C51.543 88.333 51.5007 82.8573 51.4654 77.3816C51.4654 74.8978 51.3172 72.4069 51.2114 69.923C51.2114 69.5491 51.2678 69.4644 51.6418 69.4926C54.9324 69.668 58.23 69.668 61.5207 69.4926C63.5927 69.3585 65.6702 69.6515 67.6244 70.3535C69.0289 70.8259 70.2919 71.6443 71.2969 72.7332C72.302 73.8221 73.0167 75.1464 73.3753 76.5842C74.3381 79.7112 74.3183 83.0583 73.3188 86.1738C71.837 90.4852 68.7111 92.9972 64.2726 93.9357C62.1891 94.2843 60.0731 94.398 57.9643 94.2744H56.7153L56.7435 94.2956ZM54.4361 82.1728C54.4361 85.327 54.4361 88.7282 54.6055 92.1364C54.6055 92.588 54.7325 92.8067 55.2194 92.842C57.5607 93.1605 59.9344 93.1605 62.2757 92.842C64.0217 92.642 65.6683 91.9254 67.0046 90.784C68.3409 89.6425 69.3061 88.1282 69.7766 86.4349C70.7447 83.3745 70.7987 80.0982 69.9318 77.0076C69.6015 75.5362 68.83 74.2006 67.7204 73.1792C66.6108 72.1579 65.2159 71.4995 63.7222 71.292C60.9011 70.8875 58.0379 70.8709 55.2123 71.2426C54.6901 71.292 54.5913 71.5037 54.5631 71.9905C54.4432 75.307 54.422 78.6094 54.4361 82.1728Z" fill="#016C55"/>
<path d="M106.54 81.0286C107.55 81.1614 108.543 81.3979 109.504 81.7343C111.896 82.6586 113.032 84.2745 113.089 86.8289C113.244 90.9992 110.506 93.1796 107.324 93.9558C105.525 94.3235 103.685 94.4422 101.855 94.3086C100.444 94.2593 98.99 94.2381 97.5576 94.3086C97.0989 94.3086 96.9013 94.2733 96.9366 93.7159C97.3177 87.3652 97.2048 81.0145 97.1483 74.7132C97.1483 73.1396 97.0283 71.5731 96.9366 69.9996C96.9366 69.6115 97.0001 69.4845 97.4094 69.5197C99.6735 69.6926 101.948 69.6926 104.212 69.5197C105.586 69.4291 106.966 69.5625 108.297 69.9149C111.536 70.7969 112.658 73.0479 112.058 76.195C111.691 78.1144 110.4 79.2504 108.77 80.1184C108.05 80.4571 107.267 80.6617 106.54 81.0286ZM100.19 87.2805C100.26 89.1222 100.338 90.8087 100.387 92.5446C100.387 92.848 100.486 92.9609 100.796 92.9679C101.813 92.9679 102.822 93.0879 103.838 93.095C107.027 93.095 109.306 91.218 109.716 88.0638C110.125 84.9096 109.144 82.9197 105.595 82.2141C104.005 81.9529 102.393 81.8395 100.782 81.8754C100.331 81.8754 100.168 81.9601 100.175 82.454C100.183 84.1052 100.161 85.7634 100.161 87.2805H100.19ZM100.387 75.7293H100.183C100.183 77.1406 100.183 78.6012 100.183 80.0337C100.183 80.5276 100.338 80.6335 100.782 80.6123C101.523 80.57 102.257 80.6123 102.991 80.5558C104.474 80.5444 105.923 80.1113 107.168 79.3069C108.904 78.065 109.285 76.3009 108.996 74.3251C108.881 73.5071 108.505 72.748 107.924 72.1607C107.343 71.5734 106.588 71.1891 105.771 71.0651C104.11 70.7267 102.402 70.6837 100.726 70.9381C100.415 70.9804 100.387 71.1356 100.387 71.3756C100.359 72.8644 100.359 74.2757 100.359 75.7293H100.387Z" fill="#016C55"/>
<path d="M162.357 77.5079C162.163 80.3506 162.163 83.2033 162.357 86.0461C162.461 87.2373 162.762 88.4031 163.246 89.4966C163.614 90.318 164.164 91.0449 164.855 91.622C165.546 92.199 166.359 92.6112 167.233 92.8272C169.002 93.3451 170.878 93.3816 172.666 92.933C175.743 92.1427 177.175 89.8918 177.796 86.9634C178.089 85.4361 178.222 83.8823 178.191 82.3274C178.191 78.6863 178.149 75.0382 178.113 71.3901C178.113 70.875 178.064 70.3598 178.022 69.8447C178.022 69.5695 178.099 69.499 178.353 69.5413C178.979 69.6753 179.626 69.6753 180.252 69.5413C180.583 69.4566 180.534 69.6895 180.513 69.8941C180.252 72.7872 180.16 75.6944 180.061 78.5946C179.976 80.9443 179.976 83.2941 179.814 85.6509C179.782 86.9738 179.477 88.2759 178.919 89.4756C178.36 90.6752 177.56 91.7466 176.568 92.6226C175.226 93.735 173.592 94.438 171.862 94.6477C169.63 94.9854 167.353 94.8605 165.172 94.2808C162.074 93.4482 160.282 91.3806 159.605 88.29C159.216 86.2109 159.112 84.0888 159.294 81.9816C159.492 78.5029 159.393 75.017 159.294 71.5382C159.294 70.9949 159.294 70.4586 159.245 69.9223C159.245 69.6683 159.245 69.506 159.591 69.5554C160.497 69.7106 161.422 69.7106 162.328 69.5554C162.787 69.4707 162.625 69.8165 162.611 70.007C162.54 71.6582 162.434 73.3094 162.371 74.9465C162.328 75.8003 162.357 76.6541 162.357 77.5079Z" fill="#016C55"/>
<path d="M156.605 94.2878C155.405 94.2878 154.29 94.2878 153.175 94.2878C152.921 94.2878 152.78 94.2384 152.696 93.9773C151.75 90.9996 150.423 88.17 149.316 85.2557C149.27 85.0781 149.161 84.9235 149.009 84.8219C148.856 84.7202 148.671 84.6787 148.49 84.7053C145.823 84.6347 143.155 84.6136 140.488 84.7053C140.315 84.6831 140.141 84.7256 139.997 84.8246C139.854 84.9236 139.752 85.0722 139.712 85.2416C138.583 88.0641 137.461 90.936 136.558 93.8644C136.487 94.0973 136.459 94.3301 136.113 94.2949C135.334 94.2278 134.55 94.2278 133.771 94.2949C134.18 93.3846 134.575 92.5237 134.97 91.6629C138.343 84.3384 141.589 76.9504 144.849 69.5624C144.969 69.2943 144.997 68.9485 145.463 68.9697C145.929 68.9908 145.893 69.3296 145.999 69.5765C149.217 77.275 152.399 84.9946 155.822 92.6084C156.047 93.1588 156.316 93.688 156.605 94.2878ZM144.524 83.0753H148.053C148.377 83.0753 148.61 83.0753 148.405 82.5813C147.192 79.8576 146.013 77.1197 144.821 74.3889C144.764 74.269 144.757 74.0926 144.588 74.0785C144.419 74.0644 144.397 74.2619 144.348 74.3748C143.155 77.1339 141.984 79.8929 140.785 82.6448C140.636 82.9977 140.784 83.0541 141.067 83.0471C142.217 83.0682 143.402 83.0753 144.524 83.0753V83.0753Z" fill="#016C55"/>
<path d="M46.4841 92.2889C46.4488 92.8881 46.4488 93.489 46.4841 94.0882C46.5264 94.4622 46.223 94.2999 46.0748 94.2999L37.0498 94.2576C36.0125 94.2576 34.9752 94.2576 33.945 94.307C33.5922 94.307 33.4369 94.2646 33.4652 93.8695C33.818 88.4008 33.7756 82.9181 33.7404 77.4423C33.7404 74.9797 33.571 72.5029 33.4652 70.0473C33.4652 69.6592 33.4652 69.4687 33.9732 69.4899C36.7605 69.6169 39.5477 69.7086 42.335 69.6239C43.5063 69.6239 44.6847 69.5604 45.8631 69.4969C46.2512 69.4969 46.4135 69.5463 46.3077 69.9697C46.2159 70.3404 46.2159 70.728 46.3077 71.0987C46.4135 71.5503 46.2442 71.6279 45.8208 71.5997C43.0618 71.4092 40.3098 71.1693 37.5367 71.1552C37.0074 71.1552 36.831 71.2751 36.831 71.8255C36.697 74.648 36.7181 77.4 36.7675 80.1873C36.7675 80.5542 36.9721 80.533 37.2191 80.533C39.7947 80.533 42.3561 80.4413 44.9176 80.2155C45.4609 80.1661 45.6232 80.2931 45.475 80.7941C45.3974 81.1045 45.3974 81.4293 45.475 81.7397C45.6091 82.2548 45.4256 82.3889 44.9246 82.3324C42.9804 82.1478 41.0278 82.0654 39.0749 82.0854C38.4822 82.0854 37.8824 82.0854 37.2897 82.0431C36.9086 82.0431 36.7534 82.1348 36.7534 82.5229C36.7534 84.3576 36.7111 86.1922 36.7111 88.0268C36.7111 89.4381 36.7605 90.8494 36.7816 92.2606C36.7816 92.55 36.7816 92.7475 37.1838 92.7405C40.0909 92.8029 42.9989 92.6851 45.8914 92.3877C46.0678 92.3665 46.2583 92.3242 46.4841 92.2889Z" fill="#016C55"/>
<path d="M219.661 92.304C219.587 92.8944 219.587 93.4918 219.661 94.0822C219.71 94.428 219.4 94.308 219.238 94.301C215.766 94.2022 212.301 94.301 208.837 94.2586C208.237 94.2586 207.637 94.2586 207.044 94.3151C206.727 94.3151 206.621 94.2304 206.635 93.9128C206.769 91.1256 206.875 88.3454 206.91 85.5582C206.91 82.4463 206.91 79.3415 206.91 76.2297C206.868 74.1622 206.776 72.0947 206.67 70.0272C206.67 69.5403 206.79 69.4838 207.221 69.4979C210.043 69.6108 212.795 69.7096 215.582 69.625C216.775 69.625 217.967 69.5544 219.16 69.4979C219.442 69.4979 219.541 69.498 219.506 69.8367C219.449 70.2723 219.449 70.7135 219.506 71.1491C219.583 71.6219 219.365 71.6219 219.019 71.5937C217.212 71.4667 215.406 71.3396 213.6 71.2409C212.584 71.1844 211.567 71.1985 210.551 71.1632C210.184 71.1632 210.05 71.2268 210.029 71.6431C209.881 74.4656 209.923 77.2881 209.937 80.0683C209.937 80.4282 210.029 80.5411 210.403 80.5411C212.993 80.5411 215.582 80.4353 218.165 80.2165C218.631 80.1742 218.758 80.2589 218.673 80.7246C218.613 81.1009 218.613 81.4843 218.673 81.8606C218.751 82.3264 218.567 82.3758 218.172 82.3334C215.632 82.0512 213.077 82.1429 210.537 82.0441C210.064 82.0441 209.916 82.1782 209.923 82.6368C209.923 85.8051 209.923 88.9875 209.923 92.1488C209.923 92.5863 210.043 92.7556 210.537 92.7486C213.585 92.8102 216.634 92.6617 219.661 92.304V92.304Z" fill="#016C55"/>
<path d="M131.703 92.3034C131.608 92.9515 131.608 93.61 131.703 94.258H129.862C126.291 94.258 122.721 94.1945 119.157 94.3145C118.691 94.3145 118.649 94.1522 118.67 93.7641C118.981 88.5353 118.924 83.2925 118.931 78.0496C118.931 75.4035 118.783 72.7574 118.67 70.1113C118.67 69.5467 118.811 69.4762 119.305 69.4973C122.05 69.6244 124.802 69.702 127.547 69.6314C128.747 69.6314 129.939 69.5679 131.132 69.4973C131.47 69.4973 131.541 69.575 131.492 69.8854C131.421 70.2988 131.421 70.7211 131.492 71.1344C131.583 71.5719 131.379 71.6213 131.005 71.5931C128.958 71.4614 126.912 71.3367 124.866 71.2191C124.075 71.1768 123.278 71.2191 122.481 71.1626C122.156 71.1626 122.043 71.2261 122.022 71.579C121.853 74.4015 121.923 77.224 121.923 80.0466C121.923 80.3994 122.001 80.5264 122.382 80.5264C124.957 80.5264 127.526 80.4276 130.08 80.1877C130.652 80.1383 130.722 80.3147 130.652 80.7804C130.623 81.0384 130.623 81.2987 130.652 81.5566C130.701 82.3752 130.708 82.361 129.946 82.2623C128.217 82.0929 126.482 82.0647 124.753 82.0435C123.998 82.0435 123.236 82.0435 122.481 82.0012C122.1 82.0012 121.959 82.1 121.959 82.4951C121.959 85.741 121.959 88.994 121.959 92.2399C121.959 92.6139 122.1 92.7056 122.452 92.6986C125.542 92.7918 128.633 92.6597 131.703 92.3034V92.3034Z" fill="#016C55"/>
<path d="M195.14 83.9287C195.098 86.5113 195.196 90.0748 195.415 93.6312C195.457 94.2521 195.253 94.3368 194.709 94.2945C193.978 94.2133 193.239 94.2133 192.508 94.2945C192.063 94.3439 191.887 94.2451 191.915 93.7441C192.275 88.1766 192.183 82.5951 192.176 77.0206C192.176 75.3059 192.113 73.5912 192.113 71.8836C192.113 71.4178 191.943 71.3332 191.52 71.3332C189.309 71.3307 187.099 71.4485 184.901 71.686C184.52 71.7283 184.294 71.686 184.457 71.2061C184.593 70.784 184.593 70.3299 184.457 69.9078C184.358 69.562 184.457 69.4915 184.824 69.4985C188.951 69.5973 193.072 69.7173 197.193 69.6326C198.986 69.6326 200.778 69.5691 202.57 69.4985C203.029 69.4985 203.015 69.6396 202.923 69.9642C202.81 70.3705 202.81 70.7999 202.923 71.2061C203.078 71.7071 202.867 71.7283 202.478 71.686C200.305 71.439 198.118 71.3684 195.923 71.3261C195.345 71.3261 195.288 71.5449 195.274 72.0317C195.119 75.6869 195.161 79.2998 195.14 83.9287Z" fill="#016C55"/>
<path d="M80.7991 82.8762C80.7285 86.482 80.8344 90.0878 81.0461 93.6865C81.0461 94.1734 80.9896 94.3921 80.4604 94.3004C79.6892 94.2087 78.91 94.2087 78.1389 94.3004C77.6167 94.3639 77.5179 94.1663 77.5461 93.6935C77.8848 88.5142 77.8142 83.3349 77.8142 78.1696C77.8142 75.5023 77.6872 72.835 77.5391 70.1677C77.5391 69.568 77.7084 69.4621 78.2447 69.575C78.9436 69.7133 79.6627 69.7133 80.3616 69.575C80.8767 69.4762 81.0672 69.575 81.0672 70.1677C80.7779 74.3874 80.7426 78.6353 80.7991 82.8762Z" fill="#016C55"/>
<path d="M134.229 57.2916C132.641 59.0407 130.53 60.2289 128.21 60.6787C124.28 61.5607 120.491 60.8621 116.772 59.5497C114.655 58.844 112.694 57.7926 110.563 57.1576C108.352 56.4651 106.078 55.9924 103.774 55.7463C101.651 55.5319 99.5078 55.6557 97.4236 56.1132C97.3672 55.9368 97.5012 55.8945 97.5859 55.838C99.1131 54.755 100.886 54.0687 102.744 53.8411C107.034 53.2625 111.014 54.3562 114.846 56.1626C117.377 57.4178 120.081 58.2906 122.869 58.7523C126.652 59.4006 130.543 58.8658 134.011 57.2211H134.131L134.229 57.2916Z" fill="#EEE134"/>
<path d="M134.131 57.1927C134.173 57.1219 134.258 57.0582 134.315 57.1219C134.372 57.1856 134.265 57.2423 134.223 57.2918L134.131 57.1927Z" fill="#016C55"/>
<path d="M28.2861 103.206H28.9071V104.095C29.0837 103.82 29.3112 103.58 29.5775 103.39C29.8744 103.192 30.2229 103.087 30.5794 103.086C30.8111 103.086 31.04 103.136 31.2498 103.234C31.4492 103.322 31.6255 103.455 31.7649 103.622C31.9243 103.834 32.0439 104.073 32.1177 104.328C32.2902 103.957 32.558 103.638 32.8939 103.404C33.1899 103.197 33.5421 103.086 33.903 103.086C34.22 103.081 34.5308 103.175 34.7921 103.354C35.0546 103.542 35.254 103.806 35.3637 104.109C35.512 104.581 35.5765 105.076 35.5542 105.57V108.393H34.912V105.57C34.9333 105.185 34.8952 104.8 34.7991 104.427C34.7324 104.222 34.6013 104.043 34.4252 103.919C34.2341 103.789 34.007 103.722 33.776 103.728C33.4759 103.728 33.1847 103.83 32.9504 104.018C32.6945 104.211 32.5027 104.476 32.4 104.78C32.2554 105.296 32.1958 105.832 32.2236 106.367V108.393H31.5956V105.746C31.6149 105.318 31.5794 104.889 31.4897 104.469C31.4207 104.256 31.2877 104.068 31.1087 103.933C30.92 103.796 30.6923 103.725 30.4595 103.728C30.1656 103.732 29.881 103.831 29.648 104.011C29.3927 104.2 29.1988 104.46 29.0906 104.759C28.951 105.215 28.889 105.692 28.9071 106.17V108.364H28.2861V103.206Z" fill="#016C55"/>
<path d="M41.6928 106.679L42.222 106.975C42.0743 107.299 41.8713 107.595 41.6222 107.85C41.4035 108.065 41.1445 108.236 40.8601 108.351C40.5553 108.474 40.229 108.534 39.9005 108.527C39.5463 108.546 39.1928 108.48 38.8689 108.335C38.5451 108.19 38.2602 107.971 38.0376 107.695C37.6228 107.186 37.3876 106.555 37.3685 105.899C37.3493 105.243 37.5473 104.6 37.9318 104.068C38.1457 103.757 38.434 103.504 38.7704 103.333C39.1068 103.161 39.4808 103.077 39.8582 103.087C40.2469 103.076 40.6324 103.161 40.9798 103.336C41.3272 103.511 41.6256 103.77 41.848 104.089C42.2131 104.606 42.4012 105.227 42.3843 105.86H38.0094C37.9995 106.402 38.1934 106.929 38.5527 107.335C38.712 107.521 38.9103 107.669 39.1336 107.769C39.3568 107.869 39.5994 107.918 39.844 107.913C40.0855 107.913 40.3248 107.868 40.5497 107.779C40.771 107.696 40.9745 107.572 41.1495 107.412C41.3648 107.195 41.5478 106.948 41.6928 106.679ZM41.6928 105.267C41.6312 104.962 41.5089 104.671 41.3329 104.414C41.1641 104.197 40.9465 104.023 40.6979 103.905C40.4427 103.774 40.1594 103.706 39.8723 103.708C39.6439 103.704 39.4171 103.745 39.205 103.83C38.9929 103.915 38.8 104.041 38.6374 104.202C38.3555 104.499 38.1603 104.867 38.0729 105.267H41.6928Z" fill="#016C55"/>
<path d="M49.1375 101.217V108.393H48.5165V107.504C48.2795 107.819 47.979 108.081 47.6345 108.273C47.3052 108.443 46.9395 108.53 46.5689 108.527C46.2348 108.529 45.9041 108.459 45.5995 108.322C45.295 108.184 45.0239 107.982 44.8049 107.73C44.328 107.198 44.0752 106.503 44.0992 105.789C44.0766 105.084 44.3297 104.398 44.8049 103.877C45.0256 103.625 45.2982 103.424 45.604 103.288C45.9097 103.152 46.2413 103.083 46.576 103.087C46.9551 103.083 47.329 103.175 47.6627 103.355C48.0039 103.556 48.2937 103.834 48.5094 104.166V101.217H49.1375ZM46.6325 103.729C46.2939 103.727 45.9615 103.82 45.6728 103.997C45.374 104.187 45.1306 104.452 44.9672 104.766C44.7942 105.087 44.7045 105.446 44.7061 105.81C44.7087 106.177 44.7982 106.537 44.9672 106.862C45.1309 107.178 45.3741 107.445 45.6728 107.638C45.9578 107.818 46.2882 107.914 46.6254 107.913C46.9718 107.911 47.3109 107.814 47.6067 107.634C47.9025 107.454 48.1438 107.197 48.3048 106.89C48.4724 106.563 48.5571 106.199 48.5518 105.832C48.5702 105.277 48.37 104.737 47.9943 104.329C47.8241 104.136 47.6142 103.983 47.3792 103.879C47.1441 103.776 46.8893 103.725 46.6325 103.729V103.729Z" fill="#016C55"/>
<path d="M51.5014 101.09C51.57 101.089 51.6381 101.102 51.7012 101.129C51.7644 101.156 51.8213 101.195 51.8684 101.245C51.9664 101.353 52.0194 101.495 52.0165 101.64C52.0194 101.782 51.9661 101.919 51.8684 102.021C51.8225 102.073 51.766 102.115 51.7027 102.143C51.6393 102.171 51.5707 102.185 51.5014 102.184C51.4331 102.186 51.3652 102.172 51.3028 102.144C51.2405 102.116 51.1854 102.074 51.1416 102.021C51.0419 101.92 50.9861 101.783 50.9863 101.64C50.9861 101.494 51.0416 101.352 51.1416 101.245C51.187 101.195 51.2426 101.155 51.3047 101.129C51.3667 101.102 51.4339 101.089 51.5014 101.09ZM51.191 103.207H51.819V108.379H51.191V103.207Z" fill="#016C55"/>
<path d="M61.0974 103.206V108.379H60.4765V107.49C60.2413 107.807 59.9404 108.069 59.5944 108.259C59.2654 108.429 58.8995 108.517 58.5289 108.513C58.1947 108.515 57.864 108.445 57.5595 108.307C57.255 108.17 56.9839 107.968 56.7648 107.715C56.288 107.184 56.0351 106.489 56.0592 105.775C56.0461 105.065 56.3121 104.378 56.8001 103.863C57.0212 103.611 57.2938 103.411 57.5995 103.274C57.9051 103.138 58.2366 103.069 58.5712 103.072C58.9503 103.068 59.3243 103.161 59.6579 103.341C60.0006 103.54 60.2908 103.818 60.5047 104.152V103.206H61.0974ZM58.5995 103.715C58.2576 103.712 57.9222 103.808 57.6328 103.99C57.3327 104.175 57.0887 104.438 56.9271 104.752C56.7574 105.074 56.6679 105.432 56.666 105.796C56.6678 106.163 56.7599 106.524 56.9342 106.848C57.0951 107.165 57.3389 107.433 57.6398 107.624C57.9248 107.804 58.2552 107.899 58.5924 107.899C58.936 107.898 59.2728 107.803 59.5662 107.624C59.8674 107.446 60.1121 107.187 60.2718 106.876C60.4394 106.548 60.5242 106.185 60.5188 105.817C60.5372 105.263 60.337 104.723 59.9613 104.314C59.7901 104.124 59.5797 103.973 59.3446 103.872C59.1095 103.771 58.8553 103.722 58.5995 103.729V103.715Z" fill="#016C55"/>
<path d="M67.1444 106.679L67.6737 106.975C67.5233 107.298 67.3206 107.593 67.0739 107.85C66.8551 108.065 66.5962 108.236 66.3118 108.351C66.0045 108.474 65.6759 108.534 65.3451 108.527C64.992 108.545 64.6399 108.478 64.3174 108.333C63.9949 108.189 63.7112 107.97 63.4893 107.695C63.0495 107.169 62.8118 106.503 62.8189 105.818C62.8065 105.188 63.0052 104.572 63.3834 104.068C63.5973 103.757 63.8856 103.504 64.2221 103.333C64.5585 103.161 64.9324 103.077 65.3098 103.087C65.6986 103.076 66.0841 103.161 66.4315 103.336C66.7789 103.511 67.0773 103.77 67.2997 104.089C67.6647 104.606 67.8528 105.227 67.836 105.86H63.461C63.4485 106.402 63.6399 106.928 63.9973 107.335C64.1583 107.52 64.358 107.668 64.5823 107.768C64.8066 107.868 65.0501 107.918 65.2957 107.913C65.7822 107.915 66.2521 107.736 66.6152 107.412C66.8256 107.194 67.0038 106.947 67.1444 106.679V106.679ZM67.1444 105.267C67.0823 104.963 66.9574 104.674 66.7775 104.421C66.6155 104.198 66.3993 104.021 66.1495 103.905C65.8943 103.774 65.611 103.706 65.3239 103.708C65.0956 103.704 64.8687 103.745 64.6566 103.83C64.4446 103.915 64.2516 104.041 64.0891 104.202C63.8072 104.499 63.612 104.867 63.5245 105.267H67.1444Z" fill="#016C55"/>
<path d="M72.5429 103.786L72.1408 104.23C72.0211 104.082 71.8725 103.958 71.7039 103.869C71.5353 103.779 71.3502 103.724 71.1599 103.708C71.063 103.706 70.9666 103.723 70.8768 103.76C70.7869 103.796 70.7056 103.851 70.6378 103.92C70.5698 103.985 70.5154 104.062 70.4779 104.148C70.4403 104.234 70.4203 104.327 70.419 104.421C70.4222 104.597 70.4871 104.767 70.6025 104.901C70.8145 105.13 71.0684 105.317 71.3504 105.451C71.7177 105.627 72.0426 105.879 72.303 106.192C72.4666 106.431 72.5528 106.714 72.55 107.004C72.5557 107.203 72.5211 107.401 72.4483 107.586C72.3756 107.772 72.2662 107.941 72.1266 108.083C71.992 108.226 71.829 108.34 71.6479 108.416C71.4668 108.493 71.2718 108.531 71.0752 108.528C70.7949 108.529 70.5185 108.462 70.2708 108.33C70.0185 108.206 69.8005 108.022 69.6357 107.794L70.0309 107.321C70.1463 107.487 70.2976 107.624 70.4736 107.723C70.6495 107.822 70.8455 107.88 71.047 107.893C71.1656 107.895 71.2835 107.874 71.3938 107.831C71.504 107.787 71.6045 107.722 71.6891 107.639C71.843 107.499 71.9382 107.306 71.9552 107.099C71.9722 106.892 71.9099 106.686 71.7809 106.524C71.5498 106.298 71.2827 106.112 70.9906 105.973C70.6424 105.809 70.3359 105.568 70.0944 105.268C69.9347 105.03 69.851 104.75 69.8545 104.463C69.849 104.283 69.8799 104.103 69.9453 103.934C70.0108 103.766 70.1095 103.612 70.2355 103.482C70.3585 103.355 70.5067 103.254 70.6708 103.188C70.8348 103.121 71.0111 103.089 71.1881 103.094C71.4491 103.112 71.7038 103.182 71.9367 103.301C72.1696 103.42 72.3759 103.585 72.5429 103.786V103.786Z" fill="#016C55"/>
<path d="M114.817 108.393V101.217H115.445V104.11C115.677 103.789 115.978 103.526 116.327 103.341C116.656 103.169 117.022 103.082 117.393 103.087C117.726 103.084 118.056 103.153 118.36 103.291C118.663 103.429 118.933 103.631 119.15 103.884C119.626 104.413 119.879 105.106 119.856 105.818C119.87 106.528 119.604 107.215 119.115 107.73C118.894 107.982 118.622 108.184 118.316 108.322C118.011 108.46 117.679 108.53 117.344 108.527C116.969 108.531 116.6 108.439 116.271 108.259C115.926 108.057 115.633 107.777 115.417 107.44V108.393H114.817ZM117.322 107.885C117.662 107.888 117.995 107.792 118.282 107.61C118.582 107.422 118.826 107.156 118.988 106.841C119.158 106.519 119.248 106.161 119.249 105.796C119.248 105.429 119.156 105.068 118.981 104.745C118.822 104.426 118.577 104.157 118.275 103.969C117.995 103.783 117.666 103.685 117.329 103.687C116.985 103.687 116.647 103.785 116.356 103.969C116.053 104.144 115.807 104.404 115.65 104.717C115.478 105.043 115.39 105.407 115.396 105.775C115.378 106.33 115.578 106.87 115.953 107.278C116.121 107.468 116.328 107.621 116.559 107.726C116.79 107.83 117.04 107.885 117.294 107.885H117.322Z" fill="#016C55"/>
<path d="M126.581 106.678L127.103 106.975C126.958 107.299 126.757 107.595 126.511 107.85C126.288 108.064 126.027 108.234 125.741 108.351C125.437 108.474 125.11 108.534 124.782 108.527C124.428 108.544 124.075 108.477 123.751 108.332C123.428 108.188 123.143 107.969 122.919 107.695C122.469 107.172 122.219 106.507 122.213 105.818C122.203 105.187 122.404 104.571 122.785 104.068C122.999 103.756 123.287 103.504 123.623 103.333C123.96 103.161 124.334 103.077 124.711 103.087C125.099 103.077 125.483 103.163 125.829 103.338C126.175 103.513 126.472 103.771 126.694 104.089C127.059 104.606 127.247 105.227 127.23 105.86H122.855C122.848 106.402 123.042 106.927 123.399 107.335C123.558 107.52 123.757 107.668 123.98 107.768C124.203 107.868 124.446 107.918 124.69 107.913C124.931 107.911 125.17 107.866 125.396 107.779C125.614 107.694 125.815 107.57 125.988 107.412C126.224 107.201 126.424 106.953 126.581 106.678V106.678ZM126.581 105.267C126.517 104.961 126.393 104.67 126.214 104.413C126.047 104.195 125.829 104.021 125.579 103.905C125.324 103.774 125.041 103.706 124.754 103.708C124.526 103.703 124.3 103.744 124.089 103.829C123.878 103.914 123.687 104.041 123.526 104.202C123.239 104.496 123.041 104.865 122.954 105.267H126.581Z" fill="#016C55"/>
<path d="M134.738 103.206V108.379H134.124V107.49C133.887 107.805 133.587 108.067 133.242 108.259C132.778 108.492 132.249 108.565 131.738 108.467C131.228 108.369 130.764 108.105 130.42 107.715C129.945 107.186 129.683 106.5 129.683 105.789C129.683 105.078 129.945 104.392 130.42 103.863C130.64 103.611 130.913 103.41 131.219 103.274C131.524 103.137 131.856 103.069 132.191 103.072C132.568 103.068 132.939 103.161 133.27 103.341C133.614 103.542 133.906 103.819 134.124 104.152V103.206H134.738ZM132.24 103.715C131.902 103.713 131.569 103.806 131.281 103.983C130.982 104.172 130.738 104.438 130.575 104.752C130.402 105.073 130.312 105.432 130.314 105.796C130.313 106.163 130.403 106.524 130.575 106.848C130.741 107.161 130.984 107.428 131.281 107.624C131.568 107.804 131.901 107.9 132.24 107.899C132.582 107.899 132.916 107.803 133.207 107.624C133.508 107.446 133.752 107.186 133.913 106.876C134.08 106.548 134.165 106.185 134.159 105.817C134.178 105.263 133.978 104.723 133.602 104.314C133.431 104.124 133.22 103.974 132.985 103.873C132.75 103.772 132.496 103.723 132.24 103.729V103.715Z" fill="#016C55"/>
<path d="M137.532 103.207H138.16V105.62C138.146 106.029 138.174 106.438 138.245 106.841C138.325 107.142 138.507 107.407 138.76 107.589C139.023 107.776 139.34 107.873 139.663 107.864C139.981 107.878 140.295 107.783 140.552 107.596C140.789 107.419 140.964 107.172 141.053 106.89C141.135 106.472 141.166 106.046 141.145 105.62V103.207H141.787V105.747C141.814 106.294 141.735 106.84 141.554 107.356C141.409 107.704 141.163 108.001 140.849 108.21C140.485 108.409 140.078 108.513 139.663 108.513C139.249 108.513 138.841 108.409 138.478 108.21C138.16 108.002 137.914 107.701 137.772 107.349C137.591 106.818 137.512 106.258 137.539 105.698L137.532 103.207Z" fill="#016C55"/>
<path d="M145.189 101.293H145.81V103.205H146.805V103.777H145.81V108.378H145.189V103.777H144.335V103.205H145.189V101.293Z" fill="#016C55"/>
<path d="M148.682 103.207H149.345L151.017 107.187L152.64 103.207H153.282L150.382 110.263H149.754L150.693 107.984L148.682 103.207Z" fill="#016C55"/>
<path d="M169.998 103.786L169.596 104.223C169.476 104.076 169.327 103.954 169.158 103.866C168.99 103.777 168.805 103.723 168.615 103.708C168.518 103.706 168.422 103.723 168.332 103.76C168.242 103.796 168.161 103.851 168.093 103.92C168.025 103.985 167.97 104.062 167.933 104.148C167.895 104.234 167.875 104.327 167.874 104.421C167.877 104.597 167.942 104.767 168.058 104.901C168.27 105.13 168.523 105.317 168.806 105.451C169.173 105.627 169.498 105.879 169.758 106.192C169.922 106.431 170.008 106.714 170.005 107.004C170.009 107.203 169.974 107.4 169.901 107.586C169.829 107.771 169.72 107.94 169.582 108.083C169.447 108.226 169.284 108.34 169.103 108.416C168.922 108.493 168.727 108.531 168.53 108.528C168.25 108.529 167.974 108.462 167.726 108.33C167.475 108.204 167.258 108.02 167.091 107.794L167.486 107.321C167.601 107.487 167.753 107.624 167.929 107.723C168.105 107.822 168.301 107.88 168.502 107.893C168.621 107.895 168.739 107.874 168.849 107.831C168.959 107.787 169.06 107.722 169.144 107.639C169.294 107.496 169.386 107.304 169.403 107.099C169.42 106.893 169.36 106.688 169.236 106.524C169.007 106.295 168.739 106.109 168.446 105.973C168.097 105.809 167.791 105.568 167.549 105.268C167.39 105.03 167.306 104.75 167.31 104.463C167.304 104.283 167.335 104.103 167.4 103.934C167.466 103.766 167.565 103.612 167.691 103.482C167.814 103.355 167.962 103.254 168.126 103.188C168.29 103.121 168.466 103.089 168.643 103.094C168.904 103.112 169.159 103.182 169.392 103.301C169.625 103.42 169.831 103.585 169.998 103.786Z" fill="#016C55"/>
<path d="M172.58 103.206H173.201V104.152C173.421 103.821 173.713 103.543 174.055 103.341C174.386 103.161 174.758 103.069 175.135 103.072C175.469 103.069 175.801 103.138 176.106 103.274C176.412 103.411 176.685 103.611 176.906 103.863C177.376 104.394 177.636 105.079 177.636 105.789C177.636 106.499 177.376 107.184 176.906 107.715C176.687 107.968 176.416 108.17 176.111 108.307C175.807 108.445 175.476 108.515 175.142 108.513C174.771 108.517 174.405 108.429 174.076 108.259C173.732 108.067 173.431 107.805 173.194 107.49V110.263H172.573L172.58 103.206ZM175.078 103.715C174.821 103.71 174.566 103.761 174.331 103.864C174.096 103.968 173.886 104.122 173.716 104.314C173.341 104.723 173.14 105.263 173.159 105.817C173.154 106.185 173.238 106.548 173.406 106.876C173.564 107.188 173.809 107.447 174.112 107.624C174.404 107.804 174.741 107.9 175.085 107.899C175.42 107.898 175.748 107.803 176.031 107.624C176.33 107.431 176.573 107.164 176.736 106.848C176.909 106.524 176.998 106.163 176.998 105.796C176.999 105.432 176.909 105.073 176.736 104.752C176.574 104.437 176.33 104.172 176.031 103.983C175.742 103.813 175.413 103.725 175.078 103.729V103.715Z" fill="#016C55"/>
<path d="M185.12 103.206V108.379H184.507V107.49C184.27 107.805 183.969 108.067 183.625 108.259C183.16 108.491 182.631 108.564 182.121 108.465C181.611 108.367 181.147 108.104 180.802 107.715C180.325 107.184 180.072 106.489 180.096 105.775C180.073 105.07 180.326 104.384 180.802 103.863C181.024 103.611 181.298 103.411 181.605 103.274C181.912 103.138 182.245 103.069 182.58 103.072C182.957 103.069 183.329 103.161 183.66 103.341C184.003 103.542 184.295 103.819 184.514 104.152V103.206H185.12ZM182.623 103.715C182.282 103.714 181.948 103.807 181.656 103.983C181.355 104.17 181.111 104.436 180.95 104.752C180.777 105.073 180.688 105.432 180.689 105.796C180.688 106.163 180.778 106.524 180.95 106.848C181.113 107.164 181.357 107.431 181.656 107.624C181.941 107.804 182.271 107.899 182.608 107.899C182.955 107.896 183.294 107.8 183.59 107.62C183.886 107.44 184.127 107.182 184.288 106.876C184.458 106.55 184.543 106.185 184.535 105.817C184.555 105.264 184.358 104.724 183.984 104.314C183.813 104.125 183.602 103.974 183.367 103.873C183.132 103.772 182.878 103.723 182.623 103.729V103.715Z" fill="#016C55"/>
<path d="M74.053 101.293H74.674V103.205H75.6619V103.777H74.674V108.378H74.053V103.777H73.1992V103.205H74.053V101.293Z" fill="#016C55"/>
<path d="M77.3418 101.217H77.9628V104.145C78.1836 103.823 78.4697 103.552 78.8025 103.348C79.1021 103.173 79.4435 103.083 79.7903 103.087C80.1356 103.082 80.4737 103.186 80.7571 103.383C81.0392 103.578 81.2558 103.853 81.378 104.173C81.5358 104.677 81.6027 105.205 81.5756 105.733V108.393H80.9546V105.923C80.9698 105.525 80.9461 105.125 80.8841 104.731C80.8297 104.433 80.6813 104.161 80.4607 103.955C80.2346 103.776 79.9512 103.686 79.6633 103.701C79.287 103.7 78.9242 103.841 78.6472 104.096C78.3486 104.356 78.1409 104.704 78.0545 105.091C77.9751 105.557 77.9444 106.03 77.9628 106.502V108.4H77.3418V101.217Z" fill="#016C55"/>
<path d="M87.7426 106.679L88.2718 106.975C88.1241 107.299 87.9211 107.595 87.672 107.85C87.4533 108.065 87.1943 108.236 86.9099 108.351C86.6028 108.474 86.2741 108.534 85.9432 108.527C85.5902 108.545 85.2381 108.478 84.9156 108.333C84.5931 108.189 84.3093 107.97 84.0874 107.695C83.6726 107.186 83.4374 106.555 83.4183 105.899C83.3991 105.243 83.5971 104.6 83.9816 104.068C84.1955 103.757 84.4838 103.504 84.8202 103.333C85.1566 103.161 85.5305 103.077 85.9079 103.087C86.2967 103.076 86.6822 103.161 87.0296 103.336C87.377 103.511 87.6754 103.77 87.8978 104.089C88.2629 104.606 88.451 105.227 88.4341 105.86H84.0592C84.0493 106.402 84.2432 106.929 84.6025 107.335C84.7618 107.521 84.9601 107.669 85.1834 107.769C85.4066 107.869 85.6492 107.918 85.8938 107.913C86.3804 107.915 86.8502 107.736 87.2134 107.412C87.4237 107.194 87.602 106.947 87.7426 106.679V106.679ZM87.7426 105.267C87.6781 104.962 87.5559 104.673 87.3827 104.414C87.2139 104.197 86.9963 104.023 86.7476 103.905C86.4924 103.774 86.2092 103.706 85.9221 103.708C85.6937 103.704 85.4668 103.745 85.2548 103.83C85.0427 103.915 84.8498 104.041 84.6872 104.202C84.4053 104.499 84.2101 104.867 84.1227 105.267H87.7426Z" fill="#016C55"/>
<path d="M90.8753 101.293H91.5033V103.205H92.4912V103.777H91.5033V108.378H90.8753V103.777H90.0215V103.205H90.8753V101.293Z" fill="#016C55"/>
<path d="M93.8315 101.09C93.9001 101.089 93.9682 101.102 94.0313 101.129C94.0945 101.156 94.1514 101.195 94.1984 101.245C94.2964 101.353 94.3495 101.495 94.3466 101.64C94.3495 101.782 94.2962 101.919 94.1984 102.021C94.1526 102.073 94.0961 102.115 94.0328 102.143C93.9694 102.171 93.9008 102.185 93.8315 102.184C93.7632 102.186 93.6953 102.172 93.6329 102.144C93.5706 102.116 93.5154 102.074 93.4716 102.021C93.372 101.92 93.3162 101.783 93.3164 101.64C93.3162 101.494 93.3717 101.352 93.4716 101.245C93.517 101.195 93.5727 101.155 93.6347 101.129C93.6968 101.102 93.7639 101.089 93.8315 101.09ZM93.521 103.207H94.1491V108.379H93.521V103.207Z" fill="#016C55"/>
<path d="M100.358 104.293L99.8575 104.617C99.6663 104.331 99.4053 104.097 99.0992 103.939C98.7931 103.781 98.4518 103.704 98.1075 103.714C97.8327 103.705 97.5592 103.754 97.3049 103.859C97.0507 103.963 96.8215 104.121 96.6327 104.321C96.4396 104.514 96.2875 104.744 96.1856 104.998C96.0838 105.251 96.0342 105.522 96.04 105.796C96.0382 106.168 96.133 106.536 96.3152 106.861C96.4834 107.185 96.7404 107.454 97.0561 107.637C97.3751 107.823 97.7386 107.918 98.1075 107.912C98.4512 107.914 98.7901 107.832 99.095 107.674C99.3999 107.515 99.6616 107.285 99.8575 107.002L100.358 107.348C100.129 107.716 99.8052 108.016 99.42 108.216C99.005 108.427 98.5448 108.533 98.0793 108.526C97.7236 108.536 97.3697 108.472 97.0404 108.337C96.7111 108.202 96.4136 108 96.167 107.743C95.9194 107.494 95.7248 107.198 95.595 106.871C95.4652 106.545 95.403 106.196 95.412 105.845C95.4019 105.351 95.5237 104.864 95.7648 104.434C95.9898 104.014 96.3269 103.664 96.7386 103.425C97.0896 103.23 97.4777 103.111 97.8776 103.076C98.2776 103.04 98.6804 103.089 99.0601 103.22C99.3365 103.31 99.5946 103.449 99.8222 103.629C100.043 103.813 100.225 104.038 100.358 104.293V104.293Z" fill="#016C55"/>
<path d="M107.444 106.912C108.099 106.912 108.63 106.381 108.63 105.726C108.63 105.072 108.099 104.541 107.444 104.541C106.79 104.541 106.259 105.072 106.259 105.726C106.259 106.381 106.79 106.912 107.444 106.912Z" fill="#016C55"/>
<path d="M161.044 105.726C161.044 105.961 160.974 106.19 160.844 106.385C160.714 106.58 160.529 106.732 160.312 106.822C160.095 106.911 159.857 106.935 159.627 106.889C159.397 106.843 159.186 106.731 159.02 106.565C158.854 106.399 158.741 106.188 158.696 105.958C158.65 105.728 158.673 105.489 158.763 105.273C158.853 105.056 159.005 104.871 159.2 104.741C159.395 104.611 159.624 104.541 159.858 104.541C160.173 104.541 160.474 104.666 160.697 104.888C160.919 105.111 161.044 105.412 161.044 105.726V105.726Z" fill="#016C55"/>
<path d="M226.802 42.028C228.213 30.3074 229.998 17.7754 237.937 9.03257C238.835 7.93726 239.972 7.06126 241.26 6.47113C241.907 6.18388 242.618 6.07242 243.322 6.148C244.026 6.22357 244.697 6.48352 245.268 6.90157C245.972 7.54146 246.465 8.38085 246.679 9.30777C247.787 13.1958 246.503 17.3167 245.226 21.1554L242.742 28.6421C242.166 30.5433 241.439 32.3955 240.569 34.1813C238.675 37.7906 235.658 40.6859 231.974 42.4302C231.152 42.8878 230.219 43.1076 229.279 43.0653C228.81 43.0402 228.363 42.8603 228.008 42.5538C227.653 42.2472 227.41 41.8315 227.317 41.3717" fill="#B3DAD4"/>
<path d="M230.979 53.0504C237.097 47.2148 244.189 42.5224 251.407 38.1263C258.626 33.7302 266.183 29.5246 274.51 28.0851C277.643 27.5488 281.672 27.8946 282.864 30.8371C283.859 33.2998 282.159 36.0235 280.169 37.8017C278.179 39.5799 275.78 41.0829 274.75 43.5314C272.823 48.1039 276.655 53.5867 274.792 58.1804C274.086 59.888 272.675 61.2852 272.315 63.1198C272.104 64.2206 272.315 65.3708 272.061 66.4575C271.193 70.1268 265.767 71.037 264.581 74.6146C264.2 75.7648 264.257 77.1619 263.347 77.9593C263.019 78.203 262.642 78.3728 262.243 78.4568C261.843 78.5409 261.43 78.5373 261.032 78.4462C259.446 78.0643 257.968 77.3285 256.707 76.294C247.673 69.8555 239.177 62.6932 231.304 54.878C230.958 54.5393 230.782 53.7561 231.262 53.7772" fill="#B3DAD4"/>
<path d="M242.473 32.4107C241.81 32.6013 241.252 32.8059 240.674 32.9258C240.213 33.0487 239.73 33.0667 239.261 32.9783C238.792 32.8898 238.349 32.6974 237.965 32.415C237.58 32.1327 237.264 31.7676 237.039 31.3468C236.814 30.9259 236.687 30.46 236.666 29.9834C236.605 29.2084 236.657 28.4287 236.821 27.6689C237.181 25.9612 238.232 25.0439 239.686 24.9593C240.466 24.9489 241.228 25.1876 241.863 25.6407C242.497 26.0938 242.971 26.7376 243.214 27.4784C243.447 28.184 243.616 28.932 243.849 29.7999C244.153 29.5176 244.421 29.306 244.64 29.059C246.091 27.2964 247.122 25.2257 247.653 23.0046C248.996 18.4152 249.158 13.561 248.125 8.89198C247.914 7.75548 247.614 6.63719 247.229 5.54728C246.615 3.98783 245.663 2.67535 243.877 2.2802C242.786 2.09801 241.666 2.33765 240.744 2.95055C238.32 4.30702 236.239 6.20212 234.662 8.48977C230.141 14.9058 227.031 22.2073 225.538 29.9128C225.029 33.0402 224.911 36.2187 225.185 39.3753C225.37 43.1216 225.865 46.8461 226.667 50.5102C226.731 50.7854 226.808 51.0606 226.9 51.3852C226.996 51.3491 227.086 51.2992 227.168 51.237C232.107 45.7472 237.753 41.0548 243.659 36.5951C248.697 32.7777 253.869 29.1719 259.62 26.4834C265.734 23.4966 272.216 21.3304 278.898 20.041C281.918 19.5118 284.959 19.1942 287.944 20.2456C288.953 20.5979 289.925 21.0494 290.844 21.5934C293.258 23.0046 294.182 25.2556 293.97 28.0076C293.677 31.8691 292.368 35.5842 290.174 38.7756C288.986 40.4537 287.518 41.9146 285.834 43.094C285.661 43.2336 285.479 43.3632 285.291 43.4821C281.763 45.599 279.978 48.8308 278.94 52.6554C278.595 53.9184 278.199 55.1745 277.868 56.4446C277.821 56.6858 277.861 56.9358 277.981 57.1502C280.175 60.9042 279.392 64.4888 277.275 67.9394C276.732 68.6456 276.062 69.2439 275.299 69.7035C274.022 70.642 272.703 71.5169 271.404 72.4201C270.278 73.2088 269.482 74.3843 269.167 75.7225C268.532 78.044 268.067 80.3656 268.744 82.7788C268.878 83.2657 269.083 83.4845 269.619 83.421C271.552 83.239 273.481 83.8104 275.004 85.0159C276.526 86.2214 277.524 87.9681 277.79 89.8916C277.877 90.3071 277.922 90.7303 277.924 91.1547C277.951 91.4303 277.906 91.7081 277.794 91.9612C277.681 92.2143 277.506 92.4342 277.283 92.5995C277.061 92.7648 276.8 92.8701 276.526 92.905C276.251 92.9399 275.972 92.9033 275.716 92.7988C274.522 92.4982 273.398 91.9652 272.41 91.2303C271.422 90.4953 270.589 89.5729 269.958 88.5156C269.372 87.5771 268.927 86.5399 268.391 85.5661C268.285 85.3826 268.01 85.1427 267.841 85.1639C266.054 85.3379 264.253 85.0563 262.605 84.3453C260.784 83.6397 258.992 82.8212 257.2 82.0309C253.672 80.4644 249.988 79.0319 246.524 77.2608C239 73.5097 232.781 67.5786 228.678 60.2409C227.733 58.5615 227.09 56.7128 226.314 54.9416C226.237 54.7581 226.166 54.5747 226.074 54.3348C225.954 54.4124 225.841 54.4477 225.792 54.5182C225.086 55.4638 224.444 56.4093 223.767 57.3408C223.652 57.477 223.589 57.6494 223.589 57.8277C223.589 58.0059 223.652 58.1783 223.767 58.3145C226.745 62.6361 230.193 66.6142 234.048 70.1762C235.625 71.551 237.359 72.7352 239.213 73.7044C243.002 75.786 246.15 78.6438 249.092 81.6992C250.528 83.2559 251.844 84.9189 253.03 86.6739C253.518 87.4188 253.867 88.246 254.06 89.1154C254.182 89.677 254.155 90.2609 253.982 90.8089C253.917 91.0821 253.787 91.3359 253.605 91.5495C253.423 91.7631 253.192 91.9304 252.933 92.0378C252.673 92.1452 252.392 92.1896 252.112 92.1673C251.832 92.1451 251.561 92.0568 251.322 91.9097C250.674 91.5622 250.077 91.1251 249.551 90.6114C246.185 87.2878 242.269 84.6488 238.508 81.8404C236.72 80.6551 234.831 79.6303 232.863 78.7779C230.092 77.4924 227.429 75.9894 224.896 74.283C221.495 71.8415 220.168 68.4615 220.486 64.4041C220.669 62.1038 221.078 59.8175 221.361 57.5242C221.467 56.6634 221.53 55.7954 221.551 54.9275C221.602 54.367 221.484 53.8042 221.212 53.3113C220.941 52.8184 220.528 52.418 220.027 52.1614C219.616 51.9097 219.168 51.7217 218.7 51.604C218.863 51.7804 219.025 51.9638 219.194 52.1332C219.827 52.6938 220.262 53.4436 220.435 54.2711C220.608 55.0986 220.509 55.9598 220.154 56.7269C219.942 57.2631 219.667 57.7712 219.448 58.2934C217.96 61.384 214.071 60.3538 212.886 58.2934C211.475 55.8872 212.138 52.2179 214.34 50.5314L214.841 50.1433C214.594 49.9598 214.403 49.7975 214.191 49.6635C210.592 47.4685 206.782 45.6412 202.817 44.2089C200.185 43.1858 197.546 42.1344 195.055 40.8783C193.796 40.2881 192.67 39.4475 191.747 38.4078C190.824 37.368 190.122 36.151 189.685 34.8311C188.979 32.7142 189.127 30.7031 190.644 28.932C191.092 28.3189 191.733 27.8747 192.464 27.6711C193.195 27.4675 193.974 27.5164 194.674 27.81C195.867 28.3831 197.019 29.0361 198.124 29.7646L198.025 30.0469C197.723 30.0192 197.425 29.9576 197.136 29.8634C196.607 29.6305 196.113 29.3271 195.598 29.066C192.881 27.69 190.278 29.2566 190.249 32.319C190.284 34.3521 191.115 36.2904 192.564 37.7171C194.046 39.2132 195.845 40.3584 197.828 41.0689C201.06 42.3531 204.334 43.5245 207.558 44.8228C210.586 46.0313 213.463 47.587 216.132 49.4588C216.404 49.6416 216.722 49.7442 217.049 49.7552C218.804 49.8356 220.475 50.5299 221.77 51.7169C222.998 52.7471 223.033 54.1936 222.977 55.6472C222.977 56.0001 222.977 56.3529 222.977 56.7127H223.146C223.95 55.5202 224.769 54.3348 225.552 53.1281C225.629 52.9259 225.629 52.7024 225.552 52.5001C224.363 47.6439 223.675 42.6785 223.499 37.6818C223.111 29.4753 225.46 21.9603 229.094 14.7699C230.444 12.2083 231.938 9.72515 233.568 7.33253C235.095 5.08998 237.103 3.21677 239.446 1.84976C240.72 0.959429 242.265 0.542571 243.814 0.671354C244.691 0.801608 245.525 1.1365 246.248 1.64893C246.971 2.16136 247.564 2.83691 247.977 3.6209C248.757 5.00199 249.272 6.517 249.494 8.08756C250.042 10.5462 250.279 13.0638 250.2 15.5814C249.946 19.9281 249.24 24.176 247.01 28.0217C246.24 29.3621 245.191 30.5219 243.934 31.4229C243.71 31.6109 243.54 31.8542 243.44 32.1285C243.094 33.0176 242.833 33.949 242.445 34.8169C242.283 35.1698 241.873 35.4026 241.57 35.6919C241.534 35.2801 241.549 34.8655 241.612 34.4571C241.792 33.9534 242.002 33.4609 242.24 32.9823C242.353 32.8906 242.396 32.6789 242.473 32.4107ZM276.541 55.3438C276.704 54.7087 276.852 54.2219 276.95 53.7209C277.981 48.6897 280.225 44.4841 284.783 41.7251C286.303 40.7729 287.61 39.5164 288.622 38.0346C290.682 35.1281 291.96 31.7409 292.333 28.1981C292.601 25.7072 291.755 23.802 289.511 22.6659C288.561 22.1788 287.56 21.7978 286.526 21.5299C284.007 20.9019 281.467 21.2123 278.969 21.6851C270.605 23.2715 262.578 26.2863 255.238 30.5973C247.588 35.2038 240.381 40.5094 233.709 46.4458C231.592 48.2593 229.737 50.2915 227.754 52.2179C227.597 52.3253 227.482 52.4845 227.431 52.6676C227.379 52.8508 227.394 53.0463 227.471 53.2199C228.452 55.4638 229.214 57.8276 230.421 59.9375C234.614 67.1785 240.943 72.9459 248.542 76.4493C251.788 78.0158 255.139 79.3706 258.421 80.8031C260.213 81.5863 262.019 82.3555 263.847 83.0681C265.042 83.5445 266.341 83.7002 267.615 83.5198C267.609 83.3826 267.595 83.2459 267.573 83.1105C267.079 81.0916 267.079 78.9833 267.573 76.9644C268.088 74.3747 269.174 72.2155 271.496 70.7972C272.385 70.2468 273.204 69.5694 274.114 69.0613C275.031 68.5596 275.819 67.8527 276.418 66.9959C277.016 66.1391 277.409 65.1555 277.564 64.1219C277.663 63.6209 277.783 63.1199 277.847 62.6189C278.089 61.0726 277.776 59.4904 276.965 58.1522C276.904 58.1587 276.845 58.1729 276.788 58.1946L276.492 58.4698C275.512 59.4187 274.292 60.0823 272.964 60.3891C270.981 60.8407 269.076 60.7207 267.516 59.2389C267.129 58.9185 266.826 58.5085 266.633 58.0444C266.44 57.5804 266.363 57.0763 266.409 56.5758C266.455 56.0753 266.622 55.5936 266.896 55.1724C267.17 54.7511 267.543 54.4031 267.982 54.1584C269.115 53.4163 270.482 53.1197 271.821 53.3257C273.557 53.5236 275.198 54.2251 276.541 55.3438V55.3438ZM222.751 58.9637C222.694 59.2107 222.652 59.3377 222.631 59.4647C222.426 60.9818 222.144 62.4989 222.045 64.0302C221.791 67.7559 222.751 71.03 226.088 73.1258C228.53 74.6711 231.127 75.9483 233.653 77.3596C235.713 78.5098 237.943 79.4271 239.799 80.8454C243.496 83.6679 247.356 86.3141 250.616 89.6799C250.874 89.9545 251.168 90.192 251.491 90.3856C251.878 90.561 252.276 90.7096 252.684 90.8301C252.855 90.3955 252.996 89.95 253.107 89.4965C253.136 89.228 253.082 88.957 252.952 88.7203C252.637 87.9824 252.257 87.2739 251.816 86.6034C248.613 82.1874 244.57 78.4467 239.919 75.5955C237.541 74.1489 235.036 72.8576 233.025 70.896C229.451 67.464 226.201 63.7107 223.315 59.6835C223.139 59.4929 222.984 59.2742 222.751 58.9637V58.9637ZM213.26 55.6261C213.429 56.3939 213.68 57.1413 214.008 57.8559C214.232 58.2707 214.566 58.6157 214.974 58.8528C215.381 59.0899 215.846 59.21 216.317 59.1998C216.789 59.1895 217.248 59.0495 217.645 58.7949C218.042 58.5404 218.361 58.1812 218.566 57.7571C218.829 57.2682 219.051 56.7584 219.23 56.2329C219.431 55.7443 219.482 55.2068 219.376 54.689C219.271 54.1712 219.013 53.6966 218.637 53.3257C218.108 52.7683 217.522 52.2461 216.936 51.731C216.174 51.0253 215.843 51.0253 215.045 51.731C213.832 52.7189 213.443 54.0737 213.26 55.6261ZM271.122 59.2319C271.972 59.2356 272.813 59.0561 273.588 58.7054C274.362 58.3547 275.052 57.8411 275.61 57.1996C275.681 57.1466 275.738 57.0764 275.775 56.9957C275.812 56.915 275.828 56.8263 275.821 56.7377C275.815 56.6492 275.786 56.5636 275.738 56.489C275.69 56.4143 275.624 56.353 275.546 56.3105C274.683 55.5965 273.662 55.0982 272.568 54.8569C271.932 54.6485 271.258 54.5791 270.592 54.6534C269.926 54.7277 269.284 54.9438 268.709 55.2874C268.442 55.4239 268.215 55.6252 268.046 55.8728C267.878 56.1204 267.775 56.4063 267.746 56.7042C267.717 57.0021 267.764 57.3025 267.882 57.5778C267.999 57.853 268.184 58.0942 268.419 58.2793C268.778 58.6183 269.204 58.8782 269.67 59.0423C270.135 59.2064 270.63 59.271 271.122 59.2319ZM269.464 85.0792C270.042 86.1024 270.543 87.1114 271.15 88.0499C272.214 89.7503 273.883 90.9835 275.821 91.5005C276.527 91.691 276.696 91.5781 276.647 90.8654C276.598 90.3575 276.506 89.8546 276.372 89.3624C275.952 87.9278 275.018 86.6982 273.749 85.9081C272.48 85.1181 270.965 84.823 269.492 85.0792H269.464ZM237.88 29.0166C237.971 30.1245 238.127 31.0206 239.016 31.437C240.123 31.9591 241.189 31.4934 242.092 30.8936C242.798 30.442 242.283 29.6447 242.198 29.0378C242.043 27.93 241.634 26.9209 240.462 26.4693C240.272 26.3652 240.061 26.3042 239.844 26.2906C239.628 26.277 239.411 26.3111 239.209 26.3906C239.007 26.47 238.825 26.5928 238.676 26.7502C238.527 26.9077 238.414 27.0961 238.345 27.3019C238.16 27.8628 238.014 28.4357 237.908 29.0166H237.88Z" fill="#0D6E55"/>
</svg>
