<svg width="400" height="58" viewBox="0 0 400 58" fill="none" xmlns="http://www.w3.org/2000/svg">
<path d="M0 15.5333H2.42389L7.78497 24.272L13.0605 15.5333H15.4844L8.84007 26.6081V36.7457H6.77264V26.6081L0 15.5333Z" fill="#4D4D4D"/>
<path d="M25.9499 20.6525C28.3358 20.6525 30.3129 21.5274 31.8813 23.277C33.3071 24.8729 34.02 26.762 34.02 28.9442C34.02 31.1361 33.2643 33.0541 31.753 34.698C30.2511 36.3323 28.3167 37.1494 25.9499 37.1494C23.5735 37.1494 21.6297 36.3323 20.1183 34.698C18.6164 33.0541 17.8655 31.1361 17.8655 28.9442C17.8655 26.7716 18.5784 24.8873 20.0042 23.2915C21.5726 21.5322 23.5545 20.6525 25.9499 20.6525ZM25.9499 22.6281C24.2959 22.6281 22.8749 23.2482 21.6867 24.4883C20.4985 25.7285 19.9044 27.2282 19.9044 28.9875C19.9044 30.1219 20.1753 31.1794 20.7171 32.16C21.2589 33.1406 21.9909 33.9 22.9129 34.4384C23.8349 34.9672 24.8473 35.2315 25.9499 35.2315C27.0525 35.2315 28.0649 34.9672 28.9869 34.4384C29.9089 33.9 30.6408 33.1406 31.1826 32.16C31.7244 31.1794 31.9954 30.1219 31.9954 28.9875C31.9954 27.2282 31.3965 25.7285 30.1988 24.4883C29.0106 23.2482 27.5943 22.6281 25.9499 22.6281Z" fill="#4D4D4D"/>
<path d="M37.4848 21.0563H39.4952V28.3819C39.4952 30.17 39.5902 31.4005 39.7803 32.0735C40.0655 33.0348 40.6073 33.7943 41.4058 34.3519C42.2137 34.9095 43.1738 35.1883 44.2859 35.1883C45.398 35.1883 46.3391 34.9191 47.109 34.3807C47.8885 33.8328 48.4255 33.1165 48.7202 32.2321C48.9198 31.6264 49.0196 30.343 49.0196 28.3819V21.0563H51.0585V28.7568C51.0585 30.9198 50.8066 32.5493 50.3029 33.6453C49.8086 34.7412 49.0576 35.6017 48.0501 36.2265C47.052 36.8418 45.7973 37.1494 44.2859 37.1494C42.7745 37.1494 41.5103 36.8418 40.4932 36.2265C39.4857 35.6017 38.73 34.7364 38.2262 33.6309C37.7319 32.5157 37.4848 30.8429 37.4848 28.6126V21.0563Z" fill="#4D4D4D"/>
<path d="M54.7514 21.0563H56.7903V23.3491C57.3987 22.4455 58.0403 21.7725 58.7152 21.3303C59.3901 20.8784 60.0935 20.6525 60.8254 20.6525C61.3767 20.6525 61.966 20.8304 62.5934 21.1861L61.5526 22.8877C61.1343 22.705 60.7826 22.6137 60.4975 22.6137C59.8321 22.6137 59.1905 22.8925 58.5726 23.4501C57.9547 23.9981 57.4842 24.8537 57.161 26.0169C56.9139 26.911 56.7903 28.7183 56.7903 31.439V36.7457H54.7514V21.0563Z" fill="#4D4D4D"/>
<path d="M79.5749 15.5333H81.6851V29.8527C81.6851 32.0542 81.514 33.5876 81.1718 34.4528C80.8391 35.3084 80.2783 35.9958 79.4893 36.5149C78.7004 37.0245 77.7451 37.2792 76.6235 37.2792C75.7775 37.2792 74.941 37.111 74.114 36.7745C73.2965 36.4476 72.3888 35.866 71.3907 35.0296L72.5028 33.3425C73.596 34.1212 74.5037 34.6691 75.2261 34.9864C75.7014 35.1979 76.1672 35.3036 76.6235 35.3036C77.2223 35.3036 77.7641 35.121 78.2489 34.7557C78.7432 34.3903 79.0854 33.9049 79.2755 33.2992C79.4751 32.6935 79.5749 31.5207 79.5749 29.7806V15.5333Z" fill="#4D4D4D"/>
<path d="M93.8188 20.6525C96.2047 20.6525 98.1818 21.5274 99.7502 23.277C101.176 24.8729 101.889 26.762 101.889 28.9442C101.889 31.1361 101.133 33.0541 99.6219 34.698C98.12 36.3323 96.1857 37.1494 93.8188 37.1494C91.4425 37.1494 89.4986 36.3323 87.9872 34.698C86.4854 33.0541 85.7344 31.1361 85.7344 28.9442C85.7344 26.7716 86.4473 24.8873 87.8732 23.2915C89.4416 21.5322 91.4235 20.6525 93.8188 20.6525ZM93.8188 22.6281C92.1649 22.6281 90.7438 23.2482 89.5556 24.4883C88.3674 25.7285 87.7734 27.2282 87.7734 28.9875C87.7734 30.1219 88.0443 31.1794 88.5861 32.16C89.1279 33.1406 89.8598 33.9 90.7818 34.4384C91.7039 34.9672 92.7162 35.2315 93.8188 35.2315C94.9215 35.2315 95.9338 34.9672 96.8558 34.4384C97.7778 33.9 98.5098 33.1406 99.0516 32.16C99.5934 31.1794 99.8643 30.1219 99.8643 28.9875C99.8643 27.2282 99.2654 25.7285 98.0678 24.4883C96.8796 23.2482 95.4633 22.6281 93.8188 22.6281Z" fill="#4D4D4D"/>
<path d="M105.354 21.0563H107.364V28.3819C107.364 30.17 107.459 31.4005 107.649 32.0735C107.934 33.0348 108.476 33.7943 109.275 34.3519C110.083 34.9095 111.043 35.1883 112.155 35.1883C113.267 35.1883 114.208 34.9191 114.978 34.3807C115.757 33.8328 116.294 33.1165 116.589 32.2321C116.789 31.6264 116.889 30.343 116.889 28.3819V21.0563H118.927V28.7568C118.927 30.9198 118.676 32.5493 118.172 33.6453C117.678 34.7412 116.927 35.6017 115.919 36.2265C114.921 36.8418 113.666 37.1494 112.155 37.1494C110.643 37.1494 109.379 36.8418 108.362 36.2265C107.355 35.6017 106.599 34.7364 106.095 33.6309C105.601 32.5157 105.354 30.8429 105.354 28.6126V21.0563Z" fill="#4D4D4D"/>
<path d="M122.62 21.0563H124.659V23.3491C125.268 22.4455 125.909 21.7725 126.584 21.3303C127.259 20.8784 127.962 20.6525 128.694 20.6525C129.246 20.6525 129.835 20.8304 130.462 21.1861L129.421 22.8877C129.003 22.705 128.652 22.6137 128.366 22.6137C127.701 22.6137 127.059 22.8925 126.442 23.4501C125.824 23.9981 125.353 24.8537 125.03 26.0169C124.783 26.911 124.659 28.7183 124.659 31.439V36.7457H122.62V21.0563Z" fill="#4D4D4D"/>
<path d="M132.159 21.0563H134.155V23.8683C134.954 22.7916 135.838 21.9888 136.807 21.4601C137.777 20.9217 138.832 20.6525 139.973 20.6525C141.132 20.6525 142.159 20.9506 143.052 21.5466C143.955 22.1426 144.621 22.9454 145.048 23.9548C145.476 24.9642 145.69 26.536 145.69 28.6703V36.7457H143.708V29.2615C143.708 27.4541 143.632 26.2476 143.48 25.642C143.242 24.6037 142.796 23.825 142.14 23.3059C141.484 22.7771 140.628 22.5128 139.573 22.5128C138.366 22.5128 137.283 22.9165 136.322 23.7241C135.372 24.5316 134.745 25.5314 134.44 26.7235C134.25 27.5022 134.155 28.925 134.155 30.9919V36.7457H132.159V21.0563Z" fill="#4D4D4D"/>
<path d="M163.042 31.5399L164.725 32.434C164.173 33.5299 163.537 34.4144 162.814 35.0873C162.092 35.7603 161.279 36.2746 160.376 36.6303C159.473 36.9764 158.451 37.1494 157.31 37.1494C154.782 37.1494 152.805 36.3131 151.379 34.6403C149.953 32.9579 149.24 31.0592 149.24 28.9442C149.24 26.9542 149.844 25.1805 151.051 23.6231C152.582 21.6427 154.63 20.6525 157.196 20.6525C159.839 20.6525 161.949 21.6668 163.527 23.6952C164.649 25.1277 165.219 26.9158 165.238 29.0596H151.294C151.332 30.8862 151.907 32.3859 153.019 33.5588C154.131 34.722 155.504 35.3036 157.139 35.3036C157.928 35.3036 158.694 35.1642 159.435 34.8854C160.186 34.6066 160.823 34.2365 161.346 33.7751C161.868 33.3136 162.434 32.5686 163.042 31.5399ZM163.042 27.3147C162.776 26.238 162.386 25.3776 161.873 24.7335C161.369 24.0894 160.699 23.5703 159.863 23.1761C159.026 22.7819 158.147 22.5849 157.225 22.5849C155.704 22.5849 154.397 23.08 153.304 24.0702C152.505 24.7912 151.902 25.8727 151.493 27.3147H163.042Z" fill="#4D4D4D"/>
<path d="M167.305 21.0563H169.416L174.748 33.1406L179.924 21.0563H182.048L172.795 42.485H170.685L173.679 35.5632L167.305 21.0563Z" fill="#4D4D4D"/>
<path d="M194.467 15.2305H196.478V21.0563H199.643V22.7867H196.478V36.7457H194.467V22.7867H191.744V21.0563H194.467V15.2305Z" fill="#4D4D4D"/>
<path d="M209.966 20.6525C212.352 20.6525 214.329 21.5274 215.897 23.277C217.323 24.8729 218.036 26.762 218.036 28.9442C218.036 31.1361 217.28 33.0541 215.769 34.698C214.267 36.3323 212.333 37.1494 209.966 37.1494C207.59 37.1494 205.646 36.3323 204.134 34.698C202.632 33.0541 201.882 31.1361 201.882 28.9442C201.882 26.7716 202.594 24.8873 204.02 23.2915C205.589 21.5322 207.571 20.6525 209.966 20.6525ZM209.966 22.6281C208.312 22.6281 206.891 23.2482 205.703 24.4883C204.515 25.7285 203.92 27.2282 203.92 28.9875C203.92 30.1219 204.191 31.1794 204.733 32.16C205.275 33.1406 206.007 33.9 206.929 34.4384C207.851 34.9672 208.863 35.2315 209.966 35.2315C211.069 35.2315 212.081 34.9672 213.003 34.4384C213.925 33.9 214.657 33.1406 215.199 32.16C215.741 31.1794 216.011 30.1219 216.011 28.9875C216.011 27.2282 215.413 25.7285 214.215 24.4883C213.027 23.2482 211.61 22.6281 209.966 22.6281Z" fill="#4D4D4D"/>
<path d="M241.1 11.8511C241.145 11.7172 241.189 11.6725 241.234 11.7172C241.278 11.7172 241.345 11.6725 241.434 11.5833V12.4537C241.39 12.3644 241.323 12.3421 241.234 12.3867C241.189 12.3867 241.189 12.3198 241.234 12.1859C241.1 12.2305 241.011 12.3421 240.966 12.5206C240.966 12.6545 240.899 12.6545 240.766 12.5206C240.766 12.6545 240.766 12.7215 240.766 12.7215C240.677 12.7215 240.632 12.6992 240.632 12.6545C240.677 12.6099 240.677 12.5876 240.632 12.5876C240.498 12.8108 240.298 13.0116 240.03 13.1902C239.763 13.3687 239.54 13.525 239.361 13.6589C239.139 13.6142 239.094 13.5919 239.228 13.5919C239.406 13.5473 239.473 13.4803 239.428 13.3911C239.339 13.3911 239.25 13.4134 239.161 13.458C239.072 13.458 239.027 13.5026 239.027 13.5919C238.76 13.5026 238.581 13.3464 238.492 13.1232C238.448 12.9 238.247 12.6769 237.89 12.4537C237.846 12.1412 237.757 11.8288 237.623 11.5163C237.534 11.1592 237.445 10.8021 237.355 10.445C237.311 10.0879 237.289 9.73083 237.289 9.37374C237.333 9.01664 237.467 8.65955 237.69 8.30245C237.779 8.34709 237.824 8.34709 237.824 8.30245C237.824 8.25782 237.868 8.2355 237.957 8.2355C238.002 8.14623 238.046 8.10159 238.091 8.10159C238.18 8.05695 238.247 7.98999 238.292 7.90072C238.381 7.90072 238.47 7.83377 238.559 7.69985C238.648 7.56595 238.715 7.43204 238.76 7.29812C239.963 6.49466 241.189 5.78047 242.437 5.15556C243.686 4.486 244.978 3.83877 246.316 3.21385C246.628 3.03531 246.962 2.85676 247.319 2.67821C247.675 2.49966 248.032 2.34344 248.389 2.20953C248.612 2.12025 248.857 2.03098 249.124 1.94171C249.436 1.85243 249.704 1.76316 249.927 1.67388C250.551 1.4507 251.197 1.27215 251.866 1.13824C252.534 0.959693 253.248 0.758827 254.006 0.535643C254.763 0.446371 255.544 0.357097 256.346 0.267822C257.148 0.133913 257.951 0.0446389 258.753 0C260.403 0 261.963 0.245503 263.434 0.73651C264.905 1.22751 266.02 1.96402 266.777 2.94603C266.956 3.16922 267.112 3.41472 267.245 3.68254C267.424 3.95036 267.624 4.2405 267.847 4.55296C267.936 4.77614 268.026 4.97701 268.115 5.15556C268.204 5.28947 268.293 5.49033 268.382 5.75815C268.962 6.51698 269.274 7.36508 269.318 8.30245C269.497 9.99865 269.274 11.5386 268.65 12.9224C268.07 14.2615 267.335 15.3774 266.443 16.2701C265.953 17.2521 265.306 18.0779 264.504 18.7475C263.701 19.3724 262.966 20.0866 262.297 20.89C261.762 21.2025 261.272 21.6265 260.826 22.1622C260.38 22.6532 259.823 22.9433 259.154 23.0326C258.263 23.7468 257.371 24.394 256.48 24.9743C255.588 25.51 254.697 26.0456 253.805 26.5812C254.072 26.7151 254.362 26.8044 254.674 26.8491C255.031 26.8937 255.321 27.0276 255.544 27.2508C257.238 27.6972 258.909 28.2105 260.559 28.7908C260.559 28.88 260.581 28.9247 260.626 28.9247C260.715 28.9247 260.759 28.9693 260.759 29.0586H260.893C261.651 29.505 262.32 29.996 262.899 30.5316C263.523 31.0226 264.036 31.5136 264.437 32.0046C264.526 32.4063 264.704 32.7634 264.972 33.0759C265.284 33.3437 265.44 33.7008 265.44 34.1472C265.529 34.1472 265.551 34.1695 265.507 34.2141C265.507 34.2141 265.551 34.1918 265.641 34.1472C265.685 34.3257 265.774 34.5043 265.908 34.6828C266.042 34.8167 266.064 34.9953 265.975 35.2185C266.198 35.4863 266.332 35.8211 266.376 36.2228C266.465 36.5799 266.621 36.8254 266.844 36.9593C267.201 37.7628 267.379 38.6778 267.379 39.7045C267.424 40.6865 267.179 41.5792 266.644 42.3827C266.51 42.6951 266.332 43.0076 266.109 43.3201C265.886 43.6325 265.663 43.945 265.44 44.2574C265.262 44.5252 265.017 44.7708 264.705 44.9939C264.615 45.1278 264.482 45.2394 264.303 45.3287C264.17 45.4626 264.014 45.6188 263.835 45.7974C263.568 46.0206 263.3 46.2661 263.033 46.5339C262.81 46.8464 262.587 47.1142 262.364 47.3374C261.874 47.6945 261.406 48.0069 260.96 48.2747C260.559 48.5872 260.157 48.922 259.756 49.2791H259.489L258.085 50.2834C257.594 50.4619 257.171 50.6851 256.814 50.953C256.457 51.2654 256.056 51.5332 255.61 51.7564C255.388 51.8457 255.142 51.9573 254.875 52.0912C254.652 52.2251 254.429 52.3813 254.206 52.5599C253.983 52.7384 253.76 52.8947 253.538 53.0286C253.315 53.2071 253.092 53.341 252.869 53.4303C252.378 53.7428 251.866 53.9883 251.331 54.1668C250.841 54.3453 250.372 54.5239 249.927 54.7024L248.456 55.439L245.513 56.2424C244.622 56.5102 243.752 56.8004 242.905 57.1128C242.058 57.4253 241.1 57.6262 240.03 57.7154C240.119 57.6262 240.208 57.5592 240.298 57.5146C240.431 57.5146 240.565 57.4699 240.699 57.3807C242.839 56.845 244.822 56.1755 246.65 55.372C248.522 54.5685 250.395 53.7428 252.267 52.8947C252.356 52.8054 252.423 52.7384 252.468 52.6938C252.557 52.6492 252.624 52.5599 252.668 52.426C253.203 52.2921 253.694 52.0689 254.139 51.7564C254.585 51.4886 255.053 51.2431 255.544 51.0199C255.9 50.7967 256.235 50.5512 256.547 50.2834C256.903 50.0156 257.304 49.8147 257.75 49.6808C257.884 49.4576 257.995 49.3237 258.085 49.2791C258.04 49.1005 258.04 48.9889 258.085 48.9443C258.174 48.8997 258.218 48.8327 258.218 48.7434C257.995 48.7434 257.817 48.8327 257.683 49.0112C257.55 49.1898 257.416 49.3237 257.282 49.413C257.193 49.5023 257.104 49.5469 257.015 49.5469C256.926 49.5469 256.859 49.5915 256.814 49.6808C256.591 49.7254 256.435 49.7924 256.346 49.8817C256.301 50.0156 256.212 50.1272 256.079 50.2164L255.276 50.4843C255.009 50.6182 254.741 50.7744 254.474 50.953C254.206 51.1761 253.961 51.3993 253.738 51.6225C252.624 52.2028 251.465 52.7161 250.261 53.1625C249.949 53.5196 249.481 53.8097 248.857 54.0329C248.277 54.2561 247.765 54.4569 247.319 54.6355C247.096 54.8587 246.806 55.0149 246.449 55.1042C246.093 55.1934 245.781 55.3274 245.513 55.5059C245.513 55.5059 245.513 55.439 245.513 55.305C244.8 55.5282 244.109 55.7514 243.44 55.9746C242.772 56.1978 242.081 56.421 241.368 56.6441C241.59 56.421 241.813 56.3094 242.036 56.3094C242.259 56.3094 242.482 56.2201 242.705 56.0416C241.769 56.354 240.877 56.6441 240.03 56.912C239.228 57.2244 238.247 57.4922 237.088 57.7154C238.693 57.2691 240.231 56.7781 241.702 56.2424C243.173 55.7514 244.689 55.2158 246.249 54.6355C246.293 54.6355 246.316 54.5685 246.316 54.4346C246.762 54.3454 247.14 54.2114 247.453 54.0329C247.809 53.899 248.233 53.7651 248.723 53.6312C248.812 53.5865 248.834 53.5196 248.79 53.4303C248.745 53.3857 248.768 53.3633 248.857 53.3633C249.927 52.9616 250.952 52.4483 251.933 51.8234C252.958 51.2431 253.939 50.6405 254.875 50.0156C254.518 50.1049 254.162 50.2611 253.805 50.4843C253.448 50.7074 253.114 50.8637 252.802 50.953C252.579 51.0422 252.378 51.1538 252.2 51.2877C252.066 51.4663 251.888 51.6002 251.665 51.6895L250.528 52.2251C249.147 52.9393 247.698 53.5419 246.182 54.0329L247.787 53.2964C247.876 53.341 247.943 53.3187 247.987 53.2294C248.032 53.1848 248.054 53.2071 248.054 53.2964C248.5 53.0732 248.924 52.85 249.325 52.6268C249.771 52.4483 250.216 52.2251 250.662 51.9573C251.197 51.7341 251.665 51.4886 252.066 51.2208C252.512 50.953 252.98 50.7298 253.471 50.5512C254.228 49.8817 255.075 49.346 256.012 48.9443C256.948 48.5426 257.773 47.9623 258.486 47.2035C258.441 47.1142 258.374 47.0919 258.285 47.1365C258.241 47.2258 258.218 47.2035 258.218 47.0695C258.575 46.9803 258.842 46.8464 259.021 46.6678C259.199 46.4893 259.4 46.2661 259.623 45.9983C259.355 46.1322 259.132 46.2884 258.954 46.4669C258.82 46.6901 258.575 46.8464 258.218 46.9356C258.129 47.2035 257.951 47.3597 257.683 47.4043C257.46 47.449 257.238 47.6498 257.015 48.0069C256.97 48.0069 256.903 48.0292 256.814 48.0739C256.769 48.1631 256.658 48.1855 256.48 48.1408C256.168 48.5426 255.789 48.855 255.343 49.0782C254.897 49.3014 254.385 49.5915 253.805 49.9486C253.359 50.1718 252.913 50.395 252.468 50.6182C252.066 50.8414 251.576 50.9976 250.997 51.0869C251.13 50.9976 251.264 50.9306 251.398 50.886C251.576 50.886 251.688 50.819 251.732 50.6851C251.375 50.7744 251.041 50.886 250.729 51.0199C250.462 51.1985 250.172 51.3324 249.86 51.4216C250.796 50.9306 251.732 50.4619 252.668 50.0156C253.649 49.5692 254.518 48.9666 255.276 48.2078C255.9 47.9846 256.48 47.6275 257.015 47.1365C257.55 46.6901 258.129 46.2884 258.753 45.9313C258.842 45.7081 258.976 45.5519 259.154 45.4626C259.377 45.3733 259.578 45.2171 259.756 44.9939C259.578 44.9939 259.466 45.0386 259.422 45.1278C259.377 45.1725 259.31 45.1948 259.221 45.1948C259.31 45.0163 259.511 44.86 259.823 44.7261C260.135 44.5476 260.313 44.3244 260.358 44.0566C260.224 44.0119 260.068 44.0119 259.89 44.0566C259.756 44.1012 259.623 44.1682 259.489 44.2574C259.4 44.3467 259.31 44.436 259.221 44.5252C259.132 44.6145 259.065 44.6368 259.021 44.5922C258.753 44.86 258.441 45.0832 258.085 45.2618C257.728 45.4849 257.327 45.7304 256.881 45.9983V46.4C256.792 46.4446 256.703 46.4893 256.613 46.5339C256.569 46.6232 256.502 46.6232 256.413 46.5339C256.413 46.6232 256.435 46.6901 256.48 46.7348L255.142 47.2035C254.919 47.4266 254.607 47.6052 254.206 47.7391C253.805 47.9176 253.515 48.0962 253.337 48.2747C253.515 48.364 253.671 48.3194 253.805 48.1408C253.939 48.0069 254.117 47.8953 254.34 47.8061C253.538 48.4756 252.624 49.0336 251.598 49.4799C250.573 49.9709 249.592 50.4619 248.656 50.953C248.433 50.9083 248.255 50.953 248.121 51.0869C247.987 51.2654 247.765 51.31 247.453 51.2208C247.586 51.1315 247.742 51.1315 247.921 51.2208C248.589 50.7744 249.347 50.328 250.194 49.8817C251.041 49.4799 251.866 49.1452 252.668 48.8773C252.624 48.6988 252.735 48.5872 253.003 48.5426C253.27 48.5426 253.359 48.431 253.27 48.2078L252.802 48.5426C252.713 48.5426 252.691 48.4979 252.735 48.4087C252.78 48.364 252.757 48.364 252.668 48.4087C252.579 48.4533 252.557 48.4756 252.601 48.4756C252.646 48.5202 252.624 48.5649 252.534 48.6095C252.401 48.6542 252.222 48.7211 252 48.8104C251.821 48.8997 251.643 48.9666 251.465 49.0112C251.375 49.0112 251.353 49.0112 251.398 49.0112C251.442 49.0559 251.442 49.1005 251.398 49.1452C250.595 49.5023 249.837 49.8593 249.124 50.2164C248.411 50.6182 247.675 50.953 246.918 51.2208C246.873 51.2208 246.873 51.2208 246.918 51.2208C246.962 51.2654 246.94 51.3324 246.851 51.4216C246.717 51.3324 246.583 51.3324 246.449 51.4216C246.36 51.5109 246.227 51.6002 246.048 51.6895L241.301 53.3633C240.944 53.4526 240.565 53.5642 240.164 53.6981C239.807 53.832 239.428 53.9659 239.027 54.0998C238.804 54.1445 238.604 54.2114 238.425 54.3007C238.247 54.4346 238.002 54.5016 237.69 54.5016C237.199 54.7248 236.687 54.881 236.152 54.9703C235.617 55.1042 235.082 55.2381 234.547 55.372C234.101 55.5059 233.678 55.5952 233.276 55.6398C232.92 55.6845 232.496 55.7514 232.006 55.8407C231.917 55.8407 231.895 55.8184 231.939 55.7737C231.984 55.7737 231.961 55.7737 231.872 55.7737C231.649 55.863 231.516 55.9746 231.471 56.1085C232.541 56.0639 233.722 55.9523 235.015 55.7737C236.352 55.6398 237.601 55.439 238.76 55.1711C238.136 55.3943 237.489 55.5505 236.82 55.6398C236.152 55.7291 235.55 55.93 235.015 56.2424C235.104 56.3317 235.171 56.3317 235.216 56.2424C235.26 56.1531 235.327 56.1308 235.416 56.1755C235.283 56.2647 235.104 56.3094 234.881 56.3094C234.658 56.354 234.48 56.421 234.346 56.5102C234.436 56.6441 234.525 56.6888 234.614 56.6441C234.748 56.6441 234.881 56.6441 235.015 56.6441C234.926 56.8673 234.725 56.9566 234.413 56.912C234.146 56.8673 233.923 56.9343 233.745 57.1128C233.923 57.1575 234.079 57.1352 234.213 57.0459C234.346 57.0012 234.525 56.9789 234.748 56.9789C234.391 57.336 233.967 57.4253 233.477 57.2467C232.987 57.1128 232.496 57.0682 232.006 57.1128C231.828 57.1575 231.694 57.2021 231.605 57.2467C231.516 57.336 231.404 57.336 231.27 57.2467C230.513 57.336 229.71 57.2914 228.863 57.1128C227.972 56.9343 227.191 56.7781 226.523 56.6441C226.389 56.421 226.211 56.2201 225.988 56.0416C225.765 55.9076 225.609 55.6845 225.52 55.372C225.475 55.372 225.453 55.3497 225.453 55.305C225.408 55.305 225.319 55.305 225.185 55.305C225.096 55.3943 225.096 55.5059 225.185 55.6398C225.275 55.7737 225.319 55.9076 225.319 56.0416C225.185 55.9076 225.052 55.7737 224.918 55.6398C224.784 55.5059 224.673 55.3497 224.584 55.1711C224.673 55.2604 224.762 55.3497 224.851 55.439C224.94 55.5282 225.029 55.6175 225.119 55.7068C225.119 55.6175 225.052 55.4613 224.918 55.2381C224.784 55.0595 224.762 54.9479 224.851 54.9033C224.762 54.9033 224.717 54.8587 224.717 54.7694C224.673 54.6801 224.584 54.6578 224.45 54.7024C224.494 54.4793 224.517 54.3007 224.517 54.1668C224.472 54.0775 224.405 53.9213 224.316 53.6981L223.982 53.899C224.071 54.1222 224.093 54.2561 224.049 54.3007C223.96 54.3454 223.915 54.3007 223.915 54.1668C223.87 54.0775 223.826 53.9883 223.781 53.899C223.87 53.8097 223.915 53.7428 223.915 53.6981C223.915 53.6535 223.96 53.5865 224.049 53.4973C223.96 53.408 223.915 53.341 223.915 53.2964C223.87 53.2517 223.781 53.2294 223.647 53.2294C223.737 53.0955 223.848 52.9616 223.982 52.8277C224.116 52.7384 224.182 52.5822 224.182 52.359C224.45 52.1805 224.606 52.1135 224.65 52.1581C224.74 52.0689 224.807 52.0019 224.851 51.9573C224.851 51.9126 224.94 51.9126 225.119 51.9573C225.074 51.868 225.096 51.8234 225.185 51.8234C225.275 51.8234 225.275 51.8234 225.185 51.8234C225.497 51.5555 225.876 51.377 226.322 51.2877C226.768 51.1985 227.236 51.1761 227.726 51.2208C227.816 51.2208 227.838 51.2431 227.793 51.2877C227.749 51.3324 227.726 51.3993 227.726 51.4886C227.816 51.4886 227.86 51.3993 227.86 51.2208C227.994 51.5332 228.239 51.6671 228.596 51.6225C228.908 51.6225 229.198 51.6895 229.465 51.8234C229.242 52.0466 228.952 52.1135 228.596 52.0242C228.194 51.935 227.927 52.0689 227.793 52.426C227.57 52.5152 227.303 52.6268 226.991 52.7607C226.679 52.8947 226.567 53.1178 226.657 53.4303C226.79 53.6088 227.035 53.7651 227.392 53.899C227.749 54.0329 228.128 54.1222 228.529 54.1668C228.93 54.2561 229.309 54.323 229.666 54.3677C230.067 54.4123 230.379 54.4346 230.602 54.4346C230.735 54.0775 230.847 53.6535 230.936 53.1625C231.025 52.7161 231.114 52.2697 231.204 51.8234C231.293 51.4216 231.404 51.0422 231.538 50.6851C231.672 50.328 231.805 49.9486 231.939 49.5469C232.875 45.9313 233.967 42.4496 235.216 39.1019C236.508 35.7541 237.913 32.5179 239.428 29.3934C239.339 29.3487 239.272 29.3041 239.228 29.2594C239.228 29.1702 239.161 29.1255 239.027 29.1255C239.072 28.8577 239.027 28.6569 238.893 28.5229C238.804 28.3444 238.693 28.1882 238.559 28.0543C238.693 27.9203 238.827 27.8534 238.96 27.8534C238.916 27.6748 238.938 27.4963 239.027 27.3177C239.339 27.2731 239.584 27.2062 239.763 27.1169C239.986 26.983 240.253 26.8937 240.565 26.8491C241.145 25.6885 241.702 24.5056 242.237 23.3004C242.772 22.0952 243.329 20.8454 243.909 19.5509C244.354 18.6582 244.822 17.7431 245.313 16.8058C245.803 15.8684 246.271 14.8864 246.717 13.8597C247.163 12.967 247.586 12.0519 247.987 11.1146C248.433 10.1772 248.857 9.23983 249.258 8.30245C249.481 7.85608 249.681 7.45435 249.86 7.09726C250.038 6.69553 250.172 6.2938 250.261 5.89207C250.35 5.80279 250.417 5.73584 250.462 5.6912C250.551 5.64656 250.618 5.57961 250.662 5.49033C251.063 5.62424 251.42 5.64656 251.732 5.55729C252.044 5.46801 252.378 5.46801 252.735 5.55729C253.003 5.55729 253.27 5.60192 253.538 5.6912C253.805 5.78047 253.983 5.86975 254.072 5.95902C254.295 6.1822 254.407 6.42771 254.407 6.69553C254.407 6.96335 254.362 7.23117 254.273 7.49899C254.184 7.76681 254.072 8.05695 253.939 8.36941C253.805 8.68187 253.716 8.97201 253.671 9.23983C253.092 10.3111 252.49 11.3601 251.866 12.3867C251.286 13.3687 250.796 14.4847 250.395 15.7345H250.261C249.904 16.8504 249.503 17.8994 249.057 18.8814C248.656 19.8634 248.3 20.8677 247.987 21.8944C247.943 21.9836 247.876 22.0729 247.787 22.1622C247.742 22.2515 247.675 22.3854 247.586 22.5639C247.363 23.2335 247.096 23.8807 246.784 24.5056C246.472 25.1305 246.137 25.7555 245.781 26.3804C246.137 26.3357 246.472 26.2465 246.784 26.1126C247.096 25.9786 247.363 25.8224 247.586 25.6439C249.637 24.6619 251.487 23.6575 253.136 22.6309C253.225 22.4523 253.27 22.3407 253.27 22.2961C254.072 21.8051 254.786 21.3141 255.41 20.8231C256.034 20.3321 256.68 19.8411 257.349 19.3501V19.2162C259.756 17.2968 261.829 15.0649 263.568 12.5206V12.1859C263.791 11.8288 264.036 11.427 264.303 10.9807C264.615 10.4897 264.905 9.97634 265.173 9.44069C265.44 8.90505 265.641 8.34709 265.774 7.76681C265.953 7.1419 266.042 6.5393 266.042 5.95902C265.997 5.64656 265.93 5.42338 265.841 5.28947C265.752 5.11092 265.663 4.91006 265.574 4.68687C264.192 3.79413 262.609 3.1469 260.826 2.74517C259.043 2.34343 257.327 2.32112 255.677 2.67821L253.671 3.01299C252.378 3.37008 251.13 3.77181 249.927 4.21818C248.768 4.66455 247.631 5.11092 246.516 5.55729C245.491 6.13757 244.443 6.7848 243.374 7.49899C242.304 8.16854 241.524 9.15055 241.033 10.445C241.078 10.445 241.145 10.445 241.234 10.445C241.368 10.445 241.412 10.4897 241.368 10.5789C241.278 10.5789 241.234 10.5789 241.234 10.5789C241.234 10.5343 241.211 10.512 241.167 10.512C241.256 10.6459 241.256 10.7575 241.167 10.8468C241.122 10.936 241.122 11.0253 241.167 11.1146C241.211 11.1146 241.234 11.0699 241.234 10.9807C241.323 10.9807 241.345 11.0476 241.301 11.1815C241.301 11.2708 241.345 11.2485 241.434 11.1146C241.434 11.3378 241.368 11.4717 241.234 11.5163C241.1 11.5609 241.055 11.6725 241.1 11.8511ZM255.41 46.1991C255.41 46.0652 255.432 45.9983 255.477 45.9983C255.566 45.9983 255.588 45.9536 255.544 45.8644C255.454 45.8197 255.388 45.842 255.343 45.9313C255.298 46.0206 255.254 46.0206 255.209 45.9313C255.209 45.9313 255.254 45.8867 255.343 45.7974C255.432 45.7528 255.499 45.6858 255.544 45.5965C255.633 45.5073 255.722 45.4626 255.811 45.4626C255.989 45.3733 256.168 45.3064 256.346 45.2618C256.569 45.2618 256.725 45.1502 256.814 44.927C256.903 44.927 256.948 44.927 256.948 44.927C256.992 44.8823 257.059 44.8823 257.148 44.927C257.193 44.7484 257.282 44.6368 257.416 44.5922C257.55 44.5476 257.639 44.436 257.683 44.2574C258.486 43.7664 259.177 43.1638 259.756 42.4496C260.38 41.6908 260.982 40.9766 261.562 40.3071C261.562 40.1285 261.584 40.0169 261.629 39.9723C261.985 39.4366 262.342 38.7894 262.698 38.0306C263.1 37.2718 263.278 36.4683 263.233 35.6202C263.189 35.1292 263.011 34.6605 262.698 34.2141C262.386 33.7231 262.03 33.366 261.629 33.1429C261.272 32.9197 260.871 32.7188 260.425 32.5403C260.024 32.3617 259.667 32.1832 259.355 32.0046C259.266 32.0046 259.221 32.0269 259.221 32.0716C259.221 32.1162 259.177 32.1162 259.088 32.0716C258.865 31.9377 258.619 31.7814 258.352 31.6029C258.085 31.3797 257.795 31.2235 257.483 31.1342C256.636 30.911 255.922 30.6655 255.343 30.3977C254.763 30.1745 254.206 29.996 253.671 29.862C253.181 29.7281 252.668 29.5942 252.133 29.4603C251.242 29.4157 250.261 29.4826 249.191 29.6612C248.166 29.8397 247.207 30.0629 246.316 30.3307C246.182 30.3307 246.115 30.3084 246.115 30.2638C246.16 30.2191 246.137 30.1745 246.048 30.1299C245.736 30.2191 245.424 30.3307 245.112 30.4646C244.845 30.5539 244.533 30.6432 244.176 30.7325C244.176 30.6432 244.131 30.5986 244.042 30.5986C243.775 30.5539 243.619 30.5762 243.574 30.6655C243.53 30.7548 243.463 30.9333 243.374 31.2012C243.062 31.96 242.705 32.7634 242.304 33.6115C241.947 34.4596 241.613 35.3301 241.301 36.2228C241.211 36.5353 241.145 36.8923 241.1 37.2941C241.055 37.6512 240.944 38.0083 240.766 38.3654C240.498 39.2581 240.275 40.1508 240.097 41.0436C239.919 41.9363 239.763 42.8514 239.629 43.7887C239.451 44.2351 239.295 44.6592 239.161 45.0609C239.072 45.418 238.983 45.8197 238.893 46.2661C238.804 46.4893 238.715 46.7794 238.626 47.1365C238.492 47.5829 238.314 47.9846 238.091 48.3417C237.913 48.7434 237.757 49.1228 237.623 49.4799C237.355 49.9709 237.11 50.3727 236.887 50.6851C236.664 50.9976 236.397 51.3324 236.085 51.6895C236.13 51.6895 236.152 51.7118 236.152 51.7564C235.929 51.935 235.751 52.1805 235.617 52.4929C235.483 52.8054 235.327 53.1402 235.149 53.4973C234.881 53.5419 234.681 53.6312 234.547 53.7651C234.458 53.9436 234.369 54.0998 234.279 54.2338C235.394 54.0106 236.575 53.7651 237.824 53.4973C239.116 53.2741 240.298 52.9393 241.368 52.4929C241.368 52.4036 241.345 52.3813 241.301 52.426C241.256 52.5152 241.211 52.5152 241.167 52.426C241.925 52.3367 242.593 52.1581 243.173 51.8903C243.797 51.6225 244.488 51.3993 245.246 51.2208C245.201 50.9976 245.246 50.9083 245.38 50.953C245.513 51.0422 245.625 50.9753 245.714 50.7521C245.714 50.886 245.736 50.953 245.781 50.953C246.093 50.7298 246.472 50.5512 246.918 50.4173C247.051 50.3727 247.185 50.328 247.319 50.2834C247.453 50.2388 247.519 50.1718 247.519 50.0825C247.787 50.1272 247.943 50.1049 247.987 50.0156C248.077 49.9263 248.233 49.8817 248.456 49.8817C248.456 49.837 248.433 49.8147 248.389 49.8147C248.389 49.8147 248.389 49.7701 248.389 49.6808C248.478 49.7701 248.589 49.7478 248.723 49.6138C248.901 49.4799 249.08 49.4353 249.258 49.4799C249.258 49.4799 249.213 49.4353 249.124 49.346C249.615 49.2568 250.038 49.0559 250.395 48.7434C250.751 48.431 251.175 48.2524 251.665 48.2078C251.754 48.1185 251.777 48.0516 251.732 48.0069C251.732 47.9623 251.777 47.8953 251.866 47.8061C252.089 47.8061 252.245 47.7391 252.334 47.6052C252.468 47.5159 252.668 47.449 252.936 47.4043C253.114 47.2704 253.248 47.1365 253.337 47.0026C253.471 46.9133 253.627 46.8687 253.805 46.8687C253.85 46.824 253.939 46.7571 254.072 46.6678C254.206 46.5785 254.318 46.5116 254.407 46.4669L254.474 46.6009C254.518 46.6009 254.541 46.5562 254.541 46.4669C254.541 46.3777 254.563 46.333 254.607 46.333C254.697 46.2438 254.786 46.1768 254.875 46.1322C255.009 46.0875 255.12 46.0206 255.209 45.9313C255.209 46.0206 255.232 46.0652 255.276 46.0652C255.321 46.0652 255.365 46.1099 255.41 46.1991ZM241.167 55.5729C241.969 55.3497 242.749 55.1265 243.507 54.9033C244.31 54.6801 245.09 54.4346 245.848 54.1668C245.803 54.1668 245.781 54.2114 245.781 54.3007C244.221 54.7917 242.683 55.305 241.167 55.8407C239.651 56.421 238.046 56.8227 236.352 57.0459C237.11 56.8673 237.913 56.6665 238.76 56.4433C239.607 56.2201 240.409 55.93 241.167 55.5729ZM262.164 30.1968C262.074 30.2415 262.007 30.2415 261.963 30.1968C261.963 30.1522 261.963 30.1745 261.963 30.2638C262.275 30.487 262.565 30.7548 262.832 31.0672C263.1 31.3797 263.434 31.6252 263.835 31.8037C263.701 31.7591 263.724 31.7368 263.902 31.7368C263.902 31.8261 263.88 31.893 263.835 31.9377C263.835 31.9823 263.88 32.0046 263.969 32.0046C263.924 31.9153 263.924 31.8484 263.969 31.8037C264.014 31.7591 264.036 31.6922 264.036 31.6029H263.969C263.924 31.6029 263.902 31.6029 263.902 31.6029C263.456 31.1119 263.033 30.7101 262.632 30.3977C262.23 30.0852 261.718 29.7505 261.094 29.3934C261.227 29.7058 261.361 29.8844 261.495 29.929C261.673 29.929 261.896 30.0183 262.164 30.1968ZM253.337 50.0825C253.56 49.7701 253.85 49.5469 254.206 49.413C254.563 49.2791 254.897 49.1005 255.209 48.8773C255.298 48.8773 255.388 48.8327 255.477 48.7434C255.566 48.6988 255.566 48.6542 255.477 48.6095C255.031 48.8327 254.563 49.0782 254.072 49.346C253.582 49.6585 253.092 49.9486 252.601 50.2164C252.735 50.1718 252.824 50.1272 252.869 50.0825C252.958 50.0379 253.114 50.0379 253.337 50.0825ZM264.705 33.4776C264.705 33.2544 264.638 33.0536 264.504 32.875C264.37 32.6965 264.236 32.6295 264.103 32.6742C264.192 32.8081 264.259 32.9643 264.303 33.1429C264.348 33.3214 264.482 33.433 264.705 33.4776ZM261.896 47.2704C261.495 47.4936 261.205 47.8061 261.027 48.2078C261.116 48.1185 261.272 47.9623 261.495 47.7391C261.718 47.5159 261.851 47.3597 261.896 47.2704ZM247.252 50.0825C247.207 50.1718 247.14 50.2164 247.051 50.2164C247.007 50.2611 246.962 50.328 246.918 50.4173C246.962 50.2834 247.074 50.1718 247.252 50.0825ZM226.255 55.7737C226.344 55.7291 226.411 55.7068 226.456 55.7068C226.456 55.6175 226.389 55.5729 226.255 55.5729V55.7068C226.3 55.7068 226.3 55.7291 226.255 55.7737ZM245.915 54.0998C245.959 54.0552 246.026 54.0329 246.115 54.0329C246.026 54.0329 245.937 54.0775 245.848 54.1668C245.848 54.1222 245.87 54.0998 245.915 54.0998Z" fill="#8C7A76"/>
<path d="M298.875 37.1602C298.964 37.2941 298.808 37.5173 298.407 37.8297C298.006 38.1422 297.605 38.4993 297.203 38.901C297.114 38.9456 296.914 39.1019 296.602 39.3697C296.29 39.6375 296.111 39.8161 296.067 39.9053L295.665 40.2401L294.529 41.1105L293.994 41.4453L293.058 42.0479C292.3 42.5389 291.587 43.0076 290.918 43.454C290.249 43.9003 289.424 44.3021 288.444 44.6592C288.399 44.6592 288.31 44.6815 288.176 44.7261C288.087 44.7707 287.976 44.8154 287.842 44.86C287.664 44.9047 287.508 44.9493 287.374 44.9939C287.196 44.9939 287.04 45.0386 286.906 45.1278C286.772 45.1725 286.594 45.1948 286.371 45.1948C286.326 45.1948 286.349 45.1502 286.438 45.0609C286.215 45.1055 286.036 45.1502 285.903 45.1948C285.769 45.1948 285.613 45.2618 285.435 45.3957C285.301 45.3064 285.167 45.3064 285.033 45.3957C284.944 45.5296 284.811 45.5519 284.632 45.4626C284.543 45.5965 284.409 45.6412 284.231 45.5965C284.053 45.5519 283.897 45.5965 283.763 45.7304C283.674 45.6858 283.652 45.6412 283.696 45.5965C283.741 45.5965 283.718 45.5742 283.629 45.5296C283.495 45.5742 283.317 45.5742 283.094 45.5296C282.916 45.5296 282.715 45.5965 282.492 45.7304C282.359 45.6412 282.247 45.6188 282.158 45.6635C282.114 45.7081 281.98 45.6858 281.757 45.5965L281.69 45.7304C281.021 45.5965 280.531 45.5519 280.219 45.5965C280.041 45.5519 279.907 45.5073 279.818 45.4626C279.729 45.418 279.639 45.4403 279.55 45.5296C279.06 45.4403 278.592 45.351 278.146 45.2618C277.745 45.1278 277.299 44.9493 276.809 44.7261C276.274 44.5029 275.806 44.1905 275.404 43.7887C275.003 43.3424 274.624 42.8737 274.268 42.3827C274.089 42.0702 273.956 41.7578 273.866 41.4453C273.777 41.1328 273.688 40.8427 273.599 40.5749C273.51 40.2178 273.465 39.9053 273.465 39.6375C273.465 39.3251 273.51 38.9903 273.599 38.6332C273.688 38.1422 273.844 37.4726 274.067 36.6245C274.245 35.7764 274.58 35.0399 275.07 34.415L276.608 32.6742L277.611 31.3351C277.968 31.0672 278.257 30.8441 278.48 30.6655C278.703 30.487 278.971 30.2191 279.283 29.862C279.506 29.6389 279.773 29.4603 280.085 29.3264C280.397 29.1479 280.665 28.947 280.888 28.7238C281.289 28.456 281.601 28.2105 281.824 27.9873C282.136 27.7641 282.47 27.5632 282.827 27.3847C283.183 27.1615 283.518 27.0053 283.83 26.916C283.964 26.8267 284.142 26.7821 284.365 26.7821C284.588 26.7821 284.766 26.7375 284.9 26.6482C284.989 26.6036 285.078 26.5589 285.167 26.5143C285.256 26.4696 285.368 26.4473 285.502 26.4473C285.724 26.8044 286.014 27.1169 286.371 27.3847C286.772 27.6079 287.084 27.898 287.307 28.2551C287.619 28.3444 287.797 28.5006 287.842 28.7238C287.887 28.947 288.02 29.1479 288.243 29.3264C288.332 29.6835 288.332 29.996 288.243 30.2638C288.199 30.5316 288.087 30.8217 287.909 31.1342C287.82 31.2235 287.775 31.3127 287.775 31.402C287.775 31.4913 287.753 31.5806 287.708 31.6698C287.619 31.893 287.463 32.0939 287.24 32.2724C287.062 32.4063 286.883 32.5849 286.705 32.8081C286.616 32.8974 286.527 33.0313 286.438 33.2098C286.393 33.3884 286.326 33.5669 286.237 33.7455C286.059 33.924 285.836 34.1472 285.568 34.415C285.301 34.6828 285.056 34.9506 284.833 35.2185C284.61 35.5309 284.32 35.7541 283.964 35.888C283.652 36.0219 283.384 36.2228 283.161 36.4906C283.027 36.5799 282.961 36.7138 282.961 36.8923C282.604 37.2494 282.18 37.5842 281.69 37.8967C281.244 38.1645 280.843 38.477 280.486 38.8341C279.773 38.968 279.104 39.2358 278.48 39.6375C277.901 40.0392 277.21 40.1508 276.407 39.9723C276.318 40.0169 276.296 40.0616 276.341 40.1062C276.43 40.1508 276.541 40.1732 276.675 40.1732C276.541 40.3963 276.519 40.5749 276.608 40.7088C276.742 40.7981 276.831 40.9097 276.876 41.0436C277.232 41.4007 277.656 41.7354 278.146 42.0479C278.636 42.3604 279.171 42.5612 279.751 42.6505C281.4 43.1415 282.961 43.1638 284.432 42.7175C284.922 42.6282 285.368 42.5389 285.769 42.4496C286.215 42.3604 286.727 42.2041 287.307 41.9809C288.02 41.7131 288.667 41.423 289.246 41.1105L290.115 40.7088C290.249 40.6195 290.316 40.5972 290.316 40.6418C290.361 40.6418 290.361 40.6642 290.316 40.7088C290.316 40.7088 290.316 40.7311 290.316 40.7758C290.316 40.7758 290.383 40.7311 290.517 40.6418L292.255 39.8384C292.746 39.4813 293.147 39.2135 293.459 39.0349C293.771 38.8117 294.239 38.4546 294.863 37.9636C294.908 37.919 295.041 37.8297 295.264 37.6958C295.487 37.5173 295.71 37.3387 295.933 37.1602C296.2 36.9816 296.446 36.8254 296.669 36.6915C296.891 36.5129 297.047 36.4013 297.137 36.3567L297.805 35.6872C298.34 35.3301 298.786 35.0399 299.143 34.8167C299.544 34.5489 299.834 34.3704 300.012 34.2811C300.146 34.415 300.235 34.6159 300.279 34.8837C300.324 35.1069 300.413 35.2185 300.547 35.2185C300.279 35.6202 300.079 35.9327 299.945 36.1558C299.856 36.3344 299.767 36.4683 299.678 36.5576C299.633 36.6468 299.544 36.7361 299.41 36.8254C299.321 36.87 299.143 36.9816 298.875 37.1602ZM284.699 29.6612C284.565 29.7505 284.409 29.862 284.231 29.996C284.053 30.1299 283.897 30.2415 283.763 30.3307C283.585 30.3307 283.473 30.3754 283.429 30.4646C283.339 30.5093 283.25 30.5539 283.161 30.5986C283.117 30.6432 283.05 30.6878 282.961 30.7325L282.426 31.1342C282.203 31.3574 281.98 31.5359 281.757 31.6698C281.534 31.7591 281.311 31.893 281.088 32.0716C280.821 32.4287 280.553 32.7188 280.286 32.942C280.063 33.1205 279.818 33.3884 279.55 33.7455C279.06 34.0579 278.659 34.4373 278.347 34.8837C277.856 35.3747 277.41 35.8657 277.009 36.3567C276.608 36.8031 276.296 37.2718 276.073 37.7628C276.92 37.4949 277.723 37.0709 278.48 36.4906C279.238 35.9103 280.041 35.3077 280.888 34.6828C281.155 34.4596 281.423 34.2365 281.69 34.0133C281.958 33.7901 282.203 33.5223 282.426 33.2098C282.827 32.9866 283.273 32.6295 283.763 32.1385C284.298 31.6029 284.744 31.0896 285.1 30.5986C285.189 30.3754 285.279 30.1745 285.368 29.996C285.502 29.8174 285.524 29.6389 285.435 29.4603C285.346 29.4603 285.212 29.4826 285.033 29.5273C284.9 29.5273 284.788 29.5719 284.699 29.6612Z" fill="#8C7A76"/>
<path d="M327.016 38.4993C326.793 38.4546 326.593 38.5662 326.414 38.8341C326.236 39.0572 326.058 39.2804 325.879 39.5036C325.879 39.459 325.902 39.392 325.946 39.3027C325.59 39.5706 325.255 39.8607 324.943 40.1732C324.631 40.441 324.297 40.7534 323.94 41.1105H323.807V41.0436C323.717 41.1328 323.606 41.2444 323.472 41.3784C323.383 41.5123 323.272 41.5346 323.138 41.4453C322.915 41.5792 322.737 41.7354 322.603 41.914C322.514 42.0925 322.38 42.2041 322.202 42.2488C321.979 42.472 321.8 42.6505 321.667 42.7844C321.533 42.8737 321.332 43.0299 321.065 43.2531C321.065 43.2085 321.02 43.1861 320.931 43.1861C320.797 43.3647 320.508 43.4986 320.062 43.5879C319.572 43.8557 319.126 44.1458 318.725 44.4583C318.368 44.7261 317.989 44.86 317.588 44.86C317.187 44.9047 316.897 44.9493 316.719 44.9939C316.54 45.0386 316.34 45.0386 316.117 44.9939C315.76 44.9939 315.314 45.0832 314.779 45.2618C314.244 45.4849 313.799 45.5296 313.442 45.3957C313.353 45.1725 313.197 45.0163 312.974 44.927C312.751 44.7931 312.528 44.6815 312.305 44.5922C312.127 44.5029 311.993 44.3021 311.904 43.9896C311.414 43.6771 311.057 43.2308 310.834 42.6505C310.611 42.0256 310.477 41.3337 310.433 40.5749C310.433 39.7714 310.5 38.9456 310.634 38.0975C310.767 37.2494 310.946 36.4237 311.168 35.6202C310.544 36.1112 309.943 36.7138 309.363 37.428C308.783 38.0975 308.204 38.7448 307.624 39.3697C307.402 39.7714 307.156 40.1062 306.889 40.374C306.621 40.6418 306.354 40.8873 306.086 41.1105C305.329 42.0033 304.615 42.7844 303.947 43.454C303.947 43.4986 303.924 43.5432 303.88 43.5879C303.88 43.5879 303.858 43.6325 303.813 43.7218C303.456 43.9896 303.055 44.3021 302.609 44.6592C302.164 45.0163 301.695 45.3064 301.205 45.5296C300.759 45.7974 300.269 45.9536 299.734 45.9983C299.244 46.0429 298.731 45.8644 298.196 45.4626C297.884 45.418 297.661 45.3287 297.527 45.1948C297.438 45.0163 297.282 44.86 297.059 44.7261C296.569 44.5029 296.279 44.2351 296.19 43.9226C296.056 43.6102 295.967 43.1415 295.923 42.5166C295.878 42.2041 295.923 41.8024 296.056 41.3114C296.145 40.8204 296.279 40.3963 296.457 40.0392C296.68 39.1911 297.015 38.41 297.46 37.6958C297.906 36.937 298.33 36.2451 298.731 35.6202C299.489 34.5936 300.247 33.6562 301.004 32.8081C301.807 31.9153 302.632 31.0449 303.479 30.1968C303.746 30.0629 304.014 29.8844 304.281 29.6612C304.593 29.438 304.927 29.2594 305.284 29.1255C305.507 29.2148 305.752 29.1702 306.02 28.9916C306.287 28.7684 306.51 28.8131 306.688 29.1255C307.624 29.2148 308.449 29.438 309.162 29.7951C309.876 30.1522 310.366 30.7325 310.634 31.5359C310.946 31.3127 311.235 31.1119 311.503 30.9333C311.77 30.7548 312.06 30.6209 312.372 30.5316C312.506 30.487 312.617 30.3977 312.706 30.2638C312.796 30.1299 312.885 30.0629 312.974 30.0629C313.42 29.9736 313.821 30.0629 314.178 30.3307C314.579 30.5986 314.958 30.8217 315.314 31.0003C315.359 30.9556 315.403 30.9556 315.448 31.0003C315.537 31.0003 315.649 30.978 315.782 30.9333C315.872 31.0672 315.938 31.1788 315.983 31.2681C316.028 31.3127 316.072 31.402 316.117 31.5359C316.206 32.3394 316.094 33.2098 315.782 34.1472C315.515 35.0846 315.203 35.8657 314.846 36.4906C314.668 37.5173 314.423 38.6332 314.111 39.8384C313.799 41.0436 313.776 42.0925 314.044 42.9853C315.604 42.8067 316.897 42.4273 317.922 41.847C318.992 41.2221 320.062 40.6195 321.132 40.0392C321.533 39.7268 321.89 39.459 322.202 39.2358C322.558 39.0126 322.893 38.7225 323.205 38.3654C323.249 38.3654 323.294 38.3877 323.338 38.4323V38.4993C323.561 38.4993 324.007 38.2315 324.676 37.6958C325.344 37.1155 326.013 36.5353 326.682 35.955C327.395 35.3301 328.042 34.7944 328.621 34.348C329.245 33.9017 329.602 33.7455 329.691 33.8794C329.78 33.9686 329.892 33.991 330.025 33.9463C330.159 33.857 330.27 33.8347 330.36 33.8794C330.404 33.9686 330.404 34.0356 330.36 34.0802C330.36 34.1249 330.382 34.1695 330.426 34.2141V34.0802C330.471 34.0802 330.471 34.1472 330.426 34.2811C330.382 34.3704 330.337 34.482 330.293 34.6159C330.248 34.7051 330.204 34.7721 330.159 34.8167C330.114 34.8614 330.114 34.8167 330.159 34.6828C330.07 34.7721 329.958 34.8837 329.825 35.0176C329.736 35.1069 329.646 35.1961 329.557 35.2854C329.468 35.5086 329.401 35.6648 329.357 35.7541C329.357 35.8434 329.312 35.9996 329.223 36.2228C329.089 36.2228 329 36.2005 328.955 36.1558C328.866 36.379 328.732 36.5353 328.554 36.6245C328.42 36.7138 328.309 36.8923 328.22 37.1602C328.131 37.1602 328.042 37.2718 327.952 37.4949L327.016 38.4993ZM308.761 32.7411C308.672 32.1608 308.494 31.6698 308.226 31.2681C308.003 30.8664 307.58 30.8217 306.956 31.1342L305.886 32.3394C305.797 32.4733 305.685 32.5849 305.552 32.6742C305.418 32.7188 305.306 32.7858 305.217 32.875C305.128 32.9643 305.039 33.0982 304.95 33.2768C304.861 33.4107 304.749 33.5669 304.615 33.7455L303.679 34.8167C303.189 35.4417 302.698 36.1558 302.208 36.9593C301.762 37.7181 301.361 38.4546 301.004 39.1688C300.915 39.392 300.804 39.5929 300.67 39.7714C300.536 39.95 300.425 40.2178 300.336 40.5749C300.247 40.5303 300.202 40.5526 300.202 40.6418C300.202 40.6865 300.18 40.6865 300.135 40.6418C300.046 41.1328 299.89 41.5569 299.667 41.914C299.444 42.2265 299.333 42.6505 299.333 43.1861C299.689 42.963 300.068 42.7398 300.47 42.5166C300.871 42.2934 301.205 42.0479 301.473 41.7801C302.765 40.5302 303.991 39.2358 305.15 37.8967C306.354 36.5129 307.535 35.1069 308.694 33.6785C308.828 33.5892 308.94 33.4776 309.029 33.3437C309.118 33.1652 309.229 33.0536 309.363 33.0089V32.875C309.274 32.7858 309.073 32.7411 308.761 32.7411Z" fill="#8C7A76"/>
<path d="M356.414 34.2811C356.28 34.415 356.214 34.5489 356.214 34.6828C356.303 34.5936 356.37 34.5936 356.414 34.6828C356.459 34.7275 356.503 34.6382 356.548 34.415C356.637 34.3704 356.682 34.3257 356.682 34.2811C356.682 34.2365 356.726 34.2141 356.815 34.2141C356.86 34.482 356.748 34.7498 356.481 35.0176C356.258 35.2408 356.191 35.464 356.28 35.6872C356.191 35.7764 356.102 35.8657 356.013 35.955C355.968 36.0442 355.901 36.2005 355.812 36.4237C355.723 36.5129 355.745 36.5353 355.879 36.4906C356.013 36.446 356.08 36.446 356.08 36.4906C355.768 36.7138 355.612 36.8923 355.612 37.0263C355.656 37.1602 355.5 37.3387 355.144 37.5619C355.099 37.6065 355.099 37.6512 355.144 37.6958V37.7628H355.077C354.988 37.852 354.809 37.8967 354.542 37.8967C354.319 37.8967 354.163 38.0529 354.074 38.3654C353.985 38.3207 353.895 38.3207 353.806 38.3654C353.762 38.41 353.695 38.4546 353.606 38.4993C353.427 39.0796 353.16 39.459 352.803 39.6375V39.5706C352.67 39.7045 352.58 39.7937 352.536 39.8384C352.491 39.883 352.447 39.9053 352.402 39.9053C352.402 39.9053 352.38 39.95 352.335 40.0392C352.291 40.0839 352.224 40.1955 352.135 40.374L352.068 40.1732C351.979 40.2624 351.912 40.3963 351.867 40.5749C351.823 40.7534 351.756 40.8204 351.667 40.7758C351.622 40.8204 351.644 40.9097 351.733 41.0436C351.689 41.1328 351.533 41.2668 351.265 41.4453C351.042 41.6239 350.909 41.7354 350.864 41.7801C350.864 41.9586 350.82 42.0479 350.73 42.0479C350.686 42.0479 350.641 42.0925 350.597 42.1818C350.507 42.2264 350.463 42.2488 350.463 42.2488C350.507 42.2041 350.485 42.1818 350.396 42.1818C350.262 42.405 350.173 42.5389 350.129 42.5835C350.084 42.6282 350.039 42.6505 349.995 42.6505C349.95 42.6505 349.883 42.6505 349.794 42.6505C349.705 42.6059 349.594 42.6505 349.46 42.7844C349.371 42.829 349.304 42.8514 349.259 42.8514C349.259 42.8514 349.215 42.896 349.126 42.9853C349.036 43.2085 348.925 43.3647 348.791 43.454C348.702 43.4986 348.591 43.6325 348.457 43.8557C348.457 43.7664 348.412 43.7664 348.323 43.8557C348.1 43.9896 347.81 44.1682 347.454 44.3913C347.142 44.6145 346.785 44.8377 346.384 45.0609C345.983 45.2841 345.559 45.4849 345.113 45.6635C344.712 45.842 344.356 45.9536 344.044 45.9983C343.553 46.0875 343.063 46.1099 342.572 46.0652C342.127 46.0652 341.614 45.909 341.034 45.5965C340.99 45.5519 340.923 45.5073 340.834 45.4626C340.745 45.4626 340.7 45.418 340.7 45.3287L340.566 45.0609L340.433 44.9939C340.076 44.7708 339.809 44.4806 339.63 44.1235C339.497 43.7664 339.385 43.4093 339.296 43.0522C339.207 42.829 339.14 42.7398 339.095 42.7844C339.184 42.5612 339.184 42.405 339.095 42.3157C339.051 42.0925 339.028 41.7354 339.028 41.2444C339.073 40.7088 339.118 40.1732 339.162 39.6375C339.251 39.0572 339.318 38.5216 339.363 38.0306C339.407 37.5396 339.452 37.1602 339.497 36.8923C339.407 36.8923 339.34 36.937 339.296 37.0263C339.251 37.1155 339.229 37.2048 339.229 37.2941C339.006 37.5619 338.828 37.8074 338.694 38.0306C338.56 38.2091 338.404 38.4546 338.226 38.7671C338.003 38.8564 337.825 39.0349 337.691 39.3027C337.602 39.5706 337.379 39.8161 337.022 40.0392C336.933 40.2178 336.799 40.374 336.621 40.5079C336.487 40.6418 336.354 40.7534 336.22 40.8427C335.997 41.3337 335.618 41.7354 335.083 42.0479C334.459 42.7621 333.746 43.4093 332.943 43.9896C332.186 44.5699 331.45 45.1055 330.737 45.5965C330.202 45.909 329.667 46.0429 329.132 45.9983C328.597 45.9536 328.04 45.842 327.46 45.6635C327.282 45.5296 327.014 45.4403 326.658 45.3957C326.346 45.3957 326.123 45.351 325.989 45.2618C325.766 45.1278 325.61 44.8823 325.521 44.5252C325.387 44.1682 325.276 43.9226 325.187 43.7887C325.142 42.896 325.254 41.8694 325.521 40.7088C325.789 39.5482 326.123 38.3877 326.524 37.2271C326.925 36.0666 327.349 34.9506 327.795 33.8794C328.24 32.7634 328.597 31.8037 328.864 31.0003L329.533 29.0586C329.578 28.88 329.578 28.7684 329.533 28.7238C329.533 28.6345 329.555 28.5676 329.6 28.5229C329.912 28.4783 330.291 28.4337 330.737 28.389C331.227 28.3444 331.606 28.4337 331.874 28.6569C332.186 28.5676 332.431 28.6569 332.609 28.9247C332.832 29.1479 332.988 29.3264 333.077 29.4603C333.077 29.7728 333.122 29.929 333.211 29.929C333.033 30.2415 332.966 30.5093 333.01 30.7325C333.099 30.9556 333.099 31.1788 333.01 31.402L332.609 32.2055C332.609 32.1608 332.52 32.2278 332.342 32.4063C332.297 32.5403 332.208 32.7858 332.074 33.1429C331.985 33.4999 331.874 33.8794 331.74 34.2811C331.606 34.6382 331.472 34.9953 331.339 35.3524C331.249 35.6648 331.16 35.888 331.071 36.0219C330.714 36.6022 330.402 37.1825 330.135 37.7628C329.912 38.343 329.711 38.8117 329.533 39.1688C329.31 39.9277 329.132 40.6642 328.998 41.3784C328.864 42.0479 328.753 42.7844 328.664 43.5879C330.67 42.1595 332.721 40.374 334.816 38.2315C336.956 36.0889 339.028 33.6115 341.034 30.7994C341.124 30.5762 341.213 30.42 341.302 30.3307C341.436 30.1968 341.503 29.996 341.503 29.7281C341.815 29.6389 341.993 29.5496 342.038 29.4603C342.662 29.4603 343.085 29.4826 343.308 29.5273C343.531 29.5273 343.843 29.6612 344.244 29.929C344.289 30.3754 344.311 30.8887 344.311 31.469C344.311 32.0046 344.266 32.5626 344.177 33.1429C344.088 33.6785 343.954 34.1918 343.776 34.6828C343.642 35.1292 343.486 35.464 343.308 35.6872C343.174 36.1782 343.018 36.7808 342.84 37.4949C342.662 38.2091 342.483 38.9456 342.305 39.7045C342.171 40.4633 342.082 41.1998 342.038 41.914C342.038 42.5835 342.149 43.1192 342.372 43.5209C343.219 43.4316 344.11 43.0299 345.047 42.3157C346.027 41.6015 346.874 41.0659 347.588 40.7088L347.654 40.5079C347.833 40.4187 347.944 40.374 347.989 40.374C348.078 40.374 348.123 40.374 348.123 40.374C348.167 40.374 348.189 40.374 348.189 40.374C348.234 40.3294 348.323 40.2178 348.457 40.0392C349.705 39.3697 350.842 38.5439 351.867 37.5619C352.135 37.3387 352.224 37.2494 352.135 37.2941C352.045 37.2941 352.157 37.2718 352.469 37.2271C352.692 36.9147 352.915 36.6692 353.138 36.4906C353.361 36.3121 353.583 36.1335 353.806 35.955C354.074 35.7764 354.364 35.5756 354.676 35.3524C354.988 35.0846 355.322 34.7275 355.679 34.2811H356.414ZM356.147 34.7498C356.147 34.7498 356.169 34.7275 356.214 34.6828C356.169 34.6382 356.124 34.5935 356.08 34.5489C356.08 34.4596 356.102 34.5266 356.147 34.7498Z" fill="#8C7A76"/>
<path d="M375.474 37.9636C375.474 38.0529 375.43 38.1199 375.34 38.1645C375.296 38.2091 375.318 38.2315 375.407 38.2315C375.184 38.5439 374.828 38.968 374.337 39.5036C373.892 39.9946 373.602 40.374 373.468 40.6418C373.379 40.6418 373.201 40.6865 372.933 40.7758C373.022 40.6418 373.156 40.5079 373.334 40.374C373.557 40.2401 373.736 40.1285 373.869 40.0392C373.869 39.95 373.914 39.8161 374.003 39.6375C374.092 39.4143 374.181 39.2135 374.271 39.0349C374.181 39.0796 374.07 39.2358 373.936 39.5036C373.802 39.7714 373.691 39.95 373.602 40.0392C373.334 40.3071 373.067 40.5079 372.799 40.6418C372.532 40.7311 372.287 40.9543 372.064 41.3114C371.618 41.4899 371.239 41.8247 370.927 42.3157C370.66 42.8067 370.281 43.0969 369.79 43.1861C369.746 43.3201 369.701 43.4093 369.657 43.454C369.612 43.454 369.545 43.4986 369.456 43.5879C369.411 43.4986 369.389 43.4316 369.389 43.387C369.434 43.2977 369.434 43.2531 369.389 43.2531L368.787 43.7887C368.564 43.878 368.364 44.0119 368.186 44.1905C368.052 44.3244 367.874 44.3913 367.651 44.3913C367.651 44.3913 367.673 44.369 367.717 44.3244C367.539 44.4137 367.428 44.5029 367.383 44.5922C367.339 44.6368 367.294 44.6815 367.249 44.7261C367.249 44.7707 367.227 44.8377 367.183 44.927C367.138 44.9716 367.027 45.0163 366.848 45.0609C366.759 45.0609 366.714 45.0386 366.714 44.9939C366.536 45.0386 366.358 45.1278 366.18 45.2618C366.046 45.4403 365.867 45.5296 365.645 45.5296C365.645 45.4403 365.689 45.3957 365.778 45.3957C365.511 45.351 365.333 45.418 365.243 45.5965C365.243 45.5965 365.199 45.5965 365.11 45.5965L363.371 46.5339C363.014 46.6678 362.613 46.8017 362.167 46.9356C361.722 47.0695 361.32 47.1588 360.964 47.2035C360.295 47.5159 359.582 47.5829 358.824 47.4043C358.066 47.2704 357.308 47.0249 356.551 46.6678C356.016 46.3554 355.547 46.1099 355.146 45.9313C354.745 45.7528 354.433 45.5296 354.21 45.2618C353.987 45.0386 353.831 44.7707 353.742 44.4583C353.653 44.1012 353.608 43.6102 353.608 42.9853C353.608 42.896 353.631 42.8514 353.675 42.8514C353.72 42.8067 353.742 42.7398 353.742 42.6505C353.697 41.8917 353.787 40.9989 354.01 39.9723C354.232 38.9456 354.455 37.986 354.678 37.0932C354.767 36.87 354.812 36.6692 354.812 36.4906C354.812 36.3121 354.879 36.1335 355.013 35.955C355.235 35.0176 355.525 34.0579 355.882 33.0759C356.238 32.0493 356.617 31.0672 357.019 30.1299C357.108 29.9067 357.152 29.7951 357.152 29.7951C357.152 29.7505 357.13 29.7281 357.085 29.7281L357.353 29.2594C357.71 28.5453 358.133 27.6748 358.623 26.6482C359.158 25.6215 359.537 24.7065 359.76 23.903C359.582 24.0369 359.515 24.0816 359.56 24.0369C359.604 23.9477 359.515 23.903 359.292 23.903C358.98 23.9923 358.668 24.1039 358.356 24.2378C358.088 24.3271 357.799 24.3717 357.487 24.3717C357.13 24.461 356.818 24.5503 356.551 24.6395C356.283 24.7288 355.993 24.7958 355.681 24.8404C355.146 24.9297 354.812 24.9743 354.678 24.9743C354.544 24.9743 354.455 24.9743 354.411 24.9743C354.411 24.9743 354.344 24.9966 354.21 25.0413C354.121 25.0859 353.809 25.1752 353.274 25.3091C353.006 25.2198 352.694 25.2645 352.338 25.443C351.937 25.6215 351.558 25.6885 351.201 25.6439C351.112 25.5992 351.067 25.5769 351.067 25.5769C351.023 25.5323 350.956 25.51 350.867 25.51C350.51 25.6439 350.243 25.6662 350.064 25.5769C349.841 25.443 349.663 25.2645 349.529 25.0413C349.618 24.7734 349.574 24.5279 349.396 24.3048C349.217 24.0816 349.128 23.8584 349.128 23.6352L349.396 23.8361C350.332 23.6575 351.134 23.4567 351.803 23.2335C352.472 22.9657 353.207 22.6978 354.01 22.43C354.812 22.1622 355.77 21.8944 356.885 21.6265C357.999 21.3587 359.47 21.1132 361.298 20.89C362.19 19.0599 363.104 17.386 364.04 15.8684C364.976 14.3507 365.957 12.7885 366.982 11.1815V10.8468C367.071 10.7575 367.16 10.7575 367.249 10.8468C367.383 10.8914 367.495 10.8691 367.584 10.7798C367.539 10.9137 367.561 11.003 367.651 11.0476C367.784 11.0476 367.851 11.0923 367.851 11.1815C368.074 11.2262 368.342 11.3154 368.654 11.4494C368.966 11.5833 369.255 11.7618 369.523 11.985C369.79 12.2082 369.991 12.4537 370.125 12.7215C370.258 12.9447 370.258 13.1902 370.125 13.458L369.523 13.9267C369.478 14.016 369.456 14.1052 369.456 14.1945C369.322 14.5962 369.099 14.9757 368.787 15.3328C368.52 15.6452 368.297 15.98 368.119 16.3371C367.896 16.6942 367.717 17.0066 367.584 17.2745C367.495 17.5423 367.339 17.8771 367.116 18.2788C366.893 18.7252 366.648 19.0599 366.38 19.2831C366.113 19.4617 365.934 19.7964 365.845 20.2874C366.603 20.1982 367.316 20.1312 367.985 20.0866C368.654 20.0419 369.367 20.0196 370.125 20.0196C370.838 19.8411 371.462 19.7518 371.997 19.7518C372.532 19.7518 372.866 19.7518 373 19.7518C373.223 19.7518 373.357 19.7518 373.401 19.7518C373.49 19.7518 373.535 19.7518 373.535 19.7518C373.58 19.7518 373.624 19.7518 373.669 19.7518C373.713 19.7518 373.825 19.7295 374.003 19.6848C374.404 19.7741 374.783 19.7518 375.14 19.6179C375.541 19.484 375.965 19.484 376.41 19.6179C376.544 19.6179 376.678 19.6402 376.812 19.6848C376.99 19.7295 377.168 19.7295 377.346 19.6848C377.302 19.7295 377.324 19.7295 377.413 19.6848C377.503 19.6402 377.592 19.6179 377.681 19.6179L377.614 19.6848C377.881 19.7741 378.082 19.7741 378.216 19.6848C378.082 19.5956 377.993 19.5509 377.948 19.5509C377.948 19.5063 378.127 19.5509 378.483 19.6848C378.84 19.6848 379.286 19.7295 379.821 19.8188C380.356 19.8634 380.801 20.0866 381.158 20.4883C381.203 20.5329 381.203 20.6222 381.158 20.7561C381.158 20.8454 381.18 20.9347 381.225 21.024C381.18 21.0686 381.136 21.0909 381.091 21.0909C381.047 21.0909 381.024 21.1355 381.024 21.2248C381.069 21.2695 381.091 21.3141 381.091 21.3587C381.136 21.3587 381.225 21.381 381.359 21.4257C381.269 21.515 381.136 21.5596 380.957 21.5596C381.002 21.7381 381.136 21.8944 381.359 22.0283C381.269 22.1176 381.158 22.1622 381.024 22.1622C380.935 22.1622 380.868 22.2068 380.824 22.2961C380.734 22.2961 380.645 22.2738 380.556 22.2291C380.244 22.2738 379.954 22.2738 379.687 22.2291C379.464 22.1845 379.174 22.2515 378.818 22.43C378.595 22.2961 378.461 22.2515 378.416 22.2961C378.372 22.3407 378.283 22.3407 378.149 22.2961C378.149 22.2068 378.171 22.1845 378.216 22.2291C378.26 22.2291 378.283 22.1845 378.283 22.0952C378.104 22.0952 377.993 22.1399 377.948 22.2291C377.904 22.2738 377.859 22.3184 377.815 22.3631C377.815 22.4077 377.792 22.43 377.748 22.43C377.703 22.3854 377.614 22.2961 377.48 22.1622C377.302 22.2515 377.213 22.2961 377.213 22.2961L377.146 22.3631H377.079C376.99 22.3631 376.945 22.3631 376.945 22.3631C376.99 22.3184 376.99 22.2738 376.945 22.2291C376.812 22.3184 376.745 22.3854 376.745 22.43C376.656 22.2515 376.477 22.2291 376.21 22.3631C375.987 22.4523 375.942 22.3854 376.076 22.1622C375.987 22.1622 375.92 22.2515 375.875 22.43C375.875 22.5639 375.764 22.5639 375.541 22.43C375.63 22.2515 375.675 22.1845 375.675 22.2291C375.719 22.2291 375.742 22.1845 375.742 22.0952C375.697 22.0952 375.63 22.1176 375.541 22.1622C375.452 22.2068 375.385 22.2961 375.34 22.43C375.34 22.43 375.34 22.3631 375.34 22.2291C375.162 22.2291 375.073 22.3184 375.073 22.497C375.073 22.497 375.073 22.43 375.073 22.2961C374.939 22.2068 374.85 22.1845 374.806 22.2291C374.761 22.2738 374.672 22.2961 374.538 22.2961C374.449 22.2068 374.449 22.1845 374.538 22.2291C374.627 22.2291 374.716 22.1845 374.806 22.0952C374.716 22.0952 374.605 22.0952 374.471 22.0952C374.337 22.0952 374.248 22.1399 374.204 22.2291C373.936 22.0506 373.713 22.0506 373.535 22.2291C373.58 22.3184 373.646 22.3184 373.736 22.2291C373.869 22.1399 373.959 22.1399 374.003 22.2291C373.959 22.2738 373.869 22.3184 373.736 22.3631C373.602 22.4077 373.468 22.4523 373.334 22.497C373.245 22.497 373.178 22.497 373.134 22.497C373.089 22.4523 373.112 22.3854 373.201 22.2961H372.933V22.2291C372.889 22.2291 372.866 22.2515 372.866 22.2961V22.2291C372.822 22.2291 372.777 22.2068 372.733 22.1622C372.733 22.1176 372.71 22.1399 372.666 22.2291C372.71 22.2291 372.733 22.2515 372.733 22.2961C372.733 22.2961 372.755 22.2961 372.799 22.2961C372.621 22.3854 372.532 22.4746 372.532 22.5639C372.532 22.6086 372.487 22.5639 372.398 22.43C372.398 22.2515 372.265 22.1845 371.997 22.2291C371.73 22.2291 371.484 22.2738 371.261 22.3631V22.2291C371.128 22.3184 370.949 22.4077 370.727 22.497C370.548 22.5862 370.37 22.5416 370.192 22.3631C370.281 22.3184 370.348 22.2961 370.392 22.2961C370.437 22.2961 370.481 22.2738 370.526 22.2291C370.526 22.1399 370.504 22.0952 370.459 22.0952C370.414 22.0952 370.392 22.0729 370.392 22.0283C370.303 22.0283 370.236 22.0506 370.192 22.0952C370.147 22.1399 370.08 22.1845 369.991 22.2291C369.946 22.2291 369.924 22.1845 369.924 22.0952C369.924 22.0506 369.946 22.0283 369.991 22.0283C369.768 22.0283 369.679 22.006 369.724 21.9613C369.634 21.9613 369.59 22.0506 369.59 22.2291C369.59 22.4077 369.545 22.5416 369.456 22.6309C369.233 22.6309 369.033 22.6532 368.854 22.6978C368.72 22.6978 368.498 22.6978 368.186 22.6978C368.186 22.6086 368.208 22.5862 368.252 22.6309C368.342 22.6309 368.386 22.5862 368.386 22.497C368.342 22.497 368.319 22.497 368.319 22.497C368.319 22.4523 368.297 22.43 368.252 22.43H368.186C368.096 22.43 368.007 22.4523 367.918 22.497C367.829 22.497 367.74 22.497 367.651 22.497C367.561 22.7202 367.428 22.8094 367.249 22.7648C367.116 22.6755 367.004 22.6755 366.915 22.7648V22.6978C366.781 22.6978 366.692 22.7425 366.648 22.8317C366.781 22.8764 366.87 22.8541 366.915 22.7648C366.96 22.8541 366.982 22.8764 366.982 22.8317C367.027 22.7871 367.049 22.8094 367.049 22.8987C367.049 22.988 367.004 23.0326 366.915 23.0326C366.87 23.0326 366.804 23.0772 366.714 23.1665C366.581 23.1665 366.469 23.1442 366.38 23.0996C366.291 23.0103 366.18 23.0103 366.046 23.0996C365.823 23.0996 365.555 23.1219 365.243 23.1665C364.976 23.2112 364.731 23.2558 364.508 23.3004C364.329 23.3897 364.218 23.5013 364.173 23.6352C364.129 23.7245 364.062 23.8584 363.973 24.0369C363.661 24.8404 363.215 25.8001 362.635 26.916C362.056 28.0319 361.588 29.0809 361.231 30.0629C361.098 30.4646 360.986 30.7548 360.897 30.9333C360.852 31.1119 360.785 31.2681 360.696 31.402C360.652 31.4913 360.585 31.6252 360.496 31.8037C360.451 31.9823 360.362 32.2948 360.228 32.7411C359.738 33.5446 359.359 34.5489 359.091 35.7541C358.824 36.9147 358.579 38.0975 358.356 39.3027C358.267 39.7045 358.155 40.1062 358.022 40.5079C357.888 40.9097 357.799 41.3337 357.754 41.7801C357.71 42.4496 357.576 43.0746 357.353 43.6548C357.175 44.1905 357.264 44.7707 357.62 45.3957C357.71 45.4403 357.732 45.4403 357.687 45.3957C357.643 45.3957 357.71 45.3957 357.888 45.3957C358.244 45.3957 358.69 45.351 359.225 45.2618C359.76 45.1278 360.228 44.9716 360.629 44.7931C361.12 44.6592 361.61 44.5029 362.101 44.3244C362.636 44.1012 363.126 43.9226 363.572 43.7887C363.661 43.6995 363.705 43.6771 363.705 43.7218C363.75 43.7218 363.772 43.6771 363.772 43.5879C363.906 43.5432 364.04 43.5209 364.173 43.5209C364.307 43.4763 364.396 43.3647 364.441 43.1861C364.708 43.0969 364.909 43.0299 365.043 42.9853C365.221 42.896 365.355 42.8067 365.444 42.7175C365.578 42.6282 365.711 42.5612 365.845 42.5166C365.979 42.4273 366.18 42.338 366.447 42.2488V41.9809C366.625 42.1149 366.893 41.9809 367.249 41.5792C367.294 41.5792 367.339 41.6015 367.383 41.6462C367.784 41.3783 368.23 41.0882 368.721 40.7758C369.255 40.4633 369.746 40.1508 370.192 39.8384C370.415 39.7937 370.771 39.5706 371.261 39.1688C371.752 38.7671 372.242 38.3207 372.733 37.8297C373.268 37.3387 373.736 36.8923 374.137 36.4906C374.538 36.0442 374.783 35.7764 374.872 35.6872C374.917 35.7318 374.962 35.7541 375.006 35.7541C375.051 35.4863 375.073 35.3301 375.073 35.2854C375.118 35.2408 375.14 35.2185 375.14 35.2185C375.184 35.2185 375.207 35.2185 375.207 35.2185C375.251 35.1738 375.34 35.0622 375.474 34.8837C375.474 34.7498 375.496 34.6828 375.541 34.6828C375.675 34.5936 375.764 34.5266 375.809 34.482C375.853 34.4373 375.92 34.348 376.009 34.2141C376.277 34.2588 376.455 34.1025 376.544 33.7455C376.856 33.8347 377.057 33.9463 377.146 34.0802C377.28 34.1695 377.391 34.1695 377.48 34.0802C377.48 34.1695 377.525 34.2365 377.614 34.2811C377.703 34.2811 377.792 34.2811 377.881 34.2811C377.881 34.3704 377.859 34.415 377.815 34.415C377.815 34.415 377.815 34.4373 377.815 34.482C377.904 34.5266 377.837 34.5936 377.614 34.6828C377.436 34.7721 377.458 34.8391 377.681 34.8837C377.681 34.973 377.636 35.1069 377.547 35.2854C377.592 35.2854 377.659 35.3524 377.748 35.4863C377.659 35.4863 377.28 35.9996 376.611 37.0263H376.678C376.633 37.0709 376.589 37.0932 376.544 37.0932C376.366 37.2718 376.277 37.3387 376.277 37.2941L375.875 37.6289V37.4949C375.786 37.5842 375.742 37.6735 375.742 37.7628C375.742 37.8074 375.697 37.852 375.608 37.8967C375.563 37.9413 375.541 38.0083 375.541 38.0975V38.0306C375.541 37.9859 375.519 37.9636 375.474 37.9636ZM376.745 36.5576C376.7 36.5576 376.745 36.4906 376.878 36.3567V36.2897L376.745 36.3567C376.656 36.4906 376.544 36.6245 376.41 36.7584C376.321 36.8477 376.232 36.937 376.143 37.0263V36.8254C375.965 37.0932 375.898 37.3164 375.942 37.4949L376.076 37.361H376.009L376.076 37.0932C376.165 37.0932 376.232 37.1155 376.277 37.1602C376.277 37.0263 376.366 36.9147 376.544 36.8254L376.745 36.4906V36.5576ZM370.927 42.0479C371.061 41.914 371.172 41.8024 371.261 41.7131C371.395 41.6239 371.507 41.4899 371.596 41.3114C371.462 41.4007 371.284 41.5123 371.061 41.6462C370.883 41.7801 370.838 41.914 370.927 42.0479ZM372.532 41.4453C372.666 41.2221 372.799 41.0882 372.933 41.0436C373.112 40.9543 373.29 40.8427 373.468 40.7088V40.7758C373.29 40.865 373.112 40.9766 372.933 41.1105C372.799 41.2444 372.666 41.356 372.532 41.4453ZM377.213 21.3587C377.124 21.448 377.012 21.4703 376.878 21.4257C376.789 21.3364 376.7 21.3364 376.611 21.4257C376.7 21.4703 376.834 21.515 377.012 21.5596C377.19 21.5596 377.257 21.4926 377.213 21.3587ZM373.936 40.0392C373.892 39.8161 373.981 39.6152 374.204 39.4366C374.427 39.2581 374.538 39.1242 374.538 39.0349C374.627 39.1242 374.56 39.3027 374.337 39.5706C374.159 39.7937 374.025 39.95 373.936 40.0392ZM371.863 40.9097C372.042 40.9543 372.153 40.932 372.198 40.8427C372.242 40.7534 372.309 40.6642 372.398 40.5749C372.398 40.3963 372.421 40.2847 372.465 40.2401C372.376 40.2401 372.331 40.3071 372.331 40.441C372.331 40.441 372.354 40.4856 372.398 40.5749C372.309 40.6195 372.22 40.6865 372.131 40.7758C372.042 40.8204 371.952 40.865 371.863 40.9097ZM366.046 22.7648C366.135 22.8541 366.202 22.8764 366.246 22.8317C366.291 22.7871 366.336 22.7648 366.38 22.7648C366.38 22.7202 366.402 22.6978 366.447 22.6978C366.492 22.6532 366.469 22.5862 366.38 22.497C366.38 22.5862 366.336 22.6532 366.246 22.6978C366.157 22.6978 366.09 22.7202 366.046 22.7648ZM371.863 41.1775C371.908 41.2668 371.975 41.2891 372.064 41.2444C372.198 41.1552 372.22 41.0659 372.131 40.9766C372.086 41.0659 372.019 41.1105 371.93 41.1105C371.886 41.0659 371.863 41.0882 371.863 41.1775ZM371.796 40.1732C371.886 40.2178 371.975 40.1955 372.064 40.1062C372.153 40.0169 372.175 39.9277 372.131 39.8384C372.042 39.9277 371.975 39.9946 371.93 40.0392C371.93 40.0839 371.886 40.1285 371.796 40.1732ZM372.866 22.3631C372.822 22.3631 372.799 22.3407 372.799 22.2961H372.866C372.911 22.2961 372.933 22.2961 372.933 22.2961C373.022 22.43 373.022 22.497 372.933 22.497C372.889 22.4523 372.866 22.4077 372.866 22.3631ZM365.845 22.8317C365.845 22.7871 365.867 22.7648 365.912 22.7648C365.957 22.7648 365.979 22.7425 365.979 22.6978C365.801 22.6086 365.756 22.6532 365.845 22.8317ZM371.328 22.497C371.15 22.5416 371.061 22.5639 371.061 22.5639C371.105 22.5193 371.172 22.4523 371.261 22.3631C371.261 22.4523 371.284 22.497 371.328 22.497ZM376.21 37.2271C376.121 37.1825 376.076 37.2048 376.076 37.2941C376.121 37.3387 376.121 37.361 376.076 37.361L376.21 37.2271ZM368.186 22.43C368.186 22.5193 368.141 22.5639 368.052 22.5639C368.141 22.4746 368.186 22.43 368.186 22.43ZM376.745 36.6915C376.834 36.6022 376.878 36.5353 376.878 36.4906L376.745 36.6245V36.6915ZM372.666 40.1732C372.71 40.2178 372.733 40.1732 372.733 40.0392C372.733 40.0839 372.71 40.1285 372.666 40.1732ZM368.052 22.6309C367.963 22.5862 367.963 22.5639 368.052 22.5639V22.6309ZM373.535 40.6418C373.49 40.6865 373.468 40.7088 373.468 40.7088V40.6418H373.535Z" fill="#8C7A76"/>
<path d="M398.328 37.1602C398.418 37.2941 398.262 37.5173 397.86 37.8297C397.459 38.1422 397.058 38.4993 396.657 38.901C396.568 38.9456 396.367 39.1019 396.055 39.3697C395.743 39.6375 395.565 39.8161 395.52 39.9053L395.119 40.2401L393.982 41.1105L393.447 41.4453L392.511 42.0479C391.753 42.5389 391.04 43.0076 390.371 43.454C389.702 43.9003 388.878 44.3021 387.897 44.6592C387.852 44.6592 387.763 44.6815 387.63 44.7261C387.54 44.7707 387.429 44.8154 387.295 44.86C387.117 44.9047 386.961 44.9493 386.827 44.9939C386.649 44.9939 386.493 45.0386 386.359 45.1278C386.225 45.1725 386.047 45.1948 385.824 45.1948C385.78 45.1948 385.802 45.1502 385.891 45.0609C385.668 45.1055 385.49 45.1502 385.356 45.1948C385.222 45.1948 385.066 45.2618 384.888 45.3957C384.754 45.3064 384.621 45.3064 384.487 45.3957C384.398 45.5296 384.264 45.5519 384.086 45.4626C383.996 45.5965 383.863 45.6412 383.684 45.5965C383.506 45.5519 383.35 45.5965 383.216 45.7304C383.127 45.6858 383.105 45.6412 383.149 45.5965C383.194 45.5965 383.172 45.5742 383.083 45.5296C382.949 45.5742 382.77 45.5742 382.548 45.5296C382.369 45.5296 382.169 45.5965 381.946 45.7304C381.812 45.6412 381.701 45.6188 381.611 45.6635C381.567 45.7081 381.433 45.6858 381.21 45.5965L381.143 45.7304C380.475 45.5965 379.984 45.5519 379.672 45.5965C379.494 45.5519 379.36 45.5073 379.271 45.4626C379.182 45.418 379.093 45.4403 379.004 45.5296C378.513 45.4403 378.045 45.351 377.599 45.2618C377.198 45.1278 376.752 44.9493 376.262 44.7261C375.727 44.5029 375.259 44.1905 374.858 43.7887C374.457 43.3424 374.078 42.8737 373.721 42.3827C373.543 42.0702 373.409 41.7578 373.32 41.4453C373.231 41.1328 373.141 40.8427 373.052 40.5749C372.963 40.2178 372.919 39.9053 372.919 39.6375C372.919 39.3251 372.963 38.9903 373.052 38.6332C373.141 38.1422 373.297 37.4726 373.52 36.6245C373.699 35.7764 374.033 35.0399 374.523 34.415L376.061 32.6742L377.064 31.3351C377.421 31.0672 377.711 30.8441 377.934 30.6655C378.157 30.487 378.424 30.2191 378.736 29.862C378.959 29.6389 379.226 29.4603 379.539 29.3264C379.851 29.1479 380.118 28.947 380.341 28.7238C380.742 28.456 381.054 28.2105 381.277 27.9873C381.589 27.7641 381.923 27.5632 382.28 27.3847C382.637 27.1615 382.971 27.0053 383.283 26.916C383.417 26.8267 383.595 26.7821 383.818 26.7821C384.041 26.7821 384.219 26.7375 384.353 26.6482C384.442 26.6036 384.531 26.5589 384.621 26.5143C384.71 26.4696 384.821 26.4473 384.955 26.4473C385.178 26.8044 385.467 27.1169 385.824 27.3847C386.225 27.6079 386.537 27.898 386.76 28.2551C387.072 28.3444 387.251 28.5006 387.295 28.7238C387.34 28.947 387.474 29.1479 387.696 29.3264C387.786 29.6835 387.786 29.996 387.696 30.2638C387.652 30.5316 387.54 30.8217 387.362 31.1342C387.273 31.2235 387.228 31.3127 387.228 31.402C387.228 31.4913 387.206 31.5806 387.161 31.6698C387.072 31.893 386.916 32.0939 386.693 32.2724C386.515 32.4063 386.337 32.5849 386.158 32.8081C386.069 32.8974 385.98 33.0313 385.891 33.2098C385.846 33.3884 385.78 33.5669 385.69 33.7455C385.512 33.924 385.289 34.1472 385.022 34.415C384.754 34.6828 384.509 34.9506 384.286 35.2185C384.063 35.5309 383.773 35.7541 383.417 35.888C383.105 36.0219 382.837 36.2228 382.614 36.4906C382.481 36.5799 382.414 36.7138 382.414 36.8923C382.057 37.2494 381.634 37.5842 381.143 37.8967C380.698 38.1645 380.296 38.477 379.94 38.8341C379.226 38.968 378.558 39.2358 377.934 39.6375C377.354 40.0392 376.663 40.1508 375.861 39.9723C375.772 40.0169 375.749 40.0616 375.794 40.1062C375.883 40.1508 375.995 40.1732 376.128 40.1732C375.995 40.3963 375.972 40.5749 376.061 40.7088C376.195 40.7981 376.284 40.9097 376.329 41.0436C376.685 41.4007 377.109 41.7354 377.599 42.0479C378.09 42.3604 378.625 42.5612 379.204 42.6505C380.854 43.1415 382.414 43.1638 383.885 42.7175C384.375 42.6282 384.821 42.5389 385.222 42.4496C385.668 42.3604 386.181 42.2041 386.76 41.9809C387.474 41.7131 388.12 41.423 388.699 41.1105L389.569 40.7088C389.702 40.6195 389.769 40.5972 389.769 40.6418C389.814 40.6418 389.814 40.6642 389.769 40.7088C389.769 40.7088 389.769 40.7311 389.769 40.7758C389.769 40.7758 389.836 40.7311 389.97 40.6418L391.709 39.8384C392.199 39.4813 392.6 39.2135 392.912 39.0349C393.224 38.8117 393.692 38.4546 394.316 37.9636C394.361 37.919 394.495 37.8297 394.718 37.6958C394.94 37.5173 395.163 37.3387 395.386 37.1602C395.654 36.9816 395.899 36.8254 396.122 36.6915C396.345 36.5129 396.501 36.4013 396.59 36.3567L397.259 35.6872C397.794 35.3301 398.239 35.0399 398.596 34.8167C398.997 34.5489 399.287 34.3704 399.465 34.2811C399.599 34.415 399.688 34.6159 399.733 34.8837C399.777 35.1069 399.866 35.2185 400 35.2185C399.733 35.6202 399.532 35.9327 399.398 36.1558C399.309 36.3344 399.22 36.4683 399.131 36.5576C399.086 36.6468 398.997 36.7361 398.863 36.8254C398.774 36.87 398.596 36.9816 398.328 37.1602ZM384.152 29.6612C384.019 29.7505 383.863 29.862 383.684 29.996C383.506 30.1299 383.35 30.2415 383.216 30.3307C383.038 30.3307 382.927 30.3754 382.882 30.4646C382.793 30.5093 382.704 30.5539 382.614 30.5986C382.57 30.6432 382.503 30.6878 382.414 30.7325L381.879 31.1342C381.656 31.3574 381.433 31.5359 381.21 31.6698C380.987 31.7591 380.764 31.893 380.542 32.0716C380.274 32.4287 380.007 32.7188 379.739 32.942C379.516 33.1205 379.271 33.3884 379.004 33.7455C378.513 34.0579 378.112 34.4373 377.8 34.8837C377.31 35.3747 376.864 35.8657 376.463 36.3567C376.061 36.8031 375.749 37.2718 375.526 37.7628C376.373 37.4949 377.176 37.0709 377.934 36.4906C378.692 35.9103 379.494 35.3077 380.341 34.6828C380.608 34.4596 380.876 34.2365 381.143 34.0133C381.411 33.7901 381.656 33.5223 381.879 33.2098C382.28 32.9866 382.726 32.6295 383.216 32.1385C383.751 31.6029 384.197 31.0896 384.554 30.5986C384.643 30.3754 384.732 30.1745 384.821 29.996C384.955 29.8174 384.977 29.6389 384.888 29.4603C384.799 29.4603 384.665 29.4826 384.487 29.5273C384.353 29.5273 384.242 29.5719 384.152 29.6612Z" fill="#8C7A76"/>
</svg>
