<svg width="329" height="123" viewBox="0 0 329 123" fill="none" xmlns="http://www.w3.org/2000/svg">
<path d="M23.7967 16.138C23.8575 15.9557 23.9183 15.8949 23.9791 15.9557C24.0399 15.9557 24.131 15.8949 24.2526 15.7733V16.9586C24.1918 16.837 24.1006 16.8066 23.9791 16.8674C23.9183 16.8674 23.9183 16.7762 23.9791 16.5939C23.7967 16.6547 23.6752 16.8066 23.6144 17.0498C23.6144 17.2321 23.5232 17.2321 23.3409 17.0498C23.3409 17.2321 23.3409 17.3233 23.3409 17.3233C23.2193 17.3233 23.1585 17.2929 23.1585 17.2321C23.2193 17.1713 23.2193 17.1409 23.1585 17.1409C22.9761 17.4449 22.7026 17.7184 22.3379 17.9615C21.9732 18.2047 21.6693 18.4174 21.4262 18.5997C21.1223 18.539 21.0615 18.5086 21.2438 18.5086C21.487 18.4478 21.5781 18.3566 21.5173 18.235C21.3958 18.235 21.2742 18.2654 21.1526 18.3262C21.0311 18.3262 20.9703 18.387 20.9703 18.5086C20.6056 18.387 20.3625 18.1743 20.2409 17.8703C20.1801 17.5664 19.9066 17.2625 19.4203 16.9586C19.3595 16.5331 19.238 16.1076 19.0556 15.6821C18.934 15.1959 18.8125 14.7096 18.6909 14.2233C18.6301 13.7371 18.5997 13.2508 18.5997 12.7645C18.6605 12.2783 18.8429 11.792 19.1468 11.3057C19.2684 11.3665 19.3291 11.3665 19.3291 11.3057C19.3291 11.2449 19.3899 11.2146 19.5115 11.2146C19.5723 11.093 19.6331 11.0322 19.6938 11.0322C19.8154 10.9714 19.9066 10.8802 19.9674 10.7587C20.0889 10.7587 20.2105 10.6675 20.3321 10.4851C20.4536 10.3028 20.5448 10.1204 20.6056 9.9381C22.2467 8.844 23.9183 7.87146 25.6202 7.02049C27.3222 6.10874 29.0849 5.22738 30.9084 4.37641C31.3339 4.13328 31.7898 3.89014 32.276 3.64701C32.7623 3.40388 33.2486 3.19113 33.7348 3.00879C34.0387 2.88722 34.3731 2.76565 34.7378 2.64408C35.1632 2.52252 35.5279 2.40095 35.8319 2.27938C36.6828 1.97547 37.5642 1.73233 38.4759 1.54998C39.3877 1.30685 40.3602 1.03332 41.3935 0.729403C42.4269 0.607838 43.4906 0.48627 44.5847 0.364701C45.6788 0.182353 46.7729 0.0607863 47.867 0C50.116 0 52.2434 0.33431 54.2492 1.00293C56.2551 1.67155 57.7747 2.67447 58.808 4.01171C59.0511 4.31563 59.2639 4.64994 59.4462 5.01464C59.6894 5.37934 59.9629 5.77443 60.2668 6.19991C60.3884 6.50383 60.5099 6.77736 60.6315 7.02049C60.7531 7.20284 60.8746 7.47637 60.9962 7.84107C61.7864 8.87439 62.2119 10.0293 62.2727 11.3057C62.5158 13.6155 62.2119 15.7125 61.3609 17.5968C60.5707 19.4203 59.5678 20.9399 58.3521 22.1556C57.6835 23.4928 56.8021 24.6173 55.708 25.5291C54.6139 26.38 53.611 27.3526 52.6993 28.4467C51.9699 28.8721 51.3012 29.4496 50.6934 30.179C50.0856 30.8476 49.3258 31.2427 48.414 31.3643C47.1984 32.3368 45.9827 33.2182 44.767 34.0084C43.5514 34.7378 42.3357 35.4672 41.12 36.1966C41.4847 36.3789 41.8798 36.5005 42.3053 36.5613C42.7916 36.622 43.1867 36.8044 43.4906 37.1083C45.8003 37.7161 48.0797 38.4152 50.3287 39.2053C50.3287 39.3269 50.3591 39.3877 50.4199 39.3877C50.5415 39.3877 50.6022 39.4485 50.6022 39.57H50.7846C51.8179 40.1779 52.7297 40.8465 53.5198 41.5759C54.3708 42.2445 55.0698 42.9131 55.6169 43.5817C55.7384 44.1288 55.9816 44.6151 56.3463 45.0405C56.7718 45.4053 56.9845 45.8915 56.9845 46.4994C57.1061 46.4994 57.1365 46.5297 57.0757 46.5905C57.0757 46.5905 57.1365 46.5601 57.258 46.4994C57.3188 46.7425 57.4404 46.9856 57.6227 47.2288C57.8051 47.4111 57.8355 47.6542 57.7139 47.9582C58.0178 48.3229 58.2002 48.7787 58.261 49.3258C58.3825 49.8121 58.5953 50.1464 58.8992 50.3287C59.3854 51.4228 59.6286 52.6689 59.6286 54.0669C59.6894 55.4041 59.3551 56.6198 58.6257 57.7139C58.4433 58.1394 58.2002 58.5649 57.8963 58.9904C57.5923 59.4158 57.2884 59.8413 56.9845 60.2668C56.7414 60.6315 56.4071 60.9658 55.9816 61.2697C55.86 61.4521 55.6777 61.604 55.4345 61.7256C55.2522 61.908 55.0394 62.1207 54.7963 62.3638C54.4316 62.6678 54.0669 63.0021 53.7022 63.3668C53.3983 63.7922 53.0944 64.157 52.7904 64.4609C52.1218 64.9471 51.4836 65.3726 50.8758 65.7373C50.3287 66.1628 49.7817 66.6187 49.2346 67.1049H48.8699L46.9552 68.4726C46.2866 68.7157 45.7092 69.0196 45.2229 69.3843C44.7366 69.8098 44.1896 70.1745 43.5817 70.4784C43.2778 70.6 42.9435 70.752 42.5788 70.9343C42.2749 71.1167 41.971 71.3294 41.6671 71.5725C41.3631 71.8157 41.0592 72.0284 40.7553 72.2108C40.4514 72.4539 40.1475 72.6362 39.8436 72.7578C39.1749 73.1833 38.4759 73.5176 37.7465 73.7607C37.0779 74.0039 36.4397 74.247 35.8319 74.4901L33.826 75.4931L29.8143 76.5872C28.5986 76.9519 27.4133 77.347 26.2585 77.7724C25.1036 78.1979 23.7967 78.4715 22.3379 78.593C22.4595 78.4715 22.5811 78.3803 22.7026 78.3195C22.885 78.3195 23.0673 78.2587 23.2497 78.1371C26.1673 77.4077 28.8721 76.496 31.3643 75.4019C33.9172 74.3078 36.4701 73.1833 39.023 72.0284C39.1446 71.9068 39.2357 71.8157 39.2965 71.7549C39.4181 71.6941 39.5093 71.5725 39.57 71.3902C40.2994 71.2078 40.9681 70.9039 41.5759 70.4784C42.1837 70.1137 42.822 69.7794 43.4906 69.4755C43.9768 69.1716 44.4327 68.8373 44.8582 68.4726C45.3445 68.1079 45.8915 67.8343 46.4994 67.652C46.6817 67.3481 46.8337 67.1657 46.9552 67.1049C46.8944 66.8618 46.8944 66.7099 46.9552 66.6491C47.0768 66.5883 47.1376 66.4971 47.1376 66.3755C46.8337 66.3755 46.5905 66.4971 46.4082 66.7402C46.2258 66.9834 46.0435 67.1657 45.8611 67.2873C45.7396 67.4089 45.618 67.4696 45.4964 67.4696C45.3749 67.4696 45.2837 67.5304 45.2229 67.652C44.919 67.7128 44.7062 67.804 44.5847 67.9255C44.5239 68.1079 44.4023 68.2598 44.22 68.3814L43.1259 68.7461C42.7612 68.9285 42.3965 69.1412 42.0318 69.3843C41.6671 69.6882 41.3328 69.9922 41.0288 70.2961C39.5093 71.0863 37.9289 71.7853 36.2877 72.3931C35.8622 72.8794 35.224 73.2745 34.3731 73.5784C33.5829 73.8823 32.8839 74.1558 32.276 74.399C31.9721 74.7029 31.577 74.9156 31.0907 75.0372C30.6045 75.1588 30.179 75.3411 29.8143 75.5842C29.8143 75.5842 29.8143 75.4931 29.8143 75.3107C28.8418 75.6146 27.8996 75.9185 26.9879 76.2225C26.0761 76.5264 25.134 76.8303 24.1614 77.1342C24.4653 76.8303 24.7693 76.6783 25.0732 76.6783C25.3771 76.6783 25.681 76.5568 25.9849 76.3136C24.7085 76.7391 23.4928 77.1342 22.3379 77.4989C21.2438 77.9244 19.9066 78.2891 18.3262 78.593C20.5144 77.9852 22.6114 77.3166 24.6173 76.5872C26.6232 75.9185 28.6898 75.1891 30.8172 74.399C30.878 74.399 30.9084 74.3078 30.9084 74.1254C31.5162 74.0039 32.0329 73.8215 32.4584 73.5784C32.9446 73.396 33.5221 73.2137 34.1907 73.0313C34.3123 72.9706 34.3427 72.8794 34.2819 72.7578C34.2211 72.697 34.2515 72.6666 34.3731 72.6666C35.8319 72.1196 37.2299 71.4206 38.5671 70.5696C39.9651 69.7794 41.3024 68.9588 42.5788 68.1079C42.0926 68.2294 41.6063 68.4422 41.12 68.7461C40.6337 69.05 40.1779 69.2628 39.7524 69.3843C39.4485 69.5059 39.1749 69.6579 38.9318 69.8402C38.7495 70.0833 38.5063 70.2657 38.2024 70.3873L36.6524 71.1167C34.7681 72.0892 32.7927 72.9098 30.726 73.5784L32.9142 72.5755C33.0358 72.6362 33.127 72.6058 33.1878 72.4843C33.2486 72.4235 33.279 72.4539 33.279 72.5755C33.8868 72.2715 34.4642 71.9676 35.0113 71.6637C35.6191 71.4206 36.2269 71.1167 36.8348 70.752C37.5642 70.448 38.2024 70.1137 38.7495 69.749C39.3573 69.3843 39.9955 69.0804 40.6641 68.8373C41.6975 67.9255 42.8523 67.1961 44.1288 66.6491C45.4052 66.102 46.5297 65.3118 47.5023 64.2785C47.4415 64.1569 47.3503 64.1266 47.2288 64.1873C47.168 64.3089 47.1376 64.2785 47.1376 64.0962C47.6238 63.9746 47.9885 63.7922 48.2317 63.5491C48.4748 63.306 48.7483 63.0021 49.0523 62.6374C48.6876 62.8197 48.3836 63.0325 48.1405 63.2756C47.9582 63.5795 47.6238 63.7922 47.1376 63.9138C47.016 64.2785 46.7729 64.4913 46.4082 64.552C46.1043 64.6128 45.8003 64.8864 45.4964 65.3726C45.4356 65.3726 45.3445 65.403 45.2229 65.4638C45.1621 65.5854 45.0102 65.6158 44.767 65.555C44.3415 66.102 43.8249 66.5275 43.217 66.8314C42.6092 67.1353 41.9102 67.5304 41.12 68.0167C40.5122 68.3206 39.9043 68.6245 39.2965 68.9285C38.7495 69.2324 38.0808 69.4451 37.2907 69.5667C37.473 69.4451 37.6554 69.3539 37.8377 69.2932C38.0808 69.2932 38.2328 69.202 38.2936 69.0196C37.8073 69.1412 37.3514 69.2932 36.926 69.4755C36.5613 69.7186 36.1662 69.901 35.7407 70.0226C37.0171 69.3539 38.2936 68.7157 39.57 68.1079C40.9073 67.5 42.0926 66.6795 43.1259 65.6461C43.9768 65.3422 44.767 64.856 45.4964 64.1873C46.2258 63.5795 47.016 63.0325 47.867 62.5462C47.9885 62.2423 48.1709 62.0295 48.414 61.908C48.7179 61.7864 48.9915 61.5737 49.2346 61.2697C48.9915 61.2697 48.8395 61.3305 48.7787 61.4521C48.718 61.5129 48.6268 61.5433 48.5052 61.5433C48.6268 61.3001 48.9003 61.0874 49.3258 60.905C49.7513 60.6619 49.9944 60.358 50.0552 59.9933C49.8728 59.9325 49.6601 59.9325 49.417 59.9933C49.2346 60.0541 49.0523 60.1452 48.8699 60.2668C48.7483 60.3884 48.6268 60.5099 48.5052 60.6315C48.3836 60.7531 48.2925 60.7835 48.2317 60.7227C47.867 61.0874 47.4415 61.3913 46.9552 61.6344C46.469 61.9384 45.9219 62.2727 45.3141 62.6374V63.1844C45.1925 63.2452 45.0709 63.306 44.9494 63.3668C44.8886 63.4883 44.7974 63.4883 44.6758 63.3668C44.6758 63.4883 44.7062 63.5795 44.767 63.6403L42.9435 64.2785C42.6396 64.5824 42.2141 64.8256 41.6671 65.0079C41.12 65.251 40.7249 65.4942 40.4818 65.7373C40.7249 65.8589 40.9377 65.7981 41.12 65.555C41.3024 65.3726 41.5455 65.2207 41.8494 65.0991C40.7553 66.0108 39.5093 66.7706 38.1112 67.3785C36.7132 68.0471 35.376 68.7157 34.0995 69.3843C33.7956 69.3235 33.5525 69.3843 33.3701 69.5667C33.1878 69.8098 32.8839 69.8706 32.4584 69.749C32.6407 69.6275 32.8535 69.6275 33.0966 69.749C34.0083 69.1412 35.0417 68.5334 36.1966 67.9255C37.3514 67.3785 38.4759 66.9226 39.57 66.5579C39.5093 66.3148 39.6612 66.1628 40.0259 66.102C40.3906 66.102 40.5122 65.9501 40.3906 65.6461L39.7524 66.102C39.6308 66.102 39.6004 66.0412 39.6612 65.9197C39.722 65.8589 39.6916 65.8589 39.57 65.9197C39.4485 65.9805 39.4181 66.0108 39.4789 66.0108C39.5396 66.0716 39.5093 66.1324 39.3877 66.1932C39.2053 66.254 38.9622 66.3452 38.6583 66.4667C38.4152 66.5883 38.172 66.6795 37.9289 66.7402C37.8073 66.7402 37.7769 66.7402 37.8377 66.7402C37.8985 66.801 37.8985 66.8618 37.8377 66.9226C36.7436 67.4089 35.7103 67.8951 34.7378 68.3814C33.7652 68.9284 32.7623 69.3843 31.729 69.749C31.6682 69.749 31.6682 69.749 31.729 69.749C31.7898 69.8098 31.7594 69.901 31.6378 70.0226C31.4554 69.901 31.2731 69.901 31.0907 70.0226C30.9692 70.1441 30.7868 70.2657 30.5437 70.3873L24.0703 72.6666C23.584 72.7882 23.0673 72.9402 22.5203 73.1225C22.034 73.3049 21.5173 73.4872 20.9703 73.6696C20.6664 73.7303 20.3929 73.8215 20.1497 73.9431C19.9066 74.1254 19.5723 74.2166 19.1468 74.2166C18.4782 74.5205 17.7792 74.7333 17.0498 74.8548C16.3204 75.0372 15.591 75.2195 14.8616 75.4019C14.2537 75.5842 13.6763 75.7058 13.1292 75.7666C12.643 75.8274 12.0655 75.9186 11.3969 76.0401C11.2753 76.0401 11.2449 76.0097 11.3057 75.9489C11.3665 75.9489 11.3361 75.9489 11.2145 75.9489C10.9106 76.0705 10.7283 76.2225 10.6675 76.4048C12.1263 76.344 13.7371 76.1921 15.4998 75.9489C17.3233 75.7666 19.0252 75.4931 20.6056 75.1284C19.7546 75.4323 18.8733 75.645 17.9615 75.7666C17.0498 75.8882 16.2292 76.1617 15.4998 76.5872C15.6214 76.7087 15.7125 76.7087 15.7733 76.5872C15.8341 76.4656 15.9253 76.4352 16.0468 76.496C15.8645 76.6176 15.6214 76.6783 15.3174 76.6783C15.0135 76.7391 14.7704 76.8303 14.588 76.9519C14.7096 77.1342 14.8312 77.195 14.9527 77.1342C15.1351 77.1342 15.3174 77.1342 15.4998 77.1342C15.3782 77.4381 15.1047 77.5597 14.6792 77.4989C14.3145 77.4381 14.0106 77.5293 13.7675 77.7724C14.0106 77.8332 14.2233 77.8028 14.4057 77.6813C14.588 77.6205 14.8312 77.5901 15.1351 77.5901C14.6488 78.0764 14.0714 78.1979 13.4028 77.9548C12.7341 77.7724 12.0655 77.7117 11.3969 77.7724C11.1538 77.8332 10.9714 77.894 10.8498 77.9548C10.7283 78.0764 10.5763 78.0764 10.394 77.9548C9.36065 78.0764 8.26655 78.0156 7.11167 77.7724C5.896 77.5293 4.83229 77.3166 3.92053 77.1342C3.73818 76.8303 3.49505 76.5568 3.19113 76.3136C2.88721 76.1313 2.67447 75.8274 2.55291 75.4019C2.49212 75.4019 2.46173 75.3715 2.46173 75.3107C2.40095 75.3107 2.27938 75.3107 2.09703 75.3107C1.97546 75.4323 1.97546 75.5842 2.09703 75.7666C2.2186 75.9489 2.27938 76.1313 2.27938 76.3136C2.09703 76.1313 1.91468 75.9489 1.73233 75.7666C1.54998 75.5842 1.39802 75.3715 1.27645 75.1284C1.39802 75.2499 1.51959 75.3715 1.64115 75.4931C1.76272 75.6146 1.88429 75.7362 2.00585 75.8578C2.00585 75.7362 1.91468 75.5235 1.73233 75.2195C1.54998 74.9764 1.51959 74.8244 1.64115 74.7637C1.51959 74.7637 1.4588 74.7029 1.4588 74.5813C1.39802 74.4597 1.27645 74.4294 1.0941 74.4901C1.15489 74.1862 1.18528 73.9431 1.18528 73.7607C1.12449 73.6392 1.03332 73.4264 0.911752 73.1225L0.455876 73.396C0.577443 73.7 0.607835 73.8823 0.547051 73.9431C0.425484 74.0039 0.364701 73.9431 0.364701 73.7607C0.303917 73.6392 0.243134 73.5176 0.18235 73.396C0.303917 73.2745 0.364701 73.1833 0.364701 73.1225C0.364701 73.0617 0.425484 72.9706 0.547051 72.849C0.425484 72.7274 0.364701 72.6362 0.364701 72.5755C0.303917 72.5147 0.18235 72.4843 0 72.4843C0.121567 72.3019 0.273525 72.1196 0.455876 71.9372C0.638226 71.8157 0.729402 71.6029 0.729402 71.299C1.0941 71.0559 1.30684 70.9647 1.36763 71.0255C1.48919 70.9039 1.58037 70.8127 1.64115 70.752C1.64115 70.6912 1.76272 70.6912 2.00585 70.752C1.94507 70.6304 1.97546 70.5696 2.09703 70.5696C2.2186 70.5696 2.2186 70.5696 2.09703 70.5696C2.52251 70.2049 3.03917 69.9618 3.64701 69.8402C4.25484 69.7186 4.89307 69.6882 5.56169 69.749C5.68325 69.749 5.71365 69.7794 5.65286 69.8402C5.59208 69.901 5.56169 69.9922 5.56169 70.1137C5.68325 70.1137 5.74404 69.9922 5.74404 69.749C5.92639 70.1745 6.2607 70.3569 6.74696 70.2961C7.17245 70.2961 7.56754 70.3873 7.93224 70.5696C7.62833 70.8735 7.23323 70.9647 6.74696 70.8431C6.19991 70.7216 5.83521 70.9039 5.65286 71.3902C5.34894 71.5117 4.98424 71.6637 4.55876 71.8461C4.13328 72.0284 3.98132 72.3323 4.10288 72.7578C4.28523 73.0009 4.61954 73.2137 5.10581 73.396C5.59208 73.5784 6.10874 73.7 6.65579 73.7607C7.20284 73.8823 7.7195 73.9735 8.20577 74.0343C8.75282 74.095 9.1783 74.1254 9.48222 74.1254C9.66457 73.6392 9.81653 73.0617 9.9381 72.3931C10.0597 71.7853 10.1812 71.1774 10.3028 70.5696C10.4244 70.0226 10.5763 69.5059 10.7587 69.0196C10.941 68.5334 11.1234 68.0167 11.3057 67.4696C12.5822 62.5462 14.0714 57.8051 15.7733 53.2463C17.536 48.6876 19.4507 44.2808 21.5173 40.0259C21.3958 39.9651 21.3046 39.9043 21.2438 39.8436C21.2438 39.722 21.1526 39.6612 20.9703 39.6612C21.0311 39.2965 20.9703 39.023 20.7879 38.8406C20.6664 38.5975 20.5144 38.3848 20.3321 38.2024C20.5144 38.0201 20.6968 37.9289 20.8791 37.9289C20.8183 37.6858 20.8487 37.4426 20.9703 37.1995C21.3958 37.1387 21.7301 37.0475 21.9732 36.926C22.2771 36.7436 22.6418 36.622 23.0673 36.5613C23.8575 34.9809 24.6173 33.3701 25.3467 31.729C26.0761 30.0878 26.8359 28.3859 27.6261 26.6232C28.2339 25.4075 28.8721 24.1614 29.5408 22.885C30.2094 21.6085 30.8476 20.2713 31.4554 18.8733C32.0633 17.6576 32.6407 16.4115 33.1878 15.1351C33.7956 13.8586 34.373 12.5822 34.9201 11.3057C35.224 10.6979 35.4975 10.1508 35.7407 9.66457C35.9838 9.11752 36.1662 8.57047 36.2877 8.02342C36.4093 7.90185 36.5005 7.81068 36.5613 7.74989C36.6828 7.68911 36.774 7.59794 36.8348 7.47637C37.3818 7.65872 37.8681 7.68911 38.2936 7.56754C38.7191 7.44598 39.1749 7.44598 39.6612 7.56754C40.0259 7.56754 40.3906 7.62833 40.7553 7.74989C41.12 7.87146 41.3632 7.99303 41.4847 8.1146C41.7886 8.41851 41.9406 8.75282 41.9406 9.11752C41.9406 9.48222 41.8798 9.84692 41.7582 10.2116C41.6367 10.5763 41.4847 10.9714 41.3024 11.3969C41.12 11.8224 40.9985 12.2175 40.9377 12.5822C40.1475 14.041 39.3269 15.4694 38.4759 16.8674C37.6857 18.2047 37.0171 19.7242 36.4701 21.4262H36.2877C35.8015 22.9458 35.2544 24.3742 34.6466 25.7114C34.0995 27.0486 33.6133 28.4163 33.1878 29.8143C33.127 29.9359 33.0358 30.0574 32.9142 30.179C32.8535 30.3006 32.7623 30.4829 32.6407 30.726C32.3368 31.6378 31.9721 32.5192 31.5466 33.3701C31.1211 34.2211 30.6653 35.0721 30.179 35.923C30.6653 35.8622 31.1211 35.7407 31.5466 35.5583C31.9721 35.376 32.3368 35.1632 32.6407 34.9201C35.4368 33.5829 37.9593 32.2152 40.2083 30.8172C40.3298 30.5741 40.3906 30.4221 40.3906 30.3613C41.4847 29.6927 42.4573 29.0241 43.3082 28.3555C44.1592 27.6869 45.0406 27.0183 45.9523 26.3496V26.1673C49.2346 23.5536 52.061 20.5144 54.4316 17.0498V16.5939C54.7355 16.1076 55.0698 15.5606 55.4345 14.9527C55.86 14.2841 56.2551 13.5851 56.6198 12.8557C56.9845 12.1263 57.258 11.3665 57.4404 10.5763C57.6835 9.72536 57.8051 8.90478 57.8051 8.1146C57.7443 7.68911 57.6531 7.38519 57.5316 7.20285C57.41 6.95971 57.2884 6.68619 57.1669 6.38227C55.2826 5.1666 53.1248 4.28524 50.6934 3.73818C48.2621 3.19113 45.9219 3.16074 43.6729 3.64701L40.9377 4.10289C39.1749 4.58915 37.473 5.13621 35.8319 5.74404C34.2515 6.35187 32.7015 6.95971 31.1819 7.56754C29.7839 8.35773 28.3555 9.23909 26.8967 10.2116C25.4379 11.1234 24.3742 12.4606 23.7056 14.2233C23.7663 14.2233 23.8575 14.2233 23.9791 14.2233C24.1614 14.2233 24.2222 14.2841 24.1614 14.4057C24.0399 14.4057 23.9791 14.4057 23.9791 14.4057C23.9791 14.3449 23.9487 14.3145 23.8879 14.3145C24.0095 14.4969 24.0095 14.6488 23.8879 14.7704C23.8271 14.892 23.8271 15.0135 23.8879 15.1351C23.9487 15.1351 23.9791 15.0743 23.9791 14.9527C24.1006 14.9527 24.131 15.0439 24.0703 15.2263C24.0703 15.3478 24.131 15.3174 24.2526 15.1351C24.2526 15.439 24.1614 15.6214 23.9791 15.6821C23.7967 15.7429 23.7359 15.8949 23.7967 16.138ZM43.3082 62.9109C43.3082 62.7285 43.3386 62.6374 43.3994 62.6374C43.521 62.6374 43.5514 62.5766 43.4906 62.455C43.369 62.3942 43.2778 62.4246 43.217 62.5462C43.1563 62.6678 43.0955 62.6678 43.0347 62.5462C43.0347 62.5462 43.0955 62.4854 43.217 62.3638C43.3386 62.3031 43.4298 62.2119 43.4906 62.0903C43.6121 61.9687 43.7337 61.908 43.8553 61.908C44.0984 61.7864 44.3415 61.6952 44.5847 61.6344C44.8886 61.6344 45.1013 61.4825 45.2229 61.1786C45.3445 61.1786 45.4053 61.1786 45.4053 61.1786C45.466 61.1178 45.5572 61.1178 45.6788 61.1786C45.7396 60.9354 45.8611 60.7835 46.0435 60.7227C46.2258 60.6619 46.3474 60.5099 46.4082 60.2668C47.5023 59.5982 48.4444 58.7776 49.2346 57.8051C50.0856 56.7718 50.9062 55.7992 51.6963 54.8875C51.6963 54.6443 51.7267 54.4924 51.7875 54.4316C52.2738 53.7022 52.76 52.8208 53.2463 51.7875C53.7934 50.7542 54.0365 49.6601 53.9757 48.5052C53.9149 47.8366 53.6718 47.1984 53.2463 46.5905C52.8208 45.9219 52.3346 45.4356 51.7875 45.1317C51.3012 44.8278 50.7542 44.5543 50.1464 44.3111C49.5993 44.068 49.113 43.8249 48.6876 43.5817C48.566 43.5817 48.5052 43.6121 48.5052 43.6729C48.5052 43.7337 48.4444 43.7337 48.3229 43.6729C48.0189 43.4906 47.6846 43.2778 47.3199 43.0347C46.9552 42.7308 46.5601 42.518 46.1347 42.3965C44.9798 42.0926 44.0072 41.7582 43.217 41.3935C42.4269 41.0896 41.6671 40.8465 40.9377 40.6641C40.269 40.4818 39.57 40.2994 38.8406 40.1171C37.625 40.0563 36.2877 40.1475 34.8289 40.3906C33.4309 40.6337 32.1241 40.9377 30.9084 41.3024C30.726 41.3024 30.6349 41.272 30.6349 41.2112C30.6957 41.1504 30.6653 41.0896 30.5437 41.0288C30.1182 41.1504 29.6927 41.3024 29.2672 41.4847C28.9025 41.6063 28.4771 41.7278 27.9908 41.8494C27.9908 41.7278 27.93 41.6671 27.8084 41.6671C27.4437 41.6063 27.231 41.6367 27.1702 41.7582C27.1094 41.8798 27.0183 42.1229 26.8967 42.4876C26.4712 43.521 25.9849 44.6151 25.4379 45.77C24.9516 46.9248 24.4957 48.1101 24.0703 49.3258C23.9487 49.7513 23.8575 50.2375 23.7967 50.7846C23.7359 51.2709 23.584 51.7571 23.3409 52.2434C22.9762 53.4591 22.6722 54.6747 22.4291 55.8904C22.186 57.1061 21.9732 58.3521 21.7909 59.6286C21.5477 60.2364 21.335 60.8139 21.1526 61.3609C21.0311 61.8472 20.9095 62.3942 20.7879 63.0021C20.6664 63.306 20.5448 63.7011 20.4232 64.1873C20.2409 64.7952 19.9978 65.3422 19.6938 65.8285C19.4507 66.3755 19.238 66.8922 19.0556 67.3785C18.6909 68.0471 18.3566 68.5941 18.0527 69.0196C17.7488 69.4451 17.3841 69.901 16.9586 70.3873C17.0194 70.3873 17.0498 70.4176 17.0498 70.4784C16.7458 70.7216 16.5027 71.0559 16.3204 71.4814C16.138 71.9068 15.9253 72.3627 15.6821 72.849C15.3174 72.9098 15.0439 73.0313 14.8616 73.2137C14.74 73.4568 14.6184 73.6696 14.4969 73.8519C16.0164 73.548 17.6272 73.2137 19.3291 72.849C21.0919 72.5451 22.7026 72.0892 24.1614 71.4814C24.1614 71.3598 24.131 71.3294 24.0703 71.3902C24.0095 71.5117 23.9487 71.5117 23.8879 71.3902C24.9212 71.2686 25.833 71.0255 26.6232 70.6608C27.4741 70.2961 28.4163 69.9922 29.4496 69.749C29.3888 69.4451 29.4496 69.3235 29.6319 69.3843C29.8143 69.5059 29.9662 69.4147 30.0878 69.1108C30.0878 69.2931 30.1182 69.3843 30.179 69.3843C30.6045 69.0804 31.1211 68.8373 31.729 68.6549C31.9113 68.5941 32.0937 68.5334 32.276 68.4726C32.4584 68.4118 32.5495 68.3206 32.5495 68.199C32.9142 68.2598 33.127 68.2294 33.1878 68.1079C33.3093 67.9863 33.5221 67.9255 33.826 67.9255C33.826 67.8647 33.7956 67.8344 33.7348 67.8344C33.7348 67.8344 33.7348 67.7736 33.7348 67.652C33.8564 67.7736 34.0084 67.7432 34.1907 67.5608C34.4338 67.3785 34.677 67.3177 34.9201 67.3785C34.9201 67.3785 34.8593 67.3177 34.7378 67.1961C35.4064 67.0746 35.9838 66.801 36.4701 66.3755C36.9563 65.9501 37.5338 65.7069 38.2024 65.6461C38.324 65.5246 38.3544 65.4334 38.2936 65.3726C38.2936 65.3118 38.3544 65.2207 38.4759 65.0991C38.7799 65.0991 38.9926 65.0079 39.1142 64.8256C39.2965 64.704 39.57 64.6128 39.9347 64.552C40.1779 64.3697 40.3602 64.1873 40.4818 64.005C40.6641 63.8834 40.8769 63.8226 41.12 63.8226C41.1808 63.7619 41.3024 63.6707 41.4847 63.5491C41.6671 63.4275 41.819 63.3364 41.9406 63.2756L42.0318 63.4579C42.0926 63.4579 42.1229 63.3972 42.1229 63.2756C42.1229 63.154 42.1533 63.0932 42.2141 63.0932C42.3357 62.9717 42.4573 62.8805 42.5788 62.8197C42.7612 62.7589 42.9131 62.6678 43.0347 62.5462C43.0347 62.6678 43.0651 62.7285 43.1259 62.7285C43.1867 62.7285 43.2474 62.7893 43.3082 62.9109ZM23.8879 75.6754C24.982 75.3715 26.0457 75.0676 27.079 74.7637C28.1731 74.4597 29.2368 74.1254 30.2702 73.7607C30.2094 73.7607 30.179 73.8215 30.179 73.9431C28.0516 74.6117 25.9545 75.3107 23.8879 76.0401C21.8213 76.8303 19.6331 77.3774 17.3233 77.6813C18.3566 77.4381 19.4507 77.1646 20.6056 76.8607C21.7605 76.5568 22.8546 76.1617 23.8879 75.6754ZM52.5169 41.12C52.3953 41.1808 52.3042 41.1808 52.2434 41.12C52.2434 41.0592 52.2434 41.0896 52.2434 41.2112C52.6689 41.5151 53.064 41.8798 53.4287 42.3053C53.7934 42.7308 54.2492 43.0651 54.7963 43.3082C54.6139 43.2474 54.6443 43.217 54.8875 43.217C54.8875 43.3386 54.8571 43.4298 54.7963 43.4906C54.7963 43.5514 54.8571 43.5817 54.9786 43.5817C54.9179 43.4602 54.9179 43.369 54.9786 43.3082C55.0394 43.2474 55.0698 43.1563 55.0698 43.0347H54.9786C54.9179 43.0347 54.8875 43.0347 54.8875 43.0347C54.2796 42.3661 53.7022 41.819 53.1551 41.3935C52.6081 40.9681 51.9091 40.5122 51.0581 40.0259C51.2405 40.4514 51.4228 40.6945 51.6052 40.7553C51.8483 40.7553 52.1522 40.8769 52.5169 41.12ZM40.4818 68.199C40.7857 67.7736 41.1808 67.4696 41.6671 67.2873C42.1533 67.1049 42.6092 66.8618 43.0347 66.5579C43.1563 66.5579 43.2778 66.4971 43.3994 66.3755C43.521 66.3148 43.521 66.254 43.3994 66.1932C42.7916 66.4971 42.1533 66.8314 41.4847 67.1961C40.8161 67.6216 40.1475 68.0167 39.4789 68.3814C39.6612 68.3206 39.7828 68.2598 39.8436 68.199C39.9651 68.1383 40.1779 68.1383 40.4818 68.199ZM55.9816 45.5876C55.9816 45.2837 55.8904 45.0102 55.708 44.767C55.5257 44.5239 55.3434 44.4327 55.161 44.4935C55.2826 44.6758 55.3737 44.8886 55.4345 45.1317C55.4953 45.3749 55.6777 45.5268 55.9816 45.5876ZM52.1522 64.3697C51.6052 64.6736 51.2101 65.0991 50.9669 65.6461C51.0885 65.5246 51.3012 65.3118 51.6052 65.0079C51.9091 64.704 52.0914 64.4913 52.1522 64.3697ZM32.1848 68.199C32.1241 68.3206 32.0329 68.3814 31.9113 68.3814C31.8505 68.4422 31.7898 68.5334 31.729 68.6549C31.7898 68.4726 31.9417 68.3206 32.1848 68.199ZM3.55583 75.9489C3.6774 75.8882 3.76857 75.8578 3.82936 75.8578C3.82936 75.7362 3.73818 75.6754 3.55583 75.6754V75.8578C3.61662 75.8578 3.61662 75.8882 3.55583 75.9489ZM30.3613 73.6696C30.4221 73.6088 30.5133 73.5784 30.6349 73.5784C30.5133 73.5784 30.3917 73.6392 30.2702 73.7607C30.2702 73.7 30.3006 73.6696 30.3613 73.6696Z" fill="#016C55"/>
<path d="M90.0825 41.2112C90.1433 40.9073 90.2345 41.0896 90.356 41.7582C90.4776 42.3661 90.5384 43.2474 90.5384 44.4023C90.5384 45.4964 90.4472 46.7425 90.2649 48.1405C90.0825 49.4777 89.7178 50.6934 89.1708 51.7875C89.4747 51.8483 90.356 51.6963 91.8148 51.3316L93.0001 50.8758C93.5472 50.7542 94.0942 50.6022 94.6413 50.4199C95.1883 50.1768 95.7354 49.9336 96.2824 49.6905L98.1971 48.9611L99.5647 48.414C100.173 48.1709 100.75 47.9278 101.297 47.6846C101.905 47.4415 102.422 47.168 102.847 46.8641L104.944 45.4053L105.126 45.3141C105.248 45.2533 105.37 45.1925 105.491 45.1317C105.613 45.0709 105.765 44.9494 105.947 44.767C106.19 44.5847 106.494 44.3719 106.859 44.1288C107.284 43.8857 107.679 43.6729 108.044 43.4906C108.47 43.2474 108.834 43.0347 109.138 42.8523C109.442 42.67 109.594 42.5484 109.594 42.4876L109.959 43.3082C110.141 43.1259 110.232 43.0955 110.232 43.217C110.232 43.3386 110.141 43.5514 109.959 43.8553C109.837 44.0984 109.624 44.4327 109.32 44.8582C109.077 45.2229 108.773 45.5572 108.409 45.8611L107.315 46.4994C107.011 46.7425 106.737 47.016 106.494 47.3199C106.312 47.5631 106.099 47.7758 105.856 47.9582C105.734 48.0189 105.582 48.1405 105.4 48.3229C105.278 48.5052 105.187 48.566 105.126 48.5052C104.944 48.6268 104.853 48.7787 104.853 48.9611C104.853 49.0826 104.731 49.113 104.488 49.0523C104.124 49.2954 103.85 49.5689 103.668 49.8728C103.546 50.116 103.273 50.3591 102.847 50.6022C102.725 50.663 102.604 50.7542 102.482 50.8758C102.361 50.9973 102.27 50.9973 102.209 50.8758C102.148 50.9365 102.057 50.9973 101.935 51.0581C101.814 51.1189 101.692 51.1797 101.571 51.2405C101.51 51.3012 101.419 51.362 101.297 51.4228L97.8324 53.064C97.5893 53.2463 97.2854 53.4287 96.9207 53.611C96.556 53.7326 96.1913 53.8845 95.8266 54.0669C95.5226 54.1885 95.2491 54.31 95.006 54.4316C94.7629 54.4924 94.6413 54.5228 94.6413 54.5228C94.5197 54.6443 94.3678 54.7051 94.1854 54.7051C94.0031 54.6443 93.6991 54.6443 93.2737 54.7051C93.0913 54.7659 92.8482 54.9179 92.5443 55.161C92.2403 55.3433 91.9668 55.4649 91.7237 55.5257C90.7511 55.6473 89.809 55.7992 88.8972 55.9816C88.0463 56.1031 87.4688 56.2855 87.1649 56.5286C86.9826 56.8325 86.8306 57.0453 86.709 57.1669C86.6483 57.2884 86.5571 57.3796 86.4355 57.4404C86.3747 57.5012 86.3139 57.5923 86.2532 57.7139C86.1924 57.8355 86.0708 58.0482 85.8885 58.3521C85.7669 58.1698 85.7061 58.1394 85.7061 58.261C85.7669 58.3217 85.7973 58.4433 85.7973 58.6257C85.5542 59.2335 85.2502 59.7198 84.8855 60.0845C84.5816 60.4492 84.2777 60.8746 83.9738 61.3609C83.8522 61.3609 83.6699 61.4521 83.4267 61.6344C83.2444 61.8776 83.1532 61.9687 83.1532 61.908C82.7277 62.5158 82.363 62.8197 82.0591 62.8197C81.7552 62.8197 81.3905 63.0325 80.965 63.4579C80.8434 63.3364 80.7523 63.3364 80.6915 63.4579C80.6915 63.5795 80.6307 63.5795 80.5091 63.4579C80.4483 63.6403 80.266 63.7619 79.9621 63.8226C78.2601 64.3089 76.3151 64.4609 74.1269 64.2785L74.218 64.1873C74.0357 64.0658 73.8837 64.0354 73.7622 64.0962C73.6406 64.1569 73.4886 64.1873 73.3063 64.1873C73.0632 64.005 72.8504 63.853 72.6681 63.7315C72.5465 63.6099 72.3337 63.5187 72.0298 63.4579C71.0573 62.9109 70.3887 62.0903 70.024 60.9962C70.024 60.8746 69.9024 60.6923 69.6593 60.4492C69.4769 60.206 69.4769 59.9933 69.6593 59.8109C69.4161 59.507 69.2338 59.0511 69.1122 58.4433C69.0514 57.7747 69.173 57.1365 69.4769 56.5286C69.5985 55.2522 69.872 54.0365 70.2975 52.8816C70.2975 52.8816 70.4191 52.6081 70.6622 52.061C70.9053 51.514 71.1789 50.9365 71.4828 50.3287C71.7867 49.6601 72.0602 49.0523 72.3034 48.5052C72.6073 47.9582 72.7896 47.6846 72.8504 47.6846C72.8504 47.8062 72.8808 47.7454 72.9416 47.5023C73.0631 47.1984 73.1847 46.9856 73.3063 46.8641C73.7318 46.0739 74.2484 45.2533 74.8563 44.4023C75.4641 43.5514 76.0719 42.7916 76.6798 42.1229C77.3484 41.4543 77.9866 40.8769 78.5944 40.3906C79.2023 39.9043 79.7189 39.6004 80.1444 39.4789L81.7856 38.4759C82.1503 38.5975 82.4238 38.6279 82.6062 38.5671C82.7885 38.5063 82.9405 38.4455 83.062 38.3848C83.1836 38.324 83.2748 38.2936 83.3356 38.2936C83.4571 38.2936 83.5787 38.4152 83.7003 38.6583H83.9738C83.9738 38.5975 84.0346 38.6279 84.1561 38.7495C84.2777 38.871 84.3385 38.8406 84.3385 38.6583C84.6424 38.6583 84.8248 38.7495 84.8855 38.9318C84.9463 39.0534 85.0375 39.1142 85.1591 39.1142C85.0983 39.2357 85.0983 39.2661 85.1591 39.2053C85.2806 39.0838 85.3414 39.0534 85.3414 39.1142C85.7669 38.9318 86.0708 38.9014 86.2532 39.023C86.4355 39.0838 86.6179 39.1749 86.8002 39.2965C86.9218 39.3573 86.9218 39.4485 86.8002 39.57C86.6786 39.6308 86.6786 39.6916 86.8002 39.7524C87.1041 39.7524 87.2257 39.6612 87.1649 39.4789C87.6512 39.6004 88.0159 39.8132 88.259 40.1171C88.5629 40.421 88.958 40.7249 89.4443 41.0288C89.3835 41.0896 89.3835 41.1808 89.4443 41.3024C89.5051 41.4239 89.657 41.5151 89.9002 41.5759H90.0825L89.9913 41.3024L89.4443 41.0288C89.4443 40.8465 89.657 40.9073 90.0825 41.2112ZM81.7856 55.3433C80.5091 55.0394 79.567 54.3708 78.9592 53.3375C78.4121 52.3042 77.9258 51.362 77.5003 50.5111C77.2572 50.6326 77.0141 50.8454 76.7709 51.1493C76.5278 51.3924 76.2543 51.6356 75.9504 51.8787L75.8592 51.9699C75.7984 52.0306 75.768 52.0914 75.768 52.1522C75.7072 52.213 75.6768 52.2738 75.6768 52.3346V52.5169H75.768C75.4033 52.8816 75.1298 53.3679 74.9474 53.9757C74.8259 54.3404 74.7043 54.7051 74.5827 55.0698C74.4612 55.3737 74.4004 55.6473 74.4004 55.8904C74.2788 56.3767 74.1876 56.9541 74.1269 57.6227C74.1269 58.2306 74.1269 58.8384 74.1269 59.4462C74.1876 59.9933 74.2788 60.4795 74.4004 60.905C74.5827 61.3305 74.8259 61.5737 75.1298 61.6344C75.1906 61.6344 75.3425 61.6344 75.5857 61.6344C75.8896 61.5737 76.1935 61.5433 76.4974 61.5433C76.8013 61.4825 77.0749 61.4217 77.318 61.3609C77.6219 61.3001 77.8347 61.2393 77.9562 61.1786C79.0503 60.6315 79.8405 60.1756 80.3268 59.8109C80.813 59.4462 81.1777 59.1119 81.4209 58.808C81.664 58.4433 81.8768 58.109 82.0591 57.8051C82.3022 57.5012 82.6669 57.1668 83.1532 56.8021L83.5179 55.6169C83.214 55.5561 82.8797 55.5257 82.515 55.5257C82.2111 55.5257 81.9679 55.4649 81.7856 55.3433ZM85.7973 41.6671C85.5542 41.7886 85.2198 42.0318 84.7944 42.3965C84.4297 42.7612 84.0346 43.1867 83.6091 43.6729C83.1836 44.0984 82.7581 44.5543 82.3326 45.0405C81.9679 45.466 81.664 45.8611 81.4209 46.2258C81.4817 46.2258 81.5121 46.2562 81.5121 46.317C81.5121 46.317 81.5424 46.317 81.6032 46.317C81.5424 46.4386 81.4209 46.4994 81.2385 46.4994C81.117 46.4994 80.9954 46.5601 80.8738 46.6817C80.7523 46.8641 80.6915 46.9856 80.6915 47.0464C80.7523 47.1072 80.7827 47.1376 80.7827 47.1376C80.8434 47.1376 80.8738 47.168 80.8738 47.2288C80.9346 47.2288 80.9346 47.3503 80.8738 47.5935C80.9346 47.8974 81.0562 48.3229 81.2385 48.8699C81.4209 49.417 81.664 49.964 81.9679 50.5111C82.3326 51.0581 82.7277 51.5444 83.1532 51.9699C83.6395 52.3346 84.1865 52.4561 84.7944 52.3346C84.9767 51.7875 85.1895 50.9669 85.4326 49.8728C85.7365 48.7179 85.9796 47.5631 86.162 46.4082C86.3443 45.2533 86.4051 44.22 86.3443 43.3082C86.3443 42.3357 86.162 41.7886 85.7973 41.6671ZM75.8592 51.9699C75.7984 52.0306 75.768 52.0914 75.768 52.1522V52.2434C75.768 52.3042 75.7376 52.3346 75.6768 52.3346C75.6768 52.3954 75.7072 52.4561 75.768 52.5169V52.4257C75.768 52.2434 75.7984 52.0914 75.8592 51.9699Z" fill="#016C55"/>
<path d="M136.001 58.808C135.819 58.9904 135.758 59.0815 135.819 59.0815C135.819 59.0815 135.758 59.1423 135.637 59.2639C134.907 59.4462 134.208 59.8717 133.54 60.5403C132.871 61.1482 132.142 61.604 131.351 61.908C131.23 61.8472 131.199 61.7864 131.26 61.7256C131.321 61.6648 131.351 61.5737 131.351 61.4521C131.108 61.4521 130.926 61.5433 130.804 61.7256C130.683 61.908 130.561 61.908 130.44 61.7256C130.318 61.908 130.136 62.0295 129.893 62.0903C129.71 62.2119 129.528 62.3638 129.346 62.5462C129.224 62.6678 129.163 62.6981 129.163 62.6374C129.163 62.5766 129.102 62.5462 128.981 62.5462C128.799 62.7893 128.495 62.9109 128.069 62.9109C127.704 62.9717 127.34 63.0021 126.975 63.0021C127.036 62.8805 127.157 62.8197 127.34 62.8197C127.522 62.8197 127.644 62.6981 127.704 62.455C127.644 62.3942 127.552 62.4246 127.431 62.5462C127.309 62.6678 127.249 62.5766 127.249 62.2727C126.762 62.3942 126.428 62.4854 126.246 62.5462C126.124 62.607 125.911 62.6981 125.607 62.8197C125.486 62.6981 125.455 62.607 125.516 62.5462C125.577 62.4854 125.577 62.3942 125.516 62.2727C125.273 62.2727 125.091 62.3942 124.969 62.6374C124.483 62.3942 124.149 62.1511 123.966 61.908C123.723 62.0295 123.541 62.0295 123.419 61.908C123.298 61.7864 123.115 61.7864 122.872 61.908C121.9 61.1786 121.079 60.2972 120.41 59.2639C119.803 58.2306 119.438 57.0149 119.316 55.6169V54.7051C119.377 54.1581 119.468 53.4591 119.59 52.6081C119.711 51.7571 119.833 50.8758 119.955 49.964C120.076 48.9915 120.198 48.0797 120.319 47.2288C120.441 46.3778 120.562 45.6788 120.684 45.1317C120.258 45.4964 119.955 45.8915 119.772 46.317C119.651 46.7425 119.529 47.1984 119.407 47.6846C119.286 47.6846 119.225 47.5935 119.225 47.4111C118.921 47.4719 118.769 47.6238 118.769 47.867C118.83 48.0493 118.8 48.2317 118.678 48.414C118.556 48.414 118.496 48.3836 118.496 48.3229C118.556 48.2621 118.556 48.2013 118.496 48.1405C118.313 48.3229 118.222 48.566 118.222 48.8699C118.222 48.8091 118.192 48.7787 118.131 48.7787C118.131 48.7787 118.131 48.7179 118.131 48.5964C117.949 48.7787 117.918 48.9307 118.04 49.0523C118.161 49.1738 118.192 49.3258 118.131 49.5081C118.009 49.5081 117.949 49.3866 117.949 49.1434C117.827 49.265 117.797 49.3866 117.857 49.5081C117.918 49.5689 117.949 49.6601 117.949 49.7817C117.766 49.9032 117.706 49.9032 117.766 49.7817C117.827 49.5993 117.797 49.5081 117.675 49.5081C117.554 50.116 117.371 50.6326 117.128 51.0581C117.007 51.0581 116.946 51.0277 116.946 50.9669C116.946 50.8454 116.885 50.815 116.763 50.8758C116.581 50.815 116.49 50.8758 116.49 51.0581C116.551 51.2405 116.459 51.2709 116.216 51.1493C116.216 51.2709 116.186 51.4228 116.125 51.6052C116.125 51.7875 116.034 51.8179 115.852 51.6963C115.852 52.0003 115.821 52.2434 115.76 52.4257C115.7 52.6081 115.608 52.6385 115.487 52.5169C115.365 52.8208 115.213 53.0944 115.031 53.3375C114.849 53.5198 114.818 53.8542 114.94 54.3404C114.818 54.3404 114.788 54.2796 114.849 54.1581C114.909 54.0365 114.879 53.9757 114.758 53.9757C114.697 53.9149 114.545 54.0365 114.302 54.3404C114.059 54.6443 113.967 54.9483 114.028 55.2522C113.907 55.3737 113.846 55.3737 113.846 55.2522C113.846 55.1306 113.755 55.1002 113.572 55.161C113.268 55.7688 113.116 56.3767 113.116 56.9845C112.691 56.9845 112.478 57.1668 112.478 57.5315C112.174 57.5315 111.992 57.5923 111.931 57.7139C111.87 57.7747 111.779 57.8659 111.658 57.9874V58.261C111.536 58.6257 111.262 58.9904 110.837 59.3551C110.472 59.659 110.138 60.0237 109.834 60.4492L108.922 61.8168C108.983 61.8776 108.953 61.8776 108.831 61.8168C108.77 61.8168 108.74 61.8472 108.74 61.908C108.679 61.9687 108.649 62.0295 108.649 62.0903C108.649 62.2119 108.588 62.3031 108.466 62.3638C108.406 62.4246 108.314 62.455 108.193 62.455C108.132 62.5158 108.041 62.6374 107.919 62.8197C107.859 62.8197 107.767 62.9717 107.646 63.2756C107.464 63.5187 107.22 63.7011 106.916 63.8226C106.613 64.005 106.4 64.1266 106.278 64.1873C105.792 64.4305 105.366 64.6736 105.002 64.9167C104.698 65.2207 104.212 65.3422 103.543 65.2814L102.631 64.9167C102.327 64.7952 102.023 64.7344 101.719 64.7344C101.476 64.7952 101.233 64.704 100.99 64.4609C100.565 64.5824 100.261 64.552 100.078 64.3697C99.8352 64.1873 99.6224 63.9442 99.4401 63.6403C99.2577 63.3972 99.1058 63.1236 98.9842 62.8197C98.8626 62.5158 98.6803 62.2727 98.4372 62.0903C98.1332 60.8746 98.1029 59.7805 98.346 58.808C98.5891 57.7747 98.8626 56.7414 99.1666 55.708C99.2881 54.8571 99.5009 54.0669 99.8048 53.3375C100.109 52.5473 100.382 51.7267 100.625 50.8758C100.929 50.2071 101.324 49.5993 101.811 49.0523C102.358 48.4444 102.783 47.8062 103.087 47.1376C103.634 46.2866 104.151 45.5268 104.637 44.8582C105.123 44.1896 105.64 43.4602 106.187 42.67C106.613 42.3661 107.008 41.9102 107.372 41.3024C107.798 40.6945 108.436 40.4514 109.287 40.573C109.956 40.6945 110.594 40.6945 111.202 40.573C111.81 40.3906 112.448 40.3906 113.116 40.573C113.238 40.6945 113.481 40.8161 113.846 40.9377C114.271 40.9984 114.636 41.0896 114.94 41.2112C115.001 41.272 115.061 41.3631 115.122 41.4847C115.183 41.5455 115.274 41.5759 115.396 41.5759C115.517 41.6367 115.608 41.6671 115.669 41.6671C115.73 41.6063 115.821 41.6063 115.943 41.6671C116.186 41.7886 116.399 41.9406 116.581 42.1229C116.763 42.3053 116.885 42.3965 116.946 42.3965C117.067 42.2141 117.219 42.0014 117.402 41.7582C117.766 41.272 118.009 40.9377 118.131 40.7553C118.192 40.7553 118.222 40.6641 118.222 40.4818C118.222 40.421 118.253 40.4514 118.313 40.573C118.374 40.6337 118.405 40.6337 118.405 40.573C118.708 40.1475 118.952 39.722 119.134 39.2965C119.438 38.8102 119.742 38.3848 120.046 38.0201C120.35 37.5946 120.562 37.1387 120.684 36.6524C120.745 36.6524 120.775 36.7132 120.775 36.8348C120.775 36.8956 120.836 36.8956 120.957 36.8348C120.836 36.7132 120.866 36.5613 121.049 36.3789C121.231 36.1358 121.353 35.923 121.413 35.7407C121.535 35.8622 121.504 35.9838 121.322 36.1054C121.14 36.2269 121.079 36.4093 121.14 36.6524C121.444 36.4093 121.626 36.075 121.687 35.6495C121.748 35.1632 121.96 34.8593 122.325 34.7378C122.325 34.0084 122.629 33.5829 123.237 33.4613C123.419 32.9142 123.662 32.428 123.966 32.0025C124.27 31.577 124.544 31.03 124.787 30.3613H125.06C125.182 30.3006 125.243 30.179 125.243 29.9966C125.668 29.3888 126.154 28.5682 126.701 27.5349C127.309 26.5016 127.917 25.4075 128.525 24.2526C129.194 23.0977 129.801 21.9732 130.348 20.8791C130.956 19.785 131.443 18.9037 131.807 18.235C131.807 18.1135 131.777 18.0527 131.716 18.0527C131.716 18.0527 131.747 17.9615 131.807 17.7792L132.172 17.5056C132.172 17.3841 132.142 17.2929 132.081 17.2321C132.02 17.1713 131.99 17.0802 131.99 16.9586C132.111 16.7762 132.233 16.6243 132.354 16.5027C132.476 16.3204 132.597 16.1076 132.719 15.8645C133.145 15.8645 133.388 15.9557 133.448 16.138C133.874 16.2596 134.391 16.3508 134.998 16.4115C135.606 16.4723 136.153 16.5939 136.64 16.7762C136.761 16.837 136.822 16.9282 136.822 17.0498C136.883 17.1105 136.943 17.1713 137.004 17.2321C137.187 17.3537 137.399 17.5056 137.643 17.688C137.946 17.8096 138.038 18.1135 137.916 18.5997C137.916 18.7213 137.855 18.8429 137.734 18.9644C137.612 19.086 137.491 19.2076 137.369 19.3291L137.095 20.5144C137.035 20.6968 136.883 20.8487 136.64 20.9703C136.64 21.0311 136.64 21.0919 136.64 21.1526C136.7 21.1526 136.731 21.183 136.731 21.2438C136.488 21.3654 136.305 21.5477 136.184 21.7909L135.09 23.5232C135.09 23.5232 135.09 23.584 135.09 23.7056C135.09 23.7663 134.938 24.0399 134.634 24.5261C134.33 24.9516 133.995 25.4379 133.631 25.9849C133.327 26.532 133.023 27.0486 132.719 27.5349C132.415 28.0212 132.263 28.2947 132.263 28.3555C132.202 28.4163 132.111 28.6594 131.99 29.0849C131.99 29.1457 131.929 29.1761 131.807 29.1761C131.747 29.1761 131.686 29.2065 131.625 29.2672C131.625 29.328 131.625 29.4192 131.625 29.5408C131.625 29.6623 131.564 29.7535 131.443 29.8143C131.564 29.9359 131.534 30.0574 131.351 30.179C131.23 30.2398 131.139 30.331 131.078 30.4525C130.956 30.7564 130.865 31.0604 130.804 31.3643C130.744 31.6682 130.652 31.9417 130.531 32.1848C130.409 32.3672 130.288 32.5495 130.166 32.7319C130.045 32.8535 130.014 33.0662 130.075 33.3701H129.71C129.71 33.8564 129.558 34.2819 129.254 34.6466C129.011 35.0113 128.89 35.4368 128.89 35.923C128.768 35.923 128.707 35.923 128.707 35.923C128.707 35.8622 128.647 35.8319 128.525 35.8319C128.282 36.8044 127.948 37.6857 127.522 38.4759C127.097 39.2661 126.823 40.1779 126.701 41.2112C126.58 41.3935 126.458 41.5759 126.337 41.7582C126.276 41.8798 126.185 42.0014 126.063 42.1229C126.002 43.0955 125.851 43.9464 125.607 44.6758C125.425 45.4053 125.212 46.1954 124.969 47.0464C124.969 47.2895 124.908 47.4415 124.787 47.5023C124.848 47.8062 124.787 48.1101 124.604 48.414C124.665 48.9003 124.604 49.3866 124.422 49.8728C124.24 50.3591 124.118 50.8454 124.057 51.3316C124.057 51.514 124.027 51.8483 123.966 52.3346C123.966 52.8208 123.936 53.3071 123.875 53.7934C123.814 54.2796 123.753 54.7659 123.693 55.2522C123.632 55.6777 123.571 55.9512 123.51 56.0727C123.632 56.8021 123.723 57.5619 123.784 58.3521C123.905 59.0815 124.209 59.659 124.696 60.0845C126.276 59.8413 127.704 59.3551 128.981 58.6257C130.318 57.8963 131.625 57.1669 132.901 56.4375C133.813 55.8296 134.755 55.1914 135.728 54.5228C136.761 53.7934 137.612 53.0032 138.281 52.1522C138.342 52.1522 138.372 52.1826 138.372 52.2434C138.615 52.1826 138.889 52.0306 139.192 51.7875C139.496 51.4836 139.74 51.2101 139.922 50.9669V51.4228C140.165 51.1189 140.439 50.8454 140.742 50.6022C141.046 50.3591 141.259 50.0856 141.381 49.7817C141.502 49.8424 141.563 49.8424 141.563 49.7817C141.563 49.6601 141.624 49.6297 141.745 49.6905C142.171 49.0826 142.505 48.7483 142.748 48.6876C142.991 48.6268 143.356 48.2925 143.842 47.6846C144.146 47.867 144.238 47.8062 144.116 47.5023C144.177 47.5023 144.268 47.5631 144.389 47.6846C144.511 47.6846 144.511 47.6542 144.389 47.5935C144.329 47.4719 144.359 47.3807 144.481 47.3199C144.602 47.3199 144.693 47.3807 144.754 47.5023C144.876 47.5631 144.997 47.6238 145.119 47.6846C145.24 47.5023 145.301 47.2591 145.301 46.9552C145.362 46.6513 145.484 46.469 145.666 46.4082C145.787 46.4082 145.848 46.4994 145.848 46.6817C145.909 46.8641 145.939 47.016 145.939 47.1376C146.061 47.1376 146.152 47.1376 146.213 47.1376C146.335 47.0768 146.486 47.0464 146.669 47.0464C146.608 47.1072 146.578 47.1984 146.578 47.3199C146.578 47.3807 146.638 47.4111 146.76 47.4111C146.638 47.7758 146.426 48.2317 146.122 48.7787C145.818 49.265 145.484 49.7513 145.119 50.2375C144.754 50.663 144.389 51.0885 144.025 51.514C143.66 51.9395 143.356 52.2434 143.113 52.4257C143.113 52.7297 143.083 52.912 143.022 52.9728C142.839 53.5198 142.414 54.0365 141.745 54.5228C141.077 54.9483 140.499 55.4649 140.013 56.0727C140.013 55.7688 140.195 55.5257 140.56 55.3433C140.986 55.161 141.229 54.8571 141.29 54.4316C140.986 54.7355 140.651 55.0394 140.287 55.3433C139.983 55.5865 139.679 55.86 139.375 56.1639C139.375 56.2855 139.284 56.3463 139.101 56.3463C138.858 56.5894 138.615 56.8933 138.372 57.258C137.946 57.3188 137.673 57.4404 137.551 57.6227C137.43 57.7443 137.308 57.8963 137.187 58.0786C137.247 58.0786 137.187 58.2002 137.004 58.4433C136.883 58.5041 136.822 58.5345 136.822 58.5345C136.822 58.4737 136.792 58.4433 136.731 58.4433C136.852 58.3217 136.943 58.261 137.004 58.261C136.943 58.1394 136.792 58.2002 136.548 58.4433C136.427 58.5041 136.275 58.6257 136.093 58.808H136.001ZM108.558 55.2522C109.287 54.0973 110.016 52.9424 110.746 51.7875C111.536 50.6326 112.387 49.5385 113.299 48.5052C113.42 48.0189 113.633 47.6238 113.937 47.3199C114.302 46.9552 114.575 46.5297 114.758 46.0435C114.879 46.0435 114.909 46.0131 114.849 45.9523C114.606 45.4052 114.332 44.8886 114.028 44.4023C113.724 43.9161 113.329 43.521 112.843 43.217C111.992 43.1563 111.414 43.369 111.111 43.8553C110.807 44.2808 110.381 44.6151 109.834 44.8582C109.591 45.5268 109.287 46.1347 108.922 46.6817C108.558 47.168 108.193 47.6846 107.828 48.2317C107.464 48.7787 107.129 49.3562 106.825 49.964C106.521 50.5111 106.309 51.1493 106.187 51.8787C105.883 52.365 105.61 52.8816 105.366 53.4287C105.184 53.9149 104.941 54.3404 104.637 54.7051C104.698 54.8875 104.667 55.0698 104.546 55.2522C104.485 55.3737 104.424 55.4649 104.364 55.5257C104.364 55.708 104.333 55.86 104.272 55.9816C104.212 56.0424 104.212 56.1943 104.272 56.4375C103.847 56.9237 103.573 57.5315 103.452 58.261C103.391 58.9296 103.269 59.6286 103.087 60.358C103.209 60.5403 103.269 60.7531 103.269 60.9962C103.269 61.2393 103.33 61.4217 103.452 61.5433C104.364 60.5707 105.245 59.5982 106.096 58.6257C107.008 57.5923 107.828 56.4678 108.558 55.2522ZM123.602 34.4642C123.48 34.7681 123.328 35.0113 123.146 35.1936C123.024 35.3152 122.903 35.5279 122.781 35.8319C122.963 35.7103 123.176 35.4975 123.419 35.1936C123.662 34.8897 123.723 34.6466 123.602 34.4642ZM138.281 56.711C138.342 56.5894 138.402 56.4982 138.463 56.4375C138.585 56.3159 138.585 56.1943 138.463 56.0727C138.402 56.1943 138.311 56.2855 138.19 56.3463C138.129 56.4071 138.159 56.5286 138.281 56.711ZM141.745 54.0669C141.928 54.0669 142.14 53.8845 142.384 53.5198C142.08 53.6414 141.958 53.6718 142.019 53.611C142.14 53.4895 142.049 53.6414 141.745 54.0669ZM136.913 57.8051C137.035 57.8051 137.095 57.5923 137.095 57.1669C136.913 57.2276 136.852 57.4404 136.913 57.8051ZM135.819 59.0815L136.731 58.4433H136.548C136.427 58.6257 136.305 58.7168 136.184 58.7168L136.093 58.808H136.001L135.819 59.0815ZM141.472 54.4316C141.472 54.31 141.502 54.2492 141.563 54.2492C141.685 54.2492 141.745 54.1885 141.745 54.0669C141.563 54.0669 141.441 54.1277 141.381 54.2492C141.32 54.3708 141.35 54.4316 141.472 54.4316ZM136.913 56.8021C137.095 56.8021 137.156 56.6502 137.095 56.3463C137.035 56.4071 137.004 56.4678 137.004 56.5286C136.943 56.5894 136.913 56.6806 136.913 56.8021Z" fill="#016C55"/>
<path d="M184.348 45.0405V45.1317C184.409 45.2533 184.409 45.3445 184.348 45.4053C184.348 45.466 184.348 45.5572 184.348 45.6788L184.166 46.0435V46.1347C184.045 46.2562 183.953 46.3778 183.893 46.4994C183.893 46.5601 183.862 46.6209 183.801 46.6817H184.075L184.257 46.4994H184.348C184.348 46.6209 184.379 46.7121 184.44 46.7729C184.5 46.7729 184.5 46.8337 184.44 46.9552C184.379 46.8944 184.257 46.8641 184.075 46.8641C184.075 47.1072 184.105 47.2288 184.166 47.2288C184.045 47.2288 183.984 47.2288 183.984 47.2288C184.044 47.168 184.014 47.1072 183.893 47.0464C183.771 47.168 183.801 47.2895 183.984 47.4111C184.166 47.5327 184.318 47.5935 184.44 47.5935C184.44 47.8974 184.318 48.0797 184.075 48.1405C183.893 48.2013 183.862 48.3532 183.984 48.5964C183.68 48.7787 183.376 48.9611 183.072 49.1434C182.768 49.3258 182.555 49.5385 182.434 49.7817C181.947 49.9032 181.613 50.1464 181.431 50.5111C181.309 50.8758 181.036 51.1493 180.61 51.3316C180.61 51.2709 180.58 51.2709 180.519 51.3316L179.972 51.6052C179.911 51.6052 179.881 51.6052 179.881 51.6052C179.881 51.5444 179.85 51.514 179.79 51.514C179.668 51.6356 179.334 51.7875 178.787 51.9699C178.3 52.0914 178.057 52.213 178.057 52.3346C177.997 52.3346 177.966 52.3346 177.966 52.3346C177.966 52.2738 177.905 52.2434 177.784 52.2434C177.358 52.4865 177.115 52.8208 177.054 53.2463V53.064C176.811 53.2463 176.599 53.4287 176.416 53.611C176.234 53.7934 175.991 53.9453 175.687 54.0669C175.626 54.0061 175.596 53.9757 175.596 53.9757C175.656 53.9149 175.626 53.8845 175.504 53.8845C175.322 53.8845 175.231 54.0365 175.231 54.3404C174.927 54.462 174.684 54.6443 174.501 54.8875C174.319 55.1306 174.076 55.3433 173.772 55.5257C173.833 55.4649 173.863 55.4041 173.863 55.3433C173.863 55.2826 173.833 55.2218 173.772 55.161L173.407 55.6169C173.286 55.5561 173.164 55.6473 173.043 55.8904C172.982 56.0727 172.891 56.1335 172.769 56.0727C172.648 56.2551 172.374 56.4374 171.949 56.6198C171.584 56.8021 171.158 56.9845 170.672 57.1669C170.247 57.3492 169.852 57.5619 169.487 57.8051C169.122 57.9874 168.909 58.1698 168.849 58.3521C168.423 58.2306 168.089 58.4129 167.846 58.8992C167.663 59.3247 167.451 59.5678 167.207 59.6286C167.147 59.6894 167.116 59.7501 167.116 59.8109C167.116 59.8717 167.086 59.9629 167.025 60.0845C166.478 60.0845 166.053 60.3884 165.749 60.9962V60.905C165.688 60.905 165.657 60.9354 165.657 60.9962C165.536 61.1178 165.414 61.2697 165.293 61.4521C165.232 61.5737 165.05 61.604 164.746 61.5433C164.624 61.908 164.351 62.1815 163.925 62.3638C163.56 62.607 163.317 62.9717 163.196 63.4579H162.922C162.679 63.7011 162.497 63.853 162.375 63.9138C162.314 63.9746 162.223 64.0354 162.102 64.0962C162.041 64.1569 161.95 64.2177 161.828 64.2785C161.707 64.4001 161.555 64.5824 161.372 64.8256C161.251 65.0687 161.19 65.1903 161.19 65.1903V65.2814L161.737 64.7344C161.859 65.0383 161.798 65.1903 161.555 65.1903C161.372 65.2511 161.311 65.4334 161.372 65.7373H161.281C161.22 65.7981 161.19 65.8285 161.19 65.8285C161.311 66.0108 161.281 66.1628 161.099 66.2844C160.977 66.4667 160.947 66.6795 161.008 66.9226C161.008 66.9834 160.947 66.9834 160.825 66.9226C160.764 66.9226 160.764 66.9834 160.825 67.1049C160.764 67.2265 160.764 67.2569 160.825 67.1961C160.947 67.1961 161.008 67.2265 161.008 67.2873C160.886 67.5304 160.795 67.7432 160.734 67.9255C160.673 68.1079 160.643 68.3206 160.643 68.5638C160.521 68.5638 160.491 68.503 160.552 68.3814C160.612 68.3206 160.612 68.2902 160.552 68.2902C160.43 68.4726 160.278 68.6245 160.096 68.7461C159.913 68.9285 159.883 69.1716 160.005 69.4755C160.126 69.3539 160.187 69.202 160.187 69.0196C160.187 68.8373 160.339 68.7157 160.643 68.6549C160.582 68.9588 160.521 69.2324 160.461 69.4755C160.4 69.7794 160.217 69.9922 159.913 70.1137C159.913 70.2353 159.913 70.2961 159.913 70.2961C159.974 70.2961 160.005 70.3265 160.005 70.3873C159.518 70.5088 159.306 70.7216 159.366 71.0255C159.488 71.3294 159.366 71.6029 159.002 71.8461C159.002 72.3323 158.971 72.697 158.911 72.9402C158.911 73.2441 158.789 73.548 158.546 73.8519H158.272C158.151 74.1558 158.09 74.4294 158.09 74.6725C158.151 74.9156 158.09 75.098 157.908 75.2195C157.908 75.3411 157.938 75.4019 157.999 75.4019C158.06 75.4627 158.09 75.5842 158.09 75.7666C157.968 75.8274 157.847 75.8578 157.725 75.8578C157.664 75.8578 157.604 75.8882 157.543 75.9489C157.664 76.1313 157.634 76.2529 157.452 76.3136C157.269 76.3744 157.239 76.496 157.361 76.6783C157.482 76.5568 157.604 76.496 157.725 76.496C157.847 76.496 157.938 76.4656 157.999 76.4048C157.999 76.5264 157.968 76.6176 157.908 76.6783C157.847 76.7391 157.816 76.7999 157.816 76.8607C157.513 76.8607 157.3 76.9215 157.178 77.043C157.117 77.1646 157.057 77.2862 156.996 77.4077C157.117 77.4077 157.209 77.3774 157.269 77.3166C157.391 77.2558 157.513 77.2254 157.634 77.2254C157.513 77.347 157.33 77.4685 157.087 77.5901C156.905 77.7724 156.753 77.9244 156.631 78.046C156.57 78.1675 156.51 78.2891 156.449 78.4107C156.388 78.593 156.418 78.6842 156.54 78.6842C156.662 78.6842 156.692 78.6234 156.631 78.5018C156.631 78.3803 156.692 78.2587 156.813 78.1371C156.935 78.2587 157.026 78.2587 157.087 78.1371C157.148 78.0156 157.239 77.9852 157.361 78.046C157.3 78.1675 157.209 78.2587 157.087 78.3195C157.026 78.3803 156.996 78.4411 156.996 78.5018V78.6842C156.753 78.8058 156.601 78.9577 156.54 79.1401C156.479 79.3832 156.388 79.6263 156.266 79.8695C156.266 79.9303 156.297 79.991 156.358 80.0518H156.266C156.206 80.1734 156.145 80.295 156.084 80.4165C156.084 80.5989 156.023 80.7508 155.902 80.8724C155.78 80.8724 155.659 80.9332 155.537 81.0548C155.415 81.1763 155.415 81.2979 155.537 81.4195C155.659 81.4195 155.719 81.2979 155.719 81.0548C155.841 81.2979 155.841 81.4802 155.719 81.6018C155.598 81.7842 155.537 82.0273 155.537 82.3312C155.233 82.392 155.081 82.5136 155.081 82.6959C155.081 82.8783 154.99 82.9998 154.808 83.0606C154.868 83.3645 154.777 83.5773 154.534 83.6988C154.291 83.8204 154.23 84.0635 154.352 84.4282C154.169 84.4282 154.078 84.489 154.078 84.6106H154.169C154.109 84.7322 154.048 84.8233 153.987 84.8841C153.926 84.9449 153.896 85.0361 153.896 85.1576C153.896 85.2184 153.926 85.188 153.987 85.0665C154.048 85.0057 154.109 85.0361 154.169 85.1576C154.169 85.2792 153.987 85.4008 153.622 85.5223C153.562 85.8263 153.47 86.0998 153.349 86.3429C153.227 86.6468 153.015 86.89 152.711 87.0723C152.711 87.1939 152.771 87.2243 152.893 87.1635C153.015 87.1635 153.045 87.2243 152.984 87.3458C152.863 87.4674 152.68 87.5282 152.437 87.5282C152.255 87.589 152.194 87.7105 152.255 87.8929C152.255 88.0145 152.285 88.0145 152.346 87.8929C152.467 87.8321 152.559 87.8625 152.619 87.9841L151.343 89.3517C151.404 89.3517 151.434 89.4125 151.434 89.534C151.13 89.838 150.887 90.1419 150.705 90.4458C150.522 90.8105 150.37 91.1448 150.249 91.4487H149.975C149.55 92.0566 149.064 92.634 148.517 93.1811C147.97 93.7281 147.422 94.2752 146.875 94.8222C146.45 94.8222 146.176 94.883 146.055 95.0046C145.933 95.1261 145.812 95.3085 145.69 95.5516C145.386 95.5516 145.082 95.6124 144.778 95.734C144.474 95.8555 144.201 95.9163 143.958 95.9163C143.654 95.9771 143.35 95.9771 143.046 95.9163C142.803 95.8555 142.529 95.8251 142.225 95.8251H141.131L139.581 95.4604C139.277 95.3389 139.004 95.2477 138.761 95.1869C138.457 95.1261 138.123 95.0957 137.758 95.0957C137.576 95.0957 137.484 95.0046 137.484 94.8222V94.184C137.606 94.2448 137.697 94.3663 137.758 94.5487C137.758 94.731 137.849 94.8222 138.031 94.8222C138.153 94.5791 138.153 94.4271 138.031 94.3663C137.91 94.3055 137.819 94.2448 137.758 94.184C137.819 93.9408 137.849 93.6673 137.849 93.3634C137.788 93.1203 137.758 92.8771 137.758 92.634C137.697 92.5732 137.667 92.5428 137.667 92.5428C137.606 92.5428 137.576 92.5732 137.576 92.634C138.123 89.6556 138.943 87.1027 140.037 84.9753C140.098 85.0361 140.098 85.0969 140.037 85.1576C139.976 85.2184 139.976 85.2792 140.037 85.34C141.192 82.7871 142.347 80.4469 143.502 78.3195C144.657 76.2529 145.903 74.2774 147.24 72.3931C148.577 70.5088 150.067 68.7157 151.708 67.0138C153.349 65.3118 155.233 63.5795 157.361 61.8168C157.847 60.2364 158.303 58.5649 158.728 56.8021C159.154 54.9786 159.458 53.5198 159.64 52.4257C159.64 52.3042 159.61 52.3346 159.549 52.5169C159.488 52.6993 159.458 52.7297 159.458 52.6081C159.579 52.0003 159.701 51.4836 159.822 51.0581C159.944 50.5718 160.005 50.0856 160.005 49.5993C159.64 50.0856 159.306 50.5718 159.002 51.0581C158.698 51.5444 158.303 51.9395 157.816 52.2434C157.634 52.8512 157.209 53.3071 156.54 53.611C156.418 54.0365 156.206 54.4012 155.902 54.7051C155.598 54.9483 155.264 55.2218 154.899 55.5257C154.473 55.9512 154.048 56.4678 153.622 57.0757C153.197 57.6835 152.741 58.261 152.255 58.808C151.708 59.2943 151.1 59.7805 150.431 60.2668C149.763 60.7531 149.003 61.0266 148.152 61.0874C147.544 61.209 147.088 61.209 146.784 61.0874C146.541 60.9658 146.176 60.8139 145.69 60.6315C145.386 60.5099 145.022 60.4188 144.596 60.358C144.231 60.2972 143.927 60.1756 143.684 59.9933C143.38 59.8109 143.107 59.4158 142.864 58.808C142.681 58.1394 142.59 57.5619 142.59 57.0757C142.469 54.462 142.681 52.0003 143.228 49.6905C143.836 47.3807 144.444 45.1621 145.052 43.0347C145.234 42.3661 145.447 41.6975 145.69 41.0288C145.933 40.2994 146.055 39.6004 146.055 38.9318L146.967 38.5671H147.787V38.6583C148.03 38.7799 148.243 38.8102 148.425 38.7495C148.608 38.6887 148.851 38.7191 149.155 38.8406C149.337 38.9014 149.55 39.0534 149.793 39.2965C150.036 39.4789 150.219 39.6916 150.34 39.9347C150.401 40.0563 150.37 40.2083 150.249 40.3906C150.188 40.573 150.31 40.6945 150.614 40.7553C150.492 41.2416 150.401 41.7582 150.34 42.3053C150.34 42.8523 150.218 43.3386 149.975 43.7641C149.975 43.8857 149.945 43.9768 149.884 44.0376C149.823 44.0984 149.763 44.22 149.702 44.4023C149.58 44.5847 149.489 44.8278 149.428 45.1317C149.428 45.3749 149.368 45.6788 149.246 46.0435C149.185 46.2866 149.124 46.5297 149.064 46.7729C149.003 46.9552 148.912 47.1984 148.79 47.5023C148.547 48.0493 148.395 48.5964 148.334 49.1434C148.273 49.6905 148.213 50.2071 148.152 50.6934C147.848 51.9091 147.574 53.064 147.331 54.1581C147.088 55.2522 146.967 56.4071 146.967 57.6227C149.216 55.7992 151.373 53.7022 153.44 51.3316C155.567 48.9611 157.695 46.6817 159.822 44.4935C160.126 44.1288 160.43 43.7945 160.734 43.4906C161.099 43.1259 161.342 42.822 161.463 42.5788C161.707 42.1533 161.889 41.6975 162.01 41.2112C162.193 40.7249 162.466 40.421 162.831 40.2994C163.074 40.2994 163.287 40.3602 163.469 40.4818C163.712 40.6034 163.956 40.5426 164.199 40.2994C164.563 40.5426 165.05 40.7249 165.657 40.8465C166.265 40.9073 166.721 41.12 167.025 41.4847C167.147 42.3965 167.056 43.2778 166.752 44.1288C166.508 44.919 166.326 45.77 166.205 46.6817C166.144 47.0464 165.961 47.7758 165.657 48.8699C165.354 49.964 165.019 51.1493 164.655 52.4257C164.29 53.6414 163.925 54.7963 163.56 55.8904C163.257 56.9237 163.074 57.5619 163.013 57.8051C163.621 57.5012 164.29 57.1365 165.019 56.711C165.749 56.2855 166.417 55.86 167.025 55.4345C167.147 55.3737 167.207 55.3737 167.207 55.4345C167.207 55.4953 167.238 55.4953 167.299 55.4345C167.603 55.2522 167.998 55.009 168.484 54.7051C169.031 54.3404 169.578 53.9757 170.125 53.611C170.733 53.2463 171.28 52.8816 171.766 52.5169C172.253 52.1522 172.648 51.8787 172.952 51.6963H173.225C173.347 51.6963 173.377 51.6963 173.316 51.6963C173.255 51.6356 173.255 51.6052 173.316 51.6052C173.742 51.6052 174.046 51.4836 174.228 51.2405C174.41 50.9365 174.593 50.6934 174.775 50.5111C174.897 50.5718 174.866 50.6326 174.684 50.6934C174.562 50.7542 174.562 50.7846 174.684 50.7846C174.927 50.7846 175.049 50.6326 175.049 50.3287C175.413 50.3287 175.656 50.2375 175.778 50.0552C175.9 49.8728 176.021 49.6905 176.143 49.5081C176.264 49.4474 176.386 49.3866 176.507 49.3258C176.629 49.2042 176.75 49.113 176.872 49.0523V49.3258C177.298 49.1434 177.814 48.9307 178.422 48.6876C179.03 48.3836 179.395 48.0189 179.516 47.5935C179.577 47.5935 179.607 47.6238 179.607 47.6846C179.668 47.7454 179.759 47.7454 179.881 47.6846C179.942 47.5631 179.942 47.4719 179.881 47.4111C179.881 47.3503 179.942 47.3199 180.063 47.3199C180.246 47.2591 180.367 47.1984 180.428 47.1376C180.549 47.0768 180.671 47.0464 180.793 47.0464C181.097 46.4994 181.644 46.1347 182.434 45.9523C183.224 45.7092 183.832 45.4053 184.257 45.0405H184.348ZM154.99 69.5667C155.051 69.5059 155.051 69.4755 154.99 69.4755C154.929 69.5971 154.868 69.5363 154.808 69.2932C154.747 69.1108 154.656 69.1108 154.534 69.2932L152.346 71.9372C152.164 71.998 152.042 72.0892 151.981 72.2108C151.92 72.3931 151.829 72.5451 151.708 72.6666C151.708 72.9098 151.647 73.0313 151.525 73.0313C151.525 72.9706 151.556 72.9402 151.617 72.9402C151.677 72.9402 151.677 72.8794 151.617 72.7578C151.191 73.0617 150.887 73.396 150.705 73.7607C150.522 74.1862 150.31 74.5509 150.067 74.8548C150.006 74.8548 149.975 74.8244 149.975 74.7637C149.975 74.7637 149.945 74.7637 149.884 74.7637C149.58 75.2499 149.307 75.7362 149.064 76.2225C148.881 76.7087 148.638 77.195 148.334 77.6813C148.334 77.5597 148.304 77.5293 148.243 77.5901C148.121 77.6509 148.061 77.7117 148.061 77.7724C148.061 77.894 148.03 77.9852 147.97 78.046C147.848 78.1068 147.818 78.1068 147.878 78.046C147.939 77.9852 147.909 77.9548 147.787 77.9548C147.666 78.3195 147.514 78.7146 147.331 79.1401C147.149 79.6263 147.027 80.1126 146.967 80.5989C146.967 80.5989 146.875 80.5989 146.693 80.5989C146.632 80.9028 146.511 81.1459 146.328 81.3283C146.207 81.5714 146.055 81.7842 145.872 81.9665V81.7842C145.751 82.2096 145.569 82.6047 145.325 82.9694C145.082 83.3949 144.87 83.8204 144.687 84.2459C144.566 84.2459 144.535 84.2155 144.596 84.1547C144.657 84.1547 144.626 84.1547 144.505 84.1547C144.262 84.8233 144.019 85.4919 143.775 86.1606C143.532 86.89 143.32 87.6498 143.137 88.4399C143.016 88.4399 142.955 88.4096 142.955 88.3488C143.016 88.3488 142.985 88.3488 142.864 88.3488C142.803 88.6527 142.742 88.8958 142.681 89.0782C142.621 89.2605 142.59 89.5037 142.59 89.8076H142.408C142.347 89.8684 142.317 89.8987 142.317 89.8987C142.377 90.3242 142.317 90.6889 142.134 90.9929C141.952 91.3575 141.922 91.7526 142.043 92.1781C142.104 92.2389 142.165 92.3301 142.225 92.4517C142.286 92.5732 142.408 92.6644 142.59 92.7252C142.712 92.786 142.833 92.7252 142.955 92.5428C143.137 92.3605 143.289 92.2389 143.411 92.1781C143.532 92.0566 143.684 91.935 143.867 91.8134C144.049 91.7526 144.201 91.6615 144.322 91.5399C144.322 91.2968 144.383 91.1144 144.505 90.9929C144.687 90.9929 144.809 90.9625 144.87 90.9017C144.991 90.8409 145.113 90.8105 145.234 90.8105C145.356 90.6889 145.477 90.5066 145.599 90.2634C145.721 90.0811 145.872 90.0203 146.055 90.0811V89.7164C146.116 89.6556 146.207 89.5644 146.328 89.4429C146.511 89.3821 146.663 89.3517 146.784 89.3517C147.149 88.3184 147.666 87.4066 148.334 86.6164C149.003 85.8263 149.489 84.9145 149.793 83.8812C150.036 83.7596 150.188 83.5773 150.249 83.3341C150.31 83.091 150.431 82.8783 150.614 82.6959V82.4224C150.735 82.1185 150.887 81.8145 151.069 81.5106C151.313 81.2067 151.495 80.9028 151.617 80.5989L152.528 78.6842C152.65 78.5018 152.711 78.2891 152.711 78.046C152.711 77.8636 152.771 77.6509 152.893 77.4077C153.075 76.8607 153.288 76.2832 153.531 75.6754C153.835 75.1284 154.017 74.5205 154.078 73.8519C154.321 73.6696 154.443 73.396 154.443 73.0313C154.504 72.7274 154.595 72.3627 154.716 71.9372C154.899 71.2686 155.112 70.7216 155.355 70.2961C155.659 69.8706 155.902 69.3539 156.084 68.7461C155.902 68.8069 155.75 68.9284 155.628 69.1108C155.507 69.3539 155.294 69.5059 154.99 69.5667ZM184.348 45.0405V45.1317C184.409 45.2533 184.409 45.3445 184.348 45.4053C184.348 45.466 184.348 45.5572 184.348 45.6788L184.166 46.0435V46.1347C184.045 46.2562 183.953 46.3778 183.893 46.4994C183.893 46.5601 183.862 46.6209 183.801 46.6817H184.075L184.257 46.4994L184.804 46.4082L184.622 44.9494L184.348 45.0405ZM137.849 93.7281V94.0928C137.971 94.032 138.031 94.0016 138.031 94.0016V93.8193L137.94 93.7281H137.849ZM137.849 94.0928C137.971 94.032 138.031 94.0016 138.031 94.0016V93.8193L137.94 93.7281H137.849V94.0928ZM184.804 46.4082V46.4994C184.683 46.4994 184.592 46.5297 184.531 46.5905C184.531 46.5905 184.47 46.5601 184.348 46.4994L184.804 46.4082Z" fill="#016C55"/>
<path d="M161.234 100.362V97.9746H174.707V100.362H169.231V122.533H166.727V100.362H161.234Z" fill="#4D4D4D"/>
<path d="M176.961 104.369H179.348V107.023C180.061 105.977 180.812 105.198 181.602 104.686C182.392 104.163 183.216 103.901 184.073 103.901C184.719 103.901 185.409 104.107 186.143 104.519L184.924 106.489C184.435 106.278 184.023 106.172 183.689 106.172C182.91 106.172 182.159 106.495 181.435 107.14C180.712 107.775 180.161 108.765 179.782 110.112C179.493 111.147 179.348 113.239 179.348 116.389V122.533H176.961V104.369Z" fill="#4D4D4D"/>
<path d="M203.422 116.506L205.393 117.541C204.747 118.81 204.001 119.834 203.155 120.613C202.31 121.392 201.358 121.988 200.301 122.399C199.243 122.8 198.047 123 196.711 123C193.751 123 191.436 122.032 189.766 120.095C188.097 118.148 187.262 115.95 187.262 113.501C187.262 111.197 187.969 109.144 189.382 107.34C191.174 105.048 193.572 103.901 196.578 103.901C199.672 103.901 202.143 105.076 203.99 107.424C205.303 109.082 205.971 111.152 205.994 113.634H189.666C189.71 115.749 190.384 117.485 191.686 118.843C192.988 120.19 194.596 120.863 196.511 120.863C197.435 120.863 198.331 120.702 199.199 120.379C200.078 120.056 200.824 119.628 201.436 119.094C202.048 118.559 202.71 117.697 203.422 116.506ZM203.422 111.614C203.111 110.368 202.655 109.372 202.054 108.626C201.464 107.88 200.679 107.279 199.7 106.823C198.72 106.367 197.691 106.138 196.611 106.138C194.83 106.138 193.3 106.712 192.02 107.858C191.085 108.693 190.378 109.945 189.9 111.614H203.422Z" fill="#4D4D4D"/>
<path d="M228.465 104.369V122.533H226.161V119.411C225.182 120.602 224.08 121.498 222.855 122.099C221.642 122.7 220.312 123 218.865 123C216.294 123 214.096 122.071 212.271 120.212C210.457 118.342 209.55 116.072 209.55 113.401C209.55 110.785 210.468 108.548 212.304 106.689C214.141 104.831 216.35 103.901 218.932 103.901C220.424 103.901 221.77 104.219 222.972 104.853C224.185 105.487 225.248 106.439 226.161 107.708V104.369H228.465ZM219.116 106.155C217.814 106.155 216.612 106.478 215.51 107.123C214.408 107.758 213.529 108.654 212.872 109.811C212.226 110.969 211.904 112.193 211.904 113.484C211.904 114.764 212.232 115.988 212.889 117.157C213.545 118.326 214.424 119.238 215.526 119.895C216.639 120.541 217.83 120.863 219.099 120.863C220.379 120.863 221.592 120.541 222.739 119.895C223.885 119.25 224.764 118.376 225.376 117.274C226 116.172 226.311 114.931 226.311 113.551C226.311 111.447 225.616 109.689 224.224 108.275C222.844 106.862 221.141 106.155 219.116 106.155Z" fill="#4D4D4D"/>
<path d="M235.777 97.624H238.131V104.369H241.838V106.372H238.131V122.533H235.777V106.372H232.589V104.369H235.777V97.624Z" fill="#4D4D4D"/>
<path d="M245.31 104.369H247.631V107.507C248.443 106.35 249.278 105.504 250.135 104.97C251.315 104.257 252.556 103.901 253.858 103.901C254.737 103.901 255.572 104.074 256.362 104.419C257.152 104.764 257.798 105.226 258.299 105.805C258.8 106.372 259.234 107.19 259.601 108.259C260.38 106.834 261.354 105.754 262.523 105.02C263.691 104.274 264.949 103.901 266.296 103.901C267.553 103.901 268.661 104.219 269.618 104.853C270.586 105.487 271.304 106.372 271.772 107.507C272.239 108.643 272.473 110.346 272.473 112.616V122.533H270.085V112.616C270.085 110.668 269.946 109.333 269.668 108.609C269.39 107.875 268.911 107.285 268.232 106.84C267.564 106.394 266.763 106.172 265.828 106.172C264.693 106.172 263.652 106.506 262.706 107.174C261.771 107.841 261.087 108.732 260.653 109.845C260.219 110.958 260.002 112.816 260.002 115.421V122.533H257.681V113.234C257.681 111.041 257.542 109.555 257.264 108.776C256.997 107.986 256.524 107.357 255.845 106.89C255.166 106.411 254.359 106.172 253.424 106.172C252.344 106.172 251.331 106.5 250.385 107.157C249.45 107.802 248.755 108.676 248.299 109.778C247.853 110.88 247.631 112.566 247.631 114.837V122.533H245.31V104.369Z" fill="#4D4D4D"/>
<path d="M292.707 116.506L294.677 117.541C294.032 118.81 293.286 119.834 292.44 120.613C291.594 121.392 290.642 121.988 289.585 122.399C288.528 122.8 287.331 123 285.996 123C283.035 123 280.72 122.032 279.051 120.095C277.381 118.148 276.546 115.95 276.546 113.501C276.546 111.197 277.253 109.144 278.667 107.34C280.459 105.048 282.857 103.901 285.862 103.901C288.956 103.901 291.427 105.076 293.275 107.424C294.588 109.082 295.256 111.152 295.278 113.634H278.95C278.995 115.749 279.668 117.485 280.971 118.843C282.273 120.19 283.881 120.863 285.795 120.863C286.719 120.863 287.615 120.702 288.483 120.379C289.362 120.056 290.108 119.628 290.72 119.094C291.332 118.559 291.995 117.697 292.707 116.506ZM292.707 111.614C292.395 110.368 291.939 109.372 291.338 108.626C290.748 107.88 289.964 107.279 288.984 106.823C288.005 106.367 286.975 106.138 285.896 106.138C284.115 106.138 282.584 106.712 281.304 107.858C280.369 108.693 279.663 109.945 279.184 111.614H292.707Z" fill="#4D4D4D"/>
<path d="M299.652 104.369H301.989V107.624C302.924 106.378 303.959 105.448 305.095 104.836C306.23 104.213 307.465 103.901 308.801 103.901C310.159 103.901 311.361 104.246 312.407 104.936C313.464 105.626 314.244 106.556 314.744 107.724C315.245 108.893 315.496 110.713 315.496 113.184V122.533H313.175V113.868C313.175 111.776 313.086 110.379 312.908 109.678C312.63 108.476 312.107 107.574 311.339 106.973C310.571 106.361 309.569 106.055 308.334 106.055C306.92 106.055 305.651 106.522 304.527 107.457C303.414 108.392 302.68 109.55 302.323 110.93C302.101 111.831 301.989 113.479 301.989 115.872V122.533H299.652V104.369Z" fill="#4D4D4D"/>
<path d="M322.558 97.624H324.912V104.369H328.618V106.372H324.912V122.533H322.558V106.372H319.369V104.369H322.558V97.624Z" fill="#4D4D4D"/>
<path d="M202.908 25.9164C202.656 27.295 203.578 28.8606 204.074 29.6956C204.569 30.5306 204.83 30.6741 205.565 31.4352C205.796 31.6787 206.044 31.9527 206.531 32.5224C210.097 36.693 211.315 39.5068 211.315 39.5068C212.032 41.2111 212.492 43.0123 212.68 44.8516C212.932 47.6222 212.614 50.4151 211.745 53.058C211.199 54.792 210.497 56.4731 209.649 58.081C209.25 58.7936 208.791 59.4715 208.279 60.1076C207.522 61.1731 207.144 61.5776 206.539 62.4691C206.373 62.7478 206.228 63.0385 206.105 63.3389C203.695 68.4228 203.06 74.3677 205.935 79.0776C206.894 80.6964 208.167 82.107 209.679 83.2265C210.667 83.9484 214.711 87.0623 220.117 86.3925C227.475 85.4836 230.65 78.6254 230.78 78.3296C232.263 74.9418 231.846 71.6062 231.65 69.9797C231.408 68.2151 230.931 66.4907 230.232 64.8523C229.363 62.7648 228.715 62.2082 226.61 58.4116C225.889 57.185 225.231 55.9221 224.64 54.628C223.744 52.4796 222.617 49.7789 222.957 46.365C223.184 44.4406 223.74 42.5694 224.601 40.8332C224.692 40.6462 224.674 40.694 225.001 40.0808C225.327 39.4676 226.362 36.5321 227.871 34.4272C228.678 33.3158 229.629 32.3156 230.698 31.4526C231.494 30.8481 231.798 30.7611 232.259 30.2218C233.037 29.3129 233.651 27.8386 233.342 26.547C232.907 24.8074 230.976 23.8985 228.802 22.8852C226.528 21.8508 224.102 21.1928 221.617 20.9369C218.519 20.4998 215.37 20.5791 212.297 21.1717C209.588 21.6892 203.469 22.8635 202.908 25.9164Z" fill="#F4D5CA"/>
<path d="M224.279 7.45996C223.756 8.24089 223.477 9.15987 223.479 10.0997C223.496 10.6192 223.618 11.1297 223.839 11.6001C224.106 12.1353 224.471 12.6161 224.914 13.0179C225.285 13.3413 225.684 13.6323 226.105 13.8877C226.371 14.0573 226.666 14.2095 226.975 14.3747C227.655 14.711 228.352 15.0115 229.063 15.275C230.55 15.8534 232.185 16.3622 233.742 17.045C234.511 17.3648 235.241 17.7719 235.916 18.2583C236.551 18.737 237.086 19.3354 237.491 20.0196C238.233 21.3878 238.519 22.957 238.308 24.499C238.141 25.8743 237.82 27.2265 237.352 28.5305C236.564 30.9181 236.156 32.5011 236.156 32.5011C236.156 32.5011 236.051 32.8968 235.873 33.597C235.695 34.2972 235.438 35.3366 235.26 36.5804C235.025 38.0299 234.88 39.4924 234.825 40.9597C234.76 42.5862 234.773 44.3258 234.768 46.0915C234.782 49.6392 235.428 53.1561 236.678 56.4767C236.943 57.1986 237.212 57.8466 237.443 58.3859L237.765 59.1034L237.834 59.2513V59.2817C237.86 59.3774 237.882 59.46 237.904 59.534C238.403 61.314 239.146 63.0162 240.113 64.5918C240.104 62.7438 239.84 60.9058 239.33 59.1295C239.309 59.0556 239.287 58.9686 239.261 58.8773C239.238 58.7921 239.207 58.7091 239.169 58.6294L239.104 58.4815L238.795 57.7901C238.574 57.2725 238.317 56.655 238.065 55.9635C236.878 52.8068 236.262 49.4639 236.247 46.0915C236.247 44.3171 236.247 42.6123 236.299 41.025C236.357 39.6155 236.502 38.2109 236.734 36.8195C236.925 35.6149 237.169 34.6451 237.321 33.9493C237.473 33.2534 237.595 32.8838 237.595 32.8838C237.595 32.8838 237.995 31.3486 238.769 28.9958C239.277 27.5902 239.623 26.1311 239.8 24.6469C240.045 22.7929 239.69 20.9093 238.787 19.2716C238.286 18.4137 237.619 17.6642 236.825 17.0667C236.058 16.5126 235.229 16.0486 234.355 15.6838C232.685 14.9532 231.046 14.4443 229.611 13.8877C228.947 13.6406 228.297 13.3604 227.662 13.0483C227.38 12.9005 227.114 12.7656 226.892 12.6134C226.548 12.4055 226.22 12.1699 225.914 11.9089C225.294 11.3803 224.827 10.6956 224.561 9.92579C224.307 9.13028 224.211 8.29249 224.279 7.45996V7.45996Z" fill="#016C55" stroke="#016C55" stroke-width="0.87" stroke-miterlimit="10"/>
<path d="M213.222 10.9609C213.294 11.7943 213.201 12.6337 212.948 13.4311C212.686 14.2016 212.22 14.8868 211.6 15.4142C211.292 15.675 210.963 15.9106 210.617 16.1188C210.395 16.2623 210.13 16.3971 209.852 16.5537C209.321 16.8233 208.604 17.1234 207.899 17.393C206.464 17.9497 204.824 18.4585 203.154 19.1891C202.281 19.5539 201.452 20.018 200.684 20.5721C199.893 21.1718 199.226 21.9209 198.723 22.777C197.826 24.4072 197.471 26.2807 197.71 28.1261C197.887 29.6098 198.231 31.0686 198.736 32.4751C199.51 34.8278 199.91 36.363 199.91 36.363C199.91 36.363 200.01 36.7457 200.184 37.4285C200.358 38.1113 200.58 39.0941 200.771 40.2988C201.004 41.6902 201.149 43.0947 201.206 44.5042C201.267 46.0742 201.258 47.8007 201.258 49.5707C201.243 52.9432 200.628 56.286 199.44 59.4428C199.188 60.1342 198.932 60.7474 198.71 61.2693C198.597 61.5259 198.492 61.7607 198.401 61.9608C198.401 62.013 198.358 62.0608 198.34 62.1086C198.299 62.1875 198.267 62.2706 198.245 62.3565C198.245 62.4522 198.197 62.5348 198.175 62.6088C197.664 64.3848 197.402 66.223 197.396 68.071C198.362 66.4952 199.104 64.793 199.601 63.0132L199.675 62.7653C199.675 62.7175 199.675 62.7653 199.675 62.7349C199.675 62.7044 199.723 62.6349 199.745 62.5827L200.067 61.8651C200.302 61.3258 200.567 60.6778 200.832 59.9559C202.081 56.6353 202.728 53.1184 202.741 49.5707C202.741 47.805 202.741 46.0655 202.685 44.4433C202.63 42.9745 202.484 41.5106 202.25 40.0596C202.05 38.7984 201.815 37.7851 201.641 37.0762C201.467 36.3673 201.358 35.9803 201.358 35.9803C201.358 35.9803 200.923 34.3973 200.162 32.0097C199.691 30.7066 199.368 29.3541 199.201 27.9783C198.992 26.4357 199.28 24.8665 200.023 23.4989C200.427 22.815 200.96 22.2167 201.593 21.7376C202.269 21.2512 202.999 20.8441 203.768 20.5242C205.325 19.8414 206.96 19.3326 208.447 18.7586C209.178 18.4759 209.943 18.1584 210.535 17.854C210.852 17.6887 211.148 17.5365 211.404 17.3669C211.826 17.1126 212.225 16.8216 212.596 16.4971C213.04 16.0954 213.406 15.6147 213.675 15.0794C213.892 14.6078 214.013 14.0978 214.031 13.579C214.026 12.6456 213.744 11.7347 213.222 10.9609V10.9609Z" fill="#016C55" stroke="#016C55" stroke-width="0.87" stroke-miterlimit="10"/>
<path d="M208.361 27.0352C207.717 27.5991 207.134 28.2288 206.622 28.9139C206.054 29.6871 205.67 30.5795 205.5 31.5232C205.425 31.9817 205.406 32.4475 205.443 32.9106C205.468 33.24 205.525 33.5662 205.613 33.8847C205.639 33.9761 205.669 34.0661 205.704 34.1543C205.741 34.2655 205.785 34.3744 205.834 34.4805C205.931 34.6934 206.041 34.8997 206.165 35.0981C206.423 35.4955 206.714 35.8708 207.035 36.2201C207.652 36.9203 208.339 37.5552 208.861 38.251C209.373 38.9647 209.749 39.7668 209.97 40.6169C210.405 42.421 210.378 44.3056 209.892 46.0965C209.022 49.7626 206.848 52.8721 205.308 55.2292C204.538 56.3991 203.912 57.382 203.503 58.0821C203.095 58.7823 202.873 59.1868 202.873 59.1868C202.873 59.1868 202.647 59.5869 202.286 60.3218C201.779 61.3461 201.375 62.4183 201.081 63.5226C200.667 65.1087 200.487 66.7466 200.546 68.3847C200.621 70.2962 200.913 72.1929 201.416 74.0383C201.938 75.9606 202.59 77.8436 203.221 79.6919C203.851 81.5402 204.525 83.345 205.095 84.9107L206.178 87.8201C206.779 89.4339 207.601 90.9562 208.622 92.3429C208.532 90.6454 208.181 88.9719 207.583 87.3808C207.383 86.8503 206.991 85.7804 206.509 84.4758C205.352 81.2967 203.899 77.3957 202.869 73.7209C202.385 71.9669 202.103 70.1635 202.029 68.3456C201.962 66.8113 202.122 65.2756 202.503 63.7879C202.779 62.764 203.153 61.7692 203.621 60.8176C203.96 60.1261 204.178 59.7391 204.178 59.7391C204.178 59.7391 204.382 59.3564 204.782 58.6779C205.182 57.9995 205.791 57.0427 206.561 55.8729C207.331 54.703 208.248 53.3201 209.144 51.7327C210.104 50.0436 210.835 48.2346 211.318 46.3531C211.855 44.3622 211.881 42.2679 211.392 40.2646C211.128 39.252 210.677 38.2977 210.062 37.4508C209.431 36.6245 208.727 35.9809 208.17 35.3416C207.665 34.8222 207.281 34.1968 207.048 33.5107C206.982 33.2778 206.94 33.0388 206.922 32.7975C206.894 32.4372 206.912 32.0749 206.974 31.719C207.131 30.9087 207.346 30.1108 207.618 29.3314C207.852 28.6182 208.079 27.9049 208.361 27.0352Z" fill="#016C55" stroke="#016C55" stroke-width="0.86" stroke-miterlimit="10"/>
<path d="M229.896 25.7861C230.269 26.4783 230.544 27.2189 230.714 27.9867C230.89 28.7651 230.957 29.5643 230.914 30.3612C230.884 30.7354 230.83 31.1072 230.753 31.4745C230.714 31.7137 230.614 31.966 230.54 32.2443C230.289 32.9443 229.965 33.6162 229.574 34.2491C229.35 34.6023 229.108 34.9435 228.848 35.2711C228.726 35.4451 228.574 35.6017 228.413 35.7669L228.305 35.893C228.239 35.9626 228.181 36.0384 228.131 36.1192L227.948 36.4454C227.452 37.3121 227.082 38.2448 226.848 39.2156C226.413 41.1763 226.413 43.2086 226.848 45.1693C227.046 46.1258 227.329 47.0629 227.691 47.97C228.052 48.8963 228.479 49.6835 228.857 50.4532C229.053 50.8359 229.24 51.2143 229.422 51.584C229.605 51.9536 229.727 52.3276 229.857 52.6842C230.131 53.4018 230.457 54.0541 230.636 54.6934C231.044 55.9503 231.401 56.981 231.553 57.7377C231.705 58.4944 231.832 58.8858 231.832 58.8858C231.832 58.8858 231.858 58.9858 231.905 59.1815C231.98 59.4677 232.036 59.7582 232.075 60.0513C232.14 60.4253 232.219 60.8776 232.306 61.3995C232.349 61.6604 232.397 61.9387 232.449 62.2345C232.475 62.5302 232.51 62.8433 232.54 63.1695C232.91 66.4669 232.891 69.7964 232.484 73.0894C232.039 76.7262 231.239 80.3108 230.096 83.7921C229.631 85.0968 229.292 86.1579 229.07 86.6798C228.453 88.253 228.026 89.8939 227.796 91.568C228.939 90.2557 229.843 88.7527 230.466 87.1277C230.701 86.5971 231.053 85.5056 231.523 84.1835C232.706 80.622 233.537 76.9527 234.002 73.2286C234.417 69.8414 234.434 66.4172 234.054 63.026C234.019 62.6868 233.984 62.3649 233.954 62.0562C233.923 61.7474 233.854 61.4647 233.81 61.1864C233.719 60.6515 233.636 60.1818 233.571 59.7991C233.529 59.5062 233.471 59.2159 233.397 58.9293L233.319 58.6205C233.319 58.6205 233.214 58.1856 233.027 57.4333C232.84 56.6809 232.506 55.6024 232.088 54.302C231.901 53.641 231.566 52.9626 231.279 52.2232C231.131 51.8536 230.975 51.4752 230.814 51.0838L230.231 49.9096C229.84 49.1181 229.405 48.3005 229.1 47.5047C228.764 46.6595 228.502 45.7863 228.318 44.8953C227.927 43.1146 227.927 41.2703 228.318 39.4896C228.524 38.638 228.849 37.8196 229.283 37.0586L229.435 36.7889L229.474 36.7411L229.592 36.6019C229.748 36.4149 229.914 36.2409 230.053 36.0496C230.34 35.6838 230.609 35.3035 230.857 34.9102C231.092 34.5339 231.305 34.1448 231.497 33.7447C231.593 33.5554 231.679 33.3608 231.753 33.1619L231.866 32.8662C231.897 32.7879 231.958 32.64 231.958 32.627C232.045 32.3052 232.153 32.0138 232.201 31.7311C232.296 31.2942 232.359 30.8508 232.388 30.4047C232.444 29.4318 232.212 28.4641 231.723 27.6214C231.263 26.8774 230.638 26.2495 229.896 25.7861V25.7861Z" fill="#016C55" stroke="#016C55" stroke-width="0.86" stroke-miterlimit="10"/>
</svg>
