<svg width="457" height="458" viewBox="0 0 457 458" fill="none" xmlns="http://www.w3.org/2000/svg">
<path d="M205.231 169.5C201.156 182.535 199.725 196.252 201.022 209.847C202.318 223.441 206.316 236.641 212.781 248.67C216.721 255.91 221.611 262.82 223.571 270.82C226.721 283.71 221.811 297.05 216.981 309.41L205.161 339.64C203.881 342.92 202.581 346.48 203.471 349.88C204.471 353.82 208.361 356.52 212.341 357.4C216.321 358.28 220.461 357.69 224.501 357.09L288.651 347.58C289.094 347.552 289.522 347.407 289.891 347.16C290.122 346.904 290.299 346.603 290.411 346.277C290.522 345.95 290.567 345.604 290.541 345.26C291.131 333.197 290.46 321.105 288.541 309.18C285.621 291.18 279.871 273.58 279.671 255.38C279.481 238.8 283.931 222.13 281.171 205.78C279.891 198.27 277.171 191.09 273.991 184.15C270.811 177.21 267.201 170.24 261.901 164.69C258.171 160.781 253.704 157.649 248.758 155.476C243.812 153.302 238.484 152.13 233.082 152.027C227.68 151.924 222.311 152.892 217.286 154.875C212.26 156.858 207.677 159.816 203.801 163.58" fill="#E9D0C6"/>
<path d="M141.48 193.58C137.43 193.39 134.27 196.87 131.72 200.02C130.095 201.853 128.747 203.915 127.72 206.14C127.098 207.626 126.78 209.221 126.784 210.832C126.788 212.443 127.115 214.037 127.745 215.519C128.374 217.002 129.295 218.344 130.451 219.465C131.607 220.587 132.976 221.465 134.478 222.049C135.979 222.634 137.582 222.911 139.192 222.866C140.803 222.821 142.388 222.454 143.854 221.787C145.32 221.119 146.638 220.165 147.729 218.981C148.821 217.796 149.665 216.405 150.21 214.89C151.62 211.19 151.13 207.05 150.3 203.18C149.981 201.011 149.14 198.952 147.851 197.18C146.441 195.51 144.02 194.5 142.01 195.36" fill="#E9D0C6"/>
<path d="M313.981 146.789C312.587 148.395 311.606 150.316 311.123 152.386C310.641 154.456 310.671 156.613 311.211 158.669C311.806 160.711 312.981 162.536 314.592 163.924C316.204 165.312 318.183 166.203 320.291 166.489C323.447 166.67 326.592 165.978 329.381 164.489C330.708 163.672 331.847 162.581 332.721 161.289C333.621 159.934 334.245 158.414 334.558 156.816C334.871 155.219 334.866 153.576 334.544 151.981C334.222 150.385 333.588 148.869 332.68 147.519C331.772 146.168 330.607 145.01 329.251 144.109C327.895 143.209 326.375 142.585 324.778 142.272C323.18 141.959 321.537 141.964 319.942 142.286C318.347 142.609 316.83 143.242 315.48 144.15C314.129 145.058 312.971 146.224 312.071 147.579" fill="#E9D0C6"/>
<path d="M4.87064 260.311C5.13064 260.891 5.52064 260.501 5.25064 258.831L4.39062 257.721L4.87064 260.311Z" fill="#1F686A"/>
<path d="M5.01053 248.88C4.45053 246.94 3.60055 244.73 3.06055 246.07C3.96055 247.96 3.72054 248.46 4.77054 250.48C5.02054 252.15 4.84056 253.48 4.54056 253.18C4.79056 253.75 4.67055 255.8 5.22055 256.66C5.49699 254.019 5.2558 251.349 4.51053 248.8C4.61053 248.17 4.86053 248.75 5.01053 248.88Z" fill="#1F686A"/>
<path d="M48.1504 94.4805L47.4404 95.2805C47.6904 95.0259 47.9273 94.7589 48.1504 94.4805V94.4805Z" fill="#1F686A"/>
<path d="M125.09 29.5801C124.41 29.9601 124.16 30.1701 124.16 30.2501C124.77 29.8501 125.27 29.5801 125.09 29.5801Z" fill="#1F686A"/>
<path d="M141.07 22.9297L140.07 23.2697C140.42 23.2125 140.758 23.0976 141.07 22.9297V22.9297Z" fill="#1F686A"/>
<path d="M48.1504 94.4797L49.9604 92.4797C49.8804 92.1497 48.9804 93.4597 48.1504 94.4797Z" fill="#1F686A"/>
<path d="M1.40039 226.32C1.46139 226.819 1.55493 227.314 1.68039 227.8C1.63039 227.33 1.58039 226.87 1.52039 226.41L1.40039 226.32Z" fill="#1F686A"/>
<path d="M25.6008 133.051L25.2708 133.801C25.2509 134.05 25.2509 134.301 25.2708 134.551L25.6008 133.051Z" fill="#1F686A"/>
<path d="M13.5603 165.101C13.8003 164.371 13.2803 163.931 13.1003 163.561C13.2096 164.142 13.1856 164.74 13.0303 165.311C13.1403 165.361 13.3103 165.301 13.5603 165.101Z" fill="#1F686A"/>
<path d="M3.62012 218.48L3.72012 219.48C3.69012 219.19 3.65012 218.77 3.62012 218.48Z" fill="#1F686A"/>
<path d="M37.4004 111.58C37.5302 111.569 37.6531 111.516 37.7504 111.43C37.7304 111.38 37.6004 111.44 37.4004 111.58Z" fill="#1F686A"/>
<path d="M200.89 455.491C200.89 455.491 200.89 455.421 200.89 455.381C200.7 455.421 200.63 455.451 200.89 455.491Z" fill="#1F686A"/>
<path d="M162.16 444.19L162.7 444.32C162.792 444.234 162.866 444.132 162.92 444.02L162.16 444.19Z" fill="#1F686A"/>
<path d="M171.121 13.4805H170.981C170.201 13.7805 170.651 13.6505 171.121 13.4805Z" fill="#1F686A"/>
<path d="M420.4 115.43C419.24 112.29 423.69 119.71 421.75 115.1C421.77 115.58 418.68 111.7 420.4 115.43Z" fill="#1F686A"/>
<path d="M1.40065 225.42C1.40065 224.95 1.33066 224.42 1.32066 223.99C1.31284 224.468 1.33956 224.946 1.40065 225.42V225.42Z" fill="#1F686A"/>
<path d="M421.75 115.099L421.54 114.619C421.64 114.819 421.68 114.929 421.75 115.099Z" fill="#1F686A"/>
<path d="M243.01 6.18936C242.789 6.04282 242.546 5.93151 242.29 5.85938C242.31 5.92938 242.47 6.01936 243.01 6.18936Z" fill="#1F686A"/>
<path d="M188.95 8.23938L190.29 8.10938C189.75 8.13937 189.32 8.18938 188.95 8.23938Z" fill="#1F686A"/>
<path d="M271.021 8.90039C271.653 9.09629 272.302 9.23024 272.961 9.30038C272.868 9.24735 272.771 9.20379 272.671 9.17038C272.109 9.1776 271.55 9.08622 271.021 8.90039V8.90039Z" fill="#1F686A"/>
<path d="M299.4 16.3803L298.93 16.0903L298.04 15.8203L299.4 16.3803Z" fill="#1F686A"/>
<path d="M291.02 448C290.522 448.021 290.023 447.967 289.54 447.84C290.11 448.14 285.92 449.49 291.02 448Z" fill="#1F686A"/>
<path d="M1.71039 226.29C1.51367 226.042 1.40465 225.736 1.40039 225.42L1.48038 226.42C1.58038 226.49 1.67039 226.5 1.71039 226.29Z" fill="#1F686A"/>
<path d="M273.16 4.29102C274.72 4.56102 276.25 5.03102 277.79 5.39102C276.266 4.94736 274.721 4.58022 273.16 4.29102V4.29102Z" fill="#1F686A"/>
<path d="M442.52 307.061L442.19 308.061C442.343 307.743 442.454 307.407 442.52 307.061V307.061Z" fill="#1F686A"/>
<path d="M291.521 8.79102C292.31 9.23595 293.133 9.62038 293.981 9.94101C294.173 9.96153 294.368 9.96153 294.56 9.94101L291.521 8.79102Z" fill="#1F686A"/>
<path d="M259.151 455.58C263.661 455.02 261.151 454.52 262.041 453.93C267.331 452.84 264.601 454.11 266.481 454.22C269.781 453.4 272.201 452.22 274.671 451.78C274.881 451.87 275.371 451.78 274.841 452.1C278.171 450.61 285.211 449.83 288.961 447.77C289.148 447.727 289.343 447.727 289.531 447.77C288.771 447.55 288.531 447.18 288.621 446.86C290.561 446.29 292.071 445.34 292.951 445.64C292.308 445.788 291.711 446.09 291.211 446.52L293.211 445.72C295.261 445.94 290.511 446.72 290.661 447.31C292.611 446.61 294.721 445.85 296.661 445.02C298.393 444.232 300.177 443.564 302.001 443.02C302.871 443.52 295.061 445.63 299.281 444.91C297.691 445.33 296.131 445.82 294.521 446.14C298.521 446.25 291.621 446.88 295.311 447.14C301.551 445.33 302.101 444.55 308.311 442.56C309.511 441.64 307.641 442.16 308.851 441.23C317.071 437.17 316.321 440.42 322.081 436.69C323.451 435.48 323.701 434.44 328.221 432.79L327.131 434.3C332.761 431.52 329.771 431.58 335.861 429.1C334.981 429.93 331.611 431.59 332.501 431.25C336.591 429.89 334.991 429.51 337.831 427.92L338.831 428.24C341.681 426.5 344.691 424.69 347.641 422.64L356.641 416.33C356.441 416.75 355.541 417.68 357.071 416.87C364.521 411.27 373.171 405.19 380.171 399.48C380.891 398.56 381.641 397.68 382.311 396.72C382.891 396.17 383.581 395.91 383.041 396.6C385.751 394.36 382.891 396.17 383.941 394.82C385.351 393.42 386.101 393.28 385.321 394.29L388.991 390.23L393.261 385.36C396.261 382.11 399.201 378.72 401.581 376.48L400.901 377.57C402.156 376.28 403.208 374.806 404.021 373.2C404.729 371.649 405.731 370.25 406.971 369.08L406.501 369.86C408.221 367.72 410.071 365.58 411.681 363.27L416.401 356.58L420.781 350.05L424.781 344.4C424.781 342.57 430.581 335.15 429.631 333.85C433.001 328.53 432.631 330.35 436.631 322.44C437.631 320.29 437.391 318.91 438.361 316.16L439.021 316.36L439.811 312.36L441.351 310.69L442.191 308.07C441.751 309.07 441.051 310.13 440.931 309.9C441.611 307.9 442.601 305.46 443.431 303.54C443.858 302.352 444.469 301.239 445.241 300.24C446.241 296.99 446.911 293.67 447.641 290.37C447.851 290.66 447.471 292.32 447.271 293.67C448.081 288.26 448.271 292.91 448.981 287.96C448.651 288.56 448.681 287.51 448.581 287.37C449.721 285.11 450.861 279.58 451.661 275.5L451.951 276.38C452.841 272.71 453.361 268.76 454.051 264.74C454.741 260.72 454.981 256.5 455.541 252.31C454.941 255.31 454.221 254.51 454.451 252.06C454.741 251.76 454.991 251.45 455.261 251.15C454.941 249.51 454.791 253.69 454.501 250.38C454.821 247.25 455.501 248.38 455.571 250.17V246.32C455.801 246.12 455.851 247.02 456.111 247.32C455.731 245.72 457.431 240.75 456.631 238.43L456.851 238.22C456.951 233.99 457.001 230.92 456.951 228.04C456.901 225.16 456.721 222.49 456.571 219.04C455.961 218.93 456.031 216.24 455.331 214.23C455.271 211.71 455.204 209.043 455.131 206.23C455.021 203.44 454.691 200.53 454.301 197.52C453.461 193.32 453.621 196.35 453.011 194.52C453.581 194.12 452.421 188.16 453.381 191.19C452.681 187.61 452.231 185.32 451.731 182.79C451.231 180.26 450.341 177.58 449.081 173.14C449.081 174.14 449.231 175.29 448.911 174.77C448.461 173.17 448.281 171.02 448.581 171.18L448.761 171.59C445.361 161.86 443.311 148.2 438.971 140.98L439.201 141.39C437.991 138.8 436.511 136.33 435.201 133.81C433.671 130.18 436.561 135.81 435.681 132.98C430.921 125.03 429.361 119.81 424.971 113.54C424.311 110.54 421.391 106.15 418.351 101.54C416.801 99.28 415.051 97.07 413.561 94.92C412.801 93.85 412.091 92.81 411.451 91.81C410.811 90.81 410.151 89.92 409.641 89.05V89.66C408.071 88.28 408.291 87.56 407.421 86.31C407.311 86.67 408.521 88.31 407.561 87.41C402.071 80.66 396.111 73.97 390.001 67.3C383.803 60.7153 377.211 54.5138 370.261 48.73C365.141 44.62 366.181 47.96 360.041 42.45L362.371 43.21C351.211 36.21 339.861 28.26 327.881 23.32C328.579 23.3853 329.258 23.5857 329.881 23.91C327.741 22.07 320.741 19.64 320.551 19.98C318.741 19.11 320.281 19.43 319.241 18.72C316.901 17.23 312.621 16.77 311.491 15.72C311.291 15.54 312.261 15.84 312.751 15.98C311.001 15.56 305.031 12.88 306.411 14.09C301.901 12.31 297.591 11.28 293.981 9.90997C291.371 9.90997 286.101 7.31999 285.081 8.04999C285.671 7.15999 277.001 5.33998 273.931 5.13998C275.001 5.01998 271.371 4.35998 272.631 4.13998C269.181 3.53998 266.001 3.14 266.511 3.78C263.461 2.56 260.201 2.42998 257.321 2.25998C254.441 2.08998 251.931 1.86999 250.191 1.01999C244.981 0.919989 240.001 0.629988 235.191 0.799988L228.001 0.889984L221.001 1.25C221.311 0.25 231.281 0.92 230.891 0C222.021 0.35 216.981 1.42999 208.241 1.85999C205.971 1.85999 209.491 1.34 210.241 1.12C205.841 1.54 201.621 2.20997 197.501 2.62997C193.381 3.04997 189.421 3.92 185.601 4.81C186.105 4.55304 186.644 4.37111 187.201 4.26999C185.671 4.51999 183.631 4.82 183.891 5.22L185.341 4.78C187.871 4.92 179.621 7.41 179.431 7.78C181.701 5.91 171.831 9.13998 175.501 6.59998C174.501 6.92998 173.351 7.46998 173.651 7.69998C172.171 7.99998 171.651 7.94998 173.061 7.22998C167.751 8.87998 169.781 8.80997 164.941 10.13C164.941 9.89997 165.841 9.52997 166.271 9.12997C163.495 10.5703 160.572 11.7037 157.551 12.51C157.751 12.31 157.231 12.29 158.441 11.92C155.3 12.9871 152.227 14.2461 149.241 15.69C146.311 16.92 143.381 18.39 139.621 19.69C141.421 17.9 137.001 20.43 136.271 19.84L132.401 22.03L134.131 21.67C130.731 23.28 127.931 25.11 124.991 26.43L127.311 24.84L121.151 28.25L124.821 26.67C121.661 28.81 125.661 27.41 121.141 29.52C121.991 28.97 117.831 31.24 115.931 31.86C114.26 33.264 112.427 34.4626 110.471 35.43C109.711 35.57 110.471 34.36 109.991 34.43C108.791 35.97 102.691 39.33 101.161 41.22C101.701 40.63 101.501 40.22 101.231 40.32L100.291 41.67C98.7806 42.52 98.5206 42.6 98.5506 42.15C94.2306 45.1 100.551 42.05 95.1906 45.27C95.4743 44.9476 95.7783 44.6437 96.1006 44.36C93.5783 46.029 91.1666 47.8595 88.8806 49.84L82.1606 55.33C80.3306 55.79 85.8406 51.93 83.9206 52.64C77.6706 58.1 71.6106 64.57 65.9906 70.23L67.1006 69.23C67.1806 70.85 62.4606 73.01 60.2206 76.46C60.8206 75.66 60.6106 75.05 60.5306 75.34C56.6806 79.25 53.2906 83.9 48.5306 90.67L48.9006 89.67C46.7906 92.11 43.6006 96.31 41.6006 99.17C41.2606 100.17 40.1006 101.81 41.1406 101.06C37.3206 104.95 34.9206 109.53 32.5306 113.87C30.486 118.269 28.13 122.516 25.4806 126.58C25.9906 125.58 26.4806 124.03 26.0506 124.84C24.9406 127.31 23.7506 129.75 22.7006 132.24C23.4206 131.87 23.4106 131.4 24.5406 130.06C24.092 131.771 23.5067 133.443 22.7906 135.06C23.9606 131.6 22.0306 134.74 21.1206 136.06C21.3706 135.89 21.3106 136.45 21.5106 136.39C18.9806 139.9 22.1006 137.39 19.3206 142.5L19.1806 142.11C18.6221 144.2 17.9545 146.26 17.1806 148.28C16.2806 148.97 17.7706 146.05 17.3706 145.73C16.8403 147.258 16.4061 148.818 16.0706 150.4C15.8196 151.919 15.3267 153.387 14.6106 154.75C14.9106 153.38 15.5306 151.49 15.8506 150.12C14.7715 151.827 13.9146 153.666 13.3006 155.59L13.4006 155.37C12.7106 157.09 11.9706 158.8 11.3306 160.54C11.5106 160.11 11.7206 159.68 11.9406 159.25C11.9769 161.422 11.6387 163.583 10.9406 165.64C10.1269 167.999 9.61616 170.452 9.42062 172.94C9.75062 167.49 9.09064 171.94 8.53064 171.37C8.02064 172.7 7.31063 174.74 7.27063 174.1C7.27063 176.78 5.73063 178.24 5.83063 182.05C5.58063 182.17 5.27063 184.79 4.83063 184.11C4.35063 187.49 5.36065 183.39 5.57065 183.73C5.20065 188.96 2.52065 195.73 2.57065 203.34C2.15065 209.8 2.75063 211.15 3.05063 217.11C2.69063 219.11 2.27063 215.44 2.27063 215.44C1.95179 218.382 2.00555 221.352 2.43063 224.28C2.22063 223.66 2.07065 224.28 1.88065 225.28C2.09065 227.75 2.74063 226.89 2.64062 230.17C2.20182 229.411 1.86556 228.597 1.64062 227.75C2.01063 230.66 2.64065 233.51 3.07065 236.5C2.76065 237.32 2.35063 234.73 2.02063 233.68C2.45063 237.06 3.11064 242.42 3.81064 243.4V241.22C3.95064 242.45 3.36064 241.9 3.16064 241C2.42064 238.15 3.01063 236.81 3.21063 236.63L3.52063 238.75C4.60063 236.45 2.59064 230.18 2.47064 225.84L3.47064 227.59L2.47064 223.2C2.68064 222.25 3.17063 221.59 3.39062 223.71C3.72063 220.61 2.95063 220.98 3.39062 218.32C3.46063 218.03 3.51063 218.16 3.55063 218.43C3.43063 217.43 3.37064 216.43 3.28064 215.43C3.47064 216.02 3.93065 214.94 3.79065 216.78C4.32065 211.43 3.54062 208.08 4.48062 206.12V206.58C5.13062 199.06 3.90063 205.77 3.83063 200.07L6.03064 196.53L5.47064 195.71C5.60064 194.94 5.88065 193.43 6.10065 193.76C6.10065 190.83 5.74063 194.2 5.55063 192.47C6.69063 188.88 7.18065 182.28 8.35065 181.67C8.11065 180.25 7.29064 185.1 7.69064 181.11C9.02064 180.24 8.57064 176.58 9.87064 173.38C10.2106 174.54 9.14063 177.59 10.4606 174.38C10.3483 172.874 10.6165 171.365 11.2406 169.99C11.9314 168.448 12.5064 166.857 12.9606 165.23C12.6006 165.06 12.9606 163.53 13.5406 161.47C14.1206 159.41 15.1206 156.86 15.7606 154.53C15.8606 154.72 16.6306 152.59 17.7606 149.96C18.8906 147.33 20.2906 144.16 21.2406 142.13L21.3106 142.31C20.8706 141.19 22.9306 137.04 24.1406 133.89C24.5306 134.22 24.4606 134.89 23.9206 136.6L25.2006 133.72C25.3843 132.455 25.7906 131.233 26.4006 130.11L26.5906 131.11C28.4506 127.36 29.6806 123.19 32.7606 118.71C32.4206 118.15 29.2606 121.71 31.7606 116.5C32.1306 116.5 32.6906 116.5 32.0606 117.91C32.3862 117.049 32.8018 116.224 33.3006 115.45L32.6306 117.71C34.0306 115.71 32.8806 116.37 33.8906 114.71C34.2306 114.96 34.8906 113.62 35.0606 114.04C34.5732 114.704 34.1575 115.418 33.8206 116.17C34.8018 114.486 36.006 112.942 37.4006 111.58C37.0806 111.58 36.9006 111.27 37.7106 109.86C39.8906 106.26 38.9106 108.91 40.3906 106.96C40.6806 105.96 42.4706 103.91 41.9606 103.48C42.3242 102.909 42.8404 102.452 43.4506 102.16C43.9606 101.16 45.3306 99.05 46.4506 97.44C47.5706 95.83 48.3106 94.65 47.2906 95.44L46.9206 95.86L47.1106 95.56C49.0515 92.4467 51.2777 89.5208 53.7606 86.82L57.4306 82.68C58.6506 81.31 59.8906 80 61.0206 78.63L61.1706 78.78C63.7506 75.41 67.4806 71.78 69.2706 69.33C70.1506 68.43 71.6306 67.5 71.4306 68.07C73.234 65.9792 75.2442 64.0761 77.4306 62.39C75.3206 64.89 78.4806 61.88 75.1906 64.87C78.3806 62.14 79.2706 61.74 82.3306 58.39C81.5306 59.81 85.1906 56.89 86.5906 55.47L84.1006 57.06C85.6122 55.6517 87.2157 54.3455 88.9006 53.15L88.5106 54.39C92.1806 52.14 94.9106 49.39 97.7106 47.11C100.511 44.83 103.061 42.61 106.251 41.52C107.871 39.86 102.141 43.74 103.511 42.14C106.891 40.08 110.891 38.73 111.931 38.14C116.801 35.8 115.701 34.64 120.771 32.14C120.011 32.25 119.061 31.96 122.701 29.76C126.261 28 127.511 28.48 125.401 29.83C124.581 30.29 124.131 30.42 124.131 30.33C123.041 31.01 121.621 31.88 123.131 31.41L123.461 30.94C125.321 30.27 130.101 27.72 129.171 28.71C131.761 27.23 130.121 27.71 128.091 28.63C132.821 26.8 135.191 25.17 140.091 23.37C139.271 23.55 138.441 23.56 139.201 23.25C146.381 20.62 142.111 21.5 146.861 19.4C149.771 18.77 146.221 20.65 150.991 18.56C154.071 17.74 151.861 18.99 150.761 19.62C152.725 18.6842 154.775 17.9374 156.881 17.39C158.801 16.95 160.491 16.67 161.791 16.31L159.491 17.25C160.861 16.69 162.031 16.33 163.211 15.96L161.701 15.88C163.121 15.54 164.301 15.17 164.341 15.39C165.681 14.61 162.981 14.9 165.711 13.55C167.661 13.25 171.401 11.75 172.231 12.24C166.231 13.56 173.061 12.74 168.071 14.17C169.236 13.7756 170.43 13.4681 171.641 13.25C171.871 13.25 171.481 13.44 171.101 13.58C176.931 12.76 173.481 11.99 179.441 10.74C178.771 11.29 180.981 11.18 181.931 10.89C179.531 11.39 180.641 10.49 182.781 9.72998C186.661 9.18998 186.901 8.63 188.931 8.34L186.591 8.57999C187.311 8.06999 189.251 7.79998 191.931 7.22998C192.211 7.48998 189.511 7.83998 190.501 7.81998C193.381 6.62998 197.351 7.36999 201.501 6.48999C203.501 6.48999 201.771 7.19999 203.501 7.17999C208.131 6.07999 208.631 7.17998 213.501 6.41998C212.041 5.98998 211.791 6.13998 215.251 5.41998L207.131 6.35999L212.301 5.22998C209.841 5.41998 207.131 5.87 205.661 6C208.101 5.28 207.871 5.49998 206.661 5.13998C210.101 5.66998 213.331 4.19999 217.271 4.45999V5.76999C223.131 6.21999 227.651 4.69999 235.271 5.32999L232.831 5.03998C233.831 4.54998 237.541 5.03998 240.021 4.94998C239.771 5.36998 241.291 5.64998 242.331 5.94998C242.221 5.61998 247.871 6.39999 248.641 5.57999C249.751 5.87999 250.871 6.08999 251.971 6.45999C258.021 7.51999 259.101 5.97997 264.971 7.12997C263.141 7.28997 265.741 8.02998 261.781 7.72998C263.781 8.01998 265.451 8.44999 265.541 8.14999C266.621 8.61999 271.031 8.52998 272.741 9.25998C273.857 8.9973 275.023 9.03527 276.121 9.37C276.341 9.51 276.061 9.57999 276.061 9.57999C276.121 9.36999 279.521 10.08 277.731 9.16998C280.561 10.53 284.731 11.38 288.731 12.56C290.731 13.1 292.731 13.64 294.511 14.19C296.067 14.7051 297.568 15.3751 298.991 16.19L305.551 18.19L311.711 20.49C311.431 20.49 311.621 20.69 310.941 20.38C315.801 22.75 314.551 20.38 319.941 23.32C322.521 25.32 316.811 22.32 318.491 23.38C318.651 25.09 325.391 26.13 328.651 28.89L327.731 28.51C330.291 30.41 334.881 31.43 339.271 34.19C339.271 34.19 338.991 34.19 339.141 34.37C341.376 35.1576 343.547 36.1206 345.631 37.25C348.031 38.58 350.561 40.06 352.711 41.33C351.101 40.96 350.641 40.33 351.131 41.33C353.041 42.48 351.131 40.17 354.901 42.52C355.901 43.62 358.381 45.71 358.371 46.45L354.941 44.05C356.231 45.94 359.371 47.17 361.091 48.56L360.661 48.68C365.841 52.44 366.431 51.84 371.791 56.22L371.421 55.55C374.841 57.37 373.501 58 376.771 59.99L377.061 61.39C379.141 62.78 383.991 66.74 387.391 69.69C385.091 68.39 381.081 65.03 378.481 63.09C380.271 64.79 384.591 68.82 385.831 69.4C384.942 68.7808 384.118 68.0739 383.371 67.29C384.898 68.1989 386.344 69.2395 387.691 70.4C389.191 71.72 390.791 73.29 392.491 75.08C390.741 75.51 400.821 84.89 401.941 88.59C404.897 91.8164 407.574 95.2889 409.941 98.97C411.171 100.85 412.481 102.72 413.721 104.72C414.961 106.72 416.221 108.8 417.601 110.91C416.791 107.19 419.231 113.37 420.051 112.15C420.735 113.082 421.312 114.089 421.771 115.15L424.641 121.75C425.131 123.41 423.261 119.95 423.101 120.29C425.561 124.81 423.641 122.46 424.911 125.62C425.021 124.78 426.341 126.89 427.511 129.62L426.191 125.62C430.131 131.71 428.061 131.62 431.661 137.93L430.331 136.02C431.171 137.68 432.711 140.74 434.031 143.89C435.092 146.602 436.432 149.196 438.031 151.63C438.111 152.31 438.031 153.25 437.401 151.75C440.211 160.14 444.721 170.22 445.501 177.18L445.031 176.6C445.491 178.19 446.281 179.28 446.431 181.38C446.271 181.3 445.951 180.8 446.111 181.55C446.923 183.607 447.477 185.757 447.761 187.95L447.061 186.17C448.261 194.75 450.061 199.17 451.181 206.41C450.181 206.5 450.411 213.32 450.511 216.72L450.361 216.61C450.461 221.61 450.831 225.91 451.071 230.11C451.311 234.31 451.601 238.43 451.381 243.11C450.031 248.84 449.141 262.69 446.651 271.73C447.071 270.36 447.361 272.1 447.151 273.73C446.471 275.82 446.451 279.79 445.651 279.25L445.851 278.49C444.601 279.9 443.921 284.35 442.851 287.7L443.851 288.57C442.761 290.916 441.836 293.336 441.081 295.81C440.151 298.42 439.301 301.17 438.511 303.81C436.801 309.04 435.071 313.74 433.441 315.81C432.801 317.94 431.661 320.45 431.021 322.58L430.501 322.2C429.211 324.99 428.071 326.99 426.921 329.2C425.771 331.41 424.691 333.84 422.801 337.13L423.171 335.57C421.011 339.25 422.061 341.15 420.101 344.62L418.671 345.14C416.671 348.28 414.511 351.39 412.301 354.41C410.047 357.385 407.951 360.476 406.021 363.67C406.021 363.49 405.901 363.15 406.621 362.18C404.441 364.95 397.721 372.45 399.431 372.23C398.691 371.71 394.431 378.1 391.831 381.23V380.35C390.539 382.848 388.911 385.156 386.991 387.21C386.101 387.93 385.991 387.56 387.101 386.6C384.181 389.01 385.391 389.06 381.851 391.99L382.851 390.53C381.35 391.751 380.089 393.239 379.131 394.92C377.441 396.71 373.441 399.64 372.651 399.59C371.861 401.084 370.687 402.34 369.251 403.23C368.881 403.23 369.451 402.64 369.741 402.33C364.381 406 362.621 408.92 358.571 410.96C358.43 410.922 358.284 410.914 358.14 410.938C357.997 410.963 357.861 411.018 357.741 411.1C361.991 408.19 365.241 405.6 364.961 405.88C364.611 405.43 361.291 407.88 363.411 405.25C360.42 408.455 357.086 411.322 353.471 413.8C353.295 413.873 353.11 413.92 352.921 413.94L353.231 413.65C352.49 414.079 351.787 414.57 351.131 415.12C349.991 415.73 349.271 416.12 348.221 416.78C347.541 416.61 344.131 419.21 342.281 420.15C342.751 420.6 340.341 421.87 342.811 421.04C342.501 421.17 343.111 420.78 344.301 420.04C344.546 419.875 344.783 419.699 345.011 419.51L344.921 419.64L349.241 416.82C347.907 418.175 346.338 419.276 344.611 420.07C343.901 420.95 343.091 421.89 342.611 422.39C339.681 423.04 334.741 425.39 333.791 425.24C331.051 426.82 327.791 428.61 324.791 430.24C322.177 431.465 319.698 432.956 317.391 434.69C316.581 435.209 315.615 435.428 314.661 435.31C315.53 434.919 316.366 434.457 317.161 433.93C314.001 435.7 307.301 438 306.801 439.12C302.401 440.36 308.961 437.61 303.101 439.78L303.821 439.28C301.048 439.902 298.327 440.734 295.681 441.77C293.191 442.68 290.801 443.55 288.391 444.5L284.691 445.89C283.421 446.31 282.101 446.67 280.691 447.02C277.652 447.842 274.541 448.364 271.401 448.58C271.946 448.485 272.505 448.485 273.051 448.58C257.721 450.97 241.301 453.85 225.911 452.58C221.561 452.29 221.081 452.78 218.401 453.07L217.491 452.36C215.961 452.55 214.431 452.72 212.891 452.87C206.371 452.96 201.891 450.33 193.721 450.17L194.721 450.78C191.831 450.27 185.491 449.49 186.071 449.05C185.366 449.22 184.626 449.157 183.961 448.87V448.51C181.561 448.243 179.167 447.93 176.781 447.57C171.401 446.01 177.931 446.47 170.071 444.38C167.131 443.74 161.521 442.97 162.531 443.52C163.701 443.89 165.471 444.62 165.461 444.98L162.741 444.37C161.971 445.21 159.551 445.62 166.001 448.25C167.611 448.47 169.211 448.72 170.821 448.9L172.201 449.77L168.261 448.77C169.91 449.551 171.716 449.941 173.541 449.91C174.066 450.385 174.697 450.727 175.381 450.91C176.991 450.97 178.601 450.99 180.211 451C180.691 451.51 177.971 451.33 181.031 452.22C183.291 452.22 179.141 450.91 182.791 451.35C184.951 452.25 184.221 452.52 186.951 452.61C187.281 452.94 186.681 453.01 185.611 452.93C188.031 453.07 191.921 453.93 193.231 453.54C195.521 454.54 201.301 454.54 200.951 455.43C203.111 455.228 205.284 455.185 207.451 455.3C203.321 456.16 215.701 456.04 214.561 457.16C217.561 456.3 225.411 457.22 230.711 456.46C230.282 456.62 229.828 456.698 229.371 456.69C231.304 456.735 233.234 456.888 235.151 457.15C235.511 456.25 240.151 456.04 242.601 455.22C246.291 455.78 240.451 456.41 241.601 457.13C241.381 456.44 247.901 455.94 246.601 455.45C249.431 455.76 249.021 455.52 250.531 456.13C250.921 455.05 253.111 455.67 255.331 454.72C259.411 454.72 256.501 455.59 260.871 454.72C263.031 454.72 259.151 455.58 259.151 455.58ZM356.401 416.26C355.671 416.81 355.041 417.26 354.621 417.52C355.235 417.13 355.829 416.71 356.401 416.26ZM363.621 411.12L360.471 413.33C360.091 413.33 360.241 412.96 360.971 412.45C360.651 412.85 362.401 411.74 363.611 411.12H363.621ZM345.841 417.97C346.951 417.16 347.401 416.97 347.631 417.02L345.631 418.38L345.531 418.53C345.587 418.323 345.689 418.131 345.831 417.97H345.841Z" fill="#1F686A"/>
<path d="M344.17 420C344 420.11 343.92 420.19 343.7 420.33C343.97 420.23 344.23 420.14 344.48 420.03L344.79 419.6L344.17 420Z" fill="#1F686A"/>
<path d="M47.3206 95.4093L47.4406 95.2793C47.349 95.3722 47.2485 95.4559 47.1406 95.5293C47.1982 95.4858 47.2583 95.4457 47.3206 95.4093V95.4093Z" fill="#1F686A"/>
<path d="M439.17 316.4L439.02 316.35L438.86 317.12L439.17 316.4Z" fill="#1F686A"/>
<path d="M21.1207 136.119C20.9597 136.269 20.8245 136.445 20.7207 136.639C20.8742 136.482 21.0084 136.308 21.1207 136.119V136.119Z" fill="#1F686A"/>
<path d="M13.3106 155.65L12.1406 158.4C12.6806 157.22 13.0406 156.35 13.3106 155.65Z" fill="#1F686A"/>
<path d="M8.34082 171.061C8.36615 171.198 8.42836 171.326 8.52081 171.431V171.431L8.34082 171.061Z" fill="#1F686A"/>
<path d="M187.12 4.32092L187.73 4.19091C189.16 3.83091 188.18 4.04092 187.12 4.32092Z" fill="#1F686A"/>
<path d="M115.941 31.8496C116.581 31.3396 117.221 30.8496 117.941 30.3496C116.721 30.9996 115.801 31.5196 115.941 31.8496Z" fill="#1F686A"/>
<path d="M272.641 4.17969L273.171 4.27969L272.641 4.17969Z" fill="#1F686A"/>
<path d="M121.06 28.6797C119.958 29.1263 118.906 29.6859 117.92 30.3497C118.9 29.8197 120.11 29.2997 121.06 28.6797Z" fill="#1F686A"/>
<path d="M2.40039 240.699V241.479C2.40039 241.479 2.48038 241.479 2.51038 241.559L2.40039 240.699Z" fill="#1F686A"/>
<path d="M2.53027 241.58L2.69028 242.43C2.68459 242.14 2.63051 241.853 2.53027 241.58Z" fill="#1F686A"/>
<path d="M3.01041 244.2L2.69043 242.41C2.69237 243.021 2.80063 243.627 3.01041 244.2V244.2Z" fill="#1F686A"/>
<path d="M1.34036 219.301L1.11035 219.061C1.16035 219.191 1.23036 219.281 1.34036 219.301Z" fill="#1F686A"/>
<path d="M1.34027 212.73C1.03375 214.759 0.893275 216.809 0.920253 218.86L1.11026 219.06C0.720255 218.03 1.65027 214.23 1.34027 212.73Z" fill="#1F686A"/>
<path d="M7.75009 186.26C7.36009 188.02 6.91008 189.76 6.58008 191.53C6.96008 190.64 7.4701 189.47 7.1601 191.9C9.0501 185.34 6.33009 193.19 7.75009 186.26Z" fill="#1F686A"/>
<path d="M11.7909 170.04C11.1609 172.86 12.1209 170.09 12.2209 170.28C12.5309 168.46 12.6009 168.02 11.7909 170.04Z" fill="#1F686A"/>
<path d="M72.5 67.3596L72.68 67.9696C74.25 66.3896 72.54 67.7896 72.5 67.3596Z" fill="#1F686A"/>
<path d="M88.1006 49.9199L86.1406 50.9999L85.6406 52.0499L88.1006 49.9199Z" fill="#1F686A"/>
<path d="M101.501 45.0391L100.761 45.6591C101.761 44.8991 102.681 44.0991 103.671 43.3691C102.931 43.8891 102.231 44.4791 101.501 45.0391Z" fill="#1F686A"/>
<path d="M294.271 15.2492L293.831 14.3992C292.341 14.1092 291.811 14.7692 294.271 15.2492Z" fill="#1F686A"/>
<path d="M370.92 55.9297C371.847 57.3103 373.066 58.4708 374.49 59.3297C373.04 58.0097 371.73 56.5197 370.92 55.9297Z" fill="#1F686A"/>
<path d="M441.731 292.51L441.981 290.76L441.271 293.99L441.731 292.51Z" fill="#1F686A"/>
<path d="M37.3301 389.33C37.6901 389.53 37.7801 389.15 37.0301 388.33L36.1201 388.1L37.3301 389.33Z" fill="#20696A"/>
<path d="M33.3999 383.119C32.3999 382.289 31.1399 381.419 31.2599 382.369C32.4499 383.039 32.4599 383.429 33.7999 384.079C34.5299 384.879 34.8499 385.649 34.5799 385.639C34.9399 385.839 35.5799 386.999 36.2099 387.229C35.4636 385.7 34.3919 384.351 33.0699 383.279C32.9599 382.889 33.2999 383.109 33.3999 383.119Z" fill="#20696A"/>
<path d="M38.4004 313.08C38.4995 312.949 38.5802 312.804 38.6404 312.65L38.4004 313.08Z" fill="#20696A"/>
<path d="M16.0603 266.41C15.8903 266.85 15.8702 267.06 15.9002 267.1C16.0402 266.68 16.1503 266.33 16.0603 266.41Z" fill="#20696A"/>
<path d="M21.9407 264.58L21.4707 264.15C21.5976 264.323 21.7573 264.469 21.9407 264.58Z" fill="#20696A"/>
<path d="M38.4004 313.08C38.153 313.405 37.7988 313.631 37.4004 313.72C37.4004 313.93 38.0904 313.58 38.4004 313.08Z" fill="#20696A"/>
<path d="M23.9199 372C24.1105 372.259 24.3211 372.504 24.5499 372.73C24.3699 372.49 24.1999 372.25 24.0299 372H23.9199Z" fill="#20696A"/>
<path d="M19.5407 313.16L19.2807 313.59C19.2658 313.746 19.2658 313.904 19.2807 314.06L19.5407 313.16Z" fill="#20696A"/>
<path d="M14.6708 333.71C14.6708 333.22 14.2408 333.04 14.0508 332.85C14.2352 333.177 14.3349 333.544 14.3408 333.92C14.4008 333.93 14.5308 333.87 14.6708 333.71Z" fill="#20696A"/>
<path d="M23.0205 366.77L23.3705 367.28L23.0205 366.77Z" fill="#20696A"/>
<path d="M31.4004 306.449C31.4333 306.527 31.4891 306.593 31.5604 306.639C31.5304 306.579 31.4704 306.519 31.4004 306.449Z" fill="#20696A"/>
<path d="M129.551 422.74C129.551 422.74 129.551 422.74 129.551 422.81C129.551 422.88 129.691 422.83 129.551 422.74Z" fill="#20696A"/>
<path d="M150.98 436.11L150.64 436.02C150.573 436.079 150.521 436.155 150.49 436.24L150.98 436.11Z" fill="#20696A"/>
<path d="M34.4905 279.721V279.641C34.1305 279.231 34.2905 279.471 34.4905 279.721Z" fill="#20696A"/>
<path d="M76.7206 310.78C76.8606 308.67 77.6706 314.08 77.7206 310.91C77.5806 311.22 76.6506 308.19 76.7206 310.78Z" fill="#20696A"/>
<path d="M23.6704 371.469L23.1904 370.689C23.4004 371.059 23.5504 371.289 23.6704 371.469Z" fill="#20696A"/>
<path d="M34.2304 279.961C34.0972 280.032 33.9838 280.135 33.9004 280.261C33.9604 280.271 34.0204 280.191 34.2304 279.961Z" fill="#20696A"/>
<path d="M40.54 289.66L40.8 290.46C40.71 290.14 40.62 289.88 40.54 289.66Z" fill="#20696A"/>
<path d="M46.4902 275.09C46.7722 275.356 47.0767 275.597 47.4002 275.81C47.372 275.753 47.3385 275.7 47.3002 275.65C46.997 275.516 46.7221 275.326 46.4902 275.09V275.09Z" fill="#20696A"/>
<path d="M58.0103 289.119C58.0103 289.009 57.9503 288.889 57.9203 288.779L57.6104 288.279L58.0103 289.119Z" fill="#20696A"/>
<path d="M90.6504 381.9C90.7519 382.207 90.8092 382.527 90.8204 382.85C90.9104 382.42 92.6304 384.58 90.6504 381.9Z" fill="#20696A"/>
<path d="M24.1399 371.851C23.9799 371.851 23.8499 371.711 23.6699 371.471C23.7999 371.651 23.9099 371.831 24.0299 372.001C24.1099 372.011 24.1799 371.991 24.1399 371.851Z" fill="#20696A"/>
<path d="M49.2402 272.58C50.1098 273.267 50.9286 274.015 51.6902 274.82C50.945 273.999 50.1248 273.249 49.2402 272.58V272.58Z" fill="#20696A"/>
<path d="M3.11023 329.579L2.74023 328.939C2.8313 329.17 2.95598 329.386 3.11023 329.579Z" fill="#20696A"/>
<path d="M57.6904 281.9C57.8942 282.454 58.1382 282.992 58.4204 283.51C58.513 283.603 58.6172 283.684 58.7304 283.75L57.6904 281.9Z" fill="#20696A"/>
<path d="M103.7 397.671C101.9 395.491 102.39 397.031 101.7 396.791C99.41 394.291 101.06 395.291 100.57 394.211C99.14 392.651 97.67 391.751 96.74 390.471C96.74 390.311 96.59 390.041 96.91 390.251C95.15 388.781 92.91 384.981 90.86 383.251C90.8058 383.135 90.7785 383.009 90.78 382.881C90.78 383.401 90.57 383.641 90.34 383.701C89.58 382.701 88.65 381.991 88.69 381.371C88.9148 381.73 89.2374 382.018 89.62 382.201L88.7 381.201C88.46 379.891 89.92 382.571 90.26 382.331C88.5167 380.439 86.8999 378.435 85.42 376.331C85.64 375.671 88.27 380.061 87.14 377.591L88.76 380.231C88.1 377.801 89.76 381.791 89.3 379.481C87.07 376.081 86.44 375.931 84.24 372.481C83.46 371.901 84.04 372.991 83.24 372.411C79.47 367.981 81.78 367.871 78.73 364.801C77.2933 364.118 76.1554 362.933 75.53 361.471L76.63 361.951C74.4 358.681 74.63 360.631 72.52 357.011C73.15 357.461 74.52 359.421 74.22 358.891C73.05 356.411 72.82 357.551 71.61 355.891L71.81 355.221C69.23 351.861 66.15 348.351 63.13 344.751C63.42 344.851 64.06 345.381 63.51 344.411C59.61 339.951 55.51 334.601 51.73 330.241C51.12 329.811 50.47 329.421 49.84 329.021C49.48 328.661 49.32 328.201 49.78 328.521C48.31 326.821 49.48 328.661 48.58 328.031C47.65 327.161 47.58 326.651 48.25 327.121C45.15 324.611 39.39 320.121 36.25 317.341L36.99 317.711C34.5 315.581 33.49 316.301 31.24 314.281L31.77 314.531C28.8618 312.356 25.7024 310.54 22.36 309.121C19.2364 307.806 15.8886 307.107 12.5 307.061C11.98 307.461 10.09 307.641 8.35 308.321C6.61 309.001 5.09998 310.061 5.22998 310.601C4.03741 311.324 2.98413 312.256 2.11999 313.351C0.931568 314.875 0.203009 316.707 0.019985 318.631C-0.130015 320.401 0.599985 321.211 1.01998 323.141L0.540005 323.291C0.898882 324.144 1.31309 324.972 1.77999 325.771C1.77999 326.271 1.71998 326.771 1.72998 327.321C2.00998 327.871 2.28998 328.431 2.60998 328.951C2.29998 328.291 2.16999 327.441 2.33999 327.491C3.59999 330.051 5.33999 333.691 5.23999 333.901C6.63999 335.651 8.04998 337.271 9.54998 338.901C9.29998 338.901 8.54998 338.121 7.91998 337.511C10.51 339.911 7.91998 338.361 10.3 340.511C10.11 340.111 10.68 340.511 10.8 340.511C12.2931 342.692 14.061 344.671 16.06 346.401L15.45 346.281C19.1694 349.981 23.2234 353.328 27.56 356.281C26.07 355.011 26.79 354.791 28.11 355.661L28.33 356.461C29.33 356.771 27.07 355.361 29.04 356.211C30.67 357.401 29.83 357.481 28.76 356.971L30.93 358.181C30.93 358.401 30.43 358.181 30.2 358.241C31.2 358.531 33.61 360.981 35.2 361.141V361.351C38.985 363.359 43.0831 364.712 47.32 365.351C47.48 364.931 49.27 365.291 50.66 364.961C52.4555 365.14 54.2645 365.14 56.06 364.961C58.0551 364.699 59.996 364.122 61.81 363.251C64.32 361.721 62.39 362.511 63.39 361.651C63.84 362.001 67.15 359.511 65.6 361.021C67.1594 359.858 68.5759 358.516 69.82 357.021C71.2452 355.315 72.4729 353.453 73.48 351.471C73 351.951 72.56 352.541 72.63 352.141C73.13 351.141 74.05 350.091 74.15 350.321L74.04 350.591C75.44 347.481 77.17 344.011 78.44 340.481C79.6975 337.384 80.3754 334.082 80.44 330.741V331.051C80.49 329.191 80.52 327.351 80.44 325.511C80.67 322.981 80.66 327.051 81.03 325.181C80.59 319.181 81.16 315.741 80.15 310.901C80.56 308.901 80.01 305.571 79.15 302.131C78.29 298.691 77.04 295.191 76.55 292.631L76.38 293.001C75.65 291.861 75.98 291.441 75.7 290.491C75.54 290.711 75.96 291.941 75.52 291.221C73.31 286.061 71.05 280.741 67.44 275.811C66.5275 274.578 65.5247 273.415 64.44 272.331C63.26 271.078 61.8688 270.042 60.33 269.271C59.1577 268.775 57.8489 268.704 56.63 269.071C55.4854 269.439 54.4736 270.134 53.72 271.071C52.6054 272.539 51.8611 274.254 51.55 276.071C51.2375 277.273 51.3109 278.543 51.76 279.701C52 280.481 52.12 281.351 51.82 284.061L51.26 282.521C51.5019 286.949 52.2535 291.335 53.5 295.591C54.1488 297.702 54.9716 299.756 55.96 301.731L56.75 303.211L58.17 305.481L58.52 306.031C58.6365 306.149 58.7637 306.256 58.9 306.351L59.66 306.931L60.4 307.501C60.75 307.401 61.11 307.281 61.45 307.151L60.72 307.571C60.62 307.571 60.45 307.771 60.33 307.681L59.85 307.331L60.21 307.681C60.27 307.731 60.33 307.831 60.42 307.851L60.72 307.781C61.15 307.691 61.61 307.561 62.09 307.411C63.0948 306.997 63.9373 306.266 64.49 305.331C65.0375 304.458 65.3541 303.46 65.41 302.431C65.47 301.591 65.41 301.101 65.32 301.091C65.32 299.551 65.61 300.731 65.75 299.781C65.7316 298.623 65.4728 297.483 64.99 296.431C64.5784 295.695 64.2753 294.903 64.09 294.081C64.09 293.901 64.4 294.491 64.55 294.791C63.99 293.791 62.37 289.791 62.43 291.021C61.24 288.081 59.43 285.821 58.22 283.591C56.93 282.511 55.22 279.081 54.32 279.151C55.07 278.841 51.24 274.541 49.22 273.511C49.95 273.771 47.87 272.191 48.73 272.451C46.73 270.891 44.06 270.391 44.46 270.901C43.3403 270.423 42.1244 270.212 40.9091 270.287C39.6938 270.362 38.5128 270.719 37.46 271.331C35.52 272.331 34.26 273.601 32.93 274.191C30.5225 277.02 29.3325 280.687 29.62 284.391C29.9001 287.645 30.96 290.783 32.71 293.541C32.33 293.641 31.45 292.121 30.82 290.541C30.19 288.961 29.82 287.311 29.48 287.541C30.1787 290.08 31.3677 292.458 32.98 294.541C33.683 295.501 34.4339 296.426 35.23 297.311C36.1631 298.497 37.3484 299.46 38.7 300.131C39.64 300.491 39.37 300.481 38.7 300.361C38.0984 300.194 37.518 299.96 36.97 299.661C37.7884 300.239 38.7298 300.619 39.72 300.771C40.8617 300.917 42.0162 300.624 42.95 299.951C43.7993 299.289 44.4044 298.364 44.67 297.321C44.8809 296.495 44.9586 295.641 44.9 294.791C44.8087 293.334 44.4705 291.904 43.9 290.561C43.4491 289.351 42.9283 288.169 42.34 287.021C42.41 287.021 42.69 287.481 42.93 287.941C42.56 287.011 42.1 285.751 41.85 285.991L42.33 286.841C42.54 288.471 39.79 283.651 39.44 283.641C41.11 284.641 37.31 279.161 39.66 280.931C39.28 280.381 38.72 279.751 38.6 279.991C38.17 279.111 38.13 278.771 38.85 279.501C36.85 276.501 37.2 277.801 35.4 275.111C35.54 275.021 35.96 275.531 36.31 275.701C34.8417 274.315 33.5028 272.799 32.31 271.171C32.49 271.241 32.4 270.901 32.9 271.551C29.84 267.941 27 266.121 23.27 262.631C24.87 263.031 22.12 261.371 22.15 260.631C21.0613 259.835 19.7056 259.494 18.37 259.681C18.9366 259.679 19.4954 259.813 20 260.071C19.1837 259.824 18.303 259.91 17.55 260.311C16.8974 260.689 16.3505 261.225 15.96 261.871C15.31 262.951 14.96 263.871 14.35 264.791C14.53 264.201 14.76 263.621 14.99 263.041C14.2527 264.412 13.6338 265.844 13.14 267.321C13.53 266.531 13.91 265.741 14.37 264.991C13.66 267.391 15.12 264.991 13.8 267.991C13.94 267.351 13 270.251 12.44 271.431C12.4041 272.836 12.2604 274.237 12.01 275.621C11.77 276.061 11.38 275.181 11.22 275.461C11.52 276.701 11.02 281.181 11.69 282.651C11.54 282.161 11.22 282.151 11.16 282.311L11.62 283.311C11.55 284.431 11.5 284.601 11.23 284.441C11.45 287.801 11.88 283.321 11.94 287.311C11.8448 287.052 11.7646 286.788 11.7 286.521C12.1526 290.279 12.9732 293.983 14.15 297.581C13.87 298.821 13.09 294.511 12.95 295.851C14.5401 301.137 17.4159 305.948 21.32 309.851C21.09 309.621 20.89 309.351 20.68 309.111C21.74 309.011 23.18 312.191 25.81 313.111C25.21 312.851 24.81 313.111 25.02 313.111C26.8671 314.308 28.9381 315.117 31.1074 315.49C33.2767 315.863 35.4991 315.792 37.64 315.281C37.4189 315.423 37.1884 315.55 36.95 315.661C37.7083 315.623 38.4402 315.369 39.06 314.931C39.7988 314.356 40.2863 313.517 40.42 312.591C40.6118 311.023 40.2125 309.44 39.3 308.151C38.73 307.621 37.74 306.651 38.1 307.471C37.0426 305.939 35.4646 304.845 33.66 304.391C31.9719 303.934 30.1989 303.889 28.49 304.261C25.11 304.901 22.49 306.871 19.97 308.851C20.47 308.271 21.14 307.421 20.69 307.851C19.4306 309.163 18.3542 310.64 17.49 312.241C18.03 312.081 18.04 311.751 18.92 311.011C18.5048 312.081 18.0273 313.126 17.49 314.141C18.38 311.971 16.92 313.851 16.3 314.711C16.47 314.611 16.44 314.981 16.59 314.951C14.91 317.221 17.02 315.631 15.38 318.951L15.25 318.701C14.92 320.061 14.86 321.351 14.47 322.791C13.91 323.291 14.59 321.311 14.29 321.131C13.77 323.201 14.21 325.331 13.53 327.131C13.53 326.231 13.74 324.971 13.77 324.071C13.2119 325.25 12.873 326.52 12.77 327.821V327.671C12.53 328.851 12.39 330.041 12.23 331.241L12.43 330.331C13.43 333.011 12.43 335.731 13.52 339.211C12.52 335.851 13.06 338.681 12.52 338.461C12.47 339.381 12.46 340.781 12.28 340.401C12.87 342.031 12.28 343.271 13.33 345.511C13.18 345.651 13.69 347.281 13.21 347.001C13.8 349.121 13.37 346.431 13.61 346.571C14.82 349.721 14.91 354.501 17.49 358.731C19.41 362.461 20.24 362.901 22.25 366.161C22.65 367.421 21.25 365.501 21.25 365.501C21.94 367.262 22.8723 368.918 24.02 370.421C23.69 370.151 23.8 370.561 23.96 371.171C24.83 372.501 25.01 371.761 25.96 373.651C25.4517 373.38 24.9811 373.044 24.56 372.651C25.7 374.161 26.96 375.531 28.2 377.021C28.27 377.601 27.2 376.321 26.65 375.851C27.98 377.581 30.13 380.301 30.9 380.561L30.19 379.351C30.68 379.971 30.13 379.911 29.72 379.481C28.33 378.191 28.26 377.221 28.34 377.041L29.22 378.101C29.15 376.421 25.92 373.681 24.52 371.271L25.71 371.891L23.71 369.771C23.57 369.161 23.71 368.621 24.46 369.771C23.76 367.901 23.36 368.391 22.87 366.771C22.87 366.581 22.87 366.641 23 366.771L21.91 365.181C22.21 365.451 22.18 364.681 22.65 365.761C21.39 362.561 19.72 361.011 19.65 359.611L19.81 359.861C17.75 355.551 19.14 359.651 17.26 356.511C17.37 355.601 17.46 354.721 17.61 353.821L16.99 353.541C16.85 353.061 16.58 352.131 16.83 352.241C15.99 350.581 16.71 352.601 16.1 351.671C15.81 349.291 14.27 345.351 15 344.671C14.48 343.901 15.12 346.961 14.41 344.511C15.12 343.661 13.75 341.641 13.95 339.421C14.46 340.041 14.43 342.091 14.61 339.911C13.69 338.681 14.45 335.721 14.3 333.911C13.71 333.831 14.06 329.911 14.3 326.911C14.6413 325.915 14.9087 324.896 15.1 323.861C15.5183 322.117 16.0631 320.406 16.73 318.741L16.8 318.851C16.38 318.141 17.49 315.441 18.45 313.561C18.73 313.821 18.65 314.201 18.3 315.271C18.58 314.691 18.89 314.121 19.21 313.571C19.3773 312.797 19.7193 312.072 20.21 311.451L20.28 312.101C21.69 310.101 23.28 307.721 26.4 306.821C26.52 306.351 23.4 306.731 26.8 305.171C27 305.351 27.21 305.681 26.35 306.061C26.8571 305.777 27.4138 305.594 27.99 305.521C27.5481 305.736 27.1205 305.98 26.71 306.251C28.2 306.021 27.38 305.691 28.61 305.531C28.61 305.831 29.52 305.651 29.37 305.931C28.8759 305.922 28.3835 305.989 27.91 306.131C29.0485 305.899 30.2296 306.004 31.31 306.431C31.22 306.261 31.31 305.961 32.31 306.101C34.72 306.681 33.04 306.661 34.31 307.271C34.94 307.271 36.04 308.271 36.31 307.991C36.86 308.441 36.74 308.731 36.83 308.991C37.571 309.631 38.069 310.507 38.24 311.471C38.41 312.471 38.18 312.971 38.61 312.531C38.6426 312.443 38.6693 312.352 38.69 312.261V312.441C38.6604 312.92 38.4592 313.373 38.1232 313.716C37.7872 314.06 37.3388 314.271 36.86 314.311C35.7293 314.476 34.5807 314.476 33.45 314.311C31.2321 313.932 29.0823 313.227 27.07 312.221L27.15 312.081C24.8613 310.889 22.7452 309.392 20.86 307.631C20.32 307.051 19.92 306.011 20.28 306.161C19.0672 304.934 18.1387 303.456 17.56 301.831C18.74 303.481 17.42 301.121 18.72 303.551C17.58 301.201 17.58 300.551 16.18 298.131C16.87 298.891 16.02 296.131 15.62 294.951C15.68 295.561 15.75 296.181 15.84 296.791C15.4057 295.57 15.0712 294.316 14.84 293.041L15.52 293.581C15.02 288.321 12.88 284.081 13.99 279.961C13.59 278.541 13.75 282.871 13.29 281.611C13.4212 279.662 13.7803 277.736 14.36 275.871C15.09 272.651 13.96 272.651 15.07 269.321C14.79 269.691 14.07 269.951 14.81 267.321C15.81 265.001 16.81 264.911 16.27 266.321C16.05 266.861 15.9 267.101 15.84 267.051C15.59 267.801 15.36 268.801 15.84 267.971L15.77 267.611C16.3 266.511 17.88 263.611 17.77 264.491C18.46 262.971 17.88 263.611 17.14 264.781C17.4757 264.228 17.8465 263.697 18.25 263.191C18.424 262.951 18.6744 262.778 18.96 262.701C19.1049 262.673 19.2539 262.675 19.3981 262.706C19.5423 262.737 19.679 262.796 19.8 262.881C20.3629 263.237 20.8858 263.653 21.36 264.121C21.02 263.711 20.79 263.231 21.19 263.561C24.74 266.811 23.08 264.561 25.57 266.741C26.7 268.251 24.63 266.741 27.12 268.911C28.36 270.481 27.05 269.561 26.38 269.121C28.73 270.971 29.92 273.361 30.88 274.731L29.8 273.611C30.3666 274.203 30.8944 274.831 31.38 275.491L31.15 274.551C31.67 275.311 32.1 275.951 31.97 276.021C32.73 276.641 32.06 275.021 33.45 276.371C34.01 277.491 35.71 279.371 35.45 280.031C33.53 276.681 35.26 280.651 33.45 278.031C33.936 278.624 34.3521 279.272 34.69 279.961C34.69 280.111 34.53 279.961 34.38 279.721C35.86 283.081 35.8 280.821 37.59 284.201C37.12 283.901 37.5 285.201 37.82 285.761C37.16 284.391 37.93 284.891 38.75 286.071C39.55 288.401 39.98 288.441 40.43 289.661L39.99 288.251C40.6804 289.191 41.2047 290.243 41.54 291.361C41.38 291.571 40.87 289.931 40.99 290.551C42.13 292.201 42.05 294.781 41.76 296.631C41.52 296.981 41.38 296.841 41.28 296.801C41.2329 296.759 41.1752 296.732 41.1135 296.721C41.0517 296.711 40.9882 296.717 40.93 296.741C40.71 297.161 40.4 297.081 40.12 296.851C39.84 296.621 39.37 296.261 38.37 295.381C38.59 296.151 38.81 296.381 37.16 294.991C37.6609 295.586 38.2241 296.126 38.84 296.601C39.2686 296.961 39.7937 297.187 40.35 297.251C39.5231 297.304 38.7082 297.031 38.08 296.491C38.5364 296.965 39.0983 297.325 39.72 297.541C40.0662 297.648 40.4328 297.672 40.79 297.611C40.5755 297.736 40.3427 297.827 40.1 297.881C40.05 297.881 40.17 298.021 40.44 298.191C38.5282 297.482 36.93 296.118 35.93 294.341L36.75 293.841C35.93 292.291 35.05 291.031 34.29 289.541C33.3657 287.878 32.8933 286.003 32.92 284.101C32.8715 284.576 32.8481 285.053 32.85 285.531C32.37 284.981 32.59 282.751 32.85 281.351C33.14 281.541 33.43 280.721 33.85 280.261C33.72 280.261 33.98 279.531 34.36 278.791C34.74 278.051 35.2 277.271 35.09 276.911C35.6072 276.498 36.1631 276.136 36.75 275.831C38.12 274.831 38.9 274.261 39.75 273.741C40.2731 273.408 40.857 273.181 41.468 273.075C42.079 272.969 42.705 272.984 43.31 273.121C42.31 273.381 43.66 273.651 41.58 273.821C42.58 273.821 43.48 274.081 43.58 273.821C43.86 273.981 44.58 274.091 45.36 274.401C46.089 274.63 46.7467 275.044 47.27 275.601C47.9692 275.727 48.6081 276.079 49.09 276.601C49.15 276.761 48.97 276.721 48.97 276.721C48.97 276.721 50.66 278.111 50.06 276.991C51.3962 279.016 52.8487 280.963 54.41 282.821C55.9063 284.576 57.084 286.58 57.89 288.741C59.4051 291.125 60.7068 293.638 61.78 296.251C61.63 296.141 61.63 296.251 61.49 295.861C61.6959 296.749 62.0803 297.586 62.62 298.321C62.8983 298.747 63.0863 299.227 63.1723 299.729C63.2583 300.231 63.2405 300.746 63.12 301.241C62.78 301.951 62.76 301.471 62.77 301.081C62.78 300.691 62.77 299.911 62.67 300.521C62.11 300.951 62.21 301.241 62.02 302.001C61.929 302.409 61.6858 302.766 61.34 303.001C61.18 303.071 60.94 303.211 60.82 303.001C60.7211 302.793 60.644 302.575 60.59 302.351L60.76 302.491C60.54 301.801 60.43 301.851 59.85 301.051C58.9901 299.827 58.2816 298.505 57.74 297.111C57.74 297.111 57.89 297.221 57.9 297.111C56.54 295.291 55.19 291.241 54.67 288.111C55.23 289.021 55.1 289.481 55.43 288.831C55.19 287.461 54.76 289.361 54.34 286.561C54.46 285.621 54.57 283.561 55.04 283.321C55.04 284.191 55.13 285.061 55.18 285.931C55.67 284.561 54.98 282.561 55.18 281.181L55.42 281.371C55.42 279.371 55.42 278.371 55.42 277.301C55.3187 275.947 55.6477 274.596 56.36 273.441C56.2306 273.515 56.1069 273.598 55.99 273.691C56.25 272.571 56.73 272.291 57.12 272.141C57.668 271.956 58.2297 271.816 58.8 271.721C58.9627 271.949 59.0876 272.203 59.17 272.471C60.261 272.808 61.2787 273.347 62.17 274.061C63.4305 274.945 64.5818 275.976 65.6 277.131C64.27 276.131 61.79 274.001 60.05 273.211C61.27 273.941 63.88 276.461 64.58 276.911C64.0698 276.487 63.5918 276.026 63.15 275.531C65.281 276.893 67.0376 278.767 68.26 280.981C67.58 281.071 68.57 282.811 69.6 284.981C70.63 287.151 71.7 289.641 71.66 290.861C74.15 295.781 75.08 301.191 76.24 307.411C76.82 305.011 76.57 309.241 77.49 308.711C77.6766 309.426 77.7707 310.162 77.77 310.901C77.77 312.421 77.69 313.901 77.62 315.461C77.4 316.551 77.3 314.071 77.07 314.221C77.24 317.461 76.74 315.611 76.6 317.751C76.95 317.301 77.16 318.851 77.04 320.751L77.46 318.141C78.05 322.691 76.71 322.051 76.98 326.611L76.76 325.151C76.91 327.501 75.95 333.701 76.19 336.061C75.98 336.441 75.6 336.901 75.75 335.891C75.1576 338.748 74.4131 341.572 73.52 344.351C72.7472 346.843 71.5347 349.176 69.94 351.241V350.771C69.43 351.631 69.35 352.511 68.34 353.331C68.34 353.221 68.4 352.861 68.1 353.221C67.4714 354.401 66.6188 355.447 65.59 356.301C65.8217 355.98 66.0354 355.646 66.23 355.301C62.31 358.541 60.28 360.631 55.94 361.831C55.87 361.491 54.83 361.431 53.57 361.371C52.3113 361.321 51.0562 361.204 49.81 361.021L49.89 360.921C47.198 360.628 44.5397 360.082 41.95 359.291C39.3558 358.544 36.8432 357.539 34.45 356.291C31.7 353.861 24.32 349.041 20.45 344.581C21.01 345.291 19.95 344.891 19.14 344.211C18.25 343.151 16.09 341.821 16.72 341.531L17.05 341.891C16.79 340.691 14.74 338.751 13.35 337.021L12.45 337.291C11.09 334.631 8.60998 331.731 6.88998 328.871C5.16998 326.011 4.11998 323.081 4.50998 321.601C4.16005 320.298 4.04161 318.944 4.16 317.601L4.6 317.761C4.92938 316.467 5.56762 315.273 6.45999 314.281C7.50247 313.12 8.81435 312.234 10.28 311.701C10.05 311.881 9.84998 312.111 9.63998 312.311C11.64 311.541 12.1 310.081 14.5 309.941L15.18 310.641C19.56 310.881 23.46 313.551 27.68 315.481C27.56 315.481 27.34 315.621 26.68 315.241C28.57 316.411 33.54 320.411 33.41 319.241C33.09 319.771 37.3 322.241 39.41 323.691L38.81 323.791C40.501 324.407 42.0515 325.356 43.37 326.581C43.87 327.111 43.59 327.271 42.97 326.581C44.57 328.381 44.68 327.501 46.58 329.731L45.58 329.181C46.3815 330.125 47.3776 330.886 48.5 331.411C49.74 332.411 51.66 334.901 51.61 335.411C52.6061 335.826 53.4606 336.52 54.07 337.411C54.07 337.661 53.66 337.331 53.45 337.161C55.98 340.451 57.88 341.481 59.37 343.961C59.29 344.101 59.37 344.291 59.46 344.501C57.37 341.971 55.69 339.911 55.87 340.091C55.56 340.361 57.19 342.441 55.4 341.201C57 342.621 59.88 344.981 61.32 347.201C61.3672 347.316 61.4007 347.437 61.42 347.561L61.21 347.371C61.5198 347.822 61.8787 348.238 62.28 348.611C62.74 349.311 63.01 349.761 63.49 350.401C63.4 350.861 65.2 352.931 65.97 354.011C66.28 353.651 67.25 355.091 66.59 353.551C66.68 353.741 66.4 353.381 65.85 352.691C65.72 352.541 65.57 352.351 65.47 352.261L65.55 352.311L63.55 349.701C64.5127 350.45 65.3066 351.394 65.88 352.471C66.53 352.841 67.22 353.271 67.58 353.471C68.15 355.321 69.95 358.351 69.9 358.991C72.49 362.131 75.59 366.701 77.76 368.301C78.1822 368.758 78.43 369.349 78.46 369.971C78.0686 369.482 77.6478 369.018 77.2 368.581C78.71 370.351 81.2 374.161 82.01 374.261C83.46 376.821 80.61 373.261 83.01 376.471L82.55 376.131C86.31 383.131 91.18 385.761 95.55 393.431C95.3312 393.149 95.1713 392.826 95.08 392.481C100.82 400.731 108.53 408.121 115.25 415.421C116.346 416.647 117.693 417.623 119.2 418.281L119.35 419.041L121.96 420.501C123.575 421.604 125.058 422.89 126.38 424.331C127.992 425.895 129.859 427.173 131.9 428.111L131.49 427.481C133.09 428.481 136.73 430.411 136.3 430.541C136.777 430.541 137.238 430.711 137.6 431.021L137.53 431.271C138.99 431.841 140.4 432.501 141.9 432.951C145.14 434.571 140.9 433.691 145.83 435.821C147.74 436.401 151.38 437.021 150.73 436.601C150.08 436.181 148.88 435.761 148.91 435.501L150.63 435.981C151.18 435.361 152.63 435.071 148.82 433.121C147.82 432.911 146.82 432.781 145.87 432.501L145.13 431.771C145.9 432.101 146.66 432.451 147.45 432.701C146.502 432.1 145.433 431.718 144.32 431.581C144.071 431.204 143.726 430.9 143.32 430.701C142.327 430.552 141.342 430.352 140.37 430.101C140.19 429.681 141.79 430.181 140.13 429.101C138.76 428.771 141 430.301 138.87 429.451C137.77 428.451 138.27 428.451 136.65 427.901C136.55 427.601 136.9 427.701 137.54 427.901C136.12 427.391 134.1 425.971 133.22 425.901C132.15 424.801 128.96 423.171 129.48 422.691C128.201 422.232 126.992 421.596 125.89 420.801C128.4 421.651 121.83 417.631 122.99 417.271C121.04 416.711 117.67 413.171 114.99 411.181C115.255 411.289 115.494 411.453 115.69 411.661C114.876 410.769 114.128 409.82 113.45 408.821C112.81 409.121 110.68 407.151 109.33 406.261C108.22 404.171 110.84 406.751 110.77 405.821C110.48 406.261 107.68 403.291 107.89 404.151C107.02 402.581 107.03 402.891 106.83 401.861C106.03 402.161 105.65 400.741 104.32 399.971C103 397.771 104.48 398.971 102.51 396.971C101.9 395.961 103.7 397.671 103.7 397.671ZM63.07 344.871L63.96 345.941C63.77 345.711 63.51 345.411 63.07 344.871V344.871ZM59.5 340.501L61.05 342.401C61.05 342.651 60.79 342.591 60.44 342.151C60.72 342.321 59.94 341.241 59.5 340.501V340.501ZM64.4 351.771C63.82 351.101 63.71 350.771 63.71 350.661C63.98 350.981 64.28 351.361 64.71 351.861H64.82C64.6748 351.866 64.5305 351.835 64.4 351.771V351.771Z" fill="#20696A"/>
<path d="M65.8205 352.671C65.9005 352.761 65.9605 352.811 66.0605 352.941C65.9805 352.771 65.9105 352.611 65.8305 352.451L65.5205 352.291L65.8205 352.671Z" fill="#20696A"/>
<path d="M38.6602 312.58V312.67C38.6892 312.608 38.7226 312.548 38.7601 312.49C38.7001 312.58 38.6802 312.58 38.6602 312.58Z" fill="#20696A"/>
<path d="M0.559967 323.361L0.669952 323.321L0.459961 322.811L0.559967 323.361Z" fill="#20696A"/>
<path d="M16.3005 314.77C16.1852 314.863 16.09 314.979 16.0205 315.11C16.1269 315.008 16.2209 314.893 16.3005 314.77V314.77Z" fill="#20696A"/>
<path d="M12.7406 327.891C12.6106 328.521 12.4806 329.161 12.3906 329.791L12.7406 327.891Z" fill="#20696A"/>
<path d="M12.3301 338.34C12.3794 338.423 12.4526 338.489 12.5401 338.53L12.3301 338.34Z" fill="#20696A"/>
<path d="M43.1406 287.859L43.3106 288.229C43.7406 289.089 43.4706 288.499 43.1406 287.859Z" fill="#20696A"/>
<path d="M12.63 271.37C12.6564 270.83 12.7165 270.292 12.81 269.76C12.53 270.58 12.4 271.29 12.63 271.37Z" fill="#20696A"/>
<path d="M48.9407 272.359L48.9307 272.369L49.2407 272.599L48.9407 272.359Z" fill="#20696A"/>
<path d="M13.5105 267.58C13.174 268.28 12.9383 269.024 12.8105 269.79C13.0205 269.07 13.3205 268.26 13.5105 267.58Z" fill="#20696A"/>
<path d="M29.1006 379.68L29.3806 380.09C29.3806 380.09 29.3806 380.09 29.4706 380.09L29.1006 379.68Z" fill="#20696A"/>
<path d="M29.4707 380.09L29.8507 380.51C29.7494 380.349 29.6208 380.207 29.4707 380.09V380.09Z" fill="#20696A"/>
<path d="M30.6506 381.36L29.8506 380.51C30.059 380.843 30.3308 381.132 30.6506 381.36V381.36Z" fill="#20696A"/>
<path d="M21.7906 368.04L21.5605 367.98C21.5914 368.008 21.6283 368.028 21.6683 368.038C21.7083 368.049 21.7502 368.049 21.7906 368.04V368.04Z" fill="#20696A"/>
<path d="M19.79 364.359C20.2163 365.595 20.7517 366.789 21.39 367.929H21.56C21.02 367.579 20.45 365.089 19.79 364.359Z" fill="#20696A"/>
<path d="M15.7803 347.48C16.0103 348.59 16.2203 349.72 16.5103 350.82C16.5103 350.2 16.5103 349.39 17.0003 350.82C16.4003 346.58 16.8103 351.83 15.7803 347.48Z" fill="#20696A"/>
<path d="M14.5303 337.001C14.7203 338.811 14.7803 337.001 14.8903 337.051C14.6603 335.921 14.6003 335.631 14.5303 337.001Z" fill="#20696A"/>
<path d="M20 305.47L20.44 305.37C19.62 304.29 20.3 305.45 20 305.47Z" fill="#20696A"/>
<path d="M12.54 292.67L12.58 294.12L13.11 294.69L12.54 292.67Z" fill="#20696A"/>
<path d="M14.4005 283.661L14.5005 284.261L14.2305 281.961C14.2405 282.581 14.3005 283.091 14.4005 283.661Z" fill="#20696A"/>
<path d="M55.9703 286.579L56.1703 285.949C55.5603 285.159 54.9903 285.319 55.9703 286.579Z" fill="#20696A"/>
<path d="M56.4004 273.99L58.0104 272.59C57.6596 272.699 57.3354 272.88 57.0583 273.121C56.7811 273.362 56.5571 273.658 56.4004 273.99V273.99Z" fill="#20696A"/>
<path d="M11.1608 334.71L11.9808 335.47L10.5908 333.92L11.1608 334.71Z" fill="#20696A"/>
<path d="M243.73 173.33C243.497 173.259 243.272 173.162 243.06 173.04C234.78 165.7 224.67 165.87 214.36 167.59C198.82 170.2 186.5 177.49 177.26 189.09C174.33 192.77 171.06 196.25 168.26 200.01C166.999 201.658 166.221 203.625 166.01 205.69C165.45 216.6 165.41 227.54 164.73 238.45C163.91 251.45 162.73 264.39 161.53 277.35C159.9 295.2 151.94 310.87 140.87 325.41C139.589 326.866 138.111 328.139 136.48 329.19C135.725 329.554 134.914 329.791 134.08 329.89L133.69 329.38C135.02 327.55 136.41 325.76 137.69 323.89C147.29 309.67 155.54 294.94 157.13 277.98C158.37 264.87 159.48 251.74 160.32 238.61C161.07 226.7 160.95 214.75 161.95 202.87C163.82 180.69 170.5 159.66 183.35 140.61C192.74 126.68 206.14 117 224.35 113.89C227.481 113.288 230.709 113.418 233.781 114.269C236.853 115.121 239.687 116.672 242.06 118.8C247.31 123.2 252.8 127.28 256.99 132.59C264.66 142.32 265.25 153.06 259.83 163.28C254.272 173.958 245.079 182.296 233.91 186.79C223.51 191.05 212.45 193.22 201.45 195.63C198.486 196.274 195.564 197.099 192.7 198.1C191.683 198.379 190.774 198.958 190.092 199.763C189.411 200.568 188.988 201.56 188.88 202.61C186.77 220.01 188.4 236.98 195.39 253.46C202.26 269.66 214.03 282.27 229.39 292.46C231.93 294.14 234.57 294.71 237.2 293.12C240.531 291.238 243.678 289.048 246.6 286.58C256.84 277.45 263.47 266.22 269.02 254.36C275.834 239.547 279.65 223.533 280.25 207.24C280.89 193.96 277.84 181.55 268.72 170.73C267.76 169.487 266.963 168.126 266.35 166.68C266.26 166.404 266.245 166.109 266.309 165.825C266.372 165.542 266.511 165.281 266.71 165.07C267.011 164.984 267.326 164.961 267.635 165.003C267.945 165.044 268.243 165.149 268.51 165.31C269.18 165.761 269.771 166.318 270.26 166.96C278.575 176.66 283.181 188.994 283.26 201.77C283.406 213.817 281.803 225.823 278.5 237.41C277.99 239.28 278.05 240.46 279.79 241.97C281.557 243.663 282.95 245.706 283.88 247.97C287.97 256.91 288.88 266.42 289.94 275.97C291.32 288.636 292.86 301.303 294.56 313.97C294.95 316.91 296.34 319.73 297.28 322.6C297.49 323.22 297.73 323.84 297.95 324.46L297.38 324.82C296.596 324.14 295.86 323.405 295.18 322.62C292.02 318.39 291.18 313.45 290.62 308.62C289.23 296.69 288.12 284.73 287.04 272.77C286.3 264.62 285.17 256.54 282.22 248.77C281.082 246.174 279.807 243.641 278.4 241.18L277.55 241.39C277.34 241.85 277.1 242.31 276.9 242.78C274.12 249.22 271.44 255.7 268.52 262.1C267.519 264.165 267.101 266.464 267.31 268.75C267.89 275.25 268.58 281.81 268.31 288.3C267.59 302.469 270.831 316.559 277.67 328.99C283.36 339.57 291.46 347.99 304.2 351.99C304.93 352.185 305.627 352.485 306.27 352.88C306.965 353.429 307.617 354.031 308.22 354.68C307.394 355.156 306.496 355.494 305.56 355.68C300.386 355.78 295.317 354.205 291.11 351.19C282.11 345.07 275.96 337.01 271.55 327.68C264.89 313.58 263.16 298.96 264.67 283.82C265.14 279.13 264.74 274.37 264.74 269.33C264.22 270.08 263.8 270.61 263.46 271.18C259.122 278.314 253.727 284.751 247.46 290.27C244.619 292.63 241.527 294.672 238.24 296.36C234.51 298.42 230.77 297.88 227.24 295.54C218.762 290.053 211.082 283.42 204.42 275.83C203.85 275.15 203.29 274.48 202.7 273.83C202.61 273.74 202.4 273.74 201.92 273.62C202.92 279.27 203.78 284.81 204.92 290.31C206.85 299.46 207.42 308.46 202.86 317.21C199.209 324.303 194.423 330.751 188.69 336.3C187 337.92 185.28 339.52 183.44 341.01C182.572 341.548 181.642 341.982 180.67 342.3L180.12 341.89C180.197 341.27 180.379 340.668 180.66 340.11C182.48 337.497 184.443 334.986 186.54 332.59C191.307 327.569 195.405 321.952 198.73 315.88C202.91 308.16 202.53 300.13 201.47 291.93C200.56 284.83 200.14 277.68 199.47 270.56C199.425 269.716 199.186 268.895 198.77 268.16C192.959 259.151 188.773 249.194 186.4 238.74C186.264 238.306 186.101 237.882 185.91 237.47C183.649 240.572 182.204 244.193 181.71 248C180.93 253.41 180.44 258.86 180.09 264.3C179.31 276.3 179.27 288.47 177.84 300.45C176.76 311.217 173.551 321.663 168.4 331.18C167.113 333.461 165.495 335.54 163.6 337.35C164.86 334.63 166.19 331.94 167.38 329.19C174.48 312.96 177.33 296.01 177.71 278.65C177.93 268.49 177.87 258.32 179.99 248.29C180.86 244.19 182.24 240.24 185.21 236.89C185.416 236.622 185.566 236.316 185.652 235.99C185.737 235.664 185.757 235.324 185.71 234.99C184.293 226.342 184.114 217.537 185.18 208.84C183.89 210.9 182.93 212.45 181.97 214L181.05 213.85C180.79 212.973 180.619 212.071 180.54 211.16C180.6 201.35 186.69 194.38 197.15 191.93C206.86 189.65 216.66 187.58 226.23 184.86C237.23 181.73 245.87 175.41 253.01 167.16C259.89 159.16 260.12 143.37 253.93 135.29C248.78 128.56 242.93 122.48 235.58 117.84C233.58 116.54 230.19 116.32 227.58 116.53C217.86 117.32 209.48 121.28 202.05 126.76C194.9 132.04 188.43 137.95 184.66 145.81L183.85 147.43C184.9 147.05 185.57 146.83 186.22 146.57C202.63 139.9 219.04 139.19 235.52 146.44C241.52 149.08 247.52 151.66 251.37 156.93C252.288 158.399 253.084 159.941 253.75 161.54L252.87 161.97C252.435 161.379 251.957 160.821 251.44 160.3C248.78 157.95 246.44 155.1 243.34 153.39C224.84 143.13 205.59 141.58 185.59 149.88C182.59 151.11 180.59 152.59 179.25 155.36C173.28 168.094 169.164 181.618 167.03 195.52C167.03 195.82 167.03 196.13 167.03 197.04C167.88 196.04 168.41 195.42 168.92 194.8C174.84 187.46 180.5 179.8 188.92 174.57C201.58 166.57 215.46 162.57 231.08 164.76C235.656 165.335 239.872 167.535 242.96 170.96C243.474 171.587 243.936 172.256 244.34 172.96L243.73 173.33Z" fill="#534741"/>
<path d="M326.94 337.931C325.94 337.801 324.73 337.931 323.94 337.491C321.191 336.06 318.6 334.344 316.21 332.371C311.91 328.371 309.52 323.371 307.76 318.041C302.86 303.381 301.21 288.321 301.48 273.101C301.71 259.871 302.76 246.651 302.93 233.421C303.38 200.161 293.85 169.181 275.64 140.421C272.19 134.961 267.17 130.251 262.56 125.421C259.02 121.731 253.78 120.581 248.87 119.041C248.05 118.781 247.25 118.461 246.45 118.161L246.56 117.261C247.698 117.161 248.842 117.161 249.98 117.261C256.503 118.305 262.581 121.228 267.47 125.671C277.94 135.181 284.07 147.001 289.99 158.941C303.57 186.311 308.38 215.101 306.99 244.941C306.34 258.691 306.1 272.471 306.35 286.231C306.615 295.583 308.142 304.857 310.89 313.801C313.31 321.961 317.33 329.161 324.6 334.681C325.546 335.474 326.451 336.315 327.31 337.201L326.94 337.931Z" fill="#534741"/>
<path d="M142.591 209.821C144.446 207.913 146.728 206.473 149.25 205.621C151.771 204.769 154.459 204.529 157.091 204.921C155.276 206.878 152.979 208.326 150.431 209.121C147.922 210.026 145.221 210.267 142.591 209.821V209.821Z" fill="#534741"/>
<path d="M122.4 215.941C124.253 214.032 126.534 212.592 129.053 211.74C131.573 210.888 134.26 210.648 136.89 211.041C135.081 213 132.787 214.448 130.24 215.241C127.731 216.145 125.03 216.386 122.4 215.941V215.941Z" fill="#534741"/>
<path d="M140.83 213.029C142.947 215.52 144.609 218.363 145.74 221.429C146.974 224.453 147.651 227.675 147.74 230.939C145.273 228.705 143.391 225.9 142.26 222.769C141.004 219.686 140.513 216.344 140.83 213.029V213.029Z" fill="#534741"/>
<path d="M131.77 187.23C133.888 189.716 135.551 192.556 136.68 195.62C137.913 198.645 138.59 201.866 138.68 205.13C136.213 202.896 134.331 200.091 133.2 196.96C131.944 193.88 131.454 190.542 131.77 187.23Z" fill="#534741"/>
<path d="M323.681 155.78C325.504 153.833 327.797 152.386 330.341 151.58C332.849 150.668 335.552 150.431 338.181 150.89C336.327 152.8 334.044 154.24 331.522 155.09C329.001 155.94 326.312 156.177 323.681 155.78V155.78Z" fill="#534741"/>
<path d="M303.49 161.911C305.345 160.003 307.628 158.563 310.149 157.711C312.67 156.859 315.358 156.619 317.99 157.011C316.175 158.968 313.879 160.416 311.33 161.211C308.821 162.115 306.12 162.356 303.49 161.911V161.911Z" fill="#534741"/>
<path d="M321.92 159C324.044 161.485 325.707 164.33 326.83 167.4C328.064 170.424 328.742 173.645 328.83 176.91C326.363 174.676 324.482 171.87 323.35 168.74C322.095 165.656 321.604 162.314 321.92 159V159Z" fill="#534741"/>
<path d="M312.86 133.189C314.984 135.675 316.647 138.519 317.77 141.589C319.003 144.614 319.681 147.835 319.77 151.099C317.303 148.865 315.422 146.06 314.29 142.929C313.034 139.846 312.543 136.504 312.86 133.189V133.189Z" fill="#534741"/>
</svg>
