<svg width="333" height="141" viewBox="0 0 333 141" fill="none" xmlns="http://www.w3.org/2000/svg">
<path d="M61.16 23.072C61.0405 23.3109 60.9211 23.5199 60.8017 23.699C60.6822 23.8782 60.6225 24.0872 60.6225 24.3261C60.5031 24.2664 60.4135 24.2962 60.3538 24.4157C60.294 24.4754 60.2642 24.565 60.2642 24.6844C59.6073 24.8636 58.9205 25.0129 58.2039 25.1323C57.4872 25.192 56.9796 25.3115 56.681 25.4906C56.1436 25.2517 55.5762 25.2517 54.979 25.4906C54.4416 25.7295 53.9339 25.9087 53.4562 26.0281C53.3367 26.0281 53.3367 26.0281 53.4562 26.0281C53.5756 25.9684 53.6055 25.8489 53.5458 25.6698C53.486 25.6101 53.3367 25.6101 53.0979 25.6698C53.2173 25.5503 53.3367 25.5205 53.4562 25.5802C53.6353 25.6399 53.7249 25.6101 53.7249 25.4906C53.7249 25.3712 53.7249 25.3115 53.7249 25.3115C53.7846 25.3115 53.7846 25.2219 53.7249 25.0427C53.2472 25.1622 52.7694 25.2816 52.2917 25.401C51.8139 25.4608 51.3959 25.5503 51.0376 25.6698C51.0376 25.8489 51.0674 25.9087 51.1271 25.8489C51.2466 25.7295 51.3063 25.7892 51.3063 26.0281C51.5452 26.0281 51.6945 25.9684 51.7542 25.8489C51.8736 25.7295 51.9931 25.7295 52.1125 25.8489C51.8736 26.0281 51.5452 26.1177 51.1271 26.1177C50.7091 26.058 50.3508 25.9684 50.0522 25.8489C49.9327 26.0878 49.6939 26.2968 49.3356 26.476C48.9772 26.6551 48.6488 26.7447 48.3502 26.7447C48.4099 26.6253 48.6189 26.476 48.9772 26.2968C49.3356 26.058 49.5744 25.9982 49.6939 26.1177C49.7536 25.9982 49.6939 25.9684 49.5147 26.0281C49.3356 26.0281 49.1265 26.058 48.8877 26.1177C48.6488 26.1774 48.4099 26.2371 48.171 26.2968C47.9919 26.3566 47.9023 26.3267 47.9023 26.2073C47.7828 26.3267 47.6336 26.3864 47.4544 26.3864C47.335 26.4461 47.3051 26.4461 47.3648 26.3864C47.4245 26.267 47.3947 26.2073 47.2752 26.2073C46.9169 26.267 46.678 26.2968 46.5586 26.2968C46.4392 26.2371 46.3496 26.2073 46.2899 26.2073C46.2301 26.1475 46.1406 26.1475 46.0211 26.2073C45.9017 26.267 45.6927 26.3864 45.3941 26.5656C45.3344 26.4461 45.3344 26.3864 45.3941 26.3864C45.5135 26.3864 45.5732 26.3566 45.5732 26.2968C45.3344 26.2968 45.0955 26.3864 44.8566 26.5656C44.6177 26.685 44.4087 26.6551 44.2295 26.476C43.6921 26.6551 43.2143 26.685 42.7963 26.5656C42.3782 26.4461 41.8408 26.4461 41.1839 26.5656C40.2284 26.8642 39.2131 27.1329 38.1382 27.3718C37.1229 27.5509 36.1376 27.76 35.1821 27.9988C34.346 28.4766 33.5398 28.805 32.7634 28.9842C31.9871 29.1036 31.2107 29.3127 30.4344 29.6113C30.1955 29.8501 29.867 29.9696 29.449 29.9696C29.031 29.9696 28.6428 30.089 28.2845 30.3279C27.9859 31.164 27.6276 32 27.2095 32.8361C26.8512 33.6722 26.4929 34.5082 26.1346 35.3443C24.9402 38.8677 23.8653 41.7641 22.9097 44.0335C21.9542 46.3028 21.1182 48.5124 20.4015 50.6623C20.1627 51.3192 19.9536 51.7074 19.7745 51.8268C19.5953 52.424 19.3863 52.9914 19.1474 53.5288C18.9086 54.0066 18.6697 54.5441 18.4308 55.1413C19.2669 54.9621 20.1925 54.7531 21.2077 54.5142C22.223 54.2156 23.2083 53.917 24.1639 53.6184C24.2833 53.5587 24.3132 53.5886 24.2534 53.708C24.2534 53.7677 24.3132 53.7976 24.4326 53.7976C24.552 53.6781 24.6416 53.6184 24.7013 53.6184C24.761 53.5587 24.8506 53.4691 24.9701 53.3497C25.3284 53.4691 25.6867 53.4393 26.045 53.2601C26.4033 53.0212 26.7019 52.9914 26.9408 53.1705C26.8811 52.9317 26.9109 52.8719 27.0304 52.9914C27.2095 53.1108 27.3588 53.081 27.4783 52.9018C27.5977 52.8421 27.7172 52.8719 27.8366 52.9914C27.956 52.9317 28.0456 52.8421 28.1053 52.7226C28.165 52.6032 28.2546 52.6032 28.3741 52.7226C28.3143 52.6032 28.3442 52.5733 28.4636 52.6331C28.5831 52.6928 28.7025 52.6928 28.822 52.6331C28.9414 52.6331 28.9713 52.6032 28.9115 52.5435C28.9115 52.4838 28.9414 52.4539 29.0011 52.4539C29.0011 52.4539 29.0608 52.4838 29.1803 52.5435C29.5983 52.424 30.0462 52.3345 30.524 52.2747C31.0017 52.1553 31.4496 52.0359 31.8676 51.9164C31.9871 51.8567 32.1065 51.797 32.226 51.7373C32.3454 51.6775 32.4648 51.7074 32.5843 51.8268C32.7037 51.6477 32.8232 51.588 32.9426 51.6477C33.1218 51.6477 33.2711 51.588 33.3905 51.4685C34.4057 51.3491 35.4807 51.1699 36.6153 50.9311C37.75 50.6922 38.8847 50.5429 40.0193 50.4832C40.1388 50.4832 40.4374 50.4234 40.9151 50.304C40.9151 50.2443 40.8853 50.2144 40.8255 50.2144C40.8255 50.1547 40.8554 50.0651 40.9151 49.9457C40.9748 49.886 41.0047 49.886 41.0047 49.9457C41.0047 50.0054 41.0346 50.0054 41.0943 49.9457C41.2734 49.9457 41.3033 50.0651 41.1839 50.304C41.4227 50.304 41.572 50.3637 41.6318 50.4832C41.6915 50.6026 41.7213 50.7519 41.7213 50.9311C41.7811 51.0505 41.8408 51.1998 41.9005 51.379C41.9602 51.5581 42.0797 51.7074 42.2588 51.8268C42.2588 51.9463 42.1991 52.0657 42.0797 52.1852C41.9602 52.3046 41.8408 52.3643 41.7213 52.3643C41.8408 52.4838 41.9901 52.5435 42.1692 52.5435C42.3484 52.4838 42.4977 52.5136 42.6171 52.6331C42.4977 52.7525 42.3484 52.7525 42.1692 52.6331C42.0498 52.5136 41.9304 52.6032 41.8109 52.9018C41.8706 53.1407 42.1095 53.2601 42.5275 53.2601C42.5275 53.3795 42.4977 53.4393 42.438 53.4393C42.3782 53.3795 42.3185 53.4094 42.2588 53.5288C42.438 53.6483 42.5873 53.7976 42.7067 53.9767C42.8261 54.0962 42.9754 54.2156 43.1546 54.3351C43.0949 54.4545 43.0352 54.5142 42.9754 54.5142C42.9754 54.4545 43.0352 54.4844 43.1546 54.6038C43.1546 54.7232 43.0949 54.783 42.9754 54.783C42.9157 54.7232 42.856 54.7531 42.7963 54.8725C42.7963 54.992 42.8261 55.1114 42.8859 55.2308C42.9456 55.2906 42.9456 55.41 42.8859 55.5892C42.4678 55.5294 41.5422 55.5892 40.1089 55.7683C38.6756 55.9475 37.0931 56.1864 35.3612 56.485C33.6891 56.7238 32.0468 57.0224 30.4344 57.3807C28.8817 57.7391 27.747 58.0675 27.0304 58.3661C27.0304 58.3661 26.7318 58.4258 26.1346 58.5453C25.5971 58.605 24.9999 58.6946 24.343 58.814C23.7458 58.9334 23.1785 59.0529 22.641 59.1723C22.1035 59.232 21.8348 59.2619 21.8348 59.2619L19.7745 59.889L19.0578 60.0681C18.819 60.1278 18.61 60.2174 18.4308 60.3369C18.2516 60.3369 18.0426 60.3966 17.8037 60.516C17.6246 60.5757 17.5051 60.516 17.4454 60.3369C17.3857 60.3369 17.326 60.3966 17.2663 60.516C17.2066 60.5757 17.117 60.5757 16.9975 60.516C17.117 60.3966 17.2066 60.3369 17.2663 60.3369C17.326 60.3369 17.3857 60.2771 17.4454 60.1577C17.1468 60.098 16.9378 60.1278 16.8184 60.2473C16.7587 60.307 16.6094 60.3369 16.3705 60.3369C16.251 60.4563 16.0122 60.5459 15.6538 60.6056C15.3553 60.6653 15.1761 60.8146 15.1164 61.0535C14.9969 61.1729 14.9372 61.3222 14.9372 61.5014C14.9969 61.6208 14.9671 61.7403 14.8476 61.8597C14.7282 62.218 14.6088 62.5465 14.4893 62.8451C14.4296 63.1437 14.3997 63.5318 14.3997 64.0096C14.2803 64.3082 14.1011 64.6665 13.8623 65.0845C13.6234 65.4429 13.4442 65.8609 13.3248 66.3386L12.6977 69.026C12.4589 69.5635 12.22 70.0711 11.9811 70.5489C11.7422 70.9669 11.5631 71.4148 11.4436 71.8925C11.2645 71.9523 11.145 72.0717 11.0853 72.2509C11.0853 72.3703 10.9957 72.43 10.8166 72.43C10.8763 72.5495 10.936 72.639 10.9957 72.6988C11.0555 72.7585 11.1152 72.848 11.1749 72.9675H11.0853C11.0853 73.2661 11.1152 73.5348 11.1749 73.7737L10.6374 75.834C10.5777 76.2521 10.4881 76.6701 10.3687 77.0881C10.309 77.4464 10.1298 77.745 9.83121 77.9839C9.59233 78.8797 9.41318 79.7158 9.29374 80.4921C9.1743 81.2088 8.84584 81.8358 8.30837 82.3733C8.00977 83.8663 7.71118 85.2398 7.41258 86.4939C7.1737 87.748 6.8751 89.241 6.51679 90.9729C6.33763 90.9729 6.30777 90.8833 6.42721 90.7041C6.54665 90.5847 6.51679 90.525 6.33763 90.525C6.21819 90.525 6.15847 90.5847 6.15847 90.7041C6.15847 90.8236 6.09875 90.943 5.97931 91.0624C5.97931 90.7638 6.00917 90.525 6.06889 90.3458C6.18833 90.1667 6.24805 89.9278 6.24805 89.6292C6.12861 89.6889 6.06889 89.7785 6.06889 89.8979C6.12861 90.0174 6.09875 90.0472 5.97931 89.9875C6.03903 89.45 6.09875 88.9723 6.15847 88.5542C6.21819 88.1959 6.30777 87.8675 6.42721 87.5689H6.24805C6.24805 87.4494 6.27791 87.3897 6.33763 87.3897C6.45707 87.4494 6.51679 87.4196 6.51679 87.3001C6.45707 87.1807 6.45707 87.0015 6.51679 86.7627C6.63623 86.5238 6.75567 86.4043 6.8751 86.4043C6.8751 86.2849 6.81539 86.2252 6.69595 86.2252C6.57651 86.2849 6.51679 86.2849 6.51679 86.2252C6.63623 85.9863 6.72581 85.8967 6.78553 85.9564C6.84525 86.0759 6.93482 86.046 7.05426 85.8669C7.1737 85.9863 7.14384 86.1655 6.96468 86.4043C6.84524 86.6432 6.81539 86.8522 6.8751 87.0314C7.05426 86.912 7.1737 86.6432 7.23342 86.2252C7.35286 85.8669 7.4723 85.5086 7.59174 85.1502C7.4723 85.2697 7.38272 85.3592 7.323 85.419C7.323 85.5384 7.29314 85.6578 7.23342 85.7773C7.35286 85.1204 7.50216 84.4037 7.68132 83.6274C7.92019 82.9108 8.06949 82.1941 8.12921 81.4775C7.95005 81.7761 7.80075 82.1045 7.68132 82.4629C7.6216 82.8212 7.56188 83.1496 7.50216 83.4482C7.38272 83.7468 7.29314 84.1051 7.23342 84.5232C7.23342 84.9412 7.1737 85.2995 7.05426 85.5981C7.11398 85.3592 7.08412 85.2697 6.96468 85.3294C6.84524 85.3891 6.84524 85.2697 6.96468 84.9711C7.0244 84.9711 7.0244 85.0009 6.96468 85.0607C6.96468 85.1204 6.99454 85.1502 7.05426 85.1502C7.05426 85.0308 6.99454 84.8815 6.8751 84.7023C6.81539 84.5232 6.84524 84.2843 6.96468 83.9857C7.08412 84.2246 7.14384 84.2544 7.14384 84.0753C7.14384 83.9558 7.14384 83.8364 7.14384 83.717C7.08412 83.6572 7.0244 83.6572 6.96468 83.717L7.41258 81.5671C6.93482 82.7615 6.57651 83.8663 6.33763 84.8815C6.15847 85.9564 6.03903 87.0613 5.97931 88.1959C5.9196 88.1959 5.88974 88.1661 5.88974 88.1063C5.88974 88.823 5.80016 89.5695 5.621 90.3458C5.44184 91.1819 5.29254 91.9881 5.1731 92.7644C4.99395 92.5853 4.78493 92.4957 4.54605 92.4957C4.30717 92.5554 4.24745 92.7047 4.36689 92.9436C4.0683 93.063 3.68012 93.1825 3.20237 93.3019C2.78433 93.4214 2.48573 93.6005 2.30658 93.8394C1.94826 93.6005 1.7691 93.5109 1.7691 93.5707C1.7691 93.6304 1.64966 93.5109 1.41079 93.2123C1.4705 92.9735 1.4705 92.8839 1.41079 92.9436C1.35107 93.063 1.29135 93.0929 1.23163 93.0332C1.29135 92.9137 1.23163 92.8242 1.05247 92.7644C0.933031 92.7047 0.933031 92.645 1.05247 92.5853C1.23163 89.4202 1.73924 86.3148 2.57531 83.2691C3.41138 80.2831 4.24745 77.3867 5.08352 74.5799C5.08352 74.2813 5.14324 73.9827 5.26268 73.6841C5.38212 73.3258 5.4717 72.9973 5.53142 72.6988L8.39795 62.3076C7.86047 62.427 7.38272 62.3972 6.96468 62.218C6.54665 61.9791 6.18833 61.6805 5.88974 61.3222C6.00917 60.8445 6.00917 60.516 5.88974 60.3369C5.83002 60.1577 5.65086 59.9785 5.35226 59.7994C5.35226 59.0827 5.50156 58.6349 5.80016 58.4557C6.15847 58.2765 6.48693 58.0377 6.78553 57.7391C7.08412 57.7391 7.44244 57.7689 7.86047 57.8286C8.27851 57.8286 8.69654 57.8286 9.11458 57.8286C9.23402 57.8884 9.23402 57.9182 9.11458 57.9182C9.05486 57.9182 9.025 57.9779 9.025 58.0974C9.3236 58.1571 9.59233 58.1571 9.83121 58.0974C10.1298 57.9779 10.4284 57.8884 10.727 57.8286C12.4589 53.4094 14.1609 49.1096 15.833 44.9293C17.5649 40.6892 19.2967 36.3297 21.0286 31.8507C20.2522 32.0299 19.446 32.209 18.61 32.3882C17.7739 32.5076 17.2065 32.1493 16.908 31.3133C16.5496 30.7758 16.3406 30.298 16.2809 29.88C15.9226 29.8203 15.5941 29.6411 15.2955 29.3425C14.9969 29.0439 15.0865 28.6557 15.5643 28.178C15.6837 28.2974 15.7434 28.3273 15.7434 28.2676C15.8031 28.2078 15.8927 28.178 16.0122 28.178C16.0719 27.9391 16.1913 27.7898 16.3705 27.7301C17.0274 27.969 17.6246 27.9391 18.1621 27.6405C18.7593 27.3419 19.4162 27.103 20.1328 26.9239C20.4911 26.8044 20.8196 26.7447 21.1182 26.7447C21.4765 26.7447 21.8348 26.685 22.1931 26.5656C23.1486 26.267 23.925 25.9385 24.5222 25.5802C25.1791 25.2219 25.9554 24.9233 26.8512 24.6844C27.8665 24.3858 28.8518 24.2664 29.8073 24.3261C30.7628 24.3858 31.7482 24.2962 32.7634 24.0574C33.4801 24.0574 34.1967 23.9081 34.9133 23.6095C35.63 23.3109 36.3167 23.1018 36.9736 22.9824C37.1528 23.1018 37.332 23.1317 37.5111 23.072C37.75 22.9525 38.0187 22.8928 38.3173 22.8928C38.4368 22.8928 38.4666 22.863 38.4069 22.8033C38.3472 22.6838 38.3771 22.6241 38.4965 22.6241C38.6159 22.6241 38.6757 22.654 38.6757 22.7137C38.7354 22.7137 38.8249 22.7137 38.9444 22.7137C39.0041 22.654 39.1833 22.6241 39.4819 22.6241C41.3929 22.2061 43.6025 21.9373 46.1107 21.8179C48.6189 21.6387 51.0376 21.579 53.3666 21.6387C54.3221 21.3998 55.2179 21.3401 56.054 21.4596C56.89 21.5193 57.8157 21.5193 58.8309 21.4596C58.9504 21.4596 59.0399 21.4297 59.0997 21.37C59.9955 21.3103 60.5628 21.3103 60.8017 21.37C61.1003 21.4297 61.2197 21.5193 61.16 21.6387C61.16 21.7582 61.1003 21.9373 60.9808 22.1762C60.8614 22.3554 60.8315 22.5644 60.8912 22.8033C61.0107 23.0421 61.1003 23.1317 61.16 23.072ZM7.323 76.0132C7.26328 76.4312 7.14384 76.909 6.96468 77.4464C6.78553 77.9839 6.60637 78.4915 6.42721 78.9693C6.24805 79.9248 6.09875 80.8803 5.97931 81.8358C5.85988 82.851 5.74044 83.8065 5.621 84.7023C5.9196 83.1496 6.21819 81.7164 6.51679 80.4025C6.8751 79.0887 7.26328 77.7152 7.68132 76.2819C7.56188 76.2819 7.4723 76.4014 7.41258 76.6402C7.41258 76.8194 7.35286 76.909 7.23342 76.909C7.29314 76.2521 7.59174 75.6549 8.12921 75.1174C7.77089 76.3715 7.4723 77.5957 7.23342 78.7901C7.05426 79.9845 6.81539 81.1789 6.51679 82.3733C6.75567 82.0747 6.8751 81.7761 6.8751 81.4775C6.93482 81.2386 7.0244 80.9699 7.14384 80.6713C7.14384 80.4324 7.1737 80.2234 7.23342 80.0442C7.23342 80.1039 7.29314 80.1338 7.41258 80.1338H7.59174C7.4723 80.2532 7.44244 80.4324 7.50216 80.6713C7.56188 80.9102 7.56188 81.0893 7.50216 81.2088L8.66669 76.3715L8.75626 76.2819C8.57711 76.1625 8.60697 75.8937 8.84584 75.4757C9.08472 75.0577 9.1743 74.6994 9.11458 74.4008C8.81598 75.2965 8.51739 76.1625 8.21879 76.9985C7.92019 77.7749 7.6216 78.5811 7.323 79.4172L8.21879 74.9382C8.33823 74.9382 8.36809 74.8785 8.30837 74.7591C8.30837 74.6396 8.36809 74.6098 8.48753 74.6695C8.60697 74.132 8.84584 73.5945 9.20416 73.0571C9.26388 72.6988 9.26388 72.3404 9.20416 71.9821C9.20416 71.6238 9.29374 71.3849 9.4729 71.2655C9.4729 71.2058 9.41318 71.1162 9.29374 70.9968L9.025 71.4446C9.08472 71.7432 9.025 72.1911 8.84584 72.7883C8.7264 73.3258 8.60697 73.714 8.48753 73.9529C8.36809 73.8931 8.33823 73.7737 8.39795 73.5945C8.45767 73.3557 8.51739 73.2661 8.57711 73.3258C8.69654 72.7286 8.84584 72.1016 9.025 71.4446C9.20416 70.7877 9.35346 70.1905 9.4729 69.6531C9.35346 69.7128 9.26388 69.7426 9.20416 69.7426C9.14444 69.7426 9.1743 69.7128 9.29374 69.6531C9.4729 69.4142 9.53262 69.235 9.4729 69.1156C9.4729 68.9962 9.53262 68.8469 9.65205 68.6677C9.65205 68.4885 9.68191 68.3094 9.74163 68.1302C9.80135 67.9511 9.83121 67.7719 9.83121 67.5927C9.65205 67.9511 9.4729 68.3691 9.29374 68.8469C9.1743 69.2649 8.96528 69.6232 8.66669 69.9218C9.26388 68.608 9.83121 67.2643 10.3687 65.8907C10.9659 64.5172 11.4436 62.9645 11.8019 61.2326C11.5631 61.3521 11.4138 61.5611 11.3541 61.8597C11.3541 62.0986 11.2645 62.3673 11.0853 62.6659C10.9659 62.9645 10.8464 63.2631 10.727 63.5617C10.6673 63.8603 10.5777 64.1589 10.4583 64.4575C10.1597 65.413 9.86107 66.3685 9.56247 67.324C9.26388 68.2795 8.8757 69.1753 8.39795 70.0114C8.27851 70.9669 8.03963 71.6238 7.68132 71.9821C7.56188 73.2959 7.38272 74.4306 7.14384 75.3861C7.0244 75.5056 6.90496 75.6847 6.78553 75.9236C6.66609 76.1028 6.69595 76.1923 6.8751 76.1923C6.63623 76.6104 6.42721 77.118 6.24805 77.7152C6.12861 78.3124 6.00917 78.8797 5.88974 79.4172C6.48693 78.2825 6.90496 77.0583 7.14384 75.7444C7.38272 74.4306 7.74104 73.1765 8.21879 71.9821L7.323 76.0132ZM9.4729 72.7883C9.77149 71.8328 10.0999 70.8773 10.4583 69.9218C10.8166 68.9663 11.145 67.9511 11.4436 66.8761C11.0256 67.7122 10.6076 68.6677 10.1895 69.7426C9.83121 70.8176 9.59233 71.8328 9.4729 72.7883ZM22.1931 56.5745C23.5069 56.1565 24.4027 55.8579 24.8805 55.6787C25.3582 55.4996 25.4478 55.4399 25.1492 55.4996C24.9103 55.5593 24.343 55.7086 23.4472 55.9475C22.5514 56.1266 21.4168 56.4252 20.0432 56.8433C20.3418 56.8433 20.6703 56.7836 21.0286 56.6641C21.4466 56.485 21.8348 56.4551 22.1931 56.5745ZM45.6628 25.1323C45.6628 25.192 45.5732 25.3115 45.3941 25.4906C45.2746 25.6101 45.1851 25.6996 45.1253 25.7594C45.5434 25.5802 46.0808 25.401 46.7378 25.2219C47.4544 24.983 47.9321 24.7441 48.171 24.5053L45.6628 25.1323ZM9.83121 69.1156C9.71177 69.4142 9.62219 69.7426 9.56247 70.101C9.50276 70.3996 9.41318 70.6982 9.29374 70.9968C9.53262 70.7579 9.68191 70.4891 9.74163 70.1905C9.80135 69.8919 9.89093 69.5933 10.0104 69.2947C10.0701 69.1156 10.2194 68.8469 10.4583 68.4885C10.4583 68.3691 10.4284 68.3094 10.3687 68.3094C10.3687 68.3094 10.3687 68.2795 10.3687 68.2198V68.1302L9.83121 69.1156ZM40.2881 26.5656C40.5867 26.3267 40.945 26.2371 41.363 26.2968C41.7811 26.2968 42.0797 26.1475 42.2588 25.8489C41.7811 25.9684 41.3332 26.1177 40.9151 26.2968C40.5568 26.4163 40.2284 26.3864 39.9298 26.2073C39.9298 26.267 39.8999 26.2968 39.8402 26.2968C39.8402 26.2371 39.8402 26.267 39.8402 26.3864C39.8999 26.5058 39.9596 26.5656 40.0193 26.5656C40.0791 26.5058 40.1686 26.5058 40.2881 26.5656ZM11.8915 63.293C11.7721 63.5916 11.6527 63.9499 11.5332 64.3679C11.4735 64.7262 11.3839 65.1144 11.2645 65.5324C11.3839 65.1741 11.5034 64.8158 11.6228 64.4575C11.802 64.0992 11.8915 63.711 11.8915 63.293ZM37.5111 51.8268C37.4514 51.6477 37.5111 51.6178 37.6903 51.7373C37.9292 51.797 38.0486 51.7074 38.0486 51.4685H37.4215C37.4215 51.7074 37.4514 51.8268 37.5111 51.8268ZM36.3466 51.8268C36.2272 51.8268 36.048 51.8567 35.8091 51.9164C35.5702 51.9761 35.3911 52.0657 35.2716 52.1852C35.3911 52.1254 35.5404 52.0956 35.7195 52.0956C35.9584 52.0956 36.1674 52.006 36.3466 51.8268ZM10.4583 67.5927L10.9062 66.697V66.3386L10.6374 66.7865L10.4583 67.5927ZM37.332 51.6477C36.8542 51.7671 36.5855 51.8866 36.5258 52.006C36.6452 51.8866 36.7945 51.8567 36.9736 51.9164C37.2125 51.9761 37.332 51.8866 37.332 51.6477ZM6.78553 85.8669C6.60637 85.8669 6.57651 85.8071 6.69595 85.6877C6.81539 85.5683 6.93482 85.5384 7.05426 85.5981L6.78553 85.8669ZM5.88974 81.2983C5.88974 81.2386 5.9196 81.2088 5.97931 81.2088C6.03903 81.2088 6.06889 81.149 6.06889 81.0296C6.00917 81.0296 6.00917 80.9997 6.06889 80.94C5.94946 80.8803 5.85988 80.9102 5.80016 81.0296C5.80016 81.2088 5.83002 81.2983 5.88974 81.2983ZM13.2352 61.591C13.2352 61.2924 13.1755 61.1729 13.0561 61.2326C13.1158 61.2924 13.1158 61.4118 13.0561 61.591H13.2352ZM8.12921 81.1192C8.30837 81.0595 8.39795 80.8803 8.39795 80.5817L8.12921 81.1192ZM7.14384 79.9547C7.14384 79.9547 7.20356 79.8352 7.323 79.5963C7.26328 79.7158 7.23342 79.8651 7.23342 80.0442C7.1737 80.0442 7.14384 80.0144 7.14384 79.9547ZM5.97931 80.4921C5.74044 80.3727 5.74044 80.4324 5.97931 80.6713C6.09875 80.6713 6.09875 80.6116 5.97931 80.4921ZM28.4636 53.3497C28.3442 53.4094 28.2845 53.4094 28.2845 53.3497C28.2845 53.29 28.2248 53.3198 28.1053 53.4393C28.3442 53.4393 28.4636 53.4094 28.4636 53.3497ZM11.2645 73.5945C11.2645 73.4154 11.3242 73.2959 11.4436 73.2362L11.2645 73.5945ZM7.41258 81.2983C7.4723 81.2983 7.44244 81.3282 7.323 81.3879C7.26328 81.4476 7.29314 81.4775 7.41258 81.4775C7.41258 81.4178 7.41258 81.3581 7.41258 81.2983C7.4723 81.2983 7.50216 81.2685 7.50216 81.2088L7.41258 81.2983ZM11.1749 73.7737C11.1749 73.714 11.2048 73.6841 11.2645 73.6841L11.1749 73.7737Z" fill="#016C55"/>
<path d="M85.361 71.6238C85.0624 71.5641 84.7937 71.7134 84.5548 72.0717C84.3159 72.3703 84.077 72.6689 83.8382 72.9675C83.8382 72.9078 83.868 72.8182 83.9277 72.6988C83.45 73.0571 83.0021 73.4452 82.5841 73.8633C82.166 74.2216 81.7181 74.6396 81.2404 75.1174H81.0612V75.0278C80.9418 75.1472 80.7925 75.2965 80.6133 75.4757C80.4939 75.6549 80.3446 75.6847 80.1654 75.5653C79.8668 75.7444 79.628 75.9535 79.4488 76.1923C79.3294 76.4312 79.1502 76.5805 78.9113 76.6402C78.6127 76.9388 78.3738 77.1777 78.1947 77.3569C78.0155 77.4763 77.7468 77.6853 77.3885 77.9839C77.3885 77.9242 77.3288 77.8943 77.2093 77.8943C77.0302 78.1332 76.642 78.3124 76.0448 78.4318C75.3879 78.7901 74.7907 79.1783 74.2532 79.5963C73.7755 79.9546 73.2678 80.1338 72.7304 80.1338C72.1929 80.1935 71.8047 80.2532 71.5658 80.313C71.327 80.3727 71.0582 80.3727 70.7596 80.313C70.2819 80.313 69.6847 80.4324 68.968 80.6713C68.2514 80.9699 67.6542 81.0296 67.1765 80.8504C67.057 80.5518 66.848 80.3428 66.5494 80.2234C66.2508 80.0442 65.9522 79.8949 65.6536 79.7755C65.4147 79.6561 65.2356 79.3873 65.1162 78.9693C64.4592 78.5512 63.9815 77.9541 63.6829 77.1777C63.3843 76.3416 63.2051 75.416 63.1454 74.4008C63.1454 73.3258 63.235 72.221 63.4142 71.0863C63.5933 69.9517 63.8322 68.8469 64.1308 67.7719C63.2947 68.4288 62.4885 69.235 61.7121 70.1905C60.9358 71.0863 60.1594 71.9523 59.3831 72.7883C59.0845 73.3258 58.756 73.7737 58.3977 74.132C58.0394 74.4903 57.6811 74.8188 57.3228 75.1174C56.3075 76.3118 55.352 77.3569 54.4562 78.2526C54.4562 78.3124 54.4264 78.3721 54.3667 78.4318C54.3667 78.4318 54.3368 78.4915 54.2771 78.611C53.7993 78.9693 53.2619 79.3873 52.6647 79.8651C52.0675 80.3428 51.4404 80.731 50.7835 81.0296C50.1863 81.3879 49.5294 81.5969 48.8128 81.6567C48.1559 81.7164 47.4691 81.4775 46.7525 80.94C46.3344 80.8803 46.0358 80.7609 45.8567 80.5817C45.7372 80.3428 45.5282 80.1338 45.2296 79.9547C44.5727 79.6561 44.1845 79.2977 44.0651 78.8797C43.8859 78.4617 43.7665 77.8346 43.7068 76.9985C43.647 76.5805 43.7068 76.043 43.8859 75.3861C44.0054 74.7292 44.1845 74.1619 44.4234 73.6841C44.722 72.5495 45.1699 71.5044 45.7671 70.5489C46.3643 69.5336 46.9316 68.608 47.4691 67.7719C48.4843 66.3984 49.4995 65.1443 50.5148 64.0096C51.5897 62.8152 52.6945 61.6507 53.8292 60.516C54.1875 60.3368 54.5458 60.098 54.9041 59.7994C55.3222 59.5008 55.7701 59.2619 56.2478 59.0827C56.5464 59.2022 56.8749 59.1425 57.2332 58.9036C57.5915 58.605 57.8901 58.6647 58.129 59.0827C59.3831 59.2022 60.4879 59.5008 61.4434 59.9785C62.3989 60.4563 63.0558 61.2326 63.4142 62.3076C63.8322 62.009 64.2204 61.7403 64.5787 61.5014C64.937 61.2625 65.3252 61.0833 65.7432 60.9639C65.9224 60.9042 66.0717 60.7847 66.1911 60.6056C66.3105 60.4264 66.43 60.3369 66.5494 60.3369C67.1466 60.2174 67.6841 60.3369 68.1618 60.6952C68.6993 61.0535 69.2069 61.3521 69.6847 61.591C69.7444 61.5312 69.8041 61.5312 69.8638 61.591C69.9833 61.591 70.1326 61.5611 70.3117 61.5014C70.4312 61.6805 70.5207 61.8298 70.5805 61.9493C70.6402 62.009 70.6999 62.1284 70.7596 62.3076C70.8791 63.3825 70.7298 64.5471 70.3117 65.8012C69.9534 67.0553 69.5354 68.1004 69.0576 68.9364C68.8188 70.31 68.4903 71.803 68.0723 73.4154C67.6542 75.0278 67.6244 76.4312 67.9827 77.6256C70.0729 77.3867 71.8047 76.8791 73.1783 76.1028C74.6115 75.2667 76.0448 74.4605 77.4781 73.6841C78.0155 73.2661 78.4933 72.9078 78.9113 72.6092C79.3891 72.3106 79.837 71.9224 80.255 71.4446C80.3147 71.4446 80.3744 71.4745 80.4342 71.5342V71.6238C80.7328 71.6238 81.33 71.2655 82.2257 70.5489C83.1215 69.7725 84.0173 68.9962 84.9131 68.2198C85.8686 67.3837 86.7345 66.6671 87.5109 66.0699C88.347 65.4727 88.8247 65.2637 88.9442 65.4429C89.0636 65.5623 89.2129 65.5922 89.3921 65.5324C89.5712 65.413 89.7205 65.3831 89.84 65.4429C89.8997 65.5623 89.8997 65.6519 89.84 65.7116C89.84 65.7713 89.8698 65.831 89.9295 65.8907V65.7116C89.9893 65.7116 89.9893 65.8012 89.9295 65.9803C89.8698 66.0998 89.8101 66.2491 89.7504 66.4282C89.6907 66.5477 89.6309 66.6372 89.5712 66.697C89.5115 66.7567 89.5115 66.697 89.5712 66.5178C89.4518 66.6372 89.3025 66.7865 89.1233 66.9657C89.0039 67.0851 88.8844 67.2046 88.765 67.324C88.6456 67.6226 88.556 67.8316 88.4963 67.9511C88.4963 68.0705 88.4366 68.2795 88.3171 68.5781C88.138 68.5781 88.0185 68.5483 87.9588 68.4885C87.8394 68.7871 87.6602 68.9962 87.4213 69.1156C87.2422 69.235 87.0929 69.4739 86.9734 69.8322C86.854 69.8322 86.7345 69.9815 86.6151 70.2801L85.361 71.6238ZM60.9059 63.92C60.7865 63.1437 60.5476 62.4867 60.1893 61.9493C59.8907 61.4118 59.3234 61.3521 58.4873 61.7701L57.054 63.3825C56.9346 63.5617 56.7853 63.711 56.6061 63.8304C56.427 63.8902 56.2777 63.9797 56.1582 64.0992C56.0388 64.2186 55.9194 64.3978 55.7999 64.6366C55.6805 64.8158 55.5312 65.0248 55.352 65.2637L54.0979 66.697C53.441 67.533 52.7841 68.4885 52.1272 69.5635C51.53 70.5787 50.9925 71.5641 50.5148 72.5196C50.3953 72.8182 50.246 73.0869 50.0669 73.3258C49.8877 73.5647 49.7384 73.923 49.619 74.4008C49.4995 74.341 49.4398 74.3709 49.4398 74.4903C49.4398 74.5501 49.41 74.5501 49.3502 74.4903C49.2308 75.1472 49.0218 75.7146 48.7232 76.1923C48.4246 76.6104 48.2753 77.1777 48.2753 77.8943C48.7531 77.5957 49.2607 77.2971 49.7981 76.9985C50.3356 76.6999 50.7835 76.3715 51.1418 76.0132C52.8737 74.341 54.516 72.6092 56.0687 70.8176C57.6811 68.9663 59.2637 67.0851 60.8164 65.1741C60.9955 65.0547 61.1448 64.9054 61.2643 64.7262C61.3837 64.4873 61.533 64.338 61.7121 64.2783V64.0992C61.5927 63.9797 61.324 63.92 60.9059 63.92Z" fill="#016C55"/>
<path d="M108.709 75.5653C108.231 75.625 107.813 75.834 107.455 76.1923C107.097 76.5507 106.678 76.8194 106.201 76.9985C106.141 77.0583 106.141 77.1478 106.201 77.2673C105.783 77.2673 105.574 77.2673 105.574 77.2673C105.514 77.2076 105.454 77.1777 105.395 77.1777C105.215 77.1777 105.156 77.2374 105.215 77.3569C105.275 77.4166 105.245 77.5062 105.126 77.6256C104.648 77.745 104.29 77.9242 104.051 78.1631C103.872 78.3422 103.454 78.4318 102.797 78.4318C102.797 78.5512 102.767 78.6408 102.707 78.7005C102.409 78.7005 102.14 78.8797 101.901 79.238C101.423 79.238 100.975 79.447 100.557 79.8651C99.6017 79.9845 98.7955 80.313 98.1386 80.8504C97.5414 81.3879 96.7053 81.7164 95.6304 81.8358C95.3915 81.8358 95.2721 81.8657 95.2721 81.9254C94.0777 82.1045 92.8534 82.1643 91.5993 82.1045C90.4049 82.1045 89.1807 81.8955 87.9266 81.4775C87.4488 81.3581 86.9711 81.1789 86.4933 80.94C86.0753 80.7011 85.6573 80.4623 85.2392 80.2234C84.5823 79.9845 84.0448 79.4769 83.6268 78.7005C83.1491 77.9242 82.8206 77.1777 82.6414 76.4611C82.4026 75.625 82.3428 74.5799 82.4623 73.3258C82.522 72.0717 82.731 70.937 83.0893 69.9218C83.2685 69.2052 83.5372 68.5483 83.8955 67.9511C84.2539 67.3539 84.5823 66.7268 84.8809 66.0699C85.2392 65.8907 85.5677 65.413 85.8663 64.6366C85.8663 64.6366 85.926 64.6068 86.0454 64.5471C86.8815 63.3527 87.7176 62.3076 88.5537 61.4118C89.3897 60.4563 90.4049 59.5605 91.5993 58.7244C91.5993 58.605 91.6292 58.5453 91.6889 58.5453C91.8084 58.5453 91.8681 58.5154 91.8681 58.4557C92.2264 58.1571 92.6146 57.9481 93.0326 57.8286C93.4506 57.6495 93.8985 57.4106 94.3763 57.112C94.6749 56.9328 94.9436 56.7238 95.1825 56.485C95.4214 56.2461 95.7797 56.1565 96.2574 56.2162C96.556 56.2759 96.8248 56.4252 97.0637 56.6641C97.3623 56.8433 97.6609 56.9627 97.9594 57.0224C98.1386 57.1419 98.2879 57.1717 98.4073 57.112C98.5865 57.0523 98.7358 57.0224 98.8552 57.0224C98.9747 57.1419 99.0941 57.2912 99.2136 57.4703C99.333 57.5898 99.542 57.6495 99.8406 57.6495C100.139 58.1272 100.498 58.6946 100.916 59.3515C101.334 59.9487 101.543 60.6653 101.543 61.5014C101.244 61.9791 101.154 62.6062 101.274 63.3825C100.975 63.8006 100.736 64.338 100.557 64.995C100.378 65.5921 100.169 66.0998 99.9302 66.5178C99.8107 66.5775 99.7212 66.6074 99.6614 66.6074C99.6017 66.5477 99.5121 66.5477 99.3927 66.6074C99.2733 66.6074 99.1837 66.5775 99.124 66.5178C99.124 66.3984 99.0941 66.3386 99.0344 66.3386C99.0344 66.5178 99.0344 66.6074 99.0344 66.6074C98.915 66.5477 98.7955 66.3984 98.6761 66.1595C98.3775 66.2789 97.9296 66.0699 97.3324 65.5324C96.7949 64.9352 96.5262 64.4276 96.5262 64.0096L96.8845 63.0242C97.1831 62.3673 97.4817 61.7403 97.7803 61.1431C98.1386 60.4861 98.3178 59.8591 98.3178 59.2619C96.8845 59.6202 95.7797 60.2771 95.0033 61.2326C94.2867 62.1882 93.3909 63.1138 92.316 64.0096C92.316 64.129 92.2861 64.1887 92.2264 64.1887C92.2264 64.1887 92.2264 64.2485 92.2264 64.3679C90.9723 65.4429 89.9869 66.7268 89.2703 68.2198C88.5537 69.7128 87.8669 71.2356 87.21 72.7883C87.1502 73.2661 87.0905 73.8036 87.0308 74.4008C86.9711 74.9382 86.9412 75.4757 86.9412 76.0132C87.0009 76.4312 87.1502 76.9985 87.3891 77.7152C87.628 78.4318 88.0759 78.8498 88.7328 78.9693C90.1661 79.447 91.4202 79.4769 92.4951 79.0589C93.6298 78.5811 94.7943 78.1929 95.9887 77.8943C97.84 77.0583 99.5719 76.3118 101.184 75.6549C102.797 74.9382 104.379 74.0723 105.932 73.0571H106.201C107.037 72.4599 107.843 71.8925 108.619 71.3551C109.455 70.8176 110.291 70.2204 111.128 69.5635C111.904 69.2649 112.561 68.817 113.098 68.2198C113.636 67.6226 114.323 67.1747 115.159 66.8761C115.218 66.5775 115.368 66.3685 115.607 66.2491C115.666 66.1296 115.666 66.0699 115.607 66.0699C115.607 66.0699 115.636 66.04 115.696 65.9803L115.965 66.0699V65.8012C116.263 65.8012 116.443 65.6817 116.502 65.4429C116.622 65.1443 116.771 64.9352 116.95 64.8158L117.04 64.9054C117.159 64.7262 117.309 64.5471 117.488 64.3679C117.667 64.1887 117.936 64.0394 118.294 63.92C118.055 64.1589 118.055 64.338 118.294 64.4575C118.592 64.5172 118.622 64.6068 118.383 64.7262C118.503 64.6665 118.592 64.6964 118.652 64.8158C118.712 64.8755 118.831 64.9054 119.011 64.9054L118.921 64.995C118.921 64.995 118.981 64.995 119.1 64.995C119.16 65.0547 119.16 65.1443 119.1 65.2637C119.1 65.3234 119.19 65.3533 119.369 65.3533C119.249 65.5324 119.19 65.7415 119.19 65.9803C119.249 66.1595 119.279 66.2789 119.279 66.3386C119.279 66.3984 119.249 66.4282 119.19 66.4282C119.13 66.4282 119.07 66.4581 119.011 66.5178V67.4136C118.891 67.5927 118.801 67.6823 118.742 67.6823C118.742 67.6226 118.712 67.6525 118.652 67.7719V67.8615C118.413 67.8018 118.413 67.7719 118.652 67.7719C118.354 67.6525 118.294 67.7122 118.473 67.9511C118.174 67.8913 117.965 67.9809 117.846 68.2198C117.727 68.399 117.547 68.5483 117.309 68.6677C117.309 68.3691 117.398 68.1601 117.577 68.0406C117.756 67.9212 117.846 67.8018 117.846 67.6823C117.547 67.8018 117.338 68.0108 117.219 68.3094C117.159 68.5483 116.98 68.7573 116.681 68.9364C116.681 68.9364 116.741 68.8767 116.861 68.7573C116.502 68.7573 116.234 68.8469 116.054 69.026C115.935 69.1455 115.816 69.2649 115.696 69.3843C115.696 69.5038 115.696 69.5635 115.696 69.5635C115.756 69.5038 115.786 69.5336 115.786 69.6531H115.696C115.517 69.5933 115.427 69.444 115.427 69.2052C115.308 69.3843 115.159 69.6531 114.979 70.0114C114.86 70.31 114.711 70.519 114.532 70.6384C114.412 70.5787 114.323 70.5787 114.263 70.6384C114.203 70.6384 114.143 70.6384 114.084 70.6384C114.084 70.7579 114.054 70.8475 113.994 70.9072C113.934 70.9669 113.875 71.0565 113.815 71.1759L113.725 71.0863C113.725 71.0863 113.725 71.1461 113.725 71.2655V71.3551C113.666 71.2953 113.427 71.4446 113.009 71.803C112.65 72.1016 112.412 72.3106 112.292 72.43C112.232 72.6092 112.203 72.7585 112.203 72.8779C112.262 72.9973 112.262 73.0869 112.203 73.1466C112.083 73.0869 111.964 73.1466 111.844 73.3258C111.725 73.4452 111.605 73.5647 111.486 73.6841C111.366 73.5647 111.366 73.4751 111.486 73.4154C111.665 73.3557 111.755 73.2661 111.755 73.1466C111.755 73.0869 111.665 73.0571 111.486 73.0571C111.068 73.2959 110.739 73.5647 110.501 73.8633C110.262 74.1619 109.993 74.5501 109.694 75.0278C109.396 75.0875 109.157 75.207 108.978 75.3861C108.858 75.5056 108.739 75.625 108.619 75.7444C108.56 75.6847 108.56 75.6549 108.619 75.6549C108.679 75.6549 108.709 75.625 108.709 75.5653ZM118.294 65.3533C118.413 65.413 118.503 65.413 118.563 65.3533C118.682 65.2936 118.712 65.204 118.652 65.0845C118.413 65.204 118.294 65.2936 118.294 65.3533ZM117.756 67.5927C117.936 67.4733 118.085 67.324 118.204 67.1449C118.085 67.2643 117.995 67.3539 117.936 67.4136C117.876 67.4136 117.816 67.4733 117.756 67.5927ZM118.831 65.7116H118.921C119.1 65.5324 119.07 65.4429 118.831 65.4429V65.7116Z" fill="#016C55"/>
<path d="M113.101 73.8633C113.221 73.8036 113.31 73.6841 113.37 73.505C113.37 73.3258 113.34 73.1765 113.28 73.0571C113.4 72.7585 113.459 72.4599 113.459 72.1613C113.519 71.8627 113.698 71.6537 113.997 71.5342C114.176 71.3551 114.206 71.2058 114.086 71.0863C114.027 70.9669 114.116 70.8773 114.355 70.8176C114.475 70.5787 114.564 70.3398 114.624 70.101C114.743 69.8621 114.893 69.6531 115.072 69.4739C115.55 68.3392 116.147 67.1449 116.863 65.8907C117.64 64.5769 118.327 63.3228 118.924 62.1284C119.222 61.7701 119.491 61.4118 119.73 61.0535C119.969 60.6952 120.118 60.307 120.178 59.889H120.357C120.476 59.2918 120.865 59.0827 121.522 59.2619C122.238 59.3813 122.925 59.5605 123.582 59.7994C123.88 59.9188 124.06 60.098 124.119 60.3369C124.179 60.516 124.209 60.725 124.209 60.9639C124.089 61.0236 124.03 61.1431 124.03 61.3222C124.089 61.4417 124.089 61.5611 124.03 61.6805C123.612 62.3374 123.313 63.0242 123.134 63.7409C122.955 64.4575 122.656 65.1443 122.238 65.8012C122.178 65.9206 122.089 66.0102 121.969 66.0699C121.91 66.1296 121.85 66.2192 121.79 66.3386C121.671 66.5775 121.551 66.9358 121.432 67.4136C121.372 67.8316 121.193 68.2795 120.894 68.7573C120.417 69.7128 119.999 70.6086 119.64 71.4446C119.282 72.2807 118.924 73.2064 118.565 74.2216C118.386 75.1771 118.177 75.9833 117.938 76.6402C117.759 77.2971 117.909 78.0735 118.386 78.9693C119.76 78.611 120.954 78.1929 121.969 77.7152C123.044 77.1777 124.149 76.6104 125.284 76.0132L127.702 74.2216L128.419 73.7737L131.286 71.6238L133.704 69.7426C133.943 69.5635 134.242 69.3843 134.6 69.2052C134.958 68.9663 135.257 68.7573 135.496 68.5781C136.093 68.1004 136.571 67.742 136.929 67.5032C137.287 67.2046 137.765 66.8463 138.362 66.4282C138.482 66.2491 138.601 66.1296 138.721 66.0699C138.9 65.9505 139.109 65.831 139.348 65.7116L139.975 65.2637C140.094 64.9651 140.363 64.7561 140.781 64.6366C141.259 64.5172 141.557 64.2485 141.677 63.8304C141.916 63.8902 142.035 63.8304 142.035 63.6513C142.334 63.7707 142.423 63.92 142.304 64.0992C142.244 64.2783 142.334 64.4276 142.573 64.5471C142.453 64.6068 142.334 64.7561 142.214 64.995C142.155 65.2338 142.125 65.3831 142.125 65.4429C142.364 65.5623 142.513 65.4429 142.573 65.0845C142.632 64.6665 142.752 64.4873 142.931 64.5471C142.931 64.6068 142.901 64.7859 142.841 65.0845C142.782 65.3234 142.722 65.4429 142.662 65.4429C142.961 65.5623 143.02 65.7415 142.841 65.9803C142.662 66.1595 142.632 66.3386 142.752 66.5178C142.632 66.6372 142.543 66.7268 142.483 66.7865C142.423 66.7865 142.364 66.8761 142.304 67.0553C142.184 67.0553 142.155 66.9956 142.214 66.8761C142.334 66.7567 142.274 66.697 142.035 66.697C141.975 66.8164 141.916 66.9358 141.856 67.0553C141.796 67.115 141.737 67.2643 141.677 67.5032C141.557 67.5032 141.498 67.4733 141.498 67.4136C141.557 67.2942 141.587 67.2046 141.587 67.1449C141.289 67.1449 141.139 67.2344 141.139 67.4136C140.841 67.533 140.662 67.7122 140.602 67.9511C140.542 68.1899 140.423 68.4288 140.244 68.6677C140.064 68.6677 140.005 68.6378 140.064 68.5781C140.124 68.5184 140.064 68.4885 139.885 68.4885C139.945 68.5483 139.885 68.7274 139.706 69.026C139.587 69.2649 139.437 69.5038 139.258 69.7426C139.079 69.9815 138.93 70.1905 138.81 70.3697C138.751 70.4891 138.78 70.4294 138.9 70.1905C138.78 70.1308 138.512 70.2503 138.094 70.5489C137.676 70.8475 137.407 71.0565 137.287 71.1759L136.212 72.2509C136.033 72.3703 135.705 72.6092 135.227 72.9675C134.809 73.3258 134.54 73.5647 134.421 73.6841C134.421 73.6841 134.361 73.6543 134.242 73.5945C134.242 73.6543 134.212 73.714 134.152 73.7737C134.152 73.7737 134.152 73.8334 134.152 73.9529C134.092 73.8334 134.003 73.8334 133.883 73.9529C133.764 74.0126 133.764 74.1022 133.883 74.2216H133.615C133.615 74.2813 133.495 74.4903 133.256 74.8486C133.018 75.207 132.689 75.5056 132.271 75.7444V75.3861C132.152 75.3264 132.092 75.3563 132.092 75.4757C132.092 75.5354 132.032 75.5951 131.913 75.6549H132.181C132.122 75.8937 132.032 76.043 131.913 76.1028C131.793 76.1028 131.644 76.1326 131.465 76.1923C131.405 76.1923 131.405 76.1625 131.465 76.1028C131.584 76.043 131.584 76.0132 131.465 76.0132C131.345 76.1326 131.196 76.2819 131.017 76.4611C130.897 76.6402 130.748 76.7895 130.569 76.909C130.45 76.7298 130.33 76.6999 130.211 76.8194C130.151 76.9388 130.061 77.0284 129.942 77.0881C129.942 77.0881 129.793 77.1478 129.494 77.2673C129.315 77.3867 129.136 77.5062 128.957 77.6256C128.837 77.745 128.628 77.8346 128.33 77.8943C128.27 78.0138 128.24 78.1332 128.24 78.2526C128.18 78.2526 128.15 78.2228 128.15 78.1631C128.15 78.1034 128.091 78.1034 127.971 78.1631C127.852 78.2825 127.702 78.4318 127.523 78.611C127.344 78.7304 127.105 78.82 126.807 78.8797C126.568 79.2977 126.209 79.5963 125.732 79.7755C125.314 79.9547 124.866 80.1338 124.388 80.313C123.671 80.7907 122.955 81.1192 122.238 81.2983C121.581 81.4178 120.865 81.5372 120.088 81.6567C119.312 81.8358 118.476 81.8657 117.58 81.7462C116.983 81.6268 116.386 81.5372 115.788 81.4775C115.251 81.4178 114.833 81.2983 114.534 81.1192C114.116 80.8206 113.758 80.4623 113.459 80.0442C113.221 79.6262 113.012 79.2679 112.832 78.9693C112.653 78.9096 112.564 78.82 112.564 78.7005C112.564 78.5811 112.474 78.4318 112.295 78.2526C112.295 78.1929 112.325 78.1631 112.384 78.1631C112.384 78.1631 112.384 78.1034 112.384 77.9839C112.265 78.1034 112.175 78.1631 112.116 78.1631C111.996 77.8645 112.056 77.6256 112.295 77.4464C112.474 77.2673 112.474 77.0284 112.295 76.7298C112.175 76.8492 112.116 77.0881 112.116 77.4464C111.996 77.327 111.937 77.1777 111.937 76.9985C111.937 76.7597 112.056 76.6402 112.295 76.6402C112.295 76.2819 112.414 75.8639 112.653 75.3861C112.534 75.3861 112.444 75.416 112.384 75.4757C112.444 75.1771 112.564 74.9382 112.743 74.7591C112.922 74.5799 113.012 74.341 113.012 74.0424C112.892 74.0424 112.862 74.1022 112.922 74.2216C112.922 74.341 112.892 74.4008 112.832 74.4008C112.713 74.1022 112.832 73.714 113.191 73.2362C113.25 73.2362 113.28 73.1765 113.28 73.0571C113.28 73.1765 113.221 73.3258 113.101 73.505C112.982 73.6244 112.982 73.7438 113.101 73.8633ZM127.971 53.3497C127.852 53.4094 127.822 53.4691 127.882 53.5288C127.941 53.5288 127.911 53.5886 127.792 53.708C127.493 53.9469 127.255 54.2455 127.075 54.6038C126.956 54.9621 126.687 55.1114 126.269 55.0517C125.971 55.1711 125.732 55.3801 125.553 55.6787C125.254 55.6787 125.075 55.6489 125.015 55.5892C124.955 55.5294 124.866 55.4399 124.746 55.3204C124.448 55.3204 124.269 55.41 124.209 55.5892C123.671 55.41 123.224 55.2308 122.865 55.0517C122.567 54.8725 122.208 54.6934 121.79 54.5142C121.79 53.9767 121.85 53.4691 121.969 52.9914C122.149 52.4539 122.596 52.2449 123.313 52.3643C123.433 52.2449 123.522 52.1852 123.582 52.1852C123.642 52.1852 123.701 52.1553 123.761 52.0956C124.478 52.1553 125.105 52.3046 125.642 52.5435C126.18 52.7824 126.837 52.9317 127.613 52.9914C127.493 53.2303 127.613 53.3497 127.971 53.3497ZM140.064 68.1302C139.826 68.1899 139.646 68.3094 139.527 68.4885C139.407 68.6677 139.437 68.8469 139.616 69.026C139.616 68.8469 139.706 68.6677 139.885 68.4885C140.005 68.3691 140.064 68.2497 140.064 68.1302ZM130.479 76.3715C130.599 76.3715 130.718 76.3416 130.838 76.2819C130.957 76.1625 130.957 76.043 130.838 75.9236L130.479 76.3715ZM140.96 67.6823C140.9 67.6226 140.93 67.5927 141.05 67.5927L140.96 67.6823Z" fill="#016C55"/>
<path d="M176.515 71.6238C176.216 71.5641 175.947 71.7134 175.708 72.0717C175.47 72.3703 175.231 72.6689 174.992 72.9675C174.992 72.9078 175.022 72.8182 175.081 72.6988C174.604 73.0571 174.156 73.4452 173.738 73.8633C173.32 74.2216 172.872 74.6396 172.394 75.1174H172.215V75.0278C172.095 75.1472 171.946 75.2965 171.767 75.4757C171.648 75.6549 171.498 75.6847 171.319 75.5653C171.02 75.7444 170.782 75.9535 170.602 76.1923C170.483 76.4312 170.304 76.5805 170.065 76.6402C169.766 76.9388 169.527 77.1777 169.348 77.3569C169.169 77.4763 168.9 77.6853 168.542 77.9839C168.542 77.9242 168.482 77.8943 168.363 77.8943C168.184 78.1332 167.796 78.3124 167.198 78.4318C166.542 78.7901 165.944 79.1783 165.407 79.5963C164.929 79.9546 164.421 80.1338 163.884 80.1338C163.347 80.1935 162.958 80.2532 162.719 80.313C162.481 80.3727 162.212 80.3727 161.913 80.313C161.436 80.313 160.838 80.4324 160.122 80.6713C159.405 80.9699 158.808 81.0296 158.33 80.8504C158.211 80.5518 158.002 80.3428 157.703 80.2234C157.404 80.0442 157.106 79.8949 156.807 79.7755C156.568 79.6561 156.389 79.3873 156.27 78.9693C155.613 78.5512 155.135 77.9541 154.837 77.1777C154.538 76.3416 154.359 75.416 154.299 74.4008C154.299 73.3258 154.389 72.221 154.568 71.0863C154.747 69.9517 154.986 68.8469 155.284 67.7719C154.448 68.4288 153.642 69.235 152.866 70.1905C152.089 71.0863 151.313 71.9523 150.537 72.7883C150.238 73.3258 149.91 73.7737 149.551 74.132C149.193 74.4903 148.835 74.8188 148.476 75.1174C147.461 76.3118 146.506 77.3569 145.61 78.2526C145.61 78.3124 145.58 78.3721 145.52 78.4318C145.52 78.4318 145.49 78.4915 145.431 78.611C144.953 78.9693 144.415 79.3873 143.818 79.8651C143.221 80.3428 142.594 80.731 141.937 81.0296C141.34 81.3879 140.683 81.5969 139.966 81.6567C139.309 81.7164 138.623 81.4775 137.906 80.94C137.488 80.8803 137.189 80.7609 137.01 80.5817C136.891 80.3428 136.682 80.1338 136.383 79.9547C135.726 79.6561 135.338 79.2977 135.219 78.8797C135.04 78.4617 134.92 77.8346 134.86 76.9985C134.801 76.5805 134.86 76.043 135.04 75.3861C135.159 74.7292 135.338 74.1619 135.577 73.6841C135.876 72.5495 136.324 71.5044 136.921 70.5489C137.518 69.5336 138.085 68.608 138.623 67.7719C139.638 66.3984 140.653 65.1443 141.668 64.0096C142.743 62.8152 143.848 61.6507 144.983 60.516C145.341 60.3368 145.699 60.098 146.058 59.7994C146.476 59.5008 146.924 59.2619 147.401 59.0827C147.7 59.2022 148.029 59.1425 148.387 58.9036C148.745 58.605 149.044 58.6647 149.283 59.0827C150.537 59.2022 151.642 59.5008 152.597 59.9785C153.553 60.4563 154.209 61.2326 154.568 62.3076C154.986 62.009 155.374 61.7403 155.732 61.5014C156.091 61.2625 156.479 61.0833 156.897 60.9639C157.076 60.9042 157.225 60.7847 157.345 60.6056C157.464 60.4264 157.584 60.3369 157.703 60.3369C158.3 60.2174 158.838 60.3369 159.315 60.6952C159.853 61.0535 160.361 61.3521 160.838 61.591C160.898 61.5312 160.958 61.5312 161.017 61.591C161.137 61.591 161.286 61.5611 161.465 61.5014C161.585 61.6805 161.674 61.8298 161.734 61.9493C161.794 62.009 161.854 62.1284 161.913 62.3076C162.033 63.3825 161.883 64.5471 161.465 65.8012C161.107 67.0553 160.689 68.1004 160.211 68.9364C159.972 70.31 159.644 71.803 159.226 73.4154C158.808 75.0278 158.778 76.4312 159.136 77.6256C161.226 77.3867 162.958 76.8791 164.332 76.1028C165.765 75.2667 167.198 74.4605 168.632 73.6841C169.169 73.2661 169.647 72.9078 170.065 72.6092C170.543 72.3106 170.991 71.9224 171.409 71.4446C171.468 71.4446 171.528 71.4745 171.588 71.5342V71.6238C171.886 71.6238 172.484 71.2655 173.379 70.5489C174.275 69.7725 175.171 68.9962 176.067 68.2198C177.022 67.3837 177.888 66.6671 178.665 66.0699C179.501 65.4727 179.978 65.2637 180.098 65.4429C180.217 65.5623 180.367 65.5922 180.546 65.5324C180.725 65.413 180.874 65.3831 180.994 65.4429C181.053 65.5623 181.053 65.6519 180.994 65.7116C180.994 65.7713 181.023 65.831 181.083 65.8907V65.7116C181.143 65.7116 181.143 65.8012 181.083 65.9803C181.023 66.0998 180.964 66.2491 180.904 66.4282C180.844 66.5477 180.785 66.6372 180.725 66.697C180.665 66.7567 180.665 66.697 180.725 66.5178C180.605 66.6372 180.456 66.7865 180.277 66.9657C180.158 67.0851 180.038 67.2046 179.919 67.324C179.799 67.6226 179.71 67.8316 179.65 67.9511C179.65 68.0705 179.59 68.2795 179.471 68.5781C179.292 68.5781 179.172 68.5483 179.112 68.4885C178.993 68.7871 178.814 68.9962 178.575 69.1156C178.396 69.235 178.246 69.4739 178.127 69.8322C178.008 69.8322 177.888 69.9815 177.769 70.2801L176.515 71.6238ZM152.06 63.92C151.94 63.1437 151.701 62.4867 151.343 61.9493C151.044 61.4118 150.477 61.3521 149.641 61.7701L148.208 63.3825C148.088 63.5617 147.939 63.711 147.76 63.8304C147.581 63.8902 147.431 63.9797 147.312 64.0992C147.192 64.2186 147.073 64.3978 146.954 64.6366C146.834 64.8158 146.685 65.0248 146.506 65.2637L145.252 66.697C144.595 67.533 143.938 68.4885 143.281 69.5635C142.684 70.5787 142.146 71.5641 141.668 72.5196C141.549 72.8182 141.4 73.0869 141.221 73.3258C141.041 73.5647 140.892 73.923 140.773 74.4008C140.653 74.341 140.593 74.3709 140.593 74.4903C140.593 74.5501 140.564 74.5501 140.504 74.4903C140.384 75.1472 140.175 75.7146 139.877 76.1923C139.578 76.6104 139.429 77.1777 139.429 77.8943C139.907 77.5957 140.414 77.2971 140.952 76.9985C141.489 76.6999 141.937 76.3715 142.295 76.0132C144.027 74.341 145.67 72.6092 147.222 70.8176C148.835 68.9663 150.417 67.0851 151.97 65.1741C152.149 65.0547 152.298 64.9054 152.418 64.7262C152.537 64.4873 152.687 64.338 152.866 64.2783V64.0992C152.746 63.9797 152.478 63.92 152.06 63.92Z" fill="#016C55"/>
<path d="M197.354 78.7901C197.235 78.8498 197.115 78.8797 196.996 78.8797C196.877 78.82 196.787 78.82 196.727 78.8797C196.727 78.9394 196.608 78.9096 196.369 78.7901C196.19 79.0887 196.011 79.3873 195.832 79.6859C195.652 79.9248 195.413 79.9845 195.115 79.8651C194.995 79.9845 194.846 80.1039 194.667 80.2234C194.548 80.2831 194.398 80.4025 194.219 80.5817C194.159 80.6414 194.129 80.6414 194.129 80.5817C193.95 80.7011 193.592 80.8504 193.055 81.0296C192.577 81.2088 192.069 81.3879 191.532 81.5671C190.994 81.806 190.487 82.015 190.009 82.1941C189.591 82.3733 189.322 82.5226 189.203 82.642C188.844 82.642 188.426 82.7017 187.949 82.8212C187.531 82.9406 187.172 83.1198 186.874 83.3587C186.157 83.4781 185.321 83.6274 184.365 83.8065C183.47 84.0454 182.484 84.0156 181.409 83.717C181.111 83.6572 180.961 83.6274 180.961 83.6274C180.961 83.6871 180.991 83.7468 181.051 83.8065C181.111 83.8663 181.141 83.926 181.141 83.9857C181.141 84.0454 181.021 84.0753 180.782 84.0753C180.782 83.8364 180.723 83.6871 180.603 83.6274C180.484 83.6274 180.364 83.6274 180.245 83.6274C180.125 83.5079 179.976 83.3885 179.797 83.2691C179.677 83.2094 179.468 83.1496 179.17 83.0899C178.035 82.015 177.109 80.7907 176.393 79.4172C175.676 77.9839 175.228 76.4014 175.049 74.6695C175.049 74.4903 175.079 74.3112 175.139 74.132C175.198 73.8931 175.198 73.714 175.139 73.5945V69.6531C175.139 69.5336 175.169 69.444 175.228 69.3843C175.348 69.2649 175.378 69.1455 175.318 69.026L175.587 66.9657C175.587 66.7865 175.557 66.6671 175.497 66.6074C175.497 66.4879 175.497 66.3685 175.497 66.2491L175.587 66.1595C175.706 66.1595 175.766 66.0998 175.766 65.9803C175.885 65.8609 175.915 65.7713 175.855 65.7116C175.796 65.6519 175.766 65.5623 175.766 65.4429L176.303 63.8304C176.363 63.711 176.393 63.6214 176.393 63.5617C176.453 63.4423 176.423 63.293 176.303 63.1138C176.363 62.9944 176.482 62.9944 176.662 63.1138C176.721 62.8152 176.781 62.5166 176.841 62.218C176.9 61.9194 176.871 61.6507 176.751 61.4118H176.841C176.96 61.2924 177.02 61.1729 177.02 61.0535C177.02 60.934 177.08 60.8743 177.199 60.8743C177.259 59.9785 177.498 59.2022 177.916 58.5453C178.334 57.8286 178.573 57.0523 178.632 56.2162C179.05 56.0371 179.2 55.7683 179.08 55.41C179.2 55.41 179.259 55.3204 179.259 55.1413C179.259 54.9024 179.319 54.7531 179.439 54.6934V54.4246C180.036 53.6483 180.364 52.8421 180.424 52.006C181.379 50.6922 182.066 49.3784 182.484 48.0645C182.723 48.0048 182.843 47.9152 182.843 47.7958C182.902 47.6166 182.962 47.4375 183.022 47.2583C183.32 46.7806 183.619 46.2132 183.917 45.5563C184.216 44.8994 184.634 44.3321 185.172 43.8543C185.351 43.4363 185.59 43.0182 185.888 42.6002C186.187 42.1822 186.485 41.7343 186.784 41.2565C187.799 39.8233 188.814 38.39 189.83 36.9567C190.845 35.4637 192.218 34.1499 193.95 33.0153C194.249 32.7167 194.577 32.5076 194.936 32.3882C195.294 32.2688 195.712 32.1195 196.19 31.9403C197.563 31.1042 198.967 31.1938 200.4 32.209C200.699 32.4479 201.057 32.6271 201.475 32.7465C201.893 32.8062 202.192 33.0451 202.371 33.4632C202.61 33.5229 202.699 33.6124 202.64 33.7319C202.64 33.7916 202.669 33.911 202.729 34.0902C202.789 34.2096 202.878 34.3291 202.998 34.4485C203.117 34.568 203.117 34.7173 202.998 34.8964C202.938 35.0159 202.938 35.1353 202.998 35.2547C203.117 35.3742 203.087 35.5533 202.908 35.7922C202.849 36.0908 202.61 36.4491 202.192 36.8672L202.012 38.2108L201.385 38.9275C201.206 39.4052 201.027 39.883 200.848 40.3607C200.669 40.7788 200.43 41.1669 200.131 41.5253C199.773 42.9585 199.116 44.2425 198.161 45.3772C197.205 46.5118 196.339 47.7062 195.563 48.9603C194.966 49.6172 194.458 50.3637 194.04 51.1998C193.682 52.0359 193.234 52.8122 192.696 53.5288C192.517 53.6483 192.308 53.7976 192.069 53.9767C191.89 54.1559 191.8 54.3948 191.8 54.6934C191.024 55.3503 190.397 56.0669 189.919 56.8433C189.501 57.6196 188.934 58.396 188.217 59.1723C188.098 59.5904 187.889 59.889 187.59 60.0681C187.292 60.1876 187.083 60.4563 186.963 60.8743C186.844 60.9938 186.724 61.0833 186.605 61.1431C186.485 61.1431 186.456 61.2625 186.515 61.5014C186.157 61.6208 185.858 61.9194 185.62 62.3972C185.44 62.8749 185.201 63.2034 184.903 63.3825C184.843 63.5617 184.694 63.7409 184.455 63.92C184.276 64.0992 184.127 64.2186 184.007 64.2783C183.589 64.6964 183.111 65.2637 182.574 65.9803C182.096 66.6372 181.35 67.2942 180.334 67.9511C180.215 68.1302 180.095 68.2198 179.976 68.2198V68.8469C179.677 70.101 179.468 71.5342 179.349 73.1466C179.289 74.6994 179.439 76.2521 179.797 77.8048C180.036 78.7005 180.215 79.1783 180.334 79.238C180.454 79.2977 180.543 79.2679 180.603 79.1484C180.723 79.029 180.782 78.9991 180.782 79.0589C180.842 79.1186 180.932 79.5366 181.051 80.313C181.051 80.3727 181.081 80.4025 181.141 80.4025H181.32C181.379 80.4623 181.469 80.4921 181.588 80.4921C182.723 80.6713 183.499 80.731 183.917 80.6713C184.395 80.6713 184.963 80.522 185.62 80.2234C186.575 79.8651 187.471 79.5366 188.307 79.238C189.203 78.8797 190.039 78.4617 190.815 77.9839C190.815 78.0436 190.875 78.0735 190.994 78.0735H191.084V78.1631C191.203 78.1631 191.233 78.1034 191.173 77.9839C191.293 77.9839 191.353 77.9839 191.353 77.9839C191.353 77.9242 191.382 77.8943 191.442 77.8943H191.621L191.89 77.6256C192.905 77.1478 193.831 76.5208 194.667 75.7444C195.563 74.9084 196.518 74.2515 197.534 73.7737C197.534 73.5945 197.593 73.505 197.713 73.505C197.832 73.4452 197.892 73.3258 197.892 73.1466C197.952 73.1466 197.952 73.1765 197.892 73.2362C197.892 73.2959 197.952 73.2661 198.071 73.1466C198.668 72.8481 199.176 72.6092 199.594 72.43C200.072 72.1911 200.281 71.8328 200.221 71.3551C200.34 71.3551 200.4 71.3849 200.4 71.4446C200.4 71.5044 200.43 71.5342 200.49 71.5342C200.728 71.2356 200.908 71.0266 201.027 70.9072C201.147 70.7877 201.266 70.6982 201.385 70.6384C201.505 70.5787 201.624 70.519 201.744 70.4593C201.923 70.3398 202.162 70.1308 202.46 69.8322C202.281 69.6531 202.251 69.5635 202.371 69.5635C202.49 69.5038 202.58 69.4142 202.64 69.2947C202.759 69.4142 202.759 69.5038 202.64 69.5635C202.58 69.5635 202.58 69.6232 202.64 69.7426C203.117 69.2052 203.565 68.6976 203.983 68.2198C204.461 67.742 204.73 67.6226 204.789 67.8615C205.148 67.5629 205.297 67.4136 205.237 67.4136C205.237 67.3539 205.178 67.324 205.058 67.324C204.998 67.324 204.939 67.324 204.879 67.324C204.879 67.2643 205.058 67.115 205.416 66.8761C205.715 66.8164 205.954 66.8761 206.133 67.0553C206.073 67.4733 206.223 67.7122 206.581 67.7719C206.342 67.8913 206.253 68.0108 206.312 68.1302C206.432 68.2497 206.521 68.3691 206.581 68.4885C206.581 68.7274 206.551 68.9066 206.491 69.026C206.432 69.6232 206.342 70.0412 206.223 70.2801C206.163 70.4593 206.073 70.5787 205.954 70.6384C205.894 70.6982 205.805 70.7579 205.685 70.8176C205.625 70.8176 205.596 70.9072 205.596 71.0863C205.596 71.2058 205.625 71.2953 205.685 71.3551V71.4446C205.625 71.5044 205.566 71.4745 205.506 71.3551C205.506 71.2356 205.446 71.146 205.327 71.0863C205.327 71.2058 205.297 71.3252 205.237 71.4446C205.237 71.5641 205.297 71.6537 205.416 71.7134C205.178 71.8925 204.998 72.012 204.879 72.0717C204.76 72.1314 204.67 72.1613 204.61 72.1613C204.61 72.1613 204.58 72.1911 204.521 72.2509C204.461 72.3106 204.371 72.4599 204.252 72.6988C204.252 72.6988 204.252 72.6689 204.252 72.6092V72.5196C204.013 72.4599 203.894 72.5495 203.894 72.7883C203.894 72.9675 203.804 73.1168 203.625 73.2362C203.505 73.1168 203.476 73.0272 203.535 72.9675C203.655 72.9078 203.685 72.8182 203.625 72.6988C203.505 72.639 203.386 72.6988 203.267 72.8779C203.207 72.9973 203.117 72.9675 202.998 72.7883C202.938 72.9078 202.878 73.1168 202.819 73.4154C202.759 73.714 202.64 73.923 202.46 74.0424C202.341 74.0424 202.311 73.9827 202.371 73.8633C202.49 73.6841 202.55 73.5348 202.55 73.4154C202.192 73.6543 201.983 73.8633 201.923 74.0424C201.744 74.2216 201.654 74.3112 201.654 74.3112C201.654 74.3709 201.714 74.4008 201.833 74.4008C201.833 74.5202 201.803 74.6695 201.744 74.8486C201.684 74.9681 201.505 75.0875 201.206 75.207C201.087 75.7444 200.788 76.0132 200.31 76.0132C200.31 76.0132 200.34 75.9535 200.4 75.834V75.6549C200.042 75.6549 199.922 75.7743 200.042 76.0132C199.922 75.9535 199.833 75.9833 199.773 76.1028C199.713 76.2222 199.594 76.2222 199.415 76.1028C199.295 76.2222 199.295 76.3118 199.415 76.3715C199.594 76.3715 199.624 76.3715 199.504 76.3715C199.445 76.4312 199.385 76.4312 199.325 76.3715C199.325 76.3118 199.295 76.2819 199.235 76.2819C198.877 76.5805 198.489 76.8791 198.071 77.1777C197.653 77.4763 197.324 77.8346 197.086 78.2526C197.086 78.3721 197.115 78.4617 197.175 78.5214C197.235 78.5811 197.295 78.6707 197.354 78.7901ZM181.857 60.9639C183.111 59.4112 184.246 57.9182 185.261 56.485C186.276 54.992 187.351 53.4691 188.486 51.9164C188.486 51.8567 188.516 51.8268 188.576 51.8268C188.934 51.5282 189.203 51.1102 189.382 50.5727C189.621 50.0353 189.86 49.6172 190.098 49.3186C191.054 48.0645 191.98 46.8104 192.875 45.5563C193.831 44.2425 194.637 42.8988 195.294 41.5253C195.712 40.7489 196.1 40.0024 196.459 39.2858C196.817 38.5094 197.086 37.7032 197.265 36.8672C197.922 36.4491 198.161 35.7922 197.981 34.8964C197.324 35.0756 196.817 35.4339 196.459 35.9714C196.1 36.4491 195.682 36.8672 195.204 37.2255C194.966 37.7629 194.667 38.2706 194.309 38.7483C193.95 39.1663 193.592 39.5844 193.234 40.0024C191.681 41.3162 190.487 42.8092 189.651 44.4814C188.814 46.1535 187.978 47.8555 187.142 49.5874C186.963 49.6471 186.814 49.6769 186.694 49.6769C186.575 50.1547 186.366 50.5727 186.067 50.9311C185.769 51.2297 185.62 51.588 185.62 52.006C185.261 52.4838 184.992 52.9317 184.813 53.3497C184.634 53.7677 184.395 54.2156 184.097 54.6934C183.977 54.992 183.828 55.2906 183.649 55.5892C183.529 55.828 183.41 56.0669 183.29 56.3058V56.7537C183.171 56.9926 183.022 57.2613 182.843 57.5599C182.663 57.7988 182.604 58.1272 182.663 58.5453C182.365 58.9036 182.156 59.2918 182.036 59.7098C181.977 60.1278 181.887 60.5459 181.768 60.9639H181.857ZM195.115 78.0735C195.115 78.1332 195.085 78.1631 195.025 78.1631C195.145 78.2228 195.204 78.2228 195.204 78.1631C195.264 78.0436 195.294 77.9541 195.294 77.8943C195.593 77.9541 195.832 77.8645 196.011 77.6256C196.19 77.327 196.369 77.0881 196.548 76.909C196.548 76.9687 196.608 77.0284 196.727 77.0881C196.847 76.9687 196.966 76.8492 197.086 76.7298C197.265 76.5506 197.324 76.4014 197.265 76.2819C196.966 76.4014 196.638 76.5805 196.279 76.8194C195.921 76.9985 195.593 77.2971 195.294 77.7152H195.025V77.8943C195.025 77.9541 195.055 77.9839 195.115 77.9839C194.995 77.9242 194.876 77.9541 194.757 78.0735C194.637 78.1929 194.637 78.3124 194.757 78.4318C194.816 78.4318 194.846 78.4019 194.846 78.3422C194.906 78.2228 194.995 78.1332 195.115 78.0735ZM201.296 74.132C201.057 74.2515 200.878 74.341 200.758 74.4008C200.639 74.4605 200.519 74.5501 200.4 74.6695C200.34 74.6695 200.31 74.6695 200.31 74.6695C200.37 74.6098 200.34 74.5799 200.221 74.5799C200.101 74.6993 199.982 74.7889 199.863 74.8486C199.803 74.9084 199.803 75.0577 199.863 75.2965C200.221 75.1771 200.49 75.0278 200.669 74.8486C200.908 74.6695 201.117 74.4306 201.296 74.132ZM205.148 70.2801C204.849 70.4593 204.7 70.728 204.7 71.0863C204.879 71.146 205.058 71.1162 205.237 70.9968C205.416 70.8176 205.387 70.5787 205.148 70.2801ZM198.161 76.2819C198.161 76.043 198.19 75.9236 198.25 75.9236C198.25 76.1625 198.25 76.2819 198.25 76.2819C198.429 76.2819 198.519 76.2521 198.519 76.1923C198.579 76.1326 198.668 76.043 198.788 75.9236C198.608 75.9236 198.519 75.8639 198.519 75.7444C198.34 75.8042 198.19 75.8937 198.071 76.0132C198.011 76.1326 198.041 76.2222 198.161 76.2819ZM203.446 71.803C203.207 71.803 202.998 71.8925 202.819 72.0717C202.639 72.1911 202.58 72.3106 202.64 72.43C202.759 72.3703 202.849 72.3106 202.908 72.2509C203.028 72.1911 203.207 72.0418 203.446 71.803ZM197.802 75.9236C197.504 75.9236 197.354 76.043 197.354 76.2819C197.474 76.2819 197.534 76.2521 197.534 76.1923C197.593 76.1326 197.683 76.043 197.802 75.9236ZM202.102 73.9529C202.102 74.1917 202.012 74.341 201.833 74.4008C201.833 74.2216 201.863 74.1022 201.923 74.0424C201.923 73.9827 201.983 73.9529 202.102 73.9529ZM199.235 75.2965C199.295 75.3563 199.265 75.4757 199.146 75.6549C199.086 75.7743 199.116 75.834 199.235 75.834C199.295 75.7146 199.325 75.625 199.325 75.5653C199.325 75.4458 199.295 75.3563 199.235 75.2965ZM198.788 75.6549C198.728 75.6549 198.668 75.6847 198.608 75.7444C198.608 75.7444 198.579 75.7444 198.519 75.7444C198.698 75.9236 198.788 75.9833 198.788 75.9236C198.788 75.8639 198.788 75.7743 198.788 75.6549ZM176.751 65.0845C176.751 64.8457 176.721 64.6964 176.662 64.6366C176.662 64.6964 176.632 64.7859 176.572 64.9054C176.572 64.9651 176.632 65.0248 176.751 65.0845ZM205.685 71.3551V71.4446V71.803V71.2655V71.3551ZM202.55 69.7426C202.49 69.5635 202.46 69.5933 202.46 69.8322L202.55 69.7426ZM195.204 77.9839L195.115 78.0735V77.9839H195.204ZM205.775 71.803C205.775 71.8627 205.745 71.8925 205.685 71.8925C205.685 71.8925 205.685 71.8627 205.685 71.803H205.775Z" fill="#016C55"/>
<path d="M140.607 118.644V116.299H153.843V118.644H148.463V140.424H146.003V118.644H140.607Z" fill="#4D4D4D"/>
<path d="M156.057 122.58H158.402V125.188C159.102 124.16 159.84 123.395 160.617 122.892C161.393 122.378 162.202 122.121 163.044 122.121C163.678 122.121 164.356 122.323 165.078 122.728L163.88 124.663C163.399 124.455 162.995 124.351 162.667 124.351C161.901 124.351 161.163 124.668 160.453 125.303C159.742 125.926 159.201 126.899 158.829 128.222C158.545 129.239 158.402 131.294 158.402 134.389V140.424H156.057V122.58Z" fill="#4D4D4D"/>
<path d="M182.053 134.504L183.988 135.52C183.354 136.767 182.621 137.773 181.79 138.538C180.959 139.304 180.024 139.889 178.986 140.293C177.947 140.687 176.772 140.884 175.46 140.884C172.551 140.884 170.277 139.932 168.637 138.03C166.997 136.116 166.177 133.957 166.177 131.551C166.177 129.288 166.871 127.271 168.259 125.499C170.02 123.247 172.376 122.121 175.328 122.121C178.368 122.121 180.795 123.274 182.61 125.581C183.901 127.211 184.557 129.244 184.578 131.683H168.538C168.582 133.76 169.244 135.466 170.523 136.8C171.802 138.123 173.382 138.784 175.263 138.784C176.17 138.784 177.05 138.626 177.903 138.309C178.767 137.992 179.5 137.571 180.101 137.046C180.702 136.521 181.353 135.674 182.053 134.504ZM182.053 129.698C181.747 128.474 181.298 127.495 180.708 126.762C180.128 126.03 179.357 125.439 178.395 124.991C177.433 124.543 176.422 124.319 175.361 124.319C173.612 124.319 172.108 124.882 170.851 126.008C169.932 126.828 169.238 128.058 168.768 129.698H182.053Z" fill="#4D4D4D"/>
<path d="M206.654 122.58V140.424H204.391V137.357C203.429 138.527 202.346 139.408 201.143 139.998C199.952 140.588 198.645 140.884 197.224 140.884C194.698 140.884 192.538 139.971 190.745 138.145C188.963 136.308 188.072 134.077 188.072 131.453C188.072 128.884 188.974 126.686 190.778 124.86C192.582 123.034 194.753 122.121 197.289 122.121C198.754 122.121 200.077 122.432 201.258 123.056C202.45 123.679 203.494 124.614 204.391 125.86V122.58H206.654ZM197.47 124.335C196.19 124.335 195.01 124.652 193.927 125.286C192.845 125.91 191.981 126.79 191.336 127.927C190.702 129.064 190.384 130.267 190.384 131.535C190.384 132.792 190.707 133.995 191.352 135.143C191.997 136.291 192.861 137.188 193.943 137.833C195.037 138.467 196.207 138.784 197.453 138.784C198.711 138.784 199.902 138.467 201.029 137.833C202.155 137.199 203.019 136.341 203.62 135.258C204.232 134.176 204.538 132.956 204.538 131.601C204.538 129.534 203.855 127.807 202.488 126.418C201.133 125.029 199.46 124.335 197.47 124.335Z" fill="#4D4D4D"/>
<path d="M213.838 115.954H216.15V122.58H219.791V124.548H216.15V140.424H213.838V124.548H210.705V122.58H213.838V115.954Z" fill="#4D4D4D"/>
<path d="M223.203 122.58H225.483V125.663C226.281 124.526 227.101 123.695 227.943 123.171C229.102 122.471 230.321 122.121 231.6 122.121C232.464 122.121 233.284 122.29 234.06 122.629C234.837 122.968 235.471 123.422 235.963 123.991C236.455 124.548 236.881 125.352 237.242 126.402C238.007 125.002 238.964 123.941 240.112 123.22C241.26 122.487 242.496 122.121 243.819 122.121C245.054 122.121 246.142 122.432 247.083 123.056C248.034 123.679 248.739 124.548 249.198 125.663C249.658 126.779 249.887 128.452 249.887 130.682V140.424H247.542V130.682C247.542 128.769 247.405 127.457 247.132 126.746C246.858 126.024 246.388 125.445 245.721 125.007C245.065 124.57 244.278 124.351 243.36 124.351C242.244 124.351 241.222 124.679 240.293 125.335C239.374 125.992 238.702 126.866 238.275 127.96C237.849 129.053 237.636 130.879 237.636 133.438V140.424H235.356V131.289C235.356 129.135 235.219 127.675 234.946 126.91C234.683 126.134 234.219 125.516 233.552 125.057C232.885 124.586 232.092 124.351 231.174 124.351C230.113 124.351 229.118 124.674 228.189 125.319C227.27 125.953 226.587 126.812 226.139 127.894C225.701 128.976 225.483 130.633 225.483 132.864V140.424H223.203V122.58Z" fill="#4D4D4D"/>
<path d="M269.765 134.504L271.701 135.52C271.066 136.767 270.334 137.773 269.503 138.538C268.672 139.304 267.737 139.889 266.698 140.293C265.66 140.687 264.484 140.884 263.172 140.884C260.264 140.884 257.989 139.932 256.349 138.03C254.709 136.116 253.889 133.957 253.889 131.551C253.889 129.288 254.583 127.271 255.972 125.499C257.732 123.247 260.089 122.121 263.041 122.121C266.08 122.121 268.508 123.274 270.323 125.581C271.613 127.211 272.269 129.244 272.291 131.683H256.251C256.295 133.76 256.956 135.466 258.235 136.8C259.515 138.123 261.095 138.784 262.975 138.784C263.883 138.784 264.763 138.626 265.616 138.309C266.48 137.992 267.212 137.571 267.813 137.046C268.415 136.521 269.065 135.674 269.765 134.504ZM269.765 129.698C269.459 128.474 269.011 127.495 268.42 126.762C267.841 126.03 267.07 125.439 266.108 124.991C265.146 124.543 264.134 124.319 263.074 124.319C261.324 124.319 259.821 124.882 258.563 126.008C257.645 126.828 256.951 128.058 256.48 129.698H269.765Z" fill="#4D4D4D"/>
<path d="M276.588 122.58H278.884V125.778C279.803 124.554 280.819 123.641 281.935 123.039C283.05 122.427 284.264 122.121 285.576 122.121C286.91 122.121 288.091 122.46 289.118 123.138C290.157 123.816 290.922 124.729 291.415 125.877C291.907 127.025 292.153 128.812 292.153 131.24V140.424H289.873V131.912C289.873 129.857 289.785 128.484 289.61 127.796C289.337 126.615 288.823 125.729 288.069 125.139C287.314 124.537 286.33 124.237 285.117 124.237C283.728 124.237 282.481 124.696 281.377 125.614C280.284 126.533 279.562 127.67 279.212 129.026C278.993 129.911 278.884 131.53 278.884 133.88V140.424H276.588V122.58Z" fill="#4D4D4D"/>
<path d="M299.09 115.954H301.403V122.58H305.044V124.548H301.403V140.424H299.09V124.548H295.958V122.58H299.09V115.954Z" fill="#4D4D4D"/>
<path d="M263.719 4.23636C252.54 9.68702 242.158 17.7564 236.577 28.8802C230.997 40.004 231.131 54.4974 239.103 64.0499C243.275 69.0417 249.221 72.4437 252.758 77.899C255.256 81.7507 256.378 86.3856 259.01 90.1445C261.268 93.3611 264.517 95.7852 267.965 97.6391C272.897 100.237 278.299 101.821 283.853 102.299C289.407 102.776 295 102.138 300.303 100.42C304.386 99.076 308.483 96.879 310.551 93.1108C312.52 89.5188 312.437 84.8792 315.135 81.797C317.243 79.3915 320.826 78.2374 322.027 75.271C323.385 71.9107 320.956 68.3511 319.983 64.861C318.931 61.1021 319.519 56.8334 317.526 53.4869C316.404 51.633 314.444 49.8347 314.931 47.7119C315.125 46.8405 315.719 46.1221 316.103 45.3202C317.86 41.6401 314.94 37.4409 311.821 34.8221C308.701 32.2034 304.915 29.5847 304.303 25.5523C304.025 23.7401 304.465 21.8954 304.479 20.0599C304.525 14.3219 300.307 9.21889 295.144 6.66969C289.981 4.12048 284.095 3.67552 278.361 3.57355C270.917 3.44377 262.992 3.97216 256.939 8.31044" fill="#F4D5CA"/>
<path d="M280.833 6.1831C280.726 7.08227 280.661 7.99072 280.504 8.88526C280.291 10.0625 280.04 11.2352 279.753 12.3985C279.15 14.9539 278.532 17.5047 277.899 20.0508C277.436 21.8213 276.972 23.5826 276.509 25.3485C275.897 27.6938 275.253 30.0344 274.655 32.3843C274.27 33.9416 273.955 35.5128 273.644 37.0841C273.283 38.938 272.943 40.792 272.625 42.646C272.531 43.26 272.473 43.8791 272.453 44.4999C272.356 46.9518 272.119 49.4129 272.231 51.8555C272.321 55.4079 273.191 58.897 274.78 62.0755C276.509 65.5032 279.222 68.3371 282.571 70.2145C285.631 71.9547 288.874 73.3536 292.239 74.3859C294.267 74.9824 296.342 75.4026 298.441 75.6419C305.064 76.4623 311.711 76.4948 318.371 76.3696C320.512 76.359 322.649 76.1683 324.758 75.7995C327.326 75.336 329.578 74.1263 330.677 71.5215C330.898 70.9586 330.978 70.35 330.91 69.749C330.843 69.1479 330.629 68.5726 330.288 68.0731C329.487 66.7891 328.847 65.4114 328.383 63.9712C327.986 62.638 328.076 61.2069 328.637 59.9342C328.906 59.2529 329.208 58.5808 329.486 57.8995C329.986 56.6666 329.759 56.0177 328.619 55.3966C327.877 54.9887 327.629 54.2487 327.873 53.1765C328.165 51.9343 327.748 51.2345 326.566 50.8173C325.255 50.3849 324.158 49.4724 323.493 48.2635C322.881 47.1557 323.335 46.1129 323.905 45.1674C324.539 44.1441 325.229 43.1569 325.972 42.2103C326.974 40.9032 327.117 39.4293 326.848 37.8998C326.733 37.2648 326.176 37.1026 325.68 36.9172C322.26 35.6519 318.807 34.4607 315.414 33.1259C313.291 32.2869 311.892 30.572 310.83 28.6115C309.814 26.6853 309.113 24.6088 308.754 22.4609C308.471 20.8711 308.207 19.2628 307.78 17.7055C306.895 14.4611 304.999 11.8609 302.645 9.53414C299.832 6.85185 296.581 4.67124 293.032 3.08698C292.569 2.8645 292.105 2.6513 291.609 2.43809L291.66 2.2666C291.879 2.28643 292.094 2.32836 292.304 2.39174C296.939 4.19472 301.111 6.6744 304.545 10.3267C306.84 12.6615 308.469 15.5675 309.264 18.7437C309.565 20.0415 309.727 21.3671 310.061 22.6602C310.793 25.6868 311.817 28.6068 314.306 30.6601C315.3 31.4088 316.411 31.9897 317.592 32.3796C320.262 33.3762 322.974 34.2336 325.671 35.1606C325.926 35.244 326.19 35.2904 326.445 35.3692C327.905 35.8327 328.679 36.9867 328.823 38.5023C329.059 41.0284 327.896 42.9611 326.431 44.8244C326.007 45.4219 325.638 46.0563 325.328 46.7201C325.273 46.8062 325.236 46.9026 325.218 47.0036C325.201 47.1045 325.205 47.2078 325.229 47.3074C325.252 47.4069 325.296 47.5006 325.357 47.5829C325.418 47.6652 325.495 47.7343 325.583 47.7861C326.187 48.2569 326.845 48.6537 327.544 48.968C329.569 49.691 330.237 51.3179 329.94 53.4036C329.932 53.4621 329.918 53.5195 329.898 53.5751C330.438 54.0534 330.927 54.5862 331.358 55.1649C332.179 56.5553 331.692 57.9458 331.145 59.3363C330.705 60.444 329.903 61.5147 330.218 62.7522C330.557 63.9467 331.023 65.1012 331.608 66.196C332.257 67.4428 332.976 68.6061 332.999 70.1032C333.042 71.7247 332.442 73.2975 331.33 74.4786C329.69 76.3291 327.462 77.5583 325.022 77.9594C321.609 78.5218 318.148 78.7361 314.691 78.599C310.473 78.5017 306.246 78.4229 302.042 78.1355C299.31 77.9742 296.597 77.571 293.936 76.9304C291.195 76.1632 288.508 75.2124 285.894 74.0846C283.519 73.1124 281.276 71.8465 279.215 70.3164C276.529 68.2949 274.395 65.6299 273.009 62.5668C272.003 60.4035 271.318 58.1052 270.974 55.7442C270.596 52.9317 270.519 50.0865 270.747 47.2577C270.864 45.1687 271.126 43.0904 271.531 41.0377C272.152 37.923 272.921 34.8315 273.695 31.7678C274.33 29.2882 275.086 26.8455 275.813 24.3937C276.573 21.812 277.366 19.2397 278.108 16.6534C278.571 15.0914 278.965 13.5202 279.35 11.9397C279.813 10.0208 280.221 8.08805 280.657 6.15529L280.833 6.1831Z" fill="#016C55"/>
<path d="M315.478 92.4521C313.717 92.9805 311.97 93.5599 310.19 94.0233C308.623 94.4312 307.02 94.7093 305.43 95.0291C304.948 95.1248 304.46 95.1837 303.97 95.2052C301.027 95.3026 298.074 95.5668 295.163 95.4138C292.431 95.2418 289.717 94.8512 287.048 94.2458C280.665 92.8942 274.622 90.2644 269.282 86.5148C264.775 83.3966 260.945 79.3983 258.024 74.7606C254.743 69.4033 253.047 63.2257 253.134 56.944C253.15 53.8451 253.57 50.7614 254.385 47.7715C255.204 44.6228 256.29 41.5496 257.63 38.5851C259.523 34.5085 262.179 30.8317 265.454 27.7533C268.9 24.5099 271.866 20.7907 274.26 16.7083C274.293 16.6505 274.339 16.6011 274.395 16.5641C274.45 16.5271 274.514 16.5035 274.58 16.4951C274.555 16.6418 274.518 16.786 274.469 16.9262C272.735 20.4491 270.535 23.7229 267.929 26.6595C265.523 29.3755 262.979 31.985 261.139 35.1646C259.661 37.6566 258.499 40.3218 257.676 43.0995C257.009 45.417 256.286 47.7344 255.794 50.1168C255.138 53.3581 254.967 56.6789 255.285 59.9706C255.584 63.3052 256.423 66.569 257.769 69.6344C258.919 72.2217 260.381 74.6591 262.121 76.8927C265.574 81.2895 269.883 84.9398 274.788 87.6225C278.181 89.544 281.789 91.0577 285.537 92.1323C288 92.9061 290.531 93.4432 293.096 93.736C295.961 93.9863 298.83 94.3153 301.694 94.3153C304.097 94.261 306.492 94.0255 308.86 93.6108C310.941 93.2818 312.985 92.6838 315.043 92.2204C315.169 92.2064 315.296 92.2064 315.423 92.2204L315.478 92.4521Z" fill="#016C55"/>
<path d="M286.833 1.1076C285.845 1.01026 284.854 0.917563 283.866 0.815595C283.672 0.768866 283.476 0.733268 283.278 0.708987C280.781 0.616995 278.281 0.727042 275.802 1.03806C272.583 1.48545 269.42 2.262 266.36 3.35552C262.146 4.90367 258.163 7.02141 254.523 9.64974C250.982 12.1502 247.775 15.0924 244.979 18.4051C242.539 21.2813 240.461 24.4458 238.792 27.8279C237.494 30.3913 236.454 33.0773 235.686 35.8463C235.211 37.6291 234.869 39.4448 234.662 41.2784C234.397 43.5133 234.27 45.7624 234.282 48.0129C234.294 50.1056 234.478 52.1938 234.834 54.2562C235.873 59.8717 237.803 65.2853 240.548 70.293C242.195 73.3799 244.078 76.335 246.18 79.1317C247.649 81.0599 249.197 82.9277 250.708 84.828C250.978 85.1394 251.183 85.5019 251.311 85.8941C251.037 85.6345 250.731 85.4028 250.486 85.12C248.029 82.2974 245.48 79.5582 243.167 76.615C240.232 72.7928 237.817 68.5988 235.983 64.1424C234.793 61.4019 233.862 58.5561 233.202 55.642C232.266 51.2264 232.01 46.6937 232.442 42.2008C233.128 34.2565 235.997 27.1373 240.623 20.6762C242.783 17.6586 245.268 14.8873 248.034 12.4121C251.965 8.86652 256.432 5.96618 261.271 3.81901C264.398 2.40839 267.676 1.36177 271.041 0.699722C272.323 0.462553 273.616 0.300048 274.916 0.213048C276.919 0.0350133 278.931 -0.0315197 280.942 0.01375C282.925 0.111083 284.891 0.509693 286.865 0.773883L286.833 1.1076Z" fill="#016C55"/>
<path d="M301.373 86.1352C301.28 86.1842 301.18 86.2171 301.076 86.2326C299.385 86.177 297.693 86.1167 295.978 86.0379C295.357 86.0101 294.736 85.9313 294.124 85.871C291.539 85.5996 288.987 85.0749 286.504 84.3044C282.526 83.1847 278.787 81.3451 275.473 78.877C272.585 76.6568 270.217 73.9871 268.836 70.5619C268.516 69.774 268.317 68.9397 268.066 68.124L268.298 68.0312C268.613 68.5967 268.905 69.1761 269.225 69.7323C270.945 72.5181 273.222 74.9183 275.913 76.782C279.096 79.0503 282.609 80.8152 286.328 82.0148C289.109 82.9418 291.941 83.7251 294.773 84.4806C296.956 85.0646 299.176 85.5141 301.378 86.0194L301.373 86.1352Z" fill="#016C55"/>
<path d="M264.025 12.6299C259.546 16.153 255.785 20.5036 252.947 25.4454C250.125 30.4465 248.753 35.9157 247.849 41.5379C247.087 36.5776 247.774 31.5028 249.828 26.924C252.734 20.3609 257.355 15.4665 264.025 12.6299Z" fill="#016C55"/>
<path d="M305.799 19.7998C304.974 20.0038 304.145 20.217 303.315 20.407C300.91 20.9539 298.481 21.4174 296.108 22.0802C295.32 22.298 294.643 22.9701 293.971 23.5031C292.525 24.6479 291.121 25.8484 289.684 27.0025C289.457 27.1296 289.211 27.2189 288.956 27.2667L288.775 27.0488C289.281 26.196 289.739 25.3154 290.296 24.5043C291.223 23.1833 292.057 21.7511 293.54 21.0327C294.541 20.6194 295.582 20.3088 296.645 20.1057C297.129 20.0188 297.619 19.9738 298.11 19.9713L305.317 19.5078C305.462 19.5111 305.607 19.5281 305.748 19.5588L305.799 19.7998Z" fill="#016C55"/>
<path d="M294.88 37.0611C295.13 37.0333 295.385 36.9916 295.636 36.9823C297.286 36.9221 298.954 36.9823 300.586 36.7923C303.242 36.5379 305.762 35.4989 307.825 33.8074C308 33.652 308.219 33.5548 308.451 33.5293C308.408 33.8103 308.338 34.0866 308.243 34.3543C307.246 36.5327 305.462 37.798 303.251 38.4747C300.53 39.2998 297.925 38.878 295.432 37.5941C295.228 37.4875 295.042 37.3438 294.848 37.2187L294.88 37.0611Z" fill="#016C55"/>
</svg>
