<svg width="308" height="129" viewBox="0 0 308 129" fill="none" xmlns="http://www.w3.org/2000/svg">
<path d="M3.82555 91.7988C3.56754 91.4763 3.27727 91.1538 2.95476 90.8313C2.63225 90.5733 2.37424 90.283 2.18073 89.9605C2.24523 89.767 2.24523 89.5735 2.18073 89.38C2.05172 89.1865 1.82596 89.122 1.50345 89.1865C1.50345 89.0575 1.5357 88.9607 1.6002 88.8962C1.66471 88.8317 1.69696 88.7349 1.69696 88.6059C1.56795 88.5414 1.43895 88.5414 1.30994 88.6059C1.18094 88.7349 1.11643 88.7349 1.11643 88.6059C1.24544 88.2834 1.27769 88.0899 1.21319 88.0254C1.08418 87.9609 0.955177 87.8964 0.826172 87.8319C1.14869 86.7354 1.69696 85.8323 2.47099 85.1228C3.18052 84.4133 3.9868 83.9295 4.88984 83.6715C4.56733 83.8005 4.37382 83.994 4.30932 84.252C4.24481 84.51 4.14806 84.768 4.01905 85.026C4.08356 85.155 4.11581 85.3163 4.11581 85.5098C4.11581 85.7033 4.11581 85.8968 4.11581 86.0903L4.98659 86.8644C4.98659 87.6384 5.14785 88.2189 5.47036 88.6059C5.79288 88.993 6.21214 89.2832 6.72817 89.4767C7.17968 89.6702 7.72796 89.7992 8.37298 89.8637C9.01801 89.9282 9.63079 89.9927 10.2113 90.0572H10.4048C11.7594 90.0572 12.9527 89.9605 13.9847 89.767C15.0168 89.5735 16.0811 89.3477 17.1776 89.0897C17.3066 88.9607 17.4679 88.8962 17.6614 88.8962C17.9194 88.8962 18.1129 88.864 18.2419 88.7994C18.4999 88.6704 18.6934 88.5737 18.8224 88.5092C18.9514 88.4447 19.1127 88.3479 19.3062 88.2189C19.8867 88.0899 20.4995 87.8964 21.1445 87.6384C21.7895 87.3804 22.4346 87.1546 23.0796 86.9611C23.4021 86.8966 23.6279 86.7999 23.7569 86.6709C24.7889 86.1548 25.8855 85.5098 27.0465 84.7358C28.2721 83.9617 29.4654 83.22 30.6264 82.5104C31.1424 82.1879 31.6907 81.7687 32.2712 81.2526C32.8517 80.7366 33.3033 80.2528 33.6258 79.8013C34.5933 78.7693 35.4318 77.576 36.1414 76.2214C36.9154 74.8669 37.2702 73.2543 37.2057 71.3837C37.2702 70.0292 37.0122 68.8359 36.4316 67.8038C35.9156 66.7718 35.4641 65.6752 35.0771 64.5142C35.2706 64.7077 35.3996 64.998 35.4641 65.385C35.5931 65.7075 35.7544 65.9978 35.9479 66.2558C35.8189 65.4172 35.5286 64.6755 35.0771 64.0304C34.6901 63.3854 34.2708 62.7081 33.8193 61.9986C33.8193 62.1921 33.8838 62.4179 34.0128 62.6759C34.1418 62.9339 34.2385 63.1596 34.3031 63.3532C34.174 63.1596 34.045 62.9339 33.916 62.6759C33.787 62.4179 33.658 62.1599 33.529 61.9018C32.8195 60.9343 32.0455 59.9668 31.2069 58.9992C30.4329 57.9672 29.6266 57.0319 28.7881 56.1934L26.6595 53.968C26.5305 53.6455 26.5305 53.452 26.6595 53.3875C26.337 53.1295 26.0145 52.9037 25.6919 52.7102C25.4339 52.4522 25.2727 52.1619 25.2082 51.8394C24.1761 50.4849 23.0473 49.0336 21.8218 47.4855C20.5962 45.9374 19.7255 44.1636 19.2094 42.164C18.6934 40.2935 18.3064 38.3261 18.0484 36.262C17.7904 34.1334 18.1129 31.9081 19.0159 29.586C19.0804 29.2635 19.1772 28.9732 19.3062 28.7152C19.4352 28.3927 19.5642 28.0702 19.6932 27.7477C20.8542 25.4901 22.3378 23.3938 24.1439 21.4587C25.95 19.4591 27.8205 17.7498 29.7556 16.3307C30.0781 16.2017 30.3361 16.0727 30.5296 15.9437C30.7877 15.8147 31.0134 15.6534 31.2069 15.4599C31.9165 15.1374 32.5937 14.7826 33.2388 14.3956C33.8838 13.9441 34.5611 13.6216 35.2706 13.4281C36.7542 12.9766 38.2377 12.6218 39.7213 12.3638C41.2693 12.0413 42.8174 12.138 44.3655 12.6541L46.107 14.2989C46.4295 14.6214 46.7843 14.9439 47.1713 15.2664C47.5583 15.5244 47.9454 15.8469 48.3324 16.234C48.5259 16.363 48.6549 16.5887 48.7194 16.9112C48.8484 17.2338 49.0097 17.5885 49.2032 17.9755C49.4612 18.298 49.6224 18.6528 49.6869 19.0398C49.7514 19.4268 49.8482 19.7816 49.9772 20.1041C50.3642 21.1362 50.6222 22.2005 50.7512 23.297C50.8802 24.329 50.7835 25.4901 50.461 26.7801C50.074 28.0057 49.8482 28.9087 49.7837 29.4893C49.7192 30.0698 49.6224 30.7793 49.4934 31.6178C49.3644 32.0694 49.1709 32.4886 48.9129 32.8756C48.6549 33.2627 48.4936 33.6174 48.4291 33.9399C48.1066 34.7785 47.6228 35.101 46.9778 34.9075C46.3973 34.714 45.7523 34.3592 45.0427 33.8432C44.5267 33.5207 44.1397 33.2949 43.8817 33.1659C43.6882 32.9724 43.4624 32.6176 43.2044 32.1016C43.2689 31.8436 43.3334 31.5856 43.3979 31.3276C43.5269 31.0696 43.5592 30.8116 43.4947 30.5535C43.8172 29.7795 44.172 29.0055 44.559 28.2315C44.946 27.3929 45.2363 26.5221 45.4298 25.6191C45.4298 25.3611 45.3975 25.1676 45.333 25.0386C45.333 24.9096 45.3975 24.7806 45.5265 24.6516C45.5265 24.5226 45.591 24.2968 45.72 23.9743C45.849 23.5873 45.7845 23.3293 45.5265 23.2002C45.591 23.0712 45.6555 23.0067 45.72 23.0067C45.7845 22.9422 45.849 22.781 45.9135 22.523C45.9135 22.136 45.9135 21.7489 45.9135 21.3619C45.978 20.9749 45.9458 20.5879 45.8168 20.2009C45.8168 19.7494 45.591 19.3623 45.1395 19.0398C44.7525 18.6528 44.3977 18.298 44.0752 17.9755C43.5592 17.653 42.9464 17.4273 42.2369 17.2983C41.5919 17.1047 40.9146 17.137 40.205 17.395C37.4959 17.8465 34.9803 18.8463 32.6582 20.3944C30.4006 21.9424 28.4656 23.8775 26.853 26.1996C26.2725 27.2317 25.6274 28.5217 24.9179 30.0698C24.2084 31.5533 23.5956 33.0369 23.0796 34.5205C22.6926 35.746 22.5636 36.9716 22.6926 38.1971C22.8216 39.3582 23.1441 40.4225 23.6601 41.39C23.7246 43.0026 24.0794 44.4216 24.7244 45.6472C25.4339 46.8082 26.1435 48.0338 26.853 49.3238C28.2075 51.0009 29.6589 52.6135 31.2069 54.1615C32.755 55.7096 34.2708 57.2899 35.7544 58.9025C37.2379 60.515 38.657 62.1921 40.0115 63.9337C41.3661 65.6752 42.4949 67.5781 43.3979 69.6422C43.3979 69.6422 43.3979 69.7389 43.3979 69.9324V70.0292C43.9139 71.2547 44.1397 72.5448 44.0752 73.8993C44.0752 75.1894 43.8817 76.4794 43.4947 77.7695C43.1077 78.995 42.5916 80.1561 41.9466 81.2526C41.3016 82.4137 40.6243 83.3812 39.9148 84.1553L38.8505 84.7358C38.657 85.1228 38.399 85.4453 38.0765 85.7033C37.9475 85.8968 37.7862 86.0581 37.5927 86.1871C37.4637 86.3161 37.3992 86.4451 37.3992 86.5741C36.8187 86.8321 36.3349 87.1224 35.9479 87.4449C35.6254 87.7674 35.2061 88.0254 34.6901 88.2189C34.8191 88.3479 34.9158 88.3479 34.9803 88.2189C35.0448 88.0899 35.1416 88.0577 35.2706 88.1222C34.4966 89.0897 33.4968 89.767 32.2712 90.154C31.1102 90.6055 30.0459 91.186 29.0783 91.8956C27.9818 92.4116 26.7885 92.8631 25.4984 93.2501C24.2729 93.7017 23.0473 94.1854 21.8218 94.7014C21.4993 94.5079 21.209 94.5402 20.951 94.7982C20.8865 94.6047 20.7252 94.5079 20.4672 94.5079C20.2737 94.5079 20.0157 94.5079 19.6932 94.5079C19.4352 94.5724 19.1449 94.6369 18.8224 94.7014C18.4999 94.7659 18.2096 94.7337 17.9516 94.6047V94.4112C18.0161 94.2822 18.2096 94.1854 18.5322 94.1209C18.8547 94.0564 19.0482 94.1209 19.1127 94.3144C19.5642 94.2499 19.919 94.1532 20.177 94.0242C20.435 93.9597 20.7252 93.8952 21.0478 93.8307C21.0478 93.6371 21.2735 93.4759 21.725 93.3469C22.1766 93.2824 22.4346 93.1856 22.4991 93.0566C22.4991 92.9921 22.4991 92.9599 22.4991 92.9599C22.5636 92.9599 22.5958 92.9276 22.5958 92.8631V92.9599C22.7248 92.9599 22.7571 92.9276 22.6926 92.8631C22.6281 92.7986 22.6603 92.7664 22.7893 92.7664C22.9183 92.7664 22.9506 92.7664 22.8861 92.7664C22.8216 92.7664 22.7893 92.8309 22.7893 92.9599C22.9828 92.8309 23.1118 92.7986 23.1763 92.8631C23.3053 92.5406 23.6601 92.2826 24.2406 92.0891C24.8857 91.9601 25.4984 91.7343 26.079 91.4118C26.4015 91.2828 26.6272 91.057 26.7562 90.7345C26.8852 90.412 27.0143 90.1863 27.1433 90.0572C27.0143 90.0572 26.853 90.1218 26.6595 90.2508C26.466 90.3798 26.2725 90.4765 26.079 90.541C26.079 90.67 26.1112 90.7023 26.1757 90.6378C26.2402 90.6378 26.2725 90.7345 26.2725 90.928C25.4339 91.2506 24.5954 91.6053 23.7569 91.9923C22.9828 92.3793 22.1443 92.6696 21.2413 92.8631C21.2413 92.7986 21.4025 92.6696 21.725 92.4761C21.4025 92.3471 21.209 92.3148 21.1445 92.3793C21.1445 92.5083 21.08 92.5406 20.951 92.4761C21.0155 92.3471 21.1445 92.2503 21.338 92.1858C21.596 92.1213 21.7895 91.9923 21.9185 91.7988C22.3701 91.9278 22.7248 91.8311 22.9828 91.5086C23.3053 91.2505 23.6924 91.1538 24.1439 91.2183C24.5954 90.9603 24.9824 90.7668 25.3049 90.6378C25.6919 90.5088 26.1112 90.3153 26.5627 90.0572C26.9497 89.7347 27.498 89.509 28.2076 89.38C28.9171 89.251 29.5299 88.9607 30.0459 88.5092C29.9169 88.4447 29.7556 88.4447 29.5621 88.5092C29.3686 88.6382 29.2073 88.7349 29.0783 88.7994C29.2073 88.4124 29.5299 88.0899 30.0459 87.8319C30.5619 87.6384 30.9489 87.4126 31.2069 87.1546C31.5294 87.0256 31.7552 86.9289 31.8842 86.8644C32.0132 86.8644 32.239 86.8321 32.5615 86.7676C32.8195 86.1226 33.2388 85.7033 33.8193 85.5098C33.9483 85.2518 34.0773 85.026 34.2063 84.8325C34.3998 84.7035 34.5611 84.51 34.6901 84.252C34.5611 84.252 34.4321 84.252 34.3031 84.252C34.2385 84.3165 34.1418 84.3488 34.0128 84.3488C33.6903 84.7358 33.3678 85.026 33.0452 85.2195C32.7872 85.4776 32.5937 85.8323 32.4647 86.2838H32.0777C30.3361 87.2514 28.5623 88.1867 26.7562 89.0897C25.0147 89.9927 23.1118 90.8635 21.0478 91.7021L20.6607 92.1858C20.4672 92.3148 20.2415 92.3793 19.9835 92.3793C19.79 92.3793 19.5964 92.4438 19.4029 92.5729C19.3384 92.7019 19.3707 92.7664 19.4997 92.7664C19.6287 92.7664 19.6609 92.7664 19.5964 92.7664C19.3384 93.0889 18.9837 93.2824 18.5322 93.3469C18.1451 93.4759 17.8226 93.6694 17.5646 93.9274C16.9841 94.1209 16.3068 94.2177 15.5328 94.2177C14.8232 94.2177 14.1782 94.3144 13.5977 94.5079C13.4687 94.4434 13.2752 94.4757 13.0172 94.6047C12.7592 94.7982 12.5334 94.7337 12.3399 94.4112C11.4369 94.4112 10.4048 94.3144 9.24377 94.1209C8.08272 93.9919 7.17968 93.7662 6.53466 93.4436C6.14764 93.1211 5.79288 92.8954 5.47036 92.7664C5.08335 92.7019 4.79309 92.5084 4.59958 92.1858C4.40607 92.1213 4.27706 92.0246 4.21256 91.8956C4.14806 91.8311 4.01905 91.7988 3.82555 91.7988ZM24.0471 89.8637C24.1116 89.6702 24.1761 89.5735 24.2406 89.5735C24.7567 89.251 25.3372 88.8962 25.9822 88.5092C26.6272 88.1867 27.1433 87.7674 27.5303 87.2514C26.3692 87.7029 25.2082 88.1867 24.0471 88.7027C22.8861 89.2187 21.6605 89.6702 20.3705 90.0572H20.177C19.79 90.3153 19.3384 90.4765 18.8224 90.541C18.3709 90.67 17.9839 90.9925 17.6614 91.5086C17.8549 91.4441 18.0484 91.3796 18.2419 91.3151C18.4999 91.3151 18.6612 91.2828 18.7257 91.2183C18.8547 91.2828 18.8869 91.3151 18.8224 91.3151C18.7579 91.3796 18.7257 91.4763 18.7257 91.6053C18.5967 91.7343 18.4354 91.7988 18.2419 91.7988C18.0484 91.7988 17.8871 91.8633 17.7581 91.9923C18.0806 91.9923 18.2096 92.0568 18.1451 92.1858C18.7902 92.0568 19.4029 91.9278 19.9835 91.7988C20.6285 91.6698 21.209 91.4118 21.725 91.0248C21.854 91.0893 22.0153 91.057 22.2088 90.928C22.4668 90.799 22.6603 90.7023 22.7893 90.6378C22.7248 90.3153 22.8538 90.1218 23.1763 90.0572C23.4989 90.0572 23.7891 89.9927 24.0471 89.8637ZM6.14764 92.7664C6.08314 92.5729 6.01864 92.4438 5.95413 92.3793C5.82513 92.3793 5.72837 92.3148 5.66387 92.1858C5.53487 92.2503 5.40586 92.2503 5.27686 92.1858C5.08335 92.1213 4.98659 92.1536 4.98659 92.2826C5.2446 92.4116 5.47036 92.5084 5.66387 92.5729C5.85738 92.6374 6.01864 92.7019 6.14764 92.7664ZM4.50282 91.7988C4.43832 91.5408 4.30932 91.3796 4.11581 91.3151C3.9223 91.2506 3.72879 91.2183 3.53528 91.2183C3.79329 91.6053 4.11581 91.7988 4.50282 91.7988ZM32.6582 60.257C32.5937 59.999 32.368 59.7733 31.981 59.5797C32.11 59.7087 32.2067 59.8378 32.2712 59.9668C32.3357 60.0958 32.4647 60.1925 32.6582 60.257ZM1.89047 89.5735C2.01947 89.509 2.08397 89.6057 2.08397 89.8637L1.89047 89.5735Z" fill="#016C55"/>
<path d="M100.015 63.4499C100.015 63.5144 99.9826 63.5789 99.9181 63.6434C99.9181 63.6434 99.9181 63.6757 99.9181 63.7402V63.6434C99.7891 63.7724 99.7246 63.8369 99.7246 63.8369V63.9337C99.7246 63.9337 99.7891 63.9659 99.9181 64.0304C99.8536 64.1594 99.7891 64.2884 99.7246 64.4174C99.7246 64.5465 99.7569 64.7722 99.8214 65.0947C99.8214 65.1592 99.7891 65.1915 99.7246 65.1915H99.5311C99.5956 65.1915 99.6279 65.2237 99.6279 65.2882C99.6279 65.4817 99.6601 65.6107 99.7246 65.6752C99.4021 65.9333 99.2086 66.1913 99.1441 66.4493C99.0796 66.6428 98.9183 66.8685 98.6603 67.1266C98.5958 67.1266 98.5958 67.0943 98.6603 67.0298C98.7248 66.9653 98.7248 66.9008 98.6603 66.8363C98.4668 66.9653 98.3056 67.1911 98.1766 67.5136C98.112 67.8361 98.0153 68.1263 97.8863 68.3844C97.7573 68.7069 97.5315 68.8359 97.209 68.7714C96.951 68.6424 96.822 68.7391 96.822 69.0616C96.3705 69.3842 96.0802 69.6099 95.9512 69.7389C95.8867 69.8679 95.8222 69.9647 95.7577 70.0292C95.7577 70.0937 95.6287 70.2227 95.3707 70.4162C95.1772 70.5452 94.6934 70.8355 93.9194 71.287C93.4679 71.416 93.0486 71.5127 92.6616 71.5772C92.2746 71.5772 91.8875 71.7385 91.5005 72.061C91.5005 72.1255 91.4683 72.1578 91.4038 72.1578H91.307C91.178 72.3513 91.049 72.5125 90.92 72.6415L90.6297 72.9318C90.5652 72.9963 90.533 73.0608 90.533 73.1253C90.3395 73.0608 90.017 73.1253 89.5655 73.3188C89.1139 73.4478 88.8237 73.6091 88.6947 73.8026C88.5657 73.6736 88.4044 73.7058 88.2109 73.8993C88.0174 74.0283 87.9206 74.2541 87.9206 74.5766C87.8561 74.3186 87.7916 74.2219 87.7271 74.2864C87.7271 74.3509 87.6626 74.3831 87.5336 74.3831C87.3401 74.7701 87.0498 75.0281 86.6628 75.1571L86.9531 74.7701C86.6951 74.8346 86.4693 74.9314 86.2758 75.0604C86.0823 75.1894 85.8243 75.3184 85.5018 75.4474C85.5018 75.5119 85.6308 75.4796 85.8888 75.3506C85.6308 75.6732 85.3405 75.7699 85.018 75.6409C84.8245 75.6409 84.6632 75.7699 84.5342 76.0279C84.5342 75.9634 84.502 75.9312 84.4375 75.9312C84.4375 75.9312 84.4375 75.8989 84.4375 75.8344C84.373 75.9634 84.115 76.1247 83.6635 76.3182C83.2119 76.4472 82.7282 76.5762 82.2121 76.7052C81.6961 76.8342 81.2124 76.9632 80.7608 77.0922C80.3093 77.1567 80.0513 77.189 79.9868 77.189C78.8903 77.705 77.439 77.9308 75.6329 77.8662C73.8913 77.8017 72.3755 77.705 71.0854 77.576C70.4404 77.5115 69.8921 77.4792 69.4406 77.4792C69.0536 77.4792 68.6021 77.6405 68.0861 77.963H67.2153C66.5057 78.221 65.5705 78.2533 64.4094 78.0598C64.3449 78.1243 64.3127 78.1243 64.3127 78.0598V77.963C64.1837 78.0275 64.0869 78.092 64.0224 78.1565C64.0224 78.1565 63.9579 78.1565 63.8289 78.1565C63.9579 77.705 63.8289 77.5115 63.4419 77.576C63.1194 77.6405 62.9581 77.5437 62.9581 77.2857C62.7646 77.2857 62.6678 77.447 62.6678 77.7695C62.6033 77.7695 62.5066 77.6727 62.3776 77.4792C62.2486 77.2212 62.1518 77.1567 62.0873 77.2857C61.9583 77.2212 61.9906 77.0922 62.1841 76.8987C62.0551 76.8342 61.9906 76.7697 61.9906 76.7052C61.9906 76.5762 61.9261 76.4472 61.7971 76.3182C61.7326 76.1247 61.7648 75.9634 61.8938 75.8344H61.7003L61.5068 76.2214C61.5068 76.4149 61.539 76.5439 61.6036 76.6084C61.6681 76.673 61.7003 76.7697 61.7003 76.8987C61.7003 77.0277 61.6358 77.06 61.5068 76.9955C61.3778 76.8665 61.281 76.7697 61.2165 76.7052C60.7005 77.2857 60.2812 78.0598 59.9587 79.0273C59.7007 79.9948 59.3137 80.8979 58.7977 81.7364L57.3464 86.3806C57.2174 86.8966 56.9594 87.8642 56.5723 89.2832C56.1853 90.7023 55.7661 92.1858 55.3145 93.7339C54.863 95.282 54.4438 96.7333 54.0567 98.0878C53.6697 99.5069 53.3795 100.442 53.1859 100.894C53.0569 101.345 52.9279 101.764 52.7989 102.151C52.6699 102.603 52.5409 103.087 52.4119 103.603C52.4119 103.925 52.3797 104.216 52.3152 104.474C52.2507 104.796 52.1862 105.054 52.1217 105.248C52.3152 105.828 52.3474 106.409 52.2184 106.989C52.0894 107.118 51.9927 107.15 51.9281 107.086C51.8636 107.021 51.7669 106.989 51.6379 106.989C51.3154 106.989 51.0896 107.086 50.9606 107.279C50.8316 107.15 50.7026 107.118 50.5736 107.183C50.3801 107.247 50.2188 107.279 50.0898 107.279L49.9931 107.086C49.9286 107.086 49.8963 107.086 49.8963 107.086C49.8963 107.15 49.8641 107.183 49.7996 107.183L49.7028 107.279C49.3803 107.15 49.09 106.957 48.832 106.699C48.574 106.441 48.2837 106.28 47.9612 106.215C47.7677 106.086 47.542 106.022 47.284 106.022C46.9614 106.086 46.6712 106.086 46.4132 106.022C46.2842 105.893 46.2197 105.699 46.2197 105.441C46.1552 105.248 46.2197 105.086 46.4132 104.957C46.4777 104.506 46.5422 104.151 46.6067 103.893C46.6067 103.635 46.7357 103.474 46.9937 103.409C47.1872 102.893 47.3807 102.377 47.5742 101.861C47.7032 101.41 47.7677 100.894 47.7677 100.313C47.9612 99.2811 48.316 97.8298 48.832 95.9592C49.2835 94.0887 49.7996 92.1213 50.3801 90.0572C50.9606 88.0577 51.5089 86.1226 52.0249 84.252C52.5409 82.4459 52.9279 81.0269 53.1859 79.9948C53.702 79.0273 54.1212 77.963 54.4438 76.802C54.7663 75.5764 55.1533 74.3186 55.6048 73.0285C55.6048 72.964 55.6371 72.8995 55.7016 72.835C55.8306 72.706 55.9596 72.577 56.0886 72.448L57.3464 68.3844C57.7334 67.3523 58.1527 66.3525 58.6042 65.385C59.0557 64.3529 59.4427 63.3209 59.7652 62.2889L60.8295 59.096C61.2165 57.9994 61.5713 56.9029 61.8938 55.8063C62.2808 54.7098 62.7968 53.6778 63.4419 52.7102C63.8934 52.6457 64.3772 52.6457 64.8932 52.7102C65.4092 52.7102 65.893 52.807 66.3445 53.0005C66.796 53.194 67.1185 53.4842 67.312 53.8713C67.57 54.2583 67.6345 54.7743 67.5055 55.4193C67.441 56.0643 67.2153 56.6449 66.8283 57.1609C66.4412 57.6124 66.1832 58.1284 66.0542 58.709C65.9252 58.9025 65.8285 59.3217 65.764 59.9668C65.635 60.4828 65.4415 61.1278 65.1834 61.9018C64.9899 62.6114 64.7964 63.3209 64.6029 64.0304C64.8609 63.9014 65.1189 63.7402 65.377 63.5467C65.635 63.3531 65.8285 63.2564 65.9575 63.2564C65.9575 63.1274 65.9252 63.0629 65.8607 63.0629C66.3767 62.6114 66.8928 62.1276 67.4088 61.6116C67.9893 61.0956 68.5376 60.5795 69.0536 60.0635C69.2471 60.0635 69.3439 60.0635 69.3439 60.0635C69.2149 60.0635 69.1181 60.0958 69.0536 60.1603C68.9891 60.2248 69.0214 60.3215 69.1504 60.4505C69.2149 60.386 69.2794 60.3538 69.3439 60.3538C69.4084 60.2893 69.4084 60.1925 69.3439 60.0635V59.9668C69.3439 59.8378 69.3761 59.6765 69.4406 59.483C69.5696 59.8055 69.7309 59.8378 69.9244 59.5797C70.1824 59.2572 70.3759 59.096 70.5049 59.096C70.4404 58.838 70.6339 58.6122 71.0854 58.4187C71.2144 58.4832 71.3435 58.4509 71.4725 58.3219C71.666 58.1929 71.7305 57.9672 71.666 57.6447C71.7305 57.7737 71.7627 57.9349 71.7627 58.1284C71.8272 57.9994 71.8917 57.8704 71.9562 57.7414C72.0207 57.6124 72.1175 57.4834 72.2465 57.3544C72.1175 57.3544 72.0852 57.3222 72.1497 57.2576C72.4722 57.1286 72.7625 56.9674 73.0205 56.7739C73.2785 56.5804 73.5688 56.3546 73.8913 56.0966V56.1934C74.0203 55.8063 74.5041 55.4838 75.3426 55.2258C76.1811 54.9033 76.7294 54.5163 76.9874 54.0648C77.568 54.1293 77.9872 54.0003 78.2452 53.6778H78.4387C79.1483 53.2907 79.9546 53.0327 80.8576 52.9037C81.7606 52.7102 82.6314 52.7425 83.47 53.0005C83.47 53.065 83.5345 53.1617 83.6635 53.2907C83.7925 53.1617 83.8892 53.1295 83.9537 53.194C84.0827 53.194 84.244 53.2585 84.4375 53.3875C84.373 53.5165 84.3407 53.581 84.3407 53.581C84.3407 53.5165 84.3085 53.5487 84.244 53.6778C85.4695 53.8068 86.1791 54.355 86.3726 55.3226C86.6306 56.2256 86.6628 57.3222 86.4693 58.6122C86.4693 58.8057 86.5338 58.838 86.6628 58.709C86.6628 58.838 86.6628 58.9992 86.6628 59.1927C86.6628 59.3862 86.5983 59.483 86.4693 59.483C86.5983 60.386 86.4048 61.1601 85.8888 61.8051C85.4373 62.3856 85.1793 62.9984 85.1148 63.6434C84.7278 64.3529 84.244 64.9012 83.6635 65.2882C83.0829 65.6752 82.6314 66.2235 82.3089 66.933C82.3089 67.0621 82.3734 67.0621 82.5024 66.933C82.2444 67.3846 81.9864 67.8683 81.7284 68.3844C81.5349 68.8359 81.1801 69.1261 80.6641 69.2551C80.4061 69.8357 80.0513 70.2872 79.5998 70.6097C79.2128 70.8677 78.9548 71.158 78.8258 71.4805C78.3742 71.9965 77.7292 72.6093 76.8907 73.3188C76.0521 73.9638 75.4716 74.4476 75.1491 74.7701C75.4071 74.7056 75.9231 74.6089 76.6972 74.4799C77.5357 74.2864 78.4065 74.1251 79.3095 73.9961C80.2771 73.8026 81.1478 73.6091 81.9219 73.4156C82.6959 73.2221 83.2442 73.0286 83.5667 72.835C84.5987 72.448 85.792 71.8998 87.1466 71.1902C88.5657 70.4807 89.7912 69.9324 90.8233 69.5454H91.1135C91.178 69.2229 91.2748 69.0616 91.4038 69.0616C91.5328 69.0616 91.6618 68.9326 91.7908 68.6746C92.1133 68.6746 92.4358 68.5779 92.7583 68.3844C93.0808 68.1908 93.4034 68.0296 93.7259 67.9006C93.7904 67.9651 93.7581 68.0296 93.6291 68.0941C93.5646 68.1586 93.5324 68.2231 93.5324 68.2876C93.9194 68.1586 94.2096 68.0296 94.4031 67.9006C94.6612 67.7071 94.9514 67.5458 95.2739 67.4168H95.3707C95.5642 67.4168 95.6287 67.3201 95.5642 67.1266C95.8222 66.933 95.919 66.8363 95.8545 66.8363C95.8545 66.7718 95.8222 66.7395 95.7577 66.7395C95.6932 66.7395 95.6287 66.7395 95.5642 66.7395C95.5642 66.675 95.7255 66.5783 96.048 66.4493V66.6428C96.177 66.3848 96.306 66.2235 96.435 66.159C96.6285 66.03 96.7897 65.8043 96.9188 65.4817C96.9188 65.4817 97.08 65.4817 97.4025 65.4817C97.4025 65.3527 97.3703 65.2882 97.3058 65.2882C97.3058 65.2882 97.3058 65.3205 97.3058 65.385C97.1768 65.256 97.1445 65.1915 97.209 65.1915C97.338 65.1915 97.467 65.127 97.596 64.998C97.854 64.2884 98.1121 63.9014 98.3701 63.8369C98.6926 63.7079 99.1118 63.4499 99.6279 63.0629C99.6279 63.2564 99.6601 63.3209 99.7246 63.2564C99.7891 63.1919 99.8536 63.1596 99.9181 63.1596C99.9181 63.2886 99.8859 63.4177 99.8214 63.5467C99.7569 63.6112 99.7246 63.7079 99.7246 63.8369C99.8536 63.5789 99.9504 63.4499 100.015 63.4499ZM70.2147 72.2545C70.2792 72.19 70.3114 72.061 70.3114 71.8675C71.0209 71.4805 71.7305 70.9967 72.44 70.4162C73.214 69.8357 73.9558 69.2229 74.6653 68.5779C74.9233 68.3844 75.1169 68.1909 75.2459 67.9973C75.4394 67.7393 75.6006 67.4813 75.7296 67.2233C75.7941 67.2233 75.8264 67.2233 75.8264 67.2233C75.8909 67.1588 75.9554 67.1266 76.0199 67.1266C76.1489 66.675 76.3747 66.288 76.6972 65.9655C77.0842 65.643 77.4067 65.3205 77.6647 64.998C77.6647 64.998 77.6325 64.9657 77.568 64.9012C77.697 64.6432 77.826 64.4497 77.955 64.3207C78.084 64.1917 78.1807 63.9659 78.2452 63.6434C78.4387 63.6434 78.5355 63.5789 78.5355 63.4499C78.6 63.3209 78.6645 63.2564 78.729 63.2564C79.3095 62.0953 79.9223 60.9988 80.5673 59.9668C81.2769 58.8702 81.6639 57.4834 81.7284 55.8063C81.3414 55.8063 81.0511 55.9353 80.8576 56.1934C80.6641 56.3869 80.3738 56.4514 79.9868 56.3869C79.9223 56.4514 79.6643 56.4836 79.2128 56.4836C78.9548 56.8706 78.6968 57.0964 78.4387 57.1609C78.2452 57.2254 78.084 57.3222 77.955 57.4512C77.955 57.3867 77.8582 57.3544 77.6647 57.3544C77.5357 57.4189 77.4067 57.5479 77.2777 57.7414C77.2132 57.9349 77.0519 57.9349 76.7939 57.7414C76.7939 57.9994 76.7294 58.1929 76.6004 58.3219C76.5359 58.3864 76.4069 58.4509 76.2134 58.5155C76.0844 58.5155 75.9554 58.5477 75.8264 58.6122C75.6974 58.6767 75.6329 58.8057 75.6329 58.9992L75.4394 58.8057C75.3104 58.9347 75.2781 59.0637 75.3426 59.1927C75.4071 59.2572 75.3426 59.2572 75.1491 59.1927V59.096C74.9556 59.096 74.8588 59.1605 74.8588 59.2895C74.7943 59.354 74.7943 59.4185 74.8588 59.483C74.5363 59.8055 74.2783 60.0958 74.0848 60.3538C73.8913 60.6118 73.6333 60.8053 73.3108 60.9343C73.3108 60.8698 73.3108 60.8375 73.3108 60.8375C73.3753 60.773 73.4075 60.7085 73.4075 60.644C73.2785 60.5795 73.1818 60.6118 73.1173 60.7408C73.1173 60.8053 73.085 60.8375 73.0205 60.8375V60.7408C72.7625 60.9343 72.5045 61.0956 72.2465 61.2246C72.053 61.3536 71.8917 61.5793 71.7627 61.9018C71.8272 61.9663 71.8917 61.9663 71.9562 61.9018C72.0207 61.7728 72.053 61.7728 72.053 61.9018C71.924 62.3534 71.7305 62.6759 71.4725 62.8694C71.2789 62.9984 71.0209 63.2241 70.6984 63.5467C70.6984 63.4822 70.6662 63.4499 70.6017 63.4499C70.7307 63.1919 70.9242 63.0306 71.1822 62.9661C71.4402 62.8371 71.4725 62.6436 71.2789 62.3856C70.7629 62.7726 70.4082 63.4177 70.2147 64.3207C69.8921 64.3207 69.6664 64.4819 69.5374 64.8045C69.4729 65.0625 69.3439 65.256 69.1504 65.385C69.1504 65.256 69.1181 65.1915 69.0536 65.1915C69.0536 65.1915 69.0536 65.1592 69.0536 65.0947C68.7956 65.8042 68.4086 66.3848 67.8926 66.8363C67.441 67.2233 67.0863 67.7716 66.8283 68.4811V68.1908C66.6348 68.4489 66.3767 68.8359 66.0542 69.3519C65.7962 69.8679 65.5382 70.0614 65.2802 69.9324C65.2802 70.0614 65.2479 70.1904 65.1834 70.3194C65.1834 70.3839 65.1834 70.4484 65.1834 70.5129C64.9254 70.4484 64.7642 70.5129 64.6997 70.7065C64.6997 70.9 64.6352 70.9322 64.5062 70.8032C64.5062 70.9322 64.4739 71.029 64.4094 71.0935C64.4094 71.0935 64.4417 71.1902 64.5062 71.3837C65.0222 71.4482 65.506 71.7062 65.9575 72.1578C66.409 72.6093 66.8605 72.964 67.312 73.2221H68.2796C68.2796 73.2221 68.2796 73.1898 68.2796 73.1253C68.3441 72.9963 68.4731 72.964 68.6666 73.0285C68.8601 73.0285 69.0214 72.9963 69.1504 72.9318C69.1504 72.9318 69.1504 73.0286 69.1504 73.2221C69.4729 73.0931 69.7631 72.9963 70.0211 72.9318C70.2792 72.8028 70.5694 72.6093 70.8919 72.3513C70.5694 72.3513 70.3114 72.448 70.1179 72.6415C69.9889 72.7705 69.7631 72.8028 69.4406 72.7383C69.5696 72.4158 69.8276 72.2545 70.2147 72.2545ZM65.0867 77.2857C65.1512 77.0922 65.0867 76.9955 64.8932 76.9955C64.7642 77.06 64.6674 77.1245 64.6029 77.189C64.6029 77.2535 64.5707 77.318 64.5062 77.3825C64.3772 77.5115 64.3127 77.4792 64.3127 77.2857C64.1837 77.6082 64.0547 77.7695 63.9256 77.7695C63.9256 77.834 63.9579 77.8662 64.0224 77.8662C64.1514 77.8662 64.2482 77.834 64.3127 77.7695C64.4417 77.705 64.6029 77.7372 64.7964 77.8662C65.0544 77.9953 65.1834 77.963 65.1834 77.7695C65.1834 77.6405 65.1834 77.6082 65.1834 77.6727C65.1834 77.7372 65.1512 77.6405 65.0867 77.3825C65.4092 77.576 65.6672 77.6405 65.8607 77.576C66.1187 77.5115 66.409 77.5115 66.7315 77.576C66.7315 77.3825 66.8283 77.2535 67.0218 77.189C67.2153 77.1245 67.3765 77.0277 67.5055 76.8987C66.8605 76.8342 66.3767 76.8342 66.0542 76.8987C65.7962 76.8987 65.4737 77.0277 65.0867 77.2857ZM71.1822 73.1253C70.7307 72.9963 70.4082 73.1253 70.2147 73.5123C70.0211 73.8348 69.7631 73.9638 69.4406 73.8993C69.7631 74.0928 70.0534 74.1573 70.3114 74.0928C70.6339 74.0283 70.9242 73.8993 71.1822 73.7058C71.5047 73.4478 71.795 73.1576 72.053 72.835C72.3755 72.5125 72.698 72.2545 73.0205 72.061C72.6335 72.061 72.2465 72.2223 71.8595 72.5448C71.537 72.8028 71.3112 72.9963 71.1822 73.1253ZM71.2789 61.7083C70.6984 61.9018 70.4082 62.2244 70.4082 62.6759C71.3112 61.6438 72.2787 60.7408 73.3108 59.9668C74.3428 59.1282 75.4071 58.2574 76.5037 57.3544C75.6006 57.9349 74.6976 58.6122 73.7946 59.3862C72.8915 60.1603 72.053 60.9343 71.2789 61.7083ZM70.2147 60.8375C70.2147 60.8375 70.2147 60.773 70.2147 60.644C69.6986 61.0956 69.1826 61.5148 68.6666 61.9018C68.2151 62.2889 67.8281 62.7726 67.5055 63.3532L70.2147 60.8375ZM68.6666 77.2857C68.4731 77.2212 68.2473 77.2212 67.9893 77.2857C67.7313 77.3502 67.4733 77.3825 67.2153 77.3825C67.4088 77.3825 67.6668 77.447 67.9893 77.576C68.3118 77.705 68.5376 77.6082 68.6666 77.2857ZM69.1504 65.0947C69.4084 65.0302 69.5374 64.7722 69.5374 64.3207C69.4084 64.3207 69.2794 64.5787 69.1504 65.0947ZM74.1816 56.0966C74.4396 55.9676 74.6331 55.8708 74.7621 55.8063C74.9556 55.6773 75.1169 55.5483 75.2459 55.4193C75.1169 55.3548 74.9233 55.4193 74.6653 55.6128C74.4718 55.8063 74.3106 55.9676 74.1816 56.0966ZM69.5374 63.4499C69.5374 63.5144 69.6341 63.4499 69.8276 63.2564C70.0856 63.0629 70.1502 62.9016 70.0211 62.7726C69.6986 62.9661 69.5374 63.1919 69.5374 63.4499ZM82.0186 53.194C82.1476 53.194 82.2444 53.2585 82.3089 53.3875C82.4379 53.452 82.5669 53.3875 82.6959 53.194C82.5024 53.2585 82.3412 53.2262 82.2121 53.0972C82.0831 52.9682 82.0186 53.0005 82.0186 53.194ZM94.7902 69.2551C95.0482 69.2551 95.1772 69.0616 95.1772 68.6746C94.8547 68.8681 94.7257 69.0616 94.7902 69.2551ZM98.3701 66.0623C98.1121 66.4493 98.0153 66.804 98.0798 67.1266C98.0798 66.804 98.1443 66.5783 98.2733 66.4493C98.4668 66.3203 98.4991 66.1913 98.3701 66.0623ZM65.764 68.2876C65.9575 68.2876 66.0542 68.0618 66.0542 67.6103C65.9252 67.7393 65.7962 67.8683 65.6672 67.9973C65.6027 68.0618 65.635 68.1586 65.764 68.2876ZM73.0205 71.674C73.1495 71.7385 73.214 71.7062 73.214 71.5772C73.2785 71.3837 73.3108 71.2547 73.3108 71.1902C73.1173 71.1902 73.0205 71.3515 73.0205 71.674ZM66.3445 67.3201C66.409 67.2556 66.4735 67.1911 66.538 67.1266C66.667 67.0621 66.667 66.9653 66.538 66.8363C66.538 66.9008 66.4735 66.9653 66.3445 67.0298C66.2155 67.0943 66.2155 67.1911 66.3445 67.3201ZM68.1828 64.7077C68.2473 64.5787 68.3441 64.5142 68.4731 64.5142C68.6021 64.4497 68.6666 64.3529 68.6666 64.2239C68.5376 64.2884 68.3763 64.3529 68.1828 64.4174C68.0538 64.482 68.0538 64.5787 68.1828 64.7077ZM64.6029 75.7377C64.6674 75.8022 64.7642 75.8344 64.8932 75.8344C65.0867 75.8344 65.1834 75.7699 65.1834 75.6409C65.0544 75.6409 64.8932 75.6409 64.6997 75.6409C64.5707 75.6409 64.5384 75.6732 64.6029 75.7377ZM66.7315 77.963C66.8605 78.0275 66.925 77.963 66.925 77.7695C66.9895 77.576 67.054 77.447 67.1185 77.3825H67.0218C67.0218 77.6405 66.9573 77.7372 66.8283 77.6727C66.7638 77.5437 66.7315 77.6405 66.7315 77.963ZM73.0205 57.9349C73.085 57.7414 73.214 57.6124 73.4075 57.5479C73.601 57.4189 73.7623 57.2899 73.8913 57.1609C73.7623 57.2899 73.5688 57.4189 73.3108 57.5479C73.1173 57.6124 73.0205 57.7414 73.0205 57.9349ZM73.8913 56.1934C73.8268 56.3224 73.73 56.4191 73.601 56.4836C73.5365 56.5481 73.472 56.6449 73.4075 56.7739C73.5365 56.7739 73.601 56.7094 73.601 56.5804C73.6655 56.3869 73.7623 56.3224 73.8913 56.3869V56.1934ZM73.9881 57.1609C74.2461 57.1609 74.3751 57.0641 74.3751 56.8706C74.3106 56.8706 74.1816 56.9674 73.9881 57.1609ZM71.3757 57.9349C71.4402 58.1284 71.3757 58.2252 71.1822 58.2252L71.3757 57.9349ZM66.925 63.8369C66.8605 63.8369 66.7638 63.9014 66.6348 64.0304C66.9573 64.0304 67.054 63.9659 66.925 63.8369ZM99.9181 64.0304C99.9181 63.9659 99.9181 63.9337 99.9181 63.9337C99.9826 63.9337 99.9826 63.8692 99.9181 63.7402V64.0304ZM69.3439 72.7383H69.4406C69.3761 72.8028 69.3439 72.8673 69.3439 72.9318V72.7383ZM82.5992 66.7395C82.5992 66.8685 82.5669 66.933 82.5024 66.933L82.5992 66.7395ZM69.3439 72.9318C69.3439 72.9963 69.3116 73.0285 69.2471 73.0285L69.3439 72.9318Z" fill="#016C55"/>
<path d="M138.16 69.7389C137.838 69.6744 137.547 69.8357 137.289 70.2227C137.031 70.5452 136.773 70.8677 136.515 71.1902C136.515 71.1257 136.548 71.029 136.612 70.9C136.096 71.287 135.612 71.7062 135.161 72.1578C134.709 72.5448 134.225 72.9963 133.709 73.5123H133.516V73.4156C133.387 73.5446 133.226 73.7058 133.032 73.8993C132.903 74.0928 132.742 74.1251 132.548 73.9961C132.226 74.1896 131.968 74.4154 131.774 74.6734C131.645 74.9314 131.452 75.0926 131.194 75.1571C130.871 75.4797 130.613 75.7377 130.42 75.9312C130.226 76.0602 129.936 76.2859 129.549 76.6084C129.549 76.5439 129.485 76.5117 129.356 76.5117C129.162 76.7697 128.743 76.9632 128.098 77.0922C127.388 77.4792 126.743 77.8985 126.163 78.35C125.647 78.737 125.098 78.9305 124.518 78.9305C123.937 78.995 123.518 79.0595 123.26 79.124C123.002 79.1886 122.712 79.1886 122.389 79.124C121.873 79.124 121.228 79.2531 120.454 79.5111C119.68 79.8336 119.035 79.8981 118.519 79.7046C118.39 79.3821 118.164 79.1563 117.842 79.0273C117.519 78.8338 117.197 78.6725 116.874 78.5435C116.616 78.4145 116.423 78.1243 116.294 77.6727C115.584 77.2212 115.068 76.5762 114.746 75.7377C114.423 74.8346 114.23 73.8348 114.165 72.7383C114.165 71.5772 114.262 70.3839 114.455 69.1584C114.649 67.9328 114.907 66.7395 115.229 65.5785C114.326 66.288 113.456 67.1588 112.617 68.1908C111.779 69.1584 110.94 70.0937 110.101 70.9967C109.779 71.5772 109.424 72.061 109.037 72.448C108.65 72.835 108.263 73.1898 107.876 73.5123C106.78 74.8024 105.748 75.9312 104.78 76.8987C104.78 76.9632 104.748 77.0277 104.683 77.0922C104.683 77.0922 104.651 77.1567 104.587 77.2857C104.07 77.6727 103.49 78.1243 102.845 78.6403C102.2 79.1563 101.523 79.5756 100.813 79.8981C100.168 80.2851 99.4585 80.5109 98.6845 80.5754C97.975 80.6399 97.2332 80.3819 96.4592 79.8013C96.0076 79.7368 95.6851 79.6078 95.4916 79.4143C95.3626 79.1563 95.1369 78.9305 94.8143 78.737C94.1048 78.4145 93.6856 78.0275 93.5565 77.576C93.363 77.1245 93.234 76.4472 93.1695 75.5442C93.105 75.0926 93.1695 74.5121 93.363 73.8026C93.492 73.0931 93.6856 72.4803 93.9436 71.9643C94.2661 70.7387 94.7498 69.6099 95.3949 68.5779C96.0399 67.4813 96.6527 66.4815 97.2332 65.5785C98.3297 64.0949 99.4263 62.7404 100.523 61.5148C101.684 60.2248 102.877 58.967 104.103 57.7414C104.49 57.5479 104.877 57.2899 105.264 56.9674C105.715 56.6449 106.199 56.3869 106.715 56.1934C107.038 56.3224 107.392 56.2579 107.779 55.9998C108.166 55.6773 108.489 55.7418 108.747 56.1934C110.101 56.3224 111.295 56.6449 112.327 57.1609C113.359 57.6769 114.068 58.5155 114.455 59.6765C114.907 59.354 115.326 59.0637 115.713 58.8057C116.1 58.5477 116.519 58.3542 116.971 58.2252C117.165 58.1607 117.326 58.0317 117.455 57.8382C117.584 57.6447 117.713 57.5479 117.842 57.5479C118.487 57.4189 119.067 57.5479 119.583 57.9349C120.164 58.3219 120.712 58.6445 121.228 58.9025C121.293 58.838 121.357 58.838 121.422 58.9025C121.551 58.9025 121.712 58.8702 121.905 58.8057C122.034 58.9992 122.131 59.1605 122.196 59.2895C122.26 59.354 122.325 59.483 122.389 59.6765C122.518 60.8375 122.357 62.0953 121.905 63.4499C121.518 64.8045 121.067 65.9333 120.551 66.8363C120.293 68.3199 119.938 69.9324 119.487 71.674C119.035 73.4156 119.003 74.9314 119.39 76.2214C121.647 75.9634 123.518 75.4151 125.002 74.5766C126.55 73.6736 128.098 72.8028 129.646 71.9643C130.226 71.5127 130.742 71.1257 131.194 70.8032C131.71 70.4807 132.194 70.0614 132.645 69.5454C132.71 69.5454 132.774 69.5777 132.839 69.6422V69.7389C133.161 69.7389 133.806 69.3519 134.774 68.5779C135.741 67.7393 136.709 66.9008 137.676 66.0623C138.708 65.1592 139.644 64.3852 140.482 63.7402C141.385 63.0951 141.901 62.8694 142.03 63.0629C142.159 63.1919 142.321 63.2241 142.514 63.1596C142.708 63.0306 142.869 62.9984 142.998 63.0629C143.062 63.1919 143.062 63.2886 142.998 63.3532C142.998 63.4177 143.03 63.4822 143.095 63.5467V63.3532C143.159 63.3532 143.159 63.4499 143.095 63.6434C143.03 63.7724 142.966 63.9337 142.901 64.1272C142.837 64.2562 142.772 64.3529 142.708 64.4174C142.643 64.482 142.643 64.4174 142.708 64.2239C142.579 64.3529 142.417 64.5142 142.224 64.7077C142.095 64.8367 141.966 64.9657 141.837 65.0947C141.708 65.4172 141.611 65.643 141.547 65.772C141.547 65.901 141.482 66.1268 141.353 66.4493C141.16 66.4493 141.031 66.417 140.966 66.3525C140.837 66.675 140.643 66.9008 140.385 67.0298C140.192 67.1588 140.031 67.4168 139.902 67.8038C139.773 67.8038 139.644 67.9651 139.515 68.2876L138.16 69.7389ZM111.746 61.4181C111.617 60.5795 111.359 59.87 110.972 59.2895C110.65 58.709 110.037 58.6445 109.134 59.096L107.586 60.8375C107.457 61.0311 107.296 61.1923 107.102 61.3213C106.909 61.3858 106.747 61.4826 106.618 61.6116C106.489 61.7406 106.36 61.9341 106.231 62.1921C106.102 62.3856 105.941 62.6114 105.748 62.8694L104.393 64.4174C103.683 65.3205 102.974 66.3525 102.264 67.5136C101.619 68.6101 101.039 69.6744 100.523 70.7065C100.394 71.029 100.233 71.3192 100.039 71.5772C99.8456 71.8352 99.6843 72.2223 99.5553 72.7383C99.4263 72.6738 99.3618 72.706 99.3618 72.835C99.3618 72.8995 99.3295 72.8995 99.265 72.835C99.136 73.5446 98.9103 74.1573 98.5878 74.6734C98.2652 75.1249 98.104 75.7377 98.104 76.5117C98.62 76.1892 99.1683 75.8667 99.7488 75.5442C100.329 75.2216 100.813 74.8669 101.2 74.4799C103.071 72.6738 104.845 70.8032 106.522 68.8681C108.263 66.8685 109.972 64.8367 111.65 62.7726C111.843 62.6436 112.004 62.4824 112.133 62.2889C112.262 62.0308 112.424 61.8696 112.617 61.8051V61.6116C112.488 61.4826 112.198 61.4181 111.746 61.4181Z" fill="#016C55"/>
<path d="M129.697 104.978V102.444H143.994V104.978H138.183V128.504H135.526V104.978H129.697Z" fill="#4D4D4D"/>
<path d="M146.385 109.229H148.919V112.046C149.674 110.936 150.472 110.109 151.31 109.566C152.149 109.011 153.023 108.733 153.932 108.733C154.617 108.733 155.349 108.952 156.129 109.389L154.836 111.479C154.316 111.255 153.879 111.143 153.525 111.143C152.698 111.143 151.901 111.485 151.133 112.17C150.365 112.843 149.781 113.894 149.379 115.323C149.072 116.422 148.919 118.642 148.919 121.984V128.504H146.385V109.229Z" fill="#4D4D4D"/>
<path d="M174.464 122.108L176.555 123.207C175.87 124.553 175.078 125.64 174.181 126.466C173.283 127.293 172.273 127.925 171.151 128.362C170.029 128.787 168.76 129 167.343 129C164.201 129 161.745 127.972 159.973 125.917C158.201 123.85 157.316 121.518 157.316 118.92C157.316 116.475 158.066 114.296 159.566 112.383C161.467 109.95 164.012 108.733 167.201 108.733C170.484 108.733 173.106 109.979 175.067 112.471C176.46 114.231 177.169 116.428 177.192 119.061H159.867C159.914 121.305 160.628 123.148 162.01 124.589C163.392 126.018 165.099 126.732 167.13 126.732C168.11 126.732 169.061 126.561 169.982 126.218C170.915 125.876 171.707 125.421 172.356 124.854C173.006 124.287 173.708 123.372 174.464 122.108ZM174.464 116.918C174.134 115.595 173.649 114.538 173.012 113.747C172.386 112.955 171.553 112.318 170.514 111.833C169.474 111.349 168.382 111.107 167.236 111.107C165.347 111.107 163.723 111.715 162.365 112.932C161.373 113.818 160.623 115.146 160.115 116.918H174.464Z" fill="#4D4D4D"/>
<path d="M201.037 109.229V128.504H198.593V125.191C197.553 126.455 196.384 127.405 195.085 128.043C193.798 128.681 192.386 129 190.851 129C188.123 129 185.79 128.014 183.853 126.041C181.928 124.057 180.966 121.648 180.966 118.813C180.966 116.038 181.94 113.664 183.889 111.692C185.838 109.719 188.182 108.733 190.922 108.733C192.505 108.733 193.934 109.07 195.209 109.743C196.496 110.416 197.624 111.426 198.593 112.772V109.229H201.037ZM191.117 111.125C189.735 111.125 188.459 111.467 187.29 112.152C186.121 112.826 185.188 113.776 184.491 115.005C183.806 116.233 183.464 117.532 183.464 118.902C183.464 120.26 183.812 121.559 184.509 122.799C185.206 124.039 186.139 125.008 187.308 125.705C188.489 126.39 189.753 126.732 191.099 126.732C192.457 126.732 193.745 126.39 194.961 125.705C196.178 125.02 197.111 124.093 197.76 122.923C198.421 121.754 198.752 120.437 198.752 118.973C198.752 116.741 198.014 114.875 196.538 113.375C195.073 111.875 193.266 111.125 191.117 111.125Z" fill="#4D4D4D"/>
<path d="M208.797 102.072H211.295V109.229H215.228V111.355H211.295V128.504H208.797V111.355H205.413V109.229H208.797V102.072Z" fill="#4D4D4D"/>
<path d="M218.912 109.229H221.375V112.56C222.237 111.332 223.123 110.434 224.032 109.867C225.284 109.111 226.601 108.733 227.983 108.733C228.916 108.733 229.801 108.916 230.64 109.282C231.479 109.649 232.164 110.139 232.695 110.753C233.226 111.355 233.687 112.223 234.077 113.357C234.904 111.845 235.937 110.7 237.177 109.92C238.417 109.129 239.752 108.733 241.181 108.733C242.515 108.733 243.69 109.07 244.706 109.743C245.734 110.416 246.495 111.355 246.991 112.56C247.487 113.764 247.735 115.571 247.735 117.981V128.504H245.202V117.981C245.202 115.914 245.055 114.497 244.759 113.729C244.464 112.95 243.956 112.324 243.236 111.851C242.527 111.379 241.677 111.143 240.685 111.143C239.48 111.143 238.376 111.497 237.372 112.206C236.38 112.914 235.654 113.859 235.193 115.04C234.732 116.221 234.502 118.193 234.502 120.957V128.504H232.04V118.636C232.04 116.31 231.892 114.733 231.597 113.906C231.313 113.068 230.811 112.4 230.091 111.904C229.37 111.397 228.514 111.143 227.522 111.143C226.377 111.143 225.302 111.491 224.298 112.188C223.306 112.873 222.568 113.8 222.083 114.969C221.611 116.138 221.375 117.928 221.375 120.337V128.504H218.912V109.229Z" fill="#4D4D4D"/>
<path d="M269.207 122.108L271.297 123.207C270.612 124.553 269.821 125.64 268.923 126.466C268.026 127.293 267.016 127.925 265.894 128.362C264.772 128.787 263.502 129 262.085 129C258.943 129 256.487 127.972 254.715 125.917C252.944 123.85 252.058 121.518 252.058 118.92C252.058 116.475 252.808 114.296 254.308 112.383C256.209 109.95 258.754 108.733 261.943 108.733C265.227 108.733 267.848 109.979 269.809 112.471C271.203 114.231 271.911 116.428 271.935 119.061H254.609C254.656 121.305 255.371 123.148 256.753 124.589C258.134 126.018 259.841 126.732 261.872 126.732C262.853 126.732 263.803 126.561 264.725 126.218C265.658 125.876 266.449 125.421 267.098 124.854C267.748 124.287 268.451 123.372 269.207 122.108ZM269.207 116.918C268.876 115.595 268.392 114.538 267.754 113.747C267.128 112.955 266.295 112.318 265.256 111.833C264.217 111.349 263.124 111.107 261.979 111.107C260.089 111.107 258.465 111.715 257.107 112.932C256.115 113.818 255.365 115.146 254.857 116.918H269.207Z" fill="#4D4D4D"/>
<path d="M276.576 109.229H279.056V112.684C280.048 111.361 281.147 110.375 282.351 109.725C283.556 109.064 284.867 108.733 286.284 108.733C287.725 108.733 289.001 109.099 290.111 109.832C291.233 110.564 292.06 111.55 292.591 112.79C293.122 114.03 293.388 115.961 293.388 118.583V128.504H290.926V119.309C290.926 117.089 290.831 115.607 290.642 114.863C290.347 113.587 289.792 112.631 288.977 111.993C288.162 111.343 287.099 111.019 285.788 111.019C284.288 111.019 282.942 111.515 281.749 112.507C280.568 113.499 279.789 114.727 279.411 116.191C279.175 117.148 279.056 118.896 279.056 121.435V128.504H276.576V109.229Z" fill="#4D4D4D"/>
<path d="M300.882 102.072H303.38V109.229H307.313V111.355H303.38V128.504H300.882V111.355H297.498V109.229H300.882V102.072Z" fill="#4D4D4D"/>
<path d="M151.629 62.9662C152.048 59.0982 153.442 55.3999 155.68 52.2174C156.352 51.265 157.413 50.2737 158.517 50.6314C158.934 50.807 159.3 51.0836 159.583 51.4361C162.693 54.8181 164.438 59.2614 167.486 62.7096C169.216 64.6533 171.35 66.2627 172.811 68.4241C174.273 70.5855 174.918 73.6138 173.418 75.7441C171.704 78.1776 168.057 78.2981 165.254 77.268C160.865 75.6392 157.584 72.0044 154.475 68.498C153.378 67.2618 151.753 66.1655 151.641 64.525L151.629 62.9662Z" fill="#F4D5CA"/>
<path d="M188.294 31.8976C190.739 33.4176 192.403 35.9444 194.634 37.7599C197.943 40.3684 200.793 43.5112 203.066 47.0586C203.066 47.0586 206.176 52.1705 205.01 54.1803C204.899 54.3986 204.743 54.5912 204.553 54.7458C204.363 54.9004 204.142 55.0137 203.906 55.0783C203.513 55.1413 203.11 55.097 202.74 54.95C201.239 54.5613 199.789 54.1453 198.293 53.7838C198.681 58.5265 200.87 62.8104 200.78 67.6114C200.757 68.832 200.151 69.9438 200.582 71.1917C201.609 74.1694 204.501 74.8925 207.35 75.7244C214.204 77.7342 219.467 81.8082 226.216 84.5061C240.627 90.2595 254.703 90.2361 268.674 83.1027C272.48 81.159 275.236 78.294 276.27 74.2316C277.048 71.1917 275.812 68.28 274.249 65.6793C272.686 63.0786 270.4 61.0572 268.317 58.8763C261.961 52.2211 256.211 45.0643 249.968 38.273C247.328 35.4002 244.599 32.7179 241.144 30.7042C237.789 28.7205 233.843 27.9827 229.998 28.6205C231.581 30.6575 234.037 31.1007 236.039 32.6051C239.62 35.2991 241.093 39.5248 243.387 43.2334C244.502 45.0255 245.983 46.5804 246.885 48.5047C247.787 50.429 248.261 52.5904 247.134 54.5224C246.007 56.4545 244.055 57.2203 241.917 57.8151C239.779 58.4098 237.544 59.0435 235.196 58.7325C230.189 58.0639 226.426 55.1133 222.919 51.5952C219.413 48.0771 216.311 44.5162 211.899 42.1332C213.236 43.8165 214.814 45.5736 215.09 47.7622C215.366 49.9508 214.313 52.3766 211.922 52.5476C210.056 52.6798 208.948 51.4708 207.591 50.0247C201.861 43.9486 195.389 37.34 193.62 28.8538C193.476 28.1735 193.34 27.5593 192.788 27.3455C192.65 27.2891 192.502 27.2613 192.353 27.2638C191.186 27.2638 187 28.951 187.264 30.7042C187.357 31.3378 187.995 31.7227 188.294 31.8976Z" fill="#F4D5CA"/>
<path d="M202.235 47.0585C200.68 45.3519 198.942 43.8358 197.383 42.1409C194.207 38.6889 190.775 35.5323 186.689 33.1999C186.689 33.1999 186.689 33.1688 186.666 33.1338L185.919 32.71C185.469 32.5079 185.014 32.3213 184.567 32.1075C184.248 31.9598 183.933 31.8043 183.626 31.6371L182.992 31.4544C182.951 31.4412 182.911 31.4256 182.872 31.4078C182.666 31.3906 182.462 31.3594 182.261 31.3145C179.307 30.6575 176.353 30.0588 173.32 29.9733C168.492 29.8333 163.804 29.0325 159.326 27.1977C155.912 25.7982 152.449 24.4454 149.817 21.6737C149.662 21.5104 149.335 21.5104 149.086 21.4365C149.086 21.7203 148.989 22.0546 149.086 22.2801C149.782 23.4958 150.78 24.5119 151.982 25.2306C156.038 27.9451 160.587 29.8377 165.371 30.8013C168.62 31.4427 171.979 31.5788 175.28 31.8859C180.722 32.3913 185.651 34.0862 189.908 37.6043C194.165 41.1224 197.733 45.3791 201.656 49.2666C202.063 49.7054 202.379 50.2207 202.585 50.7827C203.005 51.8167 202.383 52.6136 201.31 52.3571C199.102 51.8387 196.907 51.2517 194.724 50.5961C193.714 50.2622 192.875 49.5427 192.392 48.594C191.562 47.1273 191.09 45.4848 191.016 43.8008C190.961 43.5645 190.867 43.3387 190.74 43.1322C190.51 43.2683 190.157 43.3499 190.079 43.5482C189.843 44.0519 189.711 44.5979 189.69 45.1537C189.696 45.8093 189.841 46.4562 190.118 47.0507C190.728 48.2869 191.459 49.4648 192.159 50.6583C194.402 54.4979 195.954 58.7019 196.742 63.0786C197.197 65.5782 197.329 67.9184 194.888 69.555C194.862 69.569 194.842 69.5928 194.833 69.6211C194.748 69.9437 194.666 70.2703 194.585 70.5968C194.899 70.5618 195.284 70.6357 195.521 70.4841C197.193 69.4112 198.39 67.9612 198.324 65.8931C198.204 62.2194 197.869 58.5614 196.26 55.1599C195.774 54.1297 195.296 53.0879 194.775 51.9605L195.354 52.1044C197.244 52.6214 199.129 53.1812 201.034 53.6399C203.316 54.1919 205.077 52.3609 204.268 50.1412C203.789 48.9956 203.099 47.9499 202.235 47.0585V47.0585Z" fill="#016C55"/>
<path d="M244.865 53.1116C244.406 51.9259 244.495 50.7791 244.324 49.6129C244.017 47.4631 242.82 45.7682 241.168 44.4076C240.639 43.9722 240.324 43.6301 240.592 42.8527C240.705 42.3812 240.705 41.8897 240.592 41.4182C240.262 39.2335 238.995 37.6357 237.315 36.3062C235.574 34.9301 233.817 33.5617 232.11 32.1545C229.122 29.6483 225.828 27.5321 222.306 25.8569C220.483 25.0133 218.609 24.092 217.089 22.8169C213.038 19.4193 208.953 16.0139 205.283 12.2237C201.913 8.74445 199.063 4.75595 195.953 1.00459C195.686 0.746222 195.387 0.522857 195.063 0.339844C195.152 0.709149 195.137 1.1562 195.343 1.43998C198.118 5.18356 200.719 9.08653 203.782 12.5813C206.531 15.6913 209.804 18.3697 212.836 21.2425C215.392 23.6887 218.336 25.6945 221.548 27.1786C227.414 29.8609 232.044 34.2537 237.098 38.0634C238.555 39.1635 239.255 40.7846 239.236 42.7982C238.964 42.6433 238.704 42.4679 238.458 42.2734C237.187 41.0567 235.935 39.8166 234.664 38.5959C233.315 37.2975 231.943 36.003 230.578 34.7318C230.308 34.5413 230.016 34.3846 229.708 34.2653C229.684 34.3686 229.682 34.4757 229.703 34.5796C229.724 34.6835 229.766 34.7818 229.828 34.8679C232.378 38.0634 234.777 41.3988 238.05 43.9528C239.325 44.948 240.542 46.0248 241.72 47.1366C242.232 47.6061 242.626 48.1897 242.871 48.8401C243.115 49.4906 243.203 50.1895 243.127 50.8802C240.697 48.9753 238.252 47.2532 236.029 45.2784C233.389 42.946 230.944 40.388 228.405 37.9428C228.017 37.5541 227.558 37.247 227.134 36.9049L226.854 37.1731C227.324 37.9968 227.843 38.7913 228.409 39.5522C232.294 44.2355 236.833 48.3347 241.887 51.7238C242.433 52.0806 242.924 52.5154 243.345 53.0144C243.796 53.5586 243.527 54.1417 242.839 54.2545C241.028 54.5616 239.302 54.3633 237.832 53.1621C235.959 51.6343 234.023 50.1649 232.297 48.4972C228.226 44.5243 224.269 40.4347 220.246 36.3995C220.01 36.1936 219.759 36.0052 219.495 35.8359L219.282 35.9719C219.305 36.2531 219.369 36.5294 219.472 36.7922C219.809 37.4193 220.199 38.0163 220.638 38.5765C224.686 43.3487 229.077 47.8182 233.778 51.9492C234.213 52.338 234.66 52.7073 235.166 53.1388C233.331 53.5081 231.76 53.2087 229.956 52.2369C226.551 50.402 223.55 48.0113 220.627 45.5078C217.384 42.7205 213.777 40.6407 209.59 39.6261C209.472 39.5793 209.365 39.507 209.278 39.4142C209.19 39.3215 209.124 39.2107 209.085 39.0896C208.96 38.6581 208.972 38.1878 208.879 37.7446C208.802 37.5433 208.693 37.3556 208.556 37.1887C208.37 37.3325 208.062 37.4453 208.016 37.6241C207.83 38.1783 207.748 38.7622 207.775 39.3462C207.963 40.6531 208.562 41.8661 209.485 42.8099C210.869 44.2949 211.748 46.0131 211.783 48.0812C211.783 48.7849 211.833 49.6984 211.032 49.8967C210.232 50.0949 210.022 49.1969 209.765 48.6332C209.016 47.0312 207.968 45.5865 206.679 44.3765C205.263 43.0198 203.848 41.6553 202.503 40.2286C200.794 38.4117 199.736 36.0794 199.495 33.5967C199.176 30.8755 198.659 28.1543 198.13 25.4331C197.694 22.9959 196.414 20.7898 194.515 19.2016C193.042 17.9531 191.494 16.7951 189.881 15.734C185.925 13.2488 182.331 10.2281 179.202 6.75797C177.328 4.63155 175.179 2.74615 173.138 0.771342C172.9 0.597286 172.638 0.4585 172.36 0.359276L172.166 0.588632C172.38 0.967657 172.621 1.33136 172.885 1.67712C174.704 3.78799 176.578 5.85221 178.363 7.99417C180.399 10.4507 182.715 12.6619 185.263 14.5833C187.261 16.0839 189.364 17.4523 191.37 18.9489C193.547 20.5739 195.417 22.4709 196.035 25.2504C196.041 25.3099 196.041 25.3698 196.035 25.4292V25.5109C196.115 25.6246 196.179 25.7489 196.225 25.8802C196.342 26.1057 196.398 26.3574 196.389 26.611V26.6693L196.525 26.992C196.525 27.0348 196.525 27.0814 196.525 27.1281C196.525 27.1747 196.544 27.1514 196.548 27.1669C196.612 27.2862 196.641 27.4207 196.633 27.5557C196.633 27.5557 196.633 27.5557 196.633 27.5557C196.633 27.5557 196.633 27.5557 196.633 27.5751L196.668 27.8394C196.668 27.8939 196.668 27.9522 196.668 28.0066C196.913 29.6549 197.147 31.1748 197.36 32.6948C197.679 34.9262 197.901 37.2237 199.417 39.0197C201.116 41.0333 202.916 42.9771 204.778 44.8508C206.216 46.2853 207.654 47.6847 208.521 49.5623C208.707 49.9472 208.952 50.3001 209.248 50.6081C210.356 51.8015 211.969 51.5721 212.533 50.0483C212.826 49.1929 212.945 48.2875 212.883 47.3854C212.75 45.4353 211.94 43.5929 210.593 42.1762C210.239 41.7875 209.921 41.3521 209.586 40.9401L209.761 40.7535C213.303 42.3084 216.712 44.0889 219.655 46.6818C222.357 49.0821 225.264 51.2413 228.343 53.1349C230.6 54.5658 233.318 55.0842 235.943 54.5849C236.396 54.5249 236.857 54.6238 237.245 54.8648C238.146 55.4994 239.196 55.8898 240.293 55.9981C241.39 56.1065 242.496 55.929 243.504 55.4829C244.775 54.9931 245.319 54.2895 244.865 53.1116Z" fill="#016C55"/>
<path d="M186.887 51.5992C187.106 51.9194 187.304 52.2531 187.482 52.5982C189.425 56.991 191.369 61.3838 193.274 65.796C194.335 68.2645 194.549 70.7952 193.538 73.3532C192.835 75.1297 191.015 76.0744 189.351 75.3746C188.652 75.0753 188.127 74.36 187.474 73.7924C186.428 74.7526 185.363 76.0899 183.454 75.5884C181.705 75.1336 180.966 73.7302 180.344 72.2375C179.124 72.9722 178.012 72.9683 177.009 71.8487C175.952 70.6514 174.82 69.3375 174.311 67.8719C172.954 63.9845 170.653 60.8745 167.671 58.1145C165.366 55.9803 163.994 53.2163 163.31 50.1453C163.255 49.7858 163.122 49.4427 162.92 49.1399C162.719 48.837 162.454 48.5818 162.143 48.392C160.915 47.6145 159.749 46.7788 158.645 46.0285C157.817 46.7282 157.144 47.3385 156.433 47.8944C152.215 51.1832 149.537 55.4633 148.145 60.5946C148.028 61.0184 147.873 61.4266 147.678 62.0174C147.429 61.689 147.252 61.311 147.16 60.9088C147.068 60.5065 147.063 60.0893 147.146 59.685C147.558 56.3104 148.882 53.1118 150.975 50.4329C152.499 48.3167 154.458 46.5511 156.721 45.2549C153.222 43.0779 149.047 42.6309 145.393 40.9204L145.466 40.5317C145.795 40.5025 146.125 40.5025 146.454 40.5317C149.925 41.2003 153.358 42.0167 156.538 43.6416C158.598 44.6873 160.612 45.8302 162.699 46.9615V43.5405L162.987 43.5211C163.022 43.8554 163.053 44.1936 163.096 44.5279C163.628 48.4154 164.585 52.1356 166.983 55.3116C167.868 56.4604 168.866 57.5178 169.961 58.4682C172.329 60.537 174.112 63.1912 175.131 66.1653C175.674 67.5038 176.346 68.7863 177.137 69.9944C177.435 70.5012 177.865 70.9172 178.381 71.1974C178.898 71.4776 179.481 71.6114 180.068 71.5844C179.19 64.587 175.571 58.8142 172.119 52.8392C172.425 52.961 172.709 53.1331 172.958 53.3485C174.124 54.7985 175.388 56.2096 176.422 57.7646C178.983 61.582 180.693 65.9053 181.437 70.4415C181.618 71.417 181.974 72.3518 182.486 73.2015C183.186 74.3989 184.317 74.5466 185.476 73.7769L187.311 72.5679C186.471 70.3054 185.736 67.9419 184.729 65.6949C183.52 63.001 182.082 60.4119 180.741 57.7763C180.309 56.9327 179.827 56.1008 180.002 54.8724C180.368 55.1561 180.663 55.2844 180.803 55.5099C181.927 57.2826 183.136 59.0086 184.103 60.8707C186.047 64.5443 187.676 68.3617 188.578 72.4513C188.648 72.7273 188.735 72.9986 188.838 73.2637C189.072 73.9207 189.429 74.43 190.218 74.4533C190.606 74.4911 190.995 74.4045 191.33 74.2059C191.665 74.0074 191.928 73.7073 192.08 73.3493C192.671 71.9615 192.994 70.4609 192.524 69.0187C191.602 66.1848 190.498 63.4091 189.488 60.6024C188.575 58.06 187.68 55.5125 186.801 52.9598C186.69 52.5443 186.612 52.1205 186.568 51.6925L186.887 51.5992Z" fill="#016C55"/>
<path d="M265.793 69.2169L265.828 69.2363C265.852 69.2363 265.801 69.2364 265.871 69.2636C265.941 69.2908 266.12 69.5162 266.26 69.5318C266.435 69.5573 266.614 69.5454 266.785 69.4968C266.917 69.4116 267.031 69.3006 267.119 69.1703C267.161 69.0269 267.161 68.8744 267.119 68.731C267.026 68.1544 266.896 67.5844 266.73 67.0244C266.68 66.9082 266.616 66.7986 266.54 66.6979C265.346 64.6142 264.503 62.2429 263.169 60.2564C261.886 58.2564 260.434 56.3705 258.827 54.6197C256.059 51.7041 253.385 48.8935 250.695 45.8613C249.501 44.5124 248.261 43.3228 247.126 41.8262C245.991 40.3295 244.564 38.7162 243.347 37.2584C243.195 37.0558 243.02 36.8707 242.827 36.7064C242.774 36.6607 242.711 36.6278 242.644 36.6102C242.577 36.5927 242.506 36.591 242.438 36.6053C242.344 36.6598 242.337 36.9319 242.341 37.0641C242.361 37.2158 242.421 37.3594 242.516 37.48C244.944 41.1267 247.596 44.6191 250.458 47.9372C253.82 51.8674 257.867 55.4477 260.65 59.8521C261.433 61.1636 262.133 62.523 262.746 63.9223C263.537 65.8072 264.561 67.5859 265.793 69.2169V69.2169Z" fill="#016C55"/>
<path d="M274.627 61.8506C274.295 61.7807 273.98 61.6488 273.697 61.4618C270.117 58.0914 267.804 53.9125 264.181 50.5771C262.416 48.9443 261.024 46.6896 259.485 44.7459C255.936 40.2871 251.924 36.2791 247.772 32.38C245.094 29.8649 242.019 28.3916 238.489 27.4625C236.005 26.8133 233.498 26.7627 230.947 26.7511C230.351 26.7742 229.754 26.7586 229.159 26.7044C228.945 26.6772 228.743 26.4595 228.568 26.3157C228.704 26.1796 228.868 25.8842 229.062 25.8492C229.995 25.682 230.881 25.3632 231.834 25.3827C238.248 25.511 243.609 26.6694 248.596 30.9689C253.609 35.2645 258.134 40.0984 262.09 45.3835C262.964 46.5704 263.91 47.7025 264.924 48.7733C267.524 51.4945 269.697 54.2818 272.084 57.2751C272.9 58.3014 273.721 59.6386 274.455 60.7465C274.636 61.021 274.768 61.3249 274.844 61.6445C274.864 61.7417 274.7 61.8778 274.627 61.8506Z" fill="#016C55"/>
<path d="M244.88 78.7683C244.512 78.9021 244.132 78.9984 243.745 79.056C238.334 79.0949 233.712 77.2639 230.139 73.1355C228.258 70.9702 226.38 68.7816 224.72 66.4491C221.385 61.7842 217.381 57.9395 212.09 55.5643C211.771 55.4401 211.473 55.2698 211.203 55.059C211.044 54.919 210.877 54.5964 210.939 54.4409C211.009 54.3462 211.1 54.2686 211.204 54.2141C211.309 54.1595 211.424 54.1294 211.542 54.126C211.851 54.1504 212.156 54.2225 212.444 54.3398C217.466 56.0114 221.423 59.1369 224.654 63.2614C226.497 65.5939 228.363 67.9263 230.201 70.2899C233.136 74.0412 236.989 76.2493 241.626 77.1862C242.454 77.3923 243.26 77.6774 244.033 78.0375C244.274 78.158 244.472 78.4068 244.88 78.7683Z" fill="#016C55"/>
<path d="M175.113 27.1742C175.397 27.0338 175.707 26.9515 176.023 26.9322C176.34 26.9128 176.657 26.9568 176.956 27.0615C177.591 27.2707 178.138 27.6853 178.511 28.24C178.884 28.7947 179.062 29.4579 179.016 30.1248C178.999 30.4415 178.919 30.7516 178.78 31.0367C178.641 31.3218 178.447 31.5762 178.208 31.7847C178.09 31.2671 177.938 30.758 177.753 30.2608C177.449 29.4689 176.97 28.7555 176.353 28.1733C175.964 27.8119 175.549 27.4781 175.113 27.1742Z" fill="#016C55"/>
<path d="M191.575 21.4209C192.008 21.966 192.473 22.4852 192.967 22.9759C193.408 23.4154 193.89 23.8124 194.405 24.1615C194.924 24.5046 195.474 24.7999 196.046 25.044C196.692 25.3157 197.354 25.5481 198.028 25.7398C197.356 26.1653 196.562 26.3554 195.77 26.2802C194.96 26.2212 194.18 25.9521 193.507 25.4994C192.833 25.0467 192.289 24.4261 191.929 23.6989C191.567 22.9983 191.442 22.1985 191.575 21.4209Z" fill="#016C55"/>
<path d="M222.225 26.8205C223.896 26.5872 225.723 26.3851 227.733 26.249C230.186 26.0858 232.449 26.0547 234.47 26.0974" stroke="#016C55" stroke-width="3.32" stroke-miterlimit="10"/>
</svg>
