<svg width="498" height="498" viewBox="0 0 498 498" fill="none" xmlns="http://www.w3.org/2000/svg">
<path d="M492.605 283.55C492.325 284.19 491.895 283.76 492.195 281.95L493.125 280.74L492.605 283.55Z" fill="#1F686A"/>
<path d="M492.475 271.1C493.085 268.99 494.015 266.58 494.605 268.04C493.605 270.1 493.885 270.65 492.745 272.84C492.465 274.67 492.665 276.06 492.985 275.79C492.715 276.41 492.845 278.65 492.245 279.57C491.945 276.697 492.21 273.792 493.025 271.02C492.895 270.33 492.625 270.99 492.475 271.1Z" fill="#1F686A"/>
<path d="M445.475 102.91L446.245 103.77C445.97 103.5 445.712 103.213 445.475 102.91Z" fill="#1F686A"/>
<path d="M361.645 32.1893C362.385 32.5993 362.645 32.8293 362.645 32.9093C361.995 32.4993 361.475 32.1593 361.645 32.1893Z" fill="#1F686A"/>
<path d="M344.244 24.9902L345.244 25.3602C344.892 25.2941 344.554 25.169 344.244 24.9902V24.9902Z" fill="#1F686A"/>
<path d="M445.475 102.911L443.475 100.701C443.575 100.371 444.555 101.791 445.475 102.911Z" fill="#1F686A"/>
<path d="M496.475 246.529C496.418 247.073 496.317 247.611 496.175 248.139C496.235 247.629 496.295 247.139 496.345 246.619C496.394 246.599 496.438 246.568 496.475 246.529V246.529Z" fill="#1F686A"/>
<path d="M470.024 144.92L470.384 145.74C470.409 146.013 470.409 146.287 470.384 146.56L470.024 144.92Z" fill="#1F686A"/>
<path d="M483.145 179.84C482.885 179.04 483.455 178.56 483.645 178.17C483.526 178.801 483.55 179.45 483.715 180.07C483.595 180.12 483.415 180.06 483.145 179.84Z" fill="#1F686A"/>
<path d="M493.974 237.99L493.864 238.99C493.884 238.76 493.934 238.31 493.974 237.99Z" fill="#1F686A"/>
<path d="M457.134 121.521C456.991 121.508 456.855 121.452 456.744 121.361C456.814 121.321 456.954 121.391 457.134 121.521Z" fill="#1F686A"/>
<path d="M279.064 496.181C279.064 496.131 279.064 496.101 279.064 496.061C279.284 496.101 279.354 496.141 279.064 496.181Z" fill="#1F686A"/>
<path d="M321.265 483.87L320.675 484.01C320.573 483.917 320.491 483.805 320.435 483.68L321.265 483.87Z" fill="#1F686A"/>
<path d="M311.475 14.6699H311.625C312.475 14.9899 312.015 14.8499 311.475 14.6699Z" fill="#1F686A"/>
<path d="M39.9447 125.73C41.2047 122.31 36.3647 130.39 38.4747 125.37C38.4747 125.99 41.8247 121.66 39.9447 125.73Z" fill="#1F686A"/>
<path d="M496.395 245.54C496.395 245.03 496.465 244.54 496.475 243.99C496.483 244.508 496.456 245.026 496.395 245.54Z" fill="#1F686A"/>
<path d="M38.4746 125.37L38.7046 124.85L38.4746 125.37Z" fill="#1F686A"/>
<path d="M233.194 6.73108C233.431 6.56662 233.695 6.44481 233.974 6.37109C233.954 6.44109 233.784 6.54108 233.194 6.73108Z" fill="#1F686A"/>
<path d="M292.085 8.98984L290.625 8.83984C291.205 8.84984 291.675 8.89984 292.085 8.98984Z" fill="#1F686A"/>
<path d="M202.674 9.67969C201.988 9.89795 201.281 10.0421 200.564 10.1097L200.874 9.9697C201.487 9.98416 202.097 9.88585 202.674 9.67969V9.67969Z" fill="#1F686A"/>
<path d="M171.774 17.8307L172.294 17.5107L173.294 17.2207L171.774 17.8307Z" fill="#1F686A"/>
<path d="M180.885 487.991C181.427 488.012 181.97 487.951 182.495 487.811C181.885 488.171 186.475 489.641 180.885 487.991Z" fill="#1F686A"/>
<path d="M496.045 246.49C496.273 246.207 496.397 245.854 496.395 245.49L496.295 246.57C496.195 246.71 496.095 246.73 496.045 246.49Z" fill="#1F686A"/>
<path d="M200.345 4.66016C198.645 4.95016 196.985 5.46014 195.295 5.86014C196.957 5.37503 198.642 4.97453 200.345 4.66016Z" fill="#1F686A"/>
<path d="M15.8545 334.48L16.2145 335.62C16.0409 335.26 15.9197 334.876 15.8545 334.48V334.48Z" fill="#1F686A"/>
<path d="M180.344 9.56055C179.486 10.0488 178.59 10.4669 177.664 10.8105C177.455 10.8306 177.244 10.8306 177.034 10.8105L180.344 9.56055Z" fill="#1F686A"/>
<path d="M213.724 495.27C218.484 496.27 215.314 495.27 219.724 495.27C222.144 496.27 224.534 495.63 224.954 496.81C226.594 496.15 226.154 496.4 229.234 496.07C227.834 496.61 234.934 497.14 234.694 497.9C235.984 497.11 229.624 496.43 233.694 495.82C236.364 496.71 241.424 496.93 241.814 497.92C243.903 497.636 246.007 497.469 248.114 497.42C247.617 497.427 247.122 497.342 246.654 497.17C252.424 497.99 260.924 496.99 264.244 497.93C263.004 496.71 276.494 496.84 271.984 495.93C274.348 495.797 276.718 495.843 279.074 496.07C278.694 495.07 284.984 495.07 287.484 494.01C288.914 494.41 293.144 493.49 295.784 493.34C294.614 493.43 293.964 493.34 294.324 493C297.324 492.9 296.504 492.6 298.854 491.62C302.854 491.14 298.304 492.62 300.774 492.62C304.104 491.62 301.144 491.85 301.664 491.29C303.414 491.29 305.174 491.29 306.924 491.2C307.665 490.988 308.349 490.612 308.924 490.1C310.91 490.135 312.877 489.714 314.674 488.87L310.384 489.95L311.884 489.01C313.644 488.81 315.384 488.53 317.134 488.3C324.134 485.43 321.524 484.98 320.684 484.07L317.684 484.74C317.684 484.34 319.604 483.54 320.884 483.14C321.984 482.54 315.884 483.39 312.664 484.08C304.104 486.36 311.224 485.85 305.364 487.55C302.764 487.94 300.154 488.29 297.544 488.55V488.94C296.816 489.252 296.006 489.322 295.234 489.14C295.874 489.62 288.964 490.47 285.814 491.02L286.874 490.36C277.944 490.53 273.094 493.36 265.984 493.29C264.314 493.13 262.644 492.95 260.984 492.74L259.984 493.51C257.064 493.2 256.544 492.66 251.804 492.99C235.044 494.38 217.154 491.25 200.454 488.64C201.047 488.539 201.652 488.539 202.244 488.64C198.864 488.415 195.514 487.856 192.244 486.97C190.744 486.58 189.304 486.19 187.924 485.74L183.924 484.22C181.294 483.22 178.694 482.22 175.974 481.22C173.091 480.101 170.13 479.195 167.114 478.51L167.884 479.06C161.504 476.7 168.654 479.69 163.884 478.34C163.344 477.12 156.044 474.62 152.594 472.69C153.462 473.264 154.375 473.766 155.324 474.19C154.277 474.328 153.214 474.091 152.324 473.52C149.806 471.634 147.102 470.008 144.254 468.67C140.974 466.86 137.414 464.91 134.434 463.19C133.434 463.39 128.014 460.79 124.824 460.08C124.304 459.53 123.414 458.52 122.644 457.56C120.773 456.695 119.078 455.491 117.644 454.01L122.344 457.09L122.244 456.95C122.494 457.157 122.754 457.35 123.024 457.53C124.314 458.3 125.024 458.72 124.644 458.58C127.334 459.48 124.714 458.1 125.224 457.58C123.224 456.58 119.494 453.72 118.754 453.91C117.614 453.19 116.814 452.77 115.574 452.1C114.864 451.499 114.101 450.964 113.294 450.5L113.634 450.81C113.425 450.795 113.219 450.747 113.024 450.67C109.092 447.963 105.464 444.838 102.204 441.35C104.514 444.25 100.894 441.54 100.514 442.03C100.214 441.73 103.744 444.55 108.384 447.72C108.014 447.54 107.694 447.45 107.484 447.57C103.064 445.35 101.144 442.17 95.3044 438.17C95.6244 438.5 96.2444 439.17 95.8344 439.17C94.2675 438.189 92.9903 436.808 92.1344 435.17C91.2744 435.23 86.9144 432.04 85.0844 430.09C84.0323 428.261 82.6567 426.638 81.0244 425.3L82.0744 426.9C78.2244 423.7 79.5444 423.65 76.3644 421.02C77.6244 422.07 77.4544 422.47 76.4844 421.69C74.3926 419.452 72.6162 416.939 71.2044 414.22V415.22C68.3644 411.81 63.7244 404.86 62.9144 405.42C64.7844 405.66 57.4644 397.49 55.0844 394.47C55.8744 395.53 55.7844 395.9 55.7444 396.09C53.6266 392.607 51.3302 389.236 48.8644 385.99C46.4444 382.7 44.1444 379.31 41.9244 375.89L40.3644 375.32C38.2344 371.54 39.3644 369.47 37.0144 365.46L37.4244 367.16C35.3644 363.58 34.2344 360.89 32.9344 358.53C31.6344 356.17 30.4444 353.95 29.0344 350.91L28.4644 351.32C27.7644 349 26.5344 346.27 25.8344 343.95C24.0544 341.74 22.1744 336.62 20.3144 330.95C19.4444 328.08 18.5244 325.08 17.5144 322.23C16.6921 319.536 15.6898 316.9 14.5144 314.34L15.5744 313.4C14.4044 309.75 13.6744 304.9 12.3144 303.4L12.5244 304.23C11.6544 304.81 11.6344 300.49 10.8944 298.23C10.6644 296.43 10.9844 294.53 11.4444 296.02C8.72437 286.17 7.75438 271.08 6.29438 264.84C6.04438 259.73 6.52437 255.24 6.62437 250.67C6.88437 246.1 7.29439 241.45 7.39439 235.96L7.23438 236.08C7.34438 232.38 7.55437 224.95 6.50437 224.85C7.68437 216.96 9.68436 212.16 10.9944 202.85L10.2344 204.79C10.5371 202.39 11.1419 200.038 12.0344 197.79C12.1944 196.97 11.8544 197.52 11.6844 197.6C11.8344 195.32 12.6844 194.13 13.2044 192.4L12.6844 193.03C13.5444 185.45 18.4444 174.47 21.5044 165.33C20.8144 166.97 20.7444 165.94 20.8244 165.2C22.5552 162.547 24.0063 159.722 25.1544 156.77C26.5944 153.34 28.2644 150 29.1544 148.19L27.7044 150.27C31.6244 143.41 29.3744 143.5 33.7044 136.87L32.2644 141.18C33.5344 138.25 34.9744 135.95 35.0944 136.87C36.4844 133.42 34.3844 135.98 37.0944 131.06C36.9144 130.69 34.8744 134.45 35.4144 132.65L38.5344 125.46C39.038 124.297 39.6685 123.194 40.4144 122.17C41.3044 123.5 43.9644 116.77 43.0744 120.82C44.5844 118.52 45.9744 116.27 47.3044 114.08C48.6344 111.89 50.0844 109.86 51.4244 107.81C54.0093 103.8 56.9297 100.016 60.1544 96.5C61.3744 92.5 72.3444 82.25 70.4444 81.79C72.291 79.83 74.031 78.13 75.6644 76.69C77.1367 75.4301 78.7122 74.2961 80.3744 73.3C79.5617 74.1521 78.6675 74.9225 77.7044 75.6C79.0544 74.97 83.7544 70.6 85.7044 68.73C82.8744 70.83 78.5044 74.5 76.0044 75.92C79.7044 72.7 85.0044 68.39 87.2544 66.87L87.5644 65.34C91.1344 63.18 89.6744 62.5 93.4044 60.51L92.9944 61.24C98.8344 56.47 99.4744 57.12 105.124 53.02L104.644 52.9C106.524 51.38 109.944 50.04 111.354 47.98L107.614 50.6C107.614 49.79 110.294 47.52 111.394 46.32C115.534 43.76 113.394 46.32 115.504 45.02C116.034 43.95 115.504 44.61 113.774 45.02C116.124 43.64 118.874 42.02 121.484 40.58C123.758 39.3447 126.125 38.2914 128.564 37.43C128.724 37.23 128.414 37.25 128.414 37.25C133.194 34.25 138.204 33.12 140.994 31.05L139.994 31.47C143.544 28.47 150.894 27.33 151.074 25.47C152.904 24.33 146.674 27.53 149.484 25.41C155.414 22.18 154.044 24.79 159.344 22.21C158.614 22.55 158.814 22.36 158.514 22.33L165.214 19.83L172.364 17.63C173.912 16.7428 175.547 16.0189 177.244 15.47C179.184 14.86 181.354 14.28 183.534 13.69C187.894 12.41 192.434 11.48 195.534 9.98999C193.534 10.99 197.294 10.22 197.344 10.44C197.344 10.44 197.054 10.37 197.284 10.22C198.479 9.85566 199.747 9.81083 200.964 10.09C202.824 9.3 207.634 9.4 208.814 8.88C208.904 9.22 210.814 8.74999 212.904 8.42999C208.594 8.75999 211.434 7.94999 209.434 7.76999C215.794 6.51999 216.974 8.19998 223.564 7.03998C224.764 6.64998 225.984 6.41 227.194 6.09C228.034 6.98 234.194 6.08999 234.064 6.48999C235.194 6.10999 236.854 5.79998 236.584 5.34998C239.284 5.48998 243.284 4.90998 244.414 5.44998L241.754 5.75998C250.054 5.06998 254.984 6.75999 261.364 6.23999L261.304 4.81C265.604 4.53 269.114 6.13 272.864 5.56C271.534 5.94 271.274 5.69999 273.934 6.48999C272.334 6.33999 269.384 5.85999 266.694 5.64999L272.324 6.88L263.484 5.88C267.254 6.7 266.984 6.53998 265.394 7.00998C270.734 7.87998 271.274 6.64 276.314 7.84C278.194 7.84 276.314 7.11999 278.484 7.07999C282.994 8.07999 287.314 7.24 290.484 8.53C291.554 8.53 288.624 8.17998 288.924 7.88998C291.844 8.50998 293.924 8.79999 294.734 9.35999L292.194 9.09998C294.404 9.41998 294.664 10.03 298.884 10.61C301.224 11.45 302.424 12.42 299.814 11.88C300.814 12.19 303.254 12.31 302.534 11.72C309.024 13.08 305.264 13.92 311.614 14.81C311.204 14.65 310.774 14.47 311.024 14.45C312.341 14.6874 313.637 15.0216 314.904 15.45C309.474 13.9 316.904 14.79 310.384 13.35C311.284 12.81 315.384 14.45 317.484 14.78C320.484 16.24 317.484 15.93 318.974 16.78C318.974 16.54 320.304 16.94 321.854 17.32L320.204 17.41C321.494 17.81 322.764 18.2 324.264 18.81L321.754 17.81C323.164 18.19 325.014 18.5 327.094 18.97C329.393 19.5715 331.629 20.3885 333.774 21.41C332.574 20.72 330.164 19.36 333.514 20.26C338.724 22.54 334.844 20.48 338.014 21.17C343.194 23.46 338.544 22.5 346.364 25.36C347.194 25.7 346.294 25.69 345.364 25.49C350.684 27.49 353.274 29.23 358.424 31.22C356.214 30.22 354.424 29.7 357.244 31.31C356.244 30.23 361.444 33.01 363.464 33.74L363.824 34.25C365.474 34.77 363.924 33.81 362.744 33.07C362.744 33.18 362.254 33.07 361.354 32.53C359.054 31.06 360.414 30.53 364.294 32.46C368.294 34.85 367.224 35.17 366.394 35.05C371.914 37.8 370.724 39.05 376.024 41.62C377.164 42.31 381.514 43.78 385.204 46.02C386.694 47.76 380.454 43.54 382.204 45.34C385.664 46.53 388.494 48.89 391.494 51.44C394.494 53.99 397.494 56.91 401.494 59.36L401.064 58.02C402.902 59.3163 404.65 60.7363 406.294 62.27L403.584 60.54C405.114 62.08 409.094 65.27 408.224 63.72C411.554 67.37 412.524 67.81 416.004 70.78C412.414 67.52 415.864 70.78 413.564 68.08C415.945 69.9127 418.133 71.9834 420.094 74.26C419.884 73.65 421.484 74.66 422.444 75.63C424.394 78.34 428.444 82.26 431.274 85.93L431.444 85.77C432.664 87.26 434.024 88.69 435.354 90.18L439.354 94.69C442.061 97.632 444.488 100.819 446.604 104.21V104.21C446.674 104.33 446.754 104.45 446.814 104.54L446.404 104.09C445.294 103.24 446.094 104.53 447.314 106.28C448.534 108.03 450.014 110.37 450.574 111.42C451.237 111.742 451.797 112.24 452.194 112.86C451.644 113.33 453.594 115.53 453.914 116.65C455.524 118.78 454.454 115.89 456.834 119.81C457.714 121.35 457.514 121.72 457.174 121.68C458.681 123.167 459.983 124.849 461.044 126.68C460.679 125.857 460.226 125.076 459.694 124.35C459.854 123.89 460.594 125.35 460.974 125.09C462.064 126.94 460.814 126.18 462.344 128.4L461.614 125.94C462.156 126.784 462.608 127.682 462.964 128.62C462.274 127.12 462.884 127.04 463.294 127.08C465.994 132.76 462.564 128.88 462.194 129.48C465.544 134.37 466.884 138.91 468.904 143L469.114 141.94C469.784 143.16 470.228 144.492 470.424 145.87L471.824 149.01C471.234 147.1 471.154 146.41 471.574 146.06C472.894 149.49 475.144 154.01 474.654 155.23L474.744 155.04C475.744 157.24 477.274 160.7 478.534 163.56C479.794 166.42 480.604 168.75 480.714 168.56C481.404 171.09 482.484 173.87 483.134 176.12C483.784 178.37 484.134 180.03 483.754 180.22C484.26 181.992 484.888 183.726 485.634 185.41C486.28 186.847 486.568 188.418 486.474 189.99C487.914 193.45 486.754 190.13 487.114 188.86C488.534 192.34 488.034 196.33 489.484 197.28C489.934 201.62 489.034 196.34 488.764 197.89C490.044 198.56 490.584 205.75 491.824 209.66C491.614 211.54 491.264 207.87 491.224 211.06C491.464 210.71 491.764 212.35 491.914 213.18L491.294 214.08L493.694 217.93C493.624 224.15 492.274 216.84 492.984 225.02V224.53C493.984 226.66 493.164 230.31 493.744 236.14C493.584 234.14 494.094 235.31 494.294 234.67C494.194 235.76 494.124 236.85 494.004 237.95C494.004 237.65 494.094 237.51 494.174 237.83C494.684 240.73 493.844 240.32 494.174 243.7C494.404 241.39 494.944 242.1 495.174 243.14L494.104 247.99L495.214 246.09C495.084 250.82 492.894 257.65 494.064 260.16L494.404 257.84C494.624 258.03 495.264 259.5 494.454 262.61C494.244 263.61 493.594 264.18 493.754 262.84V265.22C494.524 264.15 495.234 258.31 495.754 254.63C495.394 255.77 494.944 258.63 494.604 257.7C495.104 254.44 495.754 251.34 496.164 248.17C495.917 249.093 495.543 249.978 495.054 250.8C494.944 247.23 495.664 248.17 495.884 245.48C495.674 244.48 495.514 243.73 495.284 244.4C495.748 241.213 495.805 237.981 495.454 234.78C495.454 234.78 495.004 238.78 494.614 236.59C494.934 230.1 495.614 228.59 495.134 221.59C495.194 213.34 492.274 205.94 491.874 200.23C492.104 199.87 493.204 204.33 492.674 200.65C492.224 201.4 491.884 198.53 491.614 198.41C491.724 194.26 490.094 192.67 490.044 189.75C490.044 190.45 489.224 188.22 488.664 186.75C488.064 187.36 487.344 182.52 487.664 188.45C487.453 185.74 486.895 183.068 486.004 180.5C485.24 178.247 484.868 175.879 484.904 173.5C485.134 173.97 485.364 174.44 485.564 174.91C484.864 173.01 484.054 171.15 483.314 169.28L483.414 169.51C482.749 167.415 481.815 165.415 480.634 163.56C480.984 165.04 481.634 167.11 481.994 168.56C481.217 167.073 480.677 165.474 480.394 163.82C480.024 162.101 479.553 160.404 478.984 158.74C478.544 159.08 480.174 162.26 479.184 161.51C478.344 159.311 477.623 157.067 477.024 154.79L476.874 155.21C473.874 149.69 477.234 152.38 474.484 148.56C474.694 148.62 474.634 148.01 474.904 148.2C473.904 146.76 471.814 143.34 473.094 147.1C472.3 145.329 471.661 143.492 471.184 141.61C472.414 143.08 472.404 143.61 473.184 143.99C472.034 141.28 470.744 138.63 469.534 135.93C469.084 135.05 469.604 136.72 470.154 137.83C467.27 133.404 464.703 128.779 462.474 123.99C459.874 119.26 457.254 114.27 453.094 109.99C454.234 110.81 452.964 109.05 452.604 107.93C450.424 104.82 446.944 100.25 444.604 97.59L445.014 98.69C439.814 91.32 436.114 86.25 431.924 81.99C431.834 81.67 431.614 82.34 432.254 83.2C429.824 79.45 424.674 77.1 424.764 75.33L425.974 76.42C419.844 70.26 413.254 63.21 406.444 57.26C404.354 56.48 410.354 60.69 408.364 60.19L401.034 54.19C398.55 52.0178 395.925 50.0133 393.174 48.19C393.53 48.5004 393.864 48.8345 394.174 49.19C388.384 45.69 395.174 49 390.514 45.8C390.514 46.28 390.274 46.2 388.614 45.27L387.614 43.8C387.324 43.74 387.104 44.14 387.694 44.8C386.034 42.8 379.384 39.09 378.074 37.41C377.534 37.32 378.384 38.63 377.554 38.49C375.405 37.4364 373.39 36.1269 371.554 34.59V34.59C369.494 33.91 364.954 31.44 365.874 32.05C360.954 29.75 365.314 31.27 361.874 28.94L365.874 30.65L359.154 26.94L361.684 28.68C358.474 27.24 355.434 25.25 351.734 23.49L353.614 23.89L349.484 21.65C348.694 22.3 343.874 19.54 345.834 21.48C341.734 20.04 338.554 18.48 335.354 17.09C332.108 15.5197 328.769 14.1505 325.354 12.99C326.674 13.4 326.104 13.42 326.354 13.64C323.061 12.7562 319.872 11.519 316.844 9.94998C317.324 10.36 318.354 10.76 318.304 11C313.034 9.57 315.234 9.65 309.464 7.84C310.984 8.63 310.464 8.68999 308.814 8.35999C309.144 8.10999 307.814 7.52 306.814 7.16C310.814 9.93 300.054 6.41 302.524 8.44C302.324 8.01 293.334 5.29999 296.084 5.14999L297.664 5.62C297.944 5.19 295.734 4.86 294.064 4.62C294.67 4.73001 295.257 4.92882 295.804 5.20999C291.644 4.20999 287.324 3.42999 282.804 2.82999C278.284 2.22999 273.714 1.64 268.924 1.19C269.744 1.43 273.574 2.03 271.094 2C261.584 1.53 256.094 0.36 246.434 0C246.004 1 256.864 0.239985 257.194 1.35999L249.544 0.970001L241.714 0.869995C236.414 0.679995 230.994 0.999985 225.324 1.10999C223.424 2.02999 220.694 2.32 217.554 2.47C214.414 2.62 210.864 2.77999 207.554 4.10999C208.114 3.43999 204.644 3.85998 200.884 4.50998C202.264 4.72998 198.314 5.44999 199.474 5.57999C196.134 5.78999 186.684 7.77999 187.324 8.73999C186.224 7.94999 180.474 10.74 177.634 10.74C173.704 12.23 169.004 13.35 164.094 15.3C165.594 13.98 159.094 16.9 157.194 17.36C157.714 17.2 158.784 16.88 158.564 17.07C157.324 18.23 152.674 18.73 150.114 20.35C148.984 21.12 150.664 20.78 148.694 21.72C148.484 21.36 140.854 24 138.524 26C139.204 25.6498 139.944 25.4325 140.704 25.36C127.654 30.75 115.284 39.36 103.134 47.03L105.674 46.2C98.9844 52.2 100.114 48.57 94.5444 53.04C86.9751 59.3458 79.7922 66.1014 73.0344 73.27C66.3844 80.54 59.8844 87.83 53.9044 95.18C52.9044 96.13 54.1744 94.37 54.0644 93.98C53.1144 95.34 53.3544 96.12 51.6344 97.63V96.97C51.0844 97.91 50.4044 98.92 49.6344 99.97C48.8644 101.02 48.1644 102.2 47.3344 103.36C45.7144 105.71 43.8144 108.11 42.1144 110.58C38.8044 115.58 35.6244 120.31 34.9044 123.58C30.1244 130.41 28.4244 136.1 23.2444 144.76C22.2444 147.81 25.4344 141.71 23.7644 145.66C22.3244 148.41 20.7144 151.1 19.3944 153.92L19.6444 153.48C14.9144 161.34 12.6444 176.21 8.98438 186.82L9.17439 186.37C9.50439 186.19 9.31437 188.54 8.81437 190.28C8.46437 190.85 8.63438 189.63 8.63438 188.51C7.26438 193.34 6.43436 196.3 5.74436 199.02C5.05436 201.74 4.74437 204.27 3.94437 208.17C4.99437 204.87 3.73437 211.37 4.34437 211.8C3.68437 213.8 3.86437 210.51 2.94437 215.08C2.52437 218.37 2.16437 221.54 2.03437 224.58C1.90437 227.62 1.89438 230.52 1.82438 233.27C1.06438 235.46 1.14437 238.39 0.474373 238.51C0.314373 242.26 0.184359 245.17 0.0543593 248.31C-0.0756407 251.45 0.0543752 254.79 0.164375 259.39L0.404365 259.62C-0.465635 262.15 1.40437 267.56 0.974373 269.3C1.25437 269.02 1.30437 268.04 1.56437 268.3V272.49C1.67437 270.49 2.38438 269.31 2.73438 272.72C2.41438 276.33 2.25437 271.78 1.90437 273.56C2.19437 273.89 2.46437 274.22 2.78437 274.56C3.03437 277.23 2.24437 278.09 1.59437 274.84C2.21437 279.4 2.59437 283.96 3.22437 288.37C3.85437 292.78 4.54438 297.06 5.51438 301.05L5.82438 300.05C6.69438 304.49 7.94436 310.52 9.18436 312.97C9.06436 313.13 9.10436 314.28 8.74436 313.62C9.55436 319.02 9.74438 313.95 10.6044 319.83C10.3844 318.37 9.98438 316.56 10.2044 316.25C10.9944 319.84 11.7644 323.46 12.8144 327C13.0144 327 13.8144 328.51 14.8144 330.59C15.8144 332.67 16.8144 335.31 17.5344 337.52C17.4044 337.76 16.6444 336.62 16.1644 335.52L17.0844 338.37L18.7544 340.18L19.6144 344.5L20.3344 344.28C21.3944 347.28 21.1144 348.78 22.2144 351.12C26.5844 359.74 26.2144 357.76 29.8544 363.55C28.8544 364.97 35.1244 373.05 35.1344 375.05C36.4744 376.93 37.9444 379.05 39.5244 381.2L44.2944 388.32L49.5544 395.74C51.3044 398.25 53.3144 400.58 55.1944 402.91L54.6844 402.06C56.0338 403.34 57.1237 404.868 57.8944 406.56C58.7814 408.306 59.9277 409.907 61.2944 411.31L60.5544 410.12C63.1544 412.57 66.3244 416.26 69.6144 419.8L74.2644 425.1L78.2644 429.53C77.4144 428.43 78.2644 428.58 79.7744 430.11C80.9144 431.58 77.7744 429.6 80.7744 432.04C80.1844 431.29 80.9444 431.58 81.5744 432.17C82.3044 433.22 83.1244 434.17 83.9044 435.17C91.5344 441.39 100.954 448.01 109.064 454.17C110.744 455.05 109.764 454.04 109.534 453.58L119.304 460.45C122.524 462.68 125.804 464.65 128.904 466.55L129.904 466.2C133.004 467.93 131.254 468.34 135.704 469.83C136.704 470.2 133.004 468.39 132.044 467.49C138.684 470.19 135.424 470.13 141.554 473.15L140.474 471.57C145.394 473.36 145.664 474.5 147.164 475.82C153.434 479.82 152.624 476.34 161.574 480.76C162.884 481.76 160.854 481.2 162.164 482.21C168.864 484.38 169.464 485.21 176.264 487.21C180.264 486.92 172.814 486.21 177.124 486.11C175.374 485.77 173.674 485.23 171.944 484.77C176.534 485.56 168.024 483.25 168.944 482.71C170.928 483.293 172.869 484.012 174.754 484.86C176.884 485.76 179.184 486.58 181.314 487.35C181.484 486.76 176.314 485.85 178.534 485.62L180.684 486.49C180.142 486.007 179.49 485.664 178.784 485.49C179.784 485.16 181.394 486.2 183.504 486.82C183.564 487.17 183.334 487.58 182.504 487.82C182.704 487.756 182.916 487.735 183.124 487.76C187.214 490.01 194.884 490.86 198.504 492.49C197.934 492.17 198.504 492.23 198.694 492.14C201.384 492.64 204.014 493.9 207.604 494.79C209.664 494.67 206.684 493.29 212.454 494.48C213.454 495.12 210.684 495.67 215.604 496.27C215.614 496.29 211.374 495.33 213.724 495.27ZM111.604 454.82C111.144 454.54 110.454 454.05 109.664 453.46C110.624 454.17 111.184 454.56 111.604 454.82ZM104.704 449.29C105.494 449.84 105.654 450.29 105.244 450.29L101.814 447.88C103.104 448.52 105.034 449.73 104.704 449.29V449.29ZM121.504 455.92L121.404 455.75L119.234 454.26C119.484 454.26 119.974 454.42 121.184 455.31C121.33 455.486 121.429 455.696 121.474 455.92H121.504Z" fill="#1F686A"/>
<path d="M122.994 457.52C123.174 457.64 123.264 457.72 123.504 457.87C123.214 457.76 122.924 457.67 122.654 457.55C122.384 457.43 122.424 457.22 122.314 457.08L122.994 457.52Z" fill="#1F686A"/>
<path d="M446.364 103.93L446.234 103.77C446.331 103.878 446.442 103.972 446.564 104.05C446.501 104.005 446.434 103.965 446.364 103.93V103.93Z" fill="#1F686A"/>
<path d="M19.5049 344.65L19.6649 344.6L19.8349 345.44L19.5049 344.65Z" fill="#1F686A"/>
<path d="M474.904 148.27C475.08 148.435 475.229 148.627 475.344 148.84C475.173 148.67 475.025 148.478 474.904 148.27V148.27Z" fill="#1F686A"/>
<path d="M483.415 169.541L484.685 172.541C484.105 171.251 483.715 170.301 483.415 169.541Z" fill="#1F686A"/>
<path d="M488.825 186.33C488.799 186.483 488.73 186.626 488.625 186.74V186.74L488.825 186.33Z" fill="#1F686A"/>
<path d="M294.074 4.68996L293.404 4.54995C291.854 4.15995 292.914 4.38996 294.074 4.68996Z" fill="#1F686A"/>
<path d="M371.615 34.6808C370.915 34.1308 370.215 33.5808 369.455 33.0508C370.765 33.7508 371.765 34.3208 371.615 34.6808Z" fill="#1F686A"/>
<path d="M200.905 4.54102L200.335 4.65103L200.905 4.54102Z" fill="#1F686A"/>
<path d="M366.034 31.2305C367.237 31.7105 368.384 32.3208 369.454 33.0505C368.384 32.4705 367.064 31.9005 366.034 31.2305Z" fill="#1F686A"/>
<path d="M495.324 262.189L495.274 263.039C495.274 263.039 495.184 263.039 495.154 263.129L495.324 262.189Z" fill="#1F686A"/>
<path d="M495.154 263.131L494.984 264.061C494.986 263.743 495.043 263.428 495.154 263.131V263.131Z" fill="#1F686A"/>
<path d="M494.635 265.991L494.985 264.041C494.974 264.706 494.855 265.364 494.635 265.991V265.991Z" fill="#1F686A"/>
<path d="M496.475 238.881L496.725 238.621C496.71 238.683 496.68 238.74 496.636 238.786C496.592 238.832 496.536 238.865 496.475 238.881Z" fill="#1F686A"/>
<path d="M496.475 231.721C496.807 233.931 496.958 236.165 496.925 238.401L496.725 238.621C497.135 237.501 496.115 233.361 496.475 231.721Z" fill="#1F686A"/>
<path d="M489.474 202.891C489.894 204.801 490.384 206.711 490.744 208.631C490.334 207.631 489.744 206.391 490.114 209.041C488.054 201.891 491.014 210.431 489.474 202.891Z" fill="#1F686A"/>
<path d="M485.074 185.22C485.754 188.3 484.714 185.22 484.594 185.48C484.264 183.5 484.194 182.99 485.074 185.22Z" fill="#1F686A"/>
<path d="M418.935 73.3595L418.745 74.0195C417.025 72.3095 418.895 73.8395 418.935 73.3595Z" fill="#1F686A"/>
<path d="M401.944 54.3711L404.074 55.5411L404.614 56.6811L401.944 54.3711Z" fill="#1F686A"/>
<path d="M387.345 49.0505L388.155 49.7305C387.095 48.9005 386.065 48.0305 384.975 47.2305C385.795 47.8005 386.555 48.4405 387.345 49.0505Z" fill="#1F686A"/>
<path d="M177.354 16.6001L177.834 15.6702C179.474 15.3502 180.024 16.0801 177.354 16.6001Z" fill="#1F686A"/>
<path d="M93.8551 60.9102C92.8457 62.4202 91.5137 63.6874 89.9551 64.6201C91.5451 63.1801 92.9651 61.5502 93.8551 60.9102Z" fill="#1F686A"/>
<path d="M16.7146 318.63L16.4346 316.73L17.2146 320.24L16.7146 318.63Z" fill="#1F686A"/>
<path d="M457.254 424.1C456.854 424.32 456.754 423.91 457.574 423.1L458.574 422.85L457.254 424.1Z" fill="#20696A"/>
<path d="M461.475 417.34C462.555 416.43 463.935 415.49 463.815 416.52C462.505 417.25 462.505 417.67 461.045 418.39C460.255 419.26 459.895 420.1 460.185 420.08C459.805 420.3 459.105 421.57 458.415 421.81C459.236 420.149 460.402 418.683 461.835 417.51C462.015 417.09 461.635 417.33 461.475 417.34Z" fill="#20696A"/>
<path d="M456.095 341.04C455.991 340.894 455.904 340.736 455.835 340.57L456.095 341.04Z" fill="#20696A"/>
<path d="M480.414 290.201C480.604 290.681 480.624 290.911 480.584 290.951C480.474 290.491 480.324 290.111 480.414 290.201Z" fill="#20696A"/>
<path d="M474.015 288.23L474.525 287.76C474.387 287.948 474.214 288.108 474.015 288.23V288.23Z" fill="#20696A"/>
<path d="M456.095 341.041C456.358 341.393 456.737 341.641 457.165 341.741C457.185 341.991 456.475 341.631 456.095 341.041Z" fill="#20696A"/>
<path d="M471.855 405.221C471.653 405.51 471.422 405.778 471.165 406.021C471.365 405.761 471.555 405.501 471.735 405.231L471.855 405.221Z" fill="#20696A"/>
<path d="M476.635 341.131L476.915 341.601C476.93 341.771 476.93 341.941 476.915 342.111L476.635 341.131Z" fill="#20696A"/>
<path d="M481.935 363.51C481.935 362.98 482.395 362.79 482.615 362.58C482.404 362.934 482.293 363.338 482.295 363.75C482.195 363.76 482.085 363.69 481.935 363.51Z" fill="#20696A"/>
<path d="M472.835 399.529L472.455 400.089L472.835 399.529Z" fill="#20696A"/>
<path d="M463.744 333.82C463.711 333.904 463.651 333.974 463.574 334.02C463.564 333.99 463.634 333.89 463.744 333.82Z" fill="#20696A"/>
<path d="M356.785 460.5C356.785 460.5 356.785 460.5 356.835 460.57C356.695 460.61 356.635 460.6 356.785 460.5Z" fill="#20696A"/>
<path d="M333.475 475.071L333.845 474.961C333.917 475.027 333.972 475.109 334.005 475.201L333.475 475.071Z" fill="#20696A"/>
<path d="M460.345 304.7V304.61C460.735 304.16 460.555 304.43 460.345 304.7Z" fill="#20696A"/>
<path d="M414.344 338.54C414.184 336.23 413.344 342.13 413.244 338.68C413.394 338.99 414.414 335.71 414.344 338.54Z" fill="#20696A"/>
<path d="M472.125 404.651L472.645 403.801C472.49 404.095 472.316 404.379 472.125 404.651V404.651Z" fill="#20696A"/>
<path d="M413.245 338.68V338.32C413.235 338.47 413.235 338.55 413.245 338.68Z" fill="#20696A"/>
<path d="M460.625 304.99C460.77 305.069 460.894 305.182 460.985 305.32C460.925 305.3 460.855 305.21 460.625 304.99Z" fill="#20696A"/>
<path d="M453.755 315.52L453.475 316.399C453.549 316.1 453.642 315.806 453.755 315.52V315.52Z" fill="#20696A"/>
<path d="M447.265 299.65C446.957 299.945 446.622 300.21 446.265 300.44C446.294 300.379 446.331 300.322 446.375 300.27C446.71 300.125 447.012 299.914 447.265 299.65Z" fill="#20696A"/>
<path d="M434.715 314.99L434.815 314.62L435.155 314.08L434.715 314.99Z" fill="#20696A"/>
<path d="M399.165 415.99C399.055 416.313 398.995 416.65 398.985 416.99C398.875 416.58 397.005 418.93 399.165 415.99Z" fill="#20696A"/>
<path d="M471.615 405.06C471.785 405.06 471.935 404.91 472.125 404.65L471.735 405.23C471.645 405.24 471.575 405.21 471.615 405.06Z" fill="#20696A"/>
<path d="M444.274 296.99C443.33 297.739 442.441 298.554 441.614 299.43C442.42 298.533 443.311 297.716 444.274 296.99Z" fill="#20696A"/>
<path d="M494.524 359.061L494.934 358.371C494.833 358.62 494.694 358.853 494.524 359.061V359.061Z" fill="#20696A"/>
<path d="M435.074 307.07C434.848 307.676 434.577 308.264 434.264 308.83C434.168 308.929 434.061 309.017 433.944 309.09L435.074 307.07Z" fill="#20696A"/>
<path d="M386.194 432.6C384.044 434.75 385.664 433.43 384.194 435.82C382.744 436.66 382.334 438.21 381.464 437.89C381.244 439.01 381.264 438.66 380.304 440.37C380.534 439.44 377.494 442.68 377.164 442.2C377.104 443.2 379.954 440.4 378.734 442.67C377.264 443.67 374.944 445.8 374.254 445.47C373.513 446.555 372.697 447.587 371.814 448.56C372.027 448.334 372.286 448.157 372.574 448.04C369.674 450.21 366.004 454.04 363.884 454.67C365.144 455.07 357.984 459.45 360.714 458.52C359.52 459.388 358.207 460.079 356.814 460.57C357.374 461.1 353.894 462.88 352.734 464.07C351.734 464.07 349.584 465.66 348.034 466.22C348.724 465.98 349.114 465.87 349.034 466.22C347.274 466.82 347.814 466.85 346.604 467.91C344.294 468.85 346.734 467.17 345.244 467.53C343.424 468.68 345.174 468.13 344.984 468.6C343.924 468.88 342.844 469.07 341.764 469.25C341.331 469.465 340.965 469.793 340.704 470.2C339.487 470.35 338.319 470.771 337.284 471.43C338.154 471.15 338.984 470.77 339.814 470.43L339.014 471.23C338.014 471.53 336.854 471.67 335.794 471.9C331.624 474.02 333.224 474.35 333.794 475.01L335.664 474.49C335.664 474.78 334.494 475.39 333.664 475.69C332.954 476.15 336.924 475.48 339.004 474.84C344.334 472.52 339.744 473.48 343.284 471.72C344.924 471.23 346.454 470.5 348.044 469.89L347.974 469.61C348.368 469.275 348.868 469.091 349.384 469.09C348.914 468.95 352.884 466.87 354.624 465.75L354.174 466.44C356.397 465.423 358.427 464.029 360.174 462.32C361.621 460.755 363.238 459.357 364.994 458.15L367.844 456.57L368.004 455.73C369.643 455.012 371.109 453.951 372.304 452.62C379.624 444.62 388.024 436.62 394.304 427.62C394.201 427.984 394.028 428.323 393.794 428.62C398.574 420.26 403.874 417.44 407.984 409.78L407.474 410.15C410.074 406.63 406.974 410.53 408.554 407.75C409.434 407.63 412.154 403.48 413.794 401.55C413.323 402.025 412.882 402.529 412.474 403.06C412.508 402.384 412.777 401.74 413.234 401.24C415.604 399.49 418.974 394.51 421.794 391.09C421.744 390.4 423.704 387.09 424.324 385.09C424.724 384.82 425.474 384.35 426.184 383.95C426.811 382.783 427.677 381.761 428.724 380.95L426.514 383.8L426.614 383.74C426.504 383.84 426.334 384.04 426.194 384.2C425.594 384.96 425.284 385.36 425.394 385.2C424.664 386.87 425.724 385.3 426.054 385.7C426.904 384.52 428.864 382.26 428.764 381.76C429.284 381.07 429.574 380.57 430.074 379.82C430.514 379.416 430.907 378.963 431.244 378.47L431.024 378.66C431.045 378.526 431.082 378.395 431.134 378.27C432.694 375.9 435.824 373.33 437.574 371.78C435.574 373.14 437.404 370.87 437.064 370.57C437.264 370.38 435.434 372.57 433.144 375.38C433.209 375.298 433.252 375.201 433.272 375.099C433.291 374.996 433.285 374.89 433.254 374.79C434.874 372.09 436.944 370.96 439.704 367.38C439.474 367.57 439.014 367.93 439.024 367.66C439.686 366.68 440.617 365.913 441.704 365.45C441.704 364.87 443.704 362.12 445.094 361.06C446.316 360.492 447.398 359.663 448.264 358.63L447.204 359.24C449.284 356.8 449.394 357.77 451.144 355.81C450.454 356.6 450.144 356.42 450.694 355.81C452.147 354.49 453.846 353.47 455.694 352.81L455.034 352.7C457.344 351.06 461.934 348.43 461.584 347.85C461.444 349.15 466.864 344.79 468.914 343.52C468.194 343.93 467.914 343.83 467.824 343.78C472.424 341.67 476.674 338.78 481.444 338.51L482.184 337.74C484.794 337.89 485.264 339.48 487.474 340.32C487.253 340.084 487.02 339.861 486.774 339.65C488.372 340.239 489.803 341.207 490.944 342.47C491.908 343.557 492.594 344.861 492.944 346.27L493.474 345.99C493.602 347.435 493.473 348.89 493.094 350.29C493.524 351.91 492.464 355.1 490.504 358.21C488.544 361.32 485.924 364.48 484.504 367.39L483.504 367.09C481.984 368.97 479.744 371.09 479.504 372.39L479.874 372C480.554 372.32 478.204 373.76 477.224 374.92C476.344 375.66 475.224 376.09 475.804 375.32C471.544 380.18 463.504 385.43 460.504 388.08C457.902 389.448 455.168 390.55 452.344 391.37C449.519 392.229 446.62 392.824 443.684 393.15L443.774 393.25C442.419 393.453 441.054 393.584 439.684 393.64C438.314 393.7 437.164 393.76 437.094 394.13C432.374 392.83 430.154 390.55 425.884 387.02C426.094 387.4 426.344 387.72 426.584 388.07C425.46 387.14 424.53 385.998 423.844 384.71C423.524 384.33 423.624 384.71 423.584 384.83C422.494 383.94 422.404 382.98 421.844 382.04V382.56C420.106 380.312 418.782 377.773 417.934 375.06C416.969 372.03 416.158 368.953 415.504 365.84C415.674 366.94 415.254 366.43 415.034 366.02C415.284 363.45 414.244 356.7 414.414 354.14L414.164 355.73C414.454 350.73 413.004 351.45 413.644 346.5L414.104 349.34C413.964 347.34 414.204 345.63 414.584 346.13C414.434 343.8 413.884 345.81 414.074 342.29C413.814 342.12 413.704 344.82 413.474 343.63C413.404 341.99 413.284 340.32 413.304 338.63C413.306 337.827 413.411 337.027 413.614 336.25C414.614 336.83 414.344 332.25 414.984 334.84C416.234 328.06 417.254 322.16 419.984 316.84C419.984 315.51 421.114 312.76 422.234 310.43C423.354 308.1 424.424 306.21 423.694 306.1C425.027 303.69 426.938 301.649 429.254 300.16C428.78 300.708 428.257 301.213 427.694 301.67C428.464 301.18 431.304 298.44 432.624 297.67C430.744 298.53 428.034 300.88 426.624 301.94C427.733 300.685 428.985 299.564 430.354 298.6C431.312 297.831 432.404 297.244 433.574 296.87C433.667 296.579 433.801 296.302 433.974 296.05C434.596 296.152 435.208 296.306 435.804 296.51C436.234 296.67 436.754 296.98 437.044 298.19C436.914 298.09 436.774 298.01 436.644 297.92C437.414 299.183 437.764 300.656 437.644 302.13C437.644 303.29 437.584 304.4 437.644 306.56L437.914 306.35C438.124 307.86 437.374 310.04 437.914 311.53C437.964 310.58 438.064 309.63 438.064 308.69C438.574 308.98 438.704 311.19 438.824 312.22C438.364 315.22 437.904 313.22 437.644 314.69C438.004 315.4 437.854 314.9 438.464 313.9C437.894 317.3 436.464 321.71 434.944 323.69C434.944 323.86 435.114 323.74 435.114 323.74C434.531 325.259 433.762 326.7 432.824 328.03C432.184 328.91 432.064 328.85 431.824 329.6L432.004 329.45C431.944 329.694 431.86 329.932 431.754 330.16C431.634 330.33 431.364 330.16 431.194 330.1C430.818 329.857 430.553 329.477 430.454 329.04C430.244 328.21 430.354 327.89 429.744 327.42C429.654 326.76 429.634 327.6 429.634 328.03C429.634 328.46 429.634 329.03 429.254 328.21C429.119 327.669 429.098 327.106 429.192 326.557C429.287 326.008 429.496 325.484 429.804 325.02C430.383 324.214 430.8 323.304 431.034 322.34C430.874 322.83 430.874 322.65 430.704 322.77C431.88 319.927 433.299 317.19 434.944 314.59C435.826 312.238 437.109 310.056 438.734 308.14C440.435 306.116 442.018 303.996 443.474 301.79C442.824 303.01 444.534 301.35 444.664 301.49C444.794 301.63 444.464 301.49 444.534 301.37C445.059 300.793 445.764 300.412 446.534 300.29C447.065 299.704 447.731 299.258 448.474 298.99C449.324 298.67 450.114 298.55 450.414 298.36C450.504 298.59 451.414 298.27 452.574 298.31C450.304 298.13 451.824 297.83 450.684 297.55C451.344 297.399 452.027 297.381 452.693 297.498C453.36 297.615 453.996 297.864 454.564 298.23C455.494 298.8 456.344 299.4 457.834 300.51C458.477 300.836 459.083 301.228 459.644 301.68C459.524 302.07 460.054 302.9 460.434 303.68C460.814 304.46 461.134 305.28 460.994 305.29C461.434 305.79 461.744 306.68 462.064 306.47C462.304 308 462.534 310.42 462.014 311.03C462.023 310.509 461.996 309.988 461.934 309.47C461.983 311.538 461.479 313.582 460.474 315.39C459.654 317.02 458.694 318.39 457.794 320.08L458.694 320.63C457.608 322.566 455.867 324.051 453.784 324.82C454.074 324.64 454.204 324.53 454.154 324.48C453.887 324.42 453.631 324.319 453.394 324.18C453.784 324.257 454.187 324.233 454.564 324.11C455.241 323.879 455.852 323.488 456.344 322.97C455.661 323.558 454.774 323.856 453.874 323.8C454.482 323.73 455.056 323.483 455.524 323.09C456.194 322.573 456.805 321.982 457.344 321.33C455.564 322.85 455.804 322.6 456.034 321.76C454.954 322.76 454.494 323.09 454.134 323.36C453.774 323.63 453.484 323.69 453.244 323.24C453.084 323.17 452.994 323.24 452.864 323.3C452.734 323.36 452.604 323.51 452.344 323.12C452.024 321.12 451.944 318.29 453.184 316.49C453.304 315.82 452.754 317.61 452.584 317.38C452.942 316.159 453.515 315.011 454.274 313.99L453.794 315.52C454.274 314.2 454.794 314.15 455.624 311.62C456.514 310.33 457.354 309.79 456.624 311.28C456.964 310.71 457.374 309.28 456.864 309.58C458.864 305.9 458.754 308.36 460.364 304.7C460.194 304.91 459.994 305.13 460.024 304.97C460.392 304.217 460.845 303.509 461.374 302.86C459.374 305.76 461.244 301.44 459.154 305.09C458.904 304.4 460.774 302.32 461.374 301.09C462.894 299.65 462.154 301.37 462.994 300.71C462.844 300.62 463.314 299.93 463.884 299.1L463.634 300.1C464.162 299.396 464.737 298.728 465.354 298.1L464.174 299.32C465.224 297.83 466.524 295.23 469.074 293.2C468.354 293.68 466.914 294.69 468.274 292.98C470.974 290.63 468.724 292.26 469.964 290.61C472.674 288.28 470.864 290.69 474.724 287.15C475.164 286.79 474.914 287.32 474.544 287.76C475.064 287.253 475.633 286.801 476.244 286.41C476.377 286.318 476.527 286.253 476.684 286.219C476.842 286.184 477.005 286.181 477.164 286.21C477.475 286.298 477.746 286.488 477.934 286.75C478.373 287.298 478.777 287.872 479.144 288.47C478.334 287.21 477.704 286.47 478.454 288.16C478.364 287.25 480.074 290.37 480.654 291.56L480.584 291.95C481.134 292.86 480.884 291.76 480.584 290.95C480.524 290.95 480.364 290.74 480.124 290.16C479.534 288.61 480.614 288.71 481.714 291.23C482.514 294.06 481.714 293.77 481.424 293.37C482.644 297 481.424 297 482.204 300.5C482.314 301.3 483.374 304.03 483.374 306.76C482.874 308.13 483.044 303.41 482.604 304.96C483.814 309.45 481.484 314.07 480.934 319.79L481.674 319.21C481.437 320.598 481.083 321.963 480.614 323.29C480.714 322.63 480.794 321.96 480.854 321.29C480.414 322.57 479.494 325.58 480.244 324.76C478.714 327.44 478.714 328.1 477.474 330.65C478.894 328.01 477.474 330.59 478.744 328.78C478.104 330.555 477.079 332.167 475.744 333.5C476.124 333.34 475.744 334.5 475.114 335.11C473.514 336.45 470.874 338.81 468.244 339.95L468.334 340.1C466.173 341.198 463.861 341.969 461.474 342.39C460.247 342.56 459.002 342.56 457.774 342.39C457.257 342.351 456.771 342.128 456.404 341.761C456.037 341.394 455.814 340.908 455.774 340.39V340.39V340.19C455.774 340.29 455.774 340.39 455.864 340.49C456.324 340.97 456.074 340.39 456.254 339.33C456.45 338.28 456.992 337.326 457.794 336.62C457.894 336.34 457.794 336.02 458.364 335.53C458.694 335.86 459.884 334.77 460.574 334.75C461.914 334.08 460.084 334.1 462.714 333.46C463.764 333.32 463.914 333.64 463.804 333.83C464.986 333.362 466.28 333.251 467.524 333.51C467.008 333.343 466.467 333.269 465.924 333.29C465.754 332.98 466.734 333.18 466.754 332.85C468.084 333.02 467.204 333.38 468.824 333.63C468.377 333.34 467.913 333.076 467.434 332.84C468.057 332.916 468.658 333.113 469.204 333.42C468.274 333.01 468.504 332.65 468.724 332.42C472.454 334.12 469.034 333.7 469.154 334.21C472.534 335.21 474.294 337.8 475.824 339.97L475.904 339.25C476.43 339.934 476.795 340.727 476.974 341.57C477.324 342.17 477.654 342.79 477.974 343.42C477.604 342.25 477.514 341.83 477.814 341.56C478.814 343.56 480.074 346.56 479.614 347.32L479.684 347.2C480.42 349.009 481.018 350.871 481.474 352.77C481.676 353.901 481.967 355.015 482.344 356.1C482.634 359.41 483.014 363.62 482.344 363.72C482.184 365.66 483.004 368.89 482.014 370.22C482.204 372.6 482.174 370.37 482.724 369.69C482.944 372.11 481.444 374.31 482.224 375.24C481.454 377.91 482.144 374.57 481.574 375.41C482.374 376.16 480.694 380.41 480.384 383.05C479.714 384.05 480.504 381.86 479.584 383.67C479.864 383.55 479.584 384.56 479.414 385.08L478.734 385.39C478.904 386.39 478.994 387.33 479.114 388.32C477.064 391.74 478.584 387.27 476.344 391.97L476.514 391.7C476.454 393.23 474.634 394.91 473.264 398.4C473.784 397.22 473.744 398.06 474.074 397.77L472.884 399.5C472.994 399.35 473.074 399.29 473.034 399.5C472.494 401.31 472.034 400.78 471.294 402.81C472.144 401.6 472.294 402.19 472.114 402.81L469.964 405.11L471.264 404.44C469.734 407.07 466.264 410.05 466.144 411.87L467.144 410.72C467.224 410.91 467.144 411.97 465.644 413.38C465.194 413.85 464.594 413.92 465.124 413.24L464.354 414.55C465.194 414.28 467.534 411.31 468.984 409.42C468.404 409.93 467.214 411.33 467.294 410.7C468.644 409.08 470.014 407.58 471.294 405.94C470.839 406.368 470.328 406.731 469.774 407.02C470.774 404.96 470.984 405.77 471.924 404.31C472.104 403.65 472.224 403.2 471.874 403.5C473.122 401.864 474.132 400.059 474.874 398.14C474.874 398.14 473.334 400.23 473.774 398.86C475.954 395.31 476.874 394.86 478.964 390.77C481.774 386.15 481.864 380.95 483.184 377.52C483.444 377.36 482.974 380.3 483.614 377.98C483.094 378.3 483.614 376.52 483.494 376.37C484.594 373.92 483.994 372.57 484.634 370.8C484.444 371.21 484.434 369.68 484.374 368.68C483.804 368.92 484.374 365.84 483.304 369.5C484.464 365.71 483.424 362.75 484.484 359.83L484.704 360.83C484.534 359.52 484.384 358.23 484.124 356.94V357.11C484.002 355.686 483.619 354.296 482.994 353.01C483.044 354.01 483.274 355.37 483.264 356.35C482.524 354.35 482.994 352.06 482.434 349.8C482.104 350 482.854 352.16 482.234 351.61C481.814 350.05 481.744 348.61 481.394 347.16L481.254 347.43C479.454 343.82 481.764 345.54 479.934 343.07C480.084 343.07 480.054 342.7 480.254 342.82C479.574 341.87 477.974 339.82 478.954 342.19C478.369 341.085 477.848 339.946 477.394 338.78C478.344 339.59 478.394 339.95 478.954 340.13C478.013 338.383 476.839 336.771 475.464 335.34C474.974 334.89 475.704 335.82 476.244 336.44C473.534 334.3 470.654 332.15 466.964 331.44C465.103 331.037 463.173 331.085 461.334 331.58C459.367 332.077 457.647 333.271 456.494 334.94C456.894 334.05 455.814 335.1 455.194 335.67C454.196 337.077 453.76 338.808 453.974 340.52C454.118 341.527 454.649 342.439 455.454 343.06C456.127 343.543 456.927 343.818 457.754 343.85C457.492 343.731 457.238 343.594 456.994 343.44C459.327 343.999 461.748 344.079 464.112 343.673C466.476 343.267 468.732 342.385 470.744 341.08C470.964 341.08 470.534 340.81 469.884 341.08C472.754 340.02 474.314 336.56 475.474 336.67C475.244 336.94 475.024 337.22 474.774 337.47C479.032 333.222 482.166 327.981 483.894 322.22C483.734 320.75 482.894 325.45 482.584 324.1C483.584 320.21 484.784 316.28 485.054 311.92C484.989 312.214 484.899 312.502 484.784 312.78C484.854 308.43 485.324 313.32 485.564 309.65C485.274 309.83 485.214 309.65 485.144 308.43L485.634 307.37C485.574 307.19 485.224 307.21 485.064 307.74C485.794 306.14 485.244 301.25 485.574 299.91C485.404 299.59 484.974 300.56 484.714 300.08C484.442 298.571 484.285 297.043 484.244 295.51V295.51C483.634 294.23 482.614 291.07 482.764 291.77C481.334 288.58 482.914 291.13 482.144 288.52C482.644 289.33 483.064 290.19 483.484 291.05C482.951 289.446 482.282 287.891 481.484 286.4C481.724 287.03 481.984 287.66 482.174 288.31C481.554 287.31 481.174 286.31 480.424 285.12C479.993 284.419 479.396 283.835 478.684 283.42C477.864 282.983 476.904 282.89 476.014 283.16C476.566 282.879 477.175 282.731 477.794 282.73C476.344 282.525 474.87 282.883 473.674 283.73C473.674 284.49 470.674 286.3 472.464 285.86C468.394 289.66 465.294 291.64 461.964 295.57C462.514 294.87 462.414 295.23 462.604 295.16C461.303 296.934 459.84 298.585 458.234 300.09C458.614 299.91 459.064 299.36 459.234 299.45C457.234 302.38 457.684 300.99 455.474 304.24C456.264 303.44 456.214 303.81 455.744 304.76C455.614 304.5 455.004 305.19 454.594 305.76C457.144 303.83 453.014 309.86 454.824 308.76C454.454 308.76 451.454 314.01 451.684 312.24L452.204 311.31C451.924 311.05 451.434 312.42 451.024 313.44C451.284 312.93 451.594 312.44 451.674 312.44C451.035 313.694 450.468 314.982 449.974 316.3C449.354 317.766 448.979 319.323 448.864 320.91C448.807 321.835 448.895 322.763 449.124 323.66C449.413 324.797 450.071 325.807 450.994 326.53C452.013 327.261 453.27 327.582 454.514 327.43C455.594 327.262 456.62 326.848 457.514 326.22C456.917 326.542 456.287 326.797 455.634 326.98C454.924 327.11 454.634 327.12 455.634 326.72C457.107 325.99 458.401 324.946 459.424 323.66C460.314 322.66 461.114 321.66 461.874 320.66C463.631 318.379 464.925 315.777 465.684 313C465.304 312.77 464.934 314.56 464.224 316.29C463.514 318.02 462.574 319.68 462.164 319.57C464.072 316.556 465.225 313.125 465.524 309.57C465.843 305.536 464.548 301.541 461.924 298.46C460.474 297.82 459.094 296.46 456.984 295.34C455.839 294.679 454.555 294.293 453.235 294.211C451.914 294.13 450.593 294.355 449.374 294.87C449.804 294.32 446.954 294.87 444.724 296.56C445.654 296.28 443.394 298 444.184 297.71C441.984 298.83 437.814 303.53 438.634 303.87C437.634 303.79 435.784 307.52 434.374 308.7C433.094 311.12 431.094 313.59 429.794 316.79C429.864 315.47 428.104 319.79 427.484 320.89C427.644 320.57 427.994 319.89 427.984 320.12C427.784 321.02 427.447 321.883 426.984 322.68C426.455 323.825 426.172 325.069 426.154 326.33C426.294 327.33 426.574 326.09 426.624 327.76C426.514 327.76 426.464 328.31 426.524 329.23C426.596 330.346 426.939 331.428 427.524 332.38C428.131 333.397 429.05 334.19 430.144 334.64C430.634 334.803 431.131 334.94 431.634 335.05L431.974 335.12C432.064 335.12 432.124 335 432.204 334.94L432.584 334.56L432.064 334.94C431.934 335.04 431.754 334.84 431.634 334.82L430.854 334.36C431.214 334.5 431.604 334.63 431.984 334.75L432.794 334.13L433.624 333.49C433.773 333.392 433.91 333.278 434.034 333.15L434.424 332.54L435.964 330.07L436.824 328.46C437.902 326.309 438.799 324.071 439.504 321.77C440.863 317.133 441.681 312.355 441.944 307.53L441.334 309.21C441.004 306.21 441.134 305.31 441.404 304.46C441.894 303.183 441.975 301.785 441.634 300.46C441.286 298.485 440.474 296.62 439.264 295.02C438.448 293.985 437.346 293.213 436.094 292.8C434.776 292.407 433.362 292.485 432.094 293.02C430.416 293.857 428.9 294.985 427.614 296.35C426.424 297.529 425.325 298.796 424.324 300.14C420.384 305.5 417.924 311.31 415.514 316.93C415.044 317.71 415.514 316.37 415.324 316.13C415.014 317.13 415.324 317.62 414.574 318.87L414.394 318.46C413.854 321.25 412.484 325.05 411.564 328.81C410.644 332.57 410.024 336.23 410.464 338.36C409.374 343.64 409.984 347.43 409.464 353.93C409.874 355.93 409.864 351.53 410.114 354.28C410.044 356.28 410.114 358.28 410.114 360.28V359.95C410.177 363.589 410.909 367.186 412.274 370.56C413.664 374.41 415.544 378.19 417.074 381.56L416.954 381.26C417.064 381.02 418.064 382.19 418.604 383.26C418.684 383.7 418.204 383.05 417.684 382.53C418.783 384.677 420.125 386.69 421.684 388.53C423.038 390.151 424.582 391.601 426.284 392.85C424.594 391.21 428.194 393.92 428.684 393.54C429.774 394.48 427.684 393.61 430.414 395.27C432.386 396.227 434.5 396.859 436.674 397.14C438.628 397.354 440.597 397.374 442.554 397.2C444.074 397.55 446.024 397.2 446.194 397.62C450.808 396.941 455.272 395.48 459.394 393.3L459.454 393.08C461.234 392.91 463.844 390.23 464.944 389.92C464.684 389.82 464.104 390.09 464.144 389.86L466.514 388.54C465.354 389.1 464.434 389 466.214 387.71C468.344 386.78 465.864 388.32 466.984 387.98L467.224 387.11C468.654 386.11 469.444 386.4 467.824 387.78C472.542 384.576 476.957 380.948 481.014 376.94L480.344 377.06C482.525 375.182 484.451 373.027 486.074 370.65C486.204 370.65 486.824 370.24 486.624 370.65C489.254 368.3 486.394 369.98 489.214 367.37C488.534 368.04 487.704 368.9 487.444 368.89C489.074 367.15 490.614 365.39 492.134 363.49C491.974 363.25 493.914 359.29 495.284 356.49C495.474 356.43 495.344 357.36 495.004 358.09C495.354 357.51 495.654 356.91 496.004 356.3C496.004 355.74 496.004 355.17 495.934 354.61C496.451 353.747 496.906 352.848 497.294 351.92L496.764 351.75C497.264 349.65 498.054 348.75 497.894 346.83C497.69 344.739 496.896 342.748 495.604 341.09C494.664 339.898 493.52 338.882 492.224 338.09C492.364 337.5 490.724 336.28 488.814 335.59C486.904 334.9 484.814 334.66 484.294 334.23C480.556 334.352 476.879 335.212 473.474 336.76C469.837 338.305 466.399 340.283 463.234 342.65L463.804 342.38C461.354 344.58 460.244 343.8 457.544 346.12L458.344 345.71C454.974 348.79 448.694 353.64 445.344 356.37C446.084 355.86 445.994 356.37 444.984 357.37C443.984 358.05 445.284 356.05 443.684 357.9C444.184 357.55 444.004 358.05 443.614 358.44C442.924 358.88 442.224 359.31 441.564 359.78C437.424 364.52 432.974 370.35 428.724 375.21C428.124 376.21 428.814 375.7 429.134 375.59C425.854 379.5 422.494 383.33 419.684 386.99L419.894 387.72C418.584 389.55 418.334 388.31 417.064 391.01C416.744 391.59 418.224 389.45 418.904 389.01C416.654 392.95 416.904 390.83 414.424 394.4L415.634 393.87C414.064 396.81 413.164 396.74 412.144 397.5C408.824 400.84 411.334 400.96 407.234 405.79C406.384 406.41 407.014 405.23 406.164 405.86C403.764 409.58 403.074 409.75 400.644 413.46C400.104 415.97 401.964 411.62 401.244 414.27L403.004 411.39C401.774 414.09 404.644 409.3 404.874 410.03C403.774 411.92 401.424 414.32 399.604 416.51C399.974 416.78 401.604 413.86 401.304 415.29L400.304 416.36C400.718 416.164 401.065 415.851 401.304 415.46C401.304 416.14 400.304 416.88 399.504 417.99C399.254 417.93 399.024 417.67 399.034 417.11C399.035 417.249 399.004 417.385 398.944 417.51C396.744 419.42 394.264 423.57 392.354 425.17C392.694 424.94 392.524 425.23 392.534 425.4C391.534 426.8 389.924 427.78 388.364 429.48C387.834 430.66 389.624 429.56 387.134 432.29C386.424 432.55 386.964 430.88 384.994 433.29C384.944 433.19 386.914 431.32 386.194 432.6ZM428.194 376.83L429.194 375.67L428.194 376.83ZM432.024 372.7C431.634 373.18 431.354 373.25 431.354 372.98L433.044 370.92C432.624 371.71 431.774 372.89 432.074 372.7H432.024ZM427.304 383.33L427.424 383.28L428.494 381.98C428.494 382.15 428.374 382.46 427.734 383.18C427.622 383.261 427.492 383.313 427.354 383.33H427.304Z" fill="#20696A"/>
<path d="M426.214 384.16C426.124 384.27 426.054 384.32 425.944 384.46C426.034 384.28 426.114 384.1 426.204 383.93L426.534 383.76L426.214 384.16Z" fill="#20696A"/>
<path d="M455.805 340.481V340.571C455.773 340.503 455.733 340.439 455.685 340.381C455.755 340.441 455.775 340.441 455.805 340.481Z" fill="#20696A"/>
<path d="M497.305 352.241L497.185 352.201L497.415 351.641L497.305 352.241Z" fill="#20696A"/>
<path d="M480.165 342.891C480.287 342.991 480.389 343.113 480.465 343.251C480.349 343.145 480.248 343.024 480.165 342.891V342.891Z" fill="#20696A"/>
<path d="M484.034 357.18C484.174 357.86 484.314 358.55 484.414 359.25C484.244 358.35 484.134 357.7 484.034 357.18Z" fill="#20696A"/>
<path d="M484.474 368.561C484.416 368.646 484.337 368.715 484.244 368.761V368.761L484.474 368.561Z" fill="#20696A"/>
<path d="M450.915 313.57C450.855 313.71 450.795 313.85 450.735 313.97C450.265 314.91 450.555 314.26 450.915 313.57Z" fill="#20696A"/>
<path d="M484.155 295.6C484.126 295.013 484.062 294.429 483.965 293.85C484.265 294.77 484.415 295.51 484.155 295.6Z" fill="#20696A"/>
<path d="M444.604 296.689H444.614L444.274 296.939L444.604 296.689Z" fill="#20696A"/>
<path d="M483.194 291.439C483.566 292.201 483.825 293.013 483.964 293.849C483.724 293.089 483.394 292.219 483.194 291.439Z" fill="#20696A"/>
<path d="M466.215 413.59L465.915 414.04C465.915 414.04 465.855 414.04 465.805 414.04L466.215 413.59Z" fill="#20696A"/>
<path d="M465.805 414.041L465.395 414.491C465.506 414.32 465.645 414.168 465.805 414.041V414.041Z" fill="#20696A"/>
<path d="M464.534 415.43L465.394 414.49C465.165 414.852 464.874 415.17 464.534 415.43V415.43Z" fill="#20696A"/>
<path d="M474.185 400.91L474.425 400.85C474.393 400.88 474.355 400.901 474.312 400.911C474.27 400.922 474.226 400.921 474.185 400.91Z" fill="#20696A"/>
<path d="M476.355 396.91C475.889 398.255 475.307 399.557 474.615 400.8L474.425 400.85C475.015 400.36 475.635 397.69 476.355 396.91Z" fill="#20696A"/>
<path d="M480.725 378.51C480.475 379.73 480.245 380.95 479.925 382.15C479.925 381.47 479.925 380.59 479.395 382.15C480.055 377.54 479.595 383.26 480.725 378.51Z" fill="#20696A"/>
<path d="M482.084 367.1C481.874 369.1 481.804 367.1 481.694 367.16C481.944 365.92 482.004 365.61 482.084 367.1Z" fill="#20696A"/>
<path d="M476.125 332.75L475.645 332.64C476.535 331.46 475.795 332.73 476.125 332.75Z" fill="#20696A"/>
<path d="M484.255 318.811L484.205 320.391L483.625 321.011L484.255 318.811Z" fill="#20696A"/>
<path d="M482.264 308.991L482.154 309.651L482.444 307.141C482.394 307.761 482.334 308.381 482.264 308.991Z" fill="#20696A"/>
<path d="M436.945 312.12L436.725 311.43C437.385 310.63 438.015 310.8 436.945 312.12Z" fill="#20696A"/>
<path d="M436.475 298.46L434.715 296.93C435.097 297.051 435.451 297.249 435.754 297.512C436.056 297.775 436.302 298.098 436.475 298.46V298.46Z" fill="#20696A"/>
<path d="M485.754 364.6L484.864 365.43L486.374 363.74L485.754 364.6Z" fill="#20696A"/>
<path d="M309.234 231.99C309.044 223.89 305.234 216.86 301.954 212.21C298.784 210.98 295.714 209.41 292.874 208.01C287.784 205.48 282.504 203.12 277.634 200.15C273.775 198.628 270.003 196.896 266.334 194.96C262.134 192.66 258.774 189.12 254.454 187.01C253.6 186.573 252.87 185.926 252.334 185.13C250.372 183.461 248.684 181.494 247.334 179.3C246.304 177.745 245.662 175.965 245.464 174.11C244.984 166.94 253.554 163.11 257.874 157.31C264.084 149.03 260.964 137.31 257.584 127.54C255.904 122.67 254.374 119.71 251.584 117.88C248.104 115.53 244.244 115.76 242.684 115.79C226.684 116.07 214.374 99.6402 209.794 103C205.884 105.88 211.604 120.26 218.234 136.9C226.574 157.9 229.004 159.99 230.614 169.85C232.504 181.47 229.974 194.62 220.954 202.19C214.954 207.27 206.954 209.19 199.464 211.82C191.974 214.45 184.334 218.63 181.314 225.93C179.824 229.52 179.654 233.51 179.504 237.4C178.744 256.553 177.988 275.71 177.234 294.87C177.13 295.905 177.225 296.951 177.514 297.95C178.994 301.95 185.264 300.95 188.344 297.95C191.424 294.95 193.644 290.62 197.774 289.41C203.454 287.76 209.084 293.71 209.314 299.62C209.544 305.53 206.114 310.93 202.554 315.62C198.064 321.62 193.144 327.19 188.124 332.72C188.156 333.453 188.068 334.186 187.864 334.89C183.377 350.229 181.196 366.15 181.394 382.13C182.255 382.432 183.05 382.897 183.734 383.5C187.434 386.81 188.734 391.64 189.174 396.39C189.274 397.3 189.324 398.22 189.364 399.14C191.617 401.833 193.386 404.894 194.594 408.19C217.252 406.755 239.988 407.09 262.594 409.19C273.924 410.25 285.674 411.72 296.444 408.05C298.614 407.31 300.844 406.26 302.014 404.3C303.754 401.39 302.884 397.9 302.544 396.6C298.874 382.19 258.594 320.67 265.394 288.51C271.114 261.39 309.844 258.46 309.234 231.99Z" fill="#E9D0C6"/>
<path d="M310.915 390.111C311.055 389.82 311.215 389.539 311.395 389.271C311.505 386.961 311.645 384.641 311.825 382.331C310.83 367.368 308.964 352.476 306.235 337.731C299.935 329.731 293.595 321.731 288.095 313.121C284.905 308.121 281.905 302.491 282.585 296.611C283.265 290.731 289.325 285.231 294.865 287.311C298.865 288.831 300.775 293.311 303.615 296.541C306.455 299.771 312.615 301.271 314.415 297.361C314.785 296.384 314.958 295.344 314.925 294.301C315.645 275.141 316.358 255.981 317.065 236.821C317.205 232.931 317.335 228.951 316.135 225.251C313.685 217.741 306.325 213.021 299.135 209.801C294.235 207.611 289.045 205.731 284.455 203.021C284.175 202.891 283.895 202.781 283.625 202.641L281.625 201.641C280.284 201.306 278.968 200.882 277.685 200.371C277.247 200.192 276.82 199.988 276.405 199.761C273.308 199.484 270.26 198.812 267.335 197.761C265.803 197.238 264.46 196.275 263.475 194.991L262.875 194.791C260.248 193.973 257.577 193.305 254.875 192.791C254.335 192.681 253.785 192.581 253.235 192.501L252.505 192.391C251.365 200.391 249.995 208.341 248.835 216.311C247.715 224.091 246.665 231.901 245.685 239.741C246.694 240.356 247.506 241.249 248.022 242.313C248.538 243.377 248.737 244.567 248.595 245.741C246.105 260.041 248.445 277.181 239.705 289.671C239.095 290.583 238.25 291.314 237.259 291.786C236.268 292.258 235.168 292.453 234.075 292.351C233.565 294.201 233.075 296.041 232.455 297.871C231.365 301.281 228.225 302.421 225.325 301.871C220.995 317.571 211.595 335.231 202.635 350.561C201.695 355.371 200.765 360.191 199.805 365.001C197.478 376.647 195.061 388.277 192.555 399.891C201.655 402.401 211.555 402.021 221.065 401.891C244.142 401.49 267.215 402.928 290.065 406.191C293.065 406.621 296.065 407.081 299.065 407.531C303.645 402.071 308.075 396.651 310.915 390.111Z" fill="#E9D0C6"/>
<path d="M325.205 232.18C326.845 222.57 324.815 213.96 316.745 207.24C308.675 200.52 298.315 198.76 288.745 196.31C283.825 195.05 279.935 195.31 275.745 192.95C269.285 189.35 267.635 183.51 266.235 176.64C266.125 176.08 265.775 175.02 265.045 175.07C264.315 175.12 264.045 176.21 263.795 176.79C263.562 177.429 263.486 178.115 263.575 178.79C263.985 184.88 265.075 190.57 269.795 194.71C274.515 198.85 279.745 199.11 285.695 201.05C295.075 204.1 305.625 204.05 312.885 212.1C322.885 223.2 319.155 234.28 315.215 247.55C311.275 260.82 309.215 273.28 312.555 286.99C313.295 289.99 314.965 292.7 315.975 295.63C317.155 296.375 318.275 297.211 319.325 298.13C319.535 298.29 319.545 297.7 319.645 297.49C320.205 296.34 320.865 294.98 321.405 293.84C319.755 287.26 316.185 282.46 316.095 275.33C315.925 260.21 322.605 247.48 325.205 232.18Z" fill="#534741"/>
<path d="M351.775 256.849C350.924 256.165 350.138 255.406 349.425 254.579C345.375 248.989 343.585 242.489 342.075 235.889C339.315 223.769 337.875 211.289 333.235 199.669C330.772 193.577 327.819 187.694 324.405 182.079C320.405 175.479 314.185 171.579 306.735 169.629C303.365 168.749 299.975 167.919 296.625 166.929C292.013 165.646 287.729 163.392 284.059 160.319C280.389 157.245 277.418 153.424 275.345 149.109C272.855 144.169 270.915 138.939 268.705 133.849C267.595 131.299 266.435 128.779 265.265 126.259C261.755 118.649 255.875 114.139 247.625 112.499C242.035 111.389 236.445 110.139 230.975 108.549C220.195 105.419 214.175 97.8794 212.215 87.0394C211.855 85.0394 212.395 82.8394 212.735 80.7594C212.805 80.3094 213.735 79.9894 214.315 79.6094C214.595 80.1794 215.105 80.7394 215.125 81.3194C215.595 92.3794 221.875 100.669 232.545 103.689C237.795 105.169 243.185 106.219 248.545 107.229C258.465 109.079 265.765 114.349 270.025 123.519C273.135 130.199 275.945 137.019 278.895 143.779C283.195 153.609 290.445 159.899 301.005 162.239C303.095 162.709 305.145 163.349 307.235 163.829C317.645 166.199 325.395 172.179 330.995 181.159C337.635 191.839 341.285 203.589 343.635 215.829C346.095 228.589 347.965 241.489 352.275 253.829C352.456 254.657 352.54 255.503 352.525 256.349L351.775 256.849Z" fill="#534741"/>
<path d="M194.475 201.719C195.125 199.239 195.475 197.229 196.175 195.319C198.218 189.805 199.323 183.988 199.445 178.109C199.364 173.095 198.237 168.153 196.135 163.599C192.675 155.409 189.295 147.199 187.455 138.439C185.395 128.599 184.455 118.799 188.115 109.129C188.82 107.371 189.766 105.718 190.925 104.219C191.291 103.859 191.734 103.587 192.221 103.424C192.708 103.261 193.226 103.212 193.735 103.279C192.713 105.377 191.818 107.534 191.055 109.739C188.115 119.989 189.475 130.129 192.415 139.989C194.657 147.343 197.328 154.559 200.415 161.599C204.607 171.055 205.256 181.704 202.245 191.599C201.365 194.649 199.745 197.499 198.525 200.279C211.525 195.819 223.255 189.569 224.695 173.079L225.315 172.969C225.822 173.612 226.242 174.318 226.565 175.069C227.625 178.809 226.675 182.319 225.005 185.649C221.863 192.257 216.435 197.504 209.725 200.419C203.605 203.039 197.295 205.189 191.065 207.549C178.015 212.549 167.575 224.129 168.785 239.549C169.175 244.549 171.165 249.549 173.035 254.309C176.125 262.159 178.325 270.119 177.865 278.619C177.604 286.182 175.978 293.635 173.065 300.619C172.466 301.559 171.724 302.399 170.865 303.109C170.505 301.969 169.745 300.779 169.865 299.689C170.405 294.889 171.145 290.109 171.915 285.329C173.422 276.282 172.444 266.995 169.085 258.459C167.195 253.599 165.255 248.629 164.395 243.529C163.436 238.431 163.695 233.179 165.151 228.2C166.607 223.221 169.22 218.657 172.775 214.879C178.135 208.879 184.505 204.459 192.375 202.389C193.255 202.159 194.075 201.839 194.475 201.719Z" fill="#534741"/>
<path d="M301.404 407.99C302.395 407.644 303.289 407.068 304.014 406.31C307.334 402.17 310.444 397.73 311.704 392.45C314.884 379.14 315.125 366.59 311.555 353.45C307.615 338.91 302.155 325.45 293.115 313.18C289.225 307.9 282.114 302.9 280.784 295.8C279.454 288.7 282.724 283.2 287.534 277.95C290.534 274.63 294.805 271.79 297.115 267.6C303.295 256.36 302.354 246.41 300.264 234.17C300.043 233.411 299.63 232.722 299.065 232.17C298.705 231.76 298.355 232.03 298.315 232.29C298.099 233.635 298.048 235.002 298.164 236.36C299.094 250.24 297.284 260.36 287.714 270.89C286.024 272.75 283.715 274.16 282.295 276.16C277.595 282.53 274.295 287.71 275.295 296.16C276.295 304.61 285.354 311.11 289.764 317.85C298.851 331.684 305.061 347.206 308.024 363.49C310.464 376.49 307.024 388.74 303.024 401.08C302.584 402.44 301.575 403.97 301.235 404.99C300.903 405.787 300.716 406.637 300.685 407.5C300.825 407.99 300.774 408.18 301.404 407.99Z" fill="#534741"/>
<path d="M195.635 409.989C194.633 409.675 193.718 409.131 192.965 408.399C189.495 404.399 186.225 400.069 184.775 394.839C181.105 381.649 180.405 369.119 183.495 355.839C186.885 341.159 191.855 327.509 200.435 314.919C204.125 309.499 211.055 304.239 212.125 297.089C213.195 289.939 209.715 284.579 204.725 279.509C201.555 276.299 197.225 273.619 194.725 269.509C188.135 258.509 188.725 248.509 190.345 236.219C190.544 235.467 190.933 234.778 191.475 234.219C191.815 233.789 192.175 234.049 192.235 234.309C192.493 235.65 192.59 237.016 192.525 238.379C192.105 252.279 194.285 262.379 204.235 272.489C205.995 274.289 208.315 275.619 209.855 277.559C214.775 283.759 218.285 288.809 217.525 297.279C216.765 305.749 208.025 312.599 203.865 319.489C195.294 333.652 189.658 349.394 187.295 365.779C185.295 378.859 189.185 390.969 193.645 403.159C194.135 404.489 195.195 405.989 195.575 406.999C195.939 407.78 196.156 408.62 196.215 409.479C196.225 409.989 196.275 410.159 195.635 409.989Z" fill="#534741"/>
<path d="M199.215 110.86C199.605 105.59 199.855 101.32 200.295 97.0698C200.385 96.2098 201.165 95.4098 201.625 94.5898C202.165 95.3631 202.57 96.2218 202.825 97.1299C203.455 103.36 203.905 109.61 204.525 115.85C205.439 124.85 207.701 133.662 211.235 141.99C213.704 147.964 217.602 153.242 222.585 157.36C228.775 162.47 235.815 163.24 242.935 160.36C247.725 158.45 252.065 155.36 256.505 152.63C258.725 151.27 260.645 149.43 262.825 147.99C263.691 147.645 264.613 147.466 265.545 147.46C265.475 148.4 265.715 149.54 265.285 150.27C260.754 157.83 253.655 163.509 245.285 166.27C233.625 170.36 223.485 167.83 214.995 158.67C207.725 150.82 203.995 141.29 201.995 131.04C200.635 124.12 200.025 116.99 199.215 110.86Z" fill="#534741"/>
<path d="M294.905 137.911C292.086 136.532 289.781 134.29 288.325 131.511C285.445 126.661 284.085 121.271 283.115 115.781C281.425 106.121 280.715 96.2612 276.915 87.0312C274.489 80.9029 271.355 75.0799 267.575 69.6811C260.165 59.3611 249.975 56.1011 237.765 57.1511C228.955 57.9011 221.815 62.0811 215.135 67.3911C212.69 69.4925 210.104 71.4237 207.395 73.1711C207.707 72.273 208.109 71.4086 208.595 70.5912C217.975 58.1112 230.275 52.0612 246.065 53.0912C258.415 53.9012 266.795 60.6212 273.275 70.4112C280.4 81.2738 284.854 93.6679 286.275 106.581C287.465 116.581 289.905 126.061 294.745 134.901C295.1 135.725 295.371 136.583 295.555 137.461L294.905 137.911Z" fill="#534741"/>
<path d="M363.074 374.13C360.778 374.428 358.589 375.283 356.698 376.62C354.807 377.956 353.271 379.735 352.224 381.8C351.23 383.892 350.863 386.227 351.166 388.523C351.469 390.819 352.431 392.978 353.934 394.74C356.389 397.157 359.455 398.861 362.804 399.67C364.465 399.959 366.168 399.898 367.804 399.49C374.744 397.78 379.444 389.83 377.614 382.93C375.784 376.03 367.754 371.47 360.884 373.43" fill="#E9D0C6"/>
<path d="M364.475 388.48C367.369 388.216 370.282 388.702 372.935 389.89C375.633 390.966 378.005 392.727 379.815 395C376.924 395.282 374.01 394.8 371.365 393.6C368.664 392.517 366.29 390.753 364.475 388.48V388.48Z" fill="#534741"/>
<path d="M343.595 378.83C346.489 378.57 349.402 379.055 352.055 380.24C354.754 381.316 357.125 383.077 358.935 385.35C356.044 385.644 353.127 385.175 350.475 383.99C347.773 382.896 345.402 381.118 343.595 378.83V378.83Z" fill="#534741"/>
<path d="M360.695 389.83C360.618 393.386 359.91 396.901 358.605 400.21C357.425 403.57 355.65 406.69 353.365 409.42C353.059 405.816 353.558 402.188 354.825 398.8C356.093 395.412 358.098 392.348 360.695 389.83V389.83Z" fill="#534741"/>
<path d="M372.025 362.27C371.949 365.827 371.238 369.342 369.925 372.649C368.753 376.011 366.981 379.131 364.695 381.859C364.389 378.255 364.888 374.628 366.155 371.24C367.423 367.852 369.428 364.788 372.025 362.27V362.27Z" fill="#534741"/>
<path d="M135.875 257.369C133.583 257.662 131.397 258.509 129.507 259.837C127.616 261.164 126.078 262.933 125.025 264.989C124.018 267.089 123.644 269.435 123.947 271.744C124.251 274.052 125.219 276.222 126.735 277.989C129.19 280.407 132.256 282.111 135.605 282.919C137.266 283.211 138.97 283.146 140.605 282.729C147.545 281.029 152.255 273.079 150.415 266.179C148.575 259.279 140.555 254.709 133.685 256.669" fill="#E9D0C6"/>
<path d="M137.255 271.72C140.149 271.452 143.064 271.938 145.715 273.13C148.417 274.2 150.79 275.963 152.595 278.24C149.704 278.522 146.79 278.039 144.145 276.84C141.446 275.755 139.073 273.991 137.255 271.72V271.72Z" fill="#534741"/>
<path d="M116.395 262.07C119.289 261.802 122.204 262.287 124.855 263.48C127.555 264.552 129.928 266.314 131.735 268.59C128.841 268.871 125.923 268.389 123.275 267.19C120.579 266.104 118.209 264.34 116.395 262.07V262.07Z" fill="#534741"/>
<path d="M133.475 273.061C133.397 276.62 132.689 280.138 131.385 283.451C130.206 286.81 128.431 289.93 126.145 292.661C125.757 289.054 126.258 285.408 127.605 282.041C128.81 278.618 130.824 275.538 133.475 273.061V273.061Z" fill="#534741"/>
<path d="M144.825 245.51C144.748 249.067 144.037 252.582 142.725 255.89C141.553 259.251 139.781 262.372 137.495 265.1C137.189 261.495 137.688 257.868 138.955 254.48C140.223 251.092 142.228 248.028 144.825 245.51V245.51Z" fill="#534741"/>
</svg>
